<svg width="21" height="21" viewBox="0 0 21 21" fill="none" xmlns="http://www.w3.org/2000/svg">
<g id="icon/solid/hard-drive">
<g id="Subtract">
<path d="M4.86592 3.66264C4.56011 3.96676 4.36038 4.38396 3.96091 5.21835L1.81912 9.69216H19.3366L17.1374 5.17149C16.7319 4.33804 16.5292 3.92125 16.2207 3.61873C15.9594 3.36233 15.6449 3.16648 15.2995 3.04501C14.8919 2.90168 14.4285 2.90357 13.5016 2.90734L7.57494 2.93144C6.64986 2.9352 6.18733 2.93708 5.78156 3.08324C5.43766 3.20712 5.12511 3.40489 4.86592 3.66264Z" fill="#FF998A"/>
<path fill-rule="evenodd" clip-rule="evenodd" d="M1.41675 11.997C1.41675 11.7555 1.41675 11.5448 1.41984 11.3588H19.747C19.7501 11.5448 19.7501 11.7555 19.7501 11.997V12.9272C19.7501 14.7306 19.7501 15.6322 19.3936 16.3186C19.0932 16.897 18.6216 17.3685 18.0432 17.669C17.3569 18.0255 16.4552 18.0255 14.6518 18.0255H6.51508C4.71169 18.0255 3.81 18.0255 3.12366 17.669C2.54529 17.3685 2.07371 16.897 1.77327 16.3186C1.41675 15.6322 1.41675 14.7306 1.41675 12.9272V11.997ZM5.56056 13.0237C5.10033 13.0237 4.72723 13.3967 4.72723 13.857C4.72723 14.3172 5.10033 14.6903 5.56056 14.6903H8.91689C9.37712 14.6903 9.75022 14.3172 9.75022 13.857C9.75022 13.3967 9.37712 13.0237 8.91689 13.0237H5.56056Z" fill="#FF998A"/>
</g>
</g>
</svg>
