<svg width="11" height="10" viewBox="0 0 11 10" fill="none" xmlns="http://www.w3.org/2000/svg">
<path fill-rule="evenodd" clip-rule="evenodd" d="M4.1544 1.21216C3.37804 1.21216 2.74868 1.84152 2.74868 2.61788C2.74868 3.39423 3.37804 4.02359 4.1544 4.02359C4.93075 4.02359 5.56011 3.39423 5.56011 2.61788C5.56011 1.84152 4.93075 1.21216 4.1544 1.21216ZM1.74868 2.61788C1.74868 1.28923 2.82576 0.212158 4.1544 0.212158C5.48304 0.212158 6.56011 1.28923 6.56011 2.61788C6.56011 3.94652 5.48304 5.02359 4.1544 5.02359C2.82576 5.02359 1.74868 3.94652 1.74868 2.61788ZM6.5495 0.663077C6.65312 0.40711 6.94461 0.283603 7.20058 0.387215C8.0813 0.743723 8.70405 1.60748 8.70405 2.61788C8.70405 3.62828 8.0813 4.49203 7.20058 4.84854C6.94461 4.95215 6.65312 4.82864 6.5495 4.57267C6.44589 4.31671 6.5694 4.02521 6.82537 3.9216C7.34145 3.71269 7.70405 3.20703 7.70405 2.61788C7.70405 2.02872 7.34145 1.52306 6.82537 1.31415C6.5694 1.21054 6.44589 0.919044 6.5495 0.663077ZM3.42212 5.92931H4.88668C5.31568 5.92931 5.66294 5.9293 5.9458 5.9486C6.23702 5.96847 6.49634 6.01046 6.74253 6.11244C7.332 6.3566 7.80033 6.82493 8.04449 7.4144C8.14647 7.66059 8.18846 7.9199 8.20833 8.21113C8.22762 8.49399 8.22762 8.84123 8.22762 9.27022V9.28789C8.22762 9.56403 8.00376 9.78789 7.72762 9.78789C7.45148 9.78789 7.22762 9.56403 7.22762 9.28789C7.22762 8.83707 7.22735 8.524 7.21064 8.2792C7.19425 8.03889 7.1637 7.90111 7.12061 7.79708C6.97794 7.45264 6.70429 7.17899 6.35985 7.03631C6.25582 6.99322 6.11804 6.96268 5.87773 6.94628C5.63293 6.92958 5.31986 6.92931 4.86904 6.92931H3.43975C2.98894 6.92931 2.67586 6.92958 2.43106 6.94628C2.19076 6.96268 2.05298 6.99322 1.94895 7.03631C1.60451 7.17899 1.33085 7.45264 1.18818 7.79708C1.14509 7.90111 1.11455 8.03889 1.09815 8.2792C1.08145 8.524 1.08118 8.83707 1.08118 9.28789C1.08118 9.56403 0.857319 9.78789 0.581177 9.78789C0.305035 9.78789 0.081177 9.56403 0.081177 9.28789L0.0811769 9.27023C0.0811733 8.84123 0.0811704 8.49399 0.10047 8.21113C0.12034 7.9199 0.162328 7.66059 0.264301 7.4144C0.508467 6.82493 0.976798 6.3566 1.56627 6.11244C1.81245 6.01046 2.07177 5.96847 2.36299 5.9486C2.64586 5.9293 2.99311 5.92931 3.42212 5.92931ZM8.19626 6.36472C8.26509 6.09729 8.53768 5.9363 8.80511 6.00513C9.8426 6.27216 10.6098 7.21338 10.6098 8.33503V9.28789C10.6098 9.56403 10.3859 9.78789 10.1098 9.78789C9.83362 9.78789 9.60977 9.56403 9.60977 9.28789V8.33503C9.60977 7.68071 9.16225 7.12965 8.55585 6.97357C8.28842 6.90474 8.12743 6.63215 8.19626 6.36472Z" fill="#667085"/>
</svg>
