<svg width="20" height="20" viewBox="0 0 20 20" fill="none" xmlns="http://www.w3.org/2000/svg">
<path fill-rule="evenodd" clip-rule="evenodd" d="M5.00008 1.66675C3.15913 1.66675 1.66675 3.15913 1.66675 5.00008V15.0001C1.66675 16.841 3.15913 18.3334 5.00008 18.3334H15.0001C16.841 18.3334 18.3334 16.841 18.3334 15.0001V5.00008C18.3334 3.15913 16.841 1.66675 15.0001 1.66675H5.00008ZM9.4951 6.33339H15.1028C15.517 6.33339 15.8528 6.66918 15.8528 7.08339C15.8528 7.49761 15.517 7.8334 15.1028 7.8334H9.4951C9.2032 8.51922 8.52312 9.00007 7.73073 9.00007C6.93834 9.00007 6.25825 8.51922 5.96636 7.8334H4.89739C4.48318 7.8334 4.14739 7.49761 4.14739 7.08339C4.14739 6.66918 4.48318 6.33339 4.89739 6.33339H5.96636C6.25826 5.64758 6.93834 5.16673 7.73073 5.16673C8.52312 5.16673 9.2032 5.64758 9.4951 6.33339ZM10.5051 12.1667H4.89739C4.48318 12.1667 4.14739 12.5025 4.14739 12.9167C4.14739 13.3309 4.48318 13.6667 4.89739 13.6667H10.5051C10.797 14.3525 11.477 14.8334 12.2694 14.8334C13.0618 14.8334 13.7419 14.3525 14.0338 13.6667H15.1028C15.517 13.6667 15.8528 13.3309 15.8528 12.9167C15.8528 12.5025 15.517 12.1667 15.1028 12.1667H14.0338C13.7419 11.4809 13.0618 11.0001 12.2694 11.0001C11.477 11.0001 10.797 11.4809 10.5051 12.1667Z" fill="#219BF4"/>
</svg>
