<svg width="21" height="21" viewBox="0 0 21 21" fill="none" xmlns="http://www.w3.org/2000/svg">
<g id="icon/solid/robot">
<path id="Vector" d="M14.7733 5.56726H15.7083C17.4342 5.56726 18.8333 6.96637 18.8333 8.69223V12.8589C18.8333 14.5847 17.4342 15.9838 15.7083 15.9838H5.29163C3.56575 15.9838 2.16663 14.5847 2.16663 12.8589V8.69223C2.16663 6.96637 3.56575 5.56726 5.29163 5.56726H6.22663L5.84604 3.28391C5.76092 2.7732 6.10596 2.29017 6.61667 2.20504C7.12738 2.11992 7.61042 2.46496 7.69554 2.97566L8.11221 5.47564C8.11733 5.5063 8.12088 5.53689 8.12296 5.56726H12.877C12.879 5.53684 12.8826 5.5063 12.8877 5.47564L13.3044 2.97566C13.3895 2.46496 13.8725 2.11992 14.3833 2.20504C14.894 2.29017 15.239 2.7732 15.1539 3.28391L14.7733 5.56726ZM6.24996 9.94222V10.7755C6.24996 11.2933 6.66971 11.713 7.18746 11.713C7.70521 11.713 8.12496 11.2933 8.12496 10.7755V9.94222C8.12496 9.42448 7.70521 9.00473 7.18746 9.00473C6.66971 9.00473 6.24996 9.42448 6.24996 9.94222ZM12.875 9.94222V10.7755C12.875 11.2933 13.2947 11.713 13.8125 11.713C14.3302 11.713 14.75 11.2933 14.75 10.7755V9.94222C14.75 9.42448 14.3302 9.00473 13.8125 9.00473C13.2947 9.00473 12.875 9.42448 12.875 9.94222ZM6.33329 18.8588C5.81554 18.8588 5.39579 18.4391 5.39579 17.9213C5.39579 17.4036 5.81554 16.9838 6.33329 16.9838H14.6666C15.1844 16.9838 15.6041 17.4036 15.6041 17.9213C15.6041 18.4391 15.1844 18.8588 14.6666 18.8588H6.33329Z" fill="#00C9B1"/>
</g>
</svg>
