<svg width="20" height="20" viewBox="0 0 20 20" fill="none" xmlns="http://www.w3.org/2000/svg">
<g id="icon/line/check-circle-broken">
<path id="Icon (Stroke)" fill-rule="evenodd" clip-rule="evenodd" d="M12.7309 3.87155C11.4093 3.28268 9.93279 3.1368 8.52152 3.45566C7.11025 3.77452 5.83986 4.54103 4.89981 5.64088C3.95976 6.74073 3.40043 8.11499 3.30524 9.5587C3.21004 11.0024 3.58407 12.4382 4.37156 13.652C5.15905 14.8658 6.31779 15.7924 7.67497 16.2938C9.03216 16.7953 10.5151 16.8445 11.9025 16.4343C13.29 16.0241 14.5077 15.1763 15.374 14.0175C16.2403 12.8587 16.7088 11.4508 16.7096 10.004V9.31054C16.7096 8.8503 17.0827 8.47721 17.543 8.47721C18.0032 8.47721 18.3763 8.8503 18.3763 9.31054V10.0045C18.3753 11.8107 17.7904 13.5687 16.7089 15.0154C15.6274 16.4621 14.1072 17.5204 12.3751 18.0326C10.643 18.5447 8.7917 18.4832 7.09738 17.8572C5.40307 17.2313 3.95649 16.0744 2.97339 14.5591C1.99028 13.0438 1.52333 11.2514 1.64218 9.44904C1.76103 7.64671 2.4593 5.93108 3.63286 4.55801C4.80641 3.18495 6.39238 2.22803 8.15422 1.82997C9.91606 1.4319 11.7594 1.61402 13.4093 2.34917C13.8296 2.53648 14.0186 3.02913 13.8313 3.44952C13.644 3.86992 13.1513 4.05886 12.7309 3.87155ZM18.1319 3.37637C18.4575 3.70164 18.4578 4.22928 18.1325 4.55488L10.5897 12.1052C10.4335 12.2616 10.2215 12.3495 10.0004 12.3496C9.77928 12.3497 9.56724 12.2619 9.4109 12.1055L7.14806 9.84268C6.82263 9.51724 6.82263 8.9896 7.14806 8.66417C7.4735 8.33873 8.00114 8.33873 8.32658 8.66417L9.99987 10.3375L16.9534 3.37696C17.2787 3.05136 17.8063 3.05109 18.1319 3.37637Z" fill="#219BF4"/>
</g>
</svg>
