<svg width="32" height="32" viewBox="0 0 32 32" fill="none" xmlns="http://www.w3.org/2000/svg">
<g id="icon/logo/oss">
<path id="Vector" d="M26.1346 19.8008C26.4673 19.8008 26.7968 19.8664 27.1042 19.9937C27.4115 20.121 27.6908 20.3076 27.9261 20.5429C28.1613 20.7781 28.3479 21.0574 28.4753 21.3648C28.6026 21.6722 28.6681 22.0016 28.6681 22.3343V26.1345C28.6681 26.4672 28.6026 26.7966 28.4753 27.104C28.3479 27.4114 28.1613 27.6907 27.9261 27.9259C27.6908 28.1612 27.4115 28.3478 27.1042 28.4751C26.7968 28.6024 26.4673 28.668 26.1346 28.668H5.86698C5.53429 28.668 5.20485 28.6024 4.89747 28.4751C4.5901 28.3478 4.31081 28.1612 4.07556 27.9259C3.84031 27.6907 3.65369 27.4114 3.52637 27.104C3.39906 26.7966 3.33353 26.4672 3.33353 26.1345V22.3343C3.33353 22.0016 3.39906 21.6722 3.52637 21.3648C3.65369 21.0574 3.84031 20.7781 4.07556 20.5429C4.31081 20.3076 4.5901 20.121 4.89747 19.9937C5.20485 19.8664 5.53429 19.8008 5.86698 19.8008H26.1346ZM18.0276 23.221H13.974C13.7053 23.221 13.4475 23.3278 13.2575 23.5178C13.0674 23.7079 12.9607 23.9656 12.9607 24.2344C12.9607 24.5032 13.0674 24.7609 13.2575 24.951C13.4475 25.141 13.7053 25.2478 13.974 25.2478H18.0276C18.2963 25.2478 18.5541 25.141 18.7442 24.951C18.9342 24.7609 19.041 24.5032 19.041 24.2344C19.041 23.9656 18.9342 23.7079 18.7442 23.5178C18.5541 23.3278 18.2963 23.221 18.0276 23.221ZM26.1346 9.66702C26.4673 9.66702 26.7968 9.73255 27.1042 9.85987C27.4115 9.98719 27.6908 10.1738 27.9261 10.4091C28.1613 10.6443 28.3479 10.9236 28.4753 11.231C28.6026 11.5383 28.6681 11.8678 28.6681 12.2005V16.0007C28.6681 16.3334 28.6026 16.6628 28.4753 16.9702C28.3479 17.2775 28.1613 17.5568 27.9261 17.7921C27.6908 18.0273 27.4115 18.214 27.1042 18.3413C26.7968 18.4686 26.4673 18.5341 26.1346 18.5341H5.86698C5.53429 18.5341 5.20485 18.4686 4.89747 18.3413C4.5901 18.214 4.31081 18.0273 4.07556 17.7921C3.84031 17.5568 3.65369 17.2775 3.52637 16.9702C3.39906 16.6628 3.33353 16.3334 3.33353 16.0007V12.2005C3.33353 11.8678 3.39906 11.5383 3.52637 11.231C3.65369 10.9236 3.84031 10.6443 4.07556 10.4091C4.31081 10.1738 4.5901 9.98719 4.89747 9.85987C5.20485 9.73255 5.53429 9.66702 5.86698 9.66702H26.1346ZM18.0276 13.0872H13.974C13.7053 13.0872 13.4475 13.194 13.2575 13.384C13.0674 13.574 12.9607 13.8318 12.9607 14.1006C12.9607 14.3693 13.0674 14.6271 13.2575 14.8171C13.4475 15.0072 13.7053 15.114 13.974 15.114H18.0276C18.2963 15.114 18.5541 15.0072 18.7442 14.8171C18.9342 14.6271 19.041 14.3693 19.041 14.1006C19.041 13.8318 18.9342 13.574 18.7442 13.384C18.5541 13.194 18.2963 13.0872 18.0276 13.0872ZM10.2207 3.33337H21.7809C22.1524 3.33333 22.5195 3.41501 22.8559 3.57262C23.1924 3.73024 23.4901 3.95993 23.7279 4.24542L26.1346 7.13356H5.86698L8.27377 4.24542C8.51156 3.95993 8.80924 3.73024 9.1457 3.57262C9.48217 3.41501 9.84918 3.33333 10.2207 3.33337Z" fill="#3195F9"/>
</g>
</svg>
