<svg width="32" height="32" viewBox="0 0 32 32" fill="none" xmlns="http://www.w3.org/2000/svg">
<g id="icon/solid/private">
<path id="Subtract" fill-rule="evenodd" clip-rule="evenodd" d="M7.99999 2.66663C5.05447 2.66663 2.66666 5.05444 2.66666 7.99996V24C2.66666 26.9455 5.05447 29.3333 7.99999 29.3333H24C26.9455 29.3333 29.3333 26.9455 29.3333 24V7.99996C29.3333 5.05444 26.9455 2.66663 24 2.66663H7.99999ZM18.3285 16.1072C18.1136 16.2592 18.0053 16.5314 18.0938 16.7793L19.6089 21.0254C19.9187 21.8936 19.275 22.8068 18.3531 22.8068H13.9138C12.9919 22.8068 12.3482 21.8936 12.658 21.0254L14.1732 16.7793C14.2616 16.5314 14.1533 16.2592 13.9384 16.1072C12.9642 15.418 12.3282 14.2825 12.3282 12.9984C12.3282 10.8968 14.0318 9.19312 16.1334 9.19312C18.235 9.19312 19.9387 10.8968 19.9387 12.9984C19.9387 14.2825 19.3027 15.418 18.3285 16.1072Z" fill="#C783FF"/>
</g>
</svg>
