<svg width="32" height="32" viewBox="0 0 32 32" fill="none" xmlns="http://www.w3.org/2000/svg">
<g id="Frame">
<path id="Vector" d="M16.0534 2C17.3305 3.15703 19.0032 4.07119 21.0713 4.74244C23.1395 5.41369 25.4491 5.83288 28 6L27.9989 13.7557C27.999 15.5907 27.9993 17.3388 28 19C28 23.2354 24.0178 26.902 16.0534 30C8.01778 26.6667 4 23 4 19L4.00187 18.1127C4.00962 14.1167 4.009 10.0791 4 6C6.60963 5.93419 8.78156 5.57731 10.5157 4.92938C12.25 4.28144 14.0958 3.305 16.0534 2ZM6.1875 19.0008L6.18772 19.0397C6.20184 20.3518 6.91675 21.7003 8.48794 23.1342C10.1399 24.6418 12.6461 26.1411 15.9979 27.5998L16.0787 27.6349L16.1411 27.6094C19.4083 26.2675 21.856 24.842 23.4784 23.366L23.5316 23.3173C25.0998 21.8734 25.8125 20.4591 25.8125 19.0008L25.8114 11.83L25.8119 7.99206L25.7796 7.98812C23.8805 7.75394 22.1083 7.37353 20.4636 6.84491L20.3961 6.82309C18.7063 6.27466 17.2258 5.57056 15.9614 4.70484L15.9221 4.67778L15.9013 4.6905C14.3245 5.64834 12.8046 6.40456 11.3385 6.95709L11.2814 6.97853C9.83275 7.51978 8.15941 7.87659 6.25825 8.05762L6.19134 8.06388L6.19166 8.25875C6.19644 11.5724 6.19569 14.8584 6.18934 18.1169L6.1875 19.0008Z" fill="#00B9EC"/>
<path id="Vector_2" d="M22.611 18.5537C23.1339 18.8562 23.3125 19.5253 23.01 20.0481C21.5735 22.5311 18.9223 24.0938 16 24.0938C14.7952 24.0938 13.6257 23.8296 12.5577 23.3271C12.0112 23.0699 11.7765 22.4183 12.0337 21.8718C12.2909 21.3252 12.9424 21.0906 13.489 21.3477C14.2672 21.7139 15.1189 21.9062 16 21.9062C18.1121 21.9062 20.0285 20.7892 21.0848 19.0069L21.1166 18.9527C21.4191 18.4298 22.0882 18.2512 22.611 18.5537ZM12.8967 9.62912C13.2389 10.1196 13.1233 10.7927 12.6402 11.1415L12.6255 11.152C11.0504 12.2507 10.0938 14.0439 10.0938 16C10.0938 17.0531 10.3688 18.0634 10.8839 18.9535C11.1865 19.4763 11.008 20.1454 10.4852 20.448C9.96234 20.7506 9.29325 20.5721 8.99066 20.0493C8.284 18.8283 7.90625 17.4404 7.90625 16C7.90625 13.3212 9.21844 10.8616 11.3739 9.35787C11.8693 9.01225 12.5511 9.13372 12.8967 9.62912H12.8967ZM16 7.90625C20.2147 7.90625 23.7144 11.1401 24.0651 15.3147C24.1157 15.9166 23.6687 16.4456 23.0667 16.4962C22.4708 16.5462 21.9464 16.1086 21.8869 15.5158L21.8853 15.4978C21.6322 12.4845 19.1261 10.141 16.0921 10.0945L16 10.0938C15.3959 10.0938 14.9062 9.60406 14.9062 9C14.9062 8.39594 15.3959 7.90625 16 7.90625Z" fill="#00B9EC"/>
<path id="Vector_3" d="M14 9C14 9.53043 14.2107 10.0391 14.5858 10.4142C14.9609 10.7893 15.4696 11 16 11C16.5304 11 17.0391 10.7893 17.4142 10.4142C17.7893 10.0391 18 9.53043 18 9C18 8.46957 17.7893 7.96086 17.4142 7.58579C17.0391 7.21071 16.5304 7 16 7C15.4696 7 14.9609 7.21071 14.5858 7.58579C14.2107 7.96086 14 8.46957 14 9Z" fill="#00B9EC"/>
<path id="Vector_4" d="M10.9378 21.232C11.1653 21.1007 11.3646 20.9259 11.5245 20.7175C11.6844 20.5092 11.8017 20.2713 11.8697 20.0176C11.9376 19.7639 11.955 19.4993 11.9207 19.2389C11.8864 18.9785 11.8012 18.7275 11.6699 18.5C11.5385 18.2725 11.3637 18.0732 11.1553 17.9133C10.947 17.7534 10.7091 17.6361 10.4554 17.5681C10.2017 17.5002 9.93715 17.4828 9.67675 17.5171C9.41636 17.5514 9.16526 17.6366 8.93781 17.7679C8.71035 17.8993 8.51099 18.0741 8.3511 18.2825C8.19121 18.4908 8.07393 18.7287 8.00595 18.9824C7.93798 19.2361 7.92063 19.5007 7.95492 19.7611C7.9892 20.0214 8.07443 20.2725 8.20575 20.5C8.33708 20.7275 8.51191 20.9268 8.72028 21.0867C8.92865 21.2466 9.16647 21.3639 9.42017 21.4319C9.67386 21.4998 9.93846 21.5172 10.1989 21.4829C10.4593 21.4486 10.7103 21.3634 10.9378 21.232Z" fill="#00B9EC"/>
<path id="Vector_5" d="M23.0622 17.768C22.6028 17.5027 22.0569 17.4309 21.5446 17.5682C21.0322 17.7054 20.5954 18.0406 20.3301 18.5C20.0649 18.9594 19.9931 19.5053 20.1303 20.0176C20.2676 20.53 20.6028 20.9668 21.0622 21.2321C21.2897 21.3634 21.5408 21.4486 21.8011 21.4829C22.0615 21.5172 22.3261 21.4998 22.5798 21.4319C22.8335 21.3639 23.0714 21.2466 23.2797 21.0867C23.4881 20.9268 23.6629 20.7275 23.7943 20.5C23.9256 20.2725 24.0108 20.0215 24.0451 19.7611C24.0794 19.5007 24.062 19.2361 23.9941 18.9824C23.9261 18.7287 23.8088 18.4909 23.6489 18.2825C23.489 18.0741 23.2897 17.8993 23.0622 17.768Z" fill="#00B9EC"/>
<path id="Vector_6" d="M16 11.9062C16.598 11.9062 17.0839 12.3862 17.0936 12.9819L17.0938 13V18C17.0938 18.6041 16.6041 19.0938 16 19.0938C15.402 19.0938 14.9161 18.6138 14.9064 18.0181L14.9062 18V13C14.9062 12.3959 15.3959 11.9062 16 11.9062ZM13 13.9062C13.598 13.9062 14.0839 14.3862 14.0936 14.9819L14.0938 15V18C14.0938 18.6041 13.6041 19.0938 13 19.0938C12.402 19.0938 11.9161 18.6138 11.9064 18.0181L11.9062 18V15C11.9062 14.3959 12.3959 13.9062 13 13.9062ZM19 14.9062C19.598 14.9062 20.0839 15.3862 20.0936 15.9819L20.0938 16V18C20.0938 18.6041 19.6041 19.0938 19 19.0938C18.402 19.0938 17.9161 18.6138 17.9064 18.0181L17.9062 18V16C17.9062 15.3959 18.3959 14.9062 19 14.9062Z" fill="#00B9EC"/>
</g>
</svg>
