<svg width="92" height="96" viewBox="0 0 92 96" fill="none" xmlns="http://www.w3.org/2000/svg">
<g id="Frame">
<ellipse id="Ellipse 98" cx="40.0752" cy="83.5429" rx="35.2149" ry="4.45599" fill="#D5F0FF"/>
<g id="Group 20787">
<g id="Group 20786">
<path id="Vector 29" d="M52.4978 6.39079L50.3344 6.48639L67.1394 25.8618C67.6412 26.4404 67.3287 27.3454 66.5767 27.4909L57.7842 29.1928C57.3162 29.2834 56.9781 29.6932 56.9781 30.1699L56.9781 75.068L59.8349 73.3679C60.1354 73.189 60.3199 72.8656 60.3211 72.516L60.4565 31.3891C60.458 30.9156 60.793 30.5088 61.2574 30.4164L68.5151 28.9717C70.0096 28.6742 70.6291 26.8763 69.6351 25.7213L53.296 6.73584C53.097 6.5045 52.8027 6.37732 52.4978 6.39079Z" fill="url(#paint0_linear_21_2790)"/>
<path id="Vector 30" d="M44.6623 31.8969L34.6247 33.0972L37.1744 34.2195C37.8522 34.5179 38.5999 34.6212 39.3333 34.5179L44.6416 33.7702L44.6623 31.8969Z" fill="#72D0FF"/>
<path id="Vector 28" d="M49.6513 6.94601L34.2765 31.7495C33.8324 32.4661 34.4246 33.3757 35.2595 33.2595L43.3593 32.1325C43.9666 32.048 44.5051 32.5275 44.4914 33.1405L43.5189 76.5436C43.5047 77.175 44.0747 77.6597 44.6957 77.5443L56.6847 75.316C57.1561 75.2283 57.498 74.817 57.498 74.3375L57.498 30.124C57.498 29.6421 57.8433 29.2295 58.3177 29.1445L66.8821 27.6096C67.6367 27.4744 67.9614 26.5726 67.4663 25.9873L51.2569 6.82756C50.8203 6.31154 50.0074 6.37152 49.6513 6.94601Z" fill="url(#paint1_linear_21_2790)"/>
</g>
<g id="Group 20785" opacity="0.5">
<path id="Vector 34" d="M22.9209 27.915L21.5327 28.1518L31.7366 39.8789C32.0413 40.2291 31.8523 40.7778 31.3966 40.866L26.0761 41.8958C25.7922 41.9508 25.5874 42.1996 25.588 42.4887L25.655 73.2999L27.3837 72.2711C27.5661 72.1626 27.6779 71.966 27.678 71.7537L27.6943 43.2272C27.6944 42.9399 27.8974 42.6927 28.1792 42.6366L32.6002 41.7565C33.4987 41.5777 33.8769 40.5014 33.2879 39.7998L23.4837 28.1216C23.3461 27.9576 23.1318 27.879 22.9209 27.915Z" fill="url(#paint2_linear_21_2790)"/>
<path id="Vector 35" d="M18.131 43.5341L12.0536 44.2607L13.5974 44.9403C14.0078 45.1209 14.4605 45.1835 14.9045 45.1209L18.1184 44.6683L18.131 43.5341Z" fill="#A1D7FF"/>
<path id="Vector 36" d="M21.1512 28.4274L11.8426 43.4447C11.5737 43.8785 11.9322 44.4293 12.4377 44.3589L17.3341 43.6777C17.7044 43.6261 18.0317 43.9207 18.0193 44.2944L17.0068 74.8702C16.9933 75.2761 17.3772 75.5788 17.7688 75.4711L25.5027 73.3438C25.7646 73.2718 25.9459 73.0336 25.9455 72.762L25.9028 42.4613C25.9024 42.1692 26.1115 41.9189 26.3991 41.8673L31.5837 40.9382C32.0406 40.8563 32.2372 40.3103 31.9374 39.9559L22.1234 28.3556C21.8591 28.0432 21.3669 28.0795 21.1512 28.4274Z" fill="url(#paint3_linear_21_2790)"/>
</g>
</g>
<path id="Star 1" d="M6.61806 5.1002C6.79141 4.68848 7.37483 4.68848 7.54817 5.1002L9.14444 8.89169C9.19558 9.01317 9.29223 9.10981 9.4137 9.16095L13.2052 10.7572C13.6169 10.9306 13.6169 11.514 13.2052 11.6873L9.4137 13.2836C9.29223 13.3347 9.19558 13.4314 9.14444 13.5529L7.54817 17.3443C7.37483 17.7561 6.79141 17.7561 6.61806 17.3443L5.02179 13.5529C4.97065 13.4314 4.874 13.3347 4.75253 13.2836L0.961044 11.6873C0.549318 11.514 0.549319 10.9306 0.961045 10.7572L4.75253 9.16095C4.87401 9.10981 4.97065 9.01316 5.02179 8.89169L6.61806 5.1002Z" fill="#A4E0FF"/>
<path id="Star 2" d="M84.3085 36.1266C84.4818 35.7148 85.0653 35.7148 85.2386 36.1266L86.8349 39.9181C86.886 40.0395 86.9827 40.1362 87.1041 40.1873L90.8956 41.7836C91.3073 41.9569 91.3073 42.5404 90.8956 42.7137L87.1041 44.31C86.9827 44.3611 86.886 44.4578 86.8349 44.5792L85.2386 48.3707C85.0653 48.7824 84.4818 48.7824 84.3085 48.3707L82.7122 44.5792C82.6611 44.4578 82.5644 44.3611 82.443 44.31L78.6515 42.7137C78.2397 42.5404 78.2397 41.9569 78.6515 41.7836L82.443 40.1873C82.5644 40.1362 82.6611 40.0395 82.7122 39.9181L84.3085 36.1266Z" fill="#A4E0FF"/>
</g>
<defs>
<linearGradient id="paint0_linear_21_2790" x1="37.4319" y1="14.5357" x2="74.6402" y2="69.4454" gradientUnits="userSpaceOnUse">
<stop stop-color="#76CFFF"/>
<stop offset="1" stop-color="#B0E6FF"/>
</linearGradient>
<linearGradient id="paint1_linear_21_2790" x1="30.1762" y1="19.3982" x2="67.3731" y2="74.2911" gradientUnits="userSpaceOnUse">
<stop stop-color="#78D0FF"/>
<stop offset="1" stop-color="#D1F0FF"/>
</linearGradient>
<linearGradient id="paint2_linear_21_2790" x1="13.7523" y1="33.0216" x2="36.2801" y2="66.2669" gradientUnits="userSpaceOnUse">
<stop stop-color="#43BDFD"/>
<stop offset="1" stop-color="#B0E1FF"/>
</linearGradient>
<linearGradient id="paint3_linear_21_2790" x1="20.8739" y1="31.1066" x2="31.8811" y2="69.2004" gradientUnits="userSpaceOnUse">
<stop stop-color="#5EC7FF"/>
<stop offset="1" stop-color="#D1F0FF"/>
</linearGradient>
</defs>
</svg>
