<svg width="96" height="100" viewBox="0 0 96 100" fill="none" xmlns="http://www.w3.org/2000/svg">
<g id="Frame">
<ellipse id="Ellipse 98" cx="58.2545" cy="86.9828" rx="28.8824" ry="5.01599" fill="#C8EFFC"/>
<path id="Vector" d="M26.7272 53.6082C26.4137 57.1171 26.9369 60.7131 28.3835 64.0997C31.2433 70.7897 35.1145 77.2031 38.6782 83.5916C39.1347 84.4066 40.0262 84.9138 40.9902 84.9138H47.6846C49.1295 84.9138 50.3057 83.7916 50.3057 82.4127V79.3529C52.5882 79.7688 54.9037 79.9771 57.2238 79.9751C58.7364 79.9751 60.2104 79.8894 61.6638 79.7175L63.3479 83.4125C63.7677 84.3209 64.7111 84.9134 65.752 84.9134H72.4758C73.9207 84.9134 75.0968 83.7912 75.0968 82.4127V75.3999C80.5769 72.2765 84.7323 67.7452 86.7396 62.4632L91.5382 60.0747C92.2804 59.7028 92.7436 58.9751 92.7436 58.1733V50.2553C92.7436 49.0696 91.7326 48.1036 90.4905 48.112L86.7915 48.1261C85.3618 44.3015 82.816 40.8714 79.4462 38.0692L82.4795 32.1364C83.1593 30.7932 82.2384 29.2062 80.6811 29.0641C77.1029 28.7276 71.0827 28.7345 66.0655 31.5214C65.1943 31.3121 64.3154 31.136 63.4308 30.9933C63.3784 31.1297 63.3181 31.2718 63.2589 31.4071C62.6898 32.6943 61.8735 33.8446 60.8395 34.8315C60.6382 35.0243 60.4285 35.2091 60.2104 35.3878C60.9296 35.4526 61.5736 35.5311 62.1057 35.61C63.079 35.752 63.7222 36.6605 63.4895 37.5742V37.5826C63.2887 38.3892 62.4648 38.9117 61.6026 38.7905C58.676 38.3683 52.0042 37.8611 46.0299 40.5547C45.2442 40.9125 44.2923 40.6267 43.8584 39.9054C43.3637 39.09 43.7091 38.0467 44.599 37.6454C45.4914 37.2473 46.4064 36.9017 47.3392 36.6106C46.444 36.1309 45.618 35.5322 44.8836 34.8307C44.3375 34.3072 43.8459 33.7297 43.4161 33.1072C40.1365 34.4226 37.0823 36.2322 34.4463 38.547C29.9315 42.5068 27.2368 47.9466 26.7264 53.6073L26.7272 53.6082ZM71.2988 48.6324C71.2988 46.8526 72.8042 45.4161 74.6686 45.4161C76.5334 45.4161 78.0371 46.8522 78.0371 48.6324C78.0371 50.4127 76.5334 51.8488 74.6686 51.8488C72.8046 51.8488 71.2988 50.4127 71.2988 48.6324Z" fill="url(#paint0_linear_21_2760)"/>
<ellipse id="Ellipse 1" cx="57.4166" cy="55.3502" rx="30.7867" ry="24.8121" fill="url(#paint1_linear_21_2760)"/>
<g id="Vector_2" filter="url(#filter0_b_21_2760)">
<path d="M49.5848 11.7305C42.8705 11.7305 37.3477 17.3059 37.3477 24.0201C37.3477 30.7338 42.7905 36.1767 49.5048 36.1767C56.219 36.1767 61.7419 30.6013 61.7419 23.887C61.7419 17.1728 56.2996 11.7305 49.5848 11.7305Z" fill="#98E3F6" fill-opacity="0.8"/>
</g>
<path id="Vector 16 (Stroke)" fill-rule="evenodd" clip-rule="evenodd" d="M52.9308 41.3537C49.4925 42.0427 46.5428 43.2057 44.9232 44.0378C44.1323 44.4441 43.1618 44.1324 42.7554 43.3415C42.3491 42.5506 42.6608 41.58 43.4518 41.1737C45.3304 40.2085 48.5618 38.9452 52.2981 38.1965C56.0258 37.4494 60.3931 37.1869 64.4677 38.363C65.322 38.6096 65.8147 39.5021 65.5681 40.3564C65.3215 41.2107 64.429 41.7033 63.5747 41.4567C60.178 40.4762 56.3775 40.663 52.9308 41.3537Z" fill="url(#paint2_linear_21_2760)" stroke="url(#paint3_linear_21_2760)" stroke-opacity="0.5" stroke-width="0.4025" stroke-linecap="round"/>
<g id="Ellipse 2">
<circle cx="77.8952" cy="49.8893" r="3.06508" fill="url(#paint4_linear_21_2760)" fill-opacity="0.7"/>
<circle cx="77.8952" cy="49.8893" r="2.86383" stroke="url(#paint5_linear_21_2760)" stroke-opacity="0.5" stroke-width="0.4025"/>
</g>
<g id="&#194;&#165;">
<path d="M47.5008 17.4438L50.1894 24.0033L48.3271 25.4144L44.6787 17.4438H47.5008ZM48.9309 23.9397L51.5878 17.4438H54.4098L50.7424 25.4144L48.9309 23.9397ZM50.8695 23.6092V30.4611H48.1491V23.6092H50.8695ZM53.4374 23.7491V25.319H45.3779V23.7491H53.4374ZM53.4374 26.2661V27.836H45.3779V26.2661H53.4374Z" fill="white"/>
<path d="M47.7078 17.359L47.6509 17.2201H47.5008H44.6787H44.3302L44.4753 17.537L47.2164 23.5253H45.3779H45.1541V23.7491V25.319V25.5427H45.3779H47.9254V26.0423H45.3779H45.1541V26.2661V27.836V28.0597H45.3779H47.9254V30.4611V30.6848H48.1491H50.8695H51.0933V30.4611V28.0597H53.4374H53.6611V27.836V26.2661V26.0423H53.4374H51.0933V25.5427H53.4374H53.6611V25.319V23.7491V23.5253H53.4374H51.8579L54.6131 17.5374L54.7591 17.2201H54.4098H51.5878H51.4375L51.3807 17.3592L49.5463 21.8443L47.7078 17.359Z" stroke="#5FA1F8" stroke-opacity="0.05" stroke-width="0.447467"/>
</g>
<path id="Star 1" d="M11.9462 27.5235C12.1195 27.1118 12.703 27.1118 12.8763 27.5235L14.4726 31.315C14.5237 31.4365 14.6204 31.5331 14.7418 31.5843L18.5333 33.1806C18.945 33.3539 18.945 33.9373 18.5333 34.1107L14.7418 35.7069C14.6204 35.7581 14.5237 35.8547 14.4726 35.9762L12.8763 39.7677C12.703 40.1794 12.1195 40.1794 11.9462 39.7677L10.3499 35.9762C10.2988 35.8547 10.2021 35.7581 10.0807 35.7069L6.28917 34.1107C5.87744 33.9373 5.87744 33.3539 6.28917 33.1806L10.0807 31.5843C10.2021 31.5331 10.2988 31.4365 10.3499 31.315L11.9462 27.5235Z" fill="#ACEEFF"/>
<path id="Star 2" d="M78.6347 1.56895C78.808 1.15723 79.3914 1.15723 79.5648 1.56895L81.161 5.36044C81.2122 5.48192 81.3088 5.57856 81.4303 5.6297L85.2218 7.22597C85.6335 7.39932 85.6335 7.98274 85.2218 8.15608L81.4303 9.75235C81.3088 9.80349 81.2122 9.90014 81.161 10.0216L79.5648 13.8131C79.3914 14.2248 78.808 14.2248 78.6347 13.8131L77.0384 10.0216C76.9872 9.90014 76.8906 9.80349 76.7691 9.75235L72.9776 8.15608C72.5659 7.98274 72.5659 7.39932 72.9776 7.22597L76.7691 5.6297C76.8906 5.57856 76.9872 5.48191 77.0384 5.36044L78.6347 1.56895Z" fill="#ACEEFF"/>
</g>
<defs>
<filter id="filter0_b_21_2760" x="31.7543" y="6.13713" width="35.5809" height="35.633" filterUnits="userSpaceOnUse" color-interpolation-filters="sRGB">
<feFlood flood-opacity="0" result="BackgroundImageFix"/>
<feGaussianBlur in="BackgroundImageFix" stdDeviation="2.79667"/>
<feComposite in2="SourceAlpha" operator="in" result="effect1_backgroundBlur_21_2760"/>
<feBlend mode="normal" in="SourceGraphic" in2="effect1_backgroundBlur_21_2760" result="shape"/>
</filter>
<linearGradient id="paint0_linear_21_2760" x1="59.6916" y1="28.9141" x2="59.6916" y2="84.9138" gradientUnits="userSpaceOnUse">
<stop stop-color="#69D7F0"/>
<stop offset="1" stop-color="#94DEF1"/>
</linearGradient>
<linearGradient id="paint1_linear_21_2760" x1="57.4166" y1="30.5381" x2="57.4166" y2="80.1623" gradientUnits="userSpaceOnUse">
<stop stop-color="#79DBF1"/>
<stop offset="1" stop-color="#D4EDF9"/>
</linearGradient>
<linearGradient id="paint2_linear_21_2760" x1="64.0212" y1="39.1681" x2="44.1875" y2="42.6057" gradientUnits="userSpaceOnUse">
<stop stop-color="white" stop-opacity="0.7"/>
<stop offset="1" stop-color="white" stop-opacity="0.4"/>
</linearGradient>
<linearGradient id="paint3_linear_21_2760" x1="65.6316" y1="39.6076" x2="42.2171" y2="44.7134" gradientUnits="userSpaceOnUse">
<stop stop-color="white"/>
<stop offset="1" stop-color="white" stop-opacity="0"/>
</linearGradient>
<linearGradient id="paint4_linear_21_2760" x1="77.8952" y1="46.8242" x2="77.8952" y2="52.9544" gradientUnits="userSpaceOnUse">
<stop stop-color="white"/>
<stop offset="1" stop-color="white" stop-opacity="0"/>
</linearGradient>
<linearGradient id="paint5_linear_21_2760" x1="77.8952" y1="46.8242" x2="77.8952" y2="52.9544" gradientUnits="userSpaceOnUse">
<stop stop-color="white"/>
<stop offset="1" stop-color="white" stop-opacity="0"/>
</linearGradient>
</defs>
</svg>
