<svg width="327" height="29" viewBox="0 0 327 29" fill="none" xmlns="http://www.w3.org/2000/svg">
<g clip-path="url(#clip0_47_1357)">
<g clip-path="url(#clip1_47_1357)">
<path d="M17.2508 11.0966H17.8612L19.6007 9.3571L19.6865 8.61828C18.69 7.73867 17.4856 7.12763 16.1872 6.84289C14.8888 6.55814 13.5393 6.6091 12.266 6.99094C10.9928 7.37278 9.83797 8.0729 8.91056 9.02516C7.98315 9.97743 7.3138 11.1504 6.96576 12.4333C7.15922 12.354 7.37436 12.3415 7.57616 12.3966L11.0551 11.8229C11.0551 11.8229 11.2327 11.5302 11.3236 11.5477C12.0692 10.729 13.0996 10.2262 14.2038 10.1423C15.308 10.0585 16.4025 10.3998 17.2633 11.0966H17.2508Z" fill="#EA4335"/>
<path d="M22.0792 12.4326C21.6789 10.9602 20.8576 9.63664 19.716 8.62427L17.2744 11.0659C17.7831 11.4817 18.1908 12.0075 18.4666 12.6038C18.7425 13.2001 18.8795 13.8512 18.8671 14.5081V14.9417C19.4434 14.9417 19.9962 15.1707 20.4037 15.5782C20.8112 15.9857 21.0402 16.5385 21.0402 17.1148C21.0402 17.6911 20.8112 18.2439 20.4037 18.6514C19.9962 19.0589 19.4434 19.2879 18.8671 19.2879H14.5226L14.089 19.7273V22.3332L14.5226 22.7668H18.8671C20.081 22.7768 21.2658 22.3957 22.2463 21.68C23.2267 20.9642 23.9507 19.9518 24.311 18.7926C24.6713 17.6334 24.6488 16.3889 24.2469 15.2435C23.8449 14.0981 23.0849 13.1125 22.0792 12.4326Z" fill="#4285F4"/>
<path d="M10.1706 22.743H14.5167V19.2641H10.1706C9.86091 19.2638 9.55491 19.197 9.27333 19.0681L8.66293 19.2574L6.91096 20.9969L6.75836 21.6073C7.74074 22.3492 8.9395 22.7482 10.1706 22.743Z" fill="#34A853"/>
<path d="M10.1698 11.4563C8.99221 11.4632 7.84616 11.8378 6.89177 12.5277C5.93738 13.2176 5.22232 14.1884 4.84648 15.3044C4.47064 16.4204 4.45279 17.626 4.79542 18.7527C5.13805 19.8794 5.82405 20.8709 6.75759 21.5888L9.2784 19.068C8.95798 18.9232 8.67745 18.7029 8.4609 18.4259C8.24436 18.1489 8.09825 17.8235 8.03513 17.4776C7.97201 17.1318 7.99376 16.7757 8.09851 16.4401C8.20326 16.1045 8.38788 15.7993 8.63653 15.5507C8.88518 15.3021 9.19043 15.1176 9.52609 15.0129C9.86175 14.9083 10.2178 14.8866 10.5637 14.9499C10.9095 15.0131 11.2349 15.1593 11.5118 15.3759C11.7887 15.5925 12.009 15.8731 12.1536 16.1936L14.6744 13.6719C14.1453 12.9803 13.4633 12.4203 12.6819 12.036C11.9004 11.6516 11.0407 11.4532 10.1698 11.4563Z" fill="#FBBC05"/>
</g>
<path d="M39.8755 14.9372C38.4595 14.2172 37.3675 13.4012 36.5755 12.4772C35.6275 13.4612 34.5115 14.2892 33.2275 14.9372H39.8755ZM32.9755 15.0572C32.5435 15.2612 32.1115 15.4532 31.6675 15.6212L31.0315 14.6612C33.2875 13.8092 35.0395 12.7052 36.2755 11.3492H36.8755C37.8835 12.5972 39.6115 13.7012 42.0595 14.6612L41.4235 15.6212C40.9675 15.4412 40.5355 15.2612 40.1395 15.0692V19.9412H39.0235V19.5092H34.0915V19.9412H32.9755V15.0572ZM34.0915 18.4532H39.0235V15.9932H34.0915V18.4532ZM38.0515 9.12921C39.4075 9.99321 40.5475 10.8692 41.4835 11.7332L40.6675 12.5612C39.8635 11.7212 38.7355 10.8212 37.2715 9.86121L38.0515 9.12921ZM34.7635 9.12921L35.5915 9.84921C34.6795 10.8332 33.5395 11.6852 32.1955 12.4172L31.4875 11.5052C32.7835 10.8212 33.8755 10.0292 34.7635 9.12921ZM43.7181 15.7772H46.7061V18.2372H43.7181V15.7772ZM45.7821 17.5292V16.4972H44.6421V17.5292H45.7821ZM49.6101 8.93721L50.6901 9.10521C50.6301 9.59721 50.5701 10.0532 50.4981 10.4852H53.7741V11.2172C53.6181 12.2972 53.4141 13.3532 53.1621 14.4092L52.1181 14.1212C52.3341 13.4012 52.5261 12.5492 52.6701 11.5892H50.2581C49.9941 12.6212 49.6701 13.4492 49.2621 14.0612L48.3621 13.4252C49.0101 12.3452 49.4301 10.8572 49.6101 8.93721ZM47.2581 10.3412H43.4781V9.30921H48.8181V10.3412H48.3141V13.7012H47.2581V10.3412ZM43.7061 11.0132H46.6821V13.3892H43.7061V11.0132ZM45.7581 12.6932V11.7212H44.6301V12.6932H45.7581ZM47.1981 19.9412H46.0701L45.8421 18.9332C46.1901 18.9692 46.5141 18.9932 46.8261 18.9932C47.1381 18.9932 47.2941 18.8372 47.2941 18.5492V15.1172H43.2861V14.0972H49.0701V15.1172H48.3381V18.7892C48.3381 18.8972 48.3261 18.9932 48.3141 19.0772C49.2621 18.3092 49.8981 17.3732 50.2101 16.2692C50.4381 15.3092 50.5581 14.0852 50.5701 12.5732H51.6501C51.6501 13.4372 51.6021 14.2172 51.5301 14.9252C52.0701 16.6532 52.9581 18.0452 54.2061 19.0772L53.4501 19.9772C52.4901 19.0772 51.7461 17.9972 51.1941 16.7372C50.8341 18.0452 50.0901 19.1372 48.9501 20.0012L48.2901 19.1972C48.1701 19.6892 47.7981 19.9412 47.1981 19.9412ZM56.5007 9.51321H65.1167V10.6172H56.5007V9.51321ZM55.3487 12.8252H66.1847V13.9652H60.4967C59.4647 16.0292 58.5647 17.5052 57.7847 18.3932C59.7527 18.2732 61.7207 18.0692 63.6647 17.7932C63.2807 17.1092 62.8607 16.4012 62.4047 15.6812L63.3167 15.1172C64.4087 16.7372 65.2487 18.1532 65.8487 19.3532L64.8287 20.0612C64.6367 19.6532 64.4447 19.2452 64.2287 18.8372C61.8167 19.1732 59.2007 19.4372 56.3687 19.6292L56.0687 18.4652C56.1887 18.4292 56.2847 18.3932 56.3447 18.3572C57.0767 17.8052 58.0367 16.3412 59.2247 13.9652H55.3487V12.8252Z" fill="#485264"/>
</g>
<g clip-path="url(#clip2_47_1357)">
<g clip-path="url(#clip3_47_1357)">
<path d="M102.892 19.3464C102.574 19.6702 101.938 20.1559 100.824 20.1559H93.984C96.0519 18.1321 97.8017 16.432 97.9608 16.2701C98.1198 16.1082 98.5174 15.7035 98.9151 15.3797C99.7105 14.651 100.347 14.5702 100.904 14.5702C101.699 14.5702 102.335 14.8939 102.892 15.3797C104.005 16.432 104.005 18.294 102.892 19.3464ZM104.244 14.0844C103.449 13.1939 102.256 12.6272 100.983 12.6272C99.8696 12.6272 98.9152 13.032 98.0403 13.6796C97.7221 14.0034 97.2449 14.3272 96.8473 14.813C96.5291 15.1368 89.689 21.9369 89.689 21.9369C90.0867 22.0179 90.5639 22.0179 90.9615 22.0179H99.631C100.267 22.0179 100.744 22.0179 101.222 21.9369C102.256 21.856 103.29 21.4512 104.165 20.6417C105.994 18.8607 105.994 15.8654 104.244 14.0844Z" fill="#00A3FF"/>
<path d="M92.9398 13.6071C92.06 12.9539 91.1802 12.6272 90.1405 12.6272C88.8608 12.6272 87.6612 13.1988 86.8613 14.0971C85.1018 15.9753 85.1018 18.9149 86.9413 20.7931C87.7412 21.528 88.5409 21.9363 89.5007 22.0179L91.3402 20.2215H90.3005C89.2607 20.1397 88.6209 19.8131 88.221 19.4049C87.1013 18.2617 87.1013 16.4651 88.141 15.3219C88.7008 14.7503 89.3407 14.5054 90.1405 14.5054C90.6204 14.5054 91.3402 14.587 92.06 15.3219C92.3799 15.6486 93.2597 16.3019 93.5796 16.6285H93.6596L94.8593 15.4036V15.3219C94.2994 14.7503 93.4196 14.0154 92.9397 13.6071" fill="#00C8DC"/>
<path d="M101.409 11.504C100.518 9.09616 98.17 7.41064 95.4977 7.41064C92.3396 7.41064 89.8293 9.73821 89.3435 12.6276C89.5864 12.6276 89.8293 12.5475 90.1532 12.5475C90.4772 12.5475 90.8821 12.6276 91.206 12.6276C91.6108 10.6211 93.3923 9.17643 95.4977 9.17643C97.2793 9.17643 98.8178 10.2198 99.5466 11.7448C99.5466 11.7448 99.6276 11.8251 99.6276 11.7448C100.194 11.6645 100.842 11.504 101.409 11.504C101.409 11.5843 101.409 11.5843 101.409 11.504" fill="#006EFF"/>
</g>
<path d="M116.52 10.4852H117.276C117.132 10.1492 116.952 9.82521 116.736 9.51321L117.708 9.16521C117.924 9.53721 118.116 9.98121 118.284 10.4852H118.716C118.86 9.98121 118.956 9.44121 119.028 8.86521L120.132 8.99721C120.06 9.52521 119.952 10.0172 119.832 10.4852H120.576C120.816 10.0532 121.008 9.58521 121.176 9.09321L122.196 9.47721C122.016 9.86121 121.836 10.1972 121.644 10.4852H122.532V11.4212H119.544C119.448 11.6852 119.34 11.9252 119.232 12.1652H122.868V13.1132H121.176C121.656 13.5932 122.316 13.9772 123.156 14.2652L122.676 15.2612C122.232 15.0572 121.836 14.8292 121.5 14.5892C121.428 15.1772 121.344 15.6932 121.248 16.1252H122.508C122.46 18.1652 122.316 19.3052 122.052 19.5692C121.8 19.8092 121.26 19.9412 120.432 19.9412H119.916L119.628 18.9812C119.928 18.9932 120.204 19.0052 120.468 19.0052C120.84 19.0052 121.08 18.9452 121.2 18.8252C121.32 18.7052 121.392 18.1052 121.416 17.0252H116.952C117.18 16.3292 117.348 15.7052 117.456 15.1772L118.512 15.2732C118.428 15.5852 118.344 15.8612 118.272 16.1252H120.192C120.288 15.7652 120.36 15.3812 120.432 14.9492H117.42V14.5892C117.084 14.8772 116.736 15.1412 116.352 15.3692L115.836 14.5652V18.8372C115.836 19.5572 115.464 19.9292 114.72 19.9292H113.94L113.676 18.8852C113.928 18.9212 114.168 18.9452 114.384 18.9452C114.636 18.9452 114.768 18.7772 114.768 18.4532V16.0412H113.628C113.556 17.6252 113.292 18.9212 112.848 19.9532L112.008 19.1852C112.38 18.1412 112.572 16.8212 112.584 15.2132V9.29721H115.836V14.4332C116.46 14.0732 116.988 13.6412 117.42 13.1132H116.172V12.1652H118.056C118.188 11.9252 118.308 11.6732 118.416 11.4212H116.52V10.4852ZM117.996 14.0372H120.828C120.516 13.7372 120.276 13.4252 120.084 13.1132H118.704C118.476 13.4492 118.236 13.7492 117.996 14.0372ZM113.652 13.2212V14.9612H114.768V13.2212H113.652ZM114.768 12.1532V10.3652H113.652V12.1532H114.768ZM116.268 17.5772H120.636V18.5372H116.268V17.5772ZM127.694 13.5092H129.398V10.4852H127.898V9.39321H133.55V13.1972C133.55 15.4772 133.694 17.0612 133.982 17.9372C134.102 18.3092 134.222 18.5012 134.318 18.5012C134.354 18.5012 134.39 18.3332 134.414 17.9972C134.438 17.6612 134.462 17.2652 134.462 16.7852L135.35 17.2052C135.302 18.3812 135.194 19.1252 135.026 19.4492C134.906 19.6892 134.75 19.8092 134.57 19.8092C134.078 19.7972 133.658 19.5212 133.31 18.9812C132.722 18.0332 132.422 16.1012 132.422 13.1972V10.4852H130.502V13.5092H132.026V14.6012H130.502V19.9892H129.398V14.6012H127.694V13.5092ZM125.666 8.99721C126.422 9.58521 127.058 10.1732 127.574 10.7732L126.794 11.5652C126.338 11.0012 125.69 10.4012 124.874 9.77721L125.666 8.99721ZM124.118 12.4772H126.806V17.5292C127.13 17.2292 127.478 16.8932 127.85 16.5212L128.15 17.7212C127.43 18.4292 126.65 19.0652 125.834 19.6172L125.402 18.5972C125.594 18.4172 125.702 18.2012 125.702 17.9372V13.5692H124.118V12.4772ZM137.501 9.51321H146.117V10.6172H137.501V9.51321ZM136.349 12.8252H147.185V13.9652H141.497C140.465 16.0292 139.565 17.5052 138.785 18.3932C140.753 18.2732 142.721 18.0692 144.665 17.7932C144.281 17.1092 143.861 16.4012 143.405 15.6812L144.317 15.1172C145.409 16.7372 146.249 18.1532 146.849 19.3532L145.829 20.0612C145.637 19.6532 145.445 19.2452 145.229 18.8372C142.817 19.1732 140.201 19.4372 137.369 19.6292L137.069 18.4652C137.189 18.4292 137.285 18.3932 137.345 18.3572C138.077 17.8052 139.037 16.3412 140.225 13.9652H136.349V12.8252Z" fill="#485264"/>
</g>
<g clip-path="url(#clip4_47_1357)">
<path d="M182.887 14.0083L180.418 23.6624C180.411 23.689 180.411 23.7167 180.418 23.7433C180.427 23.7832 180.45 23.8186 180.483 23.8436C180.516 23.8686 180.556 23.8817 180.597 23.8808H185.533C185.56 23.8814 185.587 23.8758 185.612 23.8645C185.636 23.8531 185.658 23.8363 185.676 23.8153C185.693 23.7943 185.705 23.7696 185.712 23.7431C185.718 23.7166 185.718 23.689 185.713 23.6624L183.232 14.0083C183.223 13.9806 183.208 13.9555 183.188 13.9349C183.168 13.9143 183.143 13.8988 183.115 13.8897C183.088 13.8807 183.059 13.8783 183.03 13.8829C183.001 13.8874 182.974 13.8987 182.951 13.9158C182.92 13.9383 182.897 13.9705 182.886 14.0074M169.301 16.1958L167.389 23.6624C167.383 23.6891 167.383 23.7167 167.389 23.7432C167.396 23.7697 167.408 23.7944 167.426 23.8154C167.443 23.8364 167.465 23.8531 167.49 23.8643C167.515 23.8755 167.542 23.8808 167.569 23.8799H171.379C171.406 23.8806 171.433 23.8751 171.458 23.8638C171.483 23.8526 171.505 23.8359 171.523 23.8149C171.54 23.7941 171.552 23.7695 171.558 23.7433C171.564 23.7168 171.565 23.689 171.559 23.6624L169.644 16.1958C169.633 16.1592 169.61 16.1273 169.579 16.1049C169.549 16.0826 169.512 16.0703 169.474 16.0699C169.435 16.0698 169.397 16.0821 169.365 16.1049C169.334 16.1274 169.312 16.1593 169.301 16.1958Z" fill="#00E5E5"/>
<path d="M172.673 10.0137L169.19 23.6621C169.184 23.6877 169.183 23.7144 169.189 23.74C169.195 23.7657 169.206 23.7898 169.223 23.8104C169.239 23.8315 169.26 23.8487 169.284 23.8607C169.308 23.8726 169.334 23.8791 169.36 23.8796H176.33C176.357 23.8803 176.384 23.8748 176.408 23.8636C176.433 23.8524 176.455 23.8358 176.472 23.815C176.49 23.7941 176.502 23.7696 176.509 23.7433C176.515 23.717 176.516 23.6895 176.51 23.6629L173.017 10.0121C173.006 9.9755 172.983 9.9436 172.952 9.92123C172.921 9.8987 172.884 9.88646 172.845 9.88623C172.807 9.88628 172.769 9.89853 172.738 9.92123C172.707 9.94381 172.684 9.97603 172.673 10.0129" fill="#006EFF"/>
<path d="M178.683 5.6732C178.672 5.63663 178.649 5.60473 178.618 5.58236C178.587 5.55966 178.549 5.54741 178.511 5.54736C178.472 5.54759 178.435 5.55983 178.404 5.58236C178.373 5.60473 178.35 5.63663 178.339 5.6732L173.577 23.6624C173.572 23.6889 173.572 23.7164 173.578 23.7427C173.585 23.769 173.597 23.7936 173.615 23.8144C173.632 23.8353 173.654 23.8519 173.678 23.8631C173.703 23.8743 173.73 23.8798 173.757 23.879H183.274C183.301 23.8796 183.328 23.874 183.353 23.8628C183.378 23.8515 183.4 23.8349 183.417 23.814C183.435 23.7931 183.447 23.7687 183.454 23.7424C183.46 23.716 183.46 23.6887 183.454 23.6624L178.683 5.6732Z" fill="#006EFF"/>
<path d="M175.185 11.998L172.164 23.6613C172.157 23.6879 172.157 23.7157 172.163 23.7423C172.17 23.769 172.182 23.7938 172.2 23.8147C172.217 23.8359 172.239 23.8529 172.264 23.8643C172.289 23.8757 172.317 23.8813 172.344 23.8805H178.372C178.399 23.881 178.427 23.8753 178.452 23.8638C178.477 23.8522 178.499 23.8352 178.517 23.8138C178.534 23.7927 178.546 23.768 178.552 23.7417C178.558 23.7153 178.558 23.6878 178.552 23.6613L175.529 11.9972C175.518 11.9609 175.495 11.9293 175.464 11.9072C175.433 11.8842 175.395 11.8716 175.357 11.8713C175.318 11.8718 175.281 11.8843 175.25 11.9072C175.219 11.9293 175.196 11.9609 175.185 11.9972" fill="#00E5E5"/>
<path d="M195.24 10.7132L196.26 10.9892C195.924 12.4772 195.492 13.7732 194.964 14.8892L193.956 14.5412C194.448 13.5332 194.88 12.2612 195.24 10.7132ZM202.452 10.7012L203.436 11.1692C202.764 12.4892 201.984 13.6172 201.072 14.5772L200.208 13.9772C201.072 13.0652 201.828 11.9732 202.452 10.7012ZM197.988 8.92521H199.14V12.8852C199.536 15.3932 201.192 17.4332 204.108 19.0052L203.412 19.9172C201 18.5612 199.392 16.7492 198.588 14.4812C197.952 16.5932 196.368 18.4172 193.836 19.9772L193.14 19.0652C196.188 17.3372 197.796 15.2852 197.988 12.8852V8.92521ZM214.346 10.9772H215.486V19.7252H214.346V19.0172H205.802V10.9172H206.942V17.9252H210.074V8.99721H211.226V17.9252H214.346V10.9772ZM225.881 8.90121H227.021V19.9892H225.881V8.90121ZM219.077 13.0172L218.705 14.7452H223.337C223.337 16.7732 223.241 18.1172 223.073 18.7892C222.905 19.4732 222.137 19.8452 220.769 19.9052C220.385 19.9052 220.013 19.8812 219.629 19.8572L219.341 18.8012C219.725 18.8372 220.121 18.8612 220.505 18.8612C221.369 18.8612 221.873 18.6572 222.017 18.2732C222.137 17.8892 222.197 17.0612 222.197 15.7892H217.493L218.141 11.9732H222.089V10.3412H217.781V9.30921H223.217V13.0172H219.077ZM236.107 11.7332C235.939 11.9732 235.771 12.1892 235.579 12.4052L234.979 11.6132C235.579 10.8452 235.999 9.90921 236.227 8.80521L237.271 8.96121C237.211 9.23721 237.139 9.50121 237.067 9.76521H239.947V10.7012H239.347C239.179 11.5412 238.879 12.2372 238.423 12.8012C238.963 13.1132 239.599 13.3772 240.343 13.6052L239.827 14.5172C238.987 14.2292 238.279 13.8932 237.703 13.4972C237.139 13.9052 236.467 14.1932 235.675 14.3852L235.255 13.4732C235.903 13.3292 236.455 13.1132 236.899 12.8252C236.563 12.4892 236.299 12.1172 236.107 11.7332ZM236.695 10.7012L236.635 10.8212C236.803 11.3492 237.127 11.8052 237.595 12.2132C237.967 11.7812 238.219 11.2772 238.339 10.7012H236.695ZM238.435 14.3852L238.963 15.2972C237.967 15.4172 236.827 15.5132 235.531 15.5732V16.1732H239.131V16.9892H235.531V17.5172H240.103V18.4532H235.531V19.0052C235.531 19.6892 235.147 20.0372 234.391 20.0372H232.951L232.723 19.0652C233.179 19.1012 233.623 19.1252 234.043 19.1252C234.307 19.1252 234.439 18.9932 234.439 18.7412V18.4532H229.603V17.5172H234.439V16.9892H230.455V16.1732H234.439V15.6212C233.311 15.6572 232.099 15.6812 230.803 15.6812L230.527 14.8412C233.647 14.8412 236.287 14.6852 238.435 14.3852ZM231.055 8.86521H231.991V9.30921H233.083V8.85321H234.019V9.30921H235.363V10.1732H234.019V10.6652H233.083V10.1732H231.991V10.6892H231.319C231.295 10.7852 231.259 10.8692 231.235 10.9532H234.991C234.943 12.5732 234.895 13.5212 234.835 13.7972C234.763 14.0612 234.643 14.2412 234.463 14.3372C234.271 14.4332 233.839 14.4932 233.167 14.4932H232.747L232.603 14.0492H230.275V12.5612C230.179 12.6572 230.071 12.7532 229.963 12.8492L229.363 12.1052C229.879 11.6732 230.239 11.1092 230.431 10.4012L231.055 10.4972V10.1732H229.615V9.30921H231.055V8.86521ZM233.299 13.6892H233.419C233.635 13.6892 233.767 13.6532 233.839 13.5932C233.887 13.5212 233.923 13.4012 233.947 13.2572C233.947 13.1012 233.971 12.5972 233.995 11.7452H230.887C230.791 11.8892 230.707 12.0332 230.611 12.1652H233.299V13.6892ZM232.423 13.3652V12.8372H231.163V13.3652H232.423Z" fill="#485264"/>
</g>
<g clip-path="url(#clip5_47_1357)">
<g clip-path="url(#clip6_47_1357)">
<path d="M279.485 11.7804C279.485 9.98035 278.019 8.51369 276.219 8.51369H271.019L271.485 10.3804L275.952 11.3804C276.352 11.447 276.685 11.847 276.685 12.247V17.047C276.685 17.447 276.352 17.847 275.952 17.9137L271.485 18.9137L270.952 20.7137H276.152C277.952 20.7137 279.419 19.247 279.419 17.447C279.485 17.447 279.485 11.7804 279.485 11.7804ZM263.219 17.847C262.819 17.7804 262.485 17.3804 262.485 16.9804V12.1804C262.485 11.7804 262.819 11.3804 263.219 11.3137L267.685 10.3137L268.152 8.44702H262.952C261.152 8.44702 259.685 9.91369 259.685 11.7137V17.3804C259.685 19.1804 261.152 20.647 262.952 20.647H268.152L267.685 18.7804C267.685 18.847 263.219 17.847 263.219 17.847ZM267.419 13.7137H271.685V15.447H267.419V13.7137Z" fill="#FF6B01"/>
</g>
<path d="M286.44 9.30921H290.148V10.2092C289.824 11.2412 289.44 12.3212 288.996 13.4612C289.668 14.5652 290.04 15.5252 290.1 16.3532C290.1 16.9172 289.98 17.3252 289.752 17.5652C289.416 17.8652 288.84 18.0212 288.024 18.0332L287.652 16.8812C287.892 16.9172 288.096 16.9412 288.264 16.9412C288.54 16.9172 288.72 16.8692 288.816 16.7972C288.9 16.7012 288.948 16.5572 288.948 16.3532C288.948 15.5372 288.576 14.6372 287.844 13.6292C288.336 12.4292 288.72 11.3372 288.996 10.3772H287.556V19.9892H286.44V9.30921ZM290.484 9.51321H296.964V10.6172H296.22V18.6212C296.22 19.4612 295.824 19.8812 295.056 19.8812H293.292L293.028 18.7772C293.592 18.8252 294.132 18.8492 294.66 18.8492C294.96 18.8492 295.116 18.6692 295.116 18.3332V10.6172H290.484V9.51321ZM290.784 12.1652H294.072V16.8212H290.784V12.1652ZM293.016 15.8372V13.1492H291.816V15.8372H293.016ZM300.446 12.7172V14.0252H303.074V12.7172H300.446ZM303.074 15.0692H299.33V9.27321H307.946V15.0692H304.226V16.2332H308.462V17.3132H304.226V18.5252H308.966V19.6292H298.322V18.5252H303.074V17.3132H298.838V16.2332H303.074V15.0692ZM304.226 14.0252H306.83V12.7172H304.226V14.0252ZM306.83 11.6612V10.3292H304.226V11.6612H306.83ZM303.074 10.3292H300.446V11.6612H303.074V10.3292ZM311.501 9.51321H320.117V10.6172H311.501V9.51321ZM310.349 12.8252H321.185V13.9652H315.497C314.465 16.0292 313.565 17.5052 312.785 18.3932C314.753 18.2732 316.721 18.0692 318.665 17.7932C318.281 17.1092 317.861 16.4012 317.405 15.6812L318.317 15.1172C319.409 16.7372 320.249 18.1532 320.849 19.3532L319.829 20.0612C319.637 19.6532 319.445 19.2452 319.229 18.8372C316.817 19.1732 314.201 19.4372 311.369 19.6292L311.069 18.4652C311.189 18.4292 311.285 18.3932 311.345 18.3572C312.077 17.8052 313.037 16.3412 314.225 13.9652H310.349V12.8252Z" fill="#485264"/>
</g>
<defs>
<clipPath id="clip0_47_1357">
<rect x="4.55151" y="0.741211" width="63" height="28" rx="8" fill="white"/>
</clipPath>
<clipPath id="clip1_47_1357">
<rect width="20" height="20" fill="white" transform="translate(4.55151 4.74121)"/>
</clipPath>
<clipPath id="clip2_47_1357">
<rect x="85.5515" y="0.741211" width="63" height="28" rx="8" fill="white"/>
</clipPath>
<clipPath id="clip3_47_1357">
<rect width="20" height="20" fill="white" transform="translate(85.5515 4.74121)"/>
</clipPath>
<clipPath id="clip4_47_1357">
<rect x="166.552" y="0.741211" width="75" height="28" rx="8" fill="white"/>
</clipPath>
<clipPath id="clip5_47_1357">
<rect x="259.552" y="0.741211" width="63" height="28" rx="8" fill="white"/>
</clipPath>
<clipPath id="clip6_47_1357">
<rect width="20" height="20" fill="white" transform="translate(259.552 4.74121)"/>
</clipPath>
</defs>
</svg>
