<svg width="98" height="93" viewBox="0 0 98 93" fill="none" xmlns="http://www.w3.org/2000/svg">
<path d="M54.7007 52.7629C58.8248 51.2058 74.9873 43.4475 75.7026 17.29C75.7331 16.1756 75.1517 15.1224 74.2051 14.5335C61.6814 6.74094 45.818 6.74094 33.2943 14.5335C32.3477 15.1224 31.7663 16.1756 31.7968 17.29C32.5121 43.4475 48.6746 51.2058 52.7987 52.7629C53.4144 52.9954 54.085 52.9954 54.7007 52.7629Z" fill="url(#paint0_linear_21_2858)"/>
<path d="M31.942 23.6959L29.955 24.8314C28.8137 25.4835 28.101 26.7143 28.1444 28.028C29.08 56.3837 48.5103 64.4538 52.8816 65.9136C53.4565 66.1056 54.0428 66.1056 54.6178 65.9136C58.989 64.4538 78.4194 56.3837 79.355 28.028C79.3984 26.7143 78.6857 25.4835 77.5444 24.8314L75.5574 23.6959C62.0443 15.9741 45.4551 15.9741 31.942 23.6959Z" fill="url(#paint1_linear_21_2858)"/>
<path d="M51.8147 44.0807C51.842 44.108 51.8791 44.1233 51.9177 44.1233C51.9563 44.1233 51.9934 44.108 52.0207 44.0807L62.8983 33.2031C63.9143 32.1871 65.5615 32.1871 66.5774 33.2031C67.5933 34.219 67.5933 35.8662 66.5774 36.8821L53.7572 49.7023C53.2694 50.1902 52.6077 50.4642 51.9177 50.4642C51.2277 50.4642 50.566 50.1902 50.0782 49.7023L42.7524 42.3765C41.7364 41.3605 41.7364 39.7134 42.7524 38.6974C43.7683 37.6815 45.4155 37.6815 46.4314 38.6974L51.8147 44.0807Z" fill="url(#paint2_linear_21_2858)" fill-opacity="0.9" stroke="url(#paint3_linear_21_2858)" stroke-width="0.291372" stroke-linecap="round" stroke-linejoin="round"/>
<ellipse cx="54.6655" cy="79.5429" rx="27.5961" ry="4.45599" fill="#D8E3FF"/>
<path d="M7.03506 33.7755C7.2084 33.3638 7.79182 33.3638 7.96516 33.7755L9.56143 37.567C9.61258 37.6885 9.70922 37.7851 9.83069 37.8362L13.6222 39.4325C14.0339 39.6059 14.0339 40.1893 13.6222 40.3626L9.83069 41.9589C9.70922 42.01 9.61258 42.1067 9.56143 42.2282L7.96516 46.0196C7.79182 46.4314 7.2084 46.4314 7.03505 46.0196L5.43878 42.2282C5.38764 42.1067 5.291 42.01 5.16952 41.9589L1.37804 40.3626C0.96631 40.1893 0.966311 39.6059 1.37804 39.4325L5.16952 37.8362C5.291 37.7851 5.38764 37.6885 5.43878 37.567L7.03506 33.7755Z" fill="#C9D8FF"/>
<path d="M90.3319 1.39952C90.5053 0.987794 91.0887 0.987795 91.262 1.39952L92.8583 5.19101C92.9095 5.31248 93.0061 5.40912 93.1276 5.46027L96.9191 7.05654C97.3308 7.22988 97.3308 7.8133 96.9191 7.98665L93.1276 9.58292C93.0061 9.63406 92.9095 9.7307 92.8583 9.85218L91.262 13.6437C91.0887 14.0554 90.5053 14.0554 90.3319 13.6437L88.7357 9.85218C88.6845 9.7307 88.5879 9.63406 88.4664 9.58292L84.6749 7.98664C84.2632 7.8133 84.2632 7.22988 84.6749 7.05654L88.4664 5.46027C88.5879 5.40912 88.6845 5.31248 88.7357 5.19101L90.3319 1.39952Z" fill="#C9D8FF"/>
<defs>
<linearGradient id="paint0_linear_21_2858" x1="41.548" y1="20.0277" x2="89.3108" y2="55.9746" gradientUnits="userSpaceOnUse">
<stop stop-color="#D5E0FF"/>
<stop offset="1" stop-color="#769BFF"/>
</linearGradient>
<linearGradient id="paint1_linear_21_2858" x1="53.7497" y1="11.2344" x2="53.7497" y2="66.1779" gradientUnits="userSpaceOnUse">
<stop stop-color="#8DADFF"/>
<stop offset="1" stop-color="#D2DFFF"/>
</linearGradient>
<linearGradient id="paint2_linear_21_2858" x1="45.8516" y1="39.2783" x2="85.9153" y2="44.0131" gradientUnits="userSpaceOnUse">
<stop stop-color="white"/>
<stop offset="1" stop-color="white" stop-opacity="0"/>
</linearGradient>
<linearGradient id="paint3_linear_21_2858" x1="42.5737" y1="34.9077" x2="58.9634" y2="40.3709" gradientUnits="userSpaceOnUse">
<stop stop-color="white"/>
<stop offset="1" stop-color="white" stop-opacity="0"/>
</linearGradient>
</defs>
</svg>
