<svg width="180" height="97" viewBox="0 0 180 97" fill="none" xmlns="http://www.w3.org/2000/svg">
<path d="M77.901 58.1037C81.8757 58.1037 85.0979 54.678 85.0979 50.4522C85.0979 46.2264 81.8757 42.8008 77.901 42.8008C73.9263 42.8008 70.7041 46.2264 70.7041 50.4522C70.7041 54.678 73.9263 58.1037 77.901 58.1037Z" fill="#ABD4FF"/>
<path d="M48.257 43.8436C47.9329 42.9377 48.3156 41.9306 49.1596 41.4685C49.4685 41.2994 49.8173 41.2168 50.1693 41.2294L96.1145 42.8766L98.6143 41.21L97.591 56.7917L50.7561 47.9001C50.0594 47.7678 49.4849 47.2765 49.246 46.6088L48.257 43.8436Z" fill="url(#paint0_linear_21_2824)"/>
<path d="M131.6 58.1037C127.625 58.1037 124.403 54.678 124.403 50.4522C124.403 46.2264 127.625 42.8008 131.6 42.8008C135.575 42.8008 138.797 46.2264 138.797 50.4522C138.797 54.678 135.575 58.1037 131.6 58.1037Z" fill="#ABD4FF"/>
<path d="M161.244 43.8436C161.568 42.9377 161.185 41.9306 160.341 41.4685C160.032 41.2994 159.684 41.2168 159.332 41.2294L113.386 42.8766L110.887 41.21L111.91 56.7917L158.745 47.9001C159.442 47.7678 160.016 47.2765 160.255 46.6088L161.244 43.8436Z" fill="url(#paint1_linear_21_2824)"/>
<rect x="92.1553" y="21.2559" width="24.5592" height="44.374" rx="11.3397" fill="url(#paint2_linear_21_2824)"/>
<path d="M94.4348 30.1239L96.7075 26.1857L99.5862 25.2012H109.435L111.859 26.1857L114.059 30.1239L110.041 28.1548H98.769L94.4348 30.1239Z" fill="url(#paint3_linear_21_2824)"/>
<ellipse cx="104.075" cy="84.5429" rx="35.2149" ry="4.45599" fill="#DCEDFF"/>
<path d="M75.0351 16.775C75.2084 16.3633 75.7918 16.3633 75.9652 16.775L77.5614 20.5665C77.6126 20.688 77.7092 20.7846 77.8307 20.8358L81.6222 22.432C82.0339 22.6054 82.0339 23.1888 81.6222 23.3621L77.8307 24.9584C77.7092 25.0095 77.6126 25.1062 77.5614 25.2277L75.9652 29.0192C75.7918 29.4309 75.2084 29.4309 75.0351 29.0192L73.4388 25.2277C73.3876 25.1062 73.291 25.0095 73.1695 24.9584L69.378 23.3621C68.9663 23.1888 68.9663 22.6054 69.378 22.432L73.1695 20.8358C73.291 20.7846 73.3876 20.688 73.4388 20.5665L75.0351 16.775Z" fill="#C4E0FF"/>
<path d="M138.332 5.39903C138.505 4.98731 139.089 4.98731 139.262 5.39903L140.858 9.19052C140.909 9.31199 141.006 9.40863 141.128 9.45978L144.919 11.0561C145.331 11.2294 145.331 11.8128 144.919 11.9862L141.128 13.5824C141.006 13.6336 140.909 13.7302 140.858 13.8517L139.262 17.6432C139.089 18.0549 138.505 18.0549 138.332 17.6432L136.736 13.8517C136.685 13.7302 136.588 13.6336 136.466 13.5824L132.675 11.9862C132.263 11.8128 132.263 11.2294 132.675 11.0561L136.466 9.45978C136.588 9.40863 136.685 9.31199 136.736 9.19052L138.332 5.39903Z" fill="#C4E0FF"/>
<defs>
<linearGradient id="paint0_linear_21_2824" x1="73.1543" y1="41.21" x2="73.1543" y2="56.7917" gradientUnits="userSpaceOnUse">
<stop stop-color="#A4D0FF"/>
<stop offset="1" stop-color="#D3E6FF"/>
</linearGradient>
<linearGradient id="paint1_linear_21_2824" x1="136.347" y1="41.21" x2="136.347" y2="56.7917" gradientUnits="userSpaceOnUse">
<stop stop-color="#A4D0FF"/>
<stop offset="1" stop-color="#D3E6FF"/>
</linearGradient>
<linearGradient id="paint2_linear_21_2824" x1="104.435" y1="21.2559" x2="104.435" y2="65.6299" gradientUnits="userSpaceOnUse">
<stop stop-color="#88BEFF"/>
<stop offset="1" stop-color="#D8EBFF"/>
</linearGradient>
<linearGradient id="paint3_linear_21_2824" x1="103.53" y1="25.2012" x2="103.61" y2="30.1237" gradientUnits="userSpaceOnUse">
<stop stop-color="white"/>
<stop offset="1" stop-color="white" stop-opacity="0.2"/>
</linearGradient>
</defs>
</svg>
