<svg width="597" height="588" viewBox="0 0 597 588" fill="none" xmlns="http://www.w3.org/2000/svg">
<rect width="459.159" height="346.925" rx="20.2906" transform="matrix(0.939693 0.34202 0 1 154.241 0.796387)" fill="white" fill-opacity="0.3"/>
<g filter="url(#filter0_bdd_135_6173)">
<rect width="459.159" height="346.925" rx="20.2906" transform="matrix(0.939693 0.34202 0 1 154.241 0.796387)" fill="white" fill-opacity="0.2" shape-rendering="crispEdges"/>
<rect x="0.469846" y="0.67101" width="458.159" height="345.925" rx="19.7906" transform="matrix(0.939693 0.34202 0 1 154.27 0.63569)" stroke="url(#paint0_linear_135_6173)" shape-rendering="crispEdges"/>
</g>
<rect width="459.159" height="346.925" rx="20.2906" transform="matrix(0.939693 0.34202 0 1 103.791 18.3699)" fill="white" fill-opacity="0.3"/>
<g filter="url(#filter1_bdd_135_6173)">
<rect width="459.159" height="346.925" rx="20.2906" transform="matrix(0.939693 0.34202 0 1 103.791 18.3699)" fill="white" fill-opacity="0.05" shape-rendering="crispEdges"/>
<rect x="0.469846" y="0.67101" width="458.159" height="345.925" rx="19.7906" transform="matrix(0.939693 0.34202 0 1 103.819 18.2092)" stroke="url(#paint1_linear_135_6173)" shape-rendering="crispEdges"/>
</g>
<rect width="459.163" height="346.925" rx="20.2906" transform="matrix(0.939693 0.34202 0 1 53.8638 27.562)" fill="white" fill-opacity="0.2"/>
<g filter="url(#filter2_bd_135_6173)">
<rect width="459.163" height="346.925" rx="20.2906" transform="matrix(0.939693 0.34202 0 1 53.8638 27.562)" fill="url(#paint2_linear_135_6173)" fill-opacity="0.6" shape-rendering="crispEdges"/>
<rect x="0.469846" y="0.67101" width="458.163" height="345.925" rx="19.7906" transform="matrix(0.939693 0.34202 0 1 53.8922 27.4013)" stroke="url(#paint3_linear_135_6173)" shape-rendering="crispEdges"/>
</g>
<rect width="166.715" height="75.1031" rx="20.2906" transform="matrix(0.939693 0.34202 0 1 299.689 149.51)" fill="#F7FBFF"/>
<g filter="url(#filter3_bd_135_6173)">
<rect width="166.715" height="75.1031" rx="10.1453" transform="matrix(0.939693 0.34202 0 1 299.689 149.51)" fill="url(#paint4_linear_135_6173)"/>
</g>
<circle cx="19.4529" cy="19.4529" r="19.4529" transform="matrix(0.939693 0.34202 0 1 312.876 172.941)" fill="url(#paint5_linear_135_6173)" fill-opacity="0.9"/>
<path d="M331.156 201.748C328.473 200.772 326.088 201.282 324.569 202.868C324.242 203.21 324.078 203.381 324.084 203.694C324.088 203.936 324.23 204.29 324.407 204.504C324.637 204.779 324.956 204.895 325.594 205.127L336.719 209.177C337.356 209.409 337.675 209.525 337.905 209.416C338.083 209.333 338.225 209.081 338.229 208.842C338.234 208.533 338.071 208.243 337.744 207.664C336.225 204.972 333.839 202.725 331.156 201.748Z" fill="#47B2FF"/>
<path d="M331.156 199.047C333.259 199.812 334.964 198.618 334.964 196.38C334.964 194.142 333.259 191.707 331.156 190.941C329.053 190.176 327.348 191.37 327.348 193.608C327.348 195.846 329.053 198.281 331.156 199.047Z" fill="#47B2FF"/>
<path fill-rule="evenodd" clip-rule="evenodd" d="M331.156 191.842C329.52 191.246 328.194 192.175 328.194 193.916C328.194 195.657 329.52 197.551 331.156 198.146C332.792 198.741 334.118 197.813 334.118 196.072C334.118 194.331 332.792 192.437 331.156 191.842ZM326.502 193.3C326.502 190.564 328.586 189.105 331.156 190.041C333.727 190.976 335.811 193.952 335.811 196.688C335.811 199.424 333.727 200.883 331.156 199.947C328.586 199.012 326.502 196.035 326.502 193.3ZM331.156 202.649C328.754 201.775 326.612 202.228 325.244 203.657C325.16 203.745 325.096 203.812 325.043 203.872C325.002 203.917 324.975 203.951 324.956 203.978C325.081 204.039 325.261 204.106 325.594 204.227L336.719 208.276C337.052 208.397 337.231 208.461 337.357 208.492C337.338 208.451 337.31 208.397 337.27 208.322C337.216 208.223 337.152 208.109 337.068 207.961C335.7 205.536 333.559 203.524 331.156 202.649ZM323.894 202.08C325.563 200.336 328.193 199.769 331.156 200.848C334.119 201.926 336.749 204.407 338.419 207.367C338.426 207.38 338.434 207.393 338.442 207.407C338.585 207.661 338.739 207.934 338.849 208.183C338.982 208.484 339.081 208.813 339.075 209.166C339.07 209.451 338.988 209.689 338.89 209.864C338.791 210.04 338.639 210.215 338.427 210.315C338.145 210.448 337.838 210.419 337.565 210.355C337.326 210.298 337.042 210.195 336.757 210.091C336.744 210.087 336.731 210.082 336.719 210.077L325.594 206.028C325.581 206.023 325.568 206.019 325.555 206.014C325.27 205.91 324.986 205.807 324.747 205.689C324.474 205.555 324.167 205.36 323.885 205.022C323.673 204.768 323.522 204.482 323.423 204.235C323.324 203.988 323.242 203.69 323.238 203.402C323.231 203.044 323.33 202.787 323.463 202.583C323.573 202.414 323.727 202.253 323.871 202.104C323.878 202.096 323.886 202.088 323.894 202.08Z" fill="#47B2FF"/>
<path d="M362.588 216.487L359.999 215.545L363.944 204.819L367.058 205.952L370.997 219.548L368.408 218.605L365.545 208.181L365.456 208.149L362.588 216.487ZM362.426 211.648L368.542 213.874V215.881L362.426 213.655V211.648ZM375.087 221.185C374.436 220.948 373.847 220.555 373.319 220.007C372.794 219.456 372.377 218.775 372.069 217.966C371.764 217.155 371.611 216.24 371.611 215.223C371.611 214.177 371.769 213.366 372.085 212.788C372.402 212.207 372.822 211.839 373.346 211.685C373.875 211.529 374.453 211.566 375.082 211.795C375.562 211.969 375.962 212.202 376.282 212.493C376.605 212.781 376.866 213.089 377.063 213.418C377.264 213.745 377.416 214.05 377.52 214.333L377.593 214.359V209.787L379.964 210.65V222.812L377.621 221.959V220.498L377.52 220.461C377.409 220.674 377.251 220.868 377.046 221.043C376.845 221.215 376.583 221.324 376.259 221.368C375.939 221.414 375.549 221.353 375.087 221.185ZM375.841 219.446C376.224 219.586 376.548 219.593 376.812 219.467C377.08 219.339 377.284 219.099 377.425 218.746C377.571 218.395 377.643 217.949 377.643 217.406C377.643 216.864 377.572 216.367 377.431 215.916C377.29 215.464 377.085 215.081 376.817 214.766C376.549 214.451 376.224 214.223 375.841 214.084C375.45 213.942 375.121 213.935 374.853 214.063C374.585 214.191 374.382 214.43 374.245 214.78C374.107 215.129 374.038 215.568 374.038 216.094C374.038 216.625 374.107 217.119 374.245 217.577C374.386 218.032 374.589 218.422 374.853 218.748C375.121 219.071 375.45 219.304 375.841 219.446ZM381.919 223.523V214.402L384.184 215.226V216.836L384.285 216.872C384.463 216.403 384.761 216.089 385.178 215.932C385.594 215.775 386.093 215.802 386.673 216.013C387.261 216.227 387.761 216.566 388.174 217.029C388.587 217.488 388.862 218.008 389 218.588L389.089 218.621C389.264 218.162 389.58 217.859 390.038 217.713C390.499 217.564 391.044 217.604 391.673 217.833C392.473 218.124 393.122 218.632 393.62 219.356C394.123 220.077 394.374 220.932 394.374 221.922V228.056L392.002 227.193V221.558C392.002 221.051 391.876 220.625 391.623 220.279C391.37 219.934 391.054 219.692 390.674 219.554C390.243 219.397 389.906 219.421 389.664 219.626C389.422 219.827 389.301 220.165 389.301 220.64V226.21L386.997 225.371V219.682C386.997 219.235 386.876 218.835 386.634 218.481C386.396 218.13 386.082 217.883 385.691 217.74C385.427 217.644 385.189 217.629 384.977 217.694C384.768 217.757 384.603 217.893 384.48 218.101C384.357 218.306 384.296 218.577 384.296 218.913V224.388L381.919 223.523ZM396.251 228.74V219.618L398.629 220.484V229.605L396.251 228.74ZM397.446 218.877C397.092 218.749 396.789 218.514 396.536 218.172C396.287 217.828 396.162 217.48 396.162 217.128C396.162 216.779 396.287 216.526 396.536 216.367C396.789 216.206 397.092 216.189 397.446 216.318C397.799 216.447 398.1 216.683 398.35 217.027C398.603 217.368 398.729 217.713 398.729 218.062C398.729 218.414 398.603 218.671 398.35 218.832C398.1 218.991 397.799 219.006 397.446 218.877ZM402.91 225.89V231.163L400.533 230.298V221.177L402.798 222.001V223.611L402.899 223.647C403.089 223.186 403.407 222.882 403.853 222.736C404.299 222.585 404.841 222.626 405.477 222.857C406.072 223.074 406.591 223.402 407.034 223.84C407.476 224.278 407.82 224.799 408.066 225.403C408.312 226.003 408.434 226.658 408.434 227.366V233.174L406.057 232.309V226.952C406.061 226.395 405.927 225.911 405.655 225.5C405.384 225.084 405.01 224.79 404.534 224.616C404.214 224.5 403.931 224.47 403.686 224.527C403.444 224.586 403.254 224.731 403.116 224.962C402.983 225.19 402.914 225.499 402.91 225.89Z" fill="url(#paint6_linear_135_6173)"/>
<rect width="78.12" height="88.616" rx="17.8392" transform="matrix(0.939693 0.34202 0 1 299.625 238.761)" fill="#F7FBFF"/>
<g filter="url(#filter4_bd_135_6173)">
<rect width="78.12" height="88.616" rx="8.91959" transform="matrix(0.939693 0.34202 0 1 299.625 238.761)" fill="url(#paint7_linear_135_6173)"/>
</g>
<g clip-path="url(#clip0_135_6173)">
<path fill-rule="evenodd" clip-rule="evenodd" d="M314.524 268.913C314.524 268.656 314.719 268.519 314.96 268.607C315.201 268.695 315.397 268.974 315.397 269.23V269.96L316.531 270.373V269.643C316.531 269.387 316.727 269.25 316.968 269.338C317.209 269.426 317.404 269.705 317.404 269.961V270.69L317.767 270.822C318.683 271.156 319.426 272.216 319.426 273.191V273.577L320.111 273.826C320.352 273.914 320.547 274.193 320.547 274.45C320.547 274.706 320.352 274.843 320.111 274.755L319.426 274.506V275.714L320.111 275.963C320.352 276.051 320.547 276.33 320.547 276.586C320.547 276.843 320.352 276.98 320.111 276.892L319.426 276.643V277.028C319.426 278.003 318.683 278.523 317.767 278.19L317.404 278.058V278.787C317.404 279.044 317.209 279.181 316.968 279.093C316.727 279.005 316.531 278.726 316.531 278.469V277.74L315.397 277.327V278.056C315.397 278.313 315.201 278.45 314.96 278.362C314.719 278.274 314.524 277.995 314.524 277.739V277.009L314.161 276.877C313.245 276.544 312.502 275.483 312.502 274.509V274.123L311.817 273.873C311.576 273.786 311.381 273.507 311.381 273.25C311.381 272.994 311.576 272.857 311.817 272.944L312.502 273.194V271.986L311.817 271.737C311.576 271.649 311.381 271.37 311.381 271.113C311.381 270.857 311.576 270.72 311.817 270.808L312.502 271.057V270.671C312.502 269.696 313.245 269.177 314.161 269.51L314.524 269.642V268.913ZM314.161 270.439C313.727 270.281 313.375 270.527 313.375 270.989V274.826C313.375 275.288 313.727 275.791 314.161 275.948L317.767 277.261C318.201 277.419 318.553 277.173 318.553 276.711V272.873C318.553 272.412 318.201 271.909 317.767 271.751L314.161 270.439Z" fill="url(#paint8_linear_135_6173)"/>
</g>
<path d="M328.396 275.112C329.121 275.376 329.723 275.79 330.194 276.37C330.648 276.926 330.928 277.566 331.024 278.27L330.098 277.933C329.994 277.449 329.793 277.042 329.496 276.72C329.199 276.398 328.833 276.163 328.379 275.997C327.706 275.753 327.2 275.81 326.86 276.178C326.537 276.507 326.379 277.063 326.379 277.834C326.379 278.633 326.537 279.303 326.851 279.854C327.183 280.439 327.698 280.859 328.396 281.113C328.85 281.279 329.234 281.298 329.531 281.164C329.845 281.018 330.063 280.708 330.186 280.232L331.111 280.569C330.971 281.289 330.648 281.775 330.133 282.024C329.653 282.258 329.077 282.253 328.405 282.008C327.383 281.637 326.615 281.004 326.1 280.129C325.646 279.369 325.428 278.491 325.428 277.487C325.428 276.503 325.655 275.786 326.126 275.336C326.65 274.82 327.401 274.75 328.396 275.112ZM332.25 276.645L334.834 277.585C336.318 278.125 337.06 279.064 337.06 280.411C337.06 281.768 336.309 282.173 334.816 281.629L333.201 281.041V283.624L332.25 283.278V276.645ZM333.201 277.855V280.177L334.755 280.743C335.227 280.915 335.567 280.946 335.785 280.839C335.995 280.73 336.108 280.474 336.108 280.065C336.108 279.656 335.995 279.318 335.777 279.071C335.558 278.806 335.218 278.589 334.755 278.42L333.201 277.855ZM338.119 278.781L339.071 279.127V283.252C339.071 283.847 339.193 284.328 339.455 284.711C339.717 285.094 340.127 285.392 340.695 285.599C341.253 285.802 341.664 285.803 341.925 285.61C342.179 285.414 342.31 285.025 342.31 284.431V280.306L343.261 280.652V284.759C343.261 285.623 343.034 286.2 342.589 286.493C342.144 286.777 341.515 286.78 340.695 286.481C339.865 286.18 339.237 285.728 338.8 285.123C338.346 284.493 338.119 283.751 338.119 282.887V278.781Z" fill="url(#paint9_linear_135_6173)"/>
<path d="M316.213 306.427C315.254 306.074 314.428 305.522 313.736 304.771C313.048 304.022 312.517 303.107 312.145 302.025C311.777 300.945 311.595 299.74 311.599 298.411C311.599 297.085 311.783 296.022 312.151 295.222C312.523 294.423 313.053 293.905 313.741 293.669C314.433 293.43 315.257 293.484 316.213 293.832C317.169 294.18 317.992 294.725 318.68 295.466C319.372 296.209 319.904 297.115 320.276 298.185C320.648 299.251 320.832 300.446 320.828 301.771C320.828 303.105 320.642 304.177 320.27 304.988C319.902 305.8 319.374 306.33 318.685 306.579C317.997 306.827 317.173 306.777 316.213 306.427ZM316.213 304.295C316.868 304.534 317.391 304.374 317.781 303.815C318.172 303.257 318.365 302.276 318.362 300.873C318.362 299.951 318.272 299.15 318.094 298.472C317.919 297.794 317.67 297.242 317.346 296.816C317.026 296.391 316.649 296.099 316.213 295.94C315.562 295.703 315.042 295.86 314.651 296.411C314.26 296.961 314.063 297.927 314.059 299.307C314.059 300.241 314.147 301.053 314.322 301.742C314.5 302.429 314.751 302.987 315.075 303.418C315.399 303.844 315.778 304.137 316.213 304.295ZM323.502 308.967C323.134 308.833 322.818 308.58 322.554 308.206C322.293 307.831 322.163 307.447 322.163 307.055C322.163 306.667 322.293 306.382 322.554 306.199C322.818 306.018 323.134 305.995 323.502 306.129C323.86 306.259 324.172 306.511 324.44 306.886C324.708 307.26 324.842 307.642 324.842 308.03C324.842 308.291 324.778 308.507 324.652 308.679C324.529 308.848 324.367 308.962 324.166 309.019C323.966 309.073 323.744 309.055 323.502 308.967ZM330.853 311.655C330.064 311.368 329.361 310.957 328.744 310.424C328.13 309.892 327.642 309.289 327.282 308.615C326.921 307.941 326.733 307.251 326.718 306.545L329.062 307.398C329.088 307.879 329.274 308.328 329.62 308.747C329.966 309.166 330.377 309.462 330.853 309.636C331.232 309.774 331.567 309.807 331.857 309.734C332.151 309.659 332.38 309.491 332.544 309.23C332.711 308.966 332.795 308.624 332.795 308.205C332.795 307.777 332.709 307.37 332.538 306.983C332.371 306.597 332.138 306.259 331.841 305.969C331.543 305.679 331.203 305.462 330.819 305.318C330.485 305.196 330.159 305.151 329.843 305.182C329.53 305.215 329.287 305.326 329.112 305.516L326.964 304.325L327.505 298.108L334.491 300.651V302.753L329.497 300.935L329.201 303.874L329.268 303.898C329.469 303.671 329.772 303.532 330.178 303.481C330.583 303.431 331.037 303.497 331.539 303.68C332.227 303.93 332.841 304.326 333.381 304.867C333.92 305.408 334.346 306.036 334.659 306.751C334.971 307.463 335.125 308.208 335.122 308.986C335.125 309.807 334.947 310.471 334.586 310.977C334.229 311.48 333.728 311.797 333.085 311.927C332.445 312.054 331.701 311.963 330.853 311.655ZM346.883 312.932L345.526 312.438C345.501 312.242 345.45 312.057 345.374 311.884C345.297 311.709 345.199 311.548 345.079 311.401C344.959 311.254 344.821 311.124 344.664 311.012C344.509 310.901 344.34 310.812 344.158 310.746C343.83 310.626 343.544 310.609 343.3 310.694C343.056 310.777 342.867 310.959 342.732 311.24C342.598 311.518 342.531 311.892 342.531 312.361C342.531 312.842 342.598 313.271 342.732 313.648C342.869 314.025 343.059 314.342 343.303 314.598C343.547 314.854 343.829 315.04 344.149 315.157C344.329 315.222 344.495 315.257 344.648 315.262C344.803 315.268 344.941 315.245 345.061 315.191C345.18 315.136 345.28 315.052 345.358 314.94C345.439 314.829 345.495 314.689 345.526 314.519L346.883 315.02C346.848 315.318 346.76 315.585 346.62 315.822C346.481 316.057 346.294 316.245 346.059 316.386C345.825 316.525 345.546 316.602 345.222 316.616C344.899 316.628 344.535 316.56 344.127 316.412C343.561 316.206 343.055 315.885 342.608 315.45C342.164 315.016 341.813 314.493 341.554 313.882C341.298 313.272 341.17 312.6 341.17 311.865C341.17 311.128 341.3 310.549 341.561 310.127C341.821 309.705 342.174 309.44 342.621 309.332C343.067 309.222 343.569 309.268 344.127 309.471C344.495 309.605 344.836 309.784 345.15 310.008C345.467 310.233 345.747 310.496 345.991 310.796C346.234 311.094 346.433 311.422 346.586 311.781C346.741 312.141 346.84 312.525 346.883 312.932Z" fill="url(#paint10_linear_135_6173)"/>
<rect width="78.12" height="88.616" rx="17.8392" transform="matrix(0.939693 0.34202 0 1 383.067 269.131)" fill="#F7FBFF"/>
<g filter="url(#filter5_bd_135_6173)">
<rect width="78.12" height="88.616" rx="8.91959" transform="matrix(0.939693 0.34202 0 1 383.067 269.131)" fill="url(#paint11_linear_135_6173)"/>
</g>
<g clip-path="url(#clip1_135_6173)">
<path d="M397.537 301.588C397.537 301.331 397.733 301.194 397.974 301.282C398.215 301.37 398.41 301.649 398.41 301.905V302.834C398.41 303.091 398.215 303.228 397.974 303.14C397.733 303.052 397.537 302.773 397.537 302.517V301.588Z" fill="url(#paint12_linear_135_6173)"/>
<path d="M399.825 301.956C399.584 301.868 399.388 302.005 399.388 302.261V303.19C399.388 303.447 399.584 303.726 399.825 303.814C400.066 303.902 400.261 303.765 400.261 303.508V302.579C400.261 302.323 400.066 302.044 399.825 301.956Z" fill="url(#paint13_linear_135_6173)"/>
<path fill-rule="evenodd" clip-rule="evenodd" d="M395.672 299.85C395.672 298.947 396.36 298.465 397.209 298.774L399.861 299.739C400.268 299.887 400.659 300.202 400.947 300.614L402.691 303.104C402.979 303.516 403.141 303.991 403.141 304.424V308.591C403.141 309.495 402.453 309.976 401.604 309.667L397.209 308.068C396.36 307.759 395.672 306.776 395.672 305.873V299.85ZM397.209 299.703C396.842 299.569 396.545 299.777 396.545 300.168V306.19C396.545 306.581 396.842 307.005 397.209 307.139L401.604 308.738C401.971 308.872 402.268 308.664 402.268 308.274V304.107C402.268 303.919 402.198 303.714 402.074 303.536L400.33 301.046C400.206 300.868 400.037 300.732 399.861 300.668L397.209 299.703Z" fill="url(#paint14_linear_135_6173)"/>
</g>
<path d="M408.99 304.576L410.116 304.986L412.29 311.091L412.316 311.1L414.481 306.574L415.607 306.984V313.617L414.656 313.271V308.533L414.621 308.52L412.709 312.563L411.888 312.264L409.977 306.83L409.942 306.817V311.555L408.99 311.209V304.576ZM418.832 309.858C419.566 310.125 420.133 310.592 420.517 311.27C420.866 311.881 421.05 312.616 421.059 313.474L417.636 312.229C417.671 312.706 417.785 313.109 417.994 313.436C418.204 313.754 418.492 313.989 418.859 314.123C419.182 314.24 419.443 314.252 419.644 314.167C419.801 314.094 419.932 313.928 420.055 313.694L420.98 314.031C420.875 314.439 420.674 314.746 420.36 314.929C419.967 315.149 419.47 315.153 418.867 314.934C418.204 314.693 417.671 314.276 417.287 313.699C416.868 313.082 416.659 312.384 416.659 311.594C416.659 310.879 416.851 310.354 417.252 310.017C417.636 309.664 418.169 309.617 418.832 309.858ZM418.859 310.676C418.509 310.549 418.239 310.553 418.029 310.699C417.837 310.843 417.706 311.102 417.654 311.492L420.09 312.378C420.002 311.51 419.592 310.943 418.859 310.676ZM424.188 311.807C424.851 312.049 425.331 312.493 425.611 313.134C425.811 312.909 426.03 312.775 426.257 312.737C426.466 312.692 426.719 312.729 427.025 312.84C427.488 313.008 427.872 313.306 428.177 313.752C428.474 314.185 428.631 314.67 428.631 315.208V318.358L427.706 318.021V315.039C427.706 314.649 427.627 314.332 427.47 314.098C427.313 313.855 427.051 313.676 426.702 313.549C426.44 313.454 426.231 313.48 426.056 313.621C425.881 313.762 425.794 314.018 425.794 314.371V317.325L424.869 316.988V314.015C424.869 313.254 424.554 312.768 423.943 312.545C423.646 312.437 423.402 312.469 423.227 312.647C423.035 312.809 422.948 313.066 422.948 313.4V316.289L422.023 315.952V311.149L422.948 311.486V312.016C423.315 311.703 423.734 311.642 424.188 311.807ZM431.931 314.626C432.612 314.873 433.162 315.315 433.572 315.948C433.973 316.568 434.183 317.248 434.183 317.982C434.183 318.706 433.982 319.237 433.581 319.555C433.162 319.886 432.612 319.937 431.931 319.689C431.25 319.441 430.7 318.99 430.281 318.354C429.879 317.744 429.678 317.067 429.678 316.342C429.678 315.608 429.879 315.077 430.289 314.753C430.7 314.419 431.25 314.378 431.931 314.626ZM431.931 315.434C431.503 315.278 431.171 315.334 430.935 315.61C430.726 315.841 430.63 316.205 430.63 316.688C430.63 317.171 430.726 317.597 430.935 317.979C431.171 318.418 431.503 318.725 431.931 318.88C432.358 319.036 432.69 318.971 432.935 318.707C433.144 318.467 433.249 318.115 433.249 317.642C433.249 317.158 433.144 316.721 432.935 316.338C432.69 315.887 432.358 315.59 431.931 315.434ZM437.332 316.591C437.559 316.674 437.759 316.784 437.917 316.925V317.91C437.69 317.753 437.471 317.646 437.262 317.569C436.982 317.468 436.729 317.496 436.511 317.658C436.275 317.833 436.162 318.135 436.162 318.553V321.099L435.236 320.762V315.959L436.162 316.296V317.02C436.275 316.801 436.424 316.66 436.598 316.594C436.808 316.484 437.052 316.49 437.332 316.591ZM438.179 317.03L439.183 317.395L440.423 321.349L441.61 318.279L442.623 318.647L440.169 324.397L439.183 324.038L439.969 322.373L438.179 317.03Z" fill="url(#paint15_linear_135_6173)"/>
<path d="M399.755 336.733C399.167 336.515 398.6 336.204 398.053 335.799C397.51 335.395 397.023 334.883 396.591 334.263C396.16 333.643 395.817 332.905 395.564 332.049C395.315 331.194 395.191 330.21 395.191 329.098C395.194 328.078 395.304 327.205 395.52 326.48C395.739 325.752 396.052 325.181 396.457 324.767C396.867 324.353 397.356 324.104 397.925 324.018C398.494 323.928 399.132 324.012 399.839 324.269C400.601 324.547 401.275 324.95 401.859 325.48C402.443 326.005 402.912 326.601 403.265 327.268C403.622 327.937 403.838 328.619 403.912 329.315L401.53 328.448C401.437 327.99 401.241 327.587 400.944 327.237C400.646 326.887 400.278 326.632 399.839 326.473C399.095 326.202 398.529 326.34 398.143 326.888C397.759 327.438 397.564 328.303 397.557 329.484L397.635 329.512C397.806 329.214 398.036 328.991 398.327 328.844C398.621 328.693 398.953 328.619 399.325 328.619C399.701 328.618 400.097 328.693 400.514 328.844C401.191 329.091 401.794 329.48 402.322 330.013C402.85 330.542 403.267 331.156 403.572 331.857C403.877 332.558 404.03 333.289 404.03 334.049C404.03 334.872 403.849 335.539 403.488 336.049C403.131 336.56 402.631 336.881 401.987 337.011C401.347 337.138 400.603 337.046 399.755 336.733ZM399.744 334.71C400.116 334.845 400.449 334.872 400.743 334.788C401.037 334.705 401.267 334.532 401.435 334.268C401.602 334.005 401.686 333.671 401.686 333.267C401.686 332.863 401.602 332.471 401.435 332.089C401.271 331.709 401.044 331.371 400.754 331.075C400.464 330.78 400.133 330.564 399.761 330.429C399.482 330.327 399.223 330.288 398.985 330.313C398.751 330.338 398.544 330.417 398.366 330.55C398.191 330.685 398.053 330.864 397.953 331.089C397.852 331.31 397.802 331.567 397.802 331.859C397.802 332.251 397.886 332.64 398.053 333.026C398.224 333.413 398.455 333.756 398.745 334.055C399.039 334.356 399.372 334.575 399.744 334.71ZM406.679 339.241C406.31 339.107 405.994 338.853 405.73 338.48C405.47 338.104 405.339 337.72 405.339 337.329C405.339 336.941 405.47 336.655 405.73 336.473C405.994 336.292 406.31 336.269 406.679 336.403C407.036 336.533 407.348 336.785 407.616 337.16C407.884 337.534 408.018 337.915 408.018 338.303C408.018 338.565 407.955 338.781 407.828 338.953C407.705 339.122 407.544 339.235 407.343 339.293C407.142 339.346 406.921 339.329 406.679 339.241ZM409.947 340.276V338.424L414.015 335.896C414.361 335.666 414.651 335.451 414.886 335.251C415.124 335.052 415.304 334.839 415.427 334.61C415.55 334.378 415.611 334.102 415.611 333.781C415.611 333.425 415.535 333.09 415.382 332.777C415.23 332.46 415.021 332.185 414.757 331.95C414.493 331.711 414.194 331.531 413.859 331.409C413.509 331.282 413.204 331.246 412.944 331.302C412.683 331.357 412.483 331.5 412.341 331.73C412.2 331.959 412.129 332.268 412.129 332.656L409.836 331.821C409.836 331.026 410.005 330.396 410.343 329.934C410.682 329.471 411.156 329.19 411.766 329.092C412.376 328.993 413.08 329.089 413.876 329.378C414.694 329.676 415.407 330.09 416.013 330.619C416.623 331.146 417.097 331.743 417.436 332.408C417.774 333.074 417.944 333.757 417.944 334.458C417.944 334.917 417.858 335.339 417.687 335.724C417.52 336.11 417.22 336.498 416.789 336.888C416.357 337.273 415.749 337.703 414.964 338.177L413.295 339.31V339.393L418.094 341.14V343.242L409.947 340.276ZM428.53 342.467C428.486 342.291 428.425 342.127 428.347 341.975C428.268 341.821 428.172 341.681 428.058 341.554C427.947 341.425 427.819 341.311 427.674 341.212C427.531 341.114 427.373 341.034 427.2 340.97C426.875 340.852 426.59 340.834 426.344 340.916C426.1 340.999 425.91 341.18 425.774 341.458C425.637 341.734 425.569 342.107 425.569 342.577C425.569 343.048 425.636 343.473 425.771 343.852C425.905 344.23 426.095 344.551 426.341 344.815C426.587 345.076 426.877 345.267 427.212 345.389C427.516 345.5 427.775 345.537 427.99 345.501C428.207 345.463 428.373 345.36 428.486 345.19C428.602 345.021 428.66 344.792 428.66 344.504L428.933 344.646L427.296 344.05V342.975L429.953 343.942V344.793C429.953 345.387 429.835 345.854 429.599 346.195C429.364 346.534 429.039 346.744 428.626 346.824C428.212 346.902 427.739 346.844 427.206 346.65C426.611 346.434 426.088 346.104 425.637 345.66C425.187 345.215 424.835 344.688 424.583 344.079C424.333 343.469 424.208 342.808 424.208 342.095C424.208 341.548 424.282 341.086 424.431 340.712C424.582 340.336 424.793 340.047 425.064 339.847C425.334 339.646 425.65 339.533 426.009 339.508C426.369 339.483 426.758 339.546 427.178 339.699C427.538 339.83 427.872 340.008 428.182 340.233C428.492 340.456 428.767 340.712 429.007 341.001C429.249 341.292 429.446 341.605 429.599 341.939C429.752 342.272 429.85 342.614 429.894 342.964L428.53 342.467ZM430.961 347.925V341.168L433.503 342.094C433.97 342.264 434.36 342.479 434.672 342.74C434.984 343.001 435.218 343.291 435.375 343.61C435.532 343.926 435.611 344.254 435.611 344.593C435.611 344.857 435.561 345.071 435.462 345.235C435.363 345.397 435.227 345.51 435.053 345.574C434.881 345.637 434.685 345.655 434.464 345.627V345.693C434.706 345.792 434.932 345.947 435.143 346.158C435.356 346.369 435.528 346.62 435.661 346.91C435.793 347.198 435.859 347.508 435.859 347.84C435.859 348.199 435.775 348.488 435.608 348.709C435.442 348.928 435.198 349.06 434.873 349.105C434.549 349.149 434.149 349.085 433.673 348.912L430.961 347.925ZM432.303 347.245L433.397 347.644C433.772 347.78 434.044 347.803 434.216 347.714C434.387 347.622 434.473 347.449 434.473 347.194C434.473 347.007 434.431 346.827 434.346 346.653C434.261 346.479 434.14 346.323 433.983 346.184C433.828 346.047 433.643 345.939 433.428 345.86L432.303 345.451V347.245ZM432.303 344.484L433.298 344.846C433.482 344.913 433.645 344.939 433.788 344.922C433.933 344.905 434.046 344.847 434.129 344.75C434.214 344.653 434.256 344.515 434.256 344.337C434.256 344.093 434.175 343.867 434.011 343.658C433.85 343.449 433.621 343.291 433.323 343.183L432.303 342.812V344.484Z" fill="url(#paint16_linear_135_6173)"/>
<rect width="78.12" height="88.616" rx="17.8392" transform="matrix(0.939693 0.34202 0 1 299.625 340.013)" fill="#F7FBFF"/>
<g filter="url(#filter6_bd_135_6173)">
<rect width="78.12" height="88.616" rx="8.91959" transform="matrix(0.939693 0.34202 0 1 299.625 340.013)" fill="url(#paint17_linear_135_6173)"/>
</g>
<g clip-path="url(#clip2_135_6173)">
<path fill-rule="evenodd" clip-rule="evenodd" d="M314.573 370.531C314.595 370.538 314.618 370.547 314.64 370.555L317.288 371.519C317.311 371.527 317.333 371.535 317.355 371.543C317.76 371.69 318.065 371.801 318.343 372.004C318.588 372.183 318.81 372.411 318.995 372.671C319.206 372.966 319.342 373.306 319.523 373.758C319.533 373.782 319.542 373.807 319.552 373.832L320.498 376.189C320.502 376.198 320.506 376.208 320.509 376.217C320.581 376.396 320.635 376.531 320.674 376.668C320.709 376.79 320.734 376.911 320.749 377.03C320.766 377.165 320.765 377.294 320.765 377.464C320.765 377.473 320.765 377.482 320.765 377.491V378.47C320.765 378.844 320.765 379.153 320.746 379.397C320.726 379.651 320.683 379.875 320.575 380.062C320.408 380.35 320.141 380.537 319.812 380.596C319.6 380.634 319.375 380.597 319.129 380.529C318.893 380.464 318.603 380.358 318.252 380.23L313.676 378.565C313.325 378.437 313.035 378.332 312.799 378.225C312.553 378.114 312.328 377.987 312.116 377.795C311.787 377.497 311.52 377.115 311.353 376.705C311.245 376.44 311.202 376.185 311.182 375.916C311.163 375.658 311.163 375.349 311.163 374.975L311.163 373.996C311.163 373.987 311.163 373.978 311.163 373.969C311.163 373.799 311.163 373.67 311.18 373.547C311.195 373.439 311.219 373.336 311.254 373.239C311.293 373.13 311.347 373.035 311.419 372.908C311.422 372.902 311.426 372.895 311.43 372.888L311.82 373.238L311.823 373.241M311.82 373.238L311.43 372.888L312.376 371.22C312.386 371.202 312.396 371.185 312.405 371.167C312.586 370.848 312.723 370.607 312.933 370.464C313.118 370.339 313.34 370.273 313.585 370.272C313.863 370.272 314.169 370.383 314.573 370.531M312.305 373.421L313.156 371.92C313.381 371.524 313.452 371.412 313.544 371.35C313.636 371.287 313.747 371.255 313.87 371.254C313.992 371.254 314.138 371.301 314.64 371.484L317.288 372.448C317.79 372.63 317.937 372.69 318.058 372.779C318.181 372.868 318.292 372.982 318.385 373.112C318.477 373.241 318.547 373.404 318.772 373.963L319.623 376.084L312.305 373.421ZM312.036 374.252C312.036 374.271 312.036 374.291 312.036 374.314V375.274C312.036 375.672 312.036 375.942 312.052 376.157C312.068 376.367 312.096 376.481 312.131 376.566C312.214 376.772 312.348 376.962 312.512 377.111C312.581 377.173 312.678 377.239 312.87 377.325C313.066 377.414 313.32 377.507 313.694 377.643L318.234 379.295C318.608 379.431 318.862 379.523 319.058 379.578C319.25 379.631 319.348 379.636 319.416 379.624C319.58 379.595 319.714 379.501 319.797 379.357C319.832 379.297 319.86 379.203 319.876 379.005C319.892 378.802 319.892 378.531 319.892 378.133V377.173C319.892 377.151 319.892 377.131 319.892 377.112L312.036 374.252ZM315.091 377.222L313.345 376.587C313.104 376.499 312.909 376.22 312.909 375.963C312.909 375.707 313.104 375.57 313.345 375.658L315.091 376.293C315.332 376.381 315.528 376.66 315.528 376.916C315.528 377.173 315.332 377.31 315.091 377.222Z" fill="url(#paint18_linear_135_6173)"/>
</g>
<path d="M327.689 376.221C328.413 376.485 328.981 376.85 329.391 377.333C329.828 377.836 330.072 378.454 330.133 379.201L329.19 378.858C329.103 378.399 328.946 378.026 328.701 377.751C328.457 377.467 328.108 377.247 327.636 377.076C327.226 376.926 326.912 376.877 326.694 376.928C326.423 376.978 326.292 377.172 326.292 377.506C326.292 377.803 326.44 378.09 326.755 378.38C326.894 378.515 327.252 378.785 327.837 379.183C328.675 379.767 329.225 380.181 329.47 380.428C330.002 380.965 330.273 381.538 330.273 382.151C330.273 382.745 330.054 383.13 329.618 383.315C329.181 383.491 328.57 383.436 327.785 383.15C327.025 382.873 326.432 382.49 326.004 382.018C325.489 381.441 325.209 380.726 325.157 379.871L326.1 380.214C326.17 380.759 326.344 381.204 326.624 381.529C326.877 381.825 327.261 382.067 327.785 382.258C328.256 382.429 328.632 382.473 328.911 382.407C329.19 382.342 329.33 382.161 329.33 381.863C329.33 381.492 329.129 381.131 328.736 380.774C328.597 380.649 328.186 380.351 327.497 379.877C326.728 379.337 326.257 378.989 326.065 378.808C325.585 378.326 325.349 377.795 325.349 377.219C325.349 376.633 325.576 376.261 326.039 376.095C326.475 375.938 327.025 375.98 327.689 376.221ZM332.616 378.424V379.975L333.646 380.35V381.168L332.616 380.793V383.58C332.616 383.71 332.643 383.812 332.695 383.896C332.747 383.971 332.826 384.037 332.939 384.078L333.533 384.294V385.112L332.791 384.842C332.407 384.702 332.119 384.485 331.944 384.208C331.77 383.94 331.691 383.624 331.691 383.243V380.456L330.853 380.151V379.333L331.691 379.638V378.496L332.616 378.424ZM336.644 381.311C337.325 381.559 337.875 382.001 338.285 382.633C338.687 383.253 338.896 383.933 338.896 384.667C338.896 385.392 338.695 385.922 338.294 386.241C337.875 386.571 337.325 386.622 336.644 386.374C335.963 386.126 335.413 385.675 334.994 385.04C334.592 384.429 334.392 383.752 334.392 383.027C334.392 382.293 334.592 381.763 335.003 381.438C335.413 381.104 335.963 381.063 336.644 381.311ZM336.644 382.119C336.216 381.963 335.884 382.019 335.649 382.296C335.439 382.526 335.343 382.891 335.343 383.374C335.343 383.857 335.439 384.282 335.649 384.665C335.884 385.104 336.216 385.41 336.644 385.566C337.072 385.721 337.403 385.656 337.648 385.392C337.857 385.153 337.962 384.801 337.962 384.327C337.962 383.844 337.857 383.406 337.648 383.023C337.403 382.572 337.072 382.275 336.644 382.119ZM342.045 383.277C342.272 383.359 342.473 383.47 342.63 383.61V384.595C342.403 384.438 342.184 384.331 341.975 384.255C341.696 384.153 341.442 384.182 341.224 384.344C340.988 384.518 340.875 384.82 340.875 385.239V387.784L339.95 387.447V382.644L340.875 382.981V383.706C340.988 383.487 341.137 383.346 341.312 383.279C341.521 383.17 341.765 383.175 342.045 383.277ZM345.406 384.5C346.07 384.742 346.559 385.096 346.873 385.564C347.144 385.969 347.283 386.465 347.283 387.051V390.116L346.428 389.805V389.127C346.253 389.305 346.035 389.421 345.773 389.465C345.476 389.505 345.127 389.462 344.725 389.316C344.254 389.144 343.887 388.88 343.626 388.534C343.337 388.179 343.198 387.803 343.198 387.403C343.198 386.864 343.399 386.519 343.8 386.377C344.167 386.232 344.691 386.284 345.354 386.506L346.367 386.847V386.652C346.367 385.983 346.026 385.525 345.345 385.277C345.057 385.172 344.821 385.142 344.647 385.19C344.437 385.244 344.306 385.391 344.254 385.642L343.337 385.224C343.433 384.739 343.678 384.438 344.062 384.336C344.394 384.234 344.848 384.297 345.406 384.5ZM346.367 387.562L345.415 387.244C344.568 386.954 344.149 387.118 344.149 387.712C344.149 387.898 344.219 388.072 344.368 388.247C344.507 388.419 344.699 388.553 344.935 388.639C345.328 388.782 345.66 388.773 345.939 388.624C346.218 388.475 346.367 388.213 346.367 387.841V387.562ZM350.394 386.316C350.988 386.532 351.442 386.948 351.773 387.589V386.948L352.699 387.285V391.772C352.699 393.295 351.992 393.8 350.595 393.291C349.966 393.062 349.486 392.758 349.154 392.386C348.823 392.005 348.622 391.542 348.535 390.981L349.46 391.317C349.512 391.615 349.617 391.858 349.792 392.042C349.958 392.214 350.228 392.377 350.595 392.511C351.381 392.797 351.773 392.485 351.773 391.583V390.84C351.442 391.249 350.988 391.353 350.394 391.137C349.783 390.915 349.285 390.511 348.91 389.937C348.526 389.361 348.343 388.718 348.343 387.994C348.343 387.269 348.526 386.76 348.91 386.454C349.285 386.135 349.783 386.093 350.394 386.316ZM350.534 387.165C350.141 387.022 349.835 387.051 349.626 387.272C349.399 387.468 349.294 387.829 349.294 388.34C349.294 388.804 349.381 389.208 349.556 389.541C349.757 389.93 350.08 390.215 350.534 390.38C350.927 390.523 351.232 390.495 351.459 390.299C351.669 390.087 351.782 389.738 351.782 389.246C351.782 388.744 351.669 388.303 351.459 387.939C351.232 387.559 350.927 387.308 350.534 387.165ZM355.83 388.294C356.563 388.561 357.13 389.028 357.514 389.706C357.864 390.316 358.047 391.052 358.056 391.91L354.634 390.664C354.668 391.141 354.782 391.545 354.991 391.872C355.201 392.19 355.489 392.425 355.856 392.558C356.179 392.676 356.441 392.688 356.641 392.603C356.799 392.53 356.929 392.364 357.052 392.13L357.977 392.466C357.872 392.874 357.672 393.182 357.357 393.365C356.964 393.584 356.467 393.589 355.864 393.37C355.201 393.128 354.668 392.711 354.284 392.135C353.865 391.518 353.656 390.819 353.656 390.03C353.656 389.314 353.848 388.79 354.249 388.453C354.634 388.1 355.166 388.052 355.83 388.294ZM355.856 389.112C355.507 388.985 355.236 388.988 355.026 389.135C354.834 389.279 354.703 389.538 354.651 389.927L357.087 390.814C356.999 389.946 356.589 389.379 355.856 389.112Z" fill="url(#paint19_linear_135_6173)"/>
<path d="M316.907 395.618V407.78L314.491 406.9V397.179L314.424 397.155L311.807 397.948V395.668L314.636 394.791L316.907 395.618ZM319.623 408.768V406.915L323.691 404.388C324.037 404.157 324.327 403.942 324.562 403.742C324.8 403.544 324.98 403.331 325.103 403.102C325.226 402.87 325.287 402.593 325.287 402.273C325.287 401.916 325.211 401.582 325.058 401.269C324.906 400.952 324.698 400.676 324.433 400.442C324.169 400.203 323.87 400.023 323.535 399.901C323.185 399.774 322.88 399.738 322.62 399.793C322.359 399.849 322.159 399.992 322.017 400.221C321.876 400.451 321.805 400.76 321.805 401.148L319.512 400.313C319.512 399.517 319.681 398.888 320.02 398.425C320.358 397.963 320.832 397.682 321.442 397.583C322.053 397.485 322.756 397.58 323.552 397.87C324.37 398.168 325.083 398.582 325.689 399.111C326.299 399.638 326.773 400.234 327.112 400.9C327.45 401.565 327.62 402.249 327.62 402.949C327.62 403.409 327.534 403.831 327.363 404.216C327.196 404.602 326.896 404.99 326.465 405.379C326.033 405.765 325.425 406.194 324.64 406.669L322.971 407.801V407.885L327.77 409.631V411.733L319.623 408.768ZM330.933 413.039C330.565 412.905 330.248 412.651 329.984 412.278C329.724 411.902 329.594 411.518 329.594 411.126C329.594 410.738 329.724 410.453 329.984 410.271C330.248 410.09 330.565 410.066 330.933 410.2C331.29 410.33 331.603 410.583 331.87 410.957C332.138 411.332 332.272 411.713 332.272 412.101C332.272 412.362 332.209 412.579 332.082 412.751C331.96 412.92 331.798 413.033 331.597 413.09C331.396 413.144 331.175 413.127 330.933 413.039ZM334.028 411.873V409.848L338.8 403.586L340.44 404.183V406.986L339.469 406.633L336.461 410.603V410.698L343.241 413.166V415.227L334.028 411.873ZM339.514 416.008V413.252L339.558 412.372V403.862L341.824 404.687V416.848L339.514 416.008ZM353.536 416.539C353.492 416.362 353.431 416.198 353.353 416.047C353.274 415.893 353.178 415.752 353.064 415.625C352.953 415.496 352.825 415.383 352.68 415.284C352.537 415.186 352.379 415.105 352.206 415.042C351.881 414.924 351.596 414.906 351.35 414.988C351.106 415.071 350.916 415.251 350.78 415.529C350.643 415.805 350.575 416.178 350.575 416.649C350.575 417.119 350.642 417.544 350.777 417.923C350.911 418.302 351.101 418.623 351.347 418.886C351.593 419.147 351.883 419.339 352.218 419.46C352.522 419.571 352.781 419.608 352.996 419.572C353.213 419.535 353.379 419.431 353.492 419.261C353.608 419.092 353.666 418.864 353.666 418.575L353.939 418.718L352.302 418.122V417.046L354.959 418.013V418.865C354.959 419.458 354.841 419.926 354.605 420.267C354.37 420.605 354.045 420.815 353.632 420.895C353.218 420.974 352.745 420.916 352.212 420.722C351.617 420.505 351.094 420.175 350.643 419.732C350.193 419.286 349.841 418.759 349.589 418.151C349.339 417.541 349.214 416.879 349.214 416.167C349.214 415.619 349.289 415.158 349.437 414.783C349.588 414.407 349.799 414.119 350.07 413.918C350.341 413.717 350.656 413.605 351.015 413.579C351.375 413.554 351.765 413.618 352.184 413.77C352.544 413.901 352.878 414.079 353.189 414.304C353.499 414.527 353.773 414.783 354.013 415.073C354.255 415.363 354.452 415.676 354.605 416.011C354.758 416.344 354.856 416.685 354.9 417.035L353.536 416.539ZM355.967 421.996V415.24L358.509 416.165C358.976 416.335 359.366 416.55 359.678 416.811C359.99 417.072 360.224 417.362 360.381 417.681C360.539 417.998 360.617 418.325 360.617 418.664C360.617 418.928 360.567 419.142 360.468 419.306C360.369 419.468 360.233 419.581 360.059 419.645C359.888 419.708 359.691 419.726 359.47 419.698V419.764C359.712 419.863 359.938 420.018 360.149 420.229C360.362 420.441 360.534 420.692 360.667 420.982C360.799 421.27 360.865 421.579 360.865 421.912C360.865 422.27 360.781 422.56 360.614 422.78C360.449 422.999 360.204 423.131 359.879 423.176C359.555 423.221 359.155 423.156 358.68 422.983L355.967 421.996ZM357.309 421.317L358.404 421.715C358.778 421.851 359.05 421.875 359.222 421.785C359.394 421.694 359.479 421.52 359.479 421.265C359.479 421.078 359.437 420.898 359.352 420.724C359.267 420.55 359.147 420.394 358.99 420.256C358.835 420.118 358.65 420.01 358.435 419.932L357.309 419.522V421.317ZM357.309 418.556L358.304 418.918C358.488 418.985 358.652 419.01 358.794 418.994C358.939 418.976 359.053 418.918 359.135 418.821C359.22 418.724 359.262 418.587 359.262 418.409C359.262 418.164 359.181 417.938 359.017 417.729C358.856 417.521 358.627 417.362 358.329 417.254L357.309 416.883V418.556Z" fill="url(#paint20_linear_135_6173)"/>
<rect width="78.12" height="88.616" rx="17.8392" transform="matrix(0.939693 0.34202 0 1 383.067 370.383)" fill="#F7FBFF"/>
<g filter="url(#filter7_bd_135_6173)">
<rect width="78.12" height="88.616" rx="8.91959" transform="matrix(0.939693 0.34202 0 1 383.067 370.383)" fill="url(#paint21_linear_135_6173)"/>
</g>
<g clip-path="url(#clip3_135_6173)">
<path d="M397.637 400.773C397.733 400.393 398.245 400.567 398.371 400.995L399.733 407.735L400.588 404.823C400.682 404.501 401.102 404.595 401.278 404.956L402.156 407.19L403.644 407.731C403.861 407.81 404.037 408.061 404.037 408.293C404.037 408.537 403.851 408.667 403.622 408.584L401.92 407.964C401.792 407.918 401.673 407.804 401.601 407.659L401.053 406.271L400.066 409.635C399.958 410 399.458 409.821 399.335 409.399L397.997 402.778L397.196 405.923C397.156 406.081 397.025 406.16 396.866 406.122L395.164 405.505C394.95 405.427 394.776 405.179 394.776 404.951V404.906C394.776 404.684 394.945 404.565 395.154 404.641L396.524 405.14L397.637 400.773Z" fill="url(#paint22_linear_135_6173)"/>
</g>
<path d="M408.627 405.811L413.734 407.669V408.533L411.656 407.777V413.546L410.713 413.203V407.434L408.627 406.675V405.811ZM416.669 410.438C416.896 410.52 417.097 410.631 417.254 410.771V411.756C417.027 411.599 416.809 411.492 416.599 411.416C416.32 411.314 416.066 411.343 415.848 411.505C415.613 411.679 415.499 411.981 415.499 412.399V414.945L414.574 414.608V409.805L415.499 410.142V410.867C415.613 410.648 415.761 410.507 415.936 410.44C416.145 410.331 416.389 410.336 416.669 410.438ZM420.03 411.661C420.694 411.903 421.183 412.257 421.497 412.725C421.768 413.13 421.907 413.626 421.907 414.212V417.277L421.052 416.966V416.288C420.877 416.466 420.659 416.581 420.397 416.625C420.1 416.666 419.751 416.623 419.35 416.476C418.878 416.305 418.511 416.041 418.25 415.695C417.961 415.34 417.822 414.964 417.822 414.564C417.822 414.025 418.023 413.68 418.424 413.538C418.791 413.393 419.315 413.444 419.978 413.667L420.991 414.008V413.813C420.991 413.144 420.65 412.686 419.969 412.438C419.681 412.333 419.446 412.303 419.271 412.351C419.061 412.405 418.93 412.552 418.878 412.803L417.961 412.385C418.057 411.9 418.302 411.599 418.686 411.497C419.018 411.395 419.472 411.458 420.03 411.661ZM420.991 414.723L420.039 414.405C419.192 414.115 418.773 414.279 418.773 414.873C418.773 415.059 418.843 415.233 418.992 415.408C419.131 415.58 419.323 415.714 419.559 415.8C419.952 415.943 420.284 415.934 420.563 415.785C420.842 415.636 420.991 415.374 420.991 415.002V414.723ZM424.922 411.742L425.865 412.085V412.921L425.053 412.625C424.905 412.571 424.791 412.567 424.721 412.625C424.651 412.674 424.617 412.792 424.617 412.968V413.46L426.441 414.125V413.604C426.441 413.196 426.546 412.909 426.755 412.762C426.965 412.597 427.27 412.596 427.672 412.742L428.606 413.082V413.919L427.794 413.623C427.654 413.572 427.541 413.568 427.471 413.626C427.401 413.675 427.366 413.792 427.366 413.969V414.461L430.134 415.469V420.272L429.208 419.935V415.94L427.366 415.27V419.264L426.441 418.928V414.933L424.617 414.269V418.263L423.7 417.93V413.935L422.661 413.557V412.749L423.7 413.127V412.607C423.7 412.198 423.805 411.911 424.014 411.764C424.224 411.599 424.52 411.595 424.922 411.742ZM433.457 416.548C434.033 416.758 434.496 417.065 434.845 417.471C435.194 417.896 435.421 418.424 435.508 419.05L434.592 418.717C434.53 418.369 434.408 418.083 434.216 417.865C434.024 417.637 433.771 417.471 433.457 417.356C433.073 417.216 432.776 417.257 432.558 417.484C432.331 417.699 432.226 418.088 432.226 418.627C432.226 419.166 432.331 419.631 432.549 420.017C432.75 420.388 433.046 420.653 433.448 420.8C434.138 421.051 434.522 420.819 434.609 420.126L435.526 420.46C435.421 421.063 435.185 421.46 434.836 421.649C434.487 421.828 434.015 421.814 433.439 421.605C432.75 421.354 432.217 420.918 431.833 420.295C431.458 419.694 431.274 419.033 431.274 418.29C431.274 417.565 431.458 417.037 431.824 416.706C432.217 416.348 432.758 416.294 433.457 416.548Z" fill="url(#paint23_linear_135_6173)"/>
<path d="M395.343 436.328V434.475L399.411 431.947C399.757 431.717 400.047 431.502 400.281 431.302C400.52 431.104 400.7 430.89 400.823 430.662C400.946 430.43 401.007 430.153 401.007 429.832C401.007 429.476 400.931 429.141 400.778 428.829C400.626 428.512 400.417 428.236 400.153 428.001C399.889 427.763 399.59 427.582 399.255 427.461C398.905 427.333 398.6 427.298 398.34 427.353C398.079 427.409 397.878 427.551 397.737 427.781C397.596 428.011 397.525 428.32 397.525 428.707L395.231 427.873C395.231 427.077 395.401 426.448 395.739 425.985C396.078 425.522 396.552 425.242 397.162 425.143C397.772 425.045 398.475 425.14 399.271 425.43C400.09 425.728 400.802 426.141 401.409 426.671C402.019 427.198 402.493 427.794 402.832 428.46C403.17 429.125 403.339 429.808 403.339 430.509C403.339 430.968 403.254 431.39 403.083 431.775C402.915 432.162 402.616 432.55 402.184 432.939C401.753 433.324 401.145 433.754 400.36 434.229L398.691 435.361V435.444L403.49 437.191V439.293L395.343 436.328ZM409.722 441.828C408.762 441.475 407.936 440.923 407.244 440.173C406.556 439.423 406.026 438.508 405.654 437.426C405.285 436.346 405.103 435.142 405.107 433.813C405.107 432.486 405.291 431.423 405.659 430.623C406.031 429.824 406.561 429.306 407.25 429.07C407.942 428.831 408.766 428.885 409.722 429.233C410.678 429.581 411.5 430.126 412.188 430.867C412.88 431.61 413.412 432.516 413.784 433.586C414.156 434.652 414.34 435.847 414.336 437.172C414.336 438.506 414.15 439.579 413.778 440.389C413.41 441.201 412.882 441.732 412.194 441.98C411.505 442.228 410.681 442.178 409.722 441.828ZM409.722 439.697C410.376 439.935 410.899 439.775 411.29 439.216C411.68 438.658 411.874 437.677 411.87 436.274C411.87 435.352 411.781 434.551 411.602 433.873C411.427 433.195 411.178 432.644 410.854 432.217C410.535 431.792 410.157 431.5 409.722 431.342C409.071 431.105 408.55 431.261 408.159 431.812C407.769 432.363 407.571 433.328 407.568 434.708C407.568 435.643 407.655 436.454 407.83 437.144C408.009 437.83 408.26 438.389 408.583 438.819C408.907 439.246 409.286 439.538 409.722 439.697ZM417.011 444.369C416.642 444.235 416.326 443.981 416.062 443.608C415.802 443.232 415.672 442.848 415.672 442.456C415.672 442.068 415.802 441.783 416.062 441.601C416.326 441.42 416.642 441.396 417.011 441.53C417.368 441.66 417.68 441.912 417.948 442.287C418.216 442.662 418.35 443.043 418.35 443.431C418.35 443.692 418.287 443.909 418.16 444.08C418.037 444.249 417.876 444.363 417.675 444.42C417.474 444.474 417.253 444.457 417.011 444.369ZM424.082 446.954C423.223 446.642 422.458 446.215 421.789 445.674C421.123 445.131 420.6 444.531 420.221 443.874C419.841 443.218 419.652 442.561 419.652 441.903C419.652 441.397 419.759 440.971 419.975 440.626C420.195 440.278 420.492 440.032 420.868 439.888C421.244 439.739 421.664 439.71 422.129 439.8V439.717C421.519 439.365 421.024 438.87 420.645 438.233C420.265 437.592 420.076 436.939 420.076 436.274C420.076 435.644 420.249 435.147 420.595 434.782C420.941 434.413 421.415 434.198 422.018 434.136C422.624 434.072 423.312 434.18 424.082 434.46C424.852 434.74 425.539 435.133 426.141 435.637C426.748 436.143 427.224 436.706 427.57 437.327C427.916 437.944 428.091 438.566 428.094 439.192C428.091 439.86 427.897 440.374 427.514 440.733C427.131 441.092 426.64 441.228 426.041 441.141V441.224C426.498 441.47 426.913 441.803 427.285 442.223C427.661 442.641 427.958 443.104 428.178 443.611C428.401 444.116 428.515 444.623 428.518 445.131C428.515 445.787 428.323 446.305 427.944 446.685C427.564 447.066 427.04 447.284 426.37 447.342C425.704 447.396 424.942 447.267 424.082 446.954ZM424.082 445.066C424.465 445.205 424.8 445.254 425.087 445.212C425.373 445.166 425.596 445.041 425.756 444.838C425.92 444.632 426.002 444.357 426.002 444.013C426.002 443.66 425.918 443.319 425.751 442.989C425.583 442.655 425.356 442.359 425.07 442.1C424.783 441.837 424.454 441.638 424.082 441.503C423.714 441.369 423.385 441.328 423.094 441.381C422.804 441.43 422.576 441.56 422.408 441.773C422.244 441.982 422.163 442.263 422.163 442.615C422.163 442.96 422.243 443.294 422.403 443.617C422.563 443.937 422.788 444.225 423.078 444.481C423.368 444.733 423.703 444.928 424.082 445.066ZM424.082 439.632C424.402 439.749 424.687 439.783 424.936 439.735C425.185 439.687 425.38 439.567 425.522 439.373C425.663 439.179 425.734 438.921 425.734 438.601C425.734 438.284 425.663 437.981 425.522 437.692C425.38 437.399 425.187 437.141 424.942 436.917C424.696 436.689 424.41 436.515 424.082 436.396C423.759 436.278 423.472 436.243 423.223 436.291C422.974 436.335 422.778 436.452 422.637 436.642C422.499 436.829 422.43 437.082 422.43 437.398C422.43 437.719 422.501 438.028 422.642 438.325C422.784 438.621 422.979 438.885 423.228 439.114C423.478 439.343 423.762 439.516 424.082 439.632ZM438.892 447.606C438.849 447.43 438.788 447.266 438.709 447.114C438.631 446.96 438.535 446.819 438.421 446.692C438.309 446.564 438.181 446.45 438.037 446.351C437.894 446.253 437.736 446.172 437.562 446.109C437.238 445.991 436.953 445.973 436.707 446.055C436.463 446.138 436.273 446.318 436.136 446.596C436 446.872 435.932 447.245 435.932 447.716C435.932 448.187 435.999 448.612 436.133 448.99C436.268 449.369 436.458 449.69 436.704 449.953C436.95 450.214 437.24 450.406 437.575 450.528C437.879 450.638 438.138 450.676 438.353 450.639C438.57 450.602 438.735 450.498 438.849 450.328C438.965 450.159 439.023 449.931 439.023 449.643L439.295 449.785L437.658 449.189V448.114L440.315 449.081V449.932C440.315 450.526 440.197 450.993 439.962 451.334C439.726 451.673 439.402 451.882 438.988 451.963C438.575 452.041 438.102 451.983 437.569 451.789C436.973 451.572 436.45 451.242 436 450.799C435.549 450.354 435.198 449.827 434.946 449.218C434.696 448.608 434.571 447.947 434.571 447.234C434.571 446.686 434.645 446.225 434.794 445.85C434.945 445.474 435.156 445.186 435.426 444.985C435.697 444.785 436.012 444.672 436.372 444.647C436.732 444.621 437.121 444.685 437.541 444.838C437.9 444.969 438.235 445.147 438.545 445.372C438.855 445.594 439.13 445.851 439.37 446.14C439.612 446.431 439.809 446.743 439.962 447.078C440.115 447.411 440.213 447.752 440.256 448.102L438.892 447.606ZM441.324 453.063V446.307L443.866 447.232C444.333 447.402 444.722 447.618 445.034 447.879C445.346 448.14 445.581 448.429 445.738 448.748C445.895 449.065 445.974 449.393 445.974 449.731C445.974 449.995 445.924 450.209 445.825 450.373C445.726 450.535 445.589 450.648 445.416 450.713C445.244 450.776 445.048 450.793 444.827 450.766V450.832C445.068 450.931 445.295 451.085 445.506 451.296C445.718 451.508 445.891 451.759 446.023 452.049C446.156 452.337 446.222 452.647 446.222 452.979C446.222 453.337 446.138 453.627 445.971 453.848C445.805 454.067 445.56 454.199 445.236 454.243C444.911 454.288 444.511 454.224 444.036 454.051L441.324 453.063ZM442.666 452.384L443.76 452.782C444.134 452.919 444.407 452.942 444.579 452.853C444.75 452.761 444.836 452.588 444.836 452.333C444.836 452.146 444.794 451.965 444.709 451.792C444.624 451.618 444.503 451.462 444.346 451.323C444.191 451.185 444.006 451.077 443.791 450.999L442.666 450.589V452.384ZM442.666 449.623L443.661 449.985C443.845 450.052 444.008 450.077 444.151 450.061C444.295 450.043 444.409 449.986 444.492 449.888C444.577 449.791 444.619 449.654 444.619 449.476C444.619 449.232 444.537 449.005 444.374 448.796C444.213 448.588 443.983 448.43 443.686 448.321L442.666 447.95V449.623Z" fill="url(#paint24_linear_135_6173)"/>
<path d="M110.315 280.23C96.89 275.344 84.9102 282.017 84.9102 282.017V347.91L276.586 417.674V326.717C276.586 326.717 270.357 316.695 260.506 310.598C242.75 299.609 240.272 331.753 224.674 326.076C213.217 321.906 212.426 300.969 197.149 293.527C181.873 286.084 174.982 330.995 150.355 321.497C131.907 314.382 120.69 284.006 110.315 280.23Z" fill="url(#paint25_linear_135_6173)"/>
<path d="M85.2297 281.991C85.2297 281.991 96.89 275.302 110.315 280.188C121.488 284.255 131.907 314.296 150.355 321.41C174.982 330.907 181.873 286.076 197.149 293.515C212.425 300.955 213.217 321.857 224.674 326.027C240.272 331.704 242.75 299.615 260.506 310.596C270.357 316.689 276.586 326.699 276.586 326.699" stroke="url(#paint26_linear_135_6173)" stroke-width="1.69981" stroke-linecap="round"/>
<path opacity="0.3" d="M194.804 270.621C194.804 266.866 197.665 264.863 201.194 266.147L213.972 270.798C217.501 272.082 220.361 276.168 220.361 279.923V397.21L194.804 387.908V270.621Z" fill="url(#paint27_linear_135_6173)"/>
<g filter="url(#filter8_d_135_6173)">
<circle cx="8.49905" cy="8.49905" r="8.49905" transform="matrix(0.939693 0.34202 0 1 199.596 290.722)" fill="url(#paint28_linear_135_6173)"/>
<circle cx="8.49905" cy="8.49905" r="7.47917" transform="matrix(0.939693 0.34202 0 1 199.596 290.722)" stroke="white" stroke-width="2.03977"/>
</g>
<path d="M204.204 404.848V401.973L204.762 402.176L205.589 404.672L205.602 404.677L206.43 402.783L206.988 402.986V405.861L206.553 405.703V403.659L206.538 403.653L205.76 405.414L205.432 405.294L204.653 402.967L204.64 402.962V405.006L204.204 404.848ZM207.955 406.249C207.558 406.104 207.291 405.746 207.291 405.369V405.365C207.291 404.991 207.564 404.865 208.045 405.009L208.564 405.163V405.018C208.564 404.805 208.433 404.628 208.197 404.542C207.976 404.461 207.841 404.522 207.811 404.666L207.807 404.683L207.375 404.526L207.377 404.502C207.405 404.138 207.71 403.968 208.214 404.152C208.71 404.332 209.03 404.727 209.03 405.152V406.604L208.564 406.434V406.11L208.552 406.105C208.438 406.285 208.217 406.344 207.955 406.249ZM207.755 405.518C207.755 405.692 207.89 405.846 208.094 405.921C208.362 406.018 208.564 405.902 208.564 405.651V405.492L208.111 405.357C207.88 405.289 207.755 405.349 207.755 405.516V405.518ZM209.664 407.536C209.574 407.503 209.481 407.457 209.425 407.427V407.048C209.46 407.069 209.515 407.099 209.58 407.123C209.758 407.188 209.857 407.17 209.917 407.014L209.945 406.939L209.232 404.566L209.741 404.751L210.205 406.609L210.218 406.614L210.684 405.095L211.175 405.273L210.462 407.197C210.31 407.606 210.078 407.687 209.664 407.536Z" fill="white"/>
<g filter="url(#filter9_d_135_6173)">
<rect width="57.9846" height="57.985" rx="13.9164" transform="matrix(0.939693 0.34202 0 1 6.30103 154.182)" fill="white" fill-opacity="0.4"/>
<g filter="url(#filter10_bd_135_6173)">
<rect width="57.9846" height="57.985" rx="10" transform="matrix(0.939693 0.34202 0 1 6.30103 154.182)" fill="url(#paint29_linear_135_6173)" fill-opacity="0.8" shape-rendering="crispEdges"/>
<rect x="0.469846" y="0.67101" width="56.9846" height="56.985" rx="9.5" transform="matrix(0.939693 0.34202 0 1 6.32936 154.021)" stroke="url(#paint30_linear_135_6173)" shape-rendering="crispEdges"/>
</g>
<g clip-path="url(#clip4_135_6173)">
<path d="M45.9064 202.523C46.3122 202.67 46.7141 202.902 47.089 203.203C47.4639 203.505 47.8046 203.871 48.0915 204.281C48.3785 204.691 48.6061 205.136 48.7614 205.592C48.9167 206.047 48.9966 206.504 48.9966 206.936V211.869C48.9966 212.3 48.9167 212.699 48.7614 213.041C48.6061 213.384 48.3785 213.663 48.0915 213.864C47.8046 214.065 47.4639 214.184 47.089 214.212C46.7141 214.241 46.3122 214.18 45.9064 214.032L21.1851 205.034C20.7793 204.887 20.3775 204.655 20.0026 204.354C19.6277 204.052 19.287 203.686 19.0001 203.276C18.7131 202.866 18.4855 202.421 18.3302 201.965C18.1749 201.51 18.095 201.053 18.095 200.621V195.689C18.095 195.257 18.1749 194.858 18.3302 194.516C18.4855 194.173 18.7131 193.894 19.0001 193.693C19.287 193.492 19.6277 193.373 20.0026 193.345C20.3775 193.316 20.7793 193.377 21.1851 193.525L45.9064 202.523ZM36.0179 203.363L31.0737 201.563C30.7458 201.444 30.4314 201.468 30.1996 201.63C29.9678 201.793 29.8376 202.08 29.8376 202.429C29.8376 202.778 29.9678 203.16 30.1996 203.491C30.4314 203.822 30.7458 204.075 31.0737 204.194L36.0179 205.994C36.3457 206.113 36.6601 206.089 36.8919 205.927C37.1237 205.764 37.254 205.477 37.254 205.128C37.254 204.779 37.1237 204.397 36.8919 204.066C36.6601 203.735 36.3457 203.482 36.0179 203.363ZM45.9064 189.369C46.3122 189.516 46.7141 189.748 47.089 190.049C47.4639 190.351 47.8046 190.717 48.0915 191.127C48.3785 191.537 48.6061 191.982 48.7614 192.438C48.9167 192.893 48.9966 193.35 48.9966 193.782V198.715C48.9966 199.146 48.9167 199.545 48.7614 199.887C48.6061 200.23 48.3785 200.51 48.0915 200.71C47.8046 200.911 47.4639 201.03 47.089 201.058C46.7141 201.087 46.3122 201.026 45.9064 200.878L21.1851 191.881C20.7793 191.733 20.3775 191.502 20.0026 191.2C19.6277 190.898 19.287 190.532 19.0001 190.122C18.7131 189.712 18.4855 189.267 18.3302 188.811C18.1749 188.356 18.095 187.899 18.095 187.467L18.095 182.535C18.095 182.103 18.1749 181.704 18.3302 181.362C18.4855 181.019 18.7131 180.74 19.0001 180.539C19.287 180.338 19.6277 180.22 20.0026 180.191C20.3775 180.162 20.7793 180.223 21.1851 180.371L45.9064 189.369ZM36.0179 190.209L31.0737 188.409C30.7458 188.29 30.4314 188.314 30.1996 188.477C29.9678 188.639 29.8376 188.926 29.8376 189.275C29.8376 189.624 29.9678 190.006 30.1996 190.337C30.4314 190.668 30.7458 190.921 31.0737 191.04L36.0179 192.84C36.3457 192.959 36.6601 192.935 36.8919 192.773C37.1237 192.61 37.254 192.323 37.254 191.974C37.254 191.625 37.1237 191.243 36.8919 190.912C36.6601 190.581 36.3457 190.328 36.0179 190.209ZM26.4956 174.082L40.596 179.215C41.0492 179.379 41.4968 179.648 41.9072 180.002C42.3176 180.356 42.6807 180.787 42.9708 181.263L45.9064 186.08L21.1851 177.082L24.1208 174.402C24.4108 174.137 24.7739 173.971 25.1843 173.916C25.5947 173.861 26.0424 173.917 26.4956 174.082Z" fill="url(#paint31_linear_135_6173)"/>
</g>
</g>
<g filter="url(#filter11_d_135_6173)">
<rect width="57.9846" height="57.985" rx="13.9164" transform="matrix(0.939693 0.34202 0 1 70.31 177.479)" fill="white" fill-opacity="0.4"/>
<g filter="url(#filter12_bd_135_6173)">
<rect width="57.9846" height="57.985" rx="10" transform="matrix(0.939693 0.34202 0 1 70.31 177.479)" fill="url(#paint32_linear_135_6173)" fill-opacity="0.8" shape-rendering="crispEdges"/>
<rect x="0.469846" y="0.67101" width="56.9846" height="56.985" rx="9.5" transform="matrix(0.939693 0.34202 0 1 70.3383 177.319)" stroke="url(#paint33_linear_135_6173)" shape-rendering="crispEdges"/>
</g>
<path fill-rule="evenodd" clip-rule="evenodd" d="M84.5132 195.199C82.8186 194.582 81.4448 195.555 81.4448 197.371V220.389C81.4448 224.021 84.1923 227.966 87.5815 229.199L107.526 236.458C110.915 237.692 113.663 235.747 113.663 232.115V209.097C113.663 207.281 112.289 205.309 110.594 204.692L84.5132 195.199ZM90.4817 201.887C90.43 201.734 90.3817 201.582 90.3368 201.429L91.8154 201.967C92.1283 202.835 92.5681 203.682 93.1132 204.464C93.6964 205.302 94.3887 206.049 95.1507 206.665C95.9127 207.28 96.7293 207.752 97.5541 208.052C98.3789 208.352 99.1955 208.475 99.9575 208.414C100.719 208.354 101.412 208.11 101.995 207.697C102.54 207.311 102.98 206.785 103.293 206.145L104.771 206.683C104.727 206.803 104.678 206.92 104.627 207.035C104.242 207.89 103.678 208.589 102.967 209.093C102.256 209.596 101.412 209.893 100.484 209.967C99.5548 210.041 98.5594 209.891 97.5541 209.525C96.5488 209.159 95.5534 208.585 94.6246 207.835C93.6958 207.084 92.8519 206.173 92.1411 205.152C91.4303 204.132 90.8664 203.022 90.4817 201.887ZM92.1961 213.048C92.1961 212.594 92.5395 212.351 92.9632 212.505L96.0966 213.646C96.5202 213.8 96.8637 214.293 96.8637 214.747V218.061C96.8637 218.515 96.5202 218.758 96.0966 218.604L92.9632 217.463C92.5395 217.309 92.1961 216.816 92.1961 216.362V213.048ZM99.0115 214.707C98.5879 214.553 98.2444 214.796 98.2444 215.25V218.563C98.2444 219.017 98.5879 219.51 99.0115 219.665L102.145 220.805C102.569 220.959 102.912 220.716 102.912 220.262V216.949C102.912 216.495 102.569 216.001 102.145 215.847L99.0115 214.707ZM92.1961 219.486C92.1961 219.032 92.5395 218.789 92.9632 218.943L96.0966 220.083C96.5202 220.238 96.8637 220.731 96.8637 221.185V224.498C96.8637 224.952 96.5202 225.196 96.0966 225.041L92.9632 223.901C92.5395 223.747 92.1961 223.254 92.1961 222.8V219.486ZM99.0115 221.144C98.5879 220.99 98.2444 221.233 98.2444 221.687V225.001C98.2444 225.455 98.5879 225.948 99.0115 226.102L102.145 227.243C102.569 227.397 102.912 227.154 102.912 226.7V223.386C102.912 222.932 102.569 222.439 102.145 222.285L99.0115 221.144Z" fill="url(#paint34_linear_135_6173)"/>
</g>
<g filter="url(#filter13_d_135_6173)">
<rect width="57.9846" height="57.985" rx="13.9164" transform="matrix(0.939693 0.34202 0 1 134.319 200.777)" fill="white" fill-opacity="0.4"/>
<g filter="url(#filter14_bd_135_6173)">
<rect width="57.9846" height="57.985" rx="10" transform="matrix(0.939693 0.34202 0 1 134.319 200.777)" fill="url(#paint35_linear_135_6173)" fill-opacity="0.8" shape-rendering="crispEdges"/>
<rect x="0.469846" y="0.67101" width="56.9846" height="56.985" rx="9.5" transform="matrix(0.939693 0.34202 0 1 134.347 200.616)" stroke="url(#paint36_linear_135_6173)" shape-rendering="crispEdges"/>
</g>
<path fill-rule="evenodd" clip-rule="evenodd" d="M161.664 221.554C152.224 218.118 144.572 223.476 144.572 233.522C144.572 243.568 152.224 254.497 161.664 257.933C171.104 261.368 178.756 256.01 178.756 245.964C178.756 235.919 171.104 224.99 161.664 221.554ZM149.298 232.952L150.569 232.061C152.676 230.587 156.091 231.83 158.197 234.838L167.095 247.546C164.287 249.512 159.734 247.855 156.926 243.845L149.298 232.952ZM163.282 239.394L164.553 238.504C166.265 237.305 168.842 237.902 170.878 239.784C171.784 240.621 172.775 241.415 173.791 241.646C173.791 241.646 173.024 243.065 172.386 243.825C171.13 245.322 168.366 246.656 168.366 246.656L163.282 239.394Z" fill="url(#paint37_linear_135_6173)"/>
</g>
<g filter="url(#filter15_d_135_6173)">
<rect width="57.9846" height="57.985" rx="13.9164" transform="matrix(0.939693 0.34202 0 1 6.30103 85.8079)" fill="white" fill-opacity="0.4"/>
<g filter="url(#filter16_bd_135_6173)">
<rect width="57.9846" height="57.985" rx="10" transform="matrix(0.939693 0.34202 0 1 6.30103 85.8079)" fill="url(#paint38_linear_135_6173)" fill-opacity="0.8" shape-rendering="crispEdges"/>
<rect x="0.469846" y="0.67101" width="56.9846" height="56.985" rx="9.5" transform="matrix(0.939693 0.34202 0 1 6.32936 85.6472)" stroke="url(#paint39_linear_135_6173)" shape-rendering="crispEdges"/>
</g>
<g clip-path="url(#clip5_135_6173)">
<path d="M47.1173 139.187L41.1013 133.348L34.609 134.931V142.234L47.1173 139.187ZM32.4806 141.459V134.152L25.9855 127.845L19.9723 129.307L32.4806 141.459ZM33.538 132.601L40.0385 131.02V123.134L33.5434 116.83L27.051 118.407V126.297L33.5407 132.601L33.538 132.601ZM18.9122 111.799V126.989L24.9281 125.526L24.9281 117.639L18.9108 111.795L18.9122 111.799ZM45.5373 123.09L42.1655 123.913V131.795L48.1787 137.637V122.445L45.5373 123.09ZM19.9723 110.246L25.9923 116.09L32.4819 114.509V107.203L19.9723 110.246ZM41.1013 121.589L47.12 120.127L34.6062 107.972V115.283L41.1013 121.589Z" fill="url(#paint40_linear_135_6173)"/>
</g>
</g>
<g filter="url(#filter17_d_135_6173)">
<rect width="57.9846" height="57.985" rx="13.9164" transform="matrix(0.939693 0.34202 0 1 70.31 109.105)" fill="white" fill-opacity="0.4"/>
<g filter="url(#filter18_bd_135_6173)">
<rect width="57.9846" height="57.985" rx="10" transform="matrix(0.939693 0.34202 0 1 70.31 109.105)" fill="url(#paint41_linear_135_6173)" fill-opacity="0.8" shape-rendering="crispEdges"/>
<rect x="0.469846" y="0.67101" width="56.9846" height="56.985" rx="9.5" transform="matrix(0.939693 0.34202 0 1 70.3383 108.945)" stroke="url(#paint42_linear_135_6173)" shape-rendering="crispEdges"/>
</g>
<g clip-path="url(#clip6_135_6173)">
<path d="M110.678 163.265C110.678 167.115 104.815 168.098 97.5837 165.467C90.3525 162.835 84.4897 157.583 84.4897 153.733V146.721C85.3113 148.095 86.4783 149.411 87.7763 150.573C90.3493 152.879 93.8192 154.952 97.5837 156.322C101.348 157.692 104.818 158.145 107.391 157.714C108.689 157.495 109.856 157.027 110.678 156.253V163.265Z" fill="url(#paint43_radial_135_6173)"/>
<path d="M97.5837 145.871C101.348 147.241 104.818 147.694 107.391 147.264C108.689 147.045 109.856 146.576 110.678 145.802V152.814C110.678 153.685 107.754 154.522 106.293 154.977C104.127 155.34 101.05 154.971 97.5837 153.709C94.1171 152.448 91.04 150.579 88.8745 148.637C86.9448 146.907 84.4897 144.154 84.4897 143.283V136.27C85.3113 137.644 86.4783 138.961 87.7763 140.123C90.3493 142.428 93.8192 144.501 97.5837 145.871Z" fill="url(#paint44_radial_135_6173)"/>
<path d="M106.293 144.526C104.127 144.89 101.05 144.52 97.5837 143.259C94.1171 141.997 91.04 140.128 88.8745 138.187C88.0316 137.528 86.1363 135.722 84.8187 133.438C84.7078 133.246 84.6273 133.042 84.582 132.84C84.5367 132.637 84.5275 132.44 84.5551 132.26C84.5928 132.016 84.6452 131.769 84.7123 131.628C85.8449 128.807 91.1775 128.299 97.5837 130.631C103.99 132.962 109.322 137.352 110.455 140.997C110.522 141.187 110.575 141.473 110.612 141.744C110.64 141.944 110.63 142.135 110.585 142.304C110.539 142.473 110.458 142.618 110.347 142.729C109.031 144.055 107.136 144.481 106.293 144.526Z" fill="url(#paint45_radial_135_6173)"/>
</g>
</g>
<g filter="url(#filter19_d_135_6173)">
<rect width="57.9846" height="57.985" rx="13.9164" transform="matrix(0.939693 0.34202 0 1 134.319 132.403)" fill="white" fill-opacity="0.4"/>
<g filter="url(#filter20_bd_135_6173)">
<rect width="57.9846" height="57.985" rx="10" transform="matrix(0.939693 0.34202 0 1 134.319 132.403)" fill="url(#paint46_linear_135_6173)" fill-opacity="0.8" shape-rendering="crispEdges"/>
<rect x="0.469846" y="0.67101" width="56.9846" height="56.985" rx="9.5" transform="matrix(0.939693 0.34202 0 1 134.347 132.242)" stroke="url(#paint47_linear_135_6173)" shape-rendering="crispEdges"/>
</g>
<g clip-path="url(#clip7_135_6173)">
<path fill-rule="evenodd" clip-rule="evenodd" d="M167.445 156.258C168.143 156.469 168.835 156.918 169.42 157.538L176.533 165.09C177.221 165.821 177.636 166.789 177.636 167.665V190.759C177.636 192.149 176.608 192.919 175.302 192.505L153.139 185.485C152.333 185.229 151.561 184.56 151.077 183.697L146.181 174.968C145.758 174.214 145.529 173.401 145.529 172.652L145.529 151.277C145.529 150.359 146.202 149.846 147.062 150.105L167.445 156.258ZM166.273 159.276C166.684 159.399 167.227 159.767 167.679 160.23L170.577 163.193C171.226 163.858 171.292 164.435 170.696 164.25L156.1 159.696C155.568 159.531 154.846 158.974 154.38 158.37L152.707 156.206C152.19 155.536 152.25 155.083 152.833 155.257L166.273 159.276ZM163.355 182.06C162.982 181.849 162.744 181.385 162.813 181.003L164.673 170.78C164.748 170.368 165.15 170.213 165.554 170.441L166.391 170.914C166.764 171.125 167.002 171.589 166.933 171.971L165.073 182.194C164.998 182.606 164.596 182.761 164.192 182.533L163.355 182.06ZM160.432 169.666C160.14 169.23 159.63 169.078 159.345 169.343L157.118 171.414L155.286 173.123C155.049 173.344 155.053 173.78 155.295 174.143L157.315 177.176L159.446 180.368C159.737 180.805 160.247 180.957 160.532 180.692L161.184 180.086C161.421 179.865 161.417 179.428 161.175 179.064L158.535 175.109C158.293 174.745 158.289 174.308 158.526 174.087L161.108 171.687C161.345 171.466 161.341 171.029 161.098 170.666L160.432 169.666ZM170.3 172.606L172.537 175.957L174.451 178.831C174.693 179.194 174.697 179.63 174.46 179.851L172.588 181.597L170.401 183.631C170.116 183.896 169.606 183.744 169.314 183.308L168.648 182.308C168.405 181.945 168.401 181.508 168.638 181.287L171.22 178.886C171.457 178.666 171.453 178.229 171.211 177.865L168.571 173.91C168.329 173.546 168.325 173.109 168.562 172.888L169.214 172.282C169.499 172.017 170.009 172.169 170.3 172.606Z" fill="url(#paint48_linear_135_6173)"/>
</g>
</g>
<defs>
<filter id="filter0_bdd_135_6173" x="35.8796" y="-111.785" width="668.191" height="729.13" filterUnits="userSpaceOnUse" color-interpolation-filters="sRGB">
<feFlood flood-opacity="0" result="BackgroundImageFix"/>
<feGaussianBlur in="BackgroundImageFix" stdDeviation="59.1809"/>
<feComposite in2="SourceAlpha" operator="in" result="effect1_backgroundBlur_135_6173"/>
<feColorMatrix in="SourceAlpha" type="matrix" values="0 0 0 0 0 0 0 0 0 0 0 0 0 0 0 0 0 0 127 0" result="hardAlpha"/>
<feOffset/>
<feGaussianBlur stdDeviation="0.676353"/>
<feComposite in2="hardAlpha" operator="out"/>
<feColorMatrix type="matrix" values="0 0 0 0 0.0140803 0 0 0 0 0.079306 0 0 0 0 0.200439 0 0 0 0.08 0"/>
<feBlend mode="normal" in2="effect1_backgroundBlur_135_6173" result="effect2_dropShadow_135_6173"/>
<feColorMatrix in="SourceAlpha" type="matrix" values="0 0 0 0 0 0 0 0 0 0 0 0 0 0 0 0 0 0 127 0" result="hardAlpha"/>
<feMorphology radius="38.8903" operator="erode" in="SourceAlpha" result="effect3_dropShadow_135_6173"/>
<feOffset dy="60.0264"/>
<feGaussianBlur stdDeviation="24.6869"/>
<feComposite in2="hardAlpha" operator="out"/>
<feColorMatrix type="matrix" values="0 0 0 0 0.581374 0 0 0 0 0.682261 0 0 0 0 0.805566 0 0 0 0.1 0"/>
<feBlend mode="normal" in2="effect2_dropShadow_135_6173" result="effect3_dropShadow_135_6173"/>
<feBlend mode="normal" in="SourceGraphic" in2="effect3_dropShadow_135_6173" result="shape"/>
</filter>
<filter id="filter1_bdd_135_6173" x="-14.571" y="-94.2119" width="668.191" height="729.13" filterUnits="userSpaceOnUse" color-interpolation-filters="sRGB">
<feFlood flood-opacity="0" result="BackgroundImageFix"/>
<feGaussianBlur in="BackgroundImageFix" stdDeviation="59.1809"/>
<feComposite in2="SourceAlpha" operator="in" result="effect1_backgroundBlur_135_6173"/>
<feColorMatrix in="SourceAlpha" type="matrix" values="0 0 0 0 0 0 0 0 0 0 0 0 0 0 0 0 0 0 127 0" result="hardAlpha"/>
<feOffset/>
<feGaussianBlur stdDeviation="0.676353"/>
<feComposite in2="hardAlpha" operator="out"/>
<feColorMatrix type="matrix" values="0 0 0 0 0.0140803 0 0 0 0 0.079306 0 0 0 0 0.200439 0 0 0 0.08 0"/>
<feBlend mode="normal" in2="effect1_backgroundBlur_135_6173" result="effect2_dropShadow_135_6173"/>
<feColorMatrix in="SourceAlpha" type="matrix" values="0 0 0 0 0 0 0 0 0 0 0 0 0 0 0 0 0 0 127 0" result="hardAlpha"/>
<feMorphology radius="38.8903" operator="erode" in="SourceAlpha" result="effect3_dropShadow_135_6173"/>
<feOffset dy="60.0264"/>
<feGaussianBlur stdDeviation="24.6869"/>
<feComposite in2="hardAlpha" operator="out"/>
<feColorMatrix type="matrix" values="0 0 0 0 0.581374 0 0 0 0 0.682261 0 0 0 0 0.805566 0 0 0 0.1 0"/>
<feBlend mode="normal" in2="effect2_dropShadow_135_6173" result="effect3_dropShadow_135_6173"/>
<feBlend mode="normal" in="SourceGraphic" in2="effect3_dropShadow_135_6173" result="shape"/>
</filter>
<filter id="filter2_bd_135_6173" x="-64.498" y="-85.0198" width="668.196" height="729.132" filterUnits="userSpaceOnUse" color-interpolation-filters="sRGB">
<feFlood flood-opacity="0" result="BackgroundImageFix"/>
<feGaussianBlur in="BackgroundImageFix" stdDeviation="59.1809"/>
<feComposite in2="SourceAlpha" operator="in" result="effect1_backgroundBlur_135_6173"/>
<feColorMatrix in="SourceAlpha" type="matrix" values="0 0 0 0 0 0 0 0 0 0 0 0 0 0 0 0 0 0 127 0" result="hardAlpha"/>
<feOffset/>
<feGaussianBlur stdDeviation="0.676353"/>
<feComposite in2="hardAlpha" operator="out"/>
<feColorMatrix type="matrix" values="0 0 0 0 0.0140803 0 0 0 0 0.079306 0 0 0 0 0.200439 0 0 0 0.08 0"/>
<feBlend mode="normal" in2="effect1_backgroundBlur_135_6173" result="effect2_dropShadow_135_6173"/>
<feBlend mode="normal" in="SourceGraphic" in2="effect2_dropShadow_135_6173" result="shape"/>
</filter>
<filter id="filter3_bd_135_6173" x="181.327" y="34.0386" width="393.385" height="363.067" filterUnits="userSpaceOnUse" color-interpolation-filters="sRGB">
<feFlood flood-opacity="0" result="BackgroundImageFix"/>
<feGaussianBlur in="BackgroundImageFix" stdDeviation="59.1809"/>
<feComposite in2="SourceAlpha" operator="in" result="effect1_backgroundBlur_135_6173"/>
<feColorMatrix in="SourceAlpha" type="matrix" values="0 0 0 0 0 0 0 0 0 0 0 0 0 0 0 0 0 0 127 0" result="hardAlpha"/>
<feOffset/>
<feGaussianBlur stdDeviation="0.676353"/>
<feComposite in2="hardAlpha" operator="out"/>
<feColorMatrix type="matrix" values="0 0 0 0 0.0140803 0 0 0 0 0.079306 0 0 0 0 0.200439 0 0 0 0.08 0"/>
<feBlend mode="normal" in2="effect1_backgroundBlur_135_6173" result="effect2_dropShadow_135_6173"/>
<feBlend mode="normal" in="SourceGraphic" in2="effect2_dropShadow_135_6173" result="shape"/>
</filter>
<filter id="filter4_bd_135_6173" x="195.563" y="137.24" width="281.533" height="318.377" filterUnits="userSpaceOnUse" color-interpolation-filters="sRGB">
<feFlood flood-opacity="0" result="BackgroundImageFix"/>
<feGaussianBlur in="BackgroundImageFix" stdDeviation="52.0309"/>
<feComposite in2="SourceAlpha" operator="in" result="effect1_backgroundBlur_135_6173"/>
<feColorMatrix in="SourceAlpha" type="matrix" values="0 0 0 0 0 0 0 0 0 0 0 0 0 0 0 0 0 0 127 0" result="hardAlpha"/>
<feOffset/>
<feGaussianBlur stdDeviation="0.594639"/>
<feComposite in2="hardAlpha" operator="out"/>
<feColorMatrix type="matrix" values="0 0 0 0 0.0140803 0 0 0 0 0.079306 0 0 0 0 0.200439 0 0 0 0.08 0"/>
<feBlend mode="normal" in2="effect1_backgroundBlur_135_6173" result="effect2_dropShadow_135_6173"/>
<feBlend mode="normal" in="SourceGraphic" in2="effect2_dropShadow_135_6173" result="shape"/>
</filter>
<filter id="filter5_bd_135_6173" x="279.005" y="167.61" width="281.533" height="318.377" filterUnits="userSpaceOnUse" color-interpolation-filters="sRGB">
<feFlood flood-opacity="0" result="BackgroundImageFix"/>
<feGaussianBlur in="BackgroundImageFix" stdDeviation="52.0309"/>
<feComposite in2="SourceAlpha" operator="in" result="effect1_backgroundBlur_135_6173"/>
<feColorMatrix in="SourceAlpha" type="matrix" values="0 0 0 0 0 0 0 0 0 0 0 0 0 0 0 0 0 0 127 0" result="hardAlpha"/>
<feOffset/>
<feGaussianBlur stdDeviation="0.594639"/>
<feComposite in2="hardAlpha" operator="out"/>
<feColorMatrix type="matrix" values="0 0 0 0 0.0140803 0 0 0 0 0.079306 0 0 0 0 0.200439 0 0 0 0.08 0"/>
<feBlend mode="normal" in2="effect1_backgroundBlur_135_6173" result="effect2_dropShadow_135_6173"/>
<feBlend mode="normal" in="SourceGraphic" in2="effect2_dropShadow_135_6173" result="shape"/>
</filter>
<filter id="filter6_bd_135_6173" x="195.563" y="238.492" width="281.533" height="318.377" filterUnits="userSpaceOnUse" color-interpolation-filters="sRGB">
<feFlood flood-opacity="0" result="BackgroundImageFix"/>
<feGaussianBlur in="BackgroundImageFix" stdDeviation="52.0309"/>
<feComposite in2="SourceAlpha" operator="in" result="effect1_backgroundBlur_135_6173"/>
<feColorMatrix in="SourceAlpha" type="matrix" values="0 0 0 0 0 0 0 0 0 0 0 0 0 0 0 0 0 0 127 0" result="hardAlpha"/>
<feOffset/>
<feGaussianBlur stdDeviation="0.594639"/>
<feComposite in2="hardAlpha" operator="out"/>
<feColorMatrix type="matrix" values="0 0 0 0 0.0140803 0 0 0 0 0.079306 0 0 0 0 0.200439 0 0 0 0.08 0"/>
<feBlend mode="normal" in2="effect1_backgroundBlur_135_6173" result="effect2_dropShadow_135_6173"/>
<feBlend mode="normal" in="SourceGraphic" in2="effect2_dropShadow_135_6173" result="shape"/>
</filter>
<filter id="filter7_bd_135_6173" x="279.005" y="268.862" width="281.533" height="318.377" filterUnits="userSpaceOnUse" color-interpolation-filters="sRGB">
<feFlood flood-opacity="0" result="BackgroundImageFix"/>
<feGaussianBlur in="BackgroundImageFix" stdDeviation="52.0309"/>
<feComposite in2="SourceAlpha" operator="in" result="effect1_backgroundBlur_135_6173"/>
<feColorMatrix in="SourceAlpha" type="matrix" values="0 0 0 0 0 0 0 0 0 0 0 0 0 0 0 0 0 0 127 0" result="hardAlpha"/>
<feOffset/>
<feGaussianBlur stdDeviation="0.594639"/>
<feComposite in2="hardAlpha" operator="out"/>
<feColorMatrix type="matrix" values="0 0 0 0 0.0140803 0 0 0 0 0.079306 0 0 0 0 0.200439 0 0 0 0.08 0"/>
<feBlend mode="normal" in2="effect1_backgroundBlur_135_6173" result="effect2_dropShadow_135_6173"/>
<feBlend mode="normal" in="SourceGraphic" in2="effect2_dropShadow_135_6173" result="shape"/>
</filter>
<filter id="filter8_d_135_6173" x="191.097" y="286.344" width="32.9711" height="34.9678" filterUnits="userSpaceOnUse" color-interpolation-filters="sRGB">
<feFlood flood-opacity="0" result="BackgroundImageFix"/>
<feColorMatrix in="SourceAlpha" type="matrix" values="0 0 0 0 0 0 0 0 0 0 0 0 0 0 0 0 0 0 127 0" result="hardAlpha"/>
<feOffset dy="1.69981"/>
<feGaussianBlur stdDeviation="4.24953"/>
<feColorMatrix type="matrix" values="0 0 0 0 0 0 0 0 0 0 0 0 0 0 0 0 0 0 0.1 0"/>
<feBlend mode="normal" in2="BackgroundImageFix" result="effect1_dropShadow_135_6173"/>
<feBlend mode="normal" in="SourceGraphic" in2="effect1_dropShadow_135_6173" result="shape"/>
</filter>
<filter id="filter9_d_135_6173" x="6.30103" y="154.182" width="153.277" height="94.1219" filterUnits="userSpaceOnUse" color-interpolation-filters="sRGB">
<feFlood flood-opacity="0" result="BackgroundImageFix"/>
<feColorMatrix in="SourceAlpha" type="matrix" values="0 0 0 0 0 0 0 0 0 0 0 0 0 0 0 0 0 0 127 0" result="hardAlpha"/>
<feOffset dx="93.0344" dy="10.5503"/>
<feGaussianBlur stdDeviation="2.87735"/>
<feComposite in2="hardAlpha" operator="out"/>
<feColorMatrix type="matrix" values="0 0 0 0 0.335851 0 0 0 0 0.432733 0 0 0 0 0.620443 0 0 0 0.06 0"/>
<feBlend mode="normal" in2="BackgroundImageFix" result="effect1_dropShadow_135_6173"/>
<feBlend mode="normal" in="SourceGraphic" in2="effect1_dropShadow_135_6173" result="shape"/>
</filter>
<filter id="filter10_bd_135_6173" x="-74.8777" y="75.8518" width="216.845" height="234.477" filterUnits="userSpaceOnUse" color-interpolation-filters="sRGB">
<feFlood flood-opacity="0" result="BackgroundImageFix"/>
<feGaussianBlur in="BackgroundImageFix" stdDeviation="40.5894"/>
<feComposite in2="SourceAlpha" operator="in" result="effect1_backgroundBlur_135_6173"/>
<feColorMatrix in="SourceAlpha" type="matrix" values="0 0 0 0 0 0 0 0 0 0 0 0 0 0 0 0 0 0 127 0" result="hardAlpha"/>
<feOffset dx="2" dy="2"/>
<feGaussianBlur stdDeviation="4"/>
<feComposite in2="hardAlpha" operator="out"/>
<feColorMatrix type="matrix" values="0 0 0 0 0.0307821 0 0 0 0 0.2474 0 0 0 0 0.649691 0 0 0 0.08 0"/>
<feBlend mode="normal" in2="effect1_backgroundBlur_135_6173" result="effect2_dropShadow_135_6173"/>
<feBlend mode="normal" in="SourceGraphic" in2="effect2_dropShadow_135_6173" result="shape"/>
</filter>
<filter id="filter11_d_135_6173" x="70.31" y="177.479" width="153.277" height="94.1219" filterUnits="userSpaceOnUse" color-interpolation-filters="sRGB">
<feFlood flood-opacity="0" result="BackgroundImageFix"/>
<feColorMatrix in="SourceAlpha" type="matrix" values="0 0 0 0 0 0 0 0 0 0 0 0 0 0 0 0 0 0 127 0" result="hardAlpha"/>
<feOffset dx="93.0344" dy="10.5503"/>
<feGaussianBlur stdDeviation="2.87735"/>
<feComposite in2="hardAlpha" operator="out"/>
<feColorMatrix type="matrix" values="0 0 0 0 0.335851 0 0 0 0 0.432733 0 0 0 0 0.620443 0 0 0 0.06 0"/>
<feBlend mode="normal" in2="BackgroundImageFix" result="effect1_dropShadow_135_6173"/>
<feBlend mode="normal" in="SourceGraphic" in2="effect1_dropShadow_135_6173" result="shape"/>
</filter>
<filter id="filter12_bd_135_6173" x="-10.8687" y="99.1492" width="216.845" height="234.477" filterUnits="userSpaceOnUse" color-interpolation-filters="sRGB">
<feFlood flood-opacity="0" result="BackgroundImageFix"/>
<feGaussianBlur in="BackgroundImageFix" stdDeviation="40.5894"/>
<feComposite in2="SourceAlpha" operator="in" result="effect1_backgroundBlur_135_6173"/>
<feColorMatrix in="SourceAlpha" type="matrix" values="0 0 0 0 0 0 0 0 0 0 0 0 0 0 0 0 0 0 127 0" result="hardAlpha"/>
<feOffset dx="2" dy="2"/>
<feGaussianBlur stdDeviation="4"/>
<feComposite in2="hardAlpha" operator="out"/>
<feColorMatrix type="matrix" values="0 0 0 0 0.0307821 0 0 0 0 0.2474 0 0 0 0 0.649691 0 0 0 0.08 0"/>
<feBlend mode="normal" in2="effect1_backgroundBlur_135_6173" result="effect2_dropShadow_135_6173"/>
<feBlend mode="normal" in="SourceGraphic" in2="effect2_dropShadow_135_6173" result="shape"/>
</filter>
<filter id="filter13_d_135_6173" x="134.319" y="200.777" width="153.277" height="94.1219" filterUnits="userSpaceOnUse" color-interpolation-filters="sRGB">
<feFlood flood-opacity="0" result="BackgroundImageFix"/>
<feColorMatrix in="SourceAlpha" type="matrix" values="0 0 0 0 0 0 0 0 0 0 0 0 0 0 0 0 0 0 127 0" result="hardAlpha"/>
<feOffset dx="93.0344" dy="10.5503"/>
<feGaussianBlur stdDeviation="2.87735"/>
<feComposite in2="hardAlpha" operator="out"/>
<feColorMatrix type="matrix" values="0 0 0 0 0.335851 0 0 0 0 0.432733 0 0 0 0 0.620443 0 0 0 0.06 0"/>
<feBlend mode="normal" in2="BackgroundImageFix" result="effect1_dropShadow_135_6173"/>
<feBlend mode="normal" in="SourceGraphic" in2="effect1_dropShadow_135_6173" result="shape"/>
</filter>
<filter id="filter14_bd_135_6173" x="53.1403" y="122.447" width="216.845" height="234.477" filterUnits="userSpaceOnUse" color-interpolation-filters="sRGB">
<feFlood flood-opacity="0" result="BackgroundImageFix"/>
<feGaussianBlur in="BackgroundImageFix" stdDeviation="40.5894"/>
<feComposite in2="SourceAlpha" operator="in" result="effect1_backgroundBlur_135_6173"/>
<feColorMatrix in="SourceAlpha" type="matrix" values="0 0 0 0 0 0 0 0 0 0 0 0 0 0 0 0 0 0 127 0" result="hardAlpha"/>
<feOffset dx="2" dy="2"/>
<feGaussianBlur stdDeviation="4"/>
<feComposite in2="hardAlpha" operator="out"/>
<feColorMatrix type="matrix" values="0 0 0 0 0.0307821 0 0 0 0 0.2474 0 0 0 0 0.649691 0 0 0 0.08 0"/>
<feBlend mode="normal" in2="effect1_backgroundBlur_135_6173" result="effect2_dropShadow_135_6173"/>
<feBlend mode="normal" in="SourceGraphic" in2="effect2_dropShadow_135_6173" result="shape"/>
</filter>
<filter id="filter15_d_135_6173" x="6.30103" y="85.8079" width="153.277" height="94.1219" filterUnits="userSpaceOnUse" color-interpolation-filters="sRGB">
<feFlood flood-opacity="0" result="BackgroundImageFix"/>
<feColorMatrix in="SourceAlpha" type="matrix" values="0 0 0 0 0 0 0 0 0 0 0 0 0 0 0 0 0 0 127 0" result="hardAlpha"/>
<feOffset dx="93.0344" dy="10.5503"/>
<feGaussianBlur stdDeviation="2.87735"/>
<feComposite in2="hardAlpha" operator="out"/>
<feColorMatrix type="matrix" values="0 0 0 0 0.335851 0 0 0 0 0.432733 0 0 0 0 0.620443 0 0 0 0.06 0"/>
<feBlend mode="normal" in2="BackgroundImageFix" result="effect1_dropShadow_135_6173"/>
<feBlend mode="normal" in="SourceGraphic" in2="effect1_dropShadow_135_6173" result="shape"/>
</filter>
<filter id="filter16_bd_135_6173" x="-74.8777" y="7.47779" width="216.845" height="234.477" filterUnits="userSpaceOnUse" color-interpolation-filters="sRGB">
<feFlood flood-opacity="0" result="BackgroundImageFix"/>
<feGaussianBlur in="BackgroundImageFix" stdDeviation="40.5894"/>
<feComposite in2="SourceAlpha" operator="in" result="effect1_backgroundBlur_135_6173"/>
<feColorMatrix in="SourceAlpha" type="matrix" values="0 0 0 0 0 0 0 0 0 0 0 0 0 0 0 0 0 0 127 0" result="hardAlpha"/>
<feOffset dx="2" dy="2"/>
<feGaussianBlur stdDeviation="4"/>
<feComposite in2="hardAlpha" operator="out"/>
<feColorMatrix type="matrix" values="0 0 0 0 0.0307821 0 0 0 0 0.2474 0 0 0 0 0.649691 0 0 0 0.08 0"/>
<feBlend mode="normal" in2="effect1_backgroundBlur_135_6173" result="effect2_dropShadow_135_6173"/>
<feBlend mode="normal" in="SourceGraphic" in2="effect2_dropShadow_135_6173" result="shape"/>
</filter>
<filter id="filter17_d_135_6173" x="70.31" y="109.105" width="153.277" height="94.1219" filterUnits="userSpaceOnUse" color-interpolation-filters="sRGB">
<feFlood flood-opacity="0" result="BackgroundImageFix"/>
<feColorMatrix in="SourceAlpha" type="matrix" values="0 0 0 0 0 0 0 0 0 0 0 0 0 0 0 0 0 0 127 0" result="hardAlpha"/>
<feOffset dx="93.0344" dy="10.5503"/>
<feGaussianBlur stdDeviation="2.87735"/>
<feComposite in2="hardAlpha" operator="out"/>
<feColorMatrix type="matrix" values="0 0 0 0 0.335851 0 0 0 0 0.432733 0 0 0 0 0.620443 0 0 0 0.06 0"/>
<feBlend mode="normal" in2="BackgroundImageFix" result="effect1_dropShadow_135_6173"/>
<feBlend mode="normal" in="SourceGraphic" in2="effect1_dropShadow_135_6173" result="shape"/>
</filter>
<filter id="filter18_bd_135_6173" x="-10.8687" y="30.7752" width="216.845" height="234.477" filterUnits="userSpaceOnUse" color-interpolation-filters="sRGB">
<feFlood flood-opacity="0" result="BackgroundImageFix"/>
<feGaussianBlur in="BackgroundImageFix" stdDeviation="40.5894"/>
<feComposite in2="SourceAlpha" operator="in" result="effect1_backgroundBlur_135_6173"/>
<feColorMatrix in="SourceAlpha" type="matrix" values="0 0 0 0 0 0 0 0 0 0 0 0 0 0 0 0 0 0 127 0" result="hardAlpha"/>
<feOffset dx="2" dy="2"/>
<feGaussianBlur stdDeviation="4"/>
<feComposite in2="hardAlpha" operator="out"/>
<feColorMatrix type="matrix" values="0 0 0 0 0.0307821 0 0 0 0 0.2474 0 0 0 0 0.649691 0 0 0 0.08 0"/>
<feBlend mode="normal" in2="effect1_backgroundBlur_135_6173" result="effect2_dropShadow_135_6173"/>
<feBlend mode="normal" in="SourceGraphic" in2="effect2_dropShadow_135_6173" result="shape"/>
</filter>
<filter id="filter19_d_135_6173" x="134.319" y="132.403" width="153.277" height="94.1219" filterUnits="userSpaceOnUse" color-interpolation-filters="sRGB">
<feFlood flood-opacity="0" result="BackgroundImageFix"/>
<feColorMatrix in="SourceAlpha" type="matrix" values="0 0 0 0 0 0 0 0 0 0 0 0 0 0 0 0 0 0 127 0" result="hardAlpha"/>
<feOffset dx="93.0344" dy="10.5503"/>
<feGaussianBlur stdDeviation="2.87735"/>
<feComposite in2="hardAlpha" operator="out"/>
<feColorMatrix type="matrix" values="0 0 0 0 0.335851 0 0 0 0 0.432733 0 0 0 0 0.620443 0 0 0 0.06 0"/>
<feBlend mode="normal" in2="BackgroundImageFix" result="effect1_dropShadow_135_6173"/>
<feBlend mode="normal" in="SourceGraphic" in2="effect1_dropShadow_135_6173" result="shape"/>
</filter>
<filter id="filter20_bd_135_6173" x="53.1403" y="54.0728" width="216.845" height="234.477" filterUnits="userSpaceOnUse" color-interpolation-filters="sRGB">
<feFlood flood-opacity="0" result="BackgroundImageFix"/>
<feGaussianBlur in="BackgroundImageFix" stdDeviation="40.5894"/>
<feComposite in2="SourceAlpha" operator="in" result="effect1_backgroundBlur_135_6173"/>
<feColorMatrix in="SourceAlpha" type="matrix" values="0 0 0 0 0 0 0 0 0 0 0 0 0 0 0 0 0 0 127 0" result="hardAlpha"/>
<feOffset dx="2" dy="2"/>
<feGaussianBlur stdDeviation="4"/>
<feComposite in2="hardAlpha" operator="out"/>
<feColorMatrix type="matrix" values="0 0 0 0 0.0307821 0 0 0 0 0.2474 0 0 0 0 0.649691 0 0 0 0.08 0"/>
<feBlend mode="normal" in2="effect1_backgroundBlur_135_6173" result="effect2_dropShadow_135_6173"/>
<feBlend mode="normal" in="SourceGraphic" in2="effect2_dropShadow_135_6173" result="shape"/>
</filter>
<linearGradient id="paint0_linear_135_6173" x1="459.158" y1="173.463" x2="-1.03278e-05" y2="173.462" gradientUnits="userSpaceOnUse">
<stop stop-color="white" stop-opacity="0.8"/>
<stop offset="1" stop-color="white"/>
</linearGradient>
<linearGradient id="paint1_linear_135_6173" x1="459.158" y1="173.463" x2="-1.03278e-05" y2="173.462" gradientUnits="userSpaceOnUse">
<stop stop-color="white" stop-opacity="0.8"/>
<stop offset="1" stop-color="white"/>
</linearGradient>
<linearGradient id="paint2_linear_135_6173" x1="459.163" y1="193.976" x2="193.118" y2="-47.1745" gradientUnits="userSpaceOnUse">
<stop stop-color="white"/>
<stop offset="1" stop-color="white" stop-opacity="0.7"/>
</linearGradient>
<linearGradient id="paint3_linear_135_6173" x1="459.163" y1="173.463" x2="-1.03279e-05" y2="173.462" gradientUnits="userSpaceOnUse">
<stop stop-color="white" stop-opacity="0.8"/>
<stop offset="1" stop-color="white"/>
</linearGradient>
<linearGradient id="paint4_linear_135_6173" x1="169.525" y1="40.6569" x2="0.044232" y2="44.075" gradientUnits="userSpaceOnUse">
<stop stop-color="#E5EDF8"/>
<stop offset="1" stop-color="#ECF3FB"/>
</linearGradient>
<linearGradient id="paint5_linear_135_6173" x1="-6.92061e-07" y1="18.949" x2="20.9303" y2="39.5042" gradientUnits="userSpaceOnUse">
<stop stop-color="white" stop-opacity="0.6"/>
<stop offset="1" stop-color="white"/>
</linearGradient>
<linearGradient id="paint6_linear_135_6173" x1="384.492" y1="208.46" x2="378.064" y2="226.12" gradientUnits="userSpaceOnUse">
<stop stop-color="#1A335F" stop-opacity="0.5"/>
<stop offset="1" stop-color="#1A335F" stop-opacity="0.8"/>
</linearGradient>
<linearGradient id="paint7_linear_135_6173" x1="79.4368" y1="47.9721" x2="-0.00648053" y2="48.6084" gradientUnits="userSpaceOnUse">
<stop stop-color="#E5EDF8"/>
<stop offset="1" stop-color="#ECF3FB"/>
</linearGradient>
<linearGradient id="paint8_linear_135_6173" x1="315.964" y1="268.972" x2="312.829" y2="277.586" gradientUnits="userSpaceOnUse">
<stop stop-color="#5B7095" stop-opacity="0.6"/>
<stop offset="1" stop-color="#5B7095" stop-opacity="0.9"/>
</linearGradient>
<linearGradient id="paint9_linear_135_6173" x1="334.561" y1="274.119" x2="330.383" y2="285.598" gradientUnits="userSpaceOnUse">
<stop stop-color="#5B7095" stop-opacity="0.6"/>
<stop offset="1" stop-color="#5B7095" stop-opacity="0.9"/>
</linearGradient>
<linearGradient id="paint10_linear_135_6173" x1="329.05" y1="288.832" x2="320.373" y2="312.674" gradientUnits="userSpaceOnUse">
<stop stop-color="#1A335F" stop-opacity="0.5"/>
<stop offset="1" stop-color="#1A335F" stop-opacity="0.8"/>
</linearGradient>
<linearGradient id="paint11_linear_135_6173" x1="79.4368" y1="47.9721" x2="-0.00648053" y2="48.6084" gradientUnits="userSpaceOnUse">
<stop stop-color="#E5EDF8"/>
<stop offset="1" stop-color="#ECF3FB"/>
</linearGradient>
<linearGradient id="paint12_linear_135_6173" x1="399.407" y1="299.574" x2="396.42" y2="307.78" gradientUnits="userSpaceOnUse">
<stop stop-color="#5B7095" stop-opacity="0.6"/>
<stop offset="1" stop-color="#5B7095" stop-opacity="0.9"/>
</linearGradient>
<linearGradient id="paint13_linear_135_6173" x1="399.407" y1="299.574" x2="396.42" y2="307.78" gradientUnits="userSpaceOnUse">
<stop stop-color="#5B7095" stop-opacity="0.6"/>
<stop offset="1" stop-color="#5B7095" stop-opacity="0.9"/>
</linearGradient>
<linearGradient id="paint14_linear_135_6173" x1="399.407" y1="299.574" x2="396.42" y2="307.78" gradientUnits="userSpaceOnUse">
<stop stop-color="#5B7095" stop-opacity="0.6"/>
<stop offset="1" stop-color="#5B7095" stop-opacity="0.9"/>
</linearGradient>
<linearGradient id="paint15_linear_135_6173" x1="425.521" y1="307.226" x2="421.343" y2="318.705" gradientUnits="userSpaceOnUse">
<stop stop-color="#5B7095" stop-opacity="0.6"/>
<stop offset="1" stop-color="#5B7095" stop-opacity="0.9"/>
</linearGradient>
<linearGradient id="paint16_linear_135_6173" x1="415.312" y1="320.229" x2="406.634" y2="344.071" gradientUnits="userSpaceOnUse">
<stop stop-color="#1A335F" stop-opacity="0.5"/>
<stop offset="1" stop-color="#1A335F" stop-opacity="0.8"/>
</linearGradient>
<linearGradient id="paint17_linear_135_6173" x1="79.4368" y1="47.9721" x2="-0.00648053" y2="48.6084" gradientUnits="userSpaceOnUse">
<stop stop-color="#E5EDF8"/>
<stop offset="1" stop-color="#ECF3FB"/>
</linearGradient>
<linearGradient id="paint18_linear_135_6173" x1="315.964" y1="371.037" x2="313.277" y2="378.42" gradientUnits="userSpaceOnUse">
<stop stop-color="#5B7095" stop-opacity="0.6"/>
<stop offset="1" stop-color="#5B7095" stop-opacity="0.9"/>
</linearGradient>
<linearGradient id="paint19_linear_135_6173" x1="341.608" y1="378.051" x2="337.43" y2="389.53" gradientUnits="userSpaceOnUse">
<stop stop-color="#5B7095" stop-opacity="0.6"/>
<stop offset="1" stop-color="#5B7095" stop-opacity="0.9"/>
</linearGradient>
<linearGradient id="paint20_linear_135_6173" x1="336.098" y1="392.764" x2="327.42" y2="416.606" gradientUnits="userSpaceOnUse">
<stop stop-color="#1A335F" stop-opacity="0.5"/>
<stop offset="1" stop-color="#1A335F" stop-opacity="0.8"/>
</linearGradient>
<linearGradient id="paint21_linear_135_6173" x1="79.4368" y1="47.9721" x2="-0.00648053" y2="48.6084" gradientUnits="userSpaceOnUse">
<stop stop-color="#E5EDF8"/>
<stop offset="1" stop-color="#ECF3FB"/>
</linearGradient>
<linearGradient id="paint22_linear_135_6173" x1="399.407" y1="401.095" x2="396.64" y2="408.696" gradientUnits="userSpaceOnUse">
<stop stop-color="#5B7095" stop-opacity="0.6"/>
<stop offset="1" stop-color="#5B7095" stop-opacity="0.9"/>
</linearGradient>
<linearGradient id="paint23_linear_135_6173" x1="422.232" y1="407.395" x2="418.054" y2="418.875" gradientUnits="userSpaceOnUse">
<stop stop-color="#5B7095" stop-opacity="0.6"/>
<stop offset="1" stop-color="#5B7095" stop-opacity="0.9"/>
</linearGradient>
<linearGradient id="paint24_linear_135_6173" x1="420.48" y1="423.477" x2="411.802" y2="447.319" gradientUnits="userSpaceOnUse">
<stop stop-color="#1A335F" stop-opacity="0.5"/>
<stop offset="1" stop-color="#1A335F" stop-opacity="0.8"/>
</linearGradient>
<linearGradient id="paint25_linear_135_6173" x1="180.748" y1="281.142" x2="148.079" y2="370.901" gradientUnits="userSpaceOnUse">
<stop stop-color="#18E6A6" stop-opacity="0.3"/>
<stop offset="1" stop-color="#9FFFE1" stop-opacity="0"/>
</linearGradient>
<linearGradient id="paint26_linear_135_6173" x1="180.908" y1="281.2" x2="164.409" y2="326.53" gradientUnits="userSpaceOnUse">
<stop stop-color="#54E6B9"/>
<stop offset="1" stop-color="#18E6A6"/>
</linearGradient>
<linearGradient id="paint27_linear_135_6173" x1="207.583" y1="268.472" x2="167.702" y2="378.043" gradientUnits="userSpaceOnUse">
<stop stop-color="#18E6A6" stop-opacity="0.15"/>
<stop offset="1" stop-color="#9FFFE1"/>
</linearGradient>
<linearGradient id="paint28_linear_135_6173" x1="8.49905" y1="0" x2="8.49905" y2="16.9981" gradientUnits="userSpaceOnUse">
<stop stop-color="#95E5FD"/>
<stop offset="1" stop-color="#38CAF6"/>
</linearGradient>
<linearGradient id="paint29_linear_135_6173" x1="28.9923" y1="0" x2="28.9923" y2="57.985" gradientUnits="userSpaceOnUse">
<stop stop-color="white"/>
<stop offset="1" stop-color="white"/>
</linearGradient>
<linearGradient id="paint30_linear_135_6173" x1="57.9846" y1="52.5761" x2="18.2696" y2="30.3254" gradientUnits="userSpaceOnUse">
<stop stop-color="#E8EFFB"/>
<stop offset="1" stop-color="white"/>
</linearGradient>
<linearGradient id="paint31_linear_135_6173" x1="18.095" y1="203.91" x2="50.4169" y2="184.657" gradientUnits="userSpaceOnUse">
<stop stop-color="#B650F4"/>
<stop offset="1" stop-color="#CD7BFF"/>
</linearGradient>
<linearGradient id="paint32_linear_135_6173" x1="28.9923" y1="0" x2="28.9923" y2="57.985" gradientUnits="userSpaceOnUse">
<stop stop-color="white"/>
<stop offset="1" stop-color="white"/>
</linearGradient>
<linearGradient id="paint33_linear_135_6173" x1="57.9846" y1="52.5761" x2="18.2696" y2="30.3254" gradientUnits="userSpaceOnUse">
<stop stop-color="#E8EFFB"/>
<stop offset="1" stop-color="white"/>
</linearGradient>
<linearGradient id="paint34_linear_135_6173" x1="81.4448" y1="226.966" x2="114.254" y2="206.77" gradientUnits="userSpaceOnUse">
<stop stop-color="#278BFF"/>
<stop offset="1" stop-color="#4E9FFF"/>
</linearGradient>
<linearGradient id="paint35_linear_135_6173" x1="28.9923" y1="0" x2="28.9923" y2="57.985" gradientUnits="userSpaceOnUse">
<stop stop-color="white"/>
<stop offset="1" stop-color="white"/>
</linearGradient>
<linearGradient id="paint36_linear_135_6173" x1="57.9846" y1="52.5761" x2="18.2696" y2="30.3254" gradientUnits="userSpaceOnUse">
<stop stop-color="#E8EFFB"/>
<stop offset="1" stop-color="white"/>
</linearGradient>
<linearGradient id="paint37_linear_135_6173" x1="161.664" y1="221.554" x2="149.972" y2="253.677" gradientUnits="userSpaceOnUse">
<stop stop-color="#00D7BD"/>
<stop offset="1" stop-color="#00C7B0"/>
</linearGradient>
<linearGradient id="paint38_linear_135_6173" x1="28.9923" y1="0" x2="28.9923" y2="57.985" gradientUnits="userSpaceOnUse">
<stop stop-color="white"/>
<stop offset="1" stop-color="white"/>
</linearGradient>
<linearGradient id="paint39_linear_135_6173" x1="57.9846" y1="52.5761" x2="18.2696" y2="30.3254" gradientUnits="userSpaceOnUse">
<stop stop-color="#E8EFFB"/>
<stop offset="1" stop-color="white"/>
</linearGradient>
<linearGradient id="paint40_linear_135_6173" x1="18.9108" y1="136.52" x2="51.3308" y2="118.622" gradientUnits="userSpaceOnUse">
<stop stop-color="#2287FF"/>
<stop offset="1" stop-color="#4E9DFA"/>
</linearGradient>
<linearGradient id="paint41_linear_135_6173" x1="28.9923" y1="0" x2="28.9923" y2="57.985" gradientUnits="userSpaceOnUse">
<stop stop-color="white"/>
<stop offset="1" stop-color="white"/>
</linearGradient>
<linearGradient id="paint42_linear_135_6173" x1="57.9846" y1="52.5761" x2="18.2696" y2="30.3254" gradientUnits="userSpaceOnUse">
<stop stop-color="#E8EFFB"/>
<stop offset="1" stop-color="white"/>
</linearGradient>
<radialGradient id="paint43_radial_135_6173" cx="0" cy="0" r="1" gradientUnits="userSpaceOnUse" gradientTransform="translate(84.4897 160.701) rotate(-39.8554) scale(37.8545 57.8878)">
<stop stop-color="#625FFF"/>
<stop offset="1" stop-color="#7886FF"/>
</radialGradient>
<radialGradient id="paint44_radial_135_6173" cx="0" cy="0" r="1" gradientUnits="userSpaceOnUse" gradientTransform="translate(84.4897 160.701) rotate(-39.8554) scale(37.8545 57.8878)">
<stop stop-color="#625FFF"/>
<stop offset="1" stop-color="#7886FF"/>
</radialGradient>
<radialGradient id="paint45_radial_135_6173" cx="0" cy="0" r="1" gradientUnits="userSpaceOnUse" gradientTransform="translate(84.4897 160.701) rotate(-39.8554) scale(37.8545 57.8878)">
<stop stop-color="#625FFF"/>
<stop offset="1" stop-color="#7886FF"/>
</radialGradient>
<linearGradient id="paint46_linear_135_6173" x1="28.9923" y1="0" x2="28.9923" y2="57.985" gradientUnits="userSpaceOnUse">
<stop stop-color="white"/>
<stop offset="1" stop-color="white"/>
</linearGradient>
<linearGradient id="paint47_linear_135_6173" x1="57.9846" y1="52.5761" x2="18.2696" y2="30.3254" gradientUnits="userSpaceOnUse">
<stop stop-color="#E8EFFB"/>
<stop offset="1" stop-color="white"/>
</linearGradient>
<linearGradient id="paint48_linear_135_6173" x1="161.315" y1="152.348" x2="141.025" y2="178.19" gradientUnits="userSpaceOnUse">
<stop stop-color="#213654"/>
<stop offset="1" stop-color="#0F1D32"/>
</linearGradient>
<clipPath id="clip0_135_6173">
<rect width="11.1481" height="11.1481" fill="white" transform="matrix(0.939693 0.34202 0 1 310.726 266.37)"/>
</clipPath>
<clipPath id="clip1_135_6173">
<rect width="11.1481" height="11.1481" fill="white" transform="matrix(0.939693 0.34202 0 1 394.169 296.74)"/>
</clipPath>
<clipPath id="clip2_135_6173">
<rect width="11.1481" height="11.1481" fill="white" transform="matrix(0.939693 0.34202 0 1 310.726 367.737)"/>
</clipPath>
<clipPath id="clip3_135_6173">
<rect width="11.1481" height="11.1481" fill="white" transform="matrix(0.939693 0.34202 0 1 394.169 398.107)"/>
</clipPath>
<clipPath id="clip4_135_6173">
<rect width="41.5367" height="41.5367" fill="white" transform="matrix(0.939693 0.34202 0 1 14.0289 165.218)"/>
</clipPath>
<clipPath id="clip5_135_6173">
<rect width="41.5367" height="41.5367" fill="white" transform="matrix(0.939693 0.34202 0 1 14.0289 96.8447)"/>
</clipPath>
<clipPath id="clip6_135_6173">
<rect width="41.5756" height="41.5756" fill="white" transform="matrix(0.939693 0.34202 0 1 78.0393 120.144)"/>
</clipPath>
<clipPath id="clip7_135_6173">
<rect width="41.5756" height="41.5756" fill="white" transform="matrix(0.939693 0.34202 0 1 142.048 143.442)"/>
</clipPath>
</defs>
</svg>
