<svg width="25" height="25" viewBox="0 0 25 25" fill="none" xmlns="http://www.w3.org/2000/svg">
<circle cx="12.1765" cy="12.7412" r="12" fill="url(#paint0_linear_36_284)"/>
<g clip-path="url(#clip0_36_284)">
<path fill-rule="evenodd" clip-rule="evenodd" d="M9.25418 9.39932C9.26655 9.29448 9.30324 9.19398 9.36131 9.10582C9.41938 9.01766 9.49724 8.94427 9.58868 8.89152C9.68012 8.83876 9.78262 8.80808 9.888 8.80193C9.99339 8.79578 10.0988 8.81433 10.1957 8.85609C10.6859 9.06563 11.7843 9.56363 13.1782 10.3681C14.5725 11.173 15.5533 11.8759 15.9793 12.1949C16.3429 12.4676 16.3439 13.0086 15.9797 13.2822C15.5579 13.5993 14.5891 14.293 13.1782 15.1081C11.7659 15.9232 10.6803 16.4152 10.1948 16.6219C9.77664 16.8005 9.30864 16.5296 9.25418 16.0787C9.19049 15.5516 9.07141 14.3549 9.07141 12.7385C9.07141 11.1232 9.19003 9.92686 9.25418 9.39932Z" fill="white"/>
</g>
<defs>
<linearGradient id="paint0_linear_36_284" x1="12.1765" y1="0.741211" x2="12.1765" y2="24.7412" gradientUnits="userSpaceOnUse">
<stop stop-color="#C4CBD7" stop-opacity="0.5"/>
<stop offset="1" stop-color="#C4CBD7"/>
</linearGradient>
<clipPath id="clip0_36_284">
<rect x="6.63794" y="7.20264" width="11.0769" height="11.0769" rx="5.53846" fill="white"/>
</clipPath>
</defs>
</svg>
