<svg width="934" height="152" viewBox="0 0 934 152" fill="none" xmlns="http://www.w3.org/2000/svg">
<path d="M434.578 143.921L434.536 136.177L431.847 136.135L429.145 136.107V133.867H439.619C449.813 133.867 450.093 133.881 450.541 134.147C450.793 134.301 451.115 134.623 451.269 134.875C451.535 135.323 451.549 135.603 451.549 142.731V150.11H445.388V147.87H449.309V142.227C449.309 136.919 449.295 136.555 449.057 136.345C448.819 136.135 448.189 136.107 442.826 136.107H436.846V151.651H434.606L434.578 143.921ZM407.72 150.25V149.13H413.461V141.989H400.438V139.748H413.209L415.646 137.48C417.158 136.079 418.082 135.141 418.054 135.001C418.012 134.805 417.27 134.777 410.968 134.735L403.939 134.707V132.466H411.921C420.729 132.466 420.631 132.452 421.163 133.335C421.499 133.881 421.527 134.567 421.233 135.113C421.135 135.323 420.071 136.401 418.894 137.508C417.718 138.6 416.738 139.552 416.71 139.622C416.682 139.692 418.46 139.748 420.799 139.748H424.944V141.989H415.702V151.371H407.72V150.25ZM455.61 149.886V148.71L456.241 148.556L456.871 148.402V137.788H459.111V147.758L459.615 147.66C459.895 147.618 460.273 147.52 460.455 147.45L460.792 147.31V136.107H456.451V125.465H460.413C463.998 125.465 464.418 125.493 464.95 125.745C465.301 125.899 465.665 126.207 465.833 126.473C466.099 126.907 466.113 127.173 466.113 131.528V136.107H463.032V139.188H466.113V141.428H463.032V144.089C463.032 145.559 463.074 146.75 463.144 146.75C463.242 146.75 465.609 146.133 466.155 145.965C466.365 145.895 466.393 146.007 466.393 147.072V148.248L463.354 149.032C461.674 149.466 459.251 150.11 457.963 150.446L455.61 151.063V149.886ZM463.872 131.01C463.872 128.21 463.872 128.14 463.564 127.929C463.312 127.747 462.808 127.705 460.974 127.705H458.691V130.688C458.691 132.34 458.733 133.727 458.789 133.769C458.831 133.825 460.007 133.867 461.38 133.867H463.872V131.01ZM467.933 149.83V148.71H468.829C469.922 148.71 470.412 148.542 470.594 148.122C470.692 147.87 471.448 128.055 471.434 125.857V125.325H473.674V126.081C473.674 127.257 472.988 147.842 472.918 148.738C472.792 150.39 471.952 150.937 469.515 150.951H467.933V149.83ZM475.355 138.138V125.325H477.595L477.623 136.989L477.665 148.64L479.528 148.682L481.376 148.724V150.951H475.355V138.138ZM504.481 149.69V148.57H508.402V139.356C508.402 130.59 508.388 130.114 508.15 129.904C507.926 129.694 507.52 129.666 505.419 129.666C504.061 129.666 502.941 129.708 502.941 129.75C502.941 129.876 500.308 149.382 500.196 150.012L500.112 150.53H497.746L497.83 150.082C497.872 149.83 498.502 145.307 499.23 140.028C499.958 134.749 500.588 130.268 500.63 130.058L500.7 129.666H498.04V127.425H500.966L501.05 126.977C501.092 126.725 501.176 126.235 501.232 125.885L501.344 125.255L502.507 125.213C503.445 125.185 503.655 125.213 503.599 125.367C503.557 125.465 503.487 125.983 503.431 126.487L503.333 127.425H506.218C509.396 127.425 509.606 127.467 510.278 128.266L510.643 128.714V150.811H504.481V149.69ZM484.877 150.292C484.877 150.026 486.935 136.051 487.047 135.589C487.117 135.267 487.103 135.267 485.577 135.267H484.037V133.027H496.919V135.267H489.386L489.302 135.729C489.162 136.471 487.537 147.884 487.537 148.094C487.537 148.262 488.056 148.29 490.464 148.29C493.209 148.29 493.405 148.276 493.755 147.996L494.119 147.716V142.829H496.359V145.993C496.359 148.934 496.331 149.2 496.079 149.62C495.533 150.516 495.393 150.53 489.862 150.53C485.325 150.53 484.877 150.516 484.877 150.292ZM349.747 133.573C349.747 125.339 349.789 118.603 349.859 118.603C349.915 118.603 351.385 118.967 353.136 119.402L356.328 120.214V133.559C356.328 140.882 356.3 146.89 356.272 146.89C356.23 146.89 354.746 147.268 352.982 147.716L349.747 148.542V133.573Z" fill="#325AB4"/>
<path d="M467.233 144.761C467.233 144.509 467.387 142.632 467.583 140.588C467.779 138.544 467.933 136.737 467.933 136.569C467.933 136.261 467.989 136.247 469.053 136.247C469.852 136.247 470.174 136.303 470.174 136.429C470.174 136.513 470.006 138.53 469.795 140.91L469.403 145.209H467.233V144.761ZM479.276 145.125C479.276 144.971 478.575 137.549 478.505 136.919L478.421 136.247H480.662L480.732 136.709C480.802 137.143 481.516 144.747 481.516 145.055C481.516 145.153 481.124 145.209 480.396 145.209C479.78 145.209 479.276 145.167 479.276 145.125ZM468.157 133.278C468.045 132.648 467.513 127.943 467.513 127.649C467.513 127.467 467.695 127.425 468.633 127.425C469.431 127.425 469.753 127.481 469.753 127.607C469.753 127.803 470.258 132.214 470.384 133.138L470.468 133.726H468.227L468.157 133.278ZM478.505 133.208C478.645 132.242 479.136 127.915 479.136 127.677C479.136 127.453 479.29 127.425 480.256 127.425C481.194 127.425 481.376 127.467 481.376 127.649C481.376 127.943 480.844 132.648 480.732 133.278L480.662 133.726H478.435L478.505 133.208ZM432.477 130.758L432.435 129.175L430.237 129.133L428.024 129.091V126.865H432.505V125.325H434.746V126.865H445.948V125.325H448.189V126.865H453.37V129.105H448.189V132.326H445.962L445.92 130.758L445.878 129.175L440.319 129.133L434.746 129.105V132.326H432.519L432.477 130.758ZM400.438 129.245V126.865H411.641V125.325H413.881V126.851L418.894 126.893C423.599 126.935 423.921 126.949 424.369 127.215C425.168 127.691 425.364 128.237 425.364 130.044V131.626H423.123V130.59C423.123 129.666 423.081 129.512 422.815 129.33C422.535 129.133 421.331 129.105 412.593 129.105H402.679V131.626H400.438V129.245ZM485.297 127.005V125.885H495.659V128.125H485.297V127.005ZM410.506 121.866C410.66 121.488 410.912 120.886 411.067 120.522L411.361 119.835L410.086 116.811C409.386 115.13 408.784 113.688 408.742 113.604C408.686 113.464 408.882 113.422 409.428 113.422H410.184L411.165 115.887C412.061 118.155 412.145 118.323 412.271 117.959C412.355 117.749 412.789 116.657 413.251 115.536L414.091 113.492L415.393 113.45L416.682 113.408V111.882H418.082V113.422H418.572C419.048 113.422 419.062 113.436 419.062 113.982C419.062 114.528 419.048 114.542 418.572 114.542H418.082V116.629C418.082 118.841 418.096 118.883 418.796 118.883C419.02 118.883 419.062 118.981 419.062 119.527V120.185L418.278 120.087C417.844 120.045 417.382 119.933 417.228 119.863C416.822 119.639 416.682 118.827 416.682 116.615V114.542H415.057L413.307 118.533L411.571 122.524H410.24L410.506 121.866ZM422.633 120.045C421.387 119.751 420.645 119.219 420.141 118.267C419.72 117.469 419.734 115.831 420.155 115.004C420.897 113.576 422.549 112.946 424.313 113.436C425.462 113.744 426.484 115.228 426.484 116.559V117.063H423.823C420.897 117.063 420.897 117.063 421.401 117.903C422.087 119.065 423.893 119.191 425.042 118.155C425.364 117.861 425.686 117.931 426.064 118.393C426.218 118.575 426.19 118.673 425.854 119.023C425.14 119.765 423.557 120.27 422.633 120.045ZM425.014 115.775C424.748 114.906 423.683 114.304 422.689 114.472C422.045 114.584 421.163 115.354 421.163 115.803C421.163 116.069 421.261 116.083 423.137 116.083H425.098L425.014 115.775ZM452.81 120.017C451.774 119.807 450.905 119.093 450.513 118.155C450.373 117.847 450.289 117.217 450.289 116.601C450.289 115.69 450.345 115.494 450.751 114.822C451.746 113.156 454.014 112.764 455.736 113.954C455.904 114.08 455.862 114.178 455.526 114.57L455.106 115.046L454.49 114.71C453.37 114.122 452.306 114.486 451.802 115.62C451.479 116.335 451.521 117.175 451.9 117.917C452.404 118.869 453.734 119.177 454.672 118.547L455.162 118.211L455.526 118.589C455.722 118.799 455.89 119.023 455.89 119.107C455.89 119.457 453.972 120.241 453.384 120.129C453.342 120.115 453.076 120.073 452.81 120.017ZM459.251 120.017C457.641 119.695 456.591 118.365 456.591 116.629C456.591 114.724 457.977 113.296 459.797 113.282C461.772 113.282 463.074 114.416 463.27 116.307L463.354 117.063H457.991V117.427C457.991 117.665 458.159 117.959 458.481 118.267C459.321 119.065 460.525 119.079 461.604 118.323L462.206 117.903L462.626 118.183C462.85 118.351 463.032 118.533 463.032 118.589C463.032 118.645 462.864 118.855 462.654 119.065C461.884 119.793 460.329 120.227 459.251 120.017ZM461.758 115.662C461.436 114.738 460.273 114.22 459.251 114.528C458.663 114.696 457.991 115.382 457.991 115.817C457.991 116.069 458.117 116.083 459.937 116.083H461.898L461.758 115.662ZM438.022 119.681C436.692 119.037 436.034 117.819 436.188 116.223C436.286 115.144 436.79 114.248 437.588 113.786C438.681 113.142 440.165 113.142 441.117 113.786C441.733 114.206 441.747 114.206 441.747 113.772C441.747 113.464 441.803 113.422 442.307 113.422H442.868V119.863H442.237C441.705 119.863 441.607 119.821 441.607 119.583C441.607 119.233 441.537 119.233 440.949 119.597C440.193 120.073 438.919 120.101 438.022 119.681ZM440.753 118.505C442.013 117.553 441.957 115.536 440.627 114.766C440.053 114.43 438.961 114.416 438.457 114.738C437.532 115.354 437.224 116.965 437.868 117.917C438.499 118.869 439.871 119.149 440.753 118.505ZM401.838 115.158V110.439L403.827 110.523C405.535 110.593 405.899 110.649 406.445 110.943C407.818 111.644 408.168 113.45 407.146 114.528C406.95 114.738 406.88 114.892 406.978 114.92C407.692 115.158 408.406 116.307 408.42 117.203C408.42 117.945 407.888 118.883 407.188 119.373L406.572 119.793L404.205 119.835L401.838 119.877V115.158ZM406.614 118.071C406.866 117.791 407.02 117.469 407.02 117.203C407.02 116.937 406.866 116.615 406.614 116.335C406.207 115.873 406.193 115.873 404.723 115.831L403.239 115.775V118.631L404.723 118.575C406.193 118.533 406.207 118.533 406.614 118.071ZM405.521 114.36C406.151 114.094 406.361 113.786 406.361 113.128C406.361 112.694 406.263 112.47 405.997 112.19C405.675 111.882 405.493 111.826 404.443 111.77L403.239 111.7V114.542H404.149C404.653 114.542 405.269 114.458 405.521 114.36ZM428.164 115.172V110.481H429.117C433.668 110.481 435.586 112.022 435.418 115.536C435.278 118.533 433.555 119.863 429.831 119.863H428.164V115.172ZM432.449 118.211C433.569 117.637 434.046 116.741 434.046 115.242C434.046 114.066 433.808 113.422 433.149 112.792C432.491 112.148 431.917 111.938 430.447 111.798L429.425 111.7V118.631L430.657 118.575C431.539 118.533 432.029 118.435 432.449 118.211ZM444.128 116.643V113.422H444.758C445.234 113.422 445.388 113.478 445.388 113.646C445.388 113.772 445.43 113.842 445.5 113.814C447.068 113.002 448.217 113.156 449.071 114.276C449.477 114.822 449.589 115.564 449.589 117.805V119.863H448.329V118.015C448.315 115.102 448.063 114.472 446.844 114.472C446.298 114.472 446.144 114.542 445.794 114.934L445.388 115.382V119.863H444.128V116.643Z" fill="#325AB4"/>
<path d="M374.154 144.271L371.172 143.487V129.176L374.364 128.364C376.115 127.916 377.585 127.551 377.655 127.565C377.711 127.565 377.753 131.5 377.753 136.317V145.069L377.445 145.055C377.263 145.055 375.779 144.691 374.154 144.271Z" fill="#00C8D2"/>
<path d="M360.249 140.672C360.249 135.855 360.291 131.906 360.361 131.906C360.417 131.892 361.888 132.256 363.652 132.704L366.831 133.517L366.803 140.644L366.761 147.772L363.904 148.514C362.336 148.92 360.865 149.298 360.655 149.34L360.249 149.438V140.672Z" fill="#3C8CFF"/>
<path d="M381.674 133.517C381.674 117.623 381.688 116.769 381.926 116.839C382.052 116.881 383.298 117.203 384.685 117.553C386.071 117.917 387.443 118.267 387.737 118.337L388.255 118.477L388.227 133.545L388.185 148.626L385.343 149.354C383.789 149.76 382.318 150.124 382.094 150.18L381.674 150.278V133.517Z" fill="#78E6DC"/>
<path d="M246.507 130.764L241.838 144.774H234.973L244.126 117.316H250.99L248 126.288L261.454 117.316H267.096L253.59 127.581L262.499 144.774H253.588L246.51 130.762L246.507 130.764ZM212.375 126.469L215.425 117.316H222.29L213.139 144.774H206.275L210.851 131.045H199.421L194.845 144.774H187.981L197.133 117.316H203.997L200.945 126.469H212.375ZM230.072 117.316H236.937L227.784 144.774H220.922L230.072 117.316Z" fill="#B7241F"/>
<g clip-path="url(#clip0_242_552)">
<path d="M653.156 137.488H656.325V140.013H653.156V137.488Z" fill="#07285A"/>
<path d="M653.164 140.839H656.344L656.337 147.529L653.164 148.585V140.839Z" fill="#07285A"/>
<path d="M670.947 137.45L670.099 139.835H663.568V142.186H670.489L669.467 144.594H663.568V147.661L660.138 148.623V137.45H670.947ZM674.112 137.563L677.459 137.571V145.919L684.301 145.904L683.278 148.505L674.112 148.501V137.563ZM681.544 137.442H685.622L689.06 141.645L692.354 137.442H696.439L690.677 144.795V147.786L687.371 148.63V144.818L681.544 137.442ZM710.758 137.45L709.74 140.002H706.294V147.778L702.966 148.623V140.002H698.646V137.45H710.758ZM712.738 137.556H724.028L723.169 139.873H716.123V142.004H723.547L722.813 144.091H716.123V146.241H724.028L723.169 148.517H712.738V137.556ZM725.842 137.548H729.23V141.656H730.067L734.372 137.51H738.673L733.194 142.849L739.343 148.441H734.641L730.067 144.155H729.23V147.862L725.842 148.562V137.548ZM653.285 133.936L654.099 123.407H656.757L656.015 133.16L653.285 133.936ZM669.213 115.839H672.231V128.647L673.711 128.575L672.852 130.953L672.231 131.002V133.936L669.213 135.076V131.123L663.75 131.487V129.136L669.213 128.768V115.839ZM662.841 123.407L663.534 133.55L660.925 132.384L660.278 123.407H662.841Z" fill="#07285A"/>
<path d="M659.945 122.366V133.501L657.045 134.834V122.366H653.357V120.11H657.045V118.58L653.55 118.894V116.494L663.534 115.646L662.89 117.997L659.945 118.338V120.11H663.534L662.432 122.366H659.945ZM665.953 123.191L668.373 125.3L666.124 127.557L663.704 125.444L665.953 123.191ZM665.98 117.126L668.399 119.235L666.146 121.469L663.704 119.379L665.98 117.126ZM701.183 116.104L703.553 118.167L701.327 120.375L698.957 118.311L701.183 116.104ZM705.158 124.089H707.339V118.701H705.302V116.251H717.35V132.191H718.932L717.732 134.519L713.904 134.542L713.927 118.701H710.739V124.089H713.446L712.227 126.516H710.739V133.183L707.339 134.663V126.516H705.158V124.089ZM698.48 122.366H703.171L703.197 131.366L705.329 131.002L704.178 133.743L699.771 134.906V124.793H698.48V122.366ZM688.06 119.235H696.272L695.031 121.685H688.299L696.537 134.542H692.081L686.19 125.228L680.541 134.542H676.036L684.062 121.685H676.566V119.235H684.301V116.104H688.038L688.06 119.235ZM733.493 132.482L739.218 132.509L737.946 134.815H733.493V132.482ZM733.493 129.764V125.955L734.739 127.193C734.975 127.454 735.259 127.668 735.576 127.822C735.935 127.915 736.306 127.956 736.678 127.943H739.218V130.275H735.917C735.306 130.308 734.693 130.251 734.099 130.105C733.879 130.033 733.675 129.917 733.501 129.764M733.501 122.775V120.231C733.688 120.051 733.85 119.848 733.982 119.625L736.042 116.35H739.226L736.197 121.65C736.065 121.851 735.914 122.039 735.746 122.211C735.583 122.398 735.383 122.55 735.159 122.658C734.735 122.754 734.3 122.794 733.865 122.779L733.501 122.775ZM729.022 116.339L725.887 132.471H733.493V134.8L721.908 134.788L725.191 118.75H721.151V116.35L729.022 116.339ZM733.493 120.231C733.471 120.253 733.422 120.28 733.399 120.303C733.2 120.409 732.976 120.458 732.751 120.446H728.227L727.769 122.775H733.493V120.231ZM733.493 125.955L732.225 124.694H728.7L732.888 129.181C733.069 129.393 733.269 129.588 733.486 129.764L733.493 125.955ZM627.668 145.976C616.405 151.655 604.857 153.151 601.802 144.083C601.768 143.991 601.739 143.898 601.715 143.803C601.351 142.065 601.366 140.268 601.76 138.536C604.891 122.18 625.249 109.717 625.249 109.717C624.552 110.095 623.882 110.5 623.22 110.894C608.291 119.432 601.2 128.503 598.644 135.243C596.732 140.286 597.346 143.553 597.622 144.549C598.002 145.934 598.707 147.208 599.678 148.267C604.221 153.325 612.028 152.231 618.108 150.243C621.438 149.166 624.643 147.736 627.668 145.976Z" fill="#07285A"/>
<path d="M645.808 117.527C646.258 117.406 645.974 117.459 647.061 117.198C645.312 116.842 634.673 117.357 626.548 127.799L619.392 117.251H616.621L625.132 129.745C624.916 130.067 624.704 130.389 624.496 130.726L624.356 130.96L614.981 117.251H612.214L623.121 133.19C622.912 133.562 622.681 133.957 622.428 134.376L610.692 117.24H607.947L621.099 136.484C618.025 141.028 612.899 146.775 605.228 148.339C605.228 148.339 618.427 149.474 626.237 138.968L632.602 148.335H635.373L627.6 136.92C627.725 136.708 627.85 136.492 627.979 136.272L628.278 135.742L636.872 148.335H639.644L629.55 133.569C629.792 133.19 630.054 132.759 630.334 132.32L641.291 148.335H644.062L631.693 130.275C635.138 125.266 640.401 118.981 645.815 117.527" fill="#07285A"/>
</g>
<g clip-path="url(#clip1_242_552)">
<path d="M84.4954 45.6717L81.4065 38.3627L80.2753 40.1029V45.6717H74.9676V24.6147H80.2753V32.7068H80.3188L84.2344 24.6147H89.8902L84.8 33.838L90.5428 45.6717H84.4954ZM99.5486 45.6717L96.0246 32.7068H95.9376V45.7587H91.0214V24.5712H96.9382L100.332 37.5795H100.419V24.6147H105.378V45.6717H99.5486Z" fill="#004481"/>
<path fill-rule="evenodd" clip-rule="evenodd" d="M107.249 35.1432C107.249 43.0179 109.12 46.1068 114.515 46.1068C119.91 46.1068 121.78 43.0614 121.78 35.1432C121.78 27.2251 119.91 24.2231 114.515 24.2231C109.12 24.2231 107.249 27.2686 107.249 35.1432ZM112.731 35.1432C112.731 29.4874 112.905 27.9212 114.471 27.9212C116.038 27.9212 116.299 29.4874 116.299 35.1432C116.299 40.799 116.125 42.3653 114.515 42.3653C112.905 42.3653 112.731 40.8425 112.731 35.1432ZM123.651 45.6717H129.002V37.275H130.395C131.7 37.275 132.135 37.8841 132.135 40.277V41.6692C132.135 42.5393 132.135 44.5841 132.657 45.6717H138.313V45.4107C138.046 45.2634 137.832 45.0348 137.704 44.7581C137.486 44.3231 137.486 42.9309 137.486 41.8432V40.0159C137.486 37.2315 136.703 35.5348 134.136 35.3172V35.2302C136.572 34.8822 137.617 33.0549 137.617 30.227C137.617 26.964 136.094 24.6147 132.048 24.6147H123.782L123.651 45.6717ZM129.002 28.5738H130.047C131.656 28.5738 132.309 29.3134 132.309 31.0101C132.309 32.5328 131.569 33.5335 130.09 33.5335H129.002V28.5738ZM140.053 45.6717H145.361V37.275H146.753C148.058 37.275 148.493 37.8841 148.493 40.277V41.6692C148.493 42.5393 148.493 44.5841 149.015 45.6717H154.671V45.4107C154.404 45.2634 154.191 45.0348 154.062 44.7581C153.801 44.3231 153.801 42.9309 153.801 41.8432V40.0159C153.801 37.2315 153.018 35.5348 150.494 35.3172V35.2302C152.887 34.8822 153.975 33.0549 153.975 30.227C153.975 26.964 152.409 24.6147 148.363 24.6147H140.096L140.053 45.6717ZM145.361 28.5738H146.361C147.971 28.5738 148.624 29.3134 148.624 31.0101C148.624 32.5328 147.928 33.5335 146.448 33.5335H145.361V28.5738Z" fill="#004481"/>
<path d="M155.889 34.8821H164.765V39.4067H155.889V34.8821Z" fill="#004481"/>
<path fill-rule="evenodd" clip-rule="evenodd" d="M166.983 45.6718H174.989C179.426 45.6718 181.123 43.1049 181.123 39.4504C181.123 37.2751 180.035 34.9257 177.381 34.6647V34.5777C179.6 34.1426 180.557 32.1413 180.557 29.879C180.557 26.703 178.817 24.6583 174.989 24.6583H166.983V45.6718ZM172.291 28.5738H173.596C174.64 28.5738 175.25 29.5745 175.25 30.7491C175.25 31.9238 174.64 32.8809 173.596 32.8809H172.291V28.5738ZM172.291 36.6225H173.77C174.727 36.6225 175.641 37.4926 175.641 39.1458C175.641 40.8861 174.771 41.7562 173.77 41.7562H172.291V36.6225ZM183.168 45.6718H188.475V37.2751H189.868C191.173 37.2751 191.608 37.8842 191.608 40.277V41.6692C191.608 42.5393 191.608 44.5841 192.13 45.6718H197.786V45.4108C197.519 45.2635 197.305 45.0349 197.177 44.7582C196.916 44.3231 196.916 42.9309 196.916 41.8432V40.016C196.916 37.2316 196.133 35.5348 193.566 35.3173V35.2303C196.002 34.8822 197.046 33.055 197.046 30.2271C197.046 26.9641 195.523 24.6147 191.477 24.6147H183.211L183.168 45.6718ZM188.475 28.5738H189.476C191.086 28.5738 191.738 29.3134 191.738 31.0102C191.738 32.5329 190.999 33.5335 189.52 33.5335H188.432L188.475 28.5738Z" fill="#004481"/>
<path d="M199.483 45.6717H211.795V41.1906H204.834V37.0575H211.142V32.7069H204.79V29.0958H211.534V24.6147H199.526V45.6717H199.483ZM213.535 45.6717H218.495V30.0095H218.538L221.366 45.6717H225.195L228.023 30.0095H228.066V45.6717H233.026V24.6147H225.456L223.281 37.101L221.105 24.6147H213.535V45.6717ZM248.21 30.7056C248.21 26.1809 246.252 24.1796 241.64 24.1796C237.159 24.1796 234.984 26.529 234.984 30.7926C234.984 38.2322 243.25 36.1874 243.25 40.364C243.25 41.4951 242.641 42.4088 241.597 42.4088C240.553 42.4088 239.856 41.7562 239.856 39.9724V39.4503H234.679V40.1899C234.679 44.5406 237.159 46.1068 241.553 46.1068C246.208 46.1068 248.732 44.1055 248.732 39.5808C248.732 31.9237 240.074 33.925 240.074 29.7919C240.074 28.8348 240.596 27.9212 241.727 27.9212C242.771 27.9212 243.25 28.9653 243.25 30.1835V30.7056H248.21ZM250.602 45.6717H262.915V41.1906H255.91V37.0575H262.219V32.7069H255.91V29.0958H262.654V24.6147H250.602V45.6717ZM0.223755 13.9991H59.8274V56.1132H0.223755V13.9991Z" fill="#004481"/>
<path d="M16.4951 35.0562C16.4951 27.3121 22.5425 21.0037 29.9821 21.0037C37.4217 21.0037 43.5561 27.3121 43.5561 35.0562C43.5561 42.8003 37.4652 49.0652 30.0256 49.0652C22.586 49.0652 16.4951 42.8003 16.4951 35.0562ZM29.9821 45.7152C35.6379 45.7152 40.2496 40.9295 40.2496 35.0562C40.2496 29.1828 35.6814 24.3972 29.9821 24.3972C24.2828 24.3972 19.6711 29.1828 19.6711 35.0562C19.6711 40.9295 24.2828 45.7152 29.9821 45.7152Z" fill="white"/>
<path d="M46.1664 27.1815C47.2834 29.6565 47.8611 32.3408 47.8611 35.0562C47.8611 37.7715 47.2834 40.4558 46.1664 42.9308H42.4684C43.8592 40.5395 44.5919 37.8225 44.5919 35.0562C44.5919 32.2898 43.8592 29.5728 42.4684 27.1815H46.1664ZM17.4522 27.1815C16.0695 29.5676 15.3413 32.2766 15.3413 35.0344C15.3413 37.7922 16.0695 40.5012 17.4522 42.8873H13.7977C12.6871 40.4183 12.1128 37.7417 12.1128 35.0344C12.1128 32.3271 12.6871 29.6506 13.7977 27.1815H17.4522ZM23.8912 27.1815H28.2418V42.8873H23.8912V27.1815ZM36.2905 42.8873L32.5924 35.0562L36.2905 27.225H31.9398L28.2853 35.0562L31.9398 42.8873H36.2905Z" fill="white"/>
<path d="M11.0133 35.0561C11.0086 32.3675 11.5411 29.705 12.5795 27.225H9.36003L5.70551 35.0561L9.36003 42.8872H12.623C11.5846 40.4072 11.0521 37.7447 11.0568 35.0561M48.9943 35.0561C48.9989 32.3675 48.4664 29.705 47.428 27.225H50.691L54.3455 35.0561L50.691 42.8872H47.428C48.4664 40.4072 48.9989 37.7447 48.9943 35.0561Z" fill="white"/>
</g>
<g clip-path="url(#clip2_242_552)">
<path d="M558.235 24.1642L557.461 27.1804H564.628L561.998 37.6986L560.065 45.4584H564.757L566.69 37.6986L569.32 27.1804H576.461L577.208 24.1641H558.235V24.1642ZM701.467 24.3963C701.086 25.9636 700.735 27.1868 700.385 28.2375H698.632L699.199 27.8765C700.176 27.2422 700.658 26.9164 700.668 26.8711C700.146 25.6925 699.705 24.8789 699.302 24.4735C699.291 24.4002 698.546 24.8551 697.111 25.7884L696.621 26.0976C696.631 26.1204 696.69 26.2079 696.801 26.3553C697.307 27.0122 697.733 27.6309 698.064 28.2374H696.621L696.157 30.403H699.405L699.173 30.8414L698.941 31.2796H695.435L694.997 33.4453H697.42C696.385 34.7074 695.155 35.721 693.733 36.4874L696.002 25.6598H689.737L687.392 36.8483C687.329 37.141 687.257 37.4197 687.185 37.6989C686.64 39.8636 685.828 41.8053 684.736 43.5253C685.398 44.11 685.937 44.7368 686.386 45.4071C687.699 43.5346 688.73 41.137 689.505 38.1887H690.872L690.098 41.8496C690.037 42.3509 689.528 42.5765 688.603 42.4941C688.796 43.3901 688.878 44.2875 688.809 45.2268C691.042 45.2123 692.169 44.7092 692.212 43.68L693.475 37.6989L693.553 37.2865C693.686 37.4193 693.816 37.5569 693.939 37.6989C694.24 38.0537 694.475 38.4025 694.636 38.7559C694.978 38.5868 695.384 38.3269 695.847 37.9309L695.022 40.6119H702.524L702.395 41.3081C702.098 42.7559 701.68 43.4592 701.158 43.3704L701.57 41.3081H693.527L693.062 43.4478H699.611C699.985 44.2551 700.145 45.0822 700.075 45.9483C702.164 45.8804 703.444 45.5587 703.942 44.9687C704.097 44.7966 704.261 44.4976 704.432 43.9891C704.773 42.9672 705.173 41.4729 705.669 39.5034L705.953 38.3693H703.168L703.323 37.6988L703.529 36.6678C704.024 37.1008 704.464 37.438 704.844 37.6988C705.126 37.8918 705.374 38.0392 705.592 38.1372C705.711 37.9877 705.834 37.8402 705.953 37.6988C706.671 36.8275 707.352 36.1014 707.989 35.5077C706.308 35.0291 705.077 34.3423 704.303 33.4453H707.989L708.428 31.2796H701.802C701.98 31.0197 702.145 30.7405 702.266 30.4032H707.732L708.17 28.2377H706.211C707.067 27.4014 707.819 26.7135 708.505 26.1753L706.211 24.7574C705.476 25.6957 704.683 26.6094 703.813 27.49L705.205 28.3407H703.22L703.504 27.4384L703.865 26.536C704.166 25.7761 704.414 25.1986 704.587 24.8345C704.603 24.685 704.505 24.6097 704.2 24.5767C703.622 24.486 702.713 24.4262 701.467 24.3963ZM715.337 24.5767C714.638 24.8088 713.551 25.2325 712.037 25.8656C712.513 27.2237 712.857 28.5787 713.094 29.9388C713.629 29.7356 714.79 29.3366 716.548 28.7014C715.815 26.0616 715.396 24.6808 715.337 24.5767ZM717.889 25.7368L717.348 28.2375H719.41L718.43 32.9036H715.852L715.311 35.4042H717.915L717.425 37.6984L715.852 45.1489H718.74L720.287 37.6984L720.776 35.4042H722.839L722.426 37.286C722.396 37.4252 722.375 37.5616 722.349 37.6984C721.821 40.4631 722.092 42.6254 723.148 44.1693C723.791 45.084 724.568 45.4708 725.494 45.3296C726.453 45.379 727.413 43.831 728.356 40.6891C727.578 40.3363 726.796 39.9926 726.01 39.658C725.542 41.0975 725.251 41.5646 725.133 41.0502C724.949 40.316 724.987 39.1992 725.236 37.6986C725.317 37.214 725.42 36.6932 725.546 36.1261L727.737 25.7368H717.889ZM675.069 25.9947L674.089 29.9648H670.325L669.604 32.9038H683.37L675.069 25.9947ZM691.671 27.8765H693.037L692.393 30.9442H691.052L691.671 27.8765ZM722.272 28.2375H724.437L723.458 32.9036H721.292L722.272 28.2375ZM582.596 29.0882C579.736 29.0882 577.255 29.8359 575.146 31.331C573.049 32.848 571.686 34.8351 571.073 37.2862C571.037 37.4298 570.999 37.5584 570.97 37.6986C570.499 39.9747 570.916 41.8307 572.233 43.2415C573.636 44.7264 575.802 45.4584 578.73 45.4584C583.719 45.4584 587.544 42.4142 587.933 42.0813L585.767 41.5915C585.258 41.709 582.484 42.5125 579.709 42.2619C576.208 41.9474 575.414 39.3839 575.61 38.1112H589.66L589.789 37.6988L589.892 37.2605C590.53 34.7052 590.192 32.6954 588.887 31.2538C587.571 29.7998 585.486 29.0882 582.596 29.0882ZM624.231 29.0882C621.221 29.0882 618.498 29.8689 616.033 31.46C613.563 33.0523 612.048 35.0248 611.47 37.3379C611.438 37.4647 611.391 37.5739 611.367 37.6988C610.935 39.8457 611.507 41.6618 613.068 43.1383C614.724 44.6871 617.068 45.4585 620.106 45.4585C621.947 45.4585 623.878 45.0769 625.907 44.3244L627.092 39.6067C625.744 40.6452 624.612 41.335 623.715 41.695C622.789 42.0662 621.788 42.262 620.699 42.262C618.992 42.262 617.701 41.8043 616.832 40.87C616.063 40.0284 615.787 38.9602 616.007 37.6989C616.032 37.5599 616.074 37.4299 616.11 37.2865C616.466 35.8656 617.322 34.6715 618.688 33.729C620.051 32.7865 621.595 32.311 623.303 32.311C624.391 32.311 625.271 32.4957 625.984 32.8781C626.71 33.2483 627.471 33.9434 628.252 34.9405L629.438 30.1713C627.901 29.4398 626.166 29.0882 624.231 29.0882ZM641.22 29.0882C638.358 29.0882 635.877 29.8359 633.769 31.331C631.671 32.848 630.309 34.8351 629.696 37.2862C629.66 37.4298 629.623 37.5584 629.593 37.6986C629.121 39.9747 629.537 41.8307 630.856 43.2415C632.258 44.7264 634.426 45.4584 637.353 45.4584C642.341 45.4584 646.169 42.4142 646.556 42.0813L644.391 41.5915C643.881 41.709 641.108 42.5125 638.333 42.2619C634.833 41.9474 634.036 39.3839 634.234 38.1112H648.284L648.413 37.6988L648.516 37.2605C649.155 34.7052 648.839 32.6954 647.536 31.2538C646.22 29.7998 644.11 29.0882 641.22 29.0882ZM604.664 29.5264C602.676 29.5264 600.732 30.1409 598.838 31.3826L594.636 29.9648L592.702 37.6986L590.768 45.4584H595.332L597.188 37.9824C597.211 37.8865 597.241 37.7854 597.265 37.6986C597.739 35.9169 598.375 34.6464 599.147 33.9091C599.974 33.1254 601.123 32.749 602.627 32.749C604.011 32.749 604.907 33.0305 605.282 33.6255C605.673 34.2071 605.665 35.2692 605.282 36.7964L605.076 37.6986L603.117 45.4584H607.68L609.613 37.6986L610.052 35.9457C610.599 33.7607 610.449 32.1964 609.588 31.2281C608.595 30.0936 606.949 29.5264 604.664 29.5264ZM662.901 29.5264C660.912 29.5264 658.971 30.1409 657.075 31.3826L652.872 29.9648L650.939 37.6986L649.005 45.4584H653.568L655.424 37.9824C655.449 37.8865 655.477 37.7854 655.502 37.6986C655.978 35.9169 656.61 34.6464 657.384 33.9091C658.212 33.1254 659.357 32.749 660.864 32.749C662.247 32.749 663.143 33.0305 663.519 33.6255C663.909 34.2071 663.902 35.2692 663.519 36.7964L663.287 37.6986L661.354 45.4584H665.917L667.85 37.6986L668.289 35.9457C668.836 33.7607 668.685 32.1964 667.825 31.2281C666.833 30.0936 665.184 29.5264 662.901 29.5264ZM709.227 31.1505L708.686 33.6771H711.238L710.387 37.6986L709.846 40.3799C709.728 40.9408 709.28 41.5255 708.505 42.1585C708.277 42.3463 708.137 42.467 708.119 42.5197C708.402 43.4076 708.907 44.2736 709.614 45.0719C709.668 45.0864 709.971 44.8202 710.49 44.2984C711.266 43.4766 713.233 41.6649 716.42 38.8591C716.409 38.8228 716.234 38.4466 715.904 37.7505L715.878 37.6988L715.414 36.6678L714.899 37.106C714.651 37.3236 714.412 37.5238 714.203 37.6989C713.646 38.1815 713.223 38.5354 712.939 38.7559L713.171 37.6989L714.538 31.1509H709.227V31.1505ZM581.875 32.3106C584.294 32.3106 585.587 33.2614 585.741 35.1722H576.641C576.899 34.7268 577.198 34.3369 577.569 33.9863C577.938 33.6378 578.353 33.3273 578.807 33.0839C579.273 32.8281 579.761 32.6447 580.276 32.5168C580.798 32.3784 581.335 32.309 581.875 32.3106ZM640.498 32.3106C642.917 32.3106 644.212 33.2614 644.365 35.1722H635.265C635.525 34.7268 635.825 34.3369 636.193 33.9863C636.563 33.6378 636.982 33.3273 637.43 33.0839C637.9 32.8281 638.384 32.6447 638.9 32.5168C639.421 32.3784 639.959 32.3091 640.498 32.3106ZM690.588 33.0841H691.929L691.336 35.9457H689.995L690.588 33.0841ZM700.462 33.445H701.261C701.372 33.7616 701.519 34.0644 701.7 34.3472H699.74L700.101 33.8832L700.462 33.445ZM673.187 33.5739L672.156 37.6986L670.196 45.4584H674.734L676.693 37.6986L677.724 33.5739H673.187ZM697.678 36.3839H700.9L700.642 37.6986L700.462 38.4464H698.245C698.328 38.17 698.402 37.9226 698.477 37.6986C698.563 37.4409 698.632 37.2213 698.709 37.0283C698.601 36.9664 698.535 36.9253 698.477 36.9253H697.136L697.678 36.3839Z" fill="#006CB6"/>
</g>
<g clip-path="url(#clip3_242_552)">
<path d="M405.711 23.2877H409.324V32.39C409.324 33.1031 408.952 33.7335 408.426 34.3188C408.143 34.5996 407.86 34.8383 407.529 35.0783C406.939 35.4882 406.3 35.6862 405.711 35.7521H402.08V23.2863H405.711V23.2877ZM404.943 25.6896V33.4246H406.473V25.6896H404.943ZM400.9 19.2364V25.1281C400.9 25.976 399.896 26.6667 399.476 27.0106C399.889 27.356 400.898 28.0284 400.898 28.8524V33.3839C400.898 34.1841 399.565 35.769 398.425 35.8322H396.719V36.8738C396.719 38.2818 395.119 39.6028 393.655 39.6028V19.2363H400.898L400.9 19.2364ZM397.326 21.7253H396.714V33.3825H397.893V27.4907H396.931C396.973 27.4907 396.997 27.4907 397.02 27.4669C397.043 27.4669 397.043 27.4669 397.043 27.4444L397.286 27.2043L397.328 27.1622C397.658 26.8183 397.894 26.2975 397.894 25.9704V21.7267H397.327L397.326 21.7253ZM414.242 19.2363C414.242 19.8849 413.757 21.7267 413.085 21.7267V36.7207C413.085 38.6917 411.007 39.6028 410.044 39.6028V21.7323H401.336V19.2405L414.242 19.2349V19.2363ZM436.475 37.236C435.884 38.1007 435.182 39.5972 434.42 39.5972H416.036V37.2374H424.178V35.3085H416.278V33.054H424.178V31.3891H416.278V19.2363H435.902V28.7064C435.836 29.6596 433.735 31.3961 432.425 31.3961H427.849V33.0624H436.033C435.619 33.8626 434.803 35.3128 433.889 35.3128H427.849V37.2416H436.475V37.236ZM427.856 29.1332H432.278V21.5512H427.856V24.1679H431.946C431.77 24.3434 430.394 26.0981 430.128 26.2498H430.086C429.845 26.4014 429.674 26.4884 429.431 26.4884H427.856V29.1318L427.856 29.1332ZM424.178 26.4912H419.844V29.1332H424.178V26.4912ZM424.178 21.5498H419.844V24.1693H424.178V21.5512V21.5498ZM458.613 36.9552C458.394 37.8031 457.013 39.5972 455.897 39.5972H441.046C439.469 39.5972 438.619 38.1653 438.619 36.7152V19.2363H458.09V28.42C458.024 29.3732 455.988 31.2136 454.847 31.2136H442.332V36.9552H458.615L458.613 36.9552ZM450.277 28.6123H454.41V21.832H450.277V28.6123ZM442.337 28.6123H446.712V21.832H442.337V28.6123ZM481.083 36.9566C480.864 37.8045 479.482 39.5986 478.366 39.5986H463.514C461.895 39.5986 461.087 38.1667 461.087 36.7165V19.2363H480.563V28.42C480.499 29.3732 478.462 31.2136 477.322 31.2136H464.765V36.9552H481.083V36.9566ZM472.747 28.6138H476.902V21.8334H472.747V28.6138ZM464.807 28.6138H469.139V21.8334H464.807L464.807 28.6138ZM392.848 42.4638C384.481 47.0585 376.002 51.267 366.634 53.1973C364.527 53.6297 362.23 53.6114 360.087 53.3251C358.044 53.0513 357.052 51.2558 357.772 49.3439C358.446 47.5498 359.372 45.7613 360.566 44.2579C363.115 41.0319 365.99 38.0614 368.57 34.8579C370.151 32.8837 371.574 30.7884 372.826 28.5913C373.73 27.0247 373.323 25.1534 371.729 24.3645C369.043 23.0379 366.156 22.1072 363.323 21.0852C362.997 20.9672 362.494 21.3238 361.863 21.5288C362.673 22.2658 363.286 22.8273 364.102 23.5643C355.67 25.0074 347.672 27.0879 339.914 29.9362C339.879 30.1047 339.813 30.2226 339.85 30.2801C340.988 32.0629 340.457 33.4204 338.798 34.5365C338.145 34.9642 337.573 35.5046 337.109 36.1326C342.216 37.6585 346.78 36.7868 351.119 33.8823C350.847 33.4836 350.605 33.127 350.34 32.741C351.992 33.0218 352.972 33.9399 353.103 35.3717C353.131 35.6876 352.926 36.0217 352.831 36.3488C352.589 36.0849 352.324 35.8406 352.117 35.5486C351.987 35.3661 351.957 35.1205 351.845 34.8046C346.673 38.3141 341.113 39.1957 334.971 37.3722C334.971 38.5935 334.914 39.6281 334.991 40.6571C335.056 41.5457 334.682 41.9205 333.921 42.388C332.138 43.4801 330.313 44.62 328.856 46.0828C327.079 47.8712 327.74 50.0275 330.125 50.94C332.842 51.9816 335.693 51.9984 338.527 51.6531C341.886 51.2446 345.222 50.6887 348.863 50.151C344.561 52.1866 340.363 53.6241 335.899 54.2137C332.794 54.6236 329.689 54.851 326.602 53.968C322.185 52.7045 320.214 49.3859 321.377 44.971C322.469 40.8269 325.06 37.5237 327.882 34.4718C337.276 24.3167 349.147 19.1563 362.897 18.1371C366.102 17.9027 369.349 18.3182 372.355 19.6982C376.587 21.6439 378.335 25.7542 376.292 29.9109C374.941 32.6638 373.069 35.2018 371.227 37.6866C369.408 40.1419 367.319 42.4034 365.388 44.7829C364.812 45.4856 364.308 46.2436 363.883 47.0458C363.08 48.5591 363.63 49.5881 365.358 49.4182C368.99 49.0617 372.679 48.7753 376.18 47.8642C381.322 46.5194 386.33 44.6495 391.395 43C391.884 42.8428 392.363 42.6434 392.846 42.4624L392.848 42.4638ZM411.237 53.0513V46.6429H413.728V53.0512H411.236L411.237 53.0513ZM411.188 45.7094V43.9336H413.774V45.7052H411.188V45.7094ZM407.157 53.0513V43.9307H409.595V53.0513L407.157 53.0513ZM471.714 53.0513V46.6429H472.658V47.6312C473.006 47.2872 473.154 47.0416 473.502 46.8422C473.85 46.5965 474.198 46.5446 474.647 46.5446C475.097 46.5446 475.546 46.591 475.893 46.8422C476.093 47.0416 476.289 47.2872 476.442 47.6312C476.99 46.8942 477.635 46.5502 478.484 46.5502C479.081 46.5502 479.63 46.6485 480.025 47.0935C480.327 47.4388 480.475 47.9821 480.475 48.6714V53.0569H479.383V49.0631C479.383 48.5717 479.383 48.2741 479.335 48.1281C479.287 47.9302 479.086 47.7828 478.939 47.6368C478.705 47.5317 478.451 47.4817 478.195 47.4908C477.699 47.4908 477.298 47.6368 477.051 47.8839C476.802 48.1815 476.655 48.6714 476.655 49.4084V53.0569H475.609V48.9171C475.624 48.5343 475.519 48.1564 475.309 47.8361C475.108 47.5905 474.813 47.4908 474.41 47.4908C474.01 47.4908 473.714 47.5905 473.568 47.7365C473.266 47.8361 473.071 48.0818 472.971 48.4734C472.87 48.6714 472.823 49.1164 472.823 49.8071V53.0569L471.714 53.0513ZM462.308 52.2679C461.96 52.5122 461.264 53.2548 459.917 53.2548C458.123 53.2548 456.381 51.8763 456.381 49.8534C456.381 47.7308 458.075 46.3045 459.919 46.3045C461.264 46.3045 461.96 47.0415 462.309 47.3855C462.161 47.6311 461.96 48.2222 461.812 48.4201C461.592 48.1243 461.308 47.8819 460.981 47.711C460.654 47.5402 460.293 47.4452 459.924 47.4332C458.577 47.4332 457.486 48.5141 457.486 49.8477C457.486 51.18 458.578 52.2146 459.924 52.2146C460.668 52.2146 461.365 51.8692 461.812 51.1336C462.008 51.6713 462.256 52.0166 462.309 52.2679H462.308ZM454.091 52.1149H454.988V53.0512H454.09V52.1149H454.091ZM402.179 43.9363H399.045L394.27 53.0569H397.056L397.9 51.2319H402.977L403.773 53.0569H406.761L402.18 43.9363H402.179ZM398.743 49.4561L400.484 45.9073L402.079 49.4561L398.743 49.4561ZM423.086 47.4332C422.436 46.7903 421.692 46.4969 420.747 46.4969C420.351 46.4969 419.949 46.5446 419.601 46.5966C419.005 46.7959 418.31 47.2395 417.861 47.6312V43.9364H415.369V52.3142C415.369 52.5136 415.369 52.8056 415.321 53.0512H417.813C417.813 52.9053 417.861 52.8056 417.861 52.6062V51.917C418.209 52.3086 418.557 52.6525 419.205 52.9979C419.601 53.1972 420.351 53.2435 420.599 53.2435C421.644 53.2435 422.441 52.9459 423.091 52.3086C423.639 51.6657 423.887 50.8823 423.887 49.8407C423.882 48.7654 423.634 47.9765 423.084 47.4332L423.086 47.4332ZM420.896 51.2319C420.647 51.531 420.198 51.6769 419.601 51.6769C419.054 51.6769 418.605 51.5309 418.31 51.2319C417.96 50.888 417.813 50.443 417.813 49.8534C417.813 49.2104 417.96 48.6714 418.308 48.2741C418.657 47.9302 419.052 47.7828 419.601 47.7828C420.15 47.7828 420.598 47.9302 420.894 48.2741C421.242 48.6194 421.39 49.1108 421.39 49.7537C421.39 50.3967 421.242 50.8824 420.894 51.2319H420.896ZM442.047 47.4332C441.75 47.1279 441.394 46.8871 441 46.726C440.606 46.5649 440.183 46.4869 439.757 46.4969C439.308 46.4969 438.96 46.5446 438.612 46.5966C437.963 46.8101 437.369 47.1633 436.871 47.6312V43.9364H434.378V52.3142C434.378 52.5136 434.378 52.8056 434.331 53.0512H436.823C436.823 52.9053 436.87 52.8056 436.87 52.6062V51.917C437.218 52.3086 437.566 52.6525 438.216 52.9979C438.612 53.1972 439.26 53.2435 439.608 53.2435C440.654 53.2435 441.498 52.9459 442.047 52.3086C442.596 51.719 442.892 50.8823 442.892 49.8407C442.898 48.7654 442.597 47.9765 442.047 47.4332ZM439.91 51.2319C439.662 51.531 439.214 51.6769 438.617 51.6769C438.021 51.6769 437.573 51.5309 437.271 51.2319C436.971 50.9343 436.822 50.4964 436.822 49.8534C436.822 49.1627 436.971 48.6194 437.271 48.2741C437.619 47.9302 438.068 47.7828 438.617 47.7828C439.166 47.7828 439.614 47.9302 439.91 48.2741C440.211 48.6194 440.359 49.1108 440.359 49.7537C440.359 50.3967 440.205 50.8824 439.91 51.2319ZM432.744 52.706V48.9578C432.744 48.1688 432.442 47.5792 431.799 47.1342C431.302 46.7425 430.405 46.5446 429.112 46.5446H428.865C427.72 46.5446 426.874 46.6906 426.279 47.036C425.683 47.3799 425.334 47.8712 425.187 48.5605H427.677C427.782 48.3342 427.951 48.1438 428.163 48.013C428.375 47.8822 428.621 47.8168 428.871 47.8249H429.118C429.567 47.8249 429.768 47.9232 430.016 48.1225C430.217 48.2685 430.317 48.5142 430.317 48.9114V49.0574H428.876C427.931 49.0574 427.282 49.1052 426.933 49.1571C426.438 49.2035 426.09 49.3031 425.841 49.5024C425.493 49.7481 425.193 49.9938 425.045 50.2394C424.896 50.6311 424.797 50.975 424.797 51.3204C424.797 51.91 425.045 52.355 425.493 52.7003C425.942 53.0443 426.585 53.2436 427.383 53.2436C427.932 53.2436 428.427 53.1972 428.876 53.0443C429.425 52.8983 430.121 52.501 430.37 52.1093V52.2553C430.37 52.7003 430.418 52.946 430.517 53.0443H432.855C432.79 53.0036 432.742 52.8576 432.742 52.7059L432.744 52.706ZM430.298 50.3448C430.298 50.888 430.098 51.232 429.904 51.4777C429.556 51.625 429.355 51.823 428.959 51.8707H428.464C428.114 51.8707 427.814 51.823 427.666 51.6714C427.465 51.5254 427.364 51.3723 427.364 51.1281C427.364 50.7827 427.565 50.5371 427.961 50.4374C428.108 50.3911 428.41 50.2914 428.859 50.2395H430.305L430.298 50.3448ZM451.753 52.706V48.9578C451.753 48.1688 451.452 47.5792 450.854 47.1342C450.307 46.7425 449.362 46.5446 448.117 46.5446H447.868C446.723 46.5446 445.926 46.6429 445.283 47.036C445.003 47.1931 444.764 47.4123 444.583 47.6766C444.402 47.941 444.284 48.2433 444.238 48.5605H446.728C446.776 48.2166 447.124 47.8249 447.874 47.8249H448.122C448.517 47.8249 448.819 47.9232 449.02 48.1225C449.22 48.2208 449.32 48.4678 449.32 48.9114V49.0574H447.88C446.935 49.0574 446.34 49.1052 445.938 49.1571C445.441 49.2035 445.04 49.3031 444.793 49.5024C444.497 49.6954 444.244 49.9461 444.049 50.2394C443.901 50.5371 443.848 50.8824 443.848 51.3204C443.848 51.9633 444.049 52.4013 444.444 52.7003C444.992 53.0443 445.638 53.2436 446.386 53.2436C446.935 53.2436 447.432 53.1972 447.88 53.0443C448.429 52.8983 449.173 52.501 449.373 52.1093V52.2553C449.373 52.7003 449.421 52.9923 449.574 53.0443H451.865C451.806 53.0036 451.753 52.8576 451.753 52.706ZM449.314 50.3448C449.314 50.888 449.167 51.232 448.865 51.4777C448.618 51.625 448.37 51.823 447.968 51.8707H447.519C447.172 51.8707 446.924 51.823 446.677 51.6714C446.474 51.5717 446.375 51.3723 446.375 51.1281C446.375 50.7827 446.575 50.5371 446.971 50.4374C447.119 50.3911 447.366 50.2914 447.815 50.2395H449.309V50.3448H449.314ZM466.684 46.299C464.741 46.299 463.247 47.8769 463.247 49.8478C463.253 50.7541 463.619 51.6209 464.263 52.2584C464.907 52.896 465.777 53.2523 466.684 53.2492C468.625 53.2492 470.165 51.6714 470.165 49.8478C470.172 47.8769 468.625 46.299 466.684 46.299ZM466.684 52.2146C465.336 52.2146 464.345 51.18 464.345 49.8478C464.345 48.5142 465.343 47.4332 466.684 47.4332C468.023 47.4332 469.074 48.5142 469.074 49.8478C469.074 51.18 468.03 52.2146 466.684 52.2146Z" fill="#FF6003"/>
</g>
<g clip-path="url(#clip4_242_552)">
<path d="M848.143 41.4996H851.312V44.025H848.143V41.4996Z" fill="#07285A"/>
<path d="M848.151 44.8503H851.331L851.324 51.5404L848.151 52.5967V44.8503Z" fill="#07285A"/>
<path d="M865.934 41.4616L865.086 43.8468H858.555V46.198H865.476L864.454 48.606H858.555V51.6727L855.125 52.6344V41.4616H865.934ZM869.099 41.5752L872.446 41.5828V49.9311L879.288 49.916L878.265 52.517L869.099 52.5132V41.5752ZM876.531 41.454H880.609L884.047 45.6566L887.341 41.454H891.426L885.663 48.8066V51.7976L882.358 52.6419V48.8293L876.531 41.454ZM905.745 41.4616L904.726 44.0134H901.281V51.7901L897.953 52.6344V44.0134H893.633V41.4616H905.745ZM907.725 41.5676H919.015L918.156 43.8847H911.11V46.0163H918.534L917.8 48.1024H911.11V50.2529H919.015L918.156 52.5284H907.725V41.5676ZM920.829 41.56H924.217V45.668H925.054L929.359 41.5222H933.66L928.181 46.8606L934.33 52.4526H929.628L925.054 48.1668H924.217V51.8734L920.829 52.5738V41.56ZM848.272 37.9481L849.086 27.419H851.744L851.002 37.172L848.272 37.9481ZM864.2 19.8506H867.218V32.6589L868.698 32.587L867.838 34.9647L867.218 35.0139V37.9481L864.2 39.0877V35.135L858.737 35.4985V33.1473L864.2 32.7801V19.8506ZM857.828 27.419L858.521 37.5619L855.912 36.3958L855.265 27.419H857.828Z" fill="#07285A"/>
<path d="M854.932 26.3779V37.5128L852.032 38.8455V26.3779H848.344V24.1213H852.032V22.5918L848.537 22.906V20.5056L858.521 19.6575L857.877 22.0087L854.932 22.3495V24.1213H858.521L857.419 26.3779H854.932ZM860.94 27.2032L863.36 29.3121L861.111 31.5686L858.691 29.4559L860.94 27.2032ZM860.967 21.1379L863.386 23.2468L861.133 25.4806L858.691 23.3906L860.967 21.1379ZM896.17 20.1157L898.54 22.1791L896.314 24.3864L893.944 22.3229L896.17 20.1157ZM900.145 28.1005H902.326V22.7129H900.289V20.2633H912.336V36.2028H913.919L912.719 38.5312L908.891 38.5539L908.914 22.7129H905.726V28.1005H908.433L907.214 30.5274H905.726V37.1947L902.326 38.6751V30.5274H900.145V28.1005ZM893.467 26.3779H898.158L898.184 35.3774L900.316 35.0139L899.165 37.7551L894.758 38.9174V28.8047H893.467V26.3779ZM883.047 23.2468H891.259L890.017 25.6964H883.286L891.524 38.5539H887.068L881.177 29.2401L875.528 38.5539H871.023L879.049 25.6964H871.553V23.2468H879.288V20.1157H883.025L883.047 23.2468ZM928.48 36.4943L934.205 36.5208L932.933 38.8265H928.48V36.4943ZM928.48 33.7759V29.9671L929.726 31.2051C929.962 31.4661 930.246 31.6794 930.563 31.8336C930.922 31.9271 931.293 31.9679 931.664 31.9548H934.205V34.287H930.903C930.293 34.3201 929.68 34.2627 929.086 34.1166C928.865 34.0453 928.662 33.9293 928.488 33.7759M928.488 26.7868V24.2425C928.675 24.0632 928.837 23.8594 928.969 23.6367L931.028 20.3618H934.212L931.184 25.6623C931.052 25.8631 930.901 26.0507 930.733 26.2226C930.57 26.4101 930.37 26.5621 930.146 26.6694C929.722 26.7654 929.286 26.8061 928.851 26.7905L928.488 26.7868ZM924.009 20.3504L920.874 36.4829H928.48V38.8114L916.895 38.8L920.177 22.7621H916.138V20.3618L924.009 20.3504ZM928.48 24.2425C928.458 24.2652 928.408 24.2917 928.386 24.3144C928.187 24.4204 927.963 24.4701 927.738 24.4583H923.214L922.756 26.7868H928.48V24.2425ZM928.48 29.9671L927.212 28.7063H923.687L927.875 33.1928C928.056 33.4051 928.256 33.6002 928.473 33.7759L928.48 29.9671ZM822.655 49.9879C811.392 55.6671 799.844 57.1626 796.789 48.0949C796.755 48.0031 796.726 47.9096 796.702 47.8147C796.337 46.0764 796.353 44.28 796.747 42.5483C799.878 26.1923 820.236 13.7285 820.236 13.7285C819.539 14.1071 818.869 14.5122 818.207 14.906C803.278 23.4436 796.187 32.5151 793.631 39.2544C791.719 44.2974 792.332 47.5648 792.609 48.5606C792.989 49.9455 793.694 51.22 794.665 52.2785C799.208 57.3367 807.015 56.2426 813.095 54.2549C816.425 53.1781 819.63 51.7477 822.655 49.9879Z" fill="#07285A"/>
<path d="M840.794 21.5392C841.245 21.4181 840.961 21.4711 842.048 21.2098C840.298 20.854 829.66 21.3689 821.535 31.8109L814.379 21.2629H811.607L820.119 33.757C819.903 34.0788 819.691 34.4006 819.482 34.7376L819.342 34.9723L809.968 21.2629H807.2L818.108 37.2023C817.899 37.5733 817.668 37.9684 817.415 38.3874L805.678 21.2515H802.933L816.086 40.4962C813.012 45.0395 807.886 50.7868 800.215 52.3505C800.215 52.3505 813.413 53.4863 821.224 42.9799L827.589 52.3467H830.36L822.587 40.9316C822.712 40.7196 822.837 40.5038 822.966 40.2842L823.265 39.7541L831.859 52.3467H834.631L824.537 37.5809C824.779 37.2023 825.04 36.7707 825.321 36.3315L836.278 52.3467H839.049L826.68 34.287C830.125 29.278 835.388 22.9931 840.802 21.5392" fill="#07285A"/>
</g>
<defs>
<clipPath id="clip0_242_552">
<rect width="145.496" height="41.9091" fill="white" transform="translate(593.294 110.09)"/>
</clipPath>
<clipPath id="clip1_242_552">
<rect width="262.691" height="42.1141" fill="white" transform="translate(0.223755 13.9991)"/>
</clipPath>
<clipPath id="clip2_242_552">
<rect width="170.897" height="70.0677" fill="white" transform="translate(557.461 0.0227051)"/>
</clipPath>
<clipPath id="clip3_242_552">
<rect width="160" height="66" fill="white" transform="translate(321.461 2.05664)"/>
</clipPath>
<clipPath id="clip4_242_552">
<rect width="145.496" height="41.9091" fill="white" transform="translate(788.28 14.1023)"/>
</clipPath>
</defs>
</svg>
