<svg width="14" height="14" viewBox="0 0 14 14" fill="none" xmlns="http://www.w3.org/2000/svg">
<path fill-rule="evenodd" clip-rule="evenodd" d="M9.18465 2.09617C8.12738 1.62508 6.94615 1.50838 5.81713 1.76346C4.68811 2.01855 3.6718 2.63176 2.91976 3.51164C2.16773 4.39153 1.72026 5.49093 1.6441 6.6459C1.56794 7.80087 1.86717 8.94951 2.49716 9.92053C3.12715 10.8915 4.05415 11.6329 5.13989 12.034C6.22564 12.4351 7.41197 12.4746 8.52194 12.1464C9.63192 11.8182 10.6061 11.14 11.2991 10.2129C11.9922 9.28587 12.367 8.15961 12.3676 7.00214V6.44737C12.3676 6.07918 12.6661 5.7807 13.0343 5.7807C13.4025 5.7807 13.701 6.07918 13.701 6.44737V7.00252C13.7001 8.44752 13.2322 9.85392 12.367 11.0113C11.5018 12.1686 10.2857 13.0153 8.89999 13.425C7.51429 13.8347 6.03328 13.7855 4.67782 13.2847C3.32237 12.784 2.16511 11.8584 1.37862 10.6462C0.592141 9.43401 0.218582 8.00004 0.313659 6.55817C0.408735 5.1163 0.967353 3.7438 1.9062 2.64535C2.84505 1.5469 4.11382 0.781363 5.52329 0.462912C6.93276 0.14446 8.40741 0.290156 9.72732 0.878271C10.0636 1.02812 10.2148 1.42224 10.0649 1.75856C9.91508 2.09487 9.52096 2.24603 9.18465 2.09617ZM13.5055 1.70003C13.7659 1.96025 13.7661 2.38236 13.5059 2.64284L7.47168 8.68312C7.34668 8.80824 7.17708 8.87857 7.00021 8.87862C6.82334 8.87866 6.6537 8.80842 6.52864 8.68335L4.71837 6.87308C4.45802 6.61273 4.45802 6.19062 4.71837 5.93027C4.97872 5.66992 5.40083 5.66992 5.66117 5.93027L6.99981 7.2689L12.5626 1.7005C12.8229 1.44002 13.245 1.43981 13.5055 1.70003Z" fill="#8A95A7"/>
</svg>
