<svg width="24" height="24" viewBox="0 0 24 24" fill="none" xmlns="http://www.w3.org/2000/svg">
<g id="icon/solid/rmb">
<path id="Subtract" fill-rule="evenodd" clip-rule="evenodd" d="M12 22.164C17.6139 22.164 22.165 17.613 22.165 11.999C22.165 6.38501 17.6139 1.83398 12 1.83398C6.38599 1.83398 1.83496 6.38501 1.83496 11.999C1.83496 17.613 6.38599 22.164 12 22.164ZM7.76385 6.70387C8.15198 6.39336 8.71834 6.45629 9.02885 6.84443L12 10.5583L14.9711 6.84443C15.2816 6.45629 15.8479 6.39336 16.2361 6.70387C16.6242 7.01438 16.6871 7.58074 16.3766 7.96888L13.8725 11.099H15.6738C16.1709 11.099 16.5738 11.502 16.5738 11.999C16.5738 12.4961 16.1709 12.899 15.6738 12.899H12.9V13.8544H15.2146C15.7117 13.8544 16.1146 14.2574 16.1146 14.7544C16.1146 15.2515 15.7117 15.6544 15.2146 15.6544H12.9V17.5098C12.9 18.0069 12.497 18.4098 12 18.4098C11.5029 18.4098 11.1 18.0069 11.1 17.5098V15.6544H8.78531C8.28825 15.6544 7.88531 15.2515 7.88531 14.7544C7.88531 14.2574 8.28825 13.8544 8.78531 13.8544H11.1V12.899H8.32607C7.82901 12.899 7.42607 12.4961 7.42607 11.999C7.42607 11.502 7.82901 11.099 8.32607 11.099H10.1274L7.62329 7.96888C7.31278 7.58074 7.37571 7.01438 7.76385 6.70387Z" fill="#1DBADD"/>
</g>
</svg>
