<svg width="24" height="24" viewBox="0 0 24 24" fill="none" xmlns="http://www.w3.org/2000/svg">
<g id="icon/solid/safety">
<path id="Subtract" fill-rule="evenodd" clip-rule="evenodd" d="M3.46956 4.31517C3.18857 4.41195 2.99997 4.67639 2.99997 4.97358V13.3829C2.99997 18.3535 7.02941 22.3829 12 22.3829C16.9705 22.3829 21 18.3535 21 13.3829V4.97445C21 4.67684 20.8108 4.41213 20.5293 4.31569L13.2747 1.83082C12.4323 1.54229 11.5178 1.54307 10.6759 1.83304L3.46956 4.31517ZM17.1623 8.95619C17.5528 9.34672 17.5528 9.97988 17.1623 10.3704L12.0827 15.45C12.0727 15.46 12.0624 15.4699 12.052 15.4794C11.6599 15.8438 11.0464 15.8351 10.6648 15.4534L7.65704 12.4457C7.26651 12.0552 7.26651 11.422 7.65704 11.0315C8.04756 10.641 8.68073 10.641 9.07125 11.0315L11.372 13.3323L15.7481 8.95619C16.1386 8.56567 16.7718 8.56567 17.1623 8.95619Z" fill="#909FF3"/>
</g>
</svg>
