<svg width="65" height="65" viewBox="0 0 65 65" fill="none" xmlns="http://www.w3.org/2000/svg">
<g id="icon/solid/rmb" filter="url(#filter0_d_3284_5961)">
<path id="Subtract" fill-rule="evenodd" clip-rule="evenodd" d="M32.6217 41.1325C40.107 41.1325 46.175 35.0645 46.175 27.5792C46.175 20.0939 40.107 14.0259 32.6217 14.0259C25.1364 14.0259 19.0684 20.0939 19.0684 27.5792C19.0684 35.0645 25.1364 41.1325 32.6217 41.1325ZM26.9735 20.5191C27.4911 20.105 28.2462 20.189 28.6602 20.7065L32.6217 25.6583L36.5831 20.7065C36.9972 20.189 37.7523 20.105 38.2698 20.5191C38.7873 20.9331 38.8712 21.6882 38.4572 22.2057L35.1184 26.3792H37.5202C38.1829 26.3792 38.7202 26.9165 38.7202 27.5792C38.7202 28.242 38.1829 28.7792 37.5202 28.7792H33.8217V30.0531H36.9079C37.5706 30.0531 38.1079 30.5904 38.1079 31.2531C38.1079 31.9159 37.5706 32.4531 36.9079 32.4531H33.8217V34.927C33.8217 35.5897 33.2844 36.127 32.6217 36.127C31.9589 36.127 31.4217 35.5897 31.4217 34.927V32.4531H28.3355C27.6727 32.4531 27.1355 31.9159 27.1355 31.2531C27.1355 30.5904 27.6727 30.0531 28.3355 30.0531H31.4217V28.7792H27.7232C27.0604 28.7792 26.5232 28.242 26.5232 27.5792C26.5232 26.9165 27.0604 26.3792 27.7232 26.3792H30.1249L26.7861 22.2057C26.3721 21.6882 26.456 20.9331 26.9735 20.5191Z" fill="#219BF4"/>
</g>
<defs>
<filter id="filter0_d_3284_5961" x="-1.88256" y="-2.29864" width="69.0073" height="69.0073" filterUnits="userSpaceOnUse" color-interpolation-filters="sRGB">
<feFlood flood-opacity="0" result="BackgroundImageFix"/>
<feColorMatrix in="SourceAlpha" type="matrix" values="0 0 0 0 0 0 0 0 0 0 0 0 0 0 0 0 0 0 127 0" result="hardAlpha"/>
<feOffset dy="4.62591"/>
<feGaussianBlur stdDeviation="9.25183"/>
<feColorMatrix type="matrix" values="0 0 0 0 0.227451 0 0 0 0 0.582824 0 0 0 0 1 0 0 0 0.28 0"/>
<feBlend mode="normal" in2="BackgroundImageFix" result="effect1_dropShadow_3284_5961"/>
<feBlend mode="normal" in="SourceGraphic" in2="effect1_dropShadow_3284_5961" result="shape"/>
</filter>
</defs>
</svg>
