<?xml version="1.0" standalone="no"?><!DOCTYPE svg PUBLIC "-//W3C//DTD SVG 1.1//EN" "http://www.w3.org/Graphics/SVG/1.1/DTD/svg11.dtd"><svg t="1733388185870" class="icon" viewBox="0 0 1024 1024" version="1.1" xmlns="http://www.w3.org/2000/svg" p-id="23209" xmlns:xlink="http://www.w3.org/1999/xlink" width="2000" height="2000"><path d="M534.528 927.744H160.256c-17.92 0-31.744-14.336-31.744-31.744V160.256c0-34.304 27.648-61.952 61.952-61.952h314.368c34.304 0 61.952 27.648 61.952 61.952v735.232c0 17.92-14.336 32.256-32.256 32.256z m-342.528-64h310.272v-701.44H192v701.44z" fill="#263162" p-id="23210"></path><path d="M661.504 927.744h-125.952c-17.92 0-31.744-14.336-31.744-31.744V250.88c0-10.24 5.12-19.968 13.312-26.112 8.192-6.144 18.944-7.68 28.672-4.608l241.152 77.312c26.112 8.192 43.52 32.768 43.52 60.928v66.56c0 17.92-14.336 31.744-31.744 31.744-17.92 0-31.744-14.336-31.744-31.744V358.4l-198.144-63.488v568.832h94.208c17.92 0 31.744 14.336 31.744 31.744-1.024 17.92-15.36 32.256-33.28 32.256z" fill="#263162" p-id="23211"></path><path d="M535.552 927.744H96.256c-17.92 0-32.256-14.336-32.256-31.744s14.336-31.744 32.256-31.744h439.296v63.488z m405.504-275.456h-16.896c-6.656 0-12.288-4.096-14.848-10.24-1.024-2.56-2.048-4.608-3.072-7.168-2.56-6.144-1.536-13.312 3.072-17.92l11.776-11.776c6.144-6.144 6.144-16.384 0-22.528l-22.528-22.528c-6.144-6.144-16.384-6.144-22.528 0l-11.776 11.776c-4.608 4.608-11.776 6.144-17.92 3.072-2.048-1.024-4.608-2.048-7.168-3.072-6.144-2.048-10.24-8.192-10.24-14.848v-16.896c0-8.704-7.168-15.872-15.872-15.872h-31.744c-8.704 0-15.872 7.168-15.872 15.872v16.896c0 6.656-4.096 12.288-10.24 14.848-2.56 1.024-4.608 2.048-7.168 3.072-6.144 2.56-13.312 1.536-17.92-3.072l-11.776-11.776c-6.144-6.144-16.384-6.144-22.528 0l-22.528 22.528c-6.144 6.144-6.144 16.384 0 22.528l11.776 11.776c4.608 4.608 6.144 11.776 3.072 17.92-1.024 2.048-2.048 4.608-3.072 7.168-2.048 6.144-8.192 10.24-14.848 10.24h-16.896c-8.704 0-15.872 7.168-15.872 15.872v31.744c0 8.704 7.168 15.872 15.872 15.872h16.896c6.656 0 12.288 4.096 14.848 10.24 1.024 2.56 2.048 4.608 3.072 7.168 2.56 6.144 1.536 13.312-3.072 17.92l-12.288 11.776c-6.144 6.144-6.144 16.384 0 22.528l22.528 22.528c6.144 6.144 16.384 6.144 22.528 0l11.776-11.776c4.608-4.608 11.776-6.144 17.92-3.072 2.048 1.024 4.608 2.048 7.168 3.072 6.144 2.048 10.24 8.192 10.24 14.848v16.896c0 8.704 7.168 15.872 15.872 15.872h31.744c8.704 0 15.872-7.168 15.872-15.872v-16.896c0-6.656 4.096-12.288 10.24-14.848 2.56-1.024 4.608-2.048 7.168-3.072 6.144-2.56 13.312-1.536 17.92 3.072l11.776 11.776c6.144 6.144 16.384 6.144 22.528 0l22.528-22.528c6.144-6.144 6.144-16.384 0-22.528l-11.776-11.776c-4.608-4.608-6.144-11.776-3.072-17.92 1.024-2.048 2.048-4.608 3.072-7.168 2.048-6.144 8.192-10.24 14.848-10.24h16.896c8.704 0 15.872-7.168 15.872-15.872v-31.744c0.512-8.704-6.656-15.872-15.36-15.872z m-143.872 87.552c-30.72 0-55.808-25.088-55.808-55.808s25.088-55.808 55.808-55.808 55.808 25.088 55.808 55.808-25.088 55.808-55.808 55.808zM410.624 320H284.16c-17.408 0-31.744-14.336-31.744-31.744 0-17.408 14.336-31.744 31.744-31.744h125.952c17.408 0 31.744 14.336 31.744 31.744 0.512 16.896-13.824 31.744-31.232 31.744z m0 192H284.16c-17.408 0-31.744-14.336-31.744-31.744s14.336-31.744 31.744-31.744h125.952c17.408 0 31.744 14.336 31.744 31.744s-13.824 31.744-31.232 31.744z m0 192H284.16c-17.408 0-31.744-14.336-31.744-31.744 0-17.408 14.336-31.744 31.744-31.744h125.952c17.408 0 31.744 14.336 31.744 31.744 0.512 17.408-13.824 31.744-31.232 31.744z" fill="#263162" p-id="23212"></path></svg>