<?xml version="1.0" standalone="no"?><!DOCTYPE svg PUBLIC "-//W3C//DTD SVG 1.1//EN" "http://www.w3.org/Graphics/SVG/1.1/DTD/svg11.dtd"><svg t="1733388148419" class="icon" viewBox="0 0 1024 1024" version="1.1" xmlns="http://www.w3.org/2000/svg" p-id="18033" xmlns:xlink="http://www.w3.org/1999/xlink" width="2000" height="2000"><path d="M203.12 511.872l269.728 120.032a95.92 95.92 0 0 0 78.272-0.16l249.84-112.176-30.928 274.976s-55.76 89.568-258.016 89.568c-202.272 0-273.36-88.064-273.36-88.064l-35.52-284.176z" fill="#263162" p-id="18034"></path><path d="M936.88 405.2c30.608-14.32 30.96-57.936 0.24-72.624L561.76 153.6a98.88 98.88 0 0 0-83.808-0.56L87.36 332.992c-31.312 14.416-31.072 59.04 0.416 73.168l383.264 171.392a98.592 98.592 0 0 0 80.608 0l335.84-150.192 49.408-22.16zM939.808 667.264h-2.928V462.08l-49.44 21.2v184h-2.944a8.08 8.08 0 0 0-8.096 8.08v88.816c0 4.448 3.6 8.096 8.096 8.096h55.312a8.08 8.08 0 0 0 8.096-8.096v-88.8a8.16 8.16 0 0 0-8.096-8.112z" fill="#263162" p-id="18035"></path></svg>