<svg width="17" height="16" viewBox="0 0 17 16" fill="none" xmlns="http://www.w3.org/2000/svg">
<g id="icon/line/share">
<path id="Union" fill-rule="evenodd" clip-rule="evenodd" d="M6.01992 1.64501L5.99147 1.6449C5.36272 1.64261 4.85001 1.64074 4.43434 1.67356C4.00491 1.70745 3.61844 1.78161 3.25983 1.96674C2.72094 2.24495 2.28404 2.68027 2.00387 3.21815C1.81758 3.5758 1.74194 3.96109 1.70644 4.3894C1.67211 4.80371 1.67211 5.31451 1.67212 5.94056V10.0685C1.67211 10.6897 1.67211 11.197 1.70631 11.6088C1.74169 12.0349 1.81711 12.4182 2.00237 12.7749C2.28068 13.3106 2.71751 13.7474 3.25326 14.0258C3.60992 14.211 3.99324 14.2864 4.41934 14.3218C4.83117 14.356 5.33842 14.356 5.95966 14.356H10.117C10.7382 14.356 11.2455 14.356 11.6573 14.3218C12.0834 14.2864 12.4667 14.211 12.8234 14.0258C13.3591 13.7474 13.796 13.3106 14.0743 12.7749C14.2595 12.4182 14.335 12.0349 14.3703 11.6088C14.4045 11.197 14.4045 10.6897 14.4045 10.0685V8.44907C14.4045 8.08088 14.1061 7.78241 13.7379 7.78241C13.3697 7.78241 13.0712 8.08088 13.0712 8.44907V10.0401C13.0712 10.6967 13.0707 11.1483 13.0416 11.4985C13.0132 11.8406 12.961 12.0256 12.8911 12.1602C12.7393 12.4525 12.501 12.6907 12.2088 12.8425C12.0741 12.9125 11.8891 12.9646 11.547 12.9931C11.1968 13.0221 10.7451 13.0227 10.0885 13.0227H5.98812C5.33151 13.0227 4.87981 13.0221 4.52968 12.9931C4.18753 12.9646 4.00251 12.9125 3.8679 12.8425C3.57566 12.6907 3.33739 12.4525 3.18559 12.1602C3.11566 12.0256 3.06348 11.8406 3.03507 11.4984C3.00599 11.1483 3.00545 10.6966 3.00545 10.04V5.96907C3.00545 5.30763 3.00599 4.85225 3.03522 4.49953C3.06381 4.15454 3.11634 3.96861 3.18641 3.83409C3.33951 3.54016 3.577 3.30353 3.87148 3.15151C4.00597 3.08207 4.19251 3.03013 4.53927 3.00275C4.89354 2.97479 5.351 2.97592 6.01508 2.97833C6.56815 2.98034 7.12436 2.98164 7.63623 2.98164C8.00442 2.98164 8.30289 2.68317 8.30289 2.31498C8.30289 1.94679 8.00442 1.64831 7.63623 1.64831C7.12647 1.64831 6.57196 1.64701 6.01992 1.64501ZM7.38291 7.7024C7.12257 7.96275 7.12257 8.38486 7.38291 8.64521C7.64326 8.90556 8.06537 8.90556 8.32572 8.64521L13.0712 3.89973V5.78228C13.0712 6.15047 13.3697 6.44895 13.7379 6.44895C14.1061 6.44895 14.4045 6.15047 14.4045 5.78228V2.37285C14.4048 2.36505 14.4049 2.35721 14.4049 2.34934C14.4049 1.98115 14.1065 1.68267 13.7383 1.68267C13.7382 1.68267 13.7383 1.68267 13.7383 1.68267H10.3053C9.93714 1.68267 9.63866 1.98115 9.63866 2.34934C9.63866 2.71753 9.93714 3.01601 10.3053 3.01601H12.0693L7.38291 7.7024Z" fill="#667085"/>
</g>
</svg>
