<svg width="212" height="181" viewBox="0 0 212 181" fill="none" xmlns="http://www.w3.org/2000/svg">
<rect y="0.957031" width="100" height="83.5429" rx="8" fill="#ECF5FF"/>
<g clip-path="url(#clip0_2911_514)">
<path d="M54.2571 26.9803H55.2198L57.9632 24.2369L58.0986 23.0717C56.5269 21.6844 54.6274 20.7207 52.5797 20.2716C50.5319 19.8225 48.4035 19.9029 46.3954 20.5051C44.3874 21.1073 42.566 22.2115 41.1034 23.7134C39.6407 25.2152 38.5851 27.0652 38.0361 29.0884C38.3412 28.9635 38.6806 28.9438 38.9988 29.0306L44.4856 28.1258C44.4856 28.1258 44.7657 27.6641 44.9091 27.6918C46.0851 26.4005 47.7101 25.6076 49.4516 25.4753C51.1931 25.3431 52.9193 25.8814 54.2768 26.9803H54.2571Z" fill="#EA4335"/>
<path d="M61.8722 29.0873C61.2409 26.7651 59.9456 24.6777 58.1451 23.0811L54.2943 26.9318C55.0966 27.5876 55.7396 28.4169 56.1747 29.3573C56.6098 30.2978 56.8258 31.3247 56.8063 32.3607V33.0446C57.7152 33.0446 58.587 33.4057 59.2297 34.0484C59.8724 34.6911 60.2335 35.5629 60.2335 36.4718C60.2335 37.3808 59.8724 38.2525 59.2297 38.8953C58.587 39.538 57.7152 39.8991 56.8063 39.8991H49.9544L49.2705 40.5922V44.702L49.9544 45.3859H56.8063C58.7207 45.4016 60.5894 44.8006 62.1357 43.6718C63.6821 42.5429 64.8238 40.9462 65.3921 39.1179C65.9604 37.2897 65.9249 35.3271 65.291 33.5205C64.657 31.714 63.4583 30.1596 61.8722 29.0873Z" fill="#4285F4"/>
<path d="M43.0905 45.3486H49.9451V39.8618H43.0905C42.6021 39.8614 42.1195 39.756 41.6755 39.5527L40.7128 39.8513L37.9497 42.5947L37.709 43.5573C39.2583 44.7275 41.149 45.3568 43.0905 45.3486Z" fill="#34A853"/>
<path d="M43.0894 27.5479C41.2321 27.5588 39.4246 28.1495 37.9194 29.2376C36.4142 30.3256 35.2865 31.8567 34.6937 33.6169C34.101 35.377 34.0728 37.2784 34.6132 39.0553C35.1536 40.8323 36.2355 42.396 37.7078 43.5282L41.6835 39.5525C41.1781 39.3243 40.7357 38.9768 40.3942 38.5399C40.0526 38.1031 39.8222 37.5899 39.7227 37.0444C39.6231 36.4989 39.6574 35.9374 39.8226 35.408C39.9878 34.8787 40.279 34.3973 40.6712 34.0053C41.0633 33.6133 41.5447 33.3222 42.0741 33.1572C42.6035 32.9921 43.165 32.958 43.7105 33.0577C44.256 33.1574 44.7691 33.388 45.2059 33.7296C45.6426 34.0713 45.99 34.5138 46.2181 35.0192L50.1938 31.0422C49.3593 29.9514 48.2837 29.0683 47.0513 28.4621C45.8188 27.8559 44.4628 27.543 43.0894 27.5479Z" fill="#FBBC05"/>
</g>
<path d="M42.1696 61.167C40.9289 60.5361 39.9721 59.8211 39.2782 59.0115C38.4475 59.8737 37.4697 60.5992 36.3447 61.167H42.1696ZM36.1239 61.2721C35.7454 61.4509 35.3669 61.6191 34.9778 61.7663L34.4206 60.9251C36.3973 60.1786 37.9323 59.2113 39.0153 58.0232H39.541C40.4242 59.1167 41.9383 60.084 44.0832 60.9251L43.5259 61.7663C43.1264 61.6086 42.7479 61.4509 42.4009 61.2826V65.5514H41.4231V65.1729H37.1017V65.5514H36.1239V61.2721ZM37.1017 64.2477H41.4231V62.0922H37.1017V64.2477ZM40.5714 56.0781C41.7595 56.8351 42.7584 57.6026 43.5785 58.3597L42.8635 59.0851C42.1591 58.3491 41.1707 57.5606 39.888 56.7194L40.5714 56.0781ZM37.6905 56.0781L38.416 56.7089C37.6169 57.5711 36.6181 58.3176 35.4405 58.959L34.8201 58.1599C35.9557 57.5606 36.9125 56.8666 37.6905 56.0781ZM45.5486 61.903H48.1667V64.0584H45.5486V61.903ZM47.3571 63.4381V62.5338H46.3582V63.4381H47.3571ZM50.7111 55.9098L51.6574 56.057C51.6049 56.4881 51.5523 56.8877 51.4892 57.2662H54.3596V57.9075C54.2229 58.8538 54.0442 59.7791 53.8234 60.7043L52.9086 60.452C53.0979 59.8211 53.2661 59.0746 53.3923 58.2335H51.2789C51.0476 59.1377 50.7637 59.8632 50.4062 60.3994L49.6177 59.8422C50.1854 58.8959 50.5534 57.5921 50.7111 55.9098ZM48.6503 57.14H45.3383V56.2358H50.0172V57.14H49.5756V60.084H48.6503V57.14ZM45.5381 57.7288H48.1457V59.8106H45.5381V57.7288ZM47.3361 59.2008V58.3491H46.3477V59.2008H47.3361ZM48.5978 65.5514H47.6094L47.4097 64.6682C47.7146 64.6998 47.9985 64.7208 48.2718 64.7208C48.5452 64.7208 48.6819 64.5841 48.6819 64.3318V61.3247H45.1701V60.431H50.238V61.3247H49.5966V64.5421C49.5966 64.6367 49.5861 64.7208 49.5756 64.7944C50.4062 64.1215 50.9635 63.3014 51.2369 62.3341C51.4366 61.4929 51.5418 60.4205 51.5523 59.0957H52.4986C52.4986 59.8527 52.4565 60.5361 52.3934 61.1565C52.8666 62.6705 53.6446 63.8902 54.7381 64.7944L54.0757 65.583C53.2346 64.7944 52.5827 63.8481 52.099 62.7441C51.7836 63.8902 51.1317 64.847 50.1329 65.604L49.5546 64.8995C49.4494 65.3306 49.1235 65.5514 48.5978 65.5514ZM56.7608 56.4145H64.3101V57.3818H56.7608V56.4145ZM55.7514 59.3165H65.2458V60.3153H60.2621C59.3578 62.1238 58.5693 63.417 57.8858 64.1951C59.6102 64.0899 61.3345 63.9112 63.0378 63.6694C62.7014 63.0701 62.3334 62.4497 61.9338 61.8189L62.7329 61.3247C63.6897 62.7441 64.4257 63.9848 64.9514 65.0362L64.0577 65.6566C63.8895 65.2991 63.7213 64.9416 63.532 64.5841C61.4186 64.8785 59.1265 65.1098 56.6451 65.2781L56.3823 64.2582C56.4874 64.2266 56.5715 64.1951 56.6241 64.1635C57.2655 63.6799 58.1066 62.3971 59.1475 60.3153H55.7514V59.3165Z" fill="#111824"/>
<rect x="112" y="0.957031" width="100" height="83.5429" rx="8" fill="#ECF5FF"/>
<g clip-path="url(#clip1_2911_514)">
<path d="M173.577 39.9917C173.075 40.5024 172.072 41.2684 170.316 41.2684H159.528C162.789 38.0765 165.549 35.3953 165.8 35.14C166.05 34.8846 166.678 34.2463 167.305 33.7356C168.559 32.5864 169.563 32.4589 170.441 32.4589C171.695 32.4589 172.699 32.9694 173.577 33.7356C175.333 35.3953 175.333 38.3319 173.577 39.9917ZM175.709 31.6927C174.455 30.2884 172.573 29.3945 170.566 29.3945C168.81 29.3945 167.305 30.0329 165.925 31.0544C165.423 31.5651 164.671 32.0757 164.044 32.8418C163.542 33.3525 152.754 44.0773 152.754 44.0773C153.381 44.205 154.134 44.205 154.761 44.205H168.434C169.437 44.205 170.19 44.205 170.943 44.0773C172.573 43.9497 174.204 43.3113 175.584 42.0345C178.469 39.2256 178.469 34.5016 175.709 31.6927Z" fill="#00A3FF"/>
<path d="M157.881 30.94C156.493 29.9098 155.106 29.3945 153.466 29.3945C151.448 29.3945 149.556 30.296 148.294 31.7128C145.519 34.6749 145.519 39.3111 148.42 42.2733C149.682 43.4324 150.943 44.0763 152.457 44.205L155.358 41.3718H153.718C152.078 41.2429 151.069 40.7278 150.439 40.0839C148.673 38.2809 148.673 35.4475 150.313 33.6445C151.195 32.743 152.205 32.3566 153.466 32.3566C154.223 32.3566 155.358 32.4854 156.493 33.6445C156.998 34.1596 158.385 35.19 158.89 35.7051H159.016L160.908 33.7733V33.6445C160.025 32.743 158.638 31.5839 157.881 30.94" fill="#00C8DC"/>
<path d="M171.238 27.6228C169.833 23.8253 166.13 21.167 161.915 21.167C156.934 21.167 152.975 24.8379 152.209 29.395C152.592 29.395 152.975 29.2685 153.486 29.2685C153.997 29.2685 154.636 29.395 155.146 29.395C155.785 26.2304 158.595 23.9519 161.915 23.9519C164.725 23.9519 167.151 25.5975 168.301 28.0026C168.301 28.0026 168.429 28.1292 168.429 28.0026C169.322 27.876 170.344 27.6228 171.238 27.6228C171.238 27.7494 171.238 27.7494 171.238 27.6228" fill="#006EFF"/>
</g>
<path d="M150.353 57.2662H151.015C150.889 56.9718 150.731 56.6879 150.542 56.4145L151.394 56.1096C151.583 56.4355 151.751 56.8246 151.899 57.2662H152.277C152.403 56.8246 152.487 56.3514 152.55 55.8467L153.518 55.9624C153.455 56.425 153.36 56.8561 153.255 57.2662H153.907C154.117 56.8877 154.285 56.4776 154.432 56.0465L155.326 56.383C155.168 56.7194 155.011 57.0138 154.843 57.2662H155.621V58.0863H153.003C152.918 58.3176 152.824 58.5279 152.729 58.7382H155.915V59.5688H154.432C154.853 59.9894 155.431 60.3258 156.167 60.5782L155.747 61.4509C155.358 61.2721 155.011 61.0723 154.716 60.8621C154.653 61.3773 154.58 61.8294 154.496 62.2079H155.6C155.557 63.9953 155.431 64.9942 155.2 65.2255C154.979 65.4358 154.506 65.5514 153.781 65.5514H153.328L153.076 64.7103C153.339 64.7208 153.581 64.7313 153.812 64.7313C154.138 64.7313 154.348 64.6787 154.453 64.5736C154.559 64.4685 154.622 63.9427 154.643 62.9965H150.731C150.931 62.3866 151.078 61.8399 151.173 61.3773L152.098 61.4614C152.025 61.7347 151.951 61.9766 151.888 62.2079H153.57C153.654 61.8925 153.717 61.556 153.781 61.1775H151.141V60.8621C150.847 61.1144 150.542 61.3457 150.206 61.5455L149.754 60.841V64.5841C149.754 65.215 149.428 65.5409 148.776 65.5409H148.092L147.861 64.6262C148.082 64.6577 148.292 64.6787 148.481 64.6787C148.702 64.6787 148.818 64.5315 148.818 64.2477V62.1343H147.819C147.756 63.5222 147.525 64.6577 147.136 65.5619L146.4 64.889C146.725 63.9743 146.894 62.8177 146.904 61.4088V56.2253H149.754V60.7254C150.3 60.4099 150.763 60.0314 151.141 59.5688H150.048V58.7382H151.699C151.814 58.5279 151.92 58.3071 152.014 58.0863H150.353V57.2662ZM151.646 60.3784H154.128C153.854 60.1155 153.644 59.8422 153.476 59.5688H152.267C152.067 59.8632 151.856 60.1261 151.646 60.3784ZM147.84 59.6634V61.188H148.818V59.6634H147.84ZM148.818 58.7277V57.161H147.84V58.7277H148.818ZM150.132 63.4801H153.959V64.3213H150.132V63.4801ZM160.156 59.9158H161.649V57.2662H160.335V56.3094H165.287V59.6424C165.287 61.6401 165.413 63.028 165.666 63.7955C165.771 64.1215 165.876 64.2897 165.96 64.2897C165.992 64.2897 166.023 64.1425 166.044 63.8481C166.065 63.5537 166.086 63.2067 166.086 62.7862L166.864 63.1542C166.822 64.1846 166.728 64.8365 166.58 65.1203C166.475 65.3306 166.339 65.4358 166.181 65.4358C165.75 65.4253 165.382 65.1834 165.077 64.7103C164.562 63.8797 164.299 62.1869 164.299 59.6424V57.2662H162.617V59.9158H163.952V60.8726H162.617V65.5935H161.649V60.8726H160.156V59.9158ZM158.379 55.9624C159.042 56.4776 159.599 56.9928 160.051 57.5185L159.368 58.2125C158.968 57.7183 158.4 57.1926 157.685 56.6458L158.379 55.9624ZM157.023 59.0115H159.378V63.4381C159.662 63.1752 159.967 62.8808 160.293 62.5549L160.556 63.6063C159.925 64.2266 159.241 64.7839 158.526 65.2675L158.148 64.3738C158.316 64.2161 158.411 64.0269 158.411 63.7955V59.9683H157.023V59.0115ZM168.761 56.4145H176.31V57.3818H168.761V56.4145ZM167.751 59.3165H177.246V60.3153H172.262C171.358 62.1238 170.569 63.417 169.886 64.1951C171.61 64.0899 173.335 63.9112 175.038 63.6694C174.701 63.0701 174.333 62.4497 173.934 61.8189L174.733 61.3247C175.69 62.7441 176.426 63.9848 176.951 65.0362L176.058 65.6566C175.889 65.2991 175.721 64.9416 175.532 64.5841C173.419 64.8785 171.127 65.1098 168.645 65.2781L168.382 64.2582C168.487 64.2266 168.572 64.1951 168.624 64.1635C169.265 63.6799 170.107 62.3971 171.148 60.3153H167.751V59.3165Z" fill="#111824"/>
<rect y="96.5" width="100" height="83.5429" rx="8" fill="#ECF5FF"/>
<path d="M59.9917 127.115L56.0974 142.341C56.0871 142.383 56.0871 142.427 56.0974 142.469C56.1127 142.532 56.1491 142.588 56.2005 142.627C56.2519 142.667 56.3152 142.687 56.38 142.686H64.1645C64.2075 142.687 64.2501 142.678 64.2892 142.66C64.3282 142.642 64.3627 142.616 64.3901 142.582C64.4174 142.549 64.4369 142.51 64.447 142.469C64.4571 142.427 64.4576 142.383 64.4484 142.341L60.5358 127.115C60.5222 127.072 60.4984 127.032 60.4664 127C60.4345 126.967 60.3952 126.943 60.3519 126.928C60.3085 126.914 60.2624 126.91 60.2174 126.918C60.1723 126.925 60.1296 126.943 60.0929 126.969C60.0437 127.005 60.0077 127.056 59.9903 127.114M38.5649 130.565L35.5486 142.341C35.5393 142.383 35.5398 142.427 35.55 142.469C35.5602 142.511 35.5798 142.55 35.6073 142.583C35.6348 142.616 35.6695 142.642 35.7087 142.66C35.748 142.677 35.7908 142.686 35.8338 142.684H41.8414C41.8845 142.685 41.9274 142.677 41.9667 142.659C42.0061 142.641 42.041 142.615 42.0687 142.582C42.0956 142.549 42.1145 142.51 42.1239 142.469C42.1347 142.427 42.1351 142.383 42.1253 142.341L39.1063 130.565C39.0887 130.508 39.0527 130.457 39.0038 130.422C38.9553 130.387 38.8969 130.368 38.8369 130.367C38.7755 130.367 38.7157 130.386 38.6661 130.422C38.6176 130.458 38.5821 130.508 38.5649 130.565Z" fill="#00E5E5"/>
<path d="M43.8827 120.815L38.389 142.341C38.3796 142.381 38.3794 142.423 38.3886 142.464C38.3977 142.504 38.4158 142.542 38.4416 142.575C38.4672 142.608 38.5 142.635 38.5376 142.654C38.5751 142.673 38.6164 142.683 38.6584 142.684H49.6498C49.6926 142.685 49.7351 142.676 49.7741 142.659C49.8131 142.641 49.8476 142.615 49.875 142.582C49.9025 142.549 49.9221 142.51 49.9325 142.469C49.9429 142.427 49.9437 142.384 49.935 142.342L44.4255 120.813C44.4079 120.755 44.3719 120.705 44.323 120.669C44.2741 120.634 44.2152 120.615 44.1548 120.614C44.0939 120.614 44.0345 120.634 43.9852 120.669C43.9361 120.705 43.9001 120.756 43.8827 120.814" fill="#006EFF"/>
<path d="M53.3616 113.97C53.344 113.912 53.308 113.862 53.2591 113.827C53.2098 113.791 53.1505 113.772 53.0896 113.771C53.0291 113.772 52.9703 113.791 52.9214 113.827C52.8725 113.862 52.8365 113.912 52.8188 113.97L45.309 142.341C45.3 142.383 45.3007 142.427 45.3109 142.468C45.3211 142.51 45.3406 142.548 45.368 142.581C45.3953 142.614 45.4297 142.64 45.4687 142.658C45.5077 142.676 45.5501 142.684 45.5929 142.683H60.602C60.645 142.684 60.6876 142.675 60.7267 142.658C60.7658 142.64 60.8005 142.614 60.8281 142.581C60.8554 142.548 60.8752 142.509 60.8859 142.468C60.8954 142.426 60.8954 142.383 60.8859 142.341L53.3616 113.97Z" fill="#006EFF"/>
<path d="M47.8446 123.945L43.0803 142.34C43.0699 142.382 43.0696 142.425 43.0794 142.467C43.0892 142.509 43.1089 142.549 43.1369 142.581C43.1643 142.615 43.1991 142.642 43.2385 142.66C43.2779 142.678 43.3209 142.686 43.3642 142.685H52.8705C52.914 142.686 52.9572 142.677 52.9968 142.659C53.0365 142.641 53.0714 142.614 53.0991 142.58C53.1259 142.547 53.1449 142.508 53.1547 142.466C53.1644 142.425 53.1648 142.381 53.1557 142.34L48.3874 123.944C48.3696 123.886 48.3336 123.837 48.2849 123.802C48.2358 123.765 48.1764 123.746 48.1154 123.745C48.0548 123.746 47.9959 123.766 47.9472 123.802C47.8985 123.837 47.8625 123.886 47.8446 123.944" fill="#00E5E5"/>
<path d="M30.8552 153.009L31.7489 153.251C31.4545 154.555 31.076 155.69 30.6134 156.668L29.7302 156.363C30.1613 155.48 30.5398 154.365 30.8552 153.009ZM37.1743 152.998L38.0365 153.408C37.4477 154.565 36.7642 155.553 35.9651 156.395L35.2081 155.869C35.9651 155.07 36.6275 154.113 37.1743 152.998ZM33.263 151.442H34.2723V154.912C34.6193 157.109 36.0703 158.897 38.6253 160.274L38.0154 161.073C35.9021 159.885 34.4931 158.298 33.7887 156.31C33.2314 158.161 31.8435 159.759 29.625 161.126L29.0152 160.327C31.6858 158.813 33.0947 157.015 33.263 154.912V151.442ZM47.6084 153.24H48.6073V160.905H47.6084V160.285H40.1222V153.188H41.1211V159.328H43.8653V151.505H44.8747V159.328H47.6084V153.24ZM57.7271 151.421H58.7259V161.136H57.7271V151.421ZM51.7655 155.028L51.4395 156.542H55.4981C55.4981 158.319 55.4139 159.496 55.2667 160.085C55.1195 160.684 54.4466 161.01 53.248 161.063C52.9115 161.063 52.5856 161.042 52.2491 161.021L51.9968 160.096C52.3333 160.127 52.6802 160.148 53.0167 160.148C53.7737 160.148 54.2153 159.969 54.3415 159.633C54.4466 159.296 54.4992 158.571 54.4992 157.456H50.3776L50.9454 154.113H54.4046V152.683H50.6299V151.779H55.3929V155.028H51.7655ZM66.6997 153.903C66.5525 154.113 66.4053 154.302 66.2371 154.491L65.7114 153.797C66.2371 153.125 66.6051 152.304 66.8049 151.337L67.7196 151.474C67.667 151.716 67.6039 151.947 67.5409 152.178H70.0643V152.998H69.5386C69.3914 153.734 69.1285 154.344 68.729 154.838C69.2021 155.112 69.7594 155.343 70.4113 155.543L69.9591 156.342C69.2231 156.09 68.6028 155.795 68.0981 155.448C67.6039 155.806 67.0151 156.058 66.3212 156.226L65.9532 155.427C66.521 155.301 67.0046 155.112 67.3937 154.859C67.0993 154.565 66.8679 154.239 66.6997 153.903ZM67.2149 152.998L67.1623 153.104C67.3095 153.566 67.5934 153.966 68.0035 154.323C68.3294 153.945 68.5502 153.503 68.6554 152.998H67.2149ZM68.7395 156.226L69.2021 157.025C68.3294 157.131 67.3306 157.215 66.195 157.267V157.793H69.3493V158.508H66.195V158.971H70.201V159.791H66.195V160.274C66.195 160.874 65.8586 161.179 65.1962 161.179H63.9345L63.7347 160.327C64.1342 160.358 64.5233 160.379 64.8913 160.379C65.1226 160.379 65.2382 160.264 65.2382 160.043V159.791H61.001V158.971H65.2382V158.508H61.7475V157.793H65.2382V157.309C64.2499 157.341 63.1879 157.362 62.0524 157.362L61.8106 156.626C64.5443 156.626 66.8574 156.489 68.7395 156.226ZM62.2732 151.39H63.0933V151.779H64.0501V151.379H64.8702V151.779H66.0478V152.536H64.8702V152.967H64.0501V152.536H63.0933V152.988H62.5045C62.4835 153.072 62.4519 153.146 62.4309 153.219H65.7219C65.6798 154.639 65.6378 155.469 65.5852 155.711C65.5221 155.942 65.417 156.1 65.2593 156.184C65.091 156.268 64.7125 156.321 64.1237 156.321H63.7557L63.6295 155.932H61.5898V154.628C61.5057 154.712 61.411 154.796 61.3164 154.88L60.7907 154.229C61.2428 153.85 61.5582 153.356 61.7265 152.736L62.2732 152.82V152.536H61.0115V151.779H62.2732V151.39ZM64.2394 155.616H64.3445C64.5338 155.616 64.6494 155.585 64.7125 155.532C64.7546 155.469 64.7861 155.364 64.8071 155.238C64.8071 155.101 64.8282 154.66 64.8492 153.913H62.126C62.0419 154.039 61.9683 154.165 61.8842 154.281H64.2394V155.616ZM63.4718 155.333V154.87H62.3678V155.333H63.4718Z" fill="#111824"/>
<rect x="112" y="96.5" width="100" height="83.5429" rx="8" fill="#ECF5FF"/>
<g clip-path="url(#clip2_2911_514)">
<path d="M177.667 123.602C177.667 120.763 175.354 118.45 172.515 118.45H164.314L165.05 121.394L172.094 122.971C172.725 123.076 173.251 123.707 173.251 124.338V131.908C173.251 132.539 172.725 133.17 172.094 133.275L165.05 134.852L164.209 137.691H172.41C175.249 137.691 177.562 135.378 177.562 132.539C177.667 132.539 177.667 123.602 177.667 123.602ZM152.012 133.17C151.381 133.065 150.855 132.434 150.855 131.803V124.233C150.855 123.602 151.381 122.971 152.012 122.866L159.057 121.289L159.793 118.345H151.591C148.753 118.345 146.439 120.658 146.439 123.497V132.434C146.439 135.273 148.753 137.586 151.591 137.586H159.793L159.057 134.642C159.057 134.747 152.012 133.17 152.012 133.17ZM158.636 126.651H165.365V129.385H158.636V126.651Z" fill="#FF6B01"/>
</g>
<path d="M146.778 151.779H150.027V152.567C149.743 153.472 149.407 154.418 149.018 155.417C149.606 156.384 149.932 157.225 149.985 157.951C149.985 158.445 149.88 158.802 149.68 159.013C149.386 159.275 148.881 159.412 148.166 159.423L147.84 158.413C148.05 158.445 148.229 158.466 148.376 158.466C148.618 158.445 148.776 158.403 148.86 158.34C148.933 158.256 148.976 158.129 148.976 157.951C148.976 157.236 148.65 156.447 148.008 155.564C148.439 154.512 148.776 153.556 149.018 152.715H147.756V161.136H146.778V151.779ZM150.321 151.957H155.999V152.925H155.347V159.938C155.347 160.674 155 161.042 154.327 161.042H152.782L152.55 160.075C153.045 160.117 153.518 160.138 153.98 160.138C154.243 160.138 154.38 159.98 154.38 159.685V152.925H150.321V151.957ZM150.584 154.281H153.465V158.361H150.584V154.281ZM152.54 157.499V155.143H151.488V157.499H152.54ZM159.063 154.765V155.911H161.365V154.765H159.063ZM161.365 156.826H158.085V151.747H165.634V156.826H162.375V157.845H166.086V158.792H162.375V159.854H166.528V160.821H157.202V159.854H161.365V158.792H157.654V157.845H161.365V156.826ZM162.375 155.911H164.656V154.765H162.375V155.911ZM164.656 153.84V152.672H162.375V153.84H164.656ZM161.365 152.672H159.063V153.84H161.365V152.672ZM168.761 151.957H176.31V152.925H168.761V151.957ZM167.751 154.859H177.246V155.858H172.262C171.358 157.667 170.569 158.96 169.886 159.738C171.61 159.633 173.335 159.454 175.038 159.212C174.701 158.613 174.333 157.993 173.934 157.362L174.733 156.868C175.69 158.287 176.426 159.528 176.951 160.579L176.058 161.2C175.889 160.842 175.721 160.485 175.532 160.127C173.419 160.421 171.127 160.653 168.645 160.821L168.382 159.801C168.487 159.77 168.572 159.738 168.624 159.707C169.265 159.223 170.107 157.94 171.148 155.858H167.751V154.859Z" fill="#111824"/>
<defs>
<clipPath id="clip0_2911_514">
<rect width="31.5429" height="31.5429" fill="white" transform="translate(34.2285 16.957)"/>
</clipPath>
<clipPath id="clip1_2911_514">
<rect width="31.5429" height="31.5429" fill="white" transform="translate(146.229 16.957)"/>
</clipPath>
<clipPath id="clip2_2911_514">
<rect width="31.5429" height="31.5429" fill="white" transform="translate(146.229 112.5)"/>
</clipPath>
</defs>
</svg>
