<svg width="165" height="171" viewBox="0 0 165 171" fill="none" xmlns="http://www.w3.org/2000/svg">
<g opacity="0.3" clip-path="url(#clip0_2968_667)">
<path fill-rule="evenodd" clip-rule="evenodd" d="M15.1198 133.619C14.9518 133.832 14.731 134.16 14.3236 134.776L11.8068 138.586C11.1364 139.601 10.6787 140.296 10.3648 140.86C10.0578 141.413 9.95028 141.736 9.91522 141.989C9.83261 142.585 9.93748 143.163 10.194 143.644C10.2939 143.832 10.4755 144.058 10.9255 144.415C11.3908 144.784 12.0313 145.209 12.9875 145.84L24.5671 153.49C25.5233 154.122 26.1651 154.544 26.6872 154.827C27.1921 155.101 27.4715 155.18 27.6831 155.198C28.2265 155.245 28.7994 155.115 29.3154 154.805C29.5345 154.673 29.7893 154.448 30.1769 153.948C30.5732 153.438 31.0326 152.745 31.703 151.73L36.718 144.138C37.3884 143.124 37.8462 142.429 38.16 141.864C38.467 141.312 38.5745 140.989 38.6096 140.736C38.6922 140.14 38.5873 139.561 38.3308 139.08C38.2309 138.893 38.0493 138.666 37.5993 138.309C37.134 137.94 36.4936 137.516 35.5374 136.884L27.5076 131.579C26.9712 131.225 26.6737 131.033 26.4683 130.918L23.7918 134.97C23.5932 135.271 23.4024 135.559 23.2226 135.791C23.0268 136.043 22.7733 136.323 22.4144 136.539C21.9136 136.839 21.3257 136.985 20.7306 136.933C20.295 136.895 19.9391 136.74 19.6586 136.587C19.4069 136.451 19.1276 136.266 18.8493 136.082C18.8365 136.074 18.8236 136.065 18.8108 136.057L15.1198 133.619ZM14.1809 130.667C13.8954 130.858 13.6266 131.074 13.3778 131.313C12.8987 131.774 12.5284 132.335 12.0285 133.092C12.0031 133.131 11.9774 133.17 11.9513 133.209L9.40388 137.065C8.77164 138.022 8.25273 138.808 7.87962 139.479C7.4936 140.174 7.20263 140.85 7.09891 141.598C6.93735 142.764 7.13523 143.95 7.68495 144.982C8.04335 145.654 8.55857 146.167 9.15853 146.642C9.73227 147.098 10.4773 147.59 11.3691 148.179L23.0511 155.896C23.9429 156.485 24.6879 156.978 25.3316 157.327C26.0048 157.692 26.6784 157.965 27.4375 158.03C28.6019 158.131 29.7702 157.848 30.7793 157.242C31.4272 156.853 31.935 156.32 32.4224 155.692C32.8935 155.086 33.4124 154.3 34.0446 153.343L39.121 145.659C39.7532 144.702 40.2721 143.917 40.6452 143.245C41.0312 142.551 41.3222 141.875 41.4259 141.126C41.5875 139.96 41.3896 138.774 40.8399 137.743C40.4815 137.07 39.9663 136.558 39.3663 136.082C38.7925 135.627 38.0475 135.135 37.1557 134.545L29.0748 129.207C29.0339 129.18 28.9936 129.153 28.9538 129.127C28.255 128.665 27.7038 128.3 27.0816 128.085C26.7593 127.973 26.4274 127.894 26.0904 127.846C26.0671 127.843 26.0436 127.839 26.0202 127.837C25.8074 127.81 25.5926 127.796 25.3771 127.795C24.7205 127.791 24.0699 127.946 23.2242 128.147C23.1774 128.158 23.13 128.17 23.0819 128.181L17.0338 129.618C16.988 129.629 16.9429 129.639 16.8982 129.65C16.045 129.852 15.3994 130.005 14.8047 130.304C14.6113 130.401 14.4237 130.508 14.2426 130.626C14.2217 130.639 14.2012 130.653 14.1809 130.667ZM18.2192 132.259L20.378 133.685C20.6711 133.878 20.8411 133.989 20.9659 134.061C20.9695 134.057 20.9732 134.052 20.9771 134.047C21.0817 133.912 21.2119 133.717 21.4435 133.366L22.9116 131.144L18.2192 132.259Z" fill="#039855"/>
<path d="M28.9555 150.881C28.5888 151.436 28.167 151.842 27.6902 152.099C27.2134 152.357 26.71 152.464 26.1799 152.42C25.6529 152.372 25.1285 152.176 24.6066 151.831C24.2175 151.574 23.9032 151.281 23.6637 150.952C23.4273 150.619 23.2705 150.263 23.1932 149.885C23.119 149.502 23.1308 149.108 23.2284 148.702C23.3245 148.288 23.5088 147.875 23.7815 147.462C23.9257 147.244 24.1007 147.036 24.3065 146.838C24.5106 146.632 24.7221 146.472 24.9408 146.358C25.0997 146.272 25.251 146.239 25.3946 146.259C25.5382 146.279 25.6607 146.336 25.762 146.43C25.8665 146.519 25.9419 146.627 25.9881 146.753C26.0344 146.879 26.0397 147.005 26.0039 147.131C25.9634 147.255 25.8716 147.358 25.7284 147.44C25.568 147.539 25.4241 147.648 25.2969 147.768C25.168 147.881 25.0534 148.013 24.9531 148.165C24.7588 148.459 24.6528 148.743 24.635 149.018C24.6156 149.285 24.6798 149.538 24.8274 149.779C24.9751 150.02 25.2055 150.243 25.5187 150.45C25.8318 150.657 26.1304 150.783 26.4145 150.827C26.6938 150.869 26.9547 150.83 27.1971 150.71C27.4378 150.583 27.6554 150.373 27.8497 150.078C27.9312 149.955 28.0047 149.813 28.0703 149.652C28.1311 149.487 28.1738 149.315 28.1982 149.133C28.2306 148.95 28.297 148.813 28.3976 148.723C28.5013 148.628 28.6178 148.575 28.7471 148.565C28.8795 148.551 29.0089 148.571 29.1353 148.628C29.257 148.681 29.3551 148.769 29.4298 148.894C29.5076 149.013 29.5389 149.157 29.5238 149.324C29.5138 149.556 29.4557 149.814 29.3497 150.098C29.2467 150.378 29.1154 150.639 28.9555 150.881Z" fill="#039855"/>
<path d="M31.7619 146.632C31.6365 146.822 31.4906 147.012 31.3242 147.202C31.1657 147.39 30.9993 147.56 30.8248 147.71C30.6504 147.861 30.479 147.986 30.3107 148.086C30.1644 148.174 30.0242 148.211 29.89 148.197C29.7512 148.18 29.6295 148.127 29.5251 148.038C29.4206 147.948 29.3476 147.842 29.3061 147.719C29.2598 147.593 29.2585 147.466 29.3021 147.338C29.341 147.207 29.4367 147.093 29.5893 146.996C29.7938 146.873 29.995 146.712 30.1929 146.516C30.3908 146.32 30.5556 146.122 30.6872 145.923C30.8941 145.609 30.9979 145.364 30.9988 145.188C30.998 145.003 30.9359 144.87 30.8126 144.789C30.7034 144.717 30.5859 144.704 30.4599 144.75C30.3371 144.792 30.1783 144.908 29.9835 145.1L29.2555 145.815C28.8597 146.208 28.4695 146.437 28.085 146.504C27.7004 146.57 27.3208 146.479 26.9459 146.232C26.6992 146.069 26.5091 145.871 26.3757 145.64C26.2406 145.401 26.163 145.142 26.1429 144.863C26.126 144.579 26.1642 144.284 26.2575 143.978C26.3492 143.663 26.5001 143.347 26.7101 143.029C26.8731 142.783 27.0661 142.552 27.2892 142.339C27.5106 142.117 27.737 141.949 27.9684 141.837C28.0974 141.765 28.2274 141.738 28.3584 141.757C28.4894 141.775 28.6063 141.825 28.7092 141.907C28.8073 141.985 28.8747 142.084 28.9115 142.204C28.9514 142.319 28.9495 142.44 28.9059 142.568C28.8607 142.688 28.7587 142.802 28.5998 142.908C28.4472 143.005 28.2987 143.132 28.1543 143.288C28.0082 143.437 27.8819 143.592 27.7754 143.754C27.6594 143.929 27.582 144.093 27.5432 144.244C27.4997 144.393 27.4939 144.525 27.526 144.642C27.5611 144.754 27.6285 144.842 27.7282 144.908C27.8278 144.974 27.9398 144.99 28.0643 144.956C28.1871 144.915 28.3459 144.798 28.5407 144.607L29.264 143.899C29.6677 143.504 30.0586 143.268 30.4368 143.191C30.815 143.114 31.1867 143.196 31.5521 143.437C31.7988 143.6 31.9889 143.797 32.1223 144.029C32.2558 144.26 32.3326 144.515 32.3527 144.794C32.368 145.07 32.3275 145.364 32.231 145.675C32.1345 145.986 31.9781 146.305 31.7619 146.632Z" fill="#039855"/>
<path d="M35.0561 141.615C34.937 141.795 34.8018 141.917 34.6507 141.981C34.5027 142.04 34.3206 142.053 34.1044 142.019L29.1662 141.23C28.95 141.197 28.7849 141.122 28.6708 141.005C28.5568 140.889 28.4986 140.755 28.4964 140.604C28.4895 140.449 28.5377 140.294 28.6411 140.137C28.7697 139.943 28.908 139.826 29.056 139.788C29.2073 139.745 29.3894 139.742 29.6025 139.781L33.9208 140.548L33.6575 140.947L31.2503 137.271C31.1313 137.09 31.0643 136.923 31.0495 136.77C31.0299 136.614 31.0797 136.446 31.1988 136.266C31.296 136.119 31.4154 136.02 31.5571 135.971C31.6941 135.918 31.8369 135.924 31.9854 135.988C32.1371 136.047 32.2708 136.17 32.3868 136.355L35.0447 140.595C35.1637 140.776 35.2252 140.946 35.229 141.106C35.2328 141.265 35.1752 141.435 35.0561 141.615Z" fill="#039855"/>
<path d="M33.144 140.776L33.5496 140.162L33.9854 140.45L33.5798 141.064L33.144 140.776Z" fill="#039855"/>
</g>
<g opacity="0.3" clip-path="url(#clip1_2968_667)">
<path d="M84.6911 75.0541C85.7194 74.7515 86.3078 73.6726 86.0052 72.6443C85.7027 71.616 84.6238 71.0276 83.5955 71.3302C82.5671 71.6327 81.9788 72.7116 82.2813 73.7399C82.5839 74.7682 83.6627 75.3566 84.6911 75.0541Z" fill="#00A9A6"/>
<path fill-rule="evenodd" clip-rule="evenodd" d="M76.792 75.4204C76.0557 72.9177 75.6876 71.6664 75.8934 70.5672C76.0744 69.6003 76.5569 68.7155 77.2717 68.0397C78.0843 67.2714 79.3357 66.9033 81.8384 66.1669L92.3646 63.07C94.8673 62.3337 96.1187 61.9655 97.2179 62.1714C98.1848 62.3524 99.0695 62.8349 99.7453 63.5497C100.514 64.3623 100.882 65.6137 101.618 68.1164L103.972 76.1158C104.708 78.6185 105.076 79.8698 104.87 80.969C104.689 81.9359 104.207 82.8207 103.492 83.4965C102.679 84.2648 101.428 84.6329 98.9253 85.3692L88.399 88.4662C85.8963 89.2025 84.645 89.5706 83.5458 89.3648C82.5789 89.1838 81.6941 88.7013 81.0183 87.9865C80.25 87.1739 79.8819 85.9225 79.1456 83.4198L76.792 75.4204ZM82.5688 68.6495L93.095 65.5526C94.3873 65.1724 95.2078 64.9331 95.8434 64.8012C96.4492 64.6755 96.6615 64.7 96.7416 64.715C97.1713 64.7954 97.5645 65.0099 97.8649 65.3276C97.9209 65.3868 98.0564 65.552 98.2788 66.1294C98.5121 66.7351 98.7553 67.5544 99.1355 68.8468L101.489 76.8462C101.493 76.8611 101.498 76.876 101.502 76.8908L93.7094 72.6411C93.082 72.299 92.2961 72.5302 91.9539 73.1576L84.5102 86.8071C84.2094 86.8481 84.0805 86.8321 84.0221 86.8212C83.5923 86.7407 83.1991 86.5263 82.8987 86.2086C82.8428 86.1494 82.7072 85.9842 82.4848 85.4068C82.2515 84.8011 82.0084 83.9817 81.6282 82.6894L79.2747 74.69C78.8944 73.3977 78.6551 72.5772 78.5233 71.9417C78.3975 71.3358 78.422 71.1235 78.437 71.0434C78.5175 70.6137 78.7319 70.2205 79.0496 69.9201C79.1088 69.8642 79.274 69.7286 79.8514 69.5062C80.4571 69.2729 81.2765 69.0298 82.5688 68.6495ZM93.6064 75.5326L87.9525 85.9L98.1949 82.8866C99.4872 82.5064 100.307 82.2633 100.912 82.03C101.49 81.8076 101.655 81.672 101.714 81.6161C102.032 81.3157 102.246 80.9225 102.327 80.4927C102.333 80.4582 102.341 80.3992 102.339 80.2946L93.6064 75.5326Z" fill="#00A9A6"/>
</g>
<g opacity="0.3" clip-path="url(#clip2_2968_667)">
<path fill-rule="evenodd" clip-rule="evenodd" d="M164.859 49.1892C164.626 49.0973 164.278 48.989 163.624 48.7924L159.587 47.5779C158.512 47.2544 157.776 47.034 157.193 46.9064C156.624 46.7815 156.309 46.7721 156.076 46.8083C155.527 46.8934 155.044 47.1396 154.686 47.4942C154.547 47.6323 154.395 47.853 154.199 48.3456C153.996 48.855 153.79 49.5341 153.486 50.5473L149.794 62.8172C149.49 63.8304 149.286 64.5101 149.174 65.0469C149.066 65.566 149.071 65.8339 149.111 66.0259C149.214 66.5189 149.481 66.991 149.892 67.365C150.067 67.5238 150.334 67.6892 150.878 67.8995C151.434 68.1145 152.17 68.3367 153.245 68.6602L156.408 69.6117L156.409 69.6071L157.319 69.8807C158.014 70.0899 158.408 70.8233 158.199 71.5187C157.99 72.2141 157.257 72.6083 156.561 72.3991L152.439 71.1591C151.425 70.854 150.593 70.6037 149.932 70.3481C149.247 70.0836 148.641 69.776 148.125 69.3064C147.321 68.5749 146.761 67.6169 146.541 66.5605C146.398 65.8717 146.46 65.2037 146.605 64.5115C146.742 63.8496 146.98 63.0601 147.264 62.1152L150.988 49.7368C151.272 48.7918 151.51 48.0024 151.76 47.3743C152.022 46.7174 152.338 46.1258 152.838 45.6304C153.604 44.8706 154.6 44.3809 155.674 44.2143C156.363 44.1073 157.039 44.1852 157.755 44.3422C158.448 44.4939 159.28 44.7443 160.294 45.0494L164.504 46.3159C165.307 46.5569 165.901 46.7355 166.435 47.037C166.713 47.1936 166.975 47.3739 167.22 47.5756C167.238 47.5898 167.255 47.6043 167.272 47.6193C167.425 47.7482 167.57 47.8855 167.707 48.0307C168.129 48.4774 168.435 49.0078 168.841 49.7086L171.848 54.9038C172.251 55.5981 172.56 56.1323 172.731 56.7139C172.788 56.9048 172.832 57.0984 172.865 57.2938C172.869 57.3152 172.872 57.3367 172.875 57.3584C172.923 57.6689 172.94 57.9835 172.927 58.2981C172.902 58.9055 172.726 59.4897 172.502 60.2304L171.383 63.9522C171.174 64.6476 170.44 65.0418 169.745 64.8325C169.049 64.6233 168.655 63.89 168.864 63.1945L169.138 62.285L169.143 62.2864L169.95 59.6023C170.121 59.034 170.212 58.7199 170.259 58.5078L165.966 57.2163C165.647 57.1205 165.341 57.0285 165.089 56.9309C164.814 56.8247 164.499 56.6748 164.213 56.4146C163.814 56.0516 163.53 55.5703 163.417 55.0304C163.335 54.6352 163.378 54.2791 163.438 53.9907C163.492 53.7319 163.581 53.4359 163.67 53.141L164.859 49.1892ZM166.884 51.569L166.196 53.8565C166.103 54.167 166.05 54.3469 166.019 54.4763L166.035 54.4824C166.182 54.5391 166.389 54.6024 166.761 54.7142L169.115 55.4226L166.884 51.569Z" fill="#6F5DD7"/>
<path fill-rule="evenodd" clip-rule="evenodd" d="M165.964 66.741C166.752 65.4396 168.755 66.0423 168.694 67.5621C168.66 68.3855 169.31 69.0757 170.134 69.0926C171.654 69.1238 172.134 71.16 170.787 71.8668C170.057 72.2497 169.784 73.1572 170.182 73.8792C170.915 75.2118 169.392 76.6453 168.106 75.8323C167.41 75.3918 166.487 75.6091 166.061 76.3142C165.273 77.6156 163.27 77.0129 163.331 75.4931C163.365 74.6697 162.715 73.9795 161.891 73.9626C160.37 73.9314 159.891 71.8952 161.238 71.1884C161.967 70.8055 162.24 69.898 161.843 69.176C161.11 67.8434 162.633 66.4099 163.919 67.2229C164.615 67.6634 165.538 67.4461 165.964 66.741ZM167.77 72.0565C167.478 73.0274 166.454 73.5777 165.484 73.2856C164.513 72.9935 163.962 71.9696 164.254 70.9987C164.547 70.0278 165.57 69.4776 166.541 69.7696C167.512 70.0617 168.062 71.0856 167.77 72.0565Z" fill="#6F5DD7"/>
</g>
<g opacity="0.2" clip-path="url(#clip3_2968_667)">
<path fill-rule="evenodd" clip-rule="evenodd" d="M12.1018 74.5102C11.9591 74.6377 11.7657 74.8383 11.4074 75.2168L9.19406 77.5548C8.60446 78.1776 8.20167 78.604 7.9147 78.9578C7.63402 79.3039 7.51986 79.515 7.46457 79.6864C7.33433 80.0904 7.33649 80.5047 7.45582 80.8703C7.50229 81.0127 7.60074 81.192 7.86958 81.4949C8.14757 81.8081 8.54044 82.1812 9.12725 82.7368L16.2335 89.4643C16.8203 90.0198 17.2144 90.3917 17.5423 90.6522C17.8595 90.904 18.044 90.9925 18.1887 91.0311C18.5603 91.1303 18.9741 91.1098 19.3703 90.9576C19.5384 90.893 19.743 90.7675 20.0731 90.4683C20.4107 90.1624 20.8145 89.7369 21.4041 89.1141L25.8145 84.4554C26.4042 83.8326 26.8069 83.4061 27.0939 83.0523C27.3746 82.7063 27.4888 82.4952 27.544 82.3237C27.6743 81.9198 27.6721 81.5055 27.5528 81.1399C27.5063 80.9975 27.4079 80.8181 27.139 80.5152C26.861 80.202 26.4682 79.8289 25.8814 79.2734L20.9536 74.6082C20.6244 74.2966 20.4412 74.1269 20.3126 74.0221L17.9588 76.5084C17.7841 76.693 17.6163 76.8703 17.4632 77.0091C17.2964 77.1602 17.0861 77.3237 16.8105 77.4295C16.426 77.5772 16 77.6062 15.593 77.4977C15.2952 77.4182 15.0671 77.2665 14.8909 77.1266C14.7328 77.001 14.5614 76.8387 14.3906 76.6769C14.3827 76.6695 14.3748 76.6621 14.367 76.6546L12.1018 74.5102ZM11.8106 72.3457C11.589 72.4435 11.3759 72.5609 11.1739 72.6965C10.7849 72.9576 10.4592 73.3019 10.0195 73.7667C9.99717 73.7904 9.97452 73.8143 9.95155 73.8386L7.71124 76.205C7.15522 76.7923 6.69887 77.2743 6.35771 77.6949C6.00476 78.1301 5.72006 78.564 5.55653 79.0712C5.30181 79.8612 5.29429 80.7088 5.54997 81.4923C5.71667 82.003 6.01181 82.4219 6.37027 82.8258C6.71307 83.2119 7.17028 83.6448 7.71759 84.1629L14.8867 90.9499C15.4339 91.468 15.8911 91.9009 16.2955 92.222C16.7183 92.5579 17.1528 92.8296 17.6719 92.9681C18.4681 93.1806 19.3141 93.1267 20.0889 92.8291C20.5864 92.6381 21.0042 92.3301 21.4193 91.9539C21.8206 91.5902 22.277 91.1082 22.833 90.5209L27.2974 85.8051C27.8534 85.2178 28.3097 84.7358 28.6509 84.3152C29.0039 83.8801 29.2886 83.4461 29.4521 82.9389C29.7068 82.1489 29.7143 81.3013 29.4586 80.5179C29.2919 80.0071 28.9968 79.5882 28.6383 79.1844C28.2955 78.7982 27.8383 78.3653 27.291 77.8472L22.3319 73.1524C22.3068 73.1286 22.2821 73.1052 22.2576 73.082C21.8288 72.6756 21.4906 72.355 21.0849 72.1293C20.8747 72.0124 20.654 71.9166 20.4257 71.8426C20.41 71.8371 20.3941 71.8321 20.3781 71.8275C20.2336 71.7827 20.0862 71.7467 19.9367 71.7195C19.4812 71.6368 19.0104 71.6649 18.3985 71.7013C18.3647 71.7033 18.3304 71.7054 18.2956 71.7074L13.92 71.9658C13.8869 71.9678 13.8542 71.9697 13.8219 71.9716C13.2047 72.0078 12.7376 72.0351 12.2882 72.1696C12.1421 72.2133 11.9986 72.2653 11.8584 72.325C11.8424 72.3315 11.8264 72.3384 11.8106 72.3457ZM14.4204 73.9445L15.7453 75.1988C15.9251 75.369 16.0296 75.467 16.1075 75.532C16.1105 75.5294 16.1137 75.5265 16.117 75.5235C16.2061 75.4428 16.3204 75.323 16.5241 75.1079L17.8152 73.7441L14.4204 73.9445Z" fill="#D92D20"/>
<path d="M18.4267 89.4104C18.3054 89.5385 18.1767 89.6044 18.0407 89.6081C17.9017 89.6091 17.7682 89.5489 17.6401 89.4276L15.334 87.2445C15.203 87.1204 15.1356 86.9904 15.1319 86.8544C15.1309 86.7154 15.1911 86.5819 15.3124 86.4538L16.3295 85.3793C16.6603 85.0299 17.0055 84.8461 17.3652 84.8277C17.7248 84.8037 18.0618 84.9405 18.3763 85.2382C18.6907 85.5359 18.8472 85.8663 18.8458 86.2294C18.8443 86.5868 18.6781 86.9402 18.3473 87.2896L17.7064 87.9666L18.4009 88.624C18.529 88.7453 18.5977 88.8739 18.6071 89.0098C18.6136 89.1429 18.5535 89.2764 18.4267 89.4104ZM17.0906 87.3836L17.5992 86.8464C17.7425 86.695 17.8208 86.5482 17.8339 86.406C17.8441 86.2611 17.7837 86.1266 17.6527 86.0025C17.5187 85.8757 17.3811 85.8228 17.2399 85.8437C17.0987 85.8646 16.9564 85.9507 16.813 86.1021L16.3044 86.6393L17.0906 87.3836Z" fill="#D92D20"/>
<path d="M21.2808 86.3168C21.1512 86.4537 21.0171 86.5254 20.8783 86.5321C20.7393 86.533 20.6029 86.4701 20.4689 86.3433L18.2196 84.2139C18.0857 84.0871 18.0169 83.9557 18.0132 83.8196C18.0093 83.6779 18.0721 83.5386 18.2017 83.4018L19.0121 82.5458C19.5193 82.01 20.0447 81.7233 20.5882 81.6858C21.1345 81.6453 21.6522 81.8566 22.1414 82.3197C22.3859 82.5512 22.5685 82.7958 22.689 83.0535C22.8066 83.3083 22.8648 83.5705 22.8637 83.84C22.8596 84.1067 22.7933 84.378 22.6647 84.6538C22.536 84.9239 22.3448 85.1929 22.0912 85.4608L21.2808 86.3168ZM20.9939 85.3164L21.3908 84.8971C21.5369 84.7428 21.6434 84.5924 21.7103 84.4459C21.78 84.2965 21.8129 84.151 21.809 84.0093C21.8079 83.8646 21.7685 83.7225 21.6909 83.5828C21.6161 83.4402 21.503 83.2972 21.3516 83.1539C21.0488 82.8672 20.7558 82.7306 20.4725 82.744C20.1863 82.7547 19.8999 82.9114 19.6132 83.2142L19.2163 83.6335L20.9939 85.3164Z" fill="#D92D20"/>
<path d="M24.6409 82.8463C24.5196 82.9744 24.3896 83.0418 24.2508 83.0484C24.1118 83.0494 23.9754 82.9865 23.8414 82.8597L21.5528 80.6931C21.4189 80.5663 21.3501 80.4348 21.3463 80.2988C21.3425 80.1571 21.4053 80.0178 21.5349 79.881L22.9117 78.4266C23.011 78.3218 23.1116 78.2679 23.2136 78.2651C23.3157 78.2624 23.4162 78.3078 23.5152 78.4015C23.6171 78.498 23.6709 78.5987 23.6766 78.7034C23.6794 78.8055 23.6312 78.9089 23.5319 79.0137L22.5189 80.0838L23.1391 80.6709L24.0612 79.6969C24.1576 79.595 24.2569 79.5427 24.3589 79.5399C24.4637 79.5342 24.5656 79.5782 24.6646 79.6719C24.7665 79.7684 24.8175 79.8691 24.8175 79.974C24.8203 80.0761 24.7735 80.178 24.677 80.2799L23.7549 81.2539L24.6022 82.0561C24.8788 82.3179 24.8917 82.5813 24.6409 82.8463Z" fill="#D92D20"/>
<path fill-rule="evenodd" clip-rule="evenodd" d="M16.3044 86.6393L17.0906 87.3836L17.5992 86.8464C17.7425 86.695 17.8208 86.5482 17.8339 86.406C17.8441 86.2611 17.7837 86.1266 17.6527 86.0025C17.5187 85.8757 17.3811 85.8228 17.2399 85.8437C17.0987 85.8646 16.9564 85.9507 16.813 86.1021L16.3044 86.6393ZM17.5264 86.7775L17.0867 87.2419L16.4462 86.6354L16.8858 86.171C17.0206 86.0287 17.1437 85.9592 17.2546 85.9428C17.3569 85.9277 17.4651 85.963 17.5837 86.0753C17.6984 86.1839 17.7412 86.2903 17.734 86.3979C17.7234 86.5092 17.6607 86.6356 17.5264 86.7775Z" fill="#D92D20"/>
<path fill-rule="evenodd" clip-rule="evenodd" d="M17.5712 89.5004C17.7128 89.6345 17.8701 89.7096 18.0414 89.7084L18.0434 89.7083C18.2132 89.7037 18.3655 89.6207 18.4994 89.4793C18.6376 89.3333 18.7155 89.1745 18.7073 89.0049L18.7071 89.0029C18.6955 88.8352 18.6106 88.6845 18.4698 88.5512L17.8481 87.9627L18.4201 87.3585C18.7622 86.9972 18.9444 86.6204 18.9461 86.2298C18.9476 85.8337 18.7755 85.4782 18.4452 85.1654C18.1151 84.8529 17.752 84.7016 17.3593 84.7276C16.9665 84.7479 16.5989 84.949 16.2567 85.3104L15.2396 86.3849C15.1055 86.5265 15.0304 86.6838 15.0316 86.8551L15.0317 86.8571C15.0363 87.0275 15.1213 87.1811 15.2651 87.3173L17.5712 89.5004ZM18.3473 87.2896L17.7064 87.9666L18.4009 88.624C18.529 88.7453 18.5977 88.8739 18.6071 89.0098C18.6136 89.1429 18.5535 89.2764 18.4267 89.4104C18.3054 89.5385 18.1767 89.6044 18.0407 89.6081C17.9017 89.6091 17.7682 89.5489 17.6401 89.4276L15.334 87.2445C15.203 87.1204 15.1356 86.9904 15.1319 86.8544C15.1309 86.7154 15.1911 86.5819 15.3124 86.4538L16.3295 85.3793C16.6603 85.0299 17.0055 84.8461 17.3652 84.8277C17.7248 84.8037 18.0618 84.9405 18.3763 85.2382C18.6907 85.5359 18.8472 85.8663 18.8458 86.2294C18.8443 86.5868 18.6781 86.9402 18.3473 87.2896Z" fill="#D92D20"/>
<path fill-rule="evenodd" clip-rule="evenodd" d="M19.2163 83.6335L20.9939 85.3164L21.3908 84.8971C21.5369 84.7428 21.6434 84.5924 21.7103 84.4459C21.78 84.2965 21.8129 84.151 21.809 84.0093C21.8079 83.8646 21.7685 83.7225 21.6909 83.5828C21.6161 83.4402 21.503 83.2972 21.3516 83.1539C21.0488 82.8672 20.7558 82.7306 20.4725 82.744C20.1863 82.7547 19.8999 82.9114 19.6132 83.2142L19.2163 83.6335ZM21.7088 84.012C21.7122 84.1358 21.6836 84.266 21.6195 84.4036C21.5584 84.5374 21.4588 84.6795 21.318 84.8282L20.99 85.1747L19.358 83.6297L19.686 83.2832C19.9629 82.9907 20.2262 82.8535 20.4762 82.8442L20.4773 82.8441C20.7226 82.8325 20.9904 82.9499 21.2827 83.2267C21.4283 83.3646 21.5337 83.499 21.6022 83.6294L21.6033 83.6315C21.6736 83.7581 21.7077 83.8839 21.7087 84.01L21.7088 84.012Z" fill="#D92D20"/>
<path fill-rule="evenodd" clip-rule="evenodd" d="M20.4 86.4161C20.5464 86.5547 20.7066 86.6335 20.879 86.6323L20.8831 86.6322C21.0558 86.6239 21.2127 86.5345 21.3536 86.3857L22.164 85.5297C22.4232 85.2559 22.6214 84.9776 22.7556 84.6961C22.8893 84.4093 22.9596 84.1242 22.9639 83.8415L22.9639 83.8404C22.9651 83.5557 22.9032 83.2786 22.7798 83.011C22.6531 82.7401 22.4623 82.4855 22.2103 82.2469C21.7058 81.7693 21.1616 81.5428 20.581 81.5858C20.0047 81.6257 19.4575 81.9295 18.9393 82.4768L18.1289 83.3329C17.9873 83.4825 17.9081 83.6462 17.913 83.8224C17.9176 83.9933 18.0045 84.1483 18.1507 84.2867L20.4 86.4161ZM20.8783 86.5321C21.0171 86.5254 21.1512 86.4537 21.2808 86.3168L22.0912 85.4608C22.3448 85.1929 22.536 84.9239 22.6647 84.6538C22.7933 84.378 22.8596 84.1067 22.8637 83.84C22.8648 83.5705 22.8066 83.3083 22.689 83.0535C22.5685 82.7958 22.3859 82.5512 22.1414 82.3197C21.6522 81.8566 21.1345 81.6453 20.5882 81.6858C20.0447 81.7233 19.5193 82.01 19.0121 82.5458L18.2017 83.4018C18.0721 83.5386 18.0093 83.6779 18.0132 83.8196C18.0169 83.9557 18.0857 84.0871 18.2196 84.2139L20.4689 86.3433C20.6029 86.4701 20.7393 86.533 20.8783 86.5321Z" fill="#D92D20"/>
<path fill-rule="evenodd" clip-rule="evenodd" d="M23.7725 82.9325C23.9189 83.0711 24.0791 83.1499 24.2515 83.1487L24.2556 83.1486C24.4267 83.1404 24.5796 83.0568 24.7137 82.9152C24.8505 82.7707 24.9277 82.6133 24.9195 82.4451C24.9113 82.2781 24.8199 82.1241 24.6711 81.9833L23.8966 81.25L24.7498 80.3489C24.8572 80.2354 24.9211 80.1094 24.9178 79.9726C24.9173 79.8324 24.848 79.7075 24.7335 79.5991C24.6212 79.4928 24.4942 79.4326 24.3548 79.4397C24.2181 79.4439 24.0958 79.5146 23.9884 79.628L23.1352 80.5292L22.6606 80.0799L23.6047 79.0826C23.7146 78.9666 23.7806 78.8387 23.7768 78.7007L23.7767 78.698C23.7692 78.5599 23.6982 78.4368 23.5841 78.3288C23.4725 78.2231 23.3475 78.1612 23.2109 78.1649C23.0729 78.1687 22.9488 78.2416 22.8389 78.3577L21.4621 79.8121C21.3205 79.9616 21.2413 80.1254 21.2461 80.3015C21.2508 80.4725 21.3377 80.6274 21.4839 80.7659L23.7725 82.9325ZM24.3548 79.4397L24.3535 79.4398L24.3589 79.5399L24.3562 79.4397L24.3548 79.4397ZM24.9178 79.9726L24.9178 79.974L24.8175 79.974L24.9177 79.9713L24.9178 79.9726Z" fill="#D92D20"/>
</g>
<g opacity="0.2" clip-path="url(#clip4_2968_667)">
<path fill-rule="evenodd" clip-rule="evenodd" d="M129.988 8.68123C129.819 8.59244 129.564 8.48172 129.085 8.27899L126.128 7.02683C125.34 6.69327 124.801 6.46576 124.37 6.32111C123.949 6.17965 123.711 6.14669 123.532 6.15491C123.109 6.17427 122.722 6.32101 122.422 6.56032C122.305 6.65355 122.172 6.80831 121.983 7.16546C121.787 7.53473 121.575 8.03235 121.261 8.77492L117.454 17.7675C117.14 18.5101 116.93 19.0084 116.801 19.4059C116.676 19.7904 116.658 19.9938 116.672 20.1427C116.709 20.5248 116.873 20.9044 117.153 21.2215C117.272 21.3562 117.461 21.5035 117.856 21.7076C118.259 21.9162 118.798 22.145 119.586 22.4786L125.48 24.9737C126.267 25.3073 126.807 25.5348 127.237 25.6794C127.659 25.8209 127.896 25.8539 128.075 25.8456C128.498 25.8263 128.885 25.6795 129.185 25.4402C129.302 25.347 129.435 25.1922 129.625 24.8351C129.82 24.4658 130.032 23.9682 130.346 23.2256L132.986 16.9898C133.163 16.5731 133.257 16.3426 133.31 16.1857L130.165 14.8541C129.932 14.7553 129.707 14.6603 129.524 14.5657C129.325 14.4626 129.098 14.3231 128.903 14.1024C128.631 13.7946 128.455 13.4065 128.415 12.9883C128.385 12.6822 128.447 12.4161 128.516 12.2025C128.578 12.0109 128.67 11.794 128.762 11.5778C128.766 11.5679 128.77 11.558 128.775 11.548L129.988 8.68123ZM131.912 7.65594C131.742 7.482 131.557 7.323 131.359 7.18091C130.979 6.90848 130.544 6.72431 129.956 6.47569C129.926 6.46305 129.896 6.45024 129.865 6.43724L126.871 5.16983C126.128 4.85527 125.519 4.59708 125.006 4.42512C124.477 4.24721 123.972 4.13268 123.44 4.157C122.613 4.19488 121.818 4.48397 121.175 4.99658C120.756 5.33077 120.468 5.75291 120.216 6.22901C119.974 6.68432 119.729 7.26287 119.436 7.95548L115.595 17.0275C115.302 17.7201 115.057 18.2987 114.898 18.7888C114.732 19.3013 114.63 19.8022 114.681 20.3358C114.761 21.1542 115.106 21.9261 115.655 22.5464C116.007 22.9447 116.441 23.2276 116.937 23.4843C117.417 23.7324 118.027 23.9905 118.77 24.3051L124.736 26.8307C125.479 27.1453 126.089 27.4035 126.601 27.5754C127.131 27.7533 127.636 27.8679 128.167 27.8435C128.994 27.8057 129.789 27.5166 130.432 27.004C130.851 26.6698 131.139 26.2476 131.392 25.7715C131.633 25.3162 131.878 24.7377 132.171 24.0451L134.828 17.7695C134.841 17.7378 134.855 17.7065 134.868 17.6756C135.098 17.1328 135.28 16.7047 135.349 16.2467C135.385 16.0089 135.397 15.7686 135.387 15.529C135.386 15.5134 135.385 15.4979 135.384 15.4824C135.376 15.3312 135.358 15.1802 135.331 15.0304C135.249 14.5758 135.059 14.1456 134.811 13.5864C134.797 13.5554 134.784 13.5241 134.769 13.4923L133.001 9.49254C132.987 9.46227 132.974 9.43238 132.961 9.40287C132.712 8.83859 132.523 8.41154 132.241 8.03843C132.148 7.91626 132.049 7.79948 131.943 7.68861C131.933 7.6775 131.922 7.66661 131.912 7.65594ZM131.326 10.651L130.616 12.3278C130.52 12.5555 130.465 12.6875 130.431 12.7831C130.435 12.7849 130.438 12.7869 130.442 12.789C130.549 12.844 130.701 12.9091 130.973 13.0243L132.699 13.755L131.326 10.651ZM120.833 14.9156C121.049 14.407 121.635 14.1693 122.144 14.3846L129.511 17.5035C130.02 17.7188 130.257 18.3057 130.042 18.8143C129.827 19.3229 129.24 19.5606 128.731 19.3453L121.364 16.2264C120.856 16.011 120.618 15.4242 120.833 14.9156ZM119.369 18.3743C119.584 17.8657 120.171 17.628 120.68 17.8433L126.205 20.1825C126.713 20.3978 126.951 20.9847 126.736 21.4932C126.521 22.0018 125.934 22.2396 125.425 22.0242L119.9 19.6851C119.391 19.4697 119.154 18.8829 119.369 18.3743Z" fill="#667085"/>
</g>
<path d="M65.8379 124.484C64.3639 118.983 63.627 116.233 64.1535 113.848C64.5972 111.838 65.6502 110.014 67.1689 108.625C68.971 106.977 71.7214 106.24 77.2223 104.766L97.5804 99.3107C99.4524 98.8091 100.388 98.5583 101.328 98.532C102.126 98.5096 102.923 98.6069 103.693 98.8207C104.598 99.0721 105.447 99.541 107.144 100.479C108.535 101.247 109.231 101.632 109.973 101.838C110.604 102.013 111.257 102.093 111.912 102.075C112.681 102.053 113.448 101.847 114.983 101.436L136.489 95.6736C141.99 94.1996 144.741 93.4627 147.125 93.9892C149.135 94.4329 150.959 95.486 152.348 97.0046C153.997 98.8067 154.734 101.557 156.208 107.058L171.04 162.413C171.523 164.217 171.765 165.118 171.592 165.9C171.447 166.559 171.102 167.157 170.604 167.613C170.013 168.153 169.111 168.395 167.308 168.878L92.9111 188.812C89.6648 189.682 88.0417 190.117 86.6342 189.806C85.4482 189.545 84.3718 188.923 83.552 188.027C82.5792 186.963 82.1443 185.34 81.2744 182.094L65.8379 124.484Z" fill="url(#paint0_linear_2968_667)"/>
<g filter="url(#filter0_b_2968_667)">
<path d="M92.4254 148.352C92.6943 136.756 92.8288 130.957 96.1211 126.768C99.4133 122.579 105 121.082 116.174 118.088L145.143 110.326C156.147 107.378 161.649 105.903 165.505 108.7C169.362 111.496 169.671 117.184 170.29 128.559L172.003 160.074C172.196 163.637 172.293 165.418 171.338 166.736C170.382 168.054 168.659 168.516 165.212 169.439L90.068 189.574C92.3895 185.133 91.4348 181.571 91.847 170.005C92.0157 165.271 92.2305 156.758 92.4254 148.352Z" fill="#B9DDFF" fill-opacity="0.6"/>
</g>
<path d="M77.1211 114.976C76.6875 113.357 77.6479 111.694 79.2664 111.26L91.9339 107.866C93.5523 107.432 95.2159 108.392 95.6496 110.011C96.0832 111.629 95.1228 113.293 93.5043 113.727L80.8368 117.121C79.2183 117.555 77.5548 116.594 77.1211 114.976Z" fill="white" fill-opacity="0.4" stroke="url(#paint1_linear_2968_667)" stroke-width="0.489516"/>
<defs>
<filter id="filter0_b_2968_667" x="76.954" y="94.0936" width="108.29" height="108.595" filterUnits="userSpaceOnUse" color-interpolation-filters="sRGB">
<feFlood flood-opacity="0" result="BackgroundImageFix"/>
<feGaussianBlur in="BackgroundImageFix" stdDeviation="6.55719"/>
<feComposite in2="SourceAlpha" operator="in" result="effect1_backgroundBlur_2968_667"/>
<feBlend mode="normal" in="SourceGraphic" in2="effect1_backgroundBlur_2968_667" result="shape"/>
</filter>
<linearGradient id="paint0_linear_2968_667" x1="92.0758" y1="120.09" x2="165.622" y2="126.941" gradientUnits="userSpaceOnUse">
<stop stop-color="#7FC0FB"/>
<stop offset="1" stop-color="#4088F4"/>
</linearGradient>
<linearGradient id="paint1_linear_2968_667" x1="73.1806" y1="114.084" x2="87.2339" y2="115.66" gradientUnits="userSpaceOnUse">
<stop stop-color="white"/>
<stop offset="1" stop-color="white" stop-opacity="0"/>
</linearGradient>
<clipPath id="clip0_2968_667">
<rect width="34.1186" height="34.1186" fill="white" transform="translate(0.625977 146.193) rotate(-56.5505)"/>
</clipPath>
<clipPath id="clip1_2968_667">
<rect width="31.0539" height="31.0539" fill="white" transform="translate(71.1035 65.2539) rotate(-16.3944)"/>
</clipPath>
<clipPath id="clip2_2968_667">
<rect width="31.5001" height="31.5001" fill="white" transform="translate(149.893 39.709) rotate(16.7434)"/>
</clipPath>
<clipPath id="clip3_2968_667">
<rect width="24.0573" height="24.0573" fill="white" transform="translate(0.5 81.4707) rotate(-46.5682)"/>
</clipPath>
<clipPath id="clip4_2968_667">
<rect width="24" height="24" fill="white" transform="translate(119.432 0.271484) rotate(22.946)"/>
</clipPath>
</defs>
</svg>
