<svg width="248" height="203" viewBox="0 0 248 203" fill="none" xmlns="http://www.w3.org/2000/svg">
<rect y="68" width="248" height="135" rx="8.9194" fill="#D8ECFF"/>
<rect x="13.3789" y="90.082" width="68" height="100" rx="8.9194" fill="white" fill-opacity="0.9"/>
<path fill-rule="evenodd" clip-rule="evenodd" d="M32.722 106.796C32.722 106.488 32.9716 106.238 33.2795 106.238C33.5874 106.238 33.837 106.488 33.837 106.796V107.671H35.2864V106.796C35.2864 106.488 35.5359 106.238 35.8438 106.238C36.1517 106.238 36.4013 106.488 36.4013 106.796V107.671H36.8642C38.0342 107.671 38.9826 108.619 38.9826 109.789V110.252H39.8578C40.1657 110.252 40.4153 110.502 40.4153 110.81C40.4153 111.118 40.1657 111.367 39.8578 111.367H38.9826V112.817H39.8578C40.1657 112.817 40.4153 113.066 40.4153 113.374C40.4153 113.682 40.1657 113.932 39.8578 113.932H38.9826V114.395C38.9826 115.564 38.0342 116.513 36.8642 116.513H36.4013V117.388C36.4013 117.696 36.1517 117.946 35.8438 117.946C35.5359 117.946 35.2864 117.696 35.2864 117.388V116.513H33.837V117.388C33.837 117.696 33.5874 117.946 33.2795 117.946C32.9716 117.946 32.722 117.696 32.722 117.388V116.513H32.259C31.0891 116.513 30.1406 115.564 30.1406 114.395V113.932H29.2655C28.9576 113.932 28.708 113.682 28.708 113.374C28.708 113.066 28.9576 112.817 29.2655 112.817H30.1406V111.367H29.2655C28.9576 111.367 28.708 111.118 28.708 110.81C28.708 110.502 28.9576 110.252 29.2655 110.252H30.1406V109.789C30.1406 108.619 31.0891 107.671 32.259 107.671H32.722V106.796ZM32.259 108.786C31.7048 108.786 31.2556 109.235 31.2556 109.789V114.395C31.2556 114.949 31.7048 115.398 32.259 115.398H36.8642C37.4184 115.398 37.8677 114.949 37.8677 114.395V109.789C37.8677 109.235 37.4184 108.786 36.8642 108.786H32.259Z" fill="#219BF4"/>
<path d="M47.768 108.171C48.6488 108.171 49.3958 108.406 49.9978 108.874C50.5999 109.342 50.9567 109.978 51.0681 110.769H50.1874C50.0759 110.189 49.786 109.743 49.34 109.431C48.9052 109.13 48.3812 108.985 47.7568 108.985C46.8314 108.985 46.1179 109.309 45.6162 109.955C45.1479 110.557 44.9138 111.349 44.9138 112.341C44.9138 113.334 45.1367 114.125 45.605 114.705C46.0956 115.318 46.798 115.63 47.7345 115.63C48.37 115.63 48.9052 115.463 49.3512 115.129C49.8194 114.772 50.1428 114.248 50.2988 113.557H51.1796C51.0013 114.482 50.5887 115.207 49.9309 115.719C49.3177 116.199 48.5819 116.444 47.7345 116.444C46.497 116.444 45.5493 116.032 44.8915 115.218C44.2894 114.482 43.9995 113.523 43.9995 112.341C43.9995 111.159 44.3005 110.189 44.9138 109.431C45.5827 108.584 46.5415 108.171 47.768 108.171ZM52.6685 108.328H55.9241C57.7526 108.328 58.6668 109.108 58.6668 110.669C58.6668 112.241 57.7414 113.033 55.9129 113.033H53.5827V116.288H52.6685V108.328ZM53.5827 109.119V112.241H55.8683C56.515 112.241 56.9833 112.107 57.2954 111.851C57.5965 111.594 57.7526 111.204 57.7526 110.669C57.7526 110.134 57.5965 109.743 57.2843 109.509C56.9721 109.242 56.5038 109.119 55.8683 109.119H53.5827ZM60.0449 108.328H60.9591V113.244C60.9591 114.025 61.1263 114.616 61.4831 115.017C61.851 115.43 62.4308 115.641 63.2224 115.641C64.0029 115.641 64.5826 115.43 64.9617 115.017C65.3073 114.616 65.4857 114.025 65.4857 113.244V108.328H66.3999V113.233C66.3999 114.27 66.1324 115.062 65.6083 115.608C65.062 116.165 64.2704 116.444 63.2224 116.444C62.1744 116.444 61.3828 116.165 60.8476 115.619C60.3124 115.062 60.0449 114.27 60.0449 113.233V108.328Z" fill="#485264"/>
<path d="M32.1754 139.749C32.1754 139.441 32.425 139.192 32.7329 139.192C33.0407 139.192 33.2903 139.441 33.2903 139.749V140.864C33.2903 141.172 33.0407 141.422 32.7329 141.422C32.425 141.422 32.1754 141.172 32.1754 140.864V139.749Z" fill="#219BF4"/>
<path d="M35.097 139.192C34.7892 139.192 34.5396 139.441 34.5396 139.749V140.864C34.5396 141.172 34.7892 141.422 35.097 141.422C35.4049 141.422 35.6545 141.172 35.6545 140.864V139.749C35.6545 139.441 35.4049 139.192 35.097 139.192Z" fill="#219BF4"/>
<path fill-rule="evenodd" clip-rule="evenodd" d="M29.793 138.479C29.793 137.394 30.6718 136.516 31.7559 136.516H35.1427C35.6633 136.516 36.1625 136.722 36.5307 137.091L38.7578 139.318C39.1259 139.686 39.3327 140.185 39.3327 140.706V145.706C39.3327 146.791 38.4539 147.669 37.3698 147.669H31.7559C30.6718 147.669 29.793 146.791 29.793 145.706V138.479ZM31.7559 137.631C31.2875 137.631 30.9079 138.01 30.9079 138.479V145.706C30.9079 146.175 31.2875 146.554 31.7559 146.554H37.3698C37.8381 146.554 38.2178 146.175 38.2178 145.706V140.706C38.2178 140.481 38.1284 140.265 37.9694 140.106L35.7423 137.879C35.5833 137.72 35.3676 137.631 35.1427 137.631H31.7559Z" fill="#219BF4"/>
<path d="M49.0724 141.75C48.6153 143.021 47.7457 144.069 46.4524 144.917L45.9172 144.259C47.1659 143.434 47.991 142.408 48.3923 141.171C48.515 140.736 48.6153 140.267 48.6934 139.755H45.5158V147.392H44.7019V138.974H48.7825C48.8383 138.406 48.8717 137.792 48.8717 137.146H49.6856C49.6856 137.804 49.6522 138.417 49.6076 138.974H53.521V146.154C53.521 146.901 53.1531 147.28 52.4395 147.28H50.6891L50.4661 146.478L52.1719 146.522C52.5287 146.522 52.7071 146.333 52.7071 145.976V139.755H49.5184C49.4627 140.178 49.3958 140.58 49.3066 140.948C50.4661 142.04 51.4361 143.122 52.2277 144.181L51.6256 144.794C50.979 143.835 50.1205 142.821 49.0724 141.75ZM55.762 138.316H58.7946C58.9395 137.926 59.0733 137.536 59.1848 137.135L59.9987 137.235C59.8872 137.603 59.7757 137.96 59.6531 138.316H65.3615V139.097H59.352C58.9395 140.056 58.4267 140.936 57.8246 141.739V147.414H57.0441V142.698C56.6651 143.111 56.2748 143.501 55.8512 143.88L55.3495 143.244C56.7097 142.051 57.7466 140.669 58.4713 139.097H55.762V138.316ZM58.6942 143.501H61.9275V142.464C62.563 142.107 63.1651 141.695 63.7449 141.204H59.5527V140.457H64.7706V141.204C64.1685 141.761 63.4884 142.297 62.7303 142.798V143.501H65.5176V144.27H62.7303V146.377C62.7303 147.035 62.3958 147.37 61.738 147.37H60.3443L60.1325 146.611C60.5339 146.623 60.9575 146.634 61.4147 146.634C61.7491 146.634 61.9275 146.455 61.9275 146.121V144.27H58.6942V143.501Z" fill="#485264"/>
<path fill-rule="evenodd" clip-rule="evenodd" d="M32.7867 167.075C32.8147 167.075 32.843 167.075 32.8717 167.075H36.2538C36.2825 167.075 36.3108 167.075 36.3388 167.075C36.8559 167.075 37.2458 167.075 37.601 167.197C37.9135 167.305 38.1981 167.481 38.4342 167.712C38.7027 167.975 38.8768 168.324 39.1077 168.787C39.1202 168.812 39.1329 168.837 39.1457 168.863L40.3535 171.278C40.3584 171.288 40.3632 171.298 40.368 171.307C40.4595 171.49 40.5287 171.628 40.5784 171.776C40.6224 171.907 40.6542 172.041 40.6733 172.178C40.695 172.333 40.6949 172.487 40.6949 172.692C40.6949 172.702 40.6949 172.713 40.6949 172.724V173.899C40.6949 174.348 40.6949 174.718 40.6702 175.02C40.6446 175.333 40.5897 175.622 40.4518 175.892C40.238 176.312 39.8969 176.653 39.4773 176.867C39.2068 177.004 38.9187 177.059 38.6054 177.085C38.3037 177.11 37.9333 177.11 37.4846 177.11H31.6409C31.1922 177.11 30.8218 177.11 30.5201 177.085C30.2068 177.059 29.9188 177.004 29.6482 176.867C29.2286 176.653 28.8875 176.312 28.6737 175.892C28.5359 175.622 28.4809 175.333 28.4553 175.02C28.4307 174.718 28.4307 174.348 28.4307 173.899L28.4307 172.724C28.4307 172.713 28.4307 172.702 28.4307 172.692C28.4306 172.487 28.4306 172.333 28.4522 172.178C28.4713 172.041 28.5031 171.907 28.5471 171.776C28.5969 171.628 28.6661 171.49 28.7576 171.307C28.7623 171.298 28.7671 171.288 28.772 171.278L29.2706 171.527L29.2739 171.529M29.2706 171.527L28.772 171.278L29.9798 168.863C29.9926 168.837 30.0053 168.812 30.0178 168.787C30.2487 168.324 30.4229 167.975 30.6913 167.712C30.9274 167.481 31.212 167.305 31.5245 167.197C31.8797 167.075 32.2696 167.075 32.7867 167.075M29.8901 171.535L30.977 169.361C31.2636 168.788 31.3539 168.624 31.4714 168.509C31.5895 168.393 31.7318 168.305 31.888 168.251C32.0436 168.197 32.231 168.19 32.8717 168.19H36.2538C36.8945 168.19 37.0819 168.197 37.2375 168.251C37.3937 168.305 37.536 168.393 37.6541 168.509C37.7717 168.624 37.862 168.788 38.1485 169.361L39.2354 171.535H29.8901ZM29.5457 172.65C29.5456 172.673 29.5456 172.697 29.5456 172.724V173.876C29.5456 174.354 29.546 174.678 29.5665 174.929C29.5865 175.174 29.6227 175.299 29.6671 175.386C29.774 175.596 29.9446 175.766 30.1544 175.873C30.2415 175.918 30.3665 175.954 30.6109 175.974C30.8618 175.994 31.1864 175.995 31.664 175.995H37.4616C37.9391 175.995 38.2637 175.994 38.5146 175.974C38.759 175.954 38.884 175.918 38.9712 175.873C39.181 175.766 39.3515 175.596 39.4584 175.386C39.5028 175.299 39.539 175.174 39.559 174.929C39.5795 174.678 39.5799 174.354 39.5799 173.876V172.724C39.5799 172.697 39.5799 172.673 39.5799 172.65H29.5457ZM33.4478 174.88H31.218C30.9101 174.88 30.6605 174.63 30.6605 174.322C30.6605 174.014 30.9101 173.765 31.218 173.765H33.4478C33.7557 173.765 34.0053 174.014 34.0053 174.322C34.0053 174.63 33.7557 174.88 33.4478 174.88Z" fill="#219BF4"/>
<path d="M44.3897 168.316H47.4223C47.5673 167.926 47.7011 167.536 47.8126 167.135L48.6265 167.235C48.515 167.603 48.4035 167.96 48.2808 168.316H53.9893V169.097H47.9798C47.5673 170.056 47.0544 170.936 46.4524 171.739V177.414H45.6719V172.698C45.2928 173.111 44.9026 173.501 44.4789 173.88L43.9772 173.244C45.3374 172.051 46.3743 170.669 47.099 169.097H44.3897V168.316ZM47.322 173.501H50.5553V172.464C51.1908 172.107 51.7928 171.695 52.3726 171.204H48.1805V170.457H53.3983V171.204C52.7963 171.761 52.1162 172.297 51.358 172.798V173.501H54.1453V174.27H51.358V176.377C51.358 177.035 51.0236 177.37 50.3657 177.37H48.9721L48.7603 176.611C49.1616 176.623 49.5853 176.634 50.0424 176.634C50.3769 176.634 50.5553 176.455 50.5553 176.121V174.27H47.322V173.501ZM56.3975 171.193C56.1411 171.617 55.8623 172.029 55.5613 172.43L55.2937 171.572C56.1745 170.29 56.81 168.829 57.2002 167.179L57.9249 167.514C57.7243 168.272 57.4678 168.996 57.1779 169.677V177.414H56.3975V171.193ZM58.6831 167.625C59.3297 168.183 59.8761 168.729 60.322 169.286L59.7311 169.877C59.3409 169.342 58.8057 168.762 58.1368 168.16L58.6831 167.625ZM57.6239 170.647H59.6419V175.374C59.9318 175.062 60.2328 174.716 60.5562 174.337L60.7457 175.129C60.1882 175.831 59.5862 176.455 58.9618 177.013L58.6385 176.277C58.7946 176.143 58.8726 175.998 58.8726 175.842V171.394H57.6239V170.647ZM60.8906 168.484H62.2286V167.201H62.9533V168.484H64.2131V169.141C64.4361 168.695 64.6479 168.238 64.8486 167.77L65.5176 168.116C65.1385 169.052 64.6925 169.888 64.202 170.624H65.4841V171.36H63.6557C63.3435 171.739 63.009 172.096 62.6634 172.408H64.9378V177.381H64.1797V176.912H62.0948V177.381H61.3478V173.389C61.0802 173.545 60.8126 173.679 60.545 173.813L60.1436 173.177C61.0913 172.743 61.9387 172.141 62.6745 171.36H60.6454V170.624H62.2286V169.186H60.8906V168.484ZM63.2877 170.624C63.6111 170.178 63.9121 169.699 64.1908 169.186H62.9533V170.624H63.2877ZM62.0948 174.984V176.21H64.1797V174.984H62.0948ZM64.1797 174.315V173.111H62.0948V174.315H64.1797Z" fill="#485264"/>
<rect x="90.2979" y="90.082" width="68" height="100" rx="8.9194" fill="white" fill-opacity="0.9"/>
<path fill-rule="evenodd" clip-rule="evenodd" d="M109.641 106.796C109.641 106.488 109.891 106.238 110.198 106.238C110.506 106.238 110.756 106.488 110.756 106.796V107.671H112.205V106.796C112.205 106.488 112.455 106.238 112.763 106.238C113.071 106.238 113.32 106.488 113.32 106.796V107.671H113.783C114.953 107.671 115.902 108.619 115.902 109.789V110.252H116.777C117.085 110.252 117.334 110.502 117.334 110.81C117.334 111.118 117.085 111.367 116.777 111.367H115.902V112.817H116.777C117.085 112.817 117.334 113.066 117.334 113.374C117.334 113.682 117.085 113.932 116.777 113.932H115.902V114.395C115.902 115.564 114.953 116.513 113.783 116.513H113.32V117.388C113.32 117.696 113.071 117.946 112.763 117.946C112.455 117.946 112.205 117.696 112.205 117.388V116.513H110.756V117.388C110.756 117.696 110.506 117.946 110.198 117.946C109.891 117.946 109.641 117.696 109.641 117.388V116.513H109.178C108.008 116.513 107.06 115.564 107.06 114.395V113.932H106.184C105.877 113.932 105.627 113.682 105.627 113.374C105.627 113.066 105.877 112.817 106.184 112.817H107.06V111.367H106.184C105.877 111.367 105.627 111.118 105.627 110.81C105.627 110.502 105.877 110.252 106.184 110.252H107.06V109.789C107.06 108.619 108.008 107.671 109.178 107.671H109.641V106.796ZM109.178 108.786C108.624 108.786 108.175 109.235 108.175 109.789V114.395C108.175 114.949 108.624 115.398 109.178 115.398H113.783C114.337 115.398 114.787 114.949 114.787 114.395V109.789C114.787 109.235 114.337 108.786 113.783 108.786H109.178Z" fill="#219BF4"/>
<path d="M124.687 108.171C125.568 108.171 126.315 108.406 126.917 108.874C127.519 109.342 127.876 109.978 127.987 110.769H127.106C126.995 110.189 126.705 109.743 126.259 109.431C125.824 109.13 125.3 108.985 124.676 108.985C123.75 108.985 123.037 109.309 122.535 109.955C122.067 110.557 121.833 111.349 121.833 112.341C121.833 113.334 122.056 114.125 122.524 114.705C123.015 115.318 123.717 115.63 124.653 115.63C125.289 115.63 125.824 115.463 126.27 115.129C126.738 114.772 127.062 114.248 127.218 113.557H128.099C127.92 114.482 127.508 115.207 126.85 115.719C126.237 116.199 125.501 116.444 124.653 116.444C123.416 116.444 122.468 116.032 121.81 115.218C121.208 114.482 120.918 113.523 120.918 112.341C120.918 111.159 121.219 110.189 121.833 109.431C122.502 108.584 123.46 108.171 124.687 108.171ZM129.587 108.328H132.843C134.672 108.328 135.586 109.108 135.586 110.669C135.586 112.241 134.66 113.033 132.832 113.033H130.502V116.288H129.587V108.328ZM130.502 109.119V112.241H132.787C133.434 112.241 133.902 112.107 134.214 111.851C134.515 111.594 134.672 111.204 134.672 110.669C134.672 110.134 134.515 109.743 134.203 109.509C133.891 109.242 133.423 109.119 132.787 109.119H130.502ZM136.964 108.328H137.878V113.244C137.878 114.025 138.045 114.616 138.402 115.017C138.77 115.43 139.35 115.641 140.141 115.641C140.922 115.641 141.502 115.43 141.881 115.017C142.226 114.616 142.405 114.025 142.405 113.244V108.328H143.319V113.233C143.319 114.27 143.051 115.062 142.527 115.608C141.981 116.165 141.189 116.444 140.141 116.444C139.093 116.444 138.302 116.165 137.767 115.619C137.231 115.062 136.964 114.27 136.964 113.233V108.328Z" fill="#485264"/>
<path d="M109.094 139.749C109.094 139.441 109.344 139.192 109.652 139.192C109.96 139.192 110.209 139.441 110.209 139.749V140.864C110.209 141.172 109.96 141.422 109.652 141.422C109.344 141.422 109.094 141.172 109.094 140.864V139.749Z" fill="#219BF4"/>
<path d="M112.016 139.192C111.708 139.192 111.459 139.441 111.459 139.749V140.864C111.459 141.172 111.708 141.422 112.016 141.422C112.324 141.422 112.573 141.172 112.573 140.864V139.749C112.573 139.441 112.324 139.192 112.016 139.192Z" fill="#219BF4"/>
<path fill-rule="evenodd" clip-rule="evenodd" d="M106.712 138.479C106.712 137.394 107.591 136.516 108.675 136.516H112.062C112.582 136.516 113.081 136.722 113.45 137.091L115.677 139.318C116.045 139.686 116.252 140.185 116.252 140.706V145.706C116.252 146.791 115.373 147.669 114.289 147.669H108.675C107.591 147.669 106.712 146.791 106.712 145.706V138.479ZM108.675 137.631C108.206 137.631 107.827 138.01 107.827 138.479V145.706C107.827 146.175 108.206 146.554 108.675 146.554H114.289C114.757 146.554 115.137 146.175 115.137 145.706V140.706C115.137 140.481 115.047 140.265 114.888 140.106L112.661 137.879C112.502 137.72 112.287 137.631 112.062 137.631H108.675Z" fill="#219BF4"/>
<path d="M125.991 141.75C125.534 143.021 124.665 144.069 123.371 144.917L122.836 144.259C124.085 143.434 124.91 142.408 125.311 141.171C125.434 140.736 125.534 140.267 125.612 139.755H122.435V147.392H121.621V138.974H125.701C125.757 138.406 125.791 137.792 125.791 137.146H126.605C126.605 137.804 126.571 138.417 126.527 138.974H130.44V146.154C130.44 146.901 130.072 147.28 129.358 147.28H127.608L127.385 146.478L129.091 146.522C129.448 146.522 129.626 146.333 129.626 145.976V139.755H126.437C126.382 140.178 126.315 140.58 126.226 140.948C127.385 142.04 128.355 143.122 129.147 144.181L128.545 144.794C127.898 143.835 127.039 142.821 125.991 141.75ZM132.681 138.316H135.714C135.858 137.926 135.992 137.536 136.104 137.135L136.918 137.235C136.806 137.603 136.695 137.96 136.572 138.316H142.28V139.097H136.271C135.858 140.056 135.346 140.936 134.744 141.739V147.414H133.963V142.698C133.584 143.111 133.194 143.501 132.77 143.88L132.268 143.244C133.629 142.051 134.665 140.669 135.39 139.097H132.681V138.316ZM135.613 143.501H138.846V142.464C139.482 142.107 140.084 141.695 140.664 141.204H136.472V140.457H141.69V141.204C141.087 141.761 140.407 142.297 139.649 142.798V143.501H142.437V144.27H139.649V146.377C139.649 147.035 139.315 147.37 138.657 147.37H137.263L137.051 146.611C137.453 146.623 137.876 146.634 138.334 146.634C138.668 146.634 138.846 146.455 138.846 146.121V144.27H135.613V143.501Z" fill="#485264"/>
<path fill-rule="evenodd" clip-rule="evenodd" d="M109.706 167.075C109.734 167.075 109.762 167.075 109.791 167.075H113.173C113.201 167.075 113.23 167.075 113.258 167.075C113.775 167.075 114.165 167.075 114.52 167.197C114.832 167.305 115.117 167.481 115.353 167.712C115.622 167.975 115.796 168.324 116.027 168.787C116.039 168.812 116.052 168.837 116.065 168.863L117.272 171.278C117.277 171.288 117.282 171.298 117.287 171.307C117.378 171.49 117.448 171.628 117.497 171.776C117.541 171.907 117.573 172.041 117.592 172.178C117.614 172.333 117.614 172.487 117.614 172.692C117.614 172.702 117.614 172.713 117.614 172.724V173.899C117.614 174.348 117.614 174.718 117.589 175.02C117.564 175.333 117.509 175.622 117.371 175.892C117.157 176.312 116.816 176.653 116.396 176.867C116.126 177.004 115.838 177.059 115.524 177.085C115.223 177.11 114.852 177.11 114.404 177.11H108.56C108.111 177.11 107.741 177.11 107.439 177.085C107.126 177.059 106.838 177.004 106.567 176.867C106.148 176.653 105.806 176.312 105.593 175.892C105.455 175.622 105.4 175.333 105.374 175.02C105.35 174.718 105.35 174.348 105.35 173.899L105.35 172.724C105.35 172.713 105.35 172.702 105.35 172.692C105.35 172.487 105.35 172.333 105.371 172.178C105.39 172.041 105.422 171.907 105.466 171.776C105.516 171.628 105.585 171.49 105.677 171.307C105.681 171.298 105.686 171.288 105.691 171.278L106.19 171.527L106.193 171.529M106.19 171.527L105.691 171.278L106.899 168.863C106.912 168.837 106.924 168.812 106.937 168.787C107.168 168.324 107.342 167.975 107.61 167.712C107.846 167.481 108.131 167.305 108.443 167.197C108.799 167.075 109.189 167.075 109.706 167.075M106.809 171.535L107.896 169.361C108.183 168.788 108.273 168.624 108.39 168.509C108.508 168.393 108.651 168.305 108.807 168.251C108.963 168.197 109.15 168.19 109.791 168.19H113.173C113.813 168.19 114.001 168.197 114.156 168.251C114.313 168.305 114.455 168.393 114.573 168.509C114.691 168.624 114.781 168.788 115.067 169.361L116.154 171.535H106.809ZM106.465 172.65C106.465 172.673 106.465 172.697 106.465 172.724V173.876C106.465 174.354 106.465 174.678 106.485 174.929C106.505 175.174 106.542 175.299 106.586 175.386C106.693 175.596 106.864 175.766 107.073 175.873C107.16 175.918 107.285 175.954 107.53 175.974C107.781 175.994 108.105 175.995 108.583 175.995H114.381C114.858 175.995 115.183 175.994 115.434 175.974C115.678 175.954 115.803 175.918 115.89 175.873C116.1 175.766 116.27 175.596 116.377 175.386C116.422 175.299 116.458 175.174 116.478 174.929C116.498 174.678 116.499 174.354 116.499 173.876V172.724C116.499 172.697 116.499 172.673 116.499 172.65H106.465ZM110.367 174.88H108.137C107.829 174.88 107.579 174.63 107.579 174.322C107.579 174.014 107.829 173.765 108.137 173.765H110.367C110.675 173.765 110.924 174.014 110.924 174.322C110.924 174.63 110.675 174.88 110.367 174.88Z" fill="#219BF4"/>
<path d="M121.309 168.316H124.341C124.486 167.926 124.62 167.536 124.732 167.135L125.545 167.235C125.434 167.603 125.322 167.96 125.2 168.316H130.908V169.097H124.899C124.486 170.056 123.973 170.936 123.371 171.739V177.414H122.591V172.698C122.212 173.111 121.822 173.501 121.398 173.88L120.896 173.244C122.256 172.051 123.293 170.669 124.018 169.097H121.309V168.316ZM124.241 173.501H127.474V172.464C128.11 172.107 128.712 171.695 129.292 171.204H125.099V170.457H130.317V171.204C129.715 171.761 129.035 172.297 128.277 172.798V173.501H131.064V174.27H128.277V176.377C128.277 177.035 127.942 177.37 127.285 177.37H125.891L125.679 176.611C126.081 176.623 126.504 176.634 126.961 176.634C127.296 176.634 127.474 176.455 127.474 176.121V174.27H124.241V173.501ZM133.316 171.193C133.06 171.617 132.781 172.029 132.48 172.43L132.213 171.572C133.093 170.29 133.729 168.829 134.119 167.179L134.844 167.514C134.643 168.272 134.387 168.996 134.097 169.677V177.414H133.316V171.193ZM135.602 167.625C136.249 168.183 136.795 168.729 137.241 169.286L136.65 169.877C136.26 169.342 135.725 168.762 135.056 168.16L135.602 167.625ZM134.543 170.647H136.561V175.374C136.851 175.062 137.152 174.716 137.475 174.337L137.665 175.129C137.107 175.831 136.505 176.455 135.881 177.013L135.557 176.277C135.714 176.143 135.792 175.998 135.792 175.842V171.394H134.543V170.647ZM137.81 168.484H139.147V167.201H139.872V168.484H141.132V169.141C141.355 168.695 141.567 168.238 141.768 167.77L142.437 168.116C142.057 169.052 141.611 169.888 141.121 170.624H142.403V171.36H140.575C140.262 171.739 139.928 172.096 139.582 172.408H141.857V177.381H141.099V176.912H139.014V177.381H138.267V173.389C137.999 173.545 137.732 173.679 137.464 173.813L137.063 173.177C138.01 172.743 138.858 172.141 139.593 171.36H137.564V170.624H139.147V169.186H137.81V168.484ZM140.207 170.624C140.53 170.178 140.831 169.699 141.11 169.186H139.872V170.624H140.207ZM139.014 174.984V176.21H141.099V174.984H139.014ZM141.099 174.315V173.111H139.014V174.315H141.099Z" fill="#485264"/>
<rect x="167.218" y="90.082" width="68" height="100" rx="8.9194" fill="white" fill-opacity="0.9"/>
<path fill-rule="evenodd" clip-rule="evenodd" d="M186.561 106.796C186.561 106.488 186.81 106.238 187.118 106.238C187.426 106.238 187.676 106.488 187.676 106.796V107.671H189.125V106.796C189.125 106.488 189.375 106.238 189.683 106.238C189.991 106.238 190.24 106.488 190.24 106.796V107.671H190.703C191.873 107.671 192.821 108.619 192.821 109.789V110.252H193.697C194.005 110.252 194.254 110.502 194.254 110.81C194.254 111.118 194.005 111.367 193.697 111.367H192.821V112.817H193.697C194.005 112.817 194.254 113.066 194.254 113.374C194.254 113.682 194.005 113.932 193.697 113.932H192.821V114.395C192.821 115.564 191.873 116.513 190.703 116.513H190.24V117.388C190.24 117.696 189.991 117.946 189.683 117.946C189.375 117.946 189.125 117.696 189.125 117.388V116.513H187.676V117.388C187.676 117.696 187.426 117.946 187.118 117.946C186.81 117.946 186.561 117.696 186.561 117.388V116.513H186.098C184.928 116.513 183.98 115.564 183.98 114.395V113.932H183.104C182.796 113.932 182.547 113.682 182.547 113.374C182.547 113.066 182.796 112.817 183.104 112.817H183.98V111.367H183.104C182.796 111.367 182.547 111.118 182.547 110.81C182.547 110.502 182.796 110.252 183.104 110.252H183.98V109.789C183.98 108.619 184.928 107.671 186.098 107.671H186.561V106.796ZM186.098 108.786C185.544 108.786 185.094 109.235 185.094 109.789V114.395C185.094 114.949 185.544 115.398 186.098 115.398H190.703C191.257 115.398 191.707 114.949 191.707 114.395V109.789C191.707 109.235 191.257 108.786 190.703 108.786H186.098Z" fill="#219BF4"/>
<path d="M201.607 108.171C202.488 108.171 203.235 108.406 203.837 108.874C204.439 109.342 204.796 109.978 204.907 110.769H204.026C203.915 110.189 203.625 109.743 203.179 109.431C202.744 109.13 202.22 108.985 201.596 108.985C200.67 108.985 199.957 109.309 199.455 109.955C198.987 110.557 198.753 111.349 198.753 112.341C198.753 113.334 198.976 114.125 199.444 114.705C199.934 115.318 200.637 115.63 201.573 115.63C202.209 115.63 202.744 115.463 203.19 115.129C203.658 114.772 203.982 114.248 204.138 113.557H205.019C204.84 114.482 204.428 115.207 203.77 115.719C203.157 116.199 202.421 116.444 201.573 116.444C200.336 116.444 199.388 116.032 198.73 115.218C198.128 114.482 197.838 113.523 197.838 112.341C197.838 111.159 198.139 110.189 198.753 109.431C199.422 108.584 200.38 108.171 201.607 108.171ZM206.507 108.328H209.763C211.591 108.328 212.506 109.108 212.506 110.669C212.506 112.241 211.58 113.033 209.752 113.033H207.422V116.288H206.507V108.328ZM207.422 109.119V112.241H209.707C210.354 112.241 210.822 112.107 211.134 111.851C211.435 111.594 211.591 111.204 211.591 110.669C211.591 110.134 211.435 109.743 211.123 109.509C210.811 109.242 210.343 109.119 209.707 109.119H207.422ZM213.884 108.328H214.798V113.244C214.798 114.025 214.965 114.616 215.322 115.017C215.69 115.43 216.27 115.641 217.061 115.641C217.842 115.641 218.421 115.43 218.801 115.017C219.146 114.616 219.325 114.025 219.325 113.244V108.328H220.239V113.233C220.239 114.27 219.971 115.062 219.447 115.608C218.901 116.165 218.109 116.444 217.061 116.444C216.013 116.444 215.222 116.165 214.686 115.619C214.151 115.062 213.884 114.27 213.884 113.233V108.328Z" fill="#485264"/>
<path d="M186.014 139.749C186.014 139.441 186.264 139.192 186.572 139.192C186.88 139.192 187.129 139.441 187.129 139.749V140.864C187.129 141.172 186.88 141.422 186.572 141.422C186.264 141.422 186.014 141.172 186.014 140.864V139.749Z" fill="#219BF4"/>
<path d="M188.936 139.192C188.628 139.192 188.378 139.441 188.378 139.749V140.864C188.378 141.172 188.628 141.422 188.936 141.422C189.244 141.422 189.493 141.172 189.493 140.864V139.749C189.493 139.441 189.244 139.192 188.936 139.192Z" fill="#219BF4"/>
<path fill-rule="evenodd" clip-rule="evenodd" d="M183.632 138.479C183.632 137.394 184.511 136.516 185.595 136.516H188.982C189.502 136.516 190.001 136.722 190.37 137.091L192.597 139.318C192.965 139.686 193.172 140.185 193.172 140.706V145.706C193.172 146.791 192.293 147.669 191.209 147.669H185.595C184.511 147.669 183.632 146.791 183.632 145.706V138.479ZM185.595 137.631C185.126 137.631 184.747 138.01 184.747 138.479V145.706C184.747 146.175 185.126 146.554 185.595 146.554H191.209C191.677 146.554 192.057 146.175 192.057 145.706V140.706C192.057 140.481 191.967 140.265 191.808 140.106L189.581 137.879C189.422 137.72 189.206 137.631 188.982 137.631H185.595Z" fill="#219BF4"/>
<path d="M202.911 141.75C202.454 143.021 201.585 144.069 200.291 144.917L199.756 144.259C201.005 143.434 201.83 142.408 202.231 141.171C202.354 140.736 202.454 140.267 202.532 139.755H199.355V147.392H198.541V138.974H202.621C202.677 138.406 202.711 137.792 202.711 137.146H203.525C203.525 137.804 203.491 138.417 203.446 138.974H207.36V146.154C207.36 146.901 206.992 147.28 206.278 147.28H204.528L204.305 146.478L206.011 146.522C206.368 146.522 206.546 146.333 206.546 145.976V139.755H203.357C203.302 140.178 203.235 140.58 203.145 140.948C204.305 142.04 205.275 143.122 206.067 144.181L205.464 144.794C204.818 143.835 203.959 142.821 202.911 141.75ZM209.601 138.316H212.633C212.778 137.926 212.912 137.536 213.024 137.135L213.838 137.235C213.726 137.603 213.615 137.96 213.492 138.316H219.2V139.097H213.191C212.778 140.056 212.266 140.936 211.663 141.739V147.414H210.883V142.698C210.504 143.111 210.114 143.501 209.69 143.88L209.188 143.244C210.549 142.051 211.585 140.669 212.31 139.097H209.601V138.316ZM212.533 143.501H215.766V142.464C216.402 142.107 217.004 141.695 217.584 141.204H213.392V140.457H218.609V141.204C218.007 141.761 217.327 142.297 216.569 142.798V143.501H219.356V144.27H216.569V146.377C216.569 147.035 216.235 147.37 215.577 147.37H214.183L213.971 146.611C214.373 146.623 214.796 146.634 215.254 146.634C215.588 146.634 215.766 146.455 215.766 146.121V144.27H212.533V143.501Z" fill="#485264"/>
<path fill-rule="evenodd" clip-rule="evenodd" d="M186.626 167.075C186.654 167.075 186.682 167.075 186.711 167.075H190.093C190.121 167.075 190.15 167.075 190.178 167.075C190.695 167.075 191.085 167.075 191.44 167.197C191.752 167.305 192.037 167.481 192.273 167.712C192.542 167.975 192.716 168.324 192.947 168.787C192.959 168.812 192.972 168.837 192.985 168.863L194.192 171.278C194.197 171.288 194.202 171.298 194.207 171.307C194.298 171.49 194.368 171.628 194.417 171.776C194.461 171.907 194.493 172.041 194.512 172.178C194.534 172.333 194.534 172.487 194.534 172.692C194.534 172.702 194.534 172.713 194.534 172.724V173.899C194.534 174.348 194.534 174.718 194.509 175.02C194.483 175.333 194.429 175.622 194.291 175.892C194.077 176.312 193.736 176.653 193.316 176.867C193.046 177.004 192.758 177.059 192.444 177.085C192.143 177.11 191.772 177.11 191.323 177.11H185.48C185.031 177.11 184.661 177.11 184.359 177.085C184.046 177.059 183.758 177.004 183.487 176.867C183.067 176.653 182.726 176.312 182.513 175.892C182.375 175.622 182.32 175.333 182.294 175.02C182.27 174.718 182.27 174.348 182.27 173.899L182.27 172.724C182.27 172.713 182.27 172.702 182.27 172.692C182.269 172.487 182.269 172.333 182.291 172.178C182.31 172.041 182.342 171.907 182.386 171.776C182.436 171.628 182.505 171.49 182.596 171.307C182.601 171.298 182.606 171.288 182.611 171.278L183.109 171.527L183.113 171.529M183.109 171.527L182.611 171.278L183.819 168.863C183.832 168.837 183.844 168.812 183.857 168.787C184.088 168.324 184.262 167.975 184.53 167.712C184.766 167.481 185.051 167.305 185.363 167.197C185.719 167.075 186.108 167.075 186.626 167.075M183.729 171.535L184.816 169.361C185.102 168.788 185.193 168.624 185.31 168.509C185.428 168.393 185.571 168.305 185.727 168.251C185.882 168.197 186.07 168.19 186.711 168.19H190.093C190.733 168.19 190.921 168.197 191.076 168.251C191.233 168.305 191.375 168.393 191.493 168.509C191.611 168.624 191.701 168.788 191.987 169.361L193.074 171.535H183.729ZM183.385 172.65C183.384 172.673 183.384 172.697 183.384 172.724V173.876C183.384 174.354 183.385 174.678 183.405 174.929C183.425 175.174 183.462 175.299 183.506 175.386C183.613 175.596 183.783 175.766 183.993 175.873C184.08 175.918 184.205 175.954 184.45 175.974C184.701 175.994 185.025 175.995 185.503 175.995H191.3C191.778 175.995 192.103 175.994 192.353 175.974C192.598 175.954 192.723 175.918 192.81 175.873C193.02 175.766 193.19 175.596 193.297 175.386C193.342 175.299 193.378 175.174 193.398 174.929C193.418 174.678 193.419 174.354 193.419 173.876V172.724C193.419 172.697 193.419 172.673 193.419 172.65H183.385ZM187.287 174.88H185.057C184.749 174.88 184.499 174.63 184.499 174.322C184.499 174.014 184.749 173.765 185.057 173.765H187.287C187.595 173.765 187.844 174.014 187.844 174.322C187.844 174.63 187.595 174.88 187.287 174.88Z" fill="#219BF4"/>
<path d="M198.229 168.316H201.261C201.406 167.926 201.54 167.536 201.651 167.135L202.465 167.235C202.354 167.603 202.242 167.96 202.12 168.316H207.828V169.097H201.819C201.406 170.056 200.893 170.936 200.291 171.739V177.414H199.511V172.698C199.132 173.111 198.741 173.501 198.318 173.88L197.816 173.244C199.176 172.051 200.213 170.669 200.938 169.097H198.229V168.316ZM201.161 173.501H204.394V172.464C205.03 172.107 205.632 171.695 206.211 171.204H202.019V170.457H207.237V171.204C206.635 171.761 205.955 172.297 205.197 172.798V173.501H207.984V174.27H205.197V176.377C205.197 177.035 204.862 177.37 204.205 177.37H202.811L202.599 176.611C203 176.623 203.424 176.634 203.881 176.634C204.216 176.634 204.394 176.455 204.394 176.121V174.27H201.161V173.501ZM210.236 171.193C209.98 171.617 209.701 172.029 209.4 172.43L209.133 171.572C210.013 170.29 210.649 168.829 211.039 167.179L211.764 167.514C211.563 168.272 211.307 168.996 211.017 169.677V177.414H210.236V171.193ZM212.522 167.625C213.169 168.183 213.715 168.729 214.161 169.286L213.57 169.877C213.18 169.342 212.645 168.762 211.976 168.16L212.522 167.625ZM211.463 170.647H213.481V175.374C213.771 175.062 214.072 174.716 214.395 174.337L214.585 175.129C214.027 175.831 213.425 176.455 212.801 177.013L212.477 176.277C212.633 176.143 212.711 175.998 212.711 175.842V171.394H211.463V170.647ZM214.73 168.484H216.067V167.201H216.792V168.484H218.052V169.141C218.275 168.695 218.487 168.238 218.687 167.77L219.356 168.116C218.977 169.052 218.531 169.888 218.041 170.624H219.323V171.36H217.495C217.182 171.739 216.848 172.096 216.502 172.408H218.777V177.381H218.019V176.912H215.934V177.381H215.187V173.389C214.919 173.545 214.651 173.679 214.384 173.813L213.983 173.177C214.93 172.743 215.778 172.141 216.513 171.36H214.484V170.624H216.067V169.186H214.73V168.484ZM217.127 170.624C217.45 170.178 217.751 169.699 218.03 169.186H216.792V170.624H217.127ZM215.934 174.984V176.21H218.019V174.984H215.934ZM218.019 174.315V173.111H215.934V174.315H218.019Z" fill="#485264"/>
<g filter="url(#filter0_dd_2917_666)">
<rect x="25.0859" y="1.19824" width="41.6997" height="40.5347" rx="20.2674" fill="white"/>
<rect x="25.6434" y="1.7557" width="40.5848" height="39.4198" rx="19.7099" stroke="#A8DAFF" stroke-width="1.11493"/>
<circle cx="45.9357" cy="17.3283" r="7.21109" fill="#219BF4" fill-opacity="0.4"/>
<circle cx="41.216" cy="25.6017" r="7.21109" fill="#219BF4" fill-opacity="0.4"/>
<circle cx="50.6544" cy="25.6017" r="7.21109" fill="#219BF4" fill-opacity="0.4"/>
</g>
<g filter="url(#filter1_dd_2917_666)">
<rect x="103.688" y="1.19727" width="41.6997" height="40.5347" rx="20.2674" fill="white"/>
<rect x="104.246" y="1.75473" width="40.5848" height="39.4198" rx="19.7099" stroke="#A8DAFF" stroke-width="1.11493"/>
<circle cx="124.538" cy="17.3273" r="7.21109" fill="#219BF4" fill-opacity="0.4"/>
<circle cx="119.819" cy="25.6007" r="7.21109" fill="#219BF4" fill-opacity="0.4"/>
<circle cx="129.257" cy="25.6007" r="7.21109" fill="#219BF4" fill-opacity="0.4"/>
</g>
<g filter="url(#filter2_dd_2917_666)">
<rect x="180.061" y="1.19629" width="41.6997" height="40.5347" rx="20.2674" fill="white"/>
<rect x="180.618" y="1.75375" width="40.5848" height="39.4198" rx="19.7099" stroke="#A8DAFF" stroke-width="1.11493"/>
<circle cx="200.91" cy="17.3263" r="7.21109" fill="#219BF4" fill-opacity="0.4"/>
<circle cx="196.191" cy="25.5998" r="7.21109" fill="#219BF4" fill-opacity="0.4"/>
<circle cx="205.629" cy="25.5998" r="7.21109" fill="#219BF4" fill-opacity="0.4"/>
</g>
<rect x="44.3486" y="43.7012" width="2.72525" height="41.0596" rx="1.36263" fill="#ABD5FF"/>
<path d="M48.613 81.5068C49.6063 81.5068 50.1037 82.7078 49.4014 83.4101L46.5582 86.2533C46.1228 86.6887 45.4169 86.6887 44.9815 86.2533L42.1384 83.4101C41.436 82.7078 41.9334 81.5068 42.9267 81.5068H48.613Z" fill="#9BCDFF"/>
<rect x="122.394" y="43.7012" width="2.72525" height="41.0596" rx="1.36263" fill="#ABD5FF"/>
<path d="M126.658 81.5068C127.651 81.5068 128.149 82.7078 127.446 83.4101L124.603 86.2533C124.168 86.6887 123.462 86.6887 123.026 86.2533L120.183 83.4101C119.481 82.7078 119.978 81.5068 120.972 81.5068H126.658Z" fill="#9BCDFF"/>
<rect x="199.323" y="43.7012" width="2.72525" height="41.0596" rx="1.36263" fill="#ABD5FF"/>
<path d="M203.588 81.5068C204.581 81.5068 205.078 82.7078 204.376 83.4101L201.533 86.2533C201.097 86.6887 200.392 86.6887 199.956 86.2533L197.113 83.4101C196.411 82.7078 196.908 81.5068 197.901 81.5068H203.588Z" fill="#9BCDFF"/>
<defs>
<filter id="filter0_dd_2917_666" x="20.6262" y="0.0833166" width="50.6196" height="50.5695" filterUnits="userSpaceOnUse" color-interpolation-filters="sRGB">
<feFlood flood-opacity="0" result="BackgroundImageFix"/>
<feColorMatrix in="SourceAlpha" type="matrix" values="0 0 0 0 0 0 0 0 0 0 0 0 0 0 0 0 0 0 127 0" result="hardAlpha"/>
<feOffset/>
<feGaussianBlur stdDeviation="0.557463"/>
<feColorMatrix type="matrix" values="0 0 0 0 0.0745098 0 0 0 0 0.2 0 0 0 0 0.419608 0 0 0 0.08 0"/>
<feBlend mode="normal" in2="BackgroundImageFix" result="effect1_dropShadow_2917_666"/>
<feColorMatrix in="SourceAlpha" type="matrix" values="0 0 0 0 0 0 0 0 0 0 0 0 0 0 0 0 0 0 127 0" result="hardAlpha"/>
<feOffset dy="4.4597"/>
<feGaussianBlur stdDeviation="2.22985"/>
<feColorMatrix type="matrix" values="0 0 0 0 0.0745098 0 0 0 0 0.2 0 0 0 0 0.419608 0 0 0 0.05 0"/>
<feBlend mode="normal" in2="effect1_dropShadow_2917_666" result="effect2_dropShadow_2917_666"/>
<feBlend mode="normal" in="SourceGraphic" in2="effect2_dropShadow_2917_666" result="shape"/>
</filter>
<filter id="filter1_dd_2917_666" x="99.2288" y="0.08234" width="50.6196" height="50.5695" filterUnits="userSpaceOnUse" color-interpolation-filters="sRGB">
<feFlood flood-opacity="0" result="BackgroundImageFix"/>
<feColorMatrix in="SourceAlpha" type="matrix" values="0 0 0 0 0 0 0 0 0 0 0 0 0 0 0 0 0 0 127 0" result="hardAlpha"/>
<feOffset/>
<feGaussianBlur stdDeviation="0.557463"/>
<feColorMatrix type="matrix" values="0 0 0 0 0.0745098 0 0 0 0 0.2 0 0 0 0 0.419608 0 0 0 0.08 0"/>
<feBlend mode="normal" in2="BackgroundImageFix" result="effect1_dropShadow_2917_666"/>
<feColorMatrix in="SourceAlpha" type="matrix" values="0 0 0 0 0 0 0 0 0 0 0 0 0 0 0 0 0 0 127 0" result="hardAlpha"/>
<feOffset dy="4.4597"/>
<feGaussianBlur stdDeviation="2.22985"/>
<feColorMatrix type="matrix" values="0 0 0 0 0.0745098 0 0 0 0 0.2 0 0 0 0 0.419608 0 0 0 0.05 0"/>
<feBlend mode="normal" in2="effect1_dropShadow_2917_666" result="effect2_dropShadow_2917_666"/>
<feBlend mode="normal" in="SourceGraphic" in2="effect2_dropShadow_2917_666" result="shape"/>
</filter>
<filter id="filter2_dd_2917_666" x="175.601" y="0.0813634" width="50.6196" height="50.5695" filterUnits="userSpaceOnUse" color-interpolation-filters="sRGB">
<feFlood flood-opacity="0" result="BackgroundImageFix"/>
<feColorMatrix in="SourceAlpha" type="matrix" values="0 0 0 0 0 0 0 0 0 0 0 0 0 0 0 0 0 0 127 0" result="hardAlpha"/>
<feOffset/>
<feGaussianBlur stdDeviation="0.557463"/>
<feColorMatrix type="matrix" values="0 0 0 0 0.0745098 0 0 0 0 0.2 0 0 0 0 0.419608 0 0 0 0.08 0"/>
<feBlend mode="normal" in2="BackgroundImageFix" result="effect1_dropShadow_2917_666"/>
<feColorMatrix in="SourceAlpha" type="matrix" values="0 0 0 0 0 0 0 0 0 0 0 0 0 0 0 0 0 0 127 0" result="hardAlpha"/>
<feOffset dy="4.4597"/>
<feGaussianBlur stdDeviation="2.22985"/>
<feColorMatrix type="matrix" values="0 0 0 0 0.0745098 0 0 0 0 0.2 0 0 0 0 0.419608 0 0 0 0.05 0"/>
<feBlend mode="normal" in2="effect1_dropShadow_2917_666" result="effect2_dropShadow_2917_666"/>
<feBlend mode="normal" in="SourceGraphic" in2="effect2_dropShadow_2917_666" result="shape"/>
</filter>
</defs>
</svg>
