<svg width="131" height="40" viewBox="0 0 131 40" fill="none" xmlns="http://www.w3.org/2000/svg">
<path d="M8.66382 18.7558C10.946 22.0925 15.6677 21.7964 15.6677 21.7964C14.4872 20.6512 13.72 19.6048 13.6413 16.6235C13.5626 13.6421 11.8706 12.8524 11.8706 12.8524C14.9004 10.9372 13.8183 8.86413 13.72 6.5541C13.6609 5.1128 14.5069 4.04663 15.1758 3.43457C11.3258 4.01333 7.84697 6.06107 5.46455 9.15087C3.08213 12.2407 1.97999 16.1341 2.38791 20.0194C2.66334 19.2494 6.55873 15.6758 8.66382 18.7558Z" fill="url(#paint0_linear_2753_3968)"/>
<path d="M36.6199 12.8132C36.5181 12.4887 36.3932 12.172 36.2461 11.8655V11.8458C35.5595 10.4439 34.4211 9.31591 33.0155 8.64481C31.61 7.97371 30.0197 7.79885 28.5027 8.1486C26.9857 8.49835 25.6309 9.35218 24.6581 10.5716C23.6853 11.791 23.1516 13.3045 23.1434 14.8666C23.1435 15.3579 23.1963 15.8477 23.3008 16.3276C23.3013 16.3342 23.3013 16.3408 23.3008 16.3474C23.3402 16.5448 23.3992 16.7422 23.4582 16.9397C23.8093 18.3305 23.8777 19.7781 23.6591 21.196C23.4405 22.614 22.9396 23.9732 22.1861 25.1925C21.4326 26.4119 20.442 27.4664 19.2735 28.2931C18.105 29.1199 16.7825 29.7019 15.385 30.0044C13.9874 30.3069 12.5435 30.3238 11.1393 30.054C9.73507 29.7842 8.39944 29.2332 7.21208 28.434C6.02472 27.6348 5.00998 26.6037 4.22841 25.4023C3.44684 24.2009 2.91448 22.8537 2.66309 21.4413C3.01858 23.8896 3.88245 26.2358 5.19876 28.3278C6.51507 30.4199 8.25448 32.2112 10.3044 33.5859C12.3543 34.9605 14.669 35.8878 17.0987 36.3077C19.5283 36.7276 22.0188 36.6308 24.4088 36.0235C26.7988 35.4162 29.0351 34.312 30.9729 32.7824C32.9107 31.2527 34.5068 29.3318 35.658 27.1438C36.8091 24.9558 37.4895 22.5496 37.6552 20.081C37.8209 17.6124 37.4682 15.1364 36.6199 12.8132Z" fill="url(#paint1_linear_2753_3968)"/>
<path fill-rule="evenodd" clip-rule="evenodd" d="M33.6884 17.5715C33.6884 26.1749 26.7387 33.1494 18.1658 33.1494C13.6151 33.1494 9.52186 31.1842 6.68262 28.0534C6.85505 28.1855 7.0317 28.3124 7.21235 28.434C8.39971 29.2332 9.73534 29.7842 11.1395 30.054C12.5437 30.3238 13.9877 30.3069 15.3852 30.0044C16.7828 29.7019 18.1053 29.1199 19.2738 28.2931C20.4423 27.4664 21.4329 26.4119 22.1863 25.1925C22.9398 23.9732 23.4408 22.614 23.6594 21.1961C23.878 19.7781 23.8096 18.3305 23.4585 16.9397C23.3995 16.7423 23.3404 16.5448 23.3011 16.3474C23.3016 16.3408 23.3016 16.3342 23.3011 16.3276C23.1966 15.8477 23.1438 15.3579 23.1437 14.8666C23.1518 13.3045 23.6856 11.791 24.6584 10.5716C25.6312 9.35218 26.986 8.49835 28.503 8.1486C29.1286 8.00435 29.7668 7.94934 30.3992 7.98158C32.4601 10.6255 33.6884 13.9545 33.6884 17.5715Z" fill="url(#paint2_linear_2753_3968)"/>
<path d="M62.9858 16.5653C62.9176 15.8778 62.625 15.3437 62.108 14.9631C61.5909 14.5824 60.8892 14.392 60.0028 14.392C59.4006 14.392 58.892 14.4773 58.4773 14.6477C58.0625 14.8125 57.7443 15.0426 57.5227 15.3381C57.3068 15.6335 57.1989 15.9688 57.1989 16.3438C57.1875 16.6562 57.2528 16.929 57.3949 17.1619C57.5426 17.3949 57.7443 17.5966 58 17.767C58.2557 17.9318 58.5511 18.0767 58.8864 18.2017C59.2216 18.321 59.5795 18.4233 59.9602 18.5085L61.5284 18.8835C62.2898 19.054 62.9886 19.2812 63.625 19.5653C64.2614 19.8494 64.8125 20.1989 65.2784 20.6136C65.7443 21.0284 66.1051 21.517 66.3608 22.0795C66.6222 22.642 66.7557 23.2869 66.7614 24.0142C66.7557 25.0824 66.483 26.0085 65.9432 26.7926C65.4091 27.571 64.6364 28.1761 63.625 28.608C62.6193 29.0341 61.4063 29.2472 59.9858 29.2472C58.5767 29.2472 57.3494 29.0312 56.304 28.5994C55.2642 28.1676 54.4517 27.5284 53.8665 26.6818C53.2869 25.8295 52.983 24.7756 52.9545 23.5199H56.5256C56.5653 24.1051 56.733 24.5937 57.0284 24.9858C57.3295 25.3722 57.7301 25.6648 58.2301 25.8636C58.7358 26.0568 59.3068 26.1534 59.9432 26.1534C60.5682 26.1534 61.1108 26.0625 61.571 25.8807C62.0369 25.6989 62.3977 25.446 62.6534 25.1222C62.9091 24.7983 63.0369 24.4261 63.0369 24.0057C63.0369 23.6136 62.9205 23.2841 62.6875 23.017C62.4602 22.75 62.125 22.5227 61.6818 22.3352C61.2443 22.1477 60.7074 21.9773 60.071 21.8239L58.1705 21.3466C56.6989 20.9886 55.5369 20.429 54.6847 19.6676C53.8324 18.9062 53.4091 17.8807 53.4148 16.5909C53.4091 15.5341 53.6903 14.6108 54.2585 13.821C54.8324 13.0312 55.6193 12.4148 56.6193 11.9716C57.6193 11.5284 58.7557 11.3068 60.0284 11.3068C61.3239 11.3068 62.4545 11.5284 63.4205 11.9716C64.392 12.4148 65.1477 13.0312 65.6875 13.821C66.2273 14.6108 66.5057 15.5256 66.5227 16.5653H62.9858ZM75.1413 29.2557C73.7947 29.2557 72.6357 28.983 71.6641 28.4375C70.6982 27.8864 69.9538 27.108 69.4311 26.1023C68.9084 25.0909 68.647 23.8949 68.647 22.5142C68.647 21.1676 68.9084 19.9858 69.4311 18.9688C69.9538 17.9517 70.6896 17.1591 71.6385 16.5909C72.593 16.0227 73.7124 15.7386 74.9964 15.7386C75.8601 15.7386 76.6641 15.8778 77.4084 16.1562C78.1584 16.429 78.8118 16.8409 79.3686 17.392C79.9311 17.9432 80.3686 18.6364 80.6811 19.4716C80.9936 20.3011 81.1499 21.2727 81.1499 22.3864V23.3835H70.0959V21.1335H77.7322C77.7322 20.6108 77.6186 20.1477 77.3913 19.7443C77.1641 19.3409 76.8487 19.0256 76.4453 18.7983C76.0476 18.5653 75.5845 18.4489 75.0561 18.4489C74.505 18.4489 74.0163 18.5767 73.5902 18.8324C73.1697 19.0824 72.8402 19.4205 72.6016 19.8466C72.3629 20.267 72.2408 20.7358 72.2351 21.2528V23.392C72.2351 24.0398 72.3544 24.5994 72.593 25.071C72.8374 25.5426 73.1811 25.9062 73.6243 26.1619C74.0675 26.4176 74.593 26.5455 75.201 26.5455C75.6044 26.5455 75.9737 26.4886 76.3089 26.375C76.6442 26.2614 76.9311 26.0909 77.1697 25.8636C77.4084 25.6364 77.5902 25.358 77.7152 25.0284L81.0732 25.25C80.9027 26.0568 80.5533 26.7614 80.0249 27.3636C79.5021 27.9602 78.826 28.4261 77.9964 28.7614C77.1726 29.0909 76.2209 29.2557 75.1413 29.2557ZM87.2521 29.2472C86.4169 29.2472 85.6726 29.1023 85.0192 28.8125C84.3658 28.517 83.8487 28.0824 83.468 27.5085C83.093 26.929 82.9055 26.2074 82.9055 25.3438C82.9055 24.6165 83.0391 24.0057 83.3061 23.5114C83.5732 23.017 83.9368 22.6193 84.397 22.3182C84.8572 22.017 85.38 21.7898 85.9652 21.6364C86.5561 21.483 87.1754 21.375 87.8232 21.3125C88.5845 21.233 89.1982 21.1591 89.6641 21.0909C90.13 21.017 90.468 20.9091 90.6783 20.767C90.8885 20.625 90.9936 20.4148 90.9936 20.1364V20.0852C90.9936 19.5455 90.8232 19.1278 90.4822 18.8324C90.147 18.5369 89.6697 18.3892 89.0504 18.3892C88.397 18.3892 87.8771 18.5341 87.4908 18.8239C87.1044 19.108 86.8487 19.4659 86.7237 19.8977L83.3658 19.625C83.5362 18.8295 83.8714 18.142 84.3714 17.5625C84.8714 16.9773 85.5163 16.5284 86.3061 16.2159C87.1016 15.8977 88.022 15.7386 89.0675 15.7386C89.7947 15.7386 90.4908 15.8239 91.1555 15.9943C91.826 16.1648 92.4197 16.429 92.9368 16.7869C93.4595 17.1449 93.8714 17.6051 94.1726 18.1676C94.4737 18.7244 94.6243 19.392 94.6243 20.1705V29H91.1811V27.1847H91.0788C90.8686 27.5938 90.5874 27.9545 90.2351 28.267C89.8828 28.5739 89.4595 28.8153 88.9652 28.9915C88.4709 29.1619 87.8999 29.2472 87.2521 29.2472ZM88.2919 26.7415C88.826 26.7415 89.2976 26.6364 89.7067 26.4261C90.1158 26.2102 90.4368 25.9205 90.6697 25.5568C90.9027 25.1932 91.0192 24.7812 91.0192 24.321V22.9318C90.9055 23.0057 90.7493 23.0739 90.5504 23.1364C90.3572 23.1932 90.1385 23.2472 89.8942 23.2983C89.6499 23.3437 89.4055 23.3864 89.1612 23.4261C88.9169 23.4602 88.6953 23.4915 88.4964 23.5199C88.0703 23.5824 87.6982 23.6818 87.38 23.8182C87.0618 23.9545 86.8146 24.1392 86.6385 24.3722C86.4624 24.5994 86.3743 24.8835 86.3743 25.2244C86.3743 25.7188 86.5533 26.0966 86.9112 26.358C87.2749 26.6136 87.7351 26.7415 88.2919 26.7415ZM101.072 11.5455V29H97.4411V11.5455H101.072ZM109.895 29.2557C108.571 29.2557 107.426 28.9744 106.46 28.4119C105.5 27.8437 104.759 27.054 104.236 26.0426C103.713 25.0256 103.452 23.8466 103.452 22.5057C103.452 21.1534 103.713 19.9716 104.236 18.9602C104.759 17.9432 105.5 17.1534 106.46 16.5909C107.426 16.0227 108.571 15.7386 109.895 15.7386C111.219 15.7386 112.361 16.0227 113.321 16.5909C114.287 17.1534 115.031 17.9432 115.554 18.9602C116.077 19.9716 116.338 21.1534 116.338 22.5057C116.338 23.8466 116.077 25.0256 115.554 26.0426C115.031 27.054 114.287 27.8437 113.321 28.4119C112.361 28.9744 111.219 29.2557 109.895 29.2557ZM109.912 26.4432C110.514 26.4432 111.017 26.2727 111.42 25.9318C111.824 25.5852 112.128 25.1136 112.332 24.517C112.543 23.9205 112.648 23.2415 112.648 22.4801C112.648 21.7188 112.543 21.0398 112.332 20.4432C112.128 19.8466 111.824 19.375 111.42 19.0284C111.017 18.6818 110.514 18.5085 109.912 18.5085C109.304 18.5085 108.793 18.6818 108.378 19.0284C107.969 19.375 107.659 19.8466 107.449 20.4432C107.244 21.0398 107.142 21.7188 107.142 22.4801C107.142 23.2415 107.244 23.9205 107.449 24.517C107.659 25.1136 107.969 25.5852 108.378 25.9318C108.793 26.2727 109.304 26.4432 109.912 26.4432ZM129.591 19.642L126.267 19.8466C126.21 19.5625 126.088 19.3068 125.901 19.0795C125.713 18.8466 125.466 18.6619 125.159 18.5256C124.858 18.3835 124.497 18.3125 124.077 18.3125C123.514 18.3125 123.04 18.4318 122.653 18.6705C122.267 18.9034 122.074 19.2159 122.074 19.608C122.074 19.9205 122.199 20.1847 122.449 20.4006C122.699 20.6165 123.128 20.7898 123.736 20.9205L126.105 21.3977C127.378 21.6591 128.327 22.0795 128.952 22.6591C129.577 23.2386 129.889 24 129.889 24.9432C129.889 25.8011 129.636 26.554 129.131 27.2017C128.631 27.8494 127.943 28.3551 127.068 28.7188C126.199 29.0767 125.196 29.2557 124.06 29.2557C122.327 29.2557 120.946 28.8949 119.918 28.1733C118.895 27.446 118.295 26.4574 118.119 25.2074L121.69 25.0199C121.798 25.5483 122.06 25.9517 122.474 26.2301C122.889 26.5028 123.42 26.6392 124.068 26.6392C124.705 26.6392 125.216 26.517 125.602 26.2727C125.994 26.0227 126.193 25.7017 126.199 25.3097C126.193 24.9801 126.054 24.7102 125.781 24.5C125.509 24.2841 125.088 24.1193 124.52 24.0057L122.253 23.554C120.974 23.2983 120.023 22.8551 119.398 22.2244C118.778 21.5937 118.469 20.7898 118.469 19.8125C118.469 18.9716 118.696 18.2472 119.151 17.6392C119.611 17.0312 120.256 16.5625 121.085 16.233C121.92 15.9034 122.898 15.7386 124.017 15.7386C125.67 15.7386 126.972 16.0881 127.92 16.7869C128.875 17.4858 129.432 18.4375 129.591 19.642Z" fill="#111824"/>
<defs>
<linearGradient id="paint0_linear_2753_3968" x1="13.0507" y1="1.35891" x2="-1.84256" y2="24.7586" gradientUnits="userSpaceOnUse">
<stop stop-color="#0AA3F9"/>
<stop offset="1" stop-color="#B5B4FF"/>
</linearGradient>
<linearGradient id="paint1_linear_2753_3968" x1="42.9072" y1="37.3635" x2="19.1446" y2="7.06378" gradientUnits="userSpaceOnUse">
<stop stop-color="#0AA3F9"/>
<stop offset="1" stop-color="#B5B4FF"/>
</linearGradient>
<linearGradient id="paint2_linear_2753_3968" x1="29.5519" y1="7.97895" x2="7.59406" y2="30.3352" gradientUnits="userSpaceOnUse">
<stop stop-color="#7ABBFD"/>
<stop offset="1" stop-color="#7ABBFD" stop-opacity="0"/>
</linearGradient>
</defs>
</svg>
