<svg width="740" height="571" viewBox="0 0 740 571" fill="none" xmlns="http://www.w3.org/2000/svg">
<g filter="url(#filter0_dd_2829_164)">
<g clip-path="url(#clip0_2829_164)">
<rect x="111" y="147" width="578.539" height="237.244" rx="11.4373" fill="#FBFCFF"/>
<path d="M226.788 193.192C226.047 193.979 224.857 194.584 223.227 195.005L222.751 194.263C224.454 193.815 225.617 193.247 226.23 192.551L226.386 192.341H222.833V191.517H226.834C227.054 190.967 227.182 190.354 227.219 189.676V188.559H228.061V189.676C228.034 190.354 227.933 190.967 227.75 191.517H230.625V192.341H227.393C227.347 192.414 227.301 192.487 227.265 192.56C228.528 193.055 229.691 193.641 230.753 194.3L230.277 195.051C229.142 194.282 227.979 193.668 226.788 193.192ZM224.142 189.777C224.793 190.042 225.388 190.363 225.928 190.738L225.479 191.425C224.912 190.995 224.316 190.665 223.712 190.427L224.142 189.777ZM225.04 188.495C225.69 188.751 226.285 189.072 226.816 189.447L226.367 190.134C225.8 189.713 225.214 189.374 224.609 189.136L225.04 188.495ZM230.542 187.351V189.228H229.7V188.147H223.73V189.228H222.888V187.351H226.322C226.221 187.094 226.12 186.856 226.01 186.636L226.898 186.49C227.008 186.746 227.109 187.03 227.201 187.351H230.542ZM234.559 187.021H237.608V187.854H236.015C235.969 188.239 235.914 188.614 235.85 188.962H237.47V189.713C237.177 192.24 236.253 193.998 234.714 194.987L234.284 194.218C234.98 193.76 235.529 193.119 235.932 192.295C235.603 191.974 235.282 191.7 234.952 191.48C234.778 191.773 234.595 192.048 234.394 192.304L233.954 191.452C234.623 190.574 235.035 189.374 235.191 187.854H234.559V187.021ZM235.3 190.775C235.648 190.986 235.969 191.224 236.271 191.48C236.445 190.958 236.582 190.381 236.674 189.759H235.657C235.548 190.116 235.429 190.454 235.3 190.775ZM239.256 194.932H238.249L238.047 194.099C238.358 194.135 238.661 194.153 238.954 194.153C239.182 194.153 239.301 194.034 239.301 193.815V186.572H240.171V194.025C240.171 194.63 239.86 194.932 239.256 194.932ZM232.837 190.308C232.645 190.583 232.444 190.839 232.242 191.095L231.958 190.171C232.718 189.118 233.277 187.882 233.643 186.472L234.467 186.856C234.266 187.561 234.009 188.23 233.698 188.852V195.014H232.837V190.308ZM237.901 187.396H238.697V193.055H237.901V187.396ZM247.328 188.706C247.291 188.852 247.255 188.99 247.218 189.118C247.42 190.07 247.685 190.903 248.006 191.617C248.308 190.775 248.473 189.804 248.509 188.706H247.328ZM247.612 192.505C247.301 191.874 247.026 191.159 246.797 190.363C246.651 190.693 246.504 191.004 246.339 191.279L245.79 190.601C246.303 189.594 246.651 188.239 246.834 186.536L247.685 186.682C247.63 187.103 247.575 187.497 247.502 187.873H249.828V188.706H249.297C249.242 190.198 248.967 191.471 248.473 192.524C248.93 193.284 249.461 193.879 250.084 194.3L249.599 195.005C249.004 194.575 248.491 194.007 248.051 193.302C247.621 193.97 247.081 194.538 246.44 194.996L245.991 194.272C246.669 193.815 247.209 193.229 247.612 192.505ZM243.272 190.793L244.087 190.894C244.032 191.04 243.986 191.178 243.931 191.324H245.799V192.029C245.634 192.579 245.341 193.064 244.92 193.485C245.296 193.65 245.662 193.833 246.01 194.016L245.543 194.694C245.186 194.474 244.755 194.254 244.252 194.025C243.647 194.419 242.888 194.73 241.981 194.968L241.578 194.254C242.265 194.089 242.86 193.888 243.354 193.632C242.979 193.476 242.576 193.32 242.155 193.155C242.375 192.771 242.576 192.414 242.75 192.066H241.789V191.324H243.08C243.153 191.141 243.217 190.958 243.272 190.793ZM244.124 193.155C244.526 192.835 244.819 192.469 245.021 192.066H243.602C243.473 192.322 243.336 192.569 243.19 192.808C243.51 192.917 243.821 193.027 244.124 193.155ZM242.64 186.682C242.842 187.03 243.016 187.396 243.171 187.799L242.549 188.083C242.366 187.644 242.164 187.25 241.954 186.911L242.64 186.682ZM245.268 186.673L245.881 186.966C245.698 187.351 245.469 187.735 245.186 188.111L244.581 187.799C244.874 187.415 245.103 187.039 245.268 186.673ZM241.807 188.239H243.538V186.554H244.334V188.239H245.927V188.999H244.334V189.044C244.819 189.246 245.314 189.484 245.817 189.749L245.36 190.436C244.957 190.116 244.618 189.859 244.334 189.676V190.702H243.538V189.154C243.235 189.814 242.732 190.39 242.027 190.885L241.597 190.18C242.237 189.814 242.686 189.42 242.961 188.999H241.807V188.239Z" fill="#111824"/>
<g clip-path="url(#clip1_2829_164)">
<rect x="222.585" y="206.827" width="381.494" height="3.05195" rx="1.52597" fill="#F4F4F7"/>
<g clip-path="url(#clip2_2829_164)">
<circle opacity="0.38" cx="224.111" cy="208.353" r="0.762987" fill="#A4A4A4"/>
<circle opacity="0.38" cx="602.552" cy="208.353" r="0.762987" fill="#A4A4A4"/>
</g>
<rect x="279.198" y="206.827" width="73.8567" height="3.05195" rx="1.52597" fill="#111824"/>
</g>
<rect x="346.952" y="201.486" width="13.7338" height="13.7338" rx="6.86688" fill="#111824" fill-opacity="0.05"/>
<g filter="url(#filter1_d_2829_164)">
<path fill-rule="evenodd" clip-rule="evenodd" d="M353.818 203.776C356.346 203.776 358.396 205.825 358.396 208.354C358.396 210.882 356.346 212.932 353.818 212.932C351.29 212.932 349.24 210.882 349.24 208.354C349.24 205.825 351.29 203.776 353.818 203.776Z" fill="#111824"/>
</g>
<rect x="269.127" y="201.486" width="13.7338" height="13.7338" rx="6.86688" fill="#111824" fill-opacity="0.05"/>
<g filter="url(#filter2_d_2829_164)">
<path fill-rule="evenodd" clip-rule="evenodd" d="M275.994 203.776C278.522 203.776 280.572 205.825 280.572 208.354C280.572 210.882 278.522 212.932 275.994 212.932C273.466 212.932 271.416 210.882 271.416 208.354C271.416 205.825 273.466 203.776 275.994 203.776Z" fill="#111824"/>
</g>
<path d="M223.885 217.827C224.59 217.827 225.136 218.12 225.522 218.716C225.874 219.27 226.05 220.009 226.05 220.94C226.05 221.863 225.874 222.61 225.522 223.164C225.136 223.752 224.59 224.054 223.885 224.054C223.18 224.054 222.635 223.752 222.248 223.164C221.896 222.61 221.72 221.872 221.72 220.94C221.72 220 221.896 219.262 222.248 218.716C222.635 218.12 223.18 217.827 223.885 217.827ZM223.885 218.599C223.39 218.599 223.046 218.867 222.844 219.413C222.693 219.782 222.626 220.294 222.626 220.94C222.626 221.578 222.693 222.09 222.844 222.468C223.046 223.005 223.39 223.282 223.885 223.282C224.372 223.282 224.724 223.005 224.926 222.468C225.068 222.09 225.144 221.578 225.144 220.94C225.144 220.294 225.068 219.782 224.926 219.413C224.724 218.867 224.372 218.599 223.885 218.599Z" fill="#667085"/>
<path d="M275.86 217.827C276.431 217.827 276.909 217.986 277.279 218.322C277.639 218.657 277.824 219.085 277.824 219.614C277.824 220.135 277.623 220.605 277.237 221.033C277.002 221.276 276.59 221.595 275.994 221.998C275.348 222.426 274.962 222.803 274.836 223.131H277.833V223.937H273.703C273.703 223.341 273.896 222.82 274.299 222.367C274.517 222.107 274.971 221.746 275.65 221.276C276.053 220.991 276.339 220.764 276.506 220.588C276.775 220.286 276.918 219.958 276.918 219.606C276.918 219.27 276.825 219.018 276.641 218.85C276.456 218.683 276.179 218.599 275.827 218.599C275.449 218.599 275.164 218.725 274.971 218.985C274.769 219.237 274.668 219.597 274.652 220.084H273.737C273.745 219.413 273.938 218.876 274.316 218.473C274.702 218.036 275.222 217.827 275.86 217.827Z" fill="#667085"/>
<path d="M353.75 217.827C354.908 217.827 355.571 218.364 355.723 219.455H354.833C354.707 218.867 354.346 218.582 353.742 218.582C353.322 218.582 352.995 218.783 352.751 219.195C352.508 219.581 352.391 220.059 352.391 220.647C352.391 220.672 352.391 220.705 352.399 220.756H352.433C352.6 220.487 352.81 220.294 353.07 220.168C353.305 220.042 353.582 219.983 353.901 219.983C354.489 219.983 354.959 220.168 355.311 220.537C355.655 220.915 355.832 221.402 355.832 221.989C355.832 222.585 355.63 223.08 355.236 223.467C354.833 223.853 354.329 224.054 353.742 224.054C353.003 224.054 352.449 223.785 352.063 223.248C351.694 222.736 351.509 222.023 351.509 221.108C351.509 220.135 351.702 219.346 352.105 218.741C352.508 218.129 353.062 217.827 353.75 217.827ZM353.717 220.722C353.339 220.722 353.045 220.84 352.827 221.075C352.609 221.31 352.5 221.62 352.5 222.015C352.5 222.401 352.609 222.711 352.835 222.946C353.054 223.181 353.347 223.299 353.708 223.299C354.078 223.299 354.371 223.173 354.59 222.929C354.816 222.678 354.934 222.367 354.934 221.989C354.934 221.603 354.825 221.293 354.606 221.075C354.388 220.84 354.086 220.722 353.717 220.722Z" fill="#667085"/>
<path d="M600.946 217.827C601.517 217.827 601.995 217.986 602.365 218.322C602.725 218.657 602.91 219.085 602.91 219.614C602.91 220.135 602.709 220.605 602.323 221.033C602.088 221.276 601.676 221.595 601.08 221.998C600.434 222.426 600.048 222.803 599.922 223.131H602.918V223.937H598.789C598.789 223.341 598.982 222.82 599.385 222.367C599.603 222.107 600.056 221.746 600.736 221.276C601.139 220.991 601.425 220.764 601.592 220.588C601.861 220.286 602.004 219.958 602.004 219.606C602.004 219.27 601.911 219.018 601.727 218.85C601.542 218.683 601.265 218.599 600.913 218.599C600.535 218.599 600.25 218.725 600.056 218.985C599.855 219.237 599.754 219.597 599.738 220.084H598.823C598.831 219.413 599.024 218.876 599.402 218.473C599.788 218.036 600.308 217.827 600.946 217.827ZM606.268 217.827C606.973 217.827 607.518 218.12 607.904 218.716C608.257 219.27 608.433 220.009 608.433 220.94C608.433 221.863 608.257 222.61 607.904 223.164C607.518 223.752 606.973 224.054 606.268 224.054C605.563 224.054 605.017 223.752 604.631 223.164C604.279 222.61 604.102 221.872 604.102 220.94C604.102 220 604.279 219.262 604.631 218.716C605.017 218.12 605.563 217.827 606.268 217.827ZM606.268 218.599C605.773 218.599 605.428 218.867 605.227 219.413C605.076 219.782 605.009 220.294 605.009 220.94C605.009 221.578 605.076 222.09 605.227 222.468C605.428 223.005 605.773 223.282 606.268 223.282C606.755 223.282 607.107 223.005 607.308 222.468C607.451 222.09 607.527 221.578 607.527 220.94C607.527 220.294 607.451 219.782 607.308 219.413C607.107 218.867 606.755 218.599 606.268 218.599Z" fill="#667085"/>
<path d="M149.574 259.472C150.46 259.472 151.197 259.696 151.774 260.166C152.33 260.615 152.671 261.234 152.789 262.003H151.657C151.529 261.491 151.283 261.106 150.92 260.86C150.556 260.615 150.108 260.497 149.552 260.497C148.73 260.497 148.11 260.775 147.694 261.341C147.299 261.854 147.106 262.559 147.106 263.445C147.106 264.364 147.299 265.069 147.683 265.571C148.089 266.105 148.719 266.372 149.574 266.372C150.129 266.372 150.599 266.233 150.962 265.956C151.347 265.656 151.614 265.208 151.764 264.61H152.896C152.725 265.496 152.33 266.191 151.699 266.693C151.112 267.163 150.407 267.398 149.584 267.398C148.335 267.398 147.395 266.992 146.764 266.201C146.209 265.518 145.942 264.599 145.942 263.445C145.942 262.313 146.22 261.394 146.796 260.679C147.437 259.867 148.356 259.472 149.574 259.472ZM154.152 259.621H157.314C159.13 259.621 160.038 260.39 160.038 261.939C160.038 263.499 159.119 264.279 157.292 264.279H155.316V267.248H154.152V259.621ZM155.316 260.615V263.285H157.218C157.794 263.285 158.211 263.178 158.478 262.965C158.734 262.751 158.873 262.409 158.873 261.939C158.873 261.469 158.734 261.127 158.467 260.935C158.2 260.721 157.784 260.615 157.218 260.615H155.316ZM161.196 259.621H162.361V264.364C162.361 265.048 162.51 265.55 162.831 265.881C163.151 266.212 163.653 266.383 164.347 266.383C165.031 266.383 165.533 266.212 165.854 265.881C166.163 265.55 166.324 265.048 166.324 264.364V259.621H167.488V264.343C167.488 265.336 167.21 266.094 166.665 266.618C166.121 267.131 165.352 267.398 164.347 267.398C163.333 267.398 162.564 267.141 162.03 266.629C161.474 266.094 161.196 265.336 161.196 264.343V259.621Z" fill="#111824"/>
<g clip-path="url(#clip3_2829_164)">
<rect x="222.646" y="258" width="381.494" height="3.05195" rx="1.52597" fill="#F4F4F7"/>
<g clip-path="url(#clip4_2829_164)">
<circle opacity="0.38" cx="224.173" cy="259.526" r="0.762987" fill="#A4A4A4"/>
<circle opacity="0.38" cx="602.615" cy="259.526" r="0.762987" fill="#A4A4A4"/>
</g>
<rect x="222.646" y="258" width="124.039" height="3.05195" rx="1.52597" fill="#111824"/>
</g>
<rect x="338.621" y="252.659" width="13.7338" height="13.7338" rx="6.86688" fill="#111824" fill-opacity="0.05"/>
<g filter="url(#filter3_d_2829_164)">
<path fill-rule="evenodd" clip-rule="evenodd" d="M345.488 254.948C348.016 254.948 350.066 256.997 350.066 259.526C350.066 262.054 348.016 264.104 345.488 264.104C342.96 264.104 340.91 262.054 340.91 259.526C340.91 256.997 342.96 254.948 345.488 254.948Z" fill="#111824"/>
</g>
<path d="M223.568 268.839C224.273 268.839 224.818 269.133 225.204 269.729C225.557 270.283 225.733 271.021 225.733 271.953C225.733 272.876 225.557 273.623 225.204 274.177C224.818 274.765 224.273 275.067 223.568 275.067C222.863 275.067 222.317 274.765 221.931 274.177C221.579 273.623 221.402 272.885 221.402 271.953C221.402 271.013 221.579 270.274 221.931 269.729C222.317 269.133 222.863 268.839 223.568 268.839ZM223.568 269.611C223.072 269.611 222.728 269.88 222.527 270.425C222.376 270.795 222.309 271.307 222.309 271.953C222.309 272.591 222.376 273.103 222.527 273.48C222.728 274.018 223.072 274.295 223.568 274.295C224.054 274.295 224.407 274.018 224.608 273.48C224.751 273.103 224.827 272.591 224.827 271.953C224.827 271.307 224.751 270.795 224.608 270.425C224.407 269.88 224.054 269.611 223.568 269.611ZM227.605 273.749C227.773 273.749 227.924 273.808 228.05 273.925C228.167 274.043 228.235 274.194 228.235 274.379C228.235 274.546 228.167 274.697 228.05 274.823C227.924 274.932 227.773 274.991 227.605 274.991C227.421 274.991 227.278 274.932 227.169 274.823C227.043 274.697 226.984 274.546 226.984 274.379C226.984 274.194 227.043 274.043 227.169 273.925C227.278 273.808 227.421 273.749 227.605 273.749ZM231.079 268.957H231.767V274.949H230.852V270.056C230.492 270.4 230.03 270.652 229.476 270.812V269.905C229.745 269.838 230.022 269.72 230.324 269.553C230.626 269.368 230.878 269.175 231.079 268.957Z" fill="#8A95A7"/>
<path d="M280.788 268.839C281.493 268.839 282.039 269.133 282.425 269.729C282.777 270.283 282.954 271.021 282.954 271.953C282.954 272.876 282.777 273.623 282.425 274.177C282.039 274.765 281.493 275.067 280.788 275.067C280.083 275.067 279.538 274.765 279.152 274.177C278.799 273.623 278.623 272.885 278.623 271.953C278.623 271.013 278.799 270.274 279.152 269.729C279.538 269.133 280.083 268.839 280.788 268.839ZM280.788 269.611C280.293 269.611 279.949 269.88 279.748 270.425C279.597 270.795 279.529 271.307 279.529 271.953C279.529 272.591 279.597 273.103 279.748 273.48C279.949 274.018 280.293 274.295 280.788 274.295C281.275 274.295 281.628 274.018 281.829 273.48C281.972 273.103 282.047 272.591 282.047 271.953C282.047 271.307 281.972 270.795 281.829 270.425C281.628 269.88 281.275 269.611 280.788 269.611ZM284.826 273.749C284.994 273.749 285.145 273.808 285.271 273.925C285.388 274.043 285.455 274.194 285.455 274.379C285.455 274.546 285.388 274.697 285.271 274.823C285.145 274.932 284.994 274.991 284.826 274.991C284.641 274.991 284.499 274.932 284.389 274.823C284.264 274.697 284.205 274.546 284.205 274.379C284.205 274.194 284.264 274.043 284.389 273.925C284.499 273.808 284.641 273.749 284.826 273.749ZM288.963 268.839C289.534 268.839 290.012 268.999 290.381 269.334C290.742 269.67 290.927 270.098 290.927 270.627C290.927 271.147 290.725 271.617 290.339 272.045C290.104 272.289 289.693 272.608 289.097 273.01C288.451 273.439 288.065 273.816 287.939 274.144H290.935V274.949H286.806C286.806 274.353 286.999 273.833 287.402 273.38C287.62 273.12 288.073 272.759 288.753 272.289C289.156 272.003 289.441 271.777 289.609 271.6C289.878 271.298 290.02 270.971 290.02 270.619C290.02 270.283 289.928 270.031 289.743 269.863C289.559 269.695 289.282 269.611 288.929 269.611C288.552 269.611 288.266 269.737 288.073 269.997C287.872 270.249 287.771 270.61 287.754 271.097H286.839C286.848 270.425 287.041 269.888 287.419 269.485C287.805 269.049 288.325 268.839 288.963 268.839Z" fill="#8A95A7"/>
<path d="M340.009 268.839C340.714 268.839 341.26 269.133 341.646 269.729C341.998 270.283 342.174 271.021 342.174 271.953C342.174 272.876 341.998 273.623 341.646 274.177C341.26 274.765 340.714 275.067 340.009 275.067C339.304 275.067 338.759 274.765 338.372 274.177C338.02 273.623 337.844 272.885 337.844 271.953C337.844 271.013 338.02 270.274 338.372 269.729C338.759 269.133 339.304 268.839 340.009 268.839ZM340.009 269.611C339.514 269.611 339.17 269.88 338.968 270.425C338.817 270.795 338.75 271.307 338.75 271.953C338.75 272.591 338.817 273.103 338.968 273.48C339.17 274.018 339.514 274.295 340.009 274.295C340.496 274.295 340.848 274.018 341.05 273.48C341.192 273.103 341.268 272.591 341.268 271.953C341.268 271.307 341.192 270.795 341.05 270.425C340.848 269.88 340.496 269.611 340.009 269.611ZM344.047 273.749C344.214 273.749 344.365 273.808 344.491 273.925C344.609 274.043 344.676 274.194 344.676 274.379C344.676 274.546 344.609 274.697 344.491 274.823C344.365 274.932 344.214 274.991 344.047 274.991C343.862 274.991 343.719 274.932 343.61 274.823C343.484 274.697 343.425 274.546 343.425 274.379C343.425 274.194 343.484 274.043 343.61 273.925C343.719 273.808 343.862 273.749 344.047 273.749ZM346.371 268.957H349.98V269.762H347.109L346.933 271.491H346.958C347.143 271.298 347.353 271.164 347.596 271.08C347.814 270.988 348.066 270.946 348.335 270.946C348.897 270.946 349.359 271.13 349.711 271.5C350.064 271.869 350.248 272.373 350.248 273.019C350.248 273.64 350.013 274.144 349.56 274.538C349.132 274.89 348.62 275.067 348.024 275.067C347.487 275.067 347.025 274.916 346.639 274.622C346.211 274.303 345.976 273.858 345.934 273.304H346.832C346.866 273.64 347 273.9 347.227 274.068C347.428 274.219 347.697 274.295 348.032 274.295C348.402 274.295 348.712 274.177 348.964 273.95C349.216 273.715 349.342 273.413 349.342 273.027C349.342 272.608 349.233 272.28 349.014 272.045C348.796 271.81 348.494 271.693 348.091 271.693C347.823 271.693 347.596 271.735 347.395 271.835C347.176 271.936 347.017 272.096 346.899 272.314H346.043L346.371 268.957Z" fill="#111824"/>
<path d="M398.659 268.957H399.347V274.949H398.432V270.056C398.072 270.4 397.61 270.652 397.056 270.812V269.905C397.325 269.838 397.602 269.72 397.904 269.553C398.206 269.368 398.458 269.175 398.659 268.957Z" fill="#8A95A7"/>
<path d="M448.543 268.839C449.114 268.839 449.592 268.999 449.961 269.334C450.322 269.67 450.507 270.098 450.507 270.627C450.507 271.147 450.305 271.617 449.919 272.045C449.684 272.289 449.273 272.608 448.677 273.01C448.031 273.439 447.645 273.816 447.519 274.144H450.515V274.949H446.386C446.386 274.353 446.579 273.833 446.982 273.38C447.2 273.12 447.653 272.759 448.333 272.289C448.736 272.003 449.021 271.777 449.189 271.6C449.458 271.298 449.6 270.971 449.6 270.619C449.6 270.283 449.508 270.031 449.323 269.863C449.139 269.695 448.862 269.611 448.509 269.611C448.132 269.611 447.846 269.737 447.653 269.997C447.452 270.249 447.351 270.61 447.334 271.097H446.419C446.428 270.425 446.621 269.888 446.999 269.485C447.385 269.049 447.905 268.839 448.543 268.839Z" fill="#8A95A7"/>
<path d="M499.73 268.839C500.334 268.839 500.813 268.982 501.182 269.276C501.534 269.569 501.719 269.972 501.719 270.484C501.719 271.139 501.383 271.584 500.729 271.802C501.081 271.911 501.35 272.079 501.534 272.297C501.736 272.524 501.837 272.817 501.837 273.17C501.837 273.724 501.643 274.177 501.266 274.53C500.863 274.882 500.334 275.067 499.696 275.067C499.084 275.067 498.588 274.907 498.219 274.597C497.8 274.244 497.565 273.732 497.514 273.061H498.437C498.454 273.464 498.58 273.774 498.832 273.992C499.05 274.194 499.335 274.295 499.688 274.295C500.074 274.295 500.385 274.177 500.62 273.959C500.821 273.757 500.93 273.514 500.93 273.212C500.93 272.859 500.821 272.599 500.603 272.431C500.401 272.264 500.099 272.18 499.705 272.18H499.268V271.491H499.696C500.066 271.491 500.343 271.407 500.527 271.248C500.712 271.089 500.813 270.854 500.813 270.551C500.813 270.249 500.72 270.023 500.552 269.863C500.368 269.695 500.091 269.62 499.738 269.62C499.377 269.62 499.092 269.712 498.891 269.897C498.689 270.081 498.563 270.358 498.53 270.728H497.632C497.682 270.132 497.9 269.67 498.295 269.334C498.664 268.999 499.142 268.839 499.73 268.839Z" fill="#8A95A7"/>
<path d="M551.497 268.957H552.336V272.918H553.243V273.648H552.336V274.949H551.464V273.648H548.543V272.784L551.497 268.957ZM551.438 270.115L549.29 272.918H551.464V270.115H551.438Z" fill="#8A95A7"/>
<path d="M602.114 268.839C602.751 268.839 603.255 269.007 603.633 269.343C603.968 269.645 604.136 270.023 604.136 270.467C604.136 270.778 604.069 271.038 603.935 271.248C603.784 271.475 603.557 271.642 603.255 271.76V271.785C603.54 271.852 603.792 272.02 603.994 272.289C604.229 272.574 604.346 272.901 604.346 273.279C604.346 273.808 604.153 274.236 603.767 274.572C603.372 274.899 602.819 275.067 602.114 275.067C601.4 275.067 600.846 274.899 600.46 274.572C600.074 274.236 599.881 273.808 599.881 273.279C599.881 272.901 599.999 272.574 600.234 272.289C600.435 272.02 600.678 271.852 600.972 271.785V271.76C600.67 271.642 600.443 271.475 600.292 271.248C600.158 271.038 600.091 270.778 600.091 270.467C600.091 270.023 600.259 269.645 600.594 269.343C600.964 269.007 601.476 268.839 602.114 268.839ZM602.114 269.569C601.744 269.569 601.451 269.662 601.232 269.863C601.039 270.031 600.947 270.249 600.947 270.501C600.947 270.786 601.022 271.013 601.182 271.181C601.375 271.382 601.686 271.483 602.114 271.483C602.533 271.483 602.844 271.382 603.045 271.181C603.196 271.013 603.28 270.786 603.28 270.501C603.28 270.249 603.179 270.031 602.995 269.863C602.777 269.662 602.483 269.569 602.114 269.569ZM602.114 272.163C601.677 272.163 601.341 272.264 601.123 272.482C600.897 272.683 600.787 272.943 600.787 273.279C600.787 273.59 600.897 273.841 601.132 274.034C601.358 274.227 601.686 274.328 602.114 274.328C602.533 274.328 602.869 274.227 603.112 274.034C603.331 273.841 603.44 273.59 603.44 273.279C603.44 272.943 603.331 272.683 603.112 272.49C602.877 272.272 602.55 272.163 602.114 272.163Z" fill="#8A95A7"/>
<path d="M614.889 268.84C615.585 268.84 616.164 269.016 616.617 269.386C617.054 269.738 617.322 270.225 617.415 270.829H616.525C616.424 270.426 616.231 270.124 615.946 269.931C615.661 269.738 615.308 269.646 614.872 269.646C614.225 269.646 613.739 269.864 613.411 270.309C613.101 270.712 612.95 271.266 612.95 271.962C612.95 272.684 613.101 273.238 613.403 273.633C613.722 274.052 614.217 274.262 614.889 274.262C615.325 274.262 615.694 274.153 615.98 273.935C616.282 273.7 616.492 273.347 616.609 272.877H617.499C617.364 273.574 617.054 274.119 616.559 274.514C616.097 274.883 615.543 275.068 614.897 275.068C613.915 275.068 613.176 274.749 612.681 274.128C612.245 273.591 612.035 272.869 612.035 271.962C612.035 271.073 612.253 270.351 612.706 269.789C613.21 269.151 613.932 268.84 614.889 268.84ZM620.721 270.494C621.375 270.494 621.904 270.712 622.299 271.148C622.685 271.576 622.886 272.122 622.886 272.785C622.886 273.439 622.693 273.985 622.307 274.405C621.904 274.841 621.375 275.068 620.721 275.068C620.066 275.068 619.537 274.841 619.134 274.405C618.748 273.985 618.555 273.439 618.555 272.785C618.555 272.122 618.748 271.576 619.143 271.148C619.537 270.712 620.066 270.494 620.721 270.494ZM620.721 271.224C620.309 271.224 619.991 271.383 619.764 271.711C619.562 271.988 619.47 272.348 619.47 272.785C619.47 273.221 619.562 273.574 619.764 273.851C619.991 274.17 620.309 274.338 620.721 274.338C621.132 274.338 621.451 274.17 621.686 273.851C621.887 273.565 621.988 273.213 621.988 272.785C621.988 272.348 621.887 271.988 621.686 271.711C621.451 271.383 621.132 271.224 620.721 271.224ZM626.127 270.494C626.345 270.494 626.538 270.527 626.689 270.603V271.492C626.471 271.425 626.261 271.4 626.06 271.4C625.791 271.4 625.548 271.509 625.338 271.727C625.111 271.962 625.002 272.273 625.002 272.651V274.95H624.113V270.611H625.002V271.266C625.111 271.031 625.254 270.854 625.422 270.737C625.623 270.569 625.858 270.494 626.127 270.494ZM629.455 270.494C630.16 270.494 630.705 270.729 631.075 271.215C631.41 271.652 631.587 272.256 631.595 273.028H628.305C628.339 273.448 628.448 273.775 628.649 274.002C628.851 274.22 629.127 274.338 629.48 274.338C629.791 274.338 630.042 274.262 630.235 274.119C630.386 274.002 630.512 273.809 630.63 273.557H631.519C631.419 273.96 631.226 274.304 630.924 274.573C630.546 274.9 630.067 275.068 629.488 275.068C628.851 275.068 628.339 274.866 627.969 274.472C627.566 274.052 627.365 273.49 627.365 272.776C627.365 272.13 627.55 271.593 627.936 271.157C628.305 270.712 628.817 270.494 629.455 270.494ZM629.48 271.224C629.144 271.224 628.884 271.316 628.683 271.518C628.498 271.711 628.372 271.988 628.322 272.357H630.663C630.579 271.601 630.185 271.224 629.48 271.224Z" fill="#667085"/>
<path d="M150.856 314.852C150.407 315.963 149.616 316.892 148.474 317.662L147.79 316.839C148.944 316.049 149.702 315.077 150.065 313.923C150.161 313.581 150.247 313.207 150.311 312.801H147.566V320.033H146.54V311.819H150.428C150.471 311.295 150.503 310.74 150.503 310.152H151.539C151.539 310.74 151.518 311.295 151.475 311.819H155.171V318.708C155.171 319.509 154.797 319.915 154.06 319.915H152.383L152.105 318.901L153.718 318.954C153.996 318.954 154.146 318.794 154.146 318.484V312.801H151.368C151.304 313.175 151.24 313.528 151.165 313.848C152.234 314.831 153.131 315.803 153.868 316.775L153.088 317.555C152.533 316.711 151.785 315.814 150.856 314.852ZM157.106 311.156H159.926C160.054 310.804 160.161 310.462 160.257 310.12L161.283 310.238C161.197 310.547 161.101 310.857 161.005 311.156H166.335V312.15H160.61C160.214 313.047 159.734 313.891 159.157 314.66V320.054H158.163V315.846C157.886 316.145 157.597 316.422 157.298 316.689L156.668 315.878C157.886 314.799 158.836 313.56 159.509 312.15H157.106V311.156ZM159.873 316.177H162.885V315.312C163.451 314.991 163.996 314.617 164.519 314.19H160.684V313.261H165.79V314.19C165.224 314.724 164.594 315.237 163.889 315.717V316.177H166.474V317.159H163.889V318.901C163.889 319.638 163.526 320.012 162.799 320.012H161.475L161.208 319.05C161.571 319.072 161.966 319.082 162.393 319.082C162.714 319.082 162.885 318.911 162.885 318.58V317.159H159.873V316.177Z" fill="#111824"/>
<g clip-path="url(#clip5_2829_164)">
<rect x="222.646" y="309.884" width="381.494" height="3.05195" rx="1.52597" fill="#F4F4F7"/>
<g clip-path="url(#clip6_2829_164)">
<circle opacity="0.38" cx="224.173" cy="311.41" r="0.762987" fill="#A4A4A4"/>
<circle opacity="0.38" cx="602.615" cy="311.41" r="0.762987" fill="#A4A4A4"/>
</g>
<rect x="222.646" y="309.884" width="161.843" height="3.05195" rx="1.52597" fill="#111824"/>
</g>
<rect x="378.296" y="304.544" width="13.7338" height="13.7338" rx="6.86688" fill="#111824" fill-opacity="0.05"/>
<g filter="url(#filter4_d_2829_164)">
<path fill-rule="evenodd" clip-rule="evenodd" d="M385.163 306.833C387.691 306.833 389.741 308.883 389.741 311.411C389.741 313.94 387.691 315.989 385.163 315.989C382.635 315.989 380.585 313.94 380.585 311.411C380.585 308.883 382.635 306.833 385.163 306.833Z" fill="#111824"/>
</g>
<path d="M223.652 320.723C224.81 320.723 225.473 321.26 225.624 322.351H224.734C224.608 321.764 224.247 321.478 223.643 321.478C223.224 321.478 222.896 321.68 222.653 322.091C222.409 322.477 222.292 322.956 222.292 323.543C222.292 323.568 222.292 323.602 222.3 323.652H222.334C222.502 323.384 222.712 323.191 222.972 323.065C223.207 322.939 223.484 322.88 223.803 322.88C224.39 322.88 224.86 323.065 225.213 323.434C225.557 323.812 225.733 324.298 225.733 324.886C225.733 325.482 225.532 325.977 225.137 326.363C224.734 326.749 224.231 326.951 223.643 326.951C222.905 326.951 222.351 326.682 221.965 326.145C221.595 325.633 221.411 324.919 221.411 324.005C221.411 323.031 221.604 322.242 222.007 321.638C222.409 321.025 222.963 320.723 223.652 320.723ZM223.618 323.619C223.24 323.619 222.947 323.736 222.728 323.971C222.51 324.206 222.401 324.517 222.401 324.911C222.401 325.297 222.51 325.608 222.737 325.843C222.955 326.078 223.249 326.195 223.61 326.195C223.979 326.195 224.273 326.069 224.491 325.826C224.717 325.574 224.835 325.264 224.835 324.886C224.835 324.5 224.726 324.189 224.508 323.971C224.289 323.736 223.987 323.619 223.618 323.619ZM229.586 320.841H230.425V324.802H231.332V325.532H230.425V326.833H229.552V325.532H226.632V324.668L229.586 320.841ZM229.527 321.999L227.379 324.802H229.552V321.999H229.527ZM232.465 320.841H233.548L235.638 325.641H235.663L237.744 320.841H238.827V326.833H237.912V322.553H237.879L236.041 326.833H235.252L233.414 322.553H233.38V326.833H232.465V320.841Z" fill="#8A95A7"/>
<path d="M271.065 320.841H271.754V326.833H270.839V321.94C270.478 322.284 270.016 322.536 269.462 322.695V321.789C269.731 321.722 270.008 321.604 270.31 321.436C270.612 321.252 270.864 321.059 271.065 320.841ZM275.536 320.723C276.107 320.723 276.585 320.882 276.954 321.218C277.315 321.554 277.5 321.982 277.5 322.511C277.5 323.031 277.298 323.501 276.912 323.929C276.677 324.172 276.266 324.491 275.67 324.894C275.024 325.322 274.638 325.7 274.512 326.027H277.508V326.833H273.379C273.379 326.237 273.572 325.717 273.975 325.264C274.193 325.003 274.646 324.642 275.326 324.172C275.729 323.887 276.014 323.661 276.182 323.484C276.451 323.182 276.593 322.855 276.593 322.502C276.593 322.167 276.501 321.915 276.316 321.747C276.132 321.579 275.855 321.495 275.502 321.495C275.125 321.495 274.839 321.621 274.646 321.881C274.445 322.133 274.344 322.494 274.327 322.981H273.412C273.421 322.309 273.614 321.772 273.992 321.369C274.378 320.933 274.898 320.723 275.536 320.723ZM280.857 320.723C281.495 320.723 281.999 320.891 282.377 321.227C282.712 321.529 282.88 321.906 282.88 322.351C282.88 322.662 282.813 322.922 282.679 323.132C282.528 323.358 282.301 323.526 281.999 323.644V323.669C282.284 323.736 282.536 323.904 282.737 324.172C282.972 324.458 283.09 324.785 283.09 325.163C283.09 325.692 282.897 326.12 282.511 326.455C282.116 326.783 281.562 326.951 280.857 326.951C280.144 326.951 279.59 326.783 279.204 326.455C278.818 326.12 278.625 325.692 278.625 325.163C278.625 324.785 278.742 324.458 278.977 324.172C279.179 323.904 279.422 323.736 279.716 323.669V323.644C279.414 323.526 279.187 323.358 279.036 323.132C278.902 322.922 278.835 322.662 278.835 322.351C278.835 321.906 279.003 321.529 279.338 321.227C279.708 320.891 280.22 320.723 280.857 320.723ZM280.857 321.453C280.488 321.453 280.194 321.546 279.976 321.747C279.783 321.915 279.691 322.133 279.691 322.385C279.691 322.67 279.766 322.897 279.926 323.065C280.119 323.266 280.429 323.367 280.857 323.367C281.277 323.367 281.588 323.266 281.789 323.065C281.94 322.897 282.024 322.67 282.024 322.385C282.024 322.133 281.923 321.915 281.739 321.747C281.52 321.546 281.227 321.453 280.857 321.453ZM280.857 324.047C280.421 324.047 280.085 324.147 279.867 324.366C279.64 324.567 279.531 324.827 279.531 325.163C279.531 325.473 279.64 325.725 279.875 325.918C280.102 326.111 280.429 326.212 280.857 326.212C281.277 326.212 281.613 326.111 281.856 325.918C282.074 325.725 282.184 325.473 282.184 325.163C282.184 324.827 282.074 324.567 281.856 324.374C281.621 324.156 281.294 324.047 280.857 324.047ZM284.341 320.841H285.424L287.514 325.641H287.539L289.62 320.841H290.703V326.833H289.788V322.553H289.754L287.916 326.833H287.127L285.289 322.553H285.256V326.833H284.341V320.841Z" fill="#8A95A7"/>
<path d="M323.797 320.723C324.367 320.723 324.846 320.882 325.215 321.218C325.576 321.554 325.761 321.982 325.761 322.511C325.761 323.031 325.559 323.501 325.173 323.929C324.938 324.172 324.527 324.491 323.931 324.894C323.285 325.322 322.899 325.7 322.773 326.027H325.769V326.833H321.64C321.64 326.237 321.833 325.717 322.236 325.264C322.454 325.003 322.907 324.642 323.587 324.172C323.99 323.887 324.275 323.661 324.443 323.484C324.712 323.182 324.854 322.855 324.854 322.502C324.854 322.167 324.762 321.915 324.577 321.747C324.393 321.579 324.116 321.495 323.763 321.495C323.385 321.495 323.1 321.621 322.907 321.881C322.706 322.133 322.605 322.494 322.588 322.981H321.673C321.682 322.309 321.875 321.772 322.252 321.369C322.638 320.933 323.159 320.723 323.797 320.723ZM327.398 320.841H331.007V321.646H328.136L327.96 323.375H327.985C328.17 323.182 328.38 323.048 328.623 322.964C328.841 322.872 329.093 322.83 329.362 322.83C329.924 322.83 330.386 323.014 330.738 323.384C331.091 323.753 331.275 324.256 331.275 324.903C331.275 325.524 331.04 326.027 330.587 326.422C330.159 326.774 329.647 326.951 329.051 326.951C328.514 326.951 328.052 326.799 327.666 326.506C327.238 326.187 327.003 325.742 326.961 325.188H327.859C327.893 325.524 328.027 325.784 328.254 325.952C328.455 326.103 328.724 326.178 329.06 326.178C329.429 326.178 329.739 326.061 329.991 325.834C330.243 325.599 330.369 325.297 330.369 324.911C330.369 324.491 330.26 324.164 330.042 323.929C329.823 323.694 329.521 323.577 329.118 323.577C328.85 323.577 328.623 323.619 328.422 323.719C328.203 323.82 328.044 323.979 327.927 324.198H327.07L327.398 320.841ZM334.616 320.723C335.774 320.723 336.437 321.26 336.588 322.351H335.699C335.573 321.764 335.212 321.478 334.608 321.478C334.188 321.478 333.861 321.68 333.617 322.091C333.374 322.477 333.257 322.956 333.257 323.543C333.257 323.568 333.257 323.602 333.265 323.652H333.298C333.466 323.384 333.676 323.191 333.936 323.065C334.171 322.939 334.448 322.88 334.767 322.88C335.355 322.88 335.825 323.065 336.177 323.434C336.521 323.812 336.698 324.298 336.698 324.886C336.698 325.482 336.496 325.977 336.102 326.363C335.699 326.749 335.195 326.951 334.608 326.951C333.869 326.951 333.315 326.682 332.929 326.145C332.56 325.633 332.375 324.919 332.375 324.005C332.375 323.031 332.568 322.242 332.971 321.638C333.374 321.025 333.928 320.723 334.616 320.723ZM334.583 323.619C334.205 323.619 333.911 323.736 333.693 323.971C333.475 324.206 333.366 324.517 333.366 324.911C333.366 325.297 333.475 325.608 333.701 325.843C333.92 326.078 334.213 326.195 334.574 326.195C334.943 326.195 335.237 326.069 335.455 325.826C335.682 325.574 335.8 325.264 335.8 324.886C335.8 324.5 335.69 324.189 335.472 323.971C335.254 323.736 334.952 323.619 334.583 323.619ZM338.016 320.841H339.098L341.188 325.641H341.213L343.295 320.841H344.378V326.833H343.463V322.553H343.429L341.591 326.833H340.802L338.964 322.553H338.931V326.833H338.016V320.841Z" fill="#8A95A7"/>
<path d="M375.051 320.841H378.66V321.646H375.79L375.614 323.375H375.639C375.823 323.182 376.033 323.048 376.277 322.964C376.495 322.872 376.747 322.83 377.015 322.83C377.577 322.83 378.039 323.014 378.392 323.384C378.744 323.753 378.929 324.256 378.929 324.903C378.929 325.524 378.694 326.027 378.241 326.422C377.812 326.774 377.301 326.951 376.705 326.951C376.167 326.951 375.706 326.799 375.32 326.506C374.892 326.187 374.657 325.742 374.615 325.188H375.513C375.546 325.524 375.681 325.784 375.907 325.952C376.109 326.103 376.377 326.178 376.713 326.178C377.082 326.178 377.393 326.061 377.645 325.834C377.896 325.599 378.022 325.297 378.022 324.911C378.022 324.491 377.913 324.164 377.695 323.929C377.477 323.694 377.175 323.577 376.772 323.577C376.503 323.577 376.277 323.619 376.075 323.719C375.857 323.82 375.697 323.979 375.58 324.198H374.724L375.051 320.841ZM381.615 320.841H382.303V326.833H381.388V321.94C381.027 322.284 380.566 322.536 380.012 322.695V321.789C380.281 321.722 380.557 321.604 380.86 321.436C381.162 321.252 381.414 321.059 381.615 320.841ZM386.085 320.723C386.656 320.723 387.135 320.882 387.504 321.218C387.865 321.554 388.049 321.982 388.049 322.511C388.049 323.031 387.848 323.501 387.462 323.929C387.227 324.172 386.816 324.491 386.22 324.894C385.574 325.322 385.187 325.7 385.062 326.027H388.058V326.833H383.929C383.929 326.237 384.122 325.717 384.524 325.264C384.743 325.003 385.196 324.642 385.876 324.172C386.279 323.887 386.564 323.661 386.732 323.484C387 323.182 387.143 322.855 387.143 322.502C387.143 322.167 387.051 321.915 386.866 321.747C386.681 321.579 386.404 321.495 386.052 321.495C385.674 321.495 385.389 321.621 385.196 321.881C384.994 322.133 384.894 322.494 384.877 322.981H383.962C383.97 322.309 384.164 321.772 384.541 321.369C384.927 320.933 385.448 320.723 386.085 320.723ZM389.477 320.841H390.559L392.649 325.641H392.674L394.756 320.841H395.839V326.833H394.924V322.553H394.89L393.052 326.833H392.263L390.425 322.553H390.392V326.833H389.477V320.841Z" fill="#111824"/>
<path d="M428.269 320.841H428.958V326.833H428.043V321.94C427.682 322.284 427.22 322.536 426.666 322.695V321.789C426.935 321.722 427.212 321.604 427.514 321.436C427.816 321.252 428.068 321.059 428.269 320.841ZM433.311 320.723C434.074 320.723 434.679 320.891 435.124 321.243C435.552 321.579 435.82 322.074 435.929 322.746H435.006C434.922 322.343 434.737 322.041 434.452 321.839C434.167 321.629 433.781 321.529 433.311 321.529C432.732 321.529 432.27 321.722 431.926 322.125C431.557 322.544 431.38 323.123 431.38 323.862C431.38 324.584 431.54 325.138 431.875 325.524C432.228 325.943 432.782 326.153 433.529 326.153C433.823 326.153 434.1 326.111 434.36 326.044C434.612 325.977 434.83 325.876 435.031 325.75V324.449H433.378V323.669H435.946V326.187C435.635 326.43 435.275 326.615 434.863 326.749C434.427 326.883 433.949 326.951 433.428 326.951C432.471 326.951 431.733 326.648 431.204 326.044C430.709 325.482 430.465 324.752 430.465 323.862C430.465 322.964 430.709 322.225 431.204 321.646C431.724 321.025 432.429 320.723 433.311 320.723Z" fill="#8A95A7"/>
<path d="M469.001 320.723C469.572 320.723 470.05 320.882 470.419 321.218C470.78 321.554 470.965 321.982 470.965 322.511C470.965 323.031 470.763 323.501 470.377 323.929C470.142 324.172 469.731 324.491 469.135 324.894C468.489 325.322 468.103 325.7 467.977 326.027H470.973V326.833H466.844C466.844 326.237 467.037 325.717 467.44 325.264C467.658 325.003 468.111 324.642 468.791 324.172C469.194 323.887 469.479 323.661 469.647 323.484C469.916 323.182 470.058 322.855 470.058 322.502C470.058 322.167 469.966 321.915 469.781 321.747C469.597 321.579 469.32 321.495 468.967 321.495C468.59 321.495 468.304 321.621 468.111 321.881C467.91 322.133 467.809 322.494 467.792 322.981H466.877C466.886 322.309 467.079 321.772 467.457 321.369C467.843 320.933 468.363 320.723 469.001 320.723ZM474.985 320.723C475.749 320.723 476.353 320.891 476.798 321.243C477.226 321.579 477.495 322.074 477.604 322.746H476.681C476.597 322.343 476.412 322.041 476.127 321.839C475.842 321.629 475.455 321.529 474.985 321.529C474.406 321.529 473.945 321.722 473.601 322.125C473.231 322.544 473.055 323.123 473.055 323.862C473.055 324.584 473.215 325.138 473.55 325.524C473.903 325.943 474.457 326.153 475.204 326.153C475.497 326.153 475.774 326.111 476.035 326.044C476.286 325.977 476.505 325.876 476.706 325.75V324.449H475.053V323.669H477.621V326.187C477.31 326.43 476.949 326.615 476.538 326.749C476.102 326.883 475.623 326.951 475.103 326.951C474.146 326.951 473.408 326.648 472.879 326.044C472.384 325.482 472.14 324.752 472.14 323.862C472.14 322.964 472.384 322.225 472.879 321.646C473.399 321.025 474.104 320.723 474.985 320.723Z" fill="#8A95A7"/>
<path d="M510.581 320.841H511.42V324.802H512.327V325.532H511.42V326.833H510.548V325.532H507.627V324.668L510.581 320.841ZM510.522 321.999L508.374 324.802H510.548V321.999H510.522ZM516.054 320.723C516.818 320.723 517.422 320.891 517.867 321.243C518.295 321.579 518.563 322.074 518.672 322.746H517.749C517.665 322.343 517.481 322.041 517.195 321.839C516.91 321.629 516.524 321.529 516.054 321.529C515.475 321.529 515.013 321.722 514.669 322.125C514.3 322.544 514.123 323.123 514.123 323.862C514.123 324.584 514.283 325.138 514.619 325.524C514.971 325.943 515.525 326.153 516.272 326.153C516.566 326.153 516.843 326.111 517.103 326.044C517.355 325.977 517.573 325.876 517.774 325.75V324.449H516.121V323.669H518.689V326.187C518.379 326.43 518.018 326.615 517.606 326.749C517.17 326.883 516.692 326.951 516.171 326.951C515.215 326.951 514.476 326.648 513.947 326.044C513.452 325.482 513.209 324.752 513.209 323.862C513.209 322.964 513.452 322.225 513.947 321.646C514.468 321.025 515.173 320.723 516.054 320.723Z" fill="#8A95A7"/>
<path d="M551.045 320.723C551.683 320.723 552.187 320.891 552.564 321.227C552.9 321.529 553.068 321.906 553.068 322.351C553.068 322.662 553.001 322.922 552.866 323.132C552.715 323.358 552.489 323.526 552.187 323.644V323.669C552.472 323.736 552.724 323.904 552.925 324.172C553.16 324.458 553.278 324.785 553.278 325.163C553.278 325.692 553.085 326.12 552.699 326.455C552.304 326.783 551.75 326.951 551.045 326.951C550.332 326.951 549.778 326.783 549.392 326.455C549.006 326.12 548.813 325.692 548.813 325.163C548.813 324.785 548.93 324.458 549.165 324.172C549.367 323.904 549.61 323.736 549.904 323.669V323.644C549.602 323.526 549.375 323.358 549.224 323.132C549.09 322.922 549.023 322.662 549.023 322.351C549.023 321.906 549.19 321.529 549.526 321.227C549.895 320.891 550.407 320.723 551.045 320.723ZM551.045 321.453C550.676 321.453 550.382 321.546 550.164 321.747C549.971 321.915 549.879 322.133 549.879 322.385C549.879 322.67 549.954 322.897 550.114 323.065C550.307 323.266 550.617 323.367 551.045 323.367C551.465 323.367 551.775 323.266 551.977 323.065C552.128 322.897 552.212 322.67 552.212 322.385C552.212 322.133 552.111 321.915 551.926 321.747C551.708 321.546 551.414 321.453 551.045 321.453ZM551.045 324.047C550.609 324.047 550.273 324.147 550.055 324.366C549.828 324.567 549.719 324.827 549.719 325.163C549.719 325.473 549.828 325.725 550.063 325.918C550.29 326.111 550.617 326.212 551.045 326.212C551.465 326.212 551.801 326.111 552.044 325.918C552.262 325.725 552.371 325.473 552.371 325.163C552.371 324.827 552.262 324.567 552.044 324.374C551.809 324.156 551.482 324.047 551.045 324.047ZM557.122 320.723C557.886 320.723 558.49 320.891 558.935 321.243C559.363 321.579 559.632 322.074 559.741 322.746H558.818C558.734 322.343 558.549 322.041 558.264 321.839C557.978 321.629 557.592 321.529 557.122 321.529C556.543 321.529 556.081 321.722 555.737 322.125C555.368 322.544 555.192 323.123 555.192 323.862C555.192 324.584 555.351 325.138 555.687 325.524C556.039 325.943 556.593 326.153 557.34 326.153C557.634 326.153 557.911 326.111 558.171 326.044C558.423 325.977 558.641 325.876 558.843 325.75V324.449H557.189V323.669H559.758V326.187C559.447 326.43 559.086 326.615 558.675 326.749C558.238 326.883 557.76 326.951 557.24 326.951C556.283 326.951 555.544 326.648 555.016 326.044C554.52 325.482 554.277 324.752 554.277 323.862C554.277 322.964 554.52 322.225 555.016 321.646C555.536 321.025 556.241 320.723 557.122 320.723Z" fill="#8A95A7"/>
<path d="M591.543 320.841H592.231V326.833H591.316V321.94C590.955 322.284 590.494 322.536 589.94 322.695V321.789C590.208 321.722 590.485 321.604 590.787 321.436C591.09 321.252 591.341 321.059 591.543 320.841ZM596.005 320.723C597.163 320.723 597.826 321.26 597.977 322.351H597.088C596.962 321.764 596.601 321.478 595.997 321.478C595.577 321.478 595.25 321.68 595.006 322.091C594.763 322.477 594.645 322.956 594.645 323.543C594.645 323.568 594.645 323.602 594.654 323.652H594.687C594.855 323.384 595.065 323.191 595.325 323.065C595.56 322.939 595.837 322.88 596.156 322.88C596.744 322.88 597.214 323.065 597.566 323.434C597.91 323.812 598.086 324.298 598.086 324.886C598.086 325.482 597.885 325.977 597.491 326.363C597.088 326.749 596.584 326.951 595.997 326.951C595.258 326.951 594.704 326.682 594.318 326.145C593.949 325.633 593.764 324.919 593.764 324.005C593.764 323.031 593.957 322.242 594.36 321.638C594.763 321.025 595.317 320.723 596.005 320.723ZM595.971 323.619C595.594 323.619 595.3 323.736 595.082 323.971C594.864 324.206 594.754 324.517 594.754 324.911C594.754 325.297 594.864 325.608 595.09 325.843C595.308 326.078 595.602 326.195 595.963 326.195C596.332 326.195 596.626 326.069 596.844 325.826C597.071 325.574 597.188 325.264 597.188 324.886C597.188 324.5 597.079 324.189 596.861 323.971C596.643 323.736 596.341 323.619 595.971 323.619ZM601.998 320.723C602.762 320.723 603.366 320.891 603.811 321.243C604.239 321.579 604.507 322.074 604.617 322.746H603.693C603.609 322.343 603.425 322.041 603.139 321.839C602.854 321.629 602.468 321.529 601.998 321.529C601.419 321.529 600.957 321.722 600.613 322.125C600.244 322.544 600.068 323.123 600.068 323.862C600.068 324.584 600.227 325.138 600.563 325.524C600.915 325.943 601.469 326.153 602.216 326.153C602.51 326.153 602.787 326.111 603.047 326.044C603.299 325.977 603.517 325.876 603.719 325.75V324.449H602.065V323.669H604.633V326.187C604.323 326.43 603.962 326.615 603.551 326.749C603.114 326.883 602.636 326.951 602.116 326.951C601.159 326.951 600.42 326.648 599.891 326.044C599.396 325.482 599.153 324.752 599.153 323.862C599.153 322.964 599.396 322.225 599.891 321.646C600.412 321.025 601.117 320.723 601.998 320.723Z" fill="#8A95A7"/>
</g>
</g>
<g filter="url(#filter5_dd_2829_164)">
<rect x="50" y="47" width="540" height="67" rx="7.62489" fill="#FBFCFF"/>
<path d="M81.842 76.89C82.136 77.506 82.402 78.248 82.654 79.116H83.9C84.236 78.388 84.544 77.618 84.796 76.806L86.014 77.226C85.762 77.926 85.496 78.556 85.202 79.116H86.714V80.39H79.672V79.116H81.408C81.184 78.486 80.932 77.884 80.638 77.324L81.842 76.89ZM87.26 74.496H92.118V75.504C91.684 76.932 91.208 78.262 90.704 79.494C91.74 80.782 92.272 81.832 92.286 82.644C92.286 83.596 92.09 84.254 91.726 84.618C91.334 84.982 90.536 85.178 89.36 85.178L88.94 83.778C89.444 83.834 89.864 83.862 90.214 83.862C90.522 83.848 90.732 83.764 90.816 83.596C90.9 83.456 90.942 83.134 90.956 82.644C90.942 81.846 90.382 80.796 89.29 79.494C89.752 78.444 90.2 77.184 90.648 75.728H88.548V86.914H87.26V74.496ZM79.938 75.28H82.514C82.374 74.874 82.234 74.496 82.094 74.16L83.452 73.936C83.578 74.342 83.704 74.79 83.816 75.28H86.588V76.554H79.938V75.28ZM86.154 81.412V86.9H84.824V86.172H81.716V86.9H80.414V81.412H86.154ZM81.716 84.912H84.824V82.672H81.716V84.912ZM94.99 74.468H105.154V77.31H100.296V77.996H103.166V78.99C103.726 78.542 104.23 78.066 104.678 77.576L105.77 78.15C105.196 78.752 104.552 79.298 103.852 79.802H106.372V80.936H101.976C101.444 81.216 100.87 81.468 100.268 81.72H104.692V87.04H103.39V86.466H97.762V87.04H96.46V82.938C95.844 83.078 95.2 83.218 94.556 83.344L93.842 82.252C96.068 82.028 98.028 81.58 99.708 80.936H93.898V79.802H99.008V79.032H95.424V77.996H99.008V77.31H94.99V74.468ZM102.004 79.802C102.396 79.55 102.76 79.298 103.11 79.032H100.296V79.802H102.004ZM103.894 76.344V75.448H102.158V76.344H103.894ZM100.94 76.344V75.448H99.232V76.344H100.94ZM98.014 76.344V75.448H96.25V76.344H98.014ZM97.762 84.576V85.388H103.39V84.576H97.762ZM103.39 83.568V82.728H97.762V83.568H103.39ZM112.086 75.098H113.976V74.062H115.222V75.098H117.168V74.062H118.428V75.098H120.486V76.274H118.428V77.17H117.168V76.274H115.222V77.17H113.976V76.274H112.086V75.098ZM116.076 84.226C115.908 84.506 115.74 84.772 115.558 85.01C114.914 85.822 113.78 86.466 112.156 86.942L111.694 85.85C113.038 85.472 114.018 84.94 114.606 84.254C114.69 84.142 114.76 84.058 114.816 83.974H111.778V82.77H115.404C115.488 82.504 115.558 82.224 115.614 81.944H112.744V77.506H119.632V81.944H116.79L116.622 82.77H120.514V83.974H117.28C118.064 84.758 119.198 85.416 120.682 85.934L119.786 86.998C118.106 86.27 116.86 85.346 116.076 84.226ZM110.882 80.138V86.9H109.622V80.558C109.244 81.678 108.782 82.7 108.236 83.638L107.662 82.168C108.544 80.95 109.202 79.564 109.622 78.024V77.898H108.11V76.68H109.622V74.104H110.882V76.68H112.24V77.898H110.882V78.682C111.456 79.354 112.044 80.124 112.646 80.964L111.946 82.014C111.54 81.258 111.19 80.642 110.882 80.138ZM118.428 80.936V80.222H113.934V80.936H118.428ZM113.934 79.242H118.428V78.542H113.934V79.242ZM122.182 76.414H128.888C128.846 75.658 128.832 74.86 128.832 74.048H130.204C130.204 74.874 130.218 75.658 130.26 76.414H132.444C132.08 75.742 131.674 75.14 131.24 74.608L132.332 74.09C132.766 74.65 133.186 75.252 133.578 75.924L132.584 76.414H134.46V77.702H130.33C130.498 79.83 130.82 81.636 131.296 83.092C131.884 84.646 132.374 85.43 132.766 85.43C132.976 85.416 133.214 84.66 133.466 83.176L134.67 83.792C134.25 85.864 133.648 86.914 132.85 86.928C131.506 86.844 130.414 85.262 129.574 82.168C129.28 80.88 129.07 79.396 128.958 77.702H122.182V76.414ZM122.378 79.746H128.398V80.992H126.046V84.226C127.026 84.03 127.992 83.806 128.944 83.554V84.856C126.9 85.346 124.702 85.766 122.364 86.102L122.056 84.842C122.952 84.73 123.848 84.604 124.73 84.464V80.992H122.378V79.746Z" fill="#111824"/>
<rect x="176.5" y="65" width="179" height="31" rx="5.5" fill="#F7F8FA"/>
<rect x="176.5" y="65" width="179" height="31" rx="5.5" stroke="#E8EBF0"/>
<path d="M199.164 77.768H201.936V76.616H203.064V77.768H205.836V78.836H203.064V79.916H205.044V83.372H199.968V79.916H201.936V78.836H199.164V77.768ZM203.976 82.388V80.876H201.036V82.388H203.976ZM207.468 75.092V85.736H206.328V85.256H198.672V85.736H197.532V75.092H207.468ZM198.672 84.188H206.328V76.172H198.672V84.188ZM211.448 78.128H218.576V79.208H215.624V81.008H219.08V82.088H215.624V84.296C216.44 84.416 217.436 84.476 218.636 84.488C219.236 84.488 219.86 84.452 220.484 84.404L220.268 85.532H219.14C216.62 85.532 214.808 85.304 213.728 84.848C212.96 84.488 212.336 83.96 211.856 83.264C211.4 84.224 210.836 85.04 210.164 85.712L209.42 84.8C210.548 83.624 211.316 82.04 211.7 80.072L212.804 80.264C212.66 80.96 212.48 81.62 212.276 82.22C212.84 83.156 213.548 83.768 214.388 84.032L214.496 84.056V79.208H211.448V78.128ZM220.028 75.788V78.512H218.912V76.844H211.088V78.572H209.972V75.788H214.484C214.316 75.404 214.124 75.056 213.932 74.744L215.156 74.552C215.324 74.924 215.492 75.332 215.648 75.788H220.028ZM227.584 83.372C226.612 84.404 225.052 85.196 222.916 85.748L222.292 84.776C224.524 84.188 226.048 83.444 226.852 82.532L227.056 82.256H222.4V81.176H227.644C227.932 80.456 228.1 79.652 228.148 78.764V77.3H229.252V78.764C229.216 79.652 229.084 80.456 228.844 81.176H232.612V82.256H228.376C228.316 82.352 228.256 82.448 228.208 82.544C229.864 83.192 231.388 83.96 232.78 84.824L232.156 85.808C230.668 84.8 229.144 83.996 227.584 83.372ZM224.116 78.896C224.968 79.244 225.748 79.664 226.456 80.156L225.868 81.056C225.124 80.492 224.344 80.06 223.552 79.748L224.116 78.896ZM225.292 77.216C226.144 77.552 226.924 77.972 227.62 78.464L227.032 79.364C226.288 78.812 225.52 78.368 224.728 78.056L225.292 77.216ZM232.504 75.716V78.176H231.4V76.76H223.576V78.176H222.472V75.716H226.972C226.84 75.38 226.708 75.068 226.564 74.78L227.728 74.588C227.872 74.924 228.004 75.296 228.124 75.716H232.504ZM237.768 75.284H241.764V76.376H239.676C239.616 76.88 239.544 77.372 239.46 77.828H241.584V78.812C241.2 82.124 239.988 84.428 237.972 85.724L237.408 84.716C238.32 84.116 239.04 83.276 239.568 82.196C239.136 81.776 238.716 81.416 238.284 81.128C238.056 81.512 237.816 81.872 237.552 82.208L236.976 81.092C237.852 79.94 238.392 78.368 238.596 76.376H237.768V75.284ZM238.74 80.204C239.196 80.48 239.616 80.792 240.012 81.128C240.24 80.444 240.42 79.688 240.54 78.872H239.208C239.064 79.34 238.908 79.784 238.74 80.204ZM243.924 85.652H242.604L242.34 84.56C242.748 84.608 243.144 84.632 243.528 84.632C243.828 84.632 243.984 84.476 243.984 84.188V74.696H245.124V84.464C245.124 85.256 244.716 85.652 243.924 85.652ZM235.512 79.592C235.26 79.952 234.996 80.288 234.732 80.624L234.36 79.412C235.356 78.032 236.088 76.412 236.568 74.564L237.648 75.068C237.384 75.992 237.048 76.868 236.64 77.684V85.76H235.512V79.592ZM242.148 75.776H243.192V83.192H242.148V75.776Z" fill="#667085"/>
<g filter="url(#filter6_dd_2829_164)">
<path d="M268 71.5C268 69.2909 269.791 67.5 272 67.5H349C351.209 67.5 353 69.2909 353 71.5V89.5C353 91.7091 351.209 93.5 349 93.5H272C269.791 93.5 268 91.7091 268 89.5V71.5Z" fill="white" shape-rendering="crispEdges"/>
<path d="M287.432 78.704L287.252 80.42H289.712C289.712 82.472 289.64 83.84 289.52 84.512C289.376 85.208 288.752 85.58 287.672 85.64C287.372 85.64 287.06 85.616 286.748 85.592L286.46 84.536C286.76 84.572 287.072 84.596 287.408 84.596C288.032 84.596 288.392 84.392 288.488 83.996C288.584 83.588 288.632 82.724 288.632 81.404H286.1L286.436 77.72H288.512V76.076H286.22V75.092H289.628V78.704H287.432ZM290.492 76.532H291.992C291.704 75.944 291.392 75.428 291.056 74.972L292.1 74.636C292.436 75.116 292.736 75.632 293 76.172L292.196 76.532H293.972C294.308 75.908 294.596 75.248 294.86 74.552L295.952 74.924C295.688 75.524 295.412 76.052 295.1 76.532H296.552V81.512H294.056V82.508H297.032V83.576H294.056V85.76H292.94V83.576H290.036V82.508H292.94V81.512H290.492V76.532ZM295.544 80.564V79.52H294.056V80.564H295.544ZM292.94 80.564V79.52H291.5V80.564H292.94ZM291.5 78.572H292.94V77.492H291.5V78.572ZM294.056 77.492V78.572H295.544V77.492H294.056ZM298.792 77.012L299.68 77.072C299.656 78.272 299.524 79.424 299.296 80.504L298.372 80.24C298.612 79.22 298.756 78.14 298.792 77.012ZM302.056 76.724C302.26 77.216 302.452 77.756 302.62 78.356C302.932 77.444 303.124 76.472 303.172 75.452L304.216 75.596C304.192 76.028 304.156 76.448 304.108 76.856H305.524V74.708H306.676V76.856H309.196V77.948H306.676V80.612H309.064V81.728H306.676V84.296H309.508V85.4H302.188V84.296H305.524V81.728H302.836V80.612H305.524V77.948H303.892C303.676 78.776 303.376 79.544 302.968 80.264L302.128 79.52C302.224 79.328 302.308 79.148 302.38 78.98L301.864 79.112C301.696 78.368 301.492 77.66 301.228 76.988L302.056 76.724ZM300.052 74.696H301.192V85.688H300.052V74.696ZM315.768 79.928V81.404H317.58V79.928H315.768ZM317.58 82.448H315.768V82.976H314.7V76.412H317.58V74.708H318.696V76.412H321.636V82.976H320.544V82.448H318.696V85.736H317.58V82.448ZM318.696 81.404H320.544V79.928H318.696V81.404ZM320.544 78.908V77.456H318.696V78.908H320.544ZM317.58 77.456H315.768V78.908H317.58V77.456ZM313.56 74.576L314.628 75.068C314.316 76.004 313.92 76.892 313.44 77.732V85.76H312.324V79.388C311.988 79.808 311.628 80.216 311.244 80.624L310.872 79.412C312.096 78.02 312.984 76.412 313.56 74.576ZM334.292 75.524V77.228H333.224V76.472H328.448V77.468H327.368V75.524H330.26C330.14 75.236 329.996 74.984 329.852 74.744L331.064 74.552C331.184 74.84 331.316 75.164 331.436 75.524H334.292ZM328.124 80.66C327.884 80.972 327.644 81.284 327.38 81.572L327.008 80.408C327.824 79.424 328.412 78.284 328.796 76.988L329.744 77.432C329.576 77.96 329.384 78.476 329.156 78.956V85.556H328.124V80.66ZM329.984 77.456H334.052V78.452H332.528L332.312 79.376H333.992V85.568H332.984V85.04H331.052V85.568H330.044V79.376H331.316L331.52 78.452H329.984V77.456ZM331.052 84.092H332.984V82.628H331.052V84.092ZM331.052 81.704H332.984V80.336H331.052V81.704ZM327.392 83.18V84.272C326.336 84.716 325.136 85.076 323.804 85.352L323.66 84.212C325.076 83.96 326.324 83.612 327.392 83.18ZM325.292 74.6L326.372 75.032C325.856 76.472 325.328 77.66 324.788 78.572C325.172 78.512 325.556 78.44 325.94 78.368C326.108 77.984 326.288 77.588 326.48 77.18L327.476 77.552C326.612 79.376 325.88 80.72 325.28 81.596C325.856 81.428 326.432 81.2 327.02 80.936V81.98C325.94 82.448 324.908 82.76 323.924 82.916L323.624 81.872C323.828 81.788 323.996 81.68 324.14 81.536C324.476 81.128 324.908 80.42 325.436 79.412C324.884 79.52 324.332 79.628 323.756 79.724L323.456 78.668C323.648 78.584 323.804 78.44 323.948 78.224C324.464 77.132 324.908 75.92 325.292 74.6Z" fill="#111824"/>
</g>
</g>
<g filter="url(#filter7_dd_2829_164)">
<rect x="50" y="423" width="542" height="67" rx="7.62489" fill="#FBFCFF"/>
<rect x="79.5" y="441" width="119" height="31" rx="5.5" fill="#F7F8FA"/>
<rect x="79.5" y="441" width="119" height="31" rx="5.5" stroke="#E8EBF0"/>
<path d="M95.56 451.764C96.508 451.764 97.312 452.016 97.96 452.52C98.608 453.024 98.992 453.708 99.112 454.56H98.164C98.044 453.936 97.732 453.456 97.252 453.12C96.784 452.796 96.22 452.64 95.548 452.64C94.552 452.64 93.784 452.988 93.244 453.684C92.74 454.332 92.488 455.184 92.488 456.252C92.488 457.32 92.728 458.172 93.232 458.796C93.76 459.456 94.516 459.792 95.524 459.792C96.208 459.792 96.784 459.612 97.264 459.252C97.768 458.868 98.116 458.304 98.284 457.56H99.232C99.04 458.556 98.596 459.336 97.888 459.888C97.228 460.404 96.436 460.668 95.524 460.668C94.192 460.668 93.172 460.224 92.464 459.348C91.816 458.556 91.504 457.524 91.504 456.252C91.504 454.98 91.828 453.936 92.488 453.12C93.208 452.208 94.24 451.764 95.56 451.764ZM100.642 451.932H104.146C106.114 451.932 107.098 452.772 107.098 454.452C107.098 456.144 106.102 456.996 104.134 456.996H101.626V460.5H100.642V451.932ZM101.626 452.784V456.144H104.086C104.782 456.144 105.286 456 105.622 455.724C105.946 455.448 106.114 455.028 106.114 454.452C106.114 453.876 105.946 453.456 105.61 453.204C105.274 452.916 104.77 452.784 104.086 452.784H101.626ZM108.39 451.932H109.374V457.224C109.374 458.064 109.554 458.7 109.938 459.132C110.334 459.576 110.958 459.804 111.81 459.804C112.65 459.804 113.274 459.576 113.682 459.132C114.054 458.7 114.246 458.064 114.246 457.224V451.932H115.23V457.212C115.23 458.328 114.942 459.18 114.378 459.768C113.79 460.368 112.938 460.668 111.81 460.668C110.682 460.668 109.83 460.368 109.254 459.78C108.678 459.18 108.39 458.328 108.39 457.212V451.932ZM130.216 451.284V461.688H129.352V460.908H123.04V461.712H122.164V451.284H130.216ZM123.04 460.068H129.352V457.812H123.04V460.068ZM123.04 457.02H129.352V454.908H123.04V457.02ZM123.04 454.116H129.352V452.124H123.04V454.116ZM134.524 450.732H135.376V453H136.768V453.828H135.376V454.752C135.964 455.352 136.552 456.024 137.14 456.756L136.648 457.488C136.156 456.732 135.736 456.132 135.376 455.676V461.688H134.524V455.712C134.14 456.84 133.648 457.872 133.048 458.808L132.676 457.872C133.54 456.696 134.152 455.34 134.524 453.828H133.06V453H134.524V450.732ZM138.064 456.156L138.856 456.336C138.472 458.016 137.908 459.456 137.188 460.68L136.444 460.2C137.188 458.988 137.728 457.644 138.064 456.156ZM142.408 456.096C142.912 457.452 143.344 458.904 143.704 460.44L142.924 460.788C142.528 459.12 142.096 457.644 141.628 456.348L142.408 456.096ZM139.72 461.568H138.496L138.328 460.764C138.712 460.788 139.072 460.812 139.42 460.812C139.744 460.812 139.912 460.632 139.912 460.284V455.16H136.984V454.332H143.716V455.16H140.776V460.5C140.776 461.208 140.416 461.568 139.72 461.568ZM137.62 451.416H143.092V452.232H137.62V451.416ZM151.672 450.648L152.524 450.768C152.5 451.128 152.464 451.488 152.44 451.824H155.416V452.616H152.344C152.296 452.976 152.236 453.324 152.188 453.66H154.624V460.548H155.764V461.34H147.904V460.548H149.14V453.66H151.336C151.384 453.312 151.444 452.964 151.492 452.616H148.42V451.824H151.576C151.612 451.428 151.648 451.032 151.672 450.648ZM149.968 460.548H153.796V459.492H149.968V460.548ZM149.968 458.796H153.796V457.788H149.968V458.796ZM149.968 457.092H153.796V456.108H149.968V457.092ZM149.968 455.412H153.796V454.44H149.968V455.412ZM146.428 454.728C146.02 455.352 145.576 455.94 145.084 456.492L144.796 455.58C145.984 454.152 146.848 452.508 147.376 450.66L148.156 451.02C147.916 451.8 147.616 452.544 147.268 453.252V461.7H146.428V454.728Z" fill="#111824"/>
<path fill-rule="evenodd" clip-rule="evenodd" d="M174.321 454.028C174.582 453.768 175.004 453.768 175.264 454.028L178.793 457.557L182.321 454.028C182.582 453.768 183.004 453.768 183.264 454.028C183.524 454.289 183.524 454.711 183.264 454.971L179.264 458.971C179.004 459.231 178.582 459.231 178.321 458.971L174.321 454.971C174.061 454.711 174.061 454.289 174.321 454.028Z" fill="#667085"/>
<rect x="211.5" y="441" width="79" height="31" rx="5.5" fill="#F7F8FA"/>
<rect x="211.5" y="441" width="79" height="31" rx="5.5" stroke="#E8EBF0"/>
<path d="M224.26 451.932H229.24V452.808H225.064L224.776 455.676H224.824C225.064 455.388 225.376 455.172 225.748 455.028C226.084 454.884 226.444 454.824 226.84 454.824C227.656 454.824 228.316 455.076 228.82 455.592C229.324 456.12 229.588 456.84 229.588 457.764C229.588 458.628 229.276 459.336 228.664 459.888C228.088 460.404 227.368 460.668 226.528 460.668C225.772 460.668 225.124 460.464 224.596 460.056C223.996 459.6 223.672 458.976 223.612 458.196H224.584C224.632 458.736 224.848 459.156 225.232 459.444C225.568 459.696 226.012 459.828 226.54 459.828C227.14 459.828 227.632 459.636 228.028 459.252C228.412 458.868 228.616 458.376 228.616 457.776C228.616 457.092 228.424 456.564 228.064 456.192C227.716 455.808 227.224 455.628 226.6 455.628C226.192 455.628 225.832 455.712 225.508 455.892C225.172 456.06 224.908 456.324 224.74 456.66H223.804L224.26 451.932ZM233.843 451.764C234.863 451.764 235.631 452.208 236.159 453.12C236.615 453.888 236.843 454.92 236.843 456.216C236.843 457.512 236.615 458.544 236.159 459.312C235.631 460.212 234.863 460.668 233.843 460.668C232.811 460.668 232.043 460.212 231.527 459.312C231.071 458.544 230.843 457.512 230.843 456.216C230.843 454.92 231.071 453.888 231.527 453.12C232.043 452.208 232.811 451.764 233.843 451.764ZM233.843 452.604C233.075 452.604 232.523 453.012 232.187 453.84C231.947 454.416 231.827 455.208 231.827 456.216C231.827 457.212 231.947 458.004 232.187 458.592C232.523 459.408 233.075 459.828 233.843 459.828C234.611 459.828 235.163 459.408 235.499 458.592C235.739 458.004 235.871 457.212 235.871 456.216C235.871 455.208 235.739 454.416 235.499 453.84C235.163 453.012 234.611 452.604 233.843 452.604Z" fill="#111824"/>
<path d="M304.352 459.364V458.903C304.352 458.585 304.418 458.294 304.548 458.03C304.682 457.763 304.875 457.55 305.128 457.391C305.384 457.229 305.693 457.148 306.057 457.148C306.426 457.148 306.736 457.229 306.986 457.391C307.236 457.55 307.425 457.763 307.553 458.03C307.68 458.294 307.744 458.585 307.744 458.903V459.364C307.744 459.682 307.679 459.974 307.548 460.241C307.42 460.506 307.23 460.719 306.977 460.881C306.727 461.04 306.42 461.119 306.057 461.119C305.688 461.119 305.376 461.04 305.124 460.881C304.871 460.719 304.679 460.506 304.548 460.241C304.418 459.974 304.352 459.682 304.352 459.364ZM305.222 458.903V459.364C305.222 459.628 305.284 459.865 305.409 460.075C305.534 460.283 305.75 460.386 306.057 460.386C306.355 460.386 306.565 460.283 306.688 460.075C306.812 459.865 306.875 459.628 306.875 459.364V458.903C306.875 458.639 306.815 458.403 306.696 458.196C306.577 457.986 306.364 457.881 306.057 457.881C305.759 457.881 305.544 457.986 305.413 458.196C305.286 458.403 305.222 458.639 305.222 458.903ZM300.006 454.369V453.909C300.006 453.591 300.071 453.3 300.202 453.036C300.335 452.768 300.528 452.555 300.781 452.396C301.037 452.234 301.347 452.153 301.71 452.153C302.08 452.153 302.389 452.234 302.639 452.396C302.889 452.555 303.078 452.768 303.206 453.036C303.334 453.3 303.398 453.591 303.398 453.909V454.369C303.398 454.687 303.332 454.98 303.202 455.247C303.074 455.511 302.884 455.724 302.631 455.886C302.381 456.045 302.074 456.125 301.71 456.125C301.341 456.125 301.03 456.045 300.777 455.886C300.524 455.724 300.332 455.511 300.202 455.247C300.071 454.98 300.006 454.687 300.006 454.369ZM300.875 453.909V454.369C300.875 454.634 300.938 454.871 301.062 455.081C301.188 455.288 301.403 455.392 301.71 455.392C302.009 455.392 302.219 455.288 302.341 455.081C302.466 454.871 302.528 454.634 302.528 454.369V453.909C302.528 453.645 302.469 453.409 302.349 453.202C302.23 452.991 302.017 452.886 301.71 452.886C301.412 452.886 301.197 452.991 301.067 453.202C300.939 453.409 300.875 453.645 300.875 453.909ZM300.33 461L306.33 452.273H307.301L301.301 461H300.33Z" fill="#111824"/>
<g style="mix-blend-mode:plus-darker">
<rect x="321" y="442.5" width="242" height="28" rx="6" fill="#F0FBFF"/>
<path fill-rule="evenodd" clip-rule="evenodd" d="M340 451.553C337.268 451.553 335.053 453.768 335.053 456.5C335.053 459.233 337.268 461.447 340 461.447C342.733 461.447 344.947 459.233 344.947 456.5C344.947 453.768 342.733 451.553 340 451.553ZM333.887 456.5C333.887 453.124 336.624 450.387 340 450.387C343.377 450.387 346.114 453.124 346.114 456.5C346.114 459.877 343.377 462.614 340 462.614C336.624 462.614 333.887 459.877 333.887 456.5ZM339.417 454.288C339.417 453.966 339.678 453.705 340 453.705H340.006C340.328 453.705 340.589 453.966 340.589 454.288C340.589 454.61 340.328 454.872 340.006 454.872H340C339.678 454.872 339.417 454.61 339.417 454.288ZM340 455.917C340.323 455.917 340.584 456.178 340.584 456.5V458.713C340.584 459.035 340.323 459.296 340 459.296C339.678 459.296 339.417 459.035 339.417 458.713V456.5C339.417 456.178 339.678 455.917 340 455.917Z" fill="#0884DD"/>
<path d="M355.18 452.492C356.093 452.492 356.852 452.723 357.446 453.207C358.018 453.669 358.37 454.307 358.491 455.099H357.325C357.193 454.571 356.94 454.175 356.566 453.922C356.192 453.669 355.73 453.548 355.158 453.548C354.311 453.548 353.673 453.834 353.244 454.417C352.837 454.945 352.639 455.671 352.639 456.584C352.639 457.53 352.837 458.256 353.233 458.773C353.651 459.323 354.3 459.598 355.18 459.598C355.752 459.598 356.236 459.455 356.61 459.169C357.006 458.861 357.281 458.399 357.435 457.783H358.601C358.425 458.696 358.018 459.411 357.369 459.928C356.764 460.412 356.038 460.654 355.191 460.654C353.904 460.654 352.936 460.236 352.287 459.422C351.715 458.718 351.44 457.772 351.44 456.584C351.44 455.418 351.726 454.472 352.32 453.735C352.98 452.899 353.926 452.492 355.18 452.492ZM360.316 452.646H363.572C365.442 452.646 366.377 453.438 366.377 455.033C366.377 456.639 365.431 457.442 363.55 457.442H361.515V460.5H360.316V452.646ZM361.515 453.669V456.419H363.473C364.067 456.419 364.496 456.309 364.771 456.089C365.035 455.869 365.178 455.517 365.178 455.033C365.178 454.549 365.035 454.197 364.76 453.999C364.485 453.779 364.056 453.669 363.473 453.669H361.515ZM367.992 452.646H369.191V457.53C369.191 458.234 369.345 458.751 369.675 459.092C370.005 459.433 370.522 459.609 371.237 459.609C371.941 459.609 372.458 459.433 372.788 459.092C373.107 458.751 373.272 458.234 373.272 457.53V452.646H374.471V457.508C374.471 458.531 374.185 459.312 373.624 459.851C373.063 460.379 372.271 460.654 371.237 460.654C370.192 460.654 369.4 460.39 368.85 459.862C368.278 459.312 367.992 458.531 367.992 457.508V452.646ZM389.237 451.931V461.622H388.181V460.973H382.637V461.644H381.57V451.931H389.237ZM382.637 459.961H388.181V458.135H382.637V459.961ZM382.637 457.189H388.181V455.495H382.637V457.189ZM382.637 454.527H388.181V452.943H382.637V454.527ZM393.378 451.513H394.401V453.504H395.589V454.505H394.401V455.22C394.918 455.737 395.446 456.309 395.974 456.947L395.38 457.838C395.006 457.244 394.676 456.749 394.401 456.353V461.622H393.378V456.628C393.059 457.519 392.674 458.344 392.212 459.092L391.761 457.948C392.498 456.936 393.037 455.792 393.367 454.505H392.124V453.504H393.378V451.513ZM396.623 456.507L397.58 456.716C397.228 458.256 396.733 459.576 396.095 460.698L395.182 460.115C395.864 458.993 396.337 457.794 396.623 456.507ZM400.858 456.419C401.298 457.651 401.672 458.971 401.991 460.379L401.034 460.808C400.693 459.268 400.319 457.915 399.923 456.727L400.858 456.419ZM398.251 461.512H397.14L396.931 460.533C397.261 460.577 397.591 460.599 397.899 460.599C398.163 460.599 398.306 460.445 398.306 460.148V455.704H395.721V454.703H401.958V455.704H399.351V460.401C399.351 461.138 398.977 461.512 398.251 461.512ZM396.293 452.052H401.386V453.042H396.293V452.052ZM409.553 451.425L410.587 451.568C410.565 451.865 410.532 452.151 410.51 452.437H413.139V453.383H410.4C410.356 453.647 410.323 453.889 410.29 454.131H412.457V460.379H413.458V461.325H406.187V460.379H407.276V454.131H409.267C409.311 453.878 409.344 453.625 409.366 453.383H406.66V452.437H409.476C409.498 452.096 409.531 451.755 409.553 451.425ZM408.277 460.379H411.456V459.642H408.277V460.379ZM408.277 458.817H411.456V458.113H408.277V458.817ZM408.277 457.277H411.456V456.584H408.277V457.277ZM408.277 455.759H411.456V455.066H408.277V455.759ZM404.746 455.605C404.416 456.067 404.064 456.518 403.69 456.947L403.349 455.836C404.372 454.582 405.12 453.108 405.593 451.436L406.539 451.876C406.33 452.58 406.066 453.251 405.758 453.889V461.644H404.746V455.605ZM416.532 451.733C417.17 452.371 417.654 452.943 418.006 453.449L417.192 454.01C416.818 453.493 416.334 452.921 415.74 452.305L416.532 451.733ZM420.481 456.353C421.24 457.189 421.823 457.926 422.241 458.553L421.317 459.191C420.899 458.498 420.349 457.728 419.645 456.881L420.481 456.353ZM418.798 451.48H419.821V453.031C419.81 453.405 419.788 453.768 419.766 454.12H424.265C424.265 457.332 424.122 459.367 423.847 460.247C423.55 461.127 423.033 461.567 422.285 461.567C421.713 461.567 421.24 461.545 420.855 461.512L420.58 460.5C421.174 460.555 421.724 460.588 422.219 460.588C422.725 460.544 423.011 459.961 423.088 458.839C423.154 457.706 423.198 456.474 423.198 455.143H419.667C419.491 456.518 419.172 457.673 418.721 458.608C418.072 459.895 417.005 460.885 415.509 461.589L414.926 460.665C416.4 459.917 417.401 458.971 417.929 457.816C418.248 457.057 418.479 456.166 418.633 455.143H415.3V454.12H418.743C418.765 453.768 418.787 453.405 418.798 453.031V451.48ZM435.479 451.799L435.996 452.679C435.226 452.943 434.324 453.13 433.312 453.262V456.067H436.425V457.09H433.312V460.236H435.875V461.259H429.715V460.236H432.267V457.09H429.165V456.067H432.267V453.361C431.585 453.405 430.87 453.438 430.122 453.438L429.792 452.459C432.047 452.459 433.939 452.239 435.479 451.799ZM428.747 451.48L429.726 451.931C429.44 452.767 429.077 453.57 428.626 454.329V461.655H427.592V455.803C427.273 456.188 426.932 456.562 426.569 456.936L426.228 455.825C427.372 454.582 428.208 453.13 428.747 451.48ZM437.915 455.946H447.87V456.98H437.915V455.946ZM454.673 451.425C454.783 451.7 454.893 452.008 455.003 452.338H459.018V454.428H458.006V453.295H450.79V454.483H449.778V452.338H453.903C453.793 452.074 453.672 451.832 453.54 451.601L454.673 451.425ZM454.024 454.945H454.794C455.685 456.023 457.225 456.958 459.403 457.772L458.842 458.619C458.468 458.465 458.116 458.322 457.797 458.179V461.644H456.796V461.248H452.121V461.644H451.109V458.135C450.735 458.311 450.339 458.465 449.943 458.619L449.382 457.772C451.384 457.046 452.935 456.111 454.024 454.945ZM452.121 460.302H456.796V458.773H452.121V460.302ZM451.681 457.849H457.104C455.96 457.255 455.069 456.584 454.409 455.836C453.628 456.628 452.715 457.299 451.681 457.849ZM455.773 453.581C457.093 454.263 458.215 454.945 459.117 455.616L458.391 456.331C457.61 455.682 456.51 454.978 455.102 454.23L455.773 453.581ZM453.001 453.581L453.683 454.197C452.748 455.022 451.604 455.748 450.24 456.364L449.613 455.55C450.955 454.989 452.077 454.329 453.001 453.581ZM461.861 451.843H465.392V454.703H461.861V451.843ZM464.446 453.834V452.734H462.807V453.834H464.446ZM466.415 451.843H470.045V454.703H468.736C468.945 454.989 469.132 455.286 469.286 455.594H470.782V456.518H468.065C468.758 457.068 469.737 457.497 470.991 457.827L470.573 458.707C470.353 458.63 470.155 458.553 469.968 458.487V461.644H469.044V461.215H467.262V461.644H466.338V458.047H468.967C468.087 457.596 467.394 457.09 466.91 456.518H465.128C464.578 457.112 463.874 457.629 463.016 458.047H465.447V461.644H464.523V461.215H462.928V461.644H462.015V458.465C461.773 458.553 461.531 458.63 461.289 458.707L460.816 457.86C462.048 457.508 463.027 457.057 463.753 456.518H461.014V455.594H464.688C464.875 455.341 465.029 455.077 465.139 454.813L466.14 454.923C466.041 455.154 465.931 455.374 465.81 455.594H468.263C468.131 455.363 467.988 455.154 467.845 454.967L468.659 454.703H466.415V451.843ZM469.099 453.834V452.734H467.361V453.834H469.099ZM462.928 460.324H464.523V458.905H462.928V460.324ZM467.262 460.324H469.044V458.905H467.262V460.324ZM476.441 453.295V460.951H475.44V460.379H473.702V461.27H472.701V453.295H473.746C473.944 452.701 474.098 452.096 474.186 451.458L475.231 451.601C475.121 452.206 474.956 452.767 474.747 453.295H476.441ZM473.702 459.411H475.44V457.244H473.702V459.411ZM473.702 456.309H475.44V454.285H473.702V456.309ZM478.421 455.935C479.147 456.837 479.708 457.618 480.093 458.3L479.268 458.883C478.85 458.157 478.278 457.354 477.574 456.463L478.421 455.935ZM482.117 453.306C482.117 457.101 482.062 459.444 481.952 460.324C481.842 461.116 481.314 461.512 480.379 461.512C480.159 461.512 479.763 461.49 479.213 461.457L478.96 460.5C479.444 460.522 479.862 460.544 480.214 460.544C480.654 460.544 480.907 460.313 480.973 459.851C481.039 459.301 481.072 457.453 481.094 454.318H478.333C478.025 454.978 477.673 455.583 477.255 456.133L476.628 455.308C477.354 454.252 477.86 452.965 478.124 451.447L479.158 451.579C479.048 452.195 478.894 452.767 478.718 453.306H482.117ZM491.742 452.492C492.655 452.492 493.414 452.723 494.008 453.207C494.58 453.669 494.932 454.307 495.053 455.099H493.887C493.755 454.571 493.502 454.175 493.128 453.922C492.754 453.669 492.292 453.548 491.72 453.548C490.873 453.548 490.235 453.834 489.806 454.417C489.399 454.945 489.201 455.671 489.201 456.584C489.201 457.53 489.399 458.256 489.795 458.773C490.213 459.323 490.862 459.598 491.742 459.598C492.314 459.598 492.798 459.455 493.172 459.169C493.568 458.861 493.843 458.399 493.997 457.783H495.163C494.987 458.696 494.58 459.411 493.931 459.928C493.326 460.412 492.6 460.654 491.753 460.654C490.466 460.654 489.498 460.236 488.849 459.422C488.277 458.718 488.002 457.772 488.002 456.584C488.002 455.418 488.288 454.472 488.882 453.735C489.542 452.899 490.488 452.492 491.742 452.492ZM496.877 452.646H500.133C502.003 452.646 502.938 453.438 502.938 455.033C502.938 456.639 501.992 457.442 500.111 457.442H498.076V460.5H496.877V452.646ZM498.076 453.669V456.419H500.034C500.628 456.419 501.057 456.309 501.332 456.089C501.596 455.869 501.739 455.517 501.739 455.033C501.739 454.549 501.596 454.197 501.321 453.999C501.046 453.779 500.617 453.669 500.034 453.669H498.076ZM504.553 452.646H505.752V457.53C505.752 458.234 505.906 458.751 506.236 459.092C506.566 459.433 507.083 459.609 507.798 459.609C508.502 459.609 509.019 459.433 509.349 459.092C509.668 458.751 509.833 458.234 509.833 457.53V452.646H511.032V457.508C511.032 458.531 510.746 459.312 510.185 459.851C509.624 460.379 508.832 460.654 507.798 460.654C506.753 460.654 505.961 460.39 505.411 459.862C504.839 459.312 504.553 458.531 504.553 457.508V452.646ZM517.065 454.362H519.133V453.141C518.583 453.24 518.022 453.306 517.45 453.35L517.12 452.382C518.946 452.228 520.42 451.931 521.542 451.48L522.048 452.349C521.443 452.58 520.827 452.778 520.189 452.932V454.362H522.158V455.363H520.189V455.715C520.871 456.265 521.553 456.903 522.257 457.607L521.641 458.542C521.069 457.816 520.585 457.233 520.189 456.804V461.633H519.133V457.123C518.638 458.058 518.011 458.916 517.263 459.708L516.79 458.487C517.846 457.585 518.627 456.551 519.133 455.396V455.363H517.065V454.362ZM522.917 452.514H523.951V459.246H522.917V452.514ZM525.414 461.534H523.775L523.555 460.522C524.072 460.555 524.567 460.577 525.051 460.577C525.326 460.577 525.469 460.412 525.469 460.093V451.513H526.525V460.357C526.525 461.138 526.151 461.534 525.414 461.534ZM530.446 455.473V457.156H532.976V455.473H530.446ZM530.391 458.124C530.259 459.51 529.852 460.654 529.17 461.556L528.367 460.841C529.027 459.895 529.368 458.696 529.39 457.244V451.854H537.827V460.137C537.827 460.962 537.398 461.38 536.562 461.38H535.297L535.022 460.357C535.451 460.39 535.847 460.412 536.221 460.412C536.573 460.412 536.76 460.192 536.76 459.763V458.124H534.032V461.259H532.976V458.124H530.391ZM536.76 457.156V455.473H534.032V457.156H536.76ZM536.76 454.516V452.866H534.032V454.516H536.76ZM532.976 452.866H530.446V454.516H532.976V452.866ZM540.175 452.338H544.388C544.256 452.052 544.102 451.788 543.937 451.546L544.993 451.37C545.147 451.656 545.29 451.975 545.433 452.338H549.745V453.317H545.169C544.905 453.823 544.619 454.263 544.289 454.615C544.641 454.593 545.004 454.56 545.367 454.527C545.587 454.241 545.829 453.933 546.082 453.603L547.028 453.966C546.038 455.176 545.169 456.1 544.432 456.749C544.971 456.683 545.51 456.606 546.038 456.529C545.928 456.287 545.818 456.056 545.708 455.847L546.588 455.561C546.94 456.177 547.248 456.837 547.512 457.541L546.577 457.97C546.5 457.728 546.423 457.508 546.346 457.31C546.06 457.354 545.774 457.387 545.488 457.431V458.509H549.921V459.499H545.488V461.677H544.432V459.499H540.021V458.509H544.432V457.563C543.948 457.618 543.475 457.662 542.991 457.695L542.782 456.782C542.892 456.76 543.013 456.738 543.134 456.705C543.53 456.507 544.025 456.067 544.63 455.385C544.113 455.429 543.574 455.473 543.013 455.517L542.815 454.692C543.321 454.45 543.75 453.988 544.091 453.317H540.175V452.338ZM541.957 455.693L542.738 456.276C542.166 456.969 541.572 457.541 540.956 457.992L540.252 457.211C540.879 456.771 541.451 456.265 541.957 455.693ZM541.066 453.526C541.682 453.955 542.21 454.384 542.639 454.824L541.913 455.55C541.539 455.132 541.011 454.681 540.351 454.208L541.066 453.526ZM547.974 455.682C548.645 456.21 549.217 456.727 549.679 457.255L548.909 458.014C548.535 457.486 547.996 456.925 547.303 456.32L547.974 455.682ZM548.634 453.493L549.448 454.087C548.953 454.67 548.436 455.154 547.897 455.539L547.237 454.791C547.743 454.417 548.216 453.988 548.634 453.493Z" fill="#0884DD"/>
</g>
</g>
<defs>
<filter id="filter0_dd_2829_164" x="61.4382" y="127.938" width="677.663" height="336.368" filterUnits="userSpaceOnUse" color-interpolation-filters="sRGB">
<feFlood flood-opacity="0" result="BackgroundImageFix"/>
<feColorMatrix in="SourceAlpha" type="matrix" values="0 0 0 0 0 0 0 0 0 0 0 0 0 0 0 0 0 0 127 0" result="hardAlpha"/>
<feOffset/>
<feGaussianBlur stdDeviation="0.476556"/>
<feComposite in2="hardAlpha" operator="out"/>
<feColorMatrix type="matrix" values="0 0 0 0 0.0745098 0 0 0 0 0.2 0 0 0 0 0.419608 0 0 0 0.2 0"/>
<feBlend mode="normal" in2="BackgroundImageFix" result="effect1_dropShadow_2829_164"/>
<feColorMatrix in="SourceAlpha" type="matrix" values="0 0 0 0 0 0 0 0 0 0 0 0 0 0 0 0 0 0 127 0" result="hardAlpha"/>
<feMorphology radius="11.4373" operator="erode" in="SourceAlpha" result="effect2_dropShadow_2829_164"/>
<feOffset dy="30.4996"/>
<feGaussianBlur stdDeviation="30.4996"/>
<feColorMatrix type="matrix" values="0 0 0 0 0.0745098 0 0 0 0 0.2 0 0 0 0 0.419608 0 0 0 0.25 0"/>
<feBlend mode="normal" in2="effect1_dropShadow_2829_164" result="effect2_dropShadow_2829_164"/>
<feBlend mode="normal" in="SourceGraphic" in2="effect2_dropShadow_2829_164" result="shape"/>
</filter>
<filter id="filter1_d_2829_164" x="346.188" y="202.249" width="15.2601" height="15.2601" filterUnits="userSpaceOnUse" color-interpolation-filters="sRGB">
<feFlood flood-opacity="0" result="BackgroundImageFix"/>
<feColorMatrix in="SourceAlpha" type="matrix" values="0 0 0 0 0 0 0 0 0 0 0 0 0 0 0 0 0 0 127 0" result="hardAlpha"/>
<feMorphology radius="0.762987" operator="dilate" in="SourceAlpha" result="effect1_dropShadow_2829_164"/>
<feOffset dy="1.52597"/>
<feGaussianBlur stdDeviation="1.14448"/>
<feColorMatrix type="matrix" values="0 0 0 0 0.670588 0 0 0 0 0.741176 0 0 0 0 0.807843 0 0 0 0.4 0"/>
<feBlend mode="normal" in2="BackgroundImageFix" result="effect1_dropShadow_2829_164"/>
<feBlend mode="normal" in="SourceGraphic" in2="effect1_dropShadow_2829_164" result="shape"/>
</filter>
<filter id="filter2_d_2829_164" x="268.364" y="202.249" width="15.2601" height="15.2601" filterUnits="userSpaceOnUse" color-interpolation-filters="sRGB">
<feFlood flood-opacity="0" result="BackgroundImageFix"/>
<feColorMatrix in="SourceAlpha" type="matrix" values="0 0 0 0 0 0 0 0 0 0 0 0 0 0 0 0 0 0 127 0" result="hardAlpha"/>
<feMorphology radius="0.762987" operator="dilate" in="SourceAlpha" result="effect1_dropShadow_2829_164"/>
<feOffset dy="1.52597"/>
<feGaussianBlur stdDeviation="1.14448"/>
<feColorMatrix type="matrix" values="0 0 0 0 0.670588 0 0 0 0 0.741176 0 0 0 0 0.807843 0 0 0 0.4 0"/>
<feBlend mode="normal" in2="BackgroundImageFix" result="effect1_dropShadow_2829_164"/>
<feBlend mode="normal" in="SourceGraphic" in2="effect1_dropShadow_2829_164" result="shape"/>
</filter>
<filter id="filter3_d_2829_164" x="337.858" y="253.421" width="15.2601" height="15.2601" filterUnits="userSpaceOnUse" color-interpolation-filters="sRGB">
<feFlood flood-opacity="0" result="BackgroundImageFix"/>
<feColorMatrix in="SourceAlpha" type="matrix" values="0 0 0 0 0 0 0 0 0 0 0 0 0 0 0 0 0 0 127 0" result="hardAlpha"/>
<feMorphology radius="0.762987" operator="dilate" in="SourceAlpha" result="effect1_dropShadow_2829_164"/>
<feOffset dy="1.52597"/>
<feGaussianBlur stdDeviation="1.14448"/>
<feColorMatrix type="matrix" values="0 0 0 0 0.670588 0 0 0 0 0.741176 0 0 0 0 0.807843 0 0 0 0.4 0"/>
<feBlend mode="normal" in2="BackgroundImageFix" result="effect1_dropShadow_2829_164"/>
<feBlend mode="normal" in="SourceGraphic" in2="effect1_dropShadow_2829_164" result="shape"/>
</filter>
<filter id="filter4_d_2829_164" x="377.533" y="305.307" width="15.2601" height="15.2601" filterUnits="userSpaceOnUse" color-interpolation-filters="sRGB">
<feFlood flood-opacity="0" result="BackgroundImageFix"/>
<feColorMatrix in="SourceAlpha" type="matrix" values="0 0 0 0 0 0 0 0 0 0 0 0 0 0 0 0 0 0 127 0" result="hardAlpha"/>
<feMorphology radius="0.762987" operator="dilate" in="SourceAlpha" result="effect1_dropShadow_2829_164"/>
<feOffset dy="1.52597"/>
<feGaussianBlur stdDeviation="1.14448"/>
<feColorMatrix type="matrix" values="0 0 0 0 0.670588 0 0 0 0 0.741176 0 0 0 0 0.807843 0 0 0 0.4 0"/>
<feBlend mode="normal" in2="BackgroundImageFix" result="effect1_dropShadow_2829_164"/>
<feBlend mode="normal" in="SourceGraphic" in2="effect1_dropShadow_2829_164" result="shape"/>
</filter>
<filter id="filter5_dd_2829_164" x="1.43734" y="28.9369" width="637.125" height="164.125" filterUnits="userSpaceOnUse" color-interpolation-filters="sRGB">
<feFlood flood-opacity="0" result="BackgroundImageFix"/>
<feColorMatrix in="SourceAlpha" type="matrix" values="0 0 0 0 0 0 0 0 0 0 0 0 0 0 0 0 0 0 127 0" result="hardAlpha"/>
<feOffset/>
<feGaussianBlur stdDeviation="0.476556"/>
<feComposite in2="hardAlpha" operator="out"/>
<feColorMatrix type="matrix" values="0 0 0 0 0.0745098 0 0 0 0 0.2 0 0 0 0 0.419608 0 0 0 0.2 0"/>
<feBlend mode="normal" in2="BackgroundImageFix" result="effect1_dropShadow_2829_164"/>
<feColorMatrix in="SourceAlpha" type="matrix" values="0 0 0 0 0 0 0 0 0 0 0 0 0 0 0 0 0 0 127 0" result="hardAlpha"/>
<feMorphology radius="11.4373" operator="erode" in="SourceAlpha" result="effect2_dropShadow_2829_164"/>
<feOffset dy="30.4996"/>
<feGaussianBlur stdDeviation="30"/>
<feColorMatrix type="matrix" values="0 0 0 0 0.0745098 0 0 0 0 0.2 0 0 0 0 0.419608 0 0 0 0.1 0"/>
<feBlend mode="normal" in2="effect1_dropShadow_2829_164" result="effect2_dropShadow_2829_164"/>
<feBlend mode="normal" in="SourceGraphic" in2="effect2_dropShadow_2829_164" result="shape"/>
</filter>
<filter id="filter6_dd_2829_164" x="266" y="66.5" width="89" height="30" filterUnits="userSpaceOnUse" color-interpolation-filters="sRGB">
<feFlood flood-opacity="0" result="BackgroundImageFix"/>
<feColorMatrix in="SourceAlpha" type="matrix" values="0 0 0 0 0 0 0 0 0 0 0 0 0 0 0 0 0 0 127 0" result="hardAlpha"/>
<feOffset/>
<feGaussianBlur stdDeviation="0.5"/>
<feComposite in2="hardAlpha" operator="out"/>
<feColorMatrix type="matrix" values="0 0 0 0 0.0745098 0 0 0 0 0.2 0 0 0 0 0.419608 0 0 0 0.15 0"/>
<feBlend mode="normal" in2="BackgroundImageFix" result="effect1_dropShadow_2829_164"/>
<feColorMatrix in="SourceAlpha" type="matrix" values="0 0 0 0 0 0 0 0 0 0 0 0 0 0 0 0 0 0 127 0" result="hardAlpha"/>
<feOffset dy="1"/>
<feGaussianBlur stdDeviation="1"/>
<feColorMatrix type="matrix" values="0 0 0 0 0.0745098 0 0 0 0 0.2 0 0 0 0 0.419608 0 0 0 0.1 0"/>
<feBlend mode="normal" in2="effect1_dropShadow_2829_164" result="effect2_dropShadow_2829_164"/>
<feBlend mode="normal" in="SourceGraphic" in2="effect2_dropShadow_2829_164" result="shape"/>
</filter>
<filter id="filter7_dd_2829_164" x="0.438204" y="403.938" width="641.124" height="166.124" filterUnits="userSpaceOnUse" color-interpolation-filters="sRGB">
<feFlood flood-opacity="0" result="BackgroundImageFix"/>
<feColorMatrix in="SourceAlpha" type="matrix" values="0 0 0 0 0 0 0 0 0 0 0 0 0 0 0 0 0 0 127 0" result="hardAlpha"/>
<feOffset/>
<feGaussianBlur stdDeviation="0.476556"/>
<feComposite in2="hardAlpha" operator="out"/>
<feColorMatrix type="matrix" values="0 0 0 0 0.0745098 0 0 0 0 0.2 0 0 0 0 0.419608 0 0 0 0.2 0"/>
<feBlend mode="normal" in2="BackgroundImageFix" result="effect1_dropShadow_2829_164"/>
<feColorMatrix in="SourceAlpha" type="matrix" values="0 0 0 0 0 0 0 0 0 0 0 0 0 0 0 0 0 0 127 0" result="hardAlpha"/>
<feMorphology radius="11.4373" operator="erode" in="SourceAlpha" result="effect2_dropShadow_2829_164"/>
<feOffset dy="30.4996"/>
<feGaussianBlur stdDeviation="30.4996"/>
<feColorMatrix type="matrix" values="0 0 0 0 0.0745098 0 0 0 0 0.2 0 0 0 0 0.419608 0 0 0 0.2 0"/>
<feBlend mode="normal" in2="effect1_dropShadow_2829_164" result="effect2_dropShadow_2829_164"/>
<feBlend mode="normal" in="SourceGraphic" in2="effect2_dropShadow_2829_164" result="shape"/>
</filter>
<clipPath id="clip0_2829_164">
<rect x="111" y="147" width="578.539" height="237.244" rx="11.4373" fill="white"/>
</clipPath>
<clipPath id="clip1_2829_164">
<rect x="222.585" y="206.827" width="381.277" height="3.05195" rx="1.52597" fill="white"/>
</clipPath>
<clipPath id="clip2_2829_164">
<rect width="379.968" height="1.52597" fill="white" transform="translate(223.348 207.59)"/>
</clipPath>
<clipPath id="clip3_2829_164">
<rect x="222.646" y="258" width="381.277" height="3.05195" rx="1.52597" fill="white"/>
</clipPath>
<clipPath id="clip4_2829_164">
<rect width="379.968" height="1.52597" fill="white" transform="translate(223.41 258.763)"/>
</clipPath>
<clipPath id="clip5_2829_164">
<rect x="222.646" y="309.884" width="381.277" height="3.05195" rx="1.52597" fill="white"/>
</clipPath>
<clipPath id="clip6_2829_164">
<rect width="379.968" height="1.52597" fill="white" transform="translate(223.41 310.647)"/>
</clipPath>
</defs>
</svg>
