<svg width="197" height="44" viewBox="0 0 197 44" fill="none" xmlns="http://www.w3.org/2000/svg">
<rect x="0.538086" width="44" height="44" rx="5.07692" fill="#EEF6FF"/>
<path d="M32.4367 28.3202C31.1537 28.2852 30.174 28.4046 29.3363 28.7578C29.0983 28.8582 28.7184 28.861 28.6796 29.1591C28.8104 29.2962 28.8308 29.5011 28.9347 29.6697C29.1348 29.9931 29.4724 30.4271 29.7737 30.6545C30.1031 30.9031 30.4424 31.1687 30.7953 31.3839C31.4231 31.7666 32.1239 31.9853 32.7283 32.3687C33.0846 32.5949 33.4385 32.8796 33.786 33.1346C33.958 33.2608 34.0733 33.4569 34.2967 33.536V33.4997C34.1793 33.3501 34.149 33.1449 34.0413 32.9888L33.5671 32.5145C33.1035 31.8991 32.5148 31.3585 31.8891 30.9096C31.3902 30.5515 30.2736 30.0677 30.0655 29.4872L30.0291 29.4508C30.3828 29.4108 30.7968 29.2829 31.1234 29.1952C31.6719 29.0483 32.1621 29.0862 32.7283 28.94L33.4942 28.7211V28.5753C33.208 28.2816 33.0038 27.8928 32.6918 27.627C31.8749 26.9316 30.9836 26.2367 30.0657 25.6572C29.5565 25.336 28.9274 25.1272 28.3878 24.8549C28.2062 24.7631 27.8873 24.7154 27.7675 24.5629C27.4839 24.2017 27.3297 23.7437 27.1111 23.3229C26.6533 22.4411 26.2037 21.4782 25.7981 20.5504C25.5214 19.9178 25.3406 19.2941 24.9956 18.7266C23.3393 16.0034 21.5566 14.3601 18.795 12.7445C18.2072 12.4009 17.4997 12.2654 16.7519 12.0878C16.3509 12.0637 15.9496 12.0392 15.5484 12.0147C15.3033 11.9126 15.0487 11.613 14.819 11.4675C13.9041 10.8895 11.5572 9.63236 10.8798 11.2853C10.4519 12.3286 11.5193 13.3463 11.9008 13.8751C12.1689 14.2457 12.5119 14.6616 12.7034 15.0787C12.8294 15.3529 12.8511 15.6279 12.9589 15.9178C13.2238 16.6323 13.4547 17.4096 13.7977 18.0697C13.971 18.4039 14.1621 18.7558 14.3813 19.0545C14.5156 19.2379 14.7461 19.3186 14.7823 19.6017C14.5572 19.9168 14.5443 20.4063 14.4178 20.8056C13.8476 22.603 14.0628 24.8373 14.8921 26.1675C15.1463 26.5762 15.7458 27.452 16.5698 27.1159C17.2907 26.8224 17.1297 25.9124 17.3359 25.1097C17.3825 24.9278 17.3539 24.7939 17.4453 24.672V24.7085L18.102 26.0215C18.588 26.8043 19.4502 27.6221 20.1811 28.174C20.56 28.4602 20.8584 28.9548 21.3484 29.1223V29.0857H21.3119C21.217 28.9378 21.0683 28.8765 20.9472 28.7576C20.6617 28.4777 20.3443 28.1298 20.1084 27.8092C19.4436 26.9069 18.8563 25.9193 18.3211 24.8913C18.0653 24.4002 17.8431 23.8588 17.6277 23.3591C17.5447 23.1666 17.5458 22.8752 17.3727 22.7755C17.1366 23.1416 16.7891 23.4377 16.6067 23.8699C16.3148 24.5608 16.2773 25.4035 16.169 26.2773C16.1051 26.3001 16.1335 26.2844 16.0959 26.3135C15.5878 26.1911 15.4095 25.6682 15.2205 25.2194C14.7431 24.0847 14.6543 22.2579 15.0745 20.9517C15.1833 20.6136 15.6746 19.5495 15.4757 19.2371C15.3807 18.9257 15.0674 18.7455 14.8922 18.5075C14.6752 18.2133 14.4587 17.8259 14.3082 17.4861C13.9175 16.6017 13.7351 15.6084 13.3236 14.7141C13.1268 14.2866 12.7942 13.8538 12.5211 13.474C12.2188 13.0528 11.8801 12.7427 11.6457 12.2336C11.5623 12.0527 11.4492 11.7629 11.5726 11.5769C11.6118 11.4515 11.6675 11.3991 11.7915 11.3582C12.0031 11.195 12.5923 11.4124 12.8125 11.5038C13.3975 11.7468 13.8858 11.9783 14.3813 12.3065C14.6189 12.4643 14.8597 12.7692 15.1472 12.8537H15.4755C15.989 12.9717 16.5642 12.8902 17.0441 13.036C17.8921 13.2936 18.652 13.6946 19.342 14.1303C21.4443 15.458 23.1634 17.3475 24.3392 19.6018C24.5284 19.9649 24.6103 20.3111 24.7768 20.6962C25.113 21.4726 25.5364 22.2713 25.8708 23.0307C26.2047 23.7882 26.5299 24.5526 27.0018 25.1829C27.2499 25.5142 28.2077 25.692 28.6433 25.8761C28.9484 26.0049 29.4484 26.1395 29.7376 26.3135C30.2897 26.6467 30.8247 27.0432 31.3427 27.4081C31.6012 27.5903 32.397 27.9906 32.4367 28.3202ZM16.132 14.4229C15.8645 14.4178 15.6753 14.452 15.4753 14.4956V14.532H15.5118C15.6394 14.7941 15.8647 14.9631 16.0223 15.1888C16.1438 15.4443 16.2655 15.6995 16.3872 15.9547L16.4235 15.9186C16.6495 15.7591 16.7528 15.5047 16.7515 15.1159C16.6611 15.0207 16.6478 14.9014 16.5693 14.7878C16.4653 14.6362 16.2636 14.55 16.132 14.4229Z" fill="#0080B7"/>
<rect x="54.6924" width="44" height="44" rx="5.07692" fill="#EEF6FF"/>
<path d="M77.2409 34.4116L76.5752 34.1908C76.5752 34.1908 76.6639 30.8223 75.445 30.5856C74.6472 29.6566 75.5629 -9.07499 78.4793 30.4536C77.926 30.7342 77.5026 31.218 77.2977 31.8036C77.1879 32.6686 77.1688 33.5426 77.2409 34.4116Z" fill="#88851F"/>
<path d="M77.6014 31.157C79.3739 29.8227 80.7313 28.0127 81.5159 25.9375C82.3005 23.8622 82.48 21.6069 82.0336 19.4337C80.7305 13.6851 77.6448 11.7952 77.3124 11.0736C77.0256 10.6243 76.7808 10.1495 76.5811 9.65527L76.8266 25.6725C76.8266 25.6725 76.3178 30.5675 77.6014 31.157Z" fill="#2D9F2C"/>
<path d="M76.2366 31.37C76.2366 31.37 70.8106 27.6744 71.1244 21.1368C71.1537 19.1659 71.6056 17.2243 72.4496 15.443C73.2936 13.6617 74.51 12.0823 76.0168 10.8115C76.1928 10.6619 76.3327 10.4743 76.4259 10.2629C76.5191 10.0515 76.5632 9.82171 76.5548 9.59082C76.8926 10.3177 76.8376 20.4436 76.8731 21.6279C77.0105 26.2348 76.6169 30.5004 76.2366 31.37Z" fill="#5FB765"/>
<rect x="108.846" width="44" height="44" rx="5.07692" fill="#EEF6FF"/>
<path d="M142.34 28.3903C141.016 29.0825 134.154 31.9109 132.693 32.6744C131.232 33.438 130.421 33.4306 129.267 32.8776C128.113 32.3245 120.811 29.3675 119.495 28.7372C118.838 28.4222 118.492 28.1563 118.492 27.9051V25.39C118.492 25.39 127.999 23.3153 129.533 22.7633C131.068 22.2113 131.6 22.1913 132.906 22.6709C134.213 23.1507 142.022 24.5632 143.313 25.0372L143.312 27.5167C143.312 27.7654 143.014 28.0381 142.34 28.3903Z" fill="#A73434"/>
<path d="M142.34 25.8896C141.015 26.5815 134.154 29.41 132.693 30.1734C131.232 30.9371 130.421 30.9296 129.267 30.3765C128.113 29.8239 120.811 26.8664 119.496 26.2364C118.18 25.6061 118.153 25.1723 119.445 24.6651C120.737 24.1577 127.998 21.3015 129.533 20.7495C131.068 20.1977 131.6 20.1776 132.906 20.6573C134.212 21.1369 141.033 23.8586 142.324 24.3325C143.615 24.8069 143.664 25.1975 142.34 25.8896Z" fill="#DA5551"/>
<path d="M142.34 24.32C141.016 25.0122 134.154 27.8405 132.693 28.6043C131.232 29.3676 130.421 29.3603 129.267 28.8072C128.113 28.2544 120.811 25.2971 119.495 24.6668C118.838 24.3519 118.492 24.0863 118.492 23.835V21.3196C118.492 21.3196 127.999 19.245 129.533 18.693C131.068 18.141 131.6 18.121 132.906 18.6006C134.213 19.0803 142.022 20.4925 143.313 20.9666L143.312 23.4464C143.312 23.695 143.014 23.9677 142.34 24.32Z" fill="#A73434"/>
<path d="M142.34 21.8202C141.015 22.5123 134.154 25.3406 132.693 26.1043C131.232 26.8677 130.421 26.8602 129.267 26.3072C128.113 25.7545 120.811 22.7971 119.496 22.167C118.18 21.5369 118.153 21.103 119.445 20.5956C120.737 20.0885 127.999 17.2321 129.533 16.6802C131.068 16.1283 131.6 16.1083 132.906 16.588C134.212 17.0675 141.033 19.789 142.324 20.2631C143.615 20.7374 143.664 21.1282 142.34 21.8202Z" fill="#DA5551"/>
<path d="M142.34 20.1C141.016 20.7921 134.154 23.6206 132.693 24.3844C131.232 25.1478 130.421 25.1403 129.267 24.5873C128.113 24.0345 120.811 21.0771 119.495 20.4471C118.838 20.1318 118.492 19.8662 118.492 19.6152V17.0997C118.492 17.0997 127.999 15.0252 129.533 14.4733C131.068 13.9212 131.6 13.9013 132.906 14.3809C134.213 14.8606 142.022 16.2728 143.313 16.7469L143.312 19.2266C143.312 19.475 143.014 19.7477 142.34 20.1Z" fill="#A73434"/>
<path d="M142.34 17.5994C141.015 18.2915 134.154 21.12 132.693 21.8834C131.232 22.6468 130.421 22.6393 129.267 22.0865C128.113 21.5335 120.811 18.5763 119.496 17.9461C118.18 17.3161 118.153 16.8821 119.445 16.3748C120.737 15.8676 127.999 13.0116 129.533 12.4595C131.068 11.9075 131.6 11.8877 132.906 12.3673C134.212 12.847 141.033 15.5685 142.324 16.0426C143.615 16.5165 143.664 16.9073 142.34 17.5994Z" fill="#DA5551"/>
<path d="M133.936 15.1526L131.802 15.3747L131.324 16.5271L130.553 15.2411L128.088 15.0191L129.927 14.3544L129.375 13.334L131.097 14.0089L132.72 13.4763L132.281 14.5314L133.936 15.1526ZM131.197 20.7433L127.214 19.0873L132.921 18.2091L131.197 20.7433ZM125.675 15.7931C127.36 15.7931 128.725 16.3238 128.725 16.9784C128.725 17.6331 127.36 18.1637 125.675 18.1637C123.991 18.1637 122.625 17.633 122.625 16.9784C122.625 16.3238 123.991 15.7931 125.675 15.7931Z" fill="white"/>
<path d="M136.457 15.4679L139.835 16.8059L136.46 18.1427L136.457 15.4679Z" fill="#C83B3D"/>
<path d="M132.721 16.9496L136.457 15.4678L136.46 18.1426L136.094 18.2863L132.721 16.9496Z" fill="#962C2B"/>
<g opacity="0.7">
<rect x="163" width="44" height="44" rx="5.07692" fill="#EEF6FF"/>
<path d="M191.114 27.8145C191.276 26.4632 191.227 26.2648 192.234 26.4839L192.489 26.5062C193.263 26.5414 194.276 26.3817 194.871 26.1054C196.151 25.5111 196.91 24.5193 195.648 24.7797C192.768 25.374 192.57 24.3987 192.57 24.3987C195.611 19.8864 196.882 14.1584 195.785 12.7562C192.792 8.93188 187.611 10.7403 187.524 10.787L187.497 10.7922C186.928 10.6741 186.291 10.6036 185.575 10.592C184.272 10.5705 183.283 10.9337 182.533 11.5025C182.533 11.5025 173.291 7.69476 173.721 16.2911C173.812 18.1198 176.342 30.1284 179.359 26.5013C180.462 25.175 181.528 24.0535 181.528 24.0535C182.057 24.4049 182.691 24.5844 183.355 24.5199L183.406 24.4761C183.39 24.6407 183.397 24.8018 183.427 24.9926C182.65 25.8611 182.878 26.0135 181.324 26.3333C179.752 26.6572 180.675 27.2341 181.278 27.3849C182.01 27.5677 183.701 27.8267 184.844 26.227L184.798 26.4094C185.103 26.6535 185.083 28.1628 185.126 29.2411C185.169 30.3196 185.241 31.3258 185.461 31.9193C185.681 32.5125 185.94 34.0407 187.983 33.603C189.69 33.2381 190.995 32.7117 191.114 27.8145Z" fill="#2971A4"/>
<path d="M187.316 34.6697C186.412 34.6697 185.824 34.3203 185.467 33.983C184.928 33.4741 184.714 32.8187 184.586 32.4271L184.531 32.2637C184.273 31.5691 184.186 30.569 184.135 29.2812C184.127 29.0878 184.121 28.8887 184.115 28.6775C184.111 28.523 184.106 28.3291 184.098 28.1264C183.772 28.2816 183.427 28.3908 183.071 28.4508C182.434 28.5596 181.75 28.5244 181.036 28.3459C180.532 28.2199 180.009 27.9589 179.711 27.5558C178.841 28.3171 178.012 28.2139 177.56 28.0631C176.763 27.7974 176.05 27.0504 175.38 25.7802C174.902 24.8753 174.44 23.6963 174.007 22.2757C173.252 19.8019 172.772 17.1963 172.73 16.3408C172.596 13.6632 173.316 11.7483 174.872 10.6497C177.325 8.9168 181.042 9.93591 182.397 10.3986C183.308 9.84986 184.379 9.58283 185.59 9.60207C186.24 9.61261 186.859 9.6697 187.434 9.7723C188.034 9.58366 189.218 9.3129 190.575 9.32986C193.074 9.35965 195.144 10.3335 196.563 12.146C197.575 13.4392 197.074 16.1548 196.686 17.6586C196.14 19.7737 195.182 22.0234 194.006 23.9817C194.325 23.984 194.788 23.9457 195.446 23.8098C196.744 23.542 197.123 24.2378 197.226 24.5493C197.639 25.799 195.845 26.7435 195.286 27.0033C194.569 27.3361 193.4 27.5388 192.443 27.4949L192.401 27.4923L192.149 27.4701L192.124 27.6799L192.1 27.8848C192.036 30.3667 191.682 31.9385 190.952 32.9771C190.187 34.0659 189.125 34.371 188.188 34.5716C187.869 34.6399 187.579 34.6697 187.316 34.6697ZM185.415 25.6367C185.998 26.1033 186.049 26.9814 186.095 28.6222C186.101 28.827 186.106 29.0208 186.113 29.2018C186.135 29.7499 186.187 31.0334 186.388 31.5757C186.416 31.6525 186.441 31.7302 186.468 31.8128C186.692 32.4987 186.805 32.8426 187.773 32.6356C188.586 32.4612 189.004 32.3049 189.332 31.839C189.807 31.1618 190.073 29.7996 190.122 27.7901L191.111 27.8141L190.129 27.6962L190.158 27.4509C190.252 26.6421 190.32 26.058 190.86 25.6716C191.294 25.3618 191.788 25.3918 192.182 25.4627C191.749 25.1359 191.63 24.7526 191.598 24.5954L191.515 24.189L191.747 23.845C193.083 21.8635 194.184 19.4281 194.769 17.1632C195.37 14.836 195.187 13.6001 195.003 13.3664C192.577 10.2664 188.37 11.5464 187.931 11.6916L187.857 11.7317L187.485 11.801L187.294 11.7615C186.768 11.6523 186.184 11.5919 185.558 11.5818C184.574 11.5652 183.78 11.7977 183.13 12.2914L182.678 12.6338L182.154 12.418C181.035 11.9603 177.747 11.04 176.012 12.2689C175.049 12.951 174.61 14.2877 174.708 16.2417C174.74 16.8868 175.178 19.329 175.901 21.6976C176.901 24.9709 177.809 26.0582 178.188 26.1846C178.254 26.2069 178.426 26.0735 178.597 25.8683C179.309 25.0144 180.047 24.1818 180.808 23.3718L181.381 22.7688L182.074 23.229C182.353 23.4146 182.661 23.5199 182.978 23.5397L184.63 22.1307L184.39 24.5731C184.385 24.6279 184.382 24.7026 184.404 24.8412L184.476 25.3041L184.163 25.6532L184.127 25.6938L185.035 26.1126L185.415 25.6367Z" fill="#2971A4"/>
<path d="M195.648 24.7775C192.767 25.3718 192.569 24.3965 192.569 24.3965C195.611 19.8841 196.882 14.1558 195.785 12.754C192.792 8.92992 187.611 10.7383 187.524 10.7853L187.496 10.7903C186.927 10.6722 186.29 10.6018 185.574 10.5902C184.271 10.5689 183.283 10.9319 182.532 11.5008C182.532 11.5008 173.29 7.69321 173.72 16.2894C173.811 18.1183 176.341 30.1269 179.358 26.4997C180.461 25.1734 181.526 24.0519 181.526 24.0519C182.056 24.4034 182.689 24.5829 183.353 24.5184L183.405 24.4745C183.389 24.6392 183.397 24.8003 183.426 24.991C182.649 25.8595 182.877 26.012 181.323 26.3318C179.751 26.6557 180.674 27.2326 181.277 27.3833C182.008 27.5662 183.7 27.8252 184.843 26.2254L184.797 26.4079C185.102 26.652 185.316 27.9948 185.28 29.212C185.244 30.4293 185.22 31.2652 185.46 31.9179C185.7 32.5707 185.939 34.0393 187.982 33.6016C189.689 33.2359 190.573 32.288 190.696 30.7069C190.784 29.5827 190.981 29.749 190.994 28.744L191.152 28.2682C191.335 26.7444 191.181 26.253 192.233 26.4815L192.489 26.5039C193.263 26.539 194.276 26.3793 194.87 26.103C196.151 25.5091 196.91 24.5171 195.648 24.7775Z" fill="#3B8CCD"/>
<path d="M187.442 34.0525C185.739 34.0525 185.2 32.7041 184.979 32.1526C184.656 31.3445 184.586 28.2084 184.658 25.6365C184.659 25.5931 184.669 25.5504 184.687 25.5108C184.704 25.4711 184.729 25.4354 184.761 25.4056C184.793 25.3758 184.83 25.3525 184.87 25.3371C184.911 25.3217 184.954 25.3145 184.997 25.3159C185.041 25.3171 185.083 25.3268 185.123 25.3445C185.162 25.3621 185.198 25.3874 185.228 25.4189C185.258 25.4504 185.281 25.4875 185.296 25.528C185.312 25.5684 185.319 25.6116 185.318 25.6549C185.235 28.6212 185.353 31.3093 185.592 31.9075C185.965 32.8402 186.531 33.656 188.131 33.3132C189.65 32.9875 190.218 32.4116 190.472 30.9428C190.666 29.8157 191.051 26.6093 191.098 25.9765C191.101 25.9333 191.113 25.8911 191.133 25.8524C191.152 25.8137 191.179 25.7792 191.212 25.7509C191.245 25.7226 191.283 25.7011 191.324 25.6876C191.365 25.674 191.409 25.6688 191.452 25.6721C191.539 25.6787 191.62 25.7196 191.677 25.7859C191.734 25.8523 191.763 25.9385 191.756 26.0258C191.707 26.6846 191.324 29.8848 191.122 31.0551C190.823 32.7899 190.05 33.5767 188.269 33.9586C187.967 34.0233 187.692 34.0523 187.442 34.0525ZM178.209 27.4664C178.06 27.4659 177.913 27.4415 177.772 27.394C176.666 27.025 175.612 25.2238 174.64 22.0399C173.901 19.6163 173.432 17.0867 173.391 16.2645C173.269 13.827 173.897 12.1026 175.257 11.1393C177.947 9.23308 182.473 11.0483 182.664 11.1265C182.745 11.1596 182.81 11.2236 182.844 11.3043C182.878 11.385 182.878 11.4759 182.845 11.557C182.812 11.638 182.748 11.7026 182.667 11.7365C182.586 11.7704 182.496 11.7708 182.415 11.7377C182.371 11.7199 178.031 9.98123 175.637 11.6788C174.474 12.5033 173.94 14.0351 174.05 16.2316C174.084 16.9243 174.522 19.3932 175.271 21.8471C176.139 24.6896 177.126 26.4831 177.98 26.7679C178.114 26.8126 178.522 26.9485 179.105 26.2473C179.785 25.4306 180.491 24.6356 181.221 23.8632C181.282 23.8023 181.364 23.7677 181.45 23.7669C181.537 23.766 181.62 23.7989 181.682 23.8586C181.744 23.9183 181.781 24 181.784 24.0862C181.787 24.1724 181.755 24.2563 181.697 24.3199C181.687 24.3303 180.695 25.368 179.613 26.6695C179.101 27.2856 178.609 27.4664 178.209 27.4664ZM192.57 24.6854C192.51 24.6854 192.452 24.669 192.4 24.6382C192.349 24.6073 192.307 24.5631 192.279 24.5103C192.251 24.4574 192.238 24.398 192.241 24.3382C192.244 24.2784 192.263 24.2207 192.297 24.171C195.371 19.6091 196.45 14.097 195.526 12.9159C194.363 11.4295 192.72 10.6533 190.644 10.6084C189.106 10.5753 187.884 10.9679 187.684 11.0363L187.634 11.0568C187.433 11.1199 187.279 11.0099 187.221 10.8812C187.188 10.8075 187.183 10.7242 187.207 10.647C187.231 10.5699 187.282 10.5042 187.351 10.4623C187.361 10.4568 187.391 10.4439 187.44 10.4259C187.78 10.3016 189.02 9.92931 190.557 9.94689C192.854 9.9713 194.752 10.8572 196.045 12.5093C196.657 13.2909 196.658 15.0917 196.049 17.4501C195.428 19.8546 194.26 22.4387 192.844 24.54C192.78 24.6345 192.676 24.6854 192.57 24.6854ZM192.727 26.7973C192.202 26.7973 191.732 26.7232 191.45 26.5545C191.16 26.3809 191.105 26.1451 191.098 26.02C191.019 24.6321 191.785 24.3905 192.175 24.2802C192.121 24.1979 192.043 24.1011 191.963 24.0012C191.736 23.7166 191.424 23.3269 191.183 22.744C191.146 22.653 191.028 22.4414 190.891 22.1963C190.151 20.8688 188.611 18.1064 189.6 16.6918C190.058 16.0372 190.97 15.7794 192.314 15.9232C191.919 14.7189 190.036 10.9519 185.57 10.8787C184.227 10.8564 183.125 11.2694 182.297 12.1053C180.444 13.977 180.511 17.3636 180.512 17.3976C180.513 17.4409 180.506 17.484 180.49 17.5245C180.475 17.5649 180.451 17.6019 180.422 17.6334C180.392 17.6648 180.356 17.6901 180.316 17.7077C180.277 17.7253 180.234 17.735 180.191 17.7362C180.147 17.7373 180.104 17.7299 180.064 17.7144C180.023 17.6988 179.986 17.6755 179.955 17.6457C179.924 17.6158 179.898 17.5801 179.881 17.5405C179.863 17.5009 179.853 17.4583 179.852 17.4149C179.848 17.2646 179.779 13.7106 181.828 11.6407C182.787 10.6721 184.05 10.1939 185.581 10.2189C188.438 10.2658 190.277 11.7185 191.317 12.9287C192.45 14.2478 193.006 15.7027 193.052 16.1884C193.086 16.5495 192.827 16.6217 192.774 16.6324L192.655 16.6351C191.336 16.4239 190.49 16.5706 190.141 17.0703C189.388 18.1461 190.845 20.7592 191.467 21.8751C191.626 22.1597 191.741 22.3655 191.793 22.4925C191.998 22.9881 192.264 23.3211 192.478 23.5888C192.667 23.8241 192.83 24.0283 192.888 24.2678C192.915 24.3154 193.3 24.8842 195.582 24.4132C196.154 24.2953 196.497 24.3961 196.601 24.7131C196.808 25.3368 195.651 26.0642 195.01 26.3617C194.436 26.6285 193.52 26.7973 192.727 26.7973ZM191.756 25.9656C191.828 26.0386 192.191 26.1646 192.941 26.1323C193.607 26.1037 194.311 25.9588 194.733 25.7629C195.272 25.5122 195.633 25.2319 195.819 25.0406L195.716 25.0596C194.257 25.3608 193.225 25.3206 192.649 24.9403C192.61 24.9147 192.573 24.887 192.537 24.8573C192.475 24.8819 192.417 24.8981 192.376 24.9096C192.049 25.0013 191.711 25.0962 191.756 25.9656ZM182.332 27.8096C181.969 27.8096 181.588 27.7601 181.199 27.6627C180.795 27.5618 180.115 27.2579 180.125 26.7588C180.137 26.1989 180.951 26.0309 181.258 25.9679C182.365 25.7397 182.437 25.6483 182.783 25.2087C182.884 25.0807 183.01 24.9212 183.181 24.7301C183.435 24.4455 183.713 24.3013 184.007 24.3013C184.211 24.3013 184.379 24.3706 184.49 24.4167C184.843 24.5632 185.138 24.9173 185.259 25.3407C185.369 25.7227 185.316 26.0905 185.112 26.3762C184.443 27.3138 183.481 27.8096 182.332 27.8096ZM180.838 26.7872C180.937 26.8641 181.137 26.9669 181.359 27.0223C181.696 27.1067 182.023 27.1495 182.332 27.1495C183.272 27.1495 184.027 26.7603 184.576 25.9925C184.69 25.8324 184.656 25.629 184.625 25.5221C184.561 25.2981 184.402 25.0944 184.238 25.0263C184.149 24.9895 184.075 24.9614 184.007 24.9614C183.971 24.9614 183.86 24.9614 183.673 25.1701C183.544 25.3149 183.421 25.464 183.302 25.6173C182.871 26.1646 182.674 26.3503 181.391 26.6144C181.078 26.6786 180.918 26.7439 180.838 26.7872ZM183.376 25.2648C183.297 25.2647 183.221 25.2364 183.161 25.185C183.101 25.1336 183.062 25.0626 183.05 24.9847C183.042 24.9299 183.036 24.8748 183.033 24.8195C182.193 24.8037 181.382 24.443 180.766 23.8006C179.987 22.9883 179.633 21.8629 179.794 20.713C179.969 19.4643 179.903 18.3621 179.868 17.7699C179.859 17.6052 179.852 17.4863 179.852 17.404C179.853 17.2995 179.855 17.0225 180.78 16.5532C181.11 16.3863 181.77 16.0951 182.491 16.0204C183.686 15.8969 184.474 16.4291 184.71 17.5192C185.346 20.4621 184.76 21.7638 184.332 22.7144C184.253 22.8915 184.177 23.0586 184.117 23.2206L184.064 23.3633C183.838 23.9696 183.642 24.4933 183.702 24.8844C183.709 24.9273 183.707 24.971 183.697 25.0131C183.686 25.0552 183.668 25.0948 183.642 25.1297C183.617 25.1647 183.584 25.1942 183.547 25.2167C183.51 25.2392 183.469 25.2541 183.426 25.2607L183.376 25.2648ZM180.514 17.4954L180.527 17.731C180.563 18.3461 180.631 19.4908 180.447 20.8047C180.315 21.753 180.604 22.6786 181.242 23.3439C181.746 23.8696 182.41 24.1598 183.092 24.1598H183.106C183.182 23.8382 183.309 23.4986 183.445 23.1327L183.498 22.9908C183.566 22.8079 183.646 22.6309 183.73 22.4435C184.142 21.5284 184.655 20.3893 184.064 17.6588C183.947 17.1179 183.664 16.805 183.198 16.7017C182.24 16.4903 180.814 17.2104 180.514 17.4954ZM182.506 17.3554C182.489 17.472 182.72 17.7835 183.02 17.8251C183.32 17.8671 183.576 17.6234 183.593 17.5068C183.609 17.3901 183.379 17.2615 183.078 17.2197C182.778 17.1779 182.522 17.2387 182.506 17.3554ZM183.089 17.9399L183.005 17.9341C182.818 17.9082 182.63 17.791 182.501 17.6201C182.456 17.5601 182.382 17.4439 182.397 17.3401C182.418 17.1878 182.604 17.0966 182.893 17.0966C182.958 17.0966 183.026 17.1014 183.093 17.1109C183.252 17.1328 183.399 17.1785 183.507 17.2391C183.696 17.3442 183.71 17.4615 183.701 17.5221C183.678 17.6902 183.41 17.9399 183.089 17.9399ZM182.615 17.3748C182.625 17.4468 182.803 17.6842 183.035 17.7163L183.089 17.72C183.303 17.72 183.463 17.5514 183.482 17.4962C183.462 17.4586 183.325 17.3651 183.063 17.3287C183.007 17.3206 182.95 17.3165 182.894 17.3165C182.726 17.3165 182.636 17.3543 182.615 17.3748ZM191.635 17.1173C191.651 17.2339 191.421 17.5454 191.121 17.5872C190.821 17.629 190.564 17.3856 190.548 17.2689C190.532 17.1522 190.762 17.0234 191.062 16.9818C191.362 16.9398 191.618 17.0008 191.635 17.1173ZM191.052 17.6468C190.763 17.6468 190.514 17.4222 190.493 17.2763C190.469 17.1014 190.758 16.9684 191.054 16.9272C191.119 16.9181 191.184 16.9135 191.246 16.9135C191.503 16.9135 191.672 16.9886 191.689 17.1098C191.7 17.1882 191.64 17.3092 191.536 17.4184C191.468 17.4902 191.324 17.6145 191.128 17.6416L191.052 17.6468ZM191.247 17.0236C191.19 17.0236 191.13 17.0279 191.07 17.0362C190.772 17.0778 190.594 17.1973 190.602 17.2615C190.612 17.332 190.803 17.537 191.052 17.537L191.113 17.5326C191.276 17.5101 191.398 17.4038 191.457 17.3425C191.548 17.2464 191.585 17.1558 191.58 17.1249C191.575 17.084 191.464 17.0236 191.247 17.0236ZM192.067 23.8169C192.007 23.8169 191.948 23.8007 191.897 23.77C191.846 23.7392 191.804 23.6951 191.776 23.6423C191.748 23.5896 191.734 23.5301 191.737 23.4704C191.74 23.4107 191.76 23.3529 191.793 23.3033C192.496 22.2536 192.367 21.1832 192.243 20.1479C192.19 19.7069 192.135 19.2509 192.149 18.8132C192.164 18.3629 192.221 17.9914 192.276 17.6321C192.342 17.2064 192.404 16.8043 192.378 16.3269C192.376 16.2837 192.382 16.2404 192.396 16.1995C192.411 16.1586 192.433 16.121 192.462 16.0887C192.491 16.0565 192.526 16.0303 192.565 16.0115C192.604 15.9928 192.647 15.982 192.69 15.9797C192.733 15.9773 192.776 15.9835 192.817 15.9979C192.858 16.0123 192.896 16.0346 192.928 16.0636C192.96 16.0925 192.987 16.1275 193.005 16.1666C193.024 16.2057 193.035 16.2481 193.037 16.2914C193.066 16.837 192.996 17.2921 192.929 17.7324C192.876 18.0723 192.822 18.4237 192.809 18.8343C192.796 19.2219 192.846 19.6335 192.898 20.0691C193.031 21.1699 193.18 22.4176 192.342 23.6705C192.311 23.7156 192.27 23.7525 192.223 23.7781C192.175 23.8036 192.121 23.817 192.067 23.8169Z" fill="white"/>
</g>
</svg>
