<svg width="49" height="48" viewBox="0 0 49 48" fill="none" xmlns="http://www.w3.org/2000/svg">
<g id="Frame" clip-path="url(#clip0_106_228)">
<g id="Clip path group">
<mask id="mask0_106_228" style="mask-type:luminance" maskUnits="userSpaceOnUse" x="0" y="0" width="49" height="48">
<g id="clip0_1018_110880">
<path id="Vector" d="M48.2638 0.171875H0.607422V47.8278H48.2638V0.171875Z" fill="white"/>
</g>
</mask>
<g mask="url(#mask0_106_228)">
<g id="Group">
<path id="Vector_2" d="M18.6338 21.6335L33.7929 27.9112L33.434 28.857L17.9219 23.5122L18.6338 21.6335Z" fill="black"/>
<path id="Vector_3" d="M19.0526 22.5955L22.1887 38.7593L20.2052 39.0821L18.0537 22.7577L19.0526 22.5955Z" fill="black"/>
<path id="Vector_4" d="M34.6276 28.8534L21.4622 38.9647L20.8206 38.1811L33.356 27.2976L34.6276 28.8534Z" fill="black"/>
<path id="Vector_5" d="M37.6292 31.0487L17.4841 18.6424L18.6552 16.8354L38.2176 30.1388L37.6292 31.0487Z" fill="black"/>
<path id="Vector_6" d="M18.6128 17.7672L17.941 41.4142L15.791 41.3053L17.5305 17.7112L18.6128 17.7672Z" fill="black"/>
<path id="Vector_7" d="M16.6199 40.8789L37.4366 29.6365L38.4154 31.5526L17.1136 41.8433L16.6199 40.8789Z" fill="black"/>
<path id="Vector_8" d="M42.9224 36.1363L18.9309 11.2204L20.6116 9.65601L43.7678 35.3469L42.9224 36.1363Z" fill="black"/>
<path id="Vector_9" d="M20.4923 10.7906L10.9838 43.7884L8.78784 43.1152L19.3871 10.4519L20.4923 10.7906Z" fill="black"/>
<path id="Vector_10" d="M9.75781 42.8874L43.3611 34.5615L43.8778 36.7992L10.0176 44.0141L9.75781 42.8874Z" fill="black"/>
<path id="Vector_11" d="M19.2137 27.6277L23.7765 35.5317C24.0692 36.0397 24.8026 36.0397 25.0953 35.5317L29.6581 27.6277C29.9508 27.1197 29.5849 26.4854 28.9992 26.4854H19.8739C19.2884 26.4854 18.9194 27.1197 19.2137 27.6277ZM24.0333 32.8248L21.6852 28.7587C21.5058 28.4488 21.7298 28.0612 22.0886 28.0612H26.7846C27.142 28.0612 27.366 28.4488 27.188 28.7587L24.8399 32.8248C24.6605 33.1349 24.2127 33.1349 24.0333 32.8248Z" fill="black"/>
<path id="Vector_12" d="M23.6921 5.91296C21.4101 9.86276 5.11005 38.0797 3.25141 41.3348C3.039 41.8457 3.43082 42.4903 3.9877 42.5003C4.13696 42.5146 5.27654 42.5075 5.49469 42.5088C16.1471 42.5133 33.7777 42.5059 44.4587 42.5088C44.6251 42.5088 44.8721 42.5104 44.8835 42.5003C44.951 42.5059 45.0042 42.4787 45.0644 42.4758C45.528 42.3366 45.8078 41.7913 45.6198 41.3363C45.5753 41.2716 45.5941 41.2631 45.4734 41.065C40.0641 31.6871 32.2246 18.1226 26.8024 8.72604C26.4693 8.17489 25.5078 6.46409 25.1792 5.91439C24.8561 5.3532 24.0136 5.34604 23.6907 5.91439L23.6921 5.91296ZM21.4546 4.62124C22.4478 2.8688 24.836 2.36214 26.4621 3.55627C26.8512 3.84476 27.1725 4.21505 27.418 4.62124L27.9592 5.55845L29.0414 7.43287C33.8739 15.8032 41.5264 29.0577 46.359 37.4282L47.4411 39.3026C47.6234 39.6284 47.7914 39.8751 48.0125 40.3546C48.1874 40.8024 48.278 41.2861 48.2621 41.7697C48.2204 43.2293 47.1742 44.5684 45.7661 44.9602C45.3098 45.0894 44.7688 45.0952 44.4587 45.0894C33.7561 45.0765 16.1643 45.0995 5.49469 45.0894C4.76129 45.0636 3.91162 45.1727 3.10502 44.9589C1.16456 44.4178 0.0852607 42.2118 0.860293 40.3517C2.76773 36.9128 19.118 8.7002 21.4546 4.62124Z" fill="black"/>
<path id="Vector_13" d="M22.2944 6.16961C19.7957 11.9752 17.6486 18.7165 19.7555 24.9484C20.0612 25.8067 20.4416 26.6305 20.9124 27.4127L19.5503 28.2093C19.0393 27.3496 18.6103 26.4109 18.2787 25.458C16.3425 19.7714 17.785 13.63 19.8589 8.21913C20.2076 7.32641 20.5793 6.44516 20.9669 5.57397L22.2931 6.16816L22.2944 6.16961Z" fill="black"/>
<path id="Vector_14" d="M4.97266 43.586C11.2504 42.847 18.1625 41.337 22.5057 36.394C23.0954 35.7008 23.6193 34.9589 24.0615 34.1594L25.4321 34.9401C24.9426 35.8128 24.3442 36.6539 23.6853 37.4174C19.7283 41.9369 13.6903 43.7598 7.96657 44.6683C7.01932 44.8118 6.07062 44.9309 5.12192 45.0313L4.97266 43.586Z" fill="black"/>
<path id="Vector_15" d="M46.0392 39.8816C42.2602 34.8137 37.4966 29.5836 31.0451 28.2933C30.1495 28.1298 29.2453 28.0466 28.3325 28.0637L28.324 26.4865C29.3242 26.4736 30.3506 26.5711 31.3423 26.7605C37.234 27.9274 41.8325 32.2461 45.4809 36.7484C46.0793 37.4963 46.6563 38.2598 47.2175 39.0305L46.0392 39.8816Z" fill="black"/>
</g>
</g>
</g>
</g>
<defs>
<clipPath id="clip0_106_228">
<rect width="47.6562" height="47.6562" fill="white" transform="translate(0.607422 0.171875)"/>
</clipPath>
</defs>
</svg>
