<svg width="21" height="21" viewBox="0 0 21 21" fill="none" xmlns="http://www.w3.org/2000/svg">
<g id="icon/solid/database">
<g id="Union">
<path d="M18.0958 5.69816V5.2801L18.0954 5.24095C18.0504 3.3053 14.667 2.19214 10.4999 2.19214C6.33264 2.19214 2.94869 3.28954 2.90405 5.24095V5.69816H2.90779C2.9053 5.73033 2.90405 5.76276 2.90405 5.79548C2.90405 7.26545 5.60661 8.45709 10.4999 8.45709C15.3933 8.45709 18.0958 7.26545 18.0958 5.79548C18.0958 5.76277 18.0946 5.73033 18.092 5.69816H18.0958Z" fill="#8D98FB"/>
<path d="M2.90405 7.99445V10.96C2.90387 10.9669 2.90393 10.9739 2.90399 10.9809L2.90405 10.9914C2.90405 12.4596 5.60661 13.6498 10.4999 13.6498C15.3933 13.6498 18.0958 12.4596 18.0958 10.9914C18.0958 10.9809 18.0957 10.9704 18.0954 10.96L18.0958 7.99445H18.0436C17.6465 9.33289 14.9993 10.3662 10.4999 10.3662C6.00056 10.3662 3.35339 9.33289 2.95633 7.99445H2.90405Z" fill="#8D98FB"/>
<path d="M2.90405 12.8969V15.8779H2.90762C3.01854 17.5338 5.70939 18.8588 10.4999 18.8588C15.2905 18.8588 17.9813 17.5338 18.0923 15.8779H18.0958V12.8969C18.0958 14.4937 15.3933 15.7881 10.4999 15.7881C5.60661 15.7881 2.90405 14.4937 2.90405 12.8969Z" fill="#8D98FB"/>
</g>
</g>
</svg>
