<svg width="20" height="20" viewBox="0 0 20 20" fill="none" xmlns="http://www.w3.org/2000/svg">
<path d="M17.596 5.17277V4.75471L17.5955 4.71556C17.5505 2.77991 14.1671 1.66675 10.0001 1.66675C5.83276 1.66675 2.44882 2.76415 2.40417 4.71556V5.17277H2.40791C2.40542 5.20493 2.40417 5.23737 2.40417 5.27009C2.40417 6.74006 5.10674 7.9317 10.0001 7.9317C14.8934 7.9317 17.596 6.74006 17.596 5.27009C17.596 5.23738 17.5947 5.20494 17.5922 5.17277H17.596Z" fill="#B1BCCE"/>
<path d="M2.40417 7.46906V10.4346C2.404 10.4415 2.40405 10.4485 2.40411 10.4555L2.40417 10.466C2.40417 11.9342 5.10674 13.1244 10.0001 13.1244C14.8934 13.1244 17.596 11.9342 17.596 10.466C17.596 10.4555 17.5958 10.445 17.5956 10.4346L17.596 7.46906H17.5437C17.1466 8.8075 14.4994 9.84083 10.0001 9.84083C5.50068 9.84083 2.85352 8.8075 2.45645 7.46906H2.40417Z" fill="#B1BCCE"/>
<path d="M2.40417 12.3716V15.3525H2.40774C2.51867 17.0084 5.20952 18.3334 10.0001 18.3334C14.7906 18.3334 17.4815 17.0084 17.5924 15.3525H17.596V12.3716C17.596 13.9683 14.8934 15.2627 10.0001 15.2627C5.10674 15.2627 2.40417 13.9683 2.40417 12.3716Z" fill="#B1BCCE"/>
</svg>
