<?xml version="1.0" standalone="no"?>
<!DOCTYPE svg PUBLIC "-//W3C//DTD SVG 20010904//EN"
 "http://www.w3.org/TR/2001/REC-SVG-20010904/DTD/svg10.dtd">
<svg version="1.0" xmlns="http://www.w3.org/2000/svg"
 width="348.000000pt" height="348.000000pt" viewBox="0 0 348.000000 348.000000"
 preserveAspectRatio="xMidYMid meet">

<g transform="translate(0.000000,348.000000) scale(0.100000,-0.100000)"
fill="#000000" stroke="none">
<path d="M1665 3023 c-16 -9 -163 -93 -325 -188 -162 -94 -359 -209 -437 -254
-140 -81 -188 -121 -198 -164 -3 -12 -4 -272 -3 -577 3 -640 -6 -586 109 -651
35 -20 203 -117 374 -216 171 -99 371 -215 445 -258 74 -43 205 -119 290 -168
85 -49 159 -93 165 -98 5 -5 12 -9 15 -9 3 0 6 92 5 204 0 229 -2 223 79 269
144 83 478 278 513 300 76 48 73 18 73 648 0 653 9 599 -113 670 -40 23 -128
74 -197 114 -69 39 -219 127 -333 193 -320 187 -349 202 -393 202 -21 -1 -52
-8 -69 -17z m-96 -676 c39 -24 74 -93 69 -139 -3 -30 1 -33 199 -149 l203
-118 35 21 c87 51 199 4 226 -94 21 -80 -27 -164 -109 -189 -56 -16 -106 -1
-152 46 -29 30 -34 43 -38 95 -4 58 -6 60 -46 83 -22 13 -112 65 -199 115
l-159 92 -31 -22 c-42 -30 -125 -31 -164 -2 -46 35 -73 82 -73 131 0 73 36
124 107 148 45 16 85 10 132 -18z m426 -638 c20 -12 33 -25 28 -29 -4 -4 -92
-55 -194 -114 l-187 -107 -4 -50 c-12 -118 -128 -184 -228 -128 -106 60 -104
222 4 273 50 24 107 20 149 -8 l36 -25 178 104 c98 57 179 104 180 105 1 0 18
-10 38 -21z"/>
</g>
</svg>
