<svg width="21" height="21" viewBox="0 0 21 21" fill="none" xmlns="http://www.w3.org/2000/svg">
<g id="icon/solid/params">
<path id="Subtract" fill-rule="evenodd" clip-rule="evenodd" d="M5.49996 2.19214C3.65901 2.19214 2.16663 3.68452 2.16663 5.52547V15.5255C2.16663 17.3664 3.65901 18.8588 5.49996 18.8588H15.5C17.3409 18.8588 18.8333 17.3664 18.8333 15.5255V5.52547C18.8333 3.68452 17.3409 2.19214 15.5 2.19214H5.49996ZM9.99497 6.85879H15.6026C16.0169 6.85879 16.3526 7.19457 16.3526 7.60879C16.3526 8.023 16.0169 8.35879 15.6026 8.35879H9.99498C9.70308 9.04461 9.023 9.52546 8.23061 9.52546C7.43821 9.52546 6.75813 9.04461 6.46623 8.35879H5.39727C4.98306 8.35879 4.64727 8.023 4.64727 7.60879C4.64727 7.19457 4.98306 6.85879 5.39727 6.85879H6.46624C6.75814 6.17297 7.43822 5.69212 8.23061 5.69212C9.02299 5.69212 9.70308 6.17297 9.99497 6.85879ZM11.0049 12.6921H5.39727C4.98306 12.6921 4.64727 13.0279 4.64727 13.4421C4.64727 13.8563 4.98306 14.1921 5.39727 14.1921H11.0049C11.2968 14.8779 11.9769 15.3588 12.7693 15.3588C13.5617 15.3588 14.2418 14.8779 14.5337 14.1921H15.6026C16.0169 14.1921 16.3526 13.8563 16.3526 13.4421C16.3526 13.0279 16.0169 12.6921 15.6026 12.6921H14.5337C14.2418 12.0063 13.5617 11.5255 12.7693 11.5255C11.9769 11.5255 11.2968 12.0063 11.0049 12.6921Z" fill="#BE8AFF"/>
</g>
</svg>
