<svg width="17" height="16" viewBox="0 0 17 16" fill="none" xmlns="http://www.w3.org/2000/svg">
<g id="icon/line/project">
<path id="Vector" fill-rule="evenodd" clip-rule="evenodd" d="M9.35098 13.6872L4.10125 11.4998V4.50018L9.35098 2.3128V13.6872ZM3.32692 12.5988C3.16754 12.5323 3.0314 12.4201 2.93565 12.2764C2.83989 12.1327 2.7888 11.9639 2.78882 11.7912V4.20882C2.7888 4.03613 2.83989 3.8673 2.93565 3.72359C3.0314 3.57989 3.16754 3.46772 3.32692 3.40124L8.84613 1.10098C9.0456 1.01786 9.26251 0.985273 9.4776 1.00612C9.6927 1.02697 9.89931 1.10061 10.0791 1.2205C10.2589 1.34039 10.4063 1.50283 10.5082 1.69338C10.6102 1.88393 10.6635 2.0967 10.6634 2.3128V2.75027H11.7571C12.6023 2.75027 13.2883 3.43536 13.2883 4.28144V11.7186C13.2883 12.1246 13.127 12.5141 12.8398 12.8013C12.5527 13.0884 12.1632 13.2497 11.7571 13.2497H10.6634V13.6872C10.6635 13.9033 10.6102 14.1161 10.5082 14.3066C10.4063 14.4972 10.2589 14.6596 10.0791 14.7795C9.89931 14.8994 9.6927 14.973 9.4776 14.9939C9.26251 15.0147 9.0456 14.9821 8.84613 14.899L3.32692 12.5988ZM10.6634 11.9373H11.7571C11.8151 11.9373 11.8708 11.9142 11.9118 11.8732C11.9528 11.8322 11.9758 11.7766 11.9758 11.7186V4.28144C11.9758 4.22343 11.9528 4.16779 11.9118 4.12677C11.8708 4.08575 11.8151 4.06271 11.7571 4.06271H10.6634V11.9373Z" fill="#667085"/>
</g>
</svg>
