<svg width="20" height="20" viewBox="0 0 20 20" fill="none" xmlns="http://www.w3.org/2000/svg">
<g id="icon/solid/robot">
<path id="Vector" d="M14.2734 5.04187H15.2084C16.9343 5.04187 18.3334 6.44098 18.3334 8.16684V12.3335C18.3334 14.0593 16.9343 15.4584 15.2084 15.4584H4.79175C3.06587 15.4584 1.66675 14.0593 1.66675 12.3335V8.16684C1.66675 6.44098 3.06587 5.04187 4.79175 5.04187H5.72675L5.34617 2.75852C5.26104 2.24781 5.60608 1.76477 6.11679 1.67965C6.6275 1.59453 7.11054 1.93956 7.19567 2.45027L7.61233 4.95025C7.61746 4.98091 7.621 5.0115 7.62308 5.04187H12.3771C12.3792 5.01145 12.3827 4.98091 12.3878 4.95025L12.8045 2.45027C12.8896 1.93956 13.3727 1.59453 13.8834 1.67965C14.3941 1.76477 14.7391 2.24781 14.654 2.75852L14.2734 5.04187ZM5.75008 9.41683V10.2502C5.75008 10.7679 6.16983 11.1876 6.68758 11.1876C7.20533 11.1876 7.62508 10.7679 7.62508 10.2502V9.41683C7.62508 8.89909 7.20533 8.47934 6.68758 8.47934C6.16983 8.47934 5.75008 8.89909 5.75008 9.41683ZM12.3751 9.41683V10.2502C12.3751 10.7679 12.7948 11.1876 13.3126 11.1876C13.8303 11.1876 14.2501 10.7679 14.2501 10.2502V9.41683C14.2501 8.89909 13.8303 8.47934 13.3126 8.47934C12.7948 8.47934 12.3751 8.89909 12.3751 9.41683ZM5.83342 18.3334C5.31567 18.3334 4.89592 17.9137 4.89592 17.3959C4.89592 16.8782 5.31567 16.4584 5.83342 16.4584H14.1667C14.6845 16.4584 15.1042 16.8782 15.1042 17.3959C15.1042 17.9137 14.6845 18.3334 14.1667 18.3334H5.83342Z" fill="#B1BCCE"/>
</g>
</svg>
