<svg width="21" height="21" viewBox="0 0 21 21" fill="none" xmlns="http://www.w3.org/2000/svg">
<g id="icon/solid/running">
<g id="Union">
<path d="M4.31555 10.5792C4.31555 7.15582 7.09075 4.38062 10.5141 4.38062C12.2279 4.38062 13.9823 5.12281 15.1749 6.45294C16.3401 7.75251 17.0208 9.67064 16.5157 12.1734C16.3791 12.8501 16.817 13.5094 17.4937 13.646C18.1704 13.7826 18.8297 13.3447 18.9663 12.668C19.6222 9.41833 18.7464 6.69142 17.0363 4.78405C15.3536 2.90724 12.9141 1.88062 10.5141 1.88062C5.71004 1.88062 1.81555 5.7751 1.81555 10.5792C1.81555 12.4574 2.57258 14.9206 4.20236 16.6527C3.68374 16.6885 3.27349 17.1198 3.27216 17.6478C3.27077 18.2001 3.71736 18.6489 4.26964 18.6503L7.35674 18.6581C7.73978 18.659 8.07306 18.4445 8.24181 18.1287C8.33581 17.9766 8.39017 17.7973 8.39047 17.6054L8.39527 14.4828C8.39612 13.9305 7.9491 13.4821 7.39681 13.4813C6.84453 13.4804 6.39612 13.9274 6.39528 14.4797L6.39402 15.2925C5.05706 14.1467 4.31555 12.1324 4.31555 10.5792Z" fill="#00CFA9"/>
<path d="M17.8336 15.6808C17.8336 16.4632 17.1993 17.0975 16.4169 17.0975C15.6345 17.0975 15.0003 16.4632 15.0003 15.6808C15.0003 14.8984 15.6345 14.2641 16.4169 14.2641C17.1993 14.2641 17.8336 14.8984 17.8336 15.6808Z" fill="#00CFA9"/>
<path d="M13.4617 19.1702C14.2441 19.1702 14.8783 18.5359 14.8783 17.7535C14.8783 16.9711 14.2441 16.3369 13.4617 16.3369C12.6793 16.3369 12.045 16.9711 12.045 17.7535C12.045 18.5359 12.6793 19.1702 13.4617 19.1702Z" fill="#00CFA9"/>
</g>
</g>
</svg>
