<svg width="40" height="40" viewBox="0 0 40 40" fill="none" xmlns="http://www.w3.org/2000/svg">
<path d="M8.66382 18.7558C10.946 22.0925 15.6677 21.7964 15.6677 21.7964C14.4872 20.6512 13.72 19.6048 13.6413 16.6235C13.5626 13.6421 11.8706 12.8524 11.8706 12.8524C14.9004 10.9372 13.8183 8.86413 13.72 6.5541C13.6609 5.1128 14.5069 4.04663 15.1758 3.43457C11.3258 4.01333 7.84697 6.06107 5.46455 9.15087C3.08213 12.2407 1.97999 16.1341 2.38791 20.0194C2.66334 19.2494 6.55873 15.6758 8.66382 18.7558Z" fill="url(#paint0_linear_2753_3969)"/>
<path d="M36.6199 12.8132C36.5181 12.4887 36.3932 12.172 36.2461 11.8655V11.8458C35.5595 10.4439 34.4211 9.31591 33.0155 8.64481C31.61 7.97371 30.0197 7.79885 28.5027 8.1486C26.9857 8.49835 25.6309 9.35218 24.6581 10.5716C23.6853 11.791 23.1516 13.3045 23.1434 14.8666C23.1435 15.3579 23.1963 15.8477 23.3008 16.3276C23.3013 16.3342 23.3013 16.3408 23.3008 16.3474C23.3402 16.5448 23.3992 16.7422 23.4582 16.9397C23.8093 18.3305 23.8777 19.7781 23.6591 21.196C23.4405 22.614 22.9396 23.9732 22.1861 25.1925C21.4326 26.4119 20.442 27.4664 19.2735 28.2931C18.105 29.1199 16.7825 29.7019 15.385 30.0044C13.9874 30.3069 12.5435 30.3238 11.1393 30.054C9.73507 29.7842 8.39944 29.2332 7.21208 28.434C6.02472 27.6348 5.00998 26.6037 4.22841 25.4023C3.44684 24.2009 2.91448 22.8537 2.66309 21.4413C3.01858 23.8896 3.88245 26.2358 5.19876 28.3278C6.51507 30.4199 8.25448 32.2112 10.3044 33.5859C12.3543 34.9605 14.669 35.8878 17.0987 36.3077C19.5283 36.7276 22.0188 36.6308 24.4088 36.0235C26.7988 35.4162 29.0351 34.312 30.9729 32.7824C32.9107 31.2527 34.5068 29.3318 35.658 27.1438C36.8091 24.9558 37.4895 22.5496 37.6552 20.081C37.8209 17.6124 37.4682 15.1364 36.6199 12.8132Z" fill="url(#paint1_linear_2753_3969)"/>
<path fill-rule="evenodd" clip-rule="evenodd" d="M33.6884 17.5715C33.6884 26.1749 26.7387 33.1494 18.1658 33.1494C13.6151 33.1494 9.52186 31.1842 6.68262 28.0534C6.85505 28.1855 7.0317 28.3124 7.21235 28.434C8.39971 29.2332 9.73534 29.7842 11.1395 30.054C12.5437 30.3238 13.9877 30.3069 15.3852 30.0044C16.7828 29.7019 18.1053 29.1199 19.2738 28.2931C20.4423 27.4664 21.4329 26.4119 22.1863 25.1925C22.9398 23.9732 23.4408 22.614 23.6594 21.1961C23.878 19.7781 23.8096 18.3305 23.4585 16.9397C23.3995 16.7423 23.3404 16.5448 23.3011 16.3474C23.3016 16.3408 23.3016 16.3342 23.3011 16.3276C23.1966 15.8477 23.1438 15.3579 23.1437 14.8666C23.1518 13.3045 23.6856 11.791 24.6584 10.5716C25.6312 9.35218 26.986 8.49835 28.503 8.1486C29.1286 8.00435 29.7668 7.94934 30.3992 7.98158C32.4601 10.6255 33.6884 13.9545 33.6884 17.5715Z" fill="url(#paint2_linear_2753_3969)"/>
<defs>
<linearGradient id="paint0_linear_2753_3969" x1="13.0507" y1="1.35891" x2="-1.84256" y2="24.7586" gradientUnits="userSpaceOnUse">
<stop stop-color="#0AA3F9"/>
<stop offset="1" stop-color="#B5B4FF"/>
</linearGradient>
<linearGradient id="paint1_linear_2753_3969" x1="42.9072" y1="37.3635" x2="19.1446" y2="7.06378" gradientUnits="userSpaceOnUse">
<stop stop-color="#0AA3F9"/>
<stop offset="1" stop-color="#B5B4FF"/>
</linearGradient>
<linearGradient id="paint2_linear_2753_3969" x1="29.5519" y1="7.97895" x2="7.59406" y2="30.3352" gradientUnits="userSpaceOnUse">
<stop stop-color="#7ABBFD"/>
<stop offset="1" stop-color="#7ABBFD" stop-opacity="0"/>
</linearGradient>
</defs>
</svg>
