<svg width="20" height="20" viewBox="0 0 20 20" fill="none" xmlns="http://www.w3.org/2000/svg">
 <path fill="var(--primary-color)" />
  <circle stroke="var(--secondary-color)" />
<g id="icon/solid/toolkit">
<g id="Vector">
<path d="M8.96208 3.33317H11.2335C11.9698 3.33317 12.5668 3.93013 12.5668 4.6665V4.94857H14.1665C14.189 4.94857 14.2113 4.94857 14.2335 4.94857V4.6665C14.2335 3.00965 12.8903 1.6665 11.2335 1.6665H8.96208C7.30522 1.6665 5.96208 3.00965 5.96208 4.6665V4.94857H7.62874V4.6665C7.62874 3.93012 8.2257 3.33317 8.96208 3.33317Z" fill="#B1BCCE"/>
<path d="M18.6966 8.54799H1.30328C1.31483 7.55689 1.36761 6.96908 1.60886 6.49559C1.8805 5.96247 2.31395 5.52902 2.84708 5.25738C3.45316 4.94857 4.24657 4.94857 5.83338 4.94857H14.1665C15.7534 4.94857 16.5468 4.94857 17.1529 5.25738C17.686 5.52902 18.1194 5.96247 18.3911 6.49559C18.6323 6.96908 18.6851 7.55689 18.6966 8.54799Z" fill="#B1BCCE"/>
<path d="M12.1963 10.0313H18.6999V13.7999C18.6999 15.3867 18.6999 16.1801 18.3911 16.7862C18.1194 17.3193 17.686 17.7528 17.1529 18.0244C16.5468 18.3332 15.7534 18.3332 14.1665 18.3332H5.83338C4.24657 18.3332 3.45316 18.3332 2.84708 18.0244C2.31395 17.7528 1.8805 17.3193 1.60886 16.7862C1.30005 16.1801 1.30005 15.3867 1.30005 13.7999V10.0313H7.80364V12.7688C7.80364 13.0449 8.02749 13.2688 8.30364 13.2688H11.6963C11.9724 13.2688 12.1963 13.0449 12.1963 12.7688V10.0313Z" fill="#B1BCCE"/>
<path d="M9.13697 10.0313H10.863V11.9355H9.13697V10.0313Z" fill="#B1BCCE"/>
</g>
</g>
</svg>
