<svg width="32" height="32" viewBox="0 0 32 32" fill="none" xmlns="http://www.w3.org/2000/svg">
<g id="icon/solid/safety">
<path id="Subtract" fill-rule="evenodd" clip-rule="evenodd" d="M4.62612 5.7549C4.25147 5.88394 4 6.23653 4 6.63279V17.8453C4 24.4727 9.37258 29.8453 16 29.8453C22.6274 29.8453 28 24.4727 28 17.8453V6.63395C28 6.23713 27.7478 5.88418 27.3724 5.75559L17.6997 2.44244C16.5765 2.05773 15.3571 2.05877 14.2346 2.4454L4.62612 5.7549ZM22.8831 11.9429C23.4038 12.4636 23.4038 13.3079 22.8831 13.8286L16.1104 20.6013C16.0969 20.6147 16.0833 20.6278 16.0694 20.6406C15.5465 21.1264 14.7286 21.1148 14.2197 20.6059L10.2094 16.5956C9.68872 16.0749 9.68872 15.2307 10.2094 14.71C10.7301 14.1893 11.5743 14.1893 12.095 14.71L15.1627 17.7777L20.9975 11.9429C21.5182 11.4222 22.3624 11.4222 22.8831 11.9429Z" fill="#39DBD0"/>
</g>
</svg>
