<svg width="42" height="42" viewBox="0 0 42 42" fill="none" xmlns="http://www.w3.org/2000/svg">
<g id="Frame">
<path id="Vector" d="M10.143 14.7V27.216L20.895 33.516L31.752 27.3V14.784L21 8.48401L10.143 14.7ZM29.757 26.082L20.916 31.164L12.159 26.082V15.918L21 10.857L29.757 15.939V26.082Z" fill="#1BC29E"/>
<path id="Vector_2" d="M25.032 8.56804L24.948 6.72004L20.916 4.36804L16.884 6.74104V8.67304L21 6.30004L25.032 8.56804ZM16.884 33.432L16.968 35.28L21 37.632L25.032 35.28V33.348L20.916 35.7L16.884 33.432ZM8.23201 23.457L6.48901 24.507V29.148L10.584 31.5L12.243 30.534L8.21101 28.182L8.23201 23.457ZM8.23201 13.65L12.264 11.277L10.605 10.311L6.57301 12.684V17.325L8.31601 18.375L8.23201 13.65ZM33.768 23.625L33.852 28.35L29.82 30.702L31.479 31.668L35.511 29.316V24.759L33.768 23.625ZM33.768 18.375L35.427 17.325L35.511 12.768L31.395 10.311L29.736 11.277L33.768 13.734V18.375ZM14.343 24.675L20.37 28.266V21.441L14.343 18.207V24.675ZM21.525 28.266L27.573 24.948V18.207L21.525 21.441V28.266ZM14.616 17.052L20.916 20.454L27.3 17.241L20.832 13.734L14.616 17.052Z" fill="#1BC29E"/>
</g>
</svg>
