<svg width="42" height="42" viewBox="0 0 42 42" fill="none" xmlns="http://www.w3.org/2000/svg">
<g id="Frame">
<path id="Vector" d="M28.9144 11.4537L28.9607 13.2772C29.554 13.2973 30.0186 13.391 30.5637 13.5397C30.9881 14.2459 31.5262 15.5654 31.8762 17.3215H29.0281V17.745H31.9646C32.0924 18.5666 32.1799 19.5624 32.2009 20.6115H29.0281V21.0359H32.2C32.1914 21.9959 32.1125 22.9539 31.9638 23.9024H29.0281V24.3267H31.8631C31.5131 26.096 30.968 27.4216 30.5436 28.1155C29.9985 28.2555 29.54 28.35 28.9546 28.3701L28.9074 30.1945C33.971 30.0457 37.9776 25.907 37.9776 20.8145C37.9776 15.7263 33.971 11.5885 28.9144 11.4537ZM36.1462 20.6054H32.76C32.7498 19.6458 32.6732 18.688 32.5307 17.7389H35.5005C35.8846 18.5999 36.1069 19.6096 36.148 20.6054H36.1462ZM31.2506 13.7542C32.9481 14.3876 34.3481 15.7535 35.217 17.3154H32.4292C32.1265 15.7334 31.6479 14.4751 31.2506 13.7542ZM31.2375 27.8863C31.6409 27.174 32.1195 25.9219 32.4292 24.3206H35.21C34.342 25.8817 32.9411 27.2545 31.2375 27.8872V27.8863ZM32.5237 23.8963C32.6515 23.0755 32.746 22.0868 32.7591 21.0298H36.1533C36.1149 22.0197 35.8861 22.9929 35.4795 23.8963H32.5237ZM26.5702 28.0875C27.1162 28.2423 27.9641 28.3237 28.5565 28.35V24.3197H25.2639C25.6077 26.0759 26.1529 27.3945 26.5702 28.0875ZM25.1632 23.8962H28.5574V21.0288H24.9279C24.9429 21.9885 25.0215 22.9461 25.1632 23.8953V23.8962ZM24.927 20.6054H28.5574V17.7388H25.1632C25.0146 18.6873 24.9356 19.6453 24.927 20.6053V20.6054ZM19.2238 20.8136C19.2238 15.6389 23.4798 11.4397 28.658 11.4397C28.7455 11.4397 28.8269 11.4467 28.9144 11.4467V5.63232L16.975 7.49607V34.1311L28.9012 35.9949L28.9144 30.1805C28.8269 30.1805 28.7455 30.1875 28.658 30.1875C23.4798 30.1875 19.2237 25.9884 19.2237 20.8136L19.2238 20.8136ZM24.3688 21.0288H21.0551C21.0977 22.0174 21.3238 22.9895 21.7219 23.8953H24.6041C24.4588 22.9465 24.3798 21.9887 24.3679 21.0288H24.3688ZM25.2507 17.2813H28.5574V13.2702C27.958 13.2964 27.1092 13.3918 26.5571 13.5458C26.1327 14.2528 25.5946 15.5321 25.2508 17.2812L25.2507 17.2813ZM24.598 17.7389H21.7087C21.3129 18.6452 21.0892 19.6172 21.049 20.6054H24.3618C24.3819 19.5554 24.4694 18.5596 24.598 17.7389ZM21.9983 24.3188C22.8471 25.8606 24.2138 27.2195 25.8833 27.8591C25.4861 27.146 25.0153 25.9009 24.7056 24.3197H21.9975L21.9983 24.3188ZM25.8632 13.7751C24.2068 14.4209 22.8471 15.7403 21.9913 17.2812H24.6916C25.0013 15.7132 25.4659 14.5013 25.8641 13.7751H25.8632ZM7.938 29.4813H9.45964V28.007H7.93623V29.4805L7.938 29.4813ZM4.98139 29.4813H6.41636V28.007H4.98139V29.4805V29.4813ZM11.4258 27.1661L12.2675 28.007H10.9209V29.4805H12.2684L11.5203 30.5567L12.3952 31.2042L14.644 28.6326L12.3016 26.2911L11.4266 27.1661H11.4258ZM7.97126 20.5441H6.48375V21.9572H7.97126V20.545V20.5441ZM3.49998 21.9572H4.94111V20.5449H3.49998V21.9581V21.9572ZM10.7861 18.6602L12.7662 20.544H9.39225V21.9572H12.7662L10.7861 23.8419L11.655 24.7099L15.1095 21.258L11.655 17.8053L10.7861 18.6602ZM7.97122 13.1022H5.02248V14.6028H7.97126V13.1022H7.97122ZM11.5404 15.3833L12.4092 16.2513L14.8068 13.8556L12.4092 11.4598L11.5404 12.3278L12.4565 13.1022H9.47973V14.6028H12.4565L11.5404 15.3833L11.5404 15.3833Z" fill="#FF6892"/>
</g>
</svg>
