<svg width="42" height="42" viewBox="0 0 42 42" fill="none" xmlns="http://www.w3.org/2000/svg">
<g id="Frame">
<path id="Vector" d="M21.1267 9.6764C18.4387 9.99561 16.6494 10.6844 14.8181 12.1041C12.8105 13.6581 11.4496 16.0354 10.954 18.8579C10.7608 19.9248 10.7608 22.2264 10.9456 23.2681C11.164 24.4861 11.4832 25.4774 11.9704 26.4602C13.5161 29.5767 16.4562 31.5844 20.3539 32.1892C21.5048 32.3656 23.9576 32.3824 25.1169 32.2228C26.8641 31.9792 29.1406 31.2568 30.6191 30.4671L31.2071 30.1563L31.2323 24.7969L31.2491 19.4459H22.7648V19.8408C22.7648 20.0676 22.706 20.8488 22.6388 21.588C22.5716 22.3272 22.5128 22.9825 22.5128 23.0329C22.5128 23.1169 23.0168 23.1421 24.7389 23.1421H26.965V27.7706L26.6541 27.905C26.4777 27.9722 25.9737 28.1319 25.5369 28.2495C24.7977 28.4511 24.6045 28.4679 22.8908 28.4679C20.9167 28.4763 20.5891 28.4259 19.4719 27.9806C16.5654 26.8046 14.8853 23.5957 15.2885 19.9752C15.6414 16.7326 17.3886 14.557 20.2867 13.7169C20.8831 13.5489 21.1351 13.5237 22.5128 13.5237C23.8148 13.5321 24.1845 13.5573 24.7809 13.7085C25.7385 13.9522 26.7381 14.3806 27.469 14.8678L28.0738 15.271L29.4766 13.8681L30.8711 12.4653L30.6191 12.2553C28.5526 10.5248 25.6125 9.5924 22.37 9.626C21.824 9.6344 21.2696 9.6596 21.1267 9.6764Z" fill="black"/>
</g>
</svg>
