<svg width="32" height="32" viewBox="0 0 32 32" fill="none" xmlns="http://www.w3.org/2000/svg">
<g id="icon/solid/zone">
<path id="Subtract" fill-rule="evenodd" clip-rule="evenodd" d="M29.8969 17.3334C30.3732 16.5083 30.3732 15.4918 29.8969 14.6667L24.1031 4.63167C23.6268 3.8066 22.7464 3.29834 21.7937 3.29834H10.2062C9.25354 3.29834 8.3732 3.8066 7.89685 4.63167L2.10312 14.6667C1.62676 15.4918 1.62676 16.5083 2.10312 17.3334L7.89685 27.3684C8.3732 28.1935 9.25354 28.7018 10.2062 28.7018H21.7937C22.7464 28.7018 23.6268 28.1935 24.1031 27.3684L29.8969 17.3334ZM20.7723 16.6667C21.0105 16.2542 21.0105 15.7459 20.7723 15.3334L18.9635 12.2004C18.7253 11.7879 18.2851 11.5338 17.8088 11.5338H14.1912C13.7148 11.5338 13.2746 11.7879 13.0365 12.2004L11.2276 15.3334C10.9895 15.7459 10.9895 16.2542 11.2276 16.6667L13.0365 19.7997C13.2746 20.2122 13.7148 20.4663 14.1912 20.4663H17.8088C18.2851 20.4663 18.7253 20.2122 18.9635 19.7997L20.7723 16.6667Z" fill="#6A8FFF"/>
</g>
</svg>
