<svg width="98" height="93" viewBox="0 0 98 93" fill="none" xmlns="http://www.w3.org/2000/svg">
<path d="M54.7009 52.7639C58.825 51.2068 74.9875 43.4484 75.7028 17.291C75.7333 16.1766 75.1518 15.1234 74.2053 14.5345C61.6816 6.74192 45.8182 6.74192 33.2944 14.5345C32.3479 15.1234 31.7665 16.1766 31.797 17.291C32.5123 43.4484 48.6748 51.2068 52.7989 52.7639C53.4146 52.9963 54.0852 52.9963 54.7009 52.7639Z" fill="url(#paint0_linear_3366_7027)"/>
<path d="M31.942 23.6969L29.955 24.8323C28.8137 25.4845 28.101 26.7153 28.1444 28.029C29.08 56.3847 48.5103 64.4548 52.8816 65.9146C53.4565 66.1066 54.0428 66.1066 54.6178 65.9146C58.989 64.4548 78.4194 56.3847 79.355 28.029C79.3984 26.7153 78.6857 25.4845 77.5444 24.8323L75.5574 23.6969C62.0443 15.9751 45.4551 15.9751 31.942 23.6969Z" fill="url(#paint1_linear_3366_7027)"/>
<path d="M51.8147 44.0816C51.842 44.109 51.8791 44.1243 51.9177 44.1243C51.9563 44.1243 51.9934 44.109 52.0207 44.0816L62.8983 33.204C63.9143 32.1881 65.5615 32.1881 66.5774 33.204C67.5933 34.22 67.5933 35.8671 66.5774 36.8831L53.7572 49.7033C53.2694 50.1911 52.6077 50.4652 51.9177 50.4652C51.2277 50.4652 50.566 50.1911 50.0782 49.7033L42.7524 42.3774C41.7364 41.3615 41.7364 39.7143 42.7524 38.6984C43.7683 37.6824 45.4155 37.6824 46.4314 38.6984L51.8147 44.0816Z" fill="url(#paint2_linear_3366_7027)" fill-opacity="0.9" stroke="url(#paint3_linear_3366_7027)" stroke-width="0.291372" stroke-linecap="round" stroke-linejoin="round"/>
<ellipse cx="54.6655" cy="79.5439" rx="27.5961" ry="4.45599" fill="#D5EBFF"/>
<path d="M7.03506 33.7765C7.2084 33.3647 7.79182 33.3647 7.96516 33.7765L9.56143 37.568C9.61258 37.6894 9.70922 37.7861 9.83069 37.8372L13.6222 39.4335C14.0339 39.6068 14.0339 40.1903 13.6222 40.3636L9.83069 41.9599C9.70922 42.011 9.61258 42.1077 9.56143 42.2291L7.96516 46.0206C7.79182 46.4323 7.2084 46.4323 7.03505 46.0206L5.43878 42.2291C5.38764 42.1077 5.291 42.011 5.16952 41.9599L1.37804 40.3636C0.96631 40.1903 0.966311 39.6068 1.37804 39.4335L5.16952 37.8372C5.291 37.7861 5.38764 37.6894 5.43878 37.568L7.03506 33.7765Z" fill="#D5EBFF"/>
<path d="M90.3319 1.4005C90.5053 0.988771 91.0887 0.988772 91.262 1.4005L92.8583 5.19198C92.9095 5.31346 93.0061 5.4101 93.1276 5.46124L96.9191 7.05752C97.3308 7.23086 97.3308 7.81428 96.9191 7.98762L93.1276 9.5839C93.0061 9.63504 92.9095 9.73168 92.8583 9.85315L91.262 13.6446C91.0887 14.0564 90.5053 14.0564 90.3319 13.6446L88.7357 9.85315C88.6845 9.73168 88.5879 9.63504 88.4664 9.58389L84.6749 7.98762C84.2632 7.81428 84.2632 7.23086 84.6749 7.05752L88.4664 5.46124C88.5879 5.4101 88.6845 5.31346 88.7357 5.19198L90.3319 1.4005Z" fill="#D5EBFF"/>
<defs>
<linearGradient id="paint0_linear_3366_7027" x1="41.5482" y1="20.0287" x2="89.311" y2="55.9756" gradientUnits="userSpaceOnUse">
<stop stop-color="#D5EBFF"/>
<stop offset="1" stop-color="#76C6FF"/>
</linearGradient>
<linearGradient id="paint1_linear_3366_7027" x1="53.7497" y1="11.2354" x2="53.7497" y2="66.1789" gradientUnits="userSpaceOnUse">
<stop stop-color="#76C6FF"/>
<stop offset="1" stop-color="#D7EEFF"/>
</linearGradient>
<linearGradient id="paint2_linear_3366_7027" x1="45.8516" y1="39.2792" x2="85.9153" y2="44.014" gradientUnits="userSpaceOnUse">
<stop stop-color="white"/>
<stop offset="1" stop-color="white" stop-opacity="0"/>
</linearGradient>
<linearGradient id="paint3_linear_3366_7027" x1="42.5737" y1="34.9087" x2="58.9634" y2="40.3719" gradientUnits="userSpaceOnUse">
<stop stop-color="white"/>
<stop offset="1" stop-color="white" stop-opacity="0"/>
</linearGradient>
</defs>
</svg>
