<svg width="96" height="100" viewBox="0 0 96 100" fill="none" xmlns="http://www.w3.org/2000/svg">
<ellipse cx="58.2545" cy="86.9838" rx="28.8824" ry="5.01599" fill="#D5EBFF"/>
<path d="M26.7272 53.6091C26.4137 57.1181 26.9369 60.7141 28.3835 64.1007C31.2433 70.7906 35.1145 77.2041 38.6782 83.5926C39.1347 84.4076 40.0262 84.9148 40.9902 84.9148H47.6846C49.1295 84.9148 50.3057 83.7926 50.3057 82.4136V79.3538C52.5882 79.7698 54.9037 79.978 57.2238 79.9761C58.7364 79.9761 60.2104 79.8904 61.6638 79.7185L63.3479 83.4134C63.7677 84.3219 64.7111 84.9144 65.752 84.9144H72.4758C73.9207 84.9144 75.0968 83.7922 75.0968 82.4136V75.4009C80.5769 72.2775 84.7323 67.7461 86.7396 62.4641L91.5382 60.0757C92.2804 59.7038 92.7436 58.9761 92.7436 58.1743V50.2563C92.7436 49.0705 91.7326 48.1045 90.4905 48.113L86.7915 48.1271C85.3618 44.3025 82.816 40.8724 79.4462 38.0702L82.4795 32.1374C83.1593 30.7942 82.2384 29.2072 80.6811 29.0651C77.1029 28.7286 71.0827 28.7354 66.0655 31.5223C65.1943 31.3131 64.3154 31.1369 63.4308 30.9943C63.3784 31.1307 63.3181 31.2728 63.2589 31.408C62.6898 32.6952 61.8735 33.8456 60.8395 34.8325C60.6382 35.0253 60.4285 35.21 60.2104 35.3888C60.9296 35.4536 61.5736 35.532 62.1057 35.6109C63.079 35.753 63.7222 36.6615 63.4895 37.5751V37.5836C63.2887 38.3902 62.4648 38.9126 61.6026 38.7915C58.676 38.3693 52.0042 37.8621 46.0299 40.5557C45.2442 40.9135 44.2923 40.6277 43.8584 39.9064C43.3637 39.091 43.7091 38.0477 44.599 37.6464C45.4914 37.2482 46.4064 36.9027 47.3392 36.6116C46.444 36.1319 45.618 35.5332 44.8836 34.8317C44.3375 34.3082 43.8459 33.7307 43.4161 33.1082C40.1365 34.4236 37.0823 36.2332 34.4463 38.548C29.9315 42.5078 27.2368 47.9476 26.7264 53.6083L26.7272 53.6091ZM71.2988 48.6334C71.2988 46.8536 72.8042 45.417 74.6686 45.417C76.5334 45.417 78.0371 46.8532 78.0371 48.6334C78.0371 50.4137 76.5334 51.8498 74.6686 51.8498C72.8046 51.8498 71.2988 50.4137 71.2988 48.6334Z" fill="url(#paint0_linear_3363_6734)"/>
<ellipse cx="57.4166" cy="55.3512" rx="30.7867" ry="24.8121" fill="url(#paint1_linear_3363_6734)"/>
<g filter="url(#filter0_b_3363_6734)">
<path d="M49.5848 11.7314C42.8705 11.7314 37.3477 17.3069 37.3477 24.0211C37.3477 30.7348 42.7905 36.1777 49.5048 36.1777C56.219 36.1777 61.7419 30.6022 61.7419 23.888C61.7419 17.1738 56.2996 11.7314 49.5848 11.7314Z" fill="#B9DDFF" fill-opacity="0.8"/>
</g>
<path fill-rule="evenodd" clip-rule="evenodd" d="M52.9308 41.3547C49.4925 42.0437 46.5428 43.2067 44.9232 44.0388C44.1323 44.4451 43.1618 44.1333 42.7554 43.3424C42.3491 42.5515 42.6608 41.581 43.4518 41.1746C45.3304 40.2095 48.5618 38.9462 52.2981 38.1975C56.0258 37.4504 60.3931 37.1878 64.4677 38.364C65.322 38.6106 65.8147 39.5031 65.5681 40.3574C65.3215 41.2117 64.429 41.7043 63.5747 41.4577C60.178 40.4772 56.3775 40.6639 52.9308 41.3547Z" fill="url(#paint2_linear_3363_6734)" stroke="url(#paint3_linear_3363_6734)" stroke-opacity="0.5" stroke-width="0.4025" stroke-linecap="round"/>
<circle cx="77.8952" cy="49.8903" r="3.06508" fill="url(#paint4_linear_3363_6734)" fill-opacity="0.7"/>
<circle cx="77.8952" cy="49.8903" r="2.86383" stroke="url(#paint5_linear_3363_6734)" stroke-opacity="0.5" stroke-width="0.4025"/>
<path d="M47.5008 17.4448L50.1894 24.0043L48.3271 25.4153L44.6787 17.4448H47.5008ZM48.9309 23.9407L51.5878 17.4448H54.4098L50.7424 25.4153L48.9309 23.9407ZM50.8695 23.6102V30.462H48.1491V23.6102H50.8695ZM53.4374 23.75V25.32H45.3779V23.75H53.4374ZM53.4374 26.267V27.837H45.3779V26.267H53.4374Z" fill="white"/>
<path d="M47.7078 17.36L47.6509 17.2211H47.5008H44.6787H44.3302L44.4753 17.5379L47.2164 23.5263H45.3779H45.1541V23.75V25.32V25.5437H45.3779H47.9254V26.0433H45.3779H45.1541V26.267V27.837V28.0607H45.3779H47.9254V30.462V30.6858H48.1491H50.8695H51.0933V30.462V28.0607H53.4374H53.6611V27.837V26.267V26.0433H53.4374H51.0933V25.5437H53.4374H53.6611V25.32V23.75V23.5263H53.4374H51.8579L54.6131 17.5383L54.7591 17.2211H54.4098H51.5878H51.4375L51.3807 17.3601L49.5463 21.8452L47.7078 17.36Z" stroke="#5FA1F8" stroke-opacity="0.05" stroke-width="0.447467"/>
<path d="M11.9462 27.5245C12.1195 27.1128 12.703 27.1128 12.8763 27.5245L14.4726 31.316C14.5237 31.4375 14.6204 31.5341 14.7418 31.5853L18.5333 33.1815C18.945 33.3549 18.945 33.9383 18.5333 34.1116L14.7418 35.7079C14.6204 35.7591 14.5237 35.8557 14.4726 35.9772L12.8763 39.7687C12.703 40.1804 12.1195 40.1804 11.9462 39.7687L10.3499 35.9772C10.2988 35.8557 10.2021 35.7591 10.0807 35.7079L6.28917 34.1116C5.87744 33.9383 5.87744 33.3549 6.28917 33.1815L10.0807 31.5853C10.2021 31.5341 10.2988 31.4375 10.3499 31.316L11.9462 27.5245Z" fill="#D5EBFF"/>
<path d="M78.6347 1.56993C78.808 1.1582 79.3914 1.15821 79.5648 1.56993L81.161 5.36142C81.2122 5.48289 81.3088 5.57953 81.4303 5.63068L85.2218 7.22695C85.6335 7.40029 85.6335 7.98371 85.2218 8.15706L81.4303 9.75333C81.3088 9.80447 81.2122 9.90111 81.161 10.0226L79.5648 13.8141C79.3914 14.2258 78.808 14.2258 78.6347 13.8141L77.0384 10.0226C76.9872 9.90111 76.8906 9.80447 76.7691 9.75333L72.9776 8.15705C72.5659 7.98371 72.5659 7.40029 72.9776 7.22695L76.7691 5.63068C76.8906 5.57953 76.9872 5.48289 77.0384 5.36142L78.6347 1.56993Z" fill="#D5EBFF"/>
<defs>
<filter id="filter0_b_3363_6734" x="31.7543" y="6.13811" width="35.5812" height="35.633" filterUnits="userSpaceOnUse" color-interpolation-filters="sRGB">
<feFlood flood-opacity="0" result="BackgroundImageFix"/>
<feGaussianBlur in="BackgroundImageFix" stdDeviation="2.79667"/>
<feComposite in2="SourceAlpha" operator="in" result="effect1_backgroundBlur_3363_6734"/>
<feBlend mode="normal" in="SourceGraphic" in2="effect1_backgroundBlur_3363_6734" result="shape"/>
</filter>
<linearGradient id="paint0_linear_3363_6734" x1="59.6916" y1="28.915" x2="59.6916" y2="84.9148" gradientUnits="userSpaceOnUse">
<stop stop-color="#A2D7FF"/>
<stop offset="1" stop-color="#A0D7FF"/>
</linearGradient>
<linearGradient id="paint1_linear_3363_6734" x1="57.4166" y1="30.5391" x2="57.4166" y2="80.1633" gradientUnits="userSpaceOnUse">
<stop stop-color="#75C5FF"/>
<stop offset="1" stop-color="#D5EBFF"/>
</linearGradient>
<linearGradient id="paint2_linear_3363_6734" x1="64.0212" y1="39.1691" x2="44.1875" y2="42.6067" gradientUnits="userSpaceOnUse">
<stop stop-color="white" stop-opacity="0.7"/>
<stop offset="1" stop-color="white" stop-opacity="0.4"/>
</linearGradient>
<linearGradient id="paint3_linear_3363_6734" x1="65.6316" y1="39.6086" x2="42.2171" y2="44.7144" gradientUnits="userSpaceOnUse">
<stop stop-color="white"/>
<stop offset="1" stop-color="white" stop-opacity="0"/>
</linearGradient>
<linearGradient id="paint4_linear_3363_6734" x1="77.8952" y1="46.8252" x2="77.8952" y2="52.9554" gradientUnits="userSpaceOnUse">
<stop stop-color="white"/>
<stop offset="1" stop-color="white" stop-opacity="0"/>
</linearGradient>
<linearGradient id="paint5_linear_3363_6734" x1="77.8952" y1="46.8252" x2="77.8952" y2="52.9554" gradientUnits="userSpaceOnUse">
<stop stop-color="white"/>
<stop offset="1" stop-color="white" stop-opacity="0"/>
</linearGradient>
</defs>
</svg>
