<svg width="180" height="97" viewBox="0 0 180 97" fill="none" xmlns="http://www.w3.org/2000/svg">
<path d="M77.901 58.1046C81.8757 58.1046 85.0979 54.679 85.0979 50.4532C85.0979 46.2274 81.8757 42.8018 77.901 42.8018C73.9263 42.8018 70.7041 46.2274 70.7041 50.4532C70.7041 54.679 73.9263 58.1046 77.901 58.1046Z" fill="#A1D7FF"/>
<path d="M48.257 43.8446C47.9329 42.9387 48.3156 41.9316 49.1596 41.4695C49.4685 41.3004 49.8173 41.2178 50.1693 41.2304L96.1145 42.8776L98.6143 41.2109L97.591 56.7927L50.7561 47.9011C50.0594 47.7688 49.4849 47.2775 49.246 46.6098L48.257 43.8446Z" fill="url(#paint0_linear_3364_6961)"/>
<path d="M131.6 58.1046C127.625 58.1046 124.403 54.679 124.403 50.4532C124.403 46.2274 127.625 42.8018 131.6 42.8018C135.575 42.8018 138.797 46.2274 138.797 50.4532C138.797 54.679 135.575 58.1046 131.6 58.1046Z" fill="#A1D7FF"/>
<path d="M161.244 43.8446C161.568 42.9387 161.185 41.9316 160.341 41.4695C160.032 41.3004 159.684 41.2178 159.332 41.2304L113.386 42.8776L110.887 41.2109L111.91 56.7927L158.745 47.9011C159.442 47.7688 160.016 47.2775 160.255 46.6098L161.244 43.8446Z" fill="url(#paint1_linear_3364_6961)"/>
<rect x="92.1553" y="21.2568" width="24.5592" height="44.374" rx="11.3397" fill="url(#paint2_linear_3364_6961)"/>
<path d="M94.4346 30.1249L96.7073 26.1867L99.586 25.2021H109.434L111.859 26.1867L114.059 30.1249L110.04 28.1558H98.7688L94.4346 30.1249Z" fill="url(#paint3_linear_3364_6961)"/>
<ellipse cx="104.075" cy="84.5439" rx="35.2149" ry="4.45599" fill="#D5EBFF"/>
<path d="M75.0351 16.776C75.2084 16.3643 75.7918 16.3643 75.9652 16.776L77.5614 20.5675C77.6126 20.6889 77.7092 20.7856 77.8307 20.8367L81.6222 22.433C82.0339 22.6063 82.0339 23.1898 81.6222 23.3631L77.8307 24.9594C77.7092 25.0105 77.6126 25.1072 77.5614 25.2286L75.9652 29.0201C75.7918 29.4319 75.2084 29.4319 75.0351 29.0201L73.4388 25.2286C73.3876 25.1072 73.291 25.0105 73.1695 24.9594L69.378 23.3631C68.9663 23.1898 68.9663 22.6063 69.378 22.433L73.1695 20.8367C73.291 20.7856 73.3876 20.6889 73.4388 20.5675L75.0351 16.776Z" fill="#D5EBFF"/>
<path d="M138.332 5.40001C138.505 4.98828 139.089 4.98828 139.262 5.40001L140.858 9.1915C140.909 9.31297 141.006 9.40961 141.128 9.46075L144.919 11.057C145.331 11.2304 145.331 11.8138 144.919 11.9871L141.128 13.5834C141.006 13.6345 140.909 13.7312 140.858 13.8527L139.262 17.6442C139.089 18.0559 138.505 18.0559 138.332 17.6442L136.736 13.8527C136.685 13.7312 136.588 13.6345 136.466 13.5834L132.675 11.9871C132.263 11.8138 132.263 11.2304 132.675 11.057L136.466 9.46075C136.588 9.40961 136.685 9.31297 136.736 9.1915L138.332 5.40001Z" fill="#D5EBFF"/>
<defs>
<linearGradient id="paint0_linear_3364_6961" x1="73.1543" y1="41.2109" x2="73.1543" y2="56.7927" gradientUnits="userSpaceOnUse">
<stop stop-color="#A4D9FF"/>
<stop offset="1" stop-color="#D3EAFF"/>
</linearGradient>
<linearGradient id="paint1_linear_3364_6961" x1="136.347" y1="41.2109" x2="136.347" y2="56.7927" gradientUnits="userSpaceOnUse">
<stop stop-color="#A4D9FF"/>
<stop offset="1" stop-color="#D3EAFF"/>
</linearGradient>
<linearGradient id="paint2_linear_3364_6961" x1="104.435" y1="21.2568" x2="104.435" y2="65.6309" gradientUnits="userSpaceOnUse">
<stop stop-color="#75C5FF"/>
<stop offset="1" stop-color="#D8EEFF"/>
</linearGradient>
<linearGradient id="paint3_linear_3364_6961" x1="103.53" y1="25.2021" x2="103.61" y2="30.1247" gradientUnits="userSpaceOnUse">
<stop stop-color="white"/>
<stop offset="1" stop-color="white" stop-opacity="0.2"/>
</linearGradient>
</defs>
</svg>
