<svg width="92" height="96" viewBox="0 0 92 96" fill="none" xmlns="http://www.w3.org/2000/svg">
<ellipse cx="40.0752" cy="83.5439" rx="35.2149" ry="4.45599" fill="#D5EBFF"/>
<path d="M52.498 6.39165L50.3346 6.48724L67.1395 25.8627C67.6414 26.4413 67.3288 27.3462 66.5769 27.4918L57.7843 29.1937C57.3163 29.2843 56.9783 29.694 56.9783 30.1707L56.9783 75.0689L59.835 73.3687C60.1355 73.1899 60.3201 72.8665 60.3212 72.5168L60.4566 31.39C60.4582 30.9165 60.7931 30.5097 61.2575 30.4172L68.5153 28.9725C70.0098 28.675 70.6293 26.8771 69.6353 25.7221L53.2962 6.7367C53.0971 6.50536 52.8029 6.37817 52.498 6.39165Z" fill="url(#paint0_linear_3364_6811)"/>
<path d="M44.6627 31.8979L34.625 33.0981L37.1747 34.2205C37.8526 34.5188 38.6002 34.6222 39.3336 34.5189L44.642 33.7712L44.6627 31.8979Z" fill="#A1D7FF"/>
<path d="M49.6514 6.94687L34.2767 31.7504C33.8325 32.4669 34.4247 33.3766 35.2597 33.2604L43.3594 32.1334C43.9667 32.0489 44.5052 32.5284 44.4915 33.1414L43.519 76.5445C43.5049 77.1759 44.0749 77.6606 44.6958 77.5452L56.6849 75.3168C57.1563 75.2292 57.4982 74.8179 57.4982 74.3384L57.4982 30.1249C57.4982 29.643 57.8435 29.2303 58.3178 29.1453L66.8822 27.6105C67.6368 27.4753 67.9616 26.5734 67.4664 25.9881L51.257 6.82842C50.8205 6.3124 50.0075 6.37237 49.6514 6.94687Z" fill="url(#paint1_linear_3364_6811)"/>
<g opacity="0.5">
<path d="M22.921 27.916L21.5328 28.1528L31.7367 39.8799C32.0414 40.2301 31.8524 40.7788 31.3967 40.867L26.0762 41.8968C25.7923 41.9518 25.5875 42.2006 25.5882 42.4897L25.6551 73.3009L27.3838 72.2721C27.5662 72.1635 27.678 71.967 27.6781 71.7547L27.6944 43.2282C27.6945 42.9409 27.8975 42.6937 28.1793 42.6376L32.6003 41.7575C33.4988 41.5787 33.877 40.5024 33.288 39.8008L23.4838 28.1225C23.3462 27.9586 23.132 27.88 22.921 27.916Z" fill="url(#paint2_linear_3364_6811)"/>
<path d="M18.131 43.535L12.0537 44.2617L13.5974 44.9412C14.0079 45.1219 14.4605 45.1845 14.9046 45.1219L18.1185 44.6692L18.131 43.535Z" fill="#A1D7FF"/>
<path d="M21.1512 28.4282L11.8426 43.4456C11.5737 43.8794 11.9322 44.4301 12.4377 44.3598L17.3341 43.6785C17.7044 43.627 18.0317 43.9216 18.0193 44.2952L17.0068 74.871C16.9933 75.2769 17.3772 75.5796 17.7688 75.4719L25.5027 73.3447C25.7646 73.2727 25.9459 73.0344 25.9455 72.7629L25.9028 42.4621C25.9024 42.17 26.1115 41.9197 26.3991 41.8682L31.5837 40.9391C32.0406 40.8572 32.2372 40.3112 31.9374 39.9568L22.1234 28.3565C21.8591 28.0441 21.3669 28.0804 21.1512 28.4282Z" fill="url(#paint3_linear_3364_6811)"/>
</g>
<path d="M6.61806 5.10118C6.79141 4.68945 7.37483 4.68946 7.54817 5.10118L9.14444 8.89267C9.19558 9.01414 9.29223 9.11078 9.4137 9.16193L13.2052 10.7582C13.6169 10.9315 13.6169 11.515 13.2052 11.6883L9.4137 13.2846C9.29223 13.3357 9.19558 13.4324 9.14444 13.5538L7.54817 17.3453C7.37483 17.757 6.79141 17.757 6.61806 17.3453L5.02179 13.5538C4.97065 13.4324 4.874 13.3357 4.75253 13.2846L0.961044 11.6883C0.549318 11.515 0.549319 10.9315 0.961045 10.7582L4.75253 9.16193C4.87401 9.11078 4.97065 9.01414 5.02179 8.89267L6.61806 5.10118Z" fill="#D5EBFF"/>
<path d="M84.3085 36.1275C84.4818 35.7158 85.0653 35.7158 85.2386 36.1275L86.8349 39.919C86.886 40.0405 86.9827 40.1372 87.1041 40.1883L90.8956 41.7846C91.3073 41.9579 91.3073 42.5413 90.8956 42.7147L87.1041 44.3109C86.9827 44.3621 86.886 44.4587 86.8349 44.5802L85.2386 48.3717C85.0653 48.7834 84.4818 48.7834 84.3085 48.3717L82.7122 44.5802C82.6611 44.4587 82.5644 44.3621 82.443 44.3109L78.6515 42.7147C78.2397 42.5413 78.2397 41.9579 78.6515 41.7846L82.443 40.1883C82.5644 40.1372 82.6611 40.0405 82.7122 39.919L84.3085 36.1275Z" fill="#D5EBFF"/>
<defs>
<linearGradient id="paint0_linear_3364_6811" x1="37.4321" y1="14.5365" x2="74.6403" y2="69.4463" gradientUnits="userSpaceOnUse">
<stop stop-color="#76C5FF"/>
<stop offset="1" stop-color="#B0DDFF"/>
</linearGradient>
<linearGradient id="paint1_linear_3364_6811" x1="30.1763" y1="19.399" x2="67.3732" y2="74.292" gradientUnits="userSpaceOnUse">
<stop stop-color="#78C6FF"/>
<stop offset="1" stop-color="#D1EAFF"/>
</linearGradient>
<linearGradient id="paint2_linear_3364_6811" x1="13.7524" y1="33.0226" x2="36.2802" y2="66.2678" gradientUnits="userSpaceOnUse">
<stop stop-color="#76C5FF"/>
<stop offset="1" stop-color="#B0DDFF"/>
</linearGradient>
<linearGradient id="paint3_linear_3364_6811" x1="9.36012" y1="35.9662" x2="31.8811" y2="69.2013" gradientUnits="userSpaceOnUse">
<stop stop-color="#78C6FF"/>
<stop offset="1" stop-color="#D1EAFF"/>
</linearGradient>
</defs>
</svg>
