<svg width="24" height="24" viewBox="0 0 24 24" fill="none" xmlns="http://www.w3.org/2000/svg">
<g id="icon/solid/guide">
<path id="Subtract" fill-rule="evenodd" clip-rule="evenodd" d="M2 11.346C2 8.78745 2 7.50816 2.41269 6.49713C2.97796 5.11232 4.07692 4.01336 5.46173 3.44809C6.47276 3.0354 7.75205 3.0354 10.3107 3.0354H13.6894C16.2479 3.0354 17.5272 3.0354 18.5383 3.44809C19.9231 4.01336 21.022 5.11232 21.5873 6.49713C22 7.50816 22 8.78745 22 11.346C22 13.9046 22 15.1839 21.5873 16.195C21.022 17.5798 19.9231 18.6787 18.5383 19.244C17.5272 19.6567 16.2479 19.6567 13.6894 19.6567H12.0054C11.9366 19.7588 11.8506 19.8546 11.7464 19.9411L9.2861 21.9822C8.58857 22.5609 7.52822 22.2729 7.2192 21.4209L6.53136 19.5245C6.12687 19.4635 5.78093 19.3743 5.46173 19.244C4.07692 18.6787 2.97796 17.5798 2.41269 16.195C2 15.1839 2 13.9046 2 11.346ZM7.66607 11.3771C8.38404 11.3771 8.96607 10.7951 8.96607 10.0771C8.96607 9.35914 8.38404 8.77711 7.66607 8.77711C6.9481 8.77711 6.36607 9.35914 6.36607 10.0771C6.36607 10.7951 6.9481 11.3771 7.66607 11.3771ZM17.6339 10.0771C17.6339 10.7951 17.0519 11.3771 16.3339 11.3771C15.616 11.3771 15.0339 10.7951 15.0339 10.0771C15.0339 9.35914 15.616 8.77711 16.3339 8.77711C17.0519 8.77711 17.6339 9.35914 17.6339 10.0771ZM15.5706 14.1219C15.9765 13.6364 15.9119 12.9139 15.4264 12.5081C14.9409 12.1023 14.2184 12.1669 13.8126 12.6523C13.4383 13.1 12.8448 13.4145 12.0459 13.4145C11.2385 13.4145 10.4857 13.0062 10.1844 12.6488C9.77665 12.1649 9.05386 12.1033 8.57004 12.5111C8.08622 12.9189 8.02458 13.6417 8.43237 14.1255C9.19815 15.034 10.6096 15.7058 12.0459 15.7058C13.4905 15.7058 14.7402 15.1153 15.5706 14.1219Z" fill="#55A8FB"/>
</g>
</svg>
