<svg width="24" height="24" viewBox="0 0 24 24" fill="none" xmlns="http://www.w3.org/2000/svg">
<g id="icon/solid/rocket">
<path id="Vector" fill-rule="evenodd" clip-rule="evenodd" d="M18.4551 2.33979L18.7201 2.37306C19.4208 2.46974 20.3481 2.59969 20.8731 3.12571C21.3035 3.55506 21.4688 4.25365 21.5675 4.8774L21.6258 5.27867C21.7567 6.22469 21.791 7.46386 21.5675 8.84026C21.1268 11.5567 19.6807 14.7981 16.0495 17.3076C16.0297 17.503 16.0287 17.7006 16.0328 17.8981L16.0432 18.1933C16.0599 18.6476 16.0765 19.1009 15.9497 19.5427C15.7522 20.2288 15.0484 20.681 14.3903 21.0054L14.068 21.1582L13.6522 21.3412C12.8746 21.6717 11.8246 22.0106 11.1666 21.3516C10.7715 20.9576 10.6094 20.3796 10.4773 19.8047L10.4285 19.5895C10.3734 19.3178 10.304 19.0492 10.2206 18.7848C10.1686 18.6331 10.1125 18.4782 10.0522 18.3222C9.98579 18.4037 9.91536 18.4818 9.84112 18.5561C9.48247 18.9148 8.94709 19.1653 8.50631 19.341C8.02498 19.5313 7.48025 19.6976 6.97605 19.8348L6.7172 19.9034L6.22132 20.0271L5.77222 20.1311L5.23476 20.2454L4.89898 20.3109C4.73151 20.3419 4.55902 20.3318 4.39637 20.2812C4.23373 20.2307 4.08581 20.1414 3.96538 20.021C3.84495 19.9005 3.75563 19.7526 3.70511 19.59C3.65459 19.4273 3.64439 19.2548 3.6754 19.0874L3.7648 18.6393L3.9249 17.9137L4.0538 17.3835L4.15152 17.0092C4.28875 16.5061 4.45508 15.9614 4.64636 15.4811C4.82101 15.0393 5.07155 14.5039 5.4302 14.1452L5.51337 14.0652L5.44684 14.0381C5.26917 13.9706 5.08921 13.9092 4.9073 13.8541L4.61933 13.7658C3.89787 13.5475 3.1265 13.3125 2.64726 12.8322C2.0651 12.2511 2.26157 11.3664 2.54226 10.6304L2.65661 10.3456L2.84062 9.92974L2.99344 9.60747C3.31778 8.95045 3.77 8.24666 4.45612 8.04914C4.81997 7.94518 5.19838 7.93895 5.57886 7.94934L5.80757 7.95662C6.10489 7.96702 6.40117 7.97845 6.69121 7.95038C9.20075 4.3181 12.4421 2.87205 15.1586 2.43127C16.2483 2.25254 17.3571 2.22177 18.4551 2.33979ZM8.25473 15.5164C8.09111 15.3953 7.89557 15.3249 7.69232 15.3138C7.48906 15.3027 7.28701 15.3515 7.1112 15.454L6.99684 15.531L6.90016 15.6173L6.77022 15.7815C6.49993 16.1724 6.34607 16.713 6.22652 17.2182L6.11424 17.7047L6.06123 17.9262L6.25978 17.8783L6.69433 17.7785C7.2952 17.6382 7.96157 17.4563 8.37116 17.0872C8.54925 16.9092 8.65669 16.6726 8.67351 16.4214C8.69034 16.1702 8.61541 15.9214 8.46265 15.7212L8.3774 15.6235L8.35245 15.5996L8.25473 15.5164ZM15.722 8.26641C15.529 8.07331 15.2998 7.92011 15.0475 7.81558C14.7953 7.71104 14.5249 7.65722 14.2519 7.65717C13.9788 7.65712 13.7085 7.71085 13.4562 7.8153C13.2039 7.91974 12.9747 8.07286 12.7816 8.26589C12.5885 8.45893 12.4353 8.68811 12.3307 8.94036C12.2262 9.1926 12.1724 9.46296 12.1723 9.73601C12.1723 10.0091 12.226 10.2794 12.3304 10.5317C12.4349 10.784 12.588 11.0132 12.781 11.2063C13.1709 11.5963 13.6997 11.8155 14.2512 11.8156C14.8026 11.8157 15.3315 11.5967 15.7215 11.2069C16.1115 10.817 16.3306 10.2882 16.3307 9.73674C16.3308 9.1853 16.1119 8.65641 15.722 8.26641Z" fill="#10B7F4"/>
</g>
</svg>
