<svg width="64" height="64" viewBox="0 0 64 64" fill="none" xmlns="http://www.w3.org/2000/svg">
<g id="icon/solid/rocket" filter="url(#filter0_d_3284_5959)">
<path id="Vector" fill-rule="evenodd" clip-rule="evenodd" d="M40.8941 14.7001L41.2476 14.7445C42.1818 14.8734 43.4182 15.0467 44.1182 15.748C44.692 16.3205 44.9124 17.2519 45.0441 18.0836L45.1217 18.6186C45.2964 19.88 45.3421 21.5322 45.0441 23.3674C44.4564 26.9893 42.5283 31.3112 37.6867 34.6572C37.6604 34.9178 37.659 35.1812 37.6645 35.4445L37.6784 35.8382C37.7006 36.4439 37.7227 37.0482 37.5536 37.6373C37.2903 38.5522 36.3519 39.1551 35.4745 39.5876L35.0448 39.7913L34.4903 40.0353C33.4535 40.4761 32.0536 40.9279 31.1762 40.0491C30.6495 39.5238 30.4332 38.7531 30.2572 37.9866L30.192 37.6997C30.1186 37.3374 30.0261 36.9793 29.9148 36.6269C29.8455 36.4245 29.7707 36.218 29.6903 36.01C29.6018 36.1187 29.5079 36.2228 29.4089 36.3219C28.9307 36.8001 28.2168 37.1342 27.6291 37.3684C26.9874 37.6221 26.2611 37.8439 25.5888 38.0268L25.2437 38.1183L24.5825 38.2833L23.9837 38.4219L23.2671 38.5743L22.8194 38.6617C22.5961 38.703 22.3661 38.6894 22.1492 38.6221C21.9324 38.5547 21.7351 38.4356 21.5746 38.275C21.414 38.1144 21.2949 37.9172 21.2275 37.7004C21.1602 37.4835 21.1466 37.2535 21.1879 37.0302L21.3071 36.4328L21.5206 35.4653L21.6925 34.7584L21.8228 34.2594C22.0057 33.5885 22.2275 32.8622 22.4825 32.2218C22.7154 31.6327 23.0495 30.9189 23.5277 30.4407L23.6386 30.334L23.5498 30.2979C23.313 30.2079 23.073 30.126 22.8305 30.0526L22.4465 29.9348C21.4846 29.6437 20.4561 29.3304 19.8171 28.69C19.0409 27.9152 19.3028 26.7356 19.6771 25.7543L19.8295 25.3745L20.0749 24.8201L20.2786 24.3904C20.7111 23.5143 21.3141 22.576 22.2289 22.3126C22.714 22.174 23.2186 22.1657 23.7259 22.1795L24.0308 22.1892C24.4272 22.2031 24.8223 22.2183 25.209 22.1809C28.5551 17.3379 32.8769 15.4098 36.4988 14.8221C37.9517 14.5838 39.4302 14.5428 40.8941 14.7001ZM27.2937 32.269C27.0755 32.1075 26.8148 32.0135 26.5438 31.9988C26.2728 31.984 26.0034 32.049 25.769 32.1858L25.6165 32.2884L25.4876 32.4034L25.3143 32.6224C24.954 33.1436 24.7488 33.8644 24.5894 34.538L24.4397 35.1867L24.369 35.4819L24.6338 35.4182L25.2132 35.2851C26.0143 35.098 26.9028 34.8554 27.4489 34.3634C27.6864 34.126 27.8296 33.8106 27.8521 33.4756C27.8745 33.1406 27.7746 32.8089 27.5709 32.542L27.4573 32.4117L27.424 32.3799L27.2937 32.269ZM37.2501 22.6023C36.9927 22.3448 36.6871 22.1406 36.3508 22.0012C36.0145 21.8618 35.654 21.79 35.2899 21.79C34.9259 21.7899 34.5653 21.8615 34.229 22.0008C33.8926 22.1401 33.587 22.3442 33.3295 22.6016C33.072 22.859 32.8677 23.1646 32.7284 23.5009C32.589 23.8372 32.5172 24.1977 32.5172 24.5617C32.5171 24.9258 32.5887 25.2863 32.728 25.6227C32.8673 25.9591 33.0714 26.2647 33.3288 26.5222C33.8486 27.0422 34.5537 27.3344 35.2889 27.3345C36.0242 27.3346 36.7294 27.0427 37.2494 26.5229C37.7694 26.0031 38.0616 25.298 38.0617 24.5627C38.0618 23.8275 37.7699 23.1223 37.2501 22.6023Z" fill="#219BF4"/>
</g>
<defs>
<filter id="filter0_d_3284_5959" x="-2.21557" y="-2.29864" width="69.0073" height="69.0073" filterUnits="userSpaceOnUse" color-interpolation-filters="sRGB">
<feFlood flood-opacity="0" result="BackgroundImageFix"/>
<feColorMatrix in="SourceAlpha" type="matrix" values="0 0 0 0 0 0 0 0 0 0 0 0 0 0 0 0 0 0 127 0" result="hardAlpha"/>
<feOffset dy="4.62591"/>
<feGaussianBlur stdDeviation="9.25183"/>
<feColorMatrix type="matrix" values="0 0 0 0 0.227451 0 0 0 0 0.582824 0 0 0 0 1 0 0 0 0.28 0"/>
<feBlend mode="normal" in2="BackgroundImageFix" result="effect1_dropShadow_3284_5959"/>
<feBlend mode="normal" in="SourceGraphic" in2="effect1_dropShadow_3284_5959" result="shape"/>
</filter>
</defs>
</svg>
