<?xml version="1.0" standalone="no"?><!DOCTYPE svg PUBLIC "-//W3C//DTD SVG 1.1//EN" "http://www.w3.org/Graphics/SVG/1.1/DTD/svg11.dtd"><svg t="1729764845679" class="icon" viewBox="0 0 1024 1024" version="1.1" xmlns="http://www.w3.org/2000/svg" p-id="8377" xmlns:xlink="http://www.w3.org/1999/xlink" width="2000" height="2000"><path d="M64.15 512.31c0-33.98 31.96-61.79 71.02-61.79h753.5c39.06 0 71.02 27.81 71.02 61.79s-31.96 61.79-71.02 61.79h-753.5c-39.06 0-71.02-27.81-71.02-61.79z" p-id="8378" fill="#667085"></path><path d="M571.65 776.77c0-16.07 6.18-31.51 17.92-43.87l264.46-264.46c24.1-24.1 63.03-24.1 87.12 0 24.1 24.1 24.1 63.03 0 87.12L676.69 820.64c-24.1 24.1-63.03 24.1-87.12 0-12.36-12.35-17.92-27.8-17.92-43.87z" p-id="8379" fill="#667085"></path><path d="M571.65 247.23c0-16.07 6.18-31.51 17.92-43.87 24.1-24.1 63.03-24.1 87.12 0l265.08 265.08c24.1 24.1 24.1 63.03 0 87.12-24.1 24.1-63.03 24.1-87.12 0L589.57 290.48c-12.36-11.74-17.92-27.19-17.92-43.25z" p-id="8380" fill="#667085"></path></svg>