<svg width="21" height="21" viewBox="0 0 21 21" fill="none" xmlns="http://www.w3.org/2000/svg">
<g id="icon/solid/quote">
<path id="Vector" d="M9.85893 11.867V15.7132C9.85893 16.2474 9.67197 16.7014 9.29803 17.0754C8.9241 17.4493 8.47004 17.6363 7.93586 17.6363H4.0897C3.55551 17.6363 3.10145 17.4493 2.72752 17.0754C2.35359 16.7014 2.16663 16.2474 2.16663 15.7132V8.6619C2.16663 7.96745 2.30184 7.30472 2.57227 6.67371C2.84271 6.04271 3.20829 5.49683 3.66903 5.03609C4.12977 4.57536 4.67564 4.20977 5.30665 3.93934C5.93766 3.66891 6.60039 3.53369 7.29483 3.53369H7.93586C8.10947 3.53369 8.25971 3.59713 8.38658 3.724C8.51345 3.85087 8.57688 4.00111 8.57688 4.17472V5.45677C8.57688 5.63038 8.51345 5.78062 8.38658 5.90749C8.25971 6.03436 8.10947 6.09779 7.93586 6.09779H7.29483C6.58703 6.09779 5.98273 6.34819 5.48193 6.84899C4.98113 7.3498 4.73073 7.9541 4.73073 8.6619V8.98241C4.73073 9.2495 4.82421 9.47653 5.01118 9.6635C5.19814 9.85046 5.42517 9.94395 5.69227 9.94395H7.93586C8.47004 9.94395 8.9241 10.1309 9.29803 10.5048C9.67197 10.8788 9.85893 11.3328 9.85893 11.867ZM18.8333 11.867V15.7132C18.8333 16.2474 18.6463 16.7014 18.2724 17.0754C17.8985 17.4493 17.4444 17.6363 16.9102 17.6363H13.0641C12.5299 17.6363 12.0758 17.4493 11.7019 17.0754C11.3279 16.7014 11.141 16.2474 11.141 15.7132V8.6619C11.141 7.96745 11.2762 7.30472 11.5466 6.67371C11.8171 6.04271 12.1826 5.49683 12.6434 5.03609C13.1041 4.57536 13.65 4.20977 14.281 3.93934C14.912 3.66891 15.5747 3.53369 16.2692 3.53369H16.9102C17.0838 3.53369 17.2341 3.59713 17.3609 3.724C17.4878 3.85087 17.5512 4.00111 17.5512 4.17472V5.45677C17.5512 5.63038 17.4878 5.78062 17.3609 5.90749C17.2341 6.03436 17.0838 6.09779 16.9102 6.09779H16.2692C15.5614 6.09779 14.9571 6.34819 14.4563 6.84899C13.9555 7.3498 13.7051 7.9541 13.7051 8.6619V8.98241C13.7051 9.2495 13.7986 9.47653 13.9855 9.6635C14.1725 9.85046 14.3995 9.94395 14.6666 9.94395H16.9102C17.4444 9.94395 17.8985 10.1309 18.2724 10.5048C18.6463 10.8788 18.8333 11.3328 18.8333 11.867Z" fill="#FF8AA9"/>
</g>
</svg>
