<?xml version="1.0" standalone="no"?><!DOCTYPE svg PUBLIC "-//W3C//DTD SVG 1.1//EN" "http://www.w3.org/Graphics/SVG/1.1/DTD/svg11.dtd"><svg t="1749642863613" class="icon" viewBox="0 0 1024 1024" version="1.1" xmlns="http://www.w3.org/2000/svg" p-id="68712" xmlns:xlink="http://www.w3.org/1999/xlink" width="2000" height="2000"><path d="M0.870242 706.569239m35.889986 0l210.17033 0q35.889986 0 35.889986 35.889985l0 245.406691q0 35.889986-35.889986 35.889986l-210.17033 0q-35.889986 0-35.889986-35.889986l0-245.406691q0-35.889986 35.889986-35.889985Z" fill="#467CFD" p-id="68713"></path><path d="M370.941155 589.094898m42.010298 0l197.929706 0q42.010298 0 42.010298 42.010298l0 350.640407q0 42.010298-42.010298 42.010298l-197.929706 0q-42.010298 0-42.010298-42.010298l0-350.640407q0-42.010298 42.010298-42.010298Z" fill="#467CFD" p-id="68714"></path><path d="M973.583928 448.090037h-183.312261a48.546554 48.546554 0 0 0-49.31902 47.536405v480.830736a48.546554 48.546554 0 0 0 49.31902 47.536405h183.312261a48.546554 48.546554 0 0 0 49.31902-47.536405V495.507601a48.546554 48.546554 0 0 0-49.31902-47.417564z" fill="#467CFD" p-id="68715"></path><path d="M1022.902948 219.855873V0h-219.855872l74.275632 74.275633-247.070464 247.545828L435.709507 126.565678a65.362557 65.362557 0 0 0-4.575379-5.288425l-0.653626-0.653626a54.369763 54.369763 0 0 0-76.949555 0L16.735518 458.845149a54.904548 54.904548 0 0 0 0 77.246658l0.653625 0.653625a54.429184 54.429184 0 0 0 76.890135 0l297.102531-298.647464 195.374624 196.08767 2.3174 2.139139 1.010149 1.069569 2.139138 2.139138a53.478456 53.478456 0 0 0 75.404622 0l286.644522-287.832932zM1022.902948 220.212396l-0.118841-0.118841v0.118841h0.118841z" fill="#8BAEF7" p-id="68716"></path></svg>