<?xml version="1.0" standalone="no"?><!DOCTYPE svg PUBLIC "-//W3C//DTD SVG 1.1//EN" "http://www.w3.org/Graphics/SVG/1.1/DTD/svg11.dtd"><svg t="1749642918284" class="icon" viewBox="0 0 1024 1024" version="1.1" xmlns="http://www.w3.org/2000/svg" p-id="75216" xmlns:xlink="http://www.w3.org/1999/xlink" width="2000" height="2000"><path d="M96 608v-256a256.32 256.32 0 0 1 256-256h256a32 32 0 0 1 32 32 32 32 0 0 1-32 32h-256a192.224 192.224 0 0 0-192 192v256a32 32 0 0 1-32 32 32 32 0 0 1-32-32z" fill="#4078FD" p-id="75217"></path><path d="M352 288a64 64 0 0 0-64 64v416a64 64 0 0 0 64 64h416a64 64 0 0 0 64-64V352a64 64 0 0 0-64-64H352m0-64h416a128 128 0 0 1 128 128v416a128 128 0 0 1-128 128H352a128 128 0 0 1-128-128V352a128 128 0 0 1 128-128z" fill="#4078FD" p-id="75218"></path><path d="M352 384m32 0l288 0q32 0 32 32l0 0q0 32-32 32l-288 0q-32 0-32-32l0 0q0-32 32-32Z" fill="#FE9C23" p-id="75219"></path><path d="M352 512m32 0l160 0q32 0 32 32l0 0q0 32-32 32l-160 0q-32 0-32-32l0 0q0-32 32-32Z" fill="#4078FD" p-id="75220"></path></svg>