<?xml version="1.0" standalone="no"?><!DOCTYPE svg PUBLIC "-//W3C//DTD SVG 1.1//EN" "http://www.w3.org/Graphics/SVG/1.1/DTD/svg11.dtd"><svg t="1749642656366" class="icon" viewBox="0 0 1024 1024" version="1.1" xmlns="http://www.w3.org/2000/svg" p-id="42753" xmlns:xlink="http://www.w3.org/1999/xlink" width="2000" height="2000"><path d="M213.333333 853.333333h309.333334a21.333333 21.333333 0 1 0 0-42.666666H213.333333a21.333333 21.333333 0 0 1-21.333333-21.333334V149.333333a21.333333 21.333333 0 0 1 21.333333-21.333333h618.666667a21.333333 21.333333 0 0 1 21.333333 21.333333v640a21.333333 21.333333 0 0 1-21.333333 21.333334h-69.333333a21.333333 21.333333 0 1 0 0 42.666666H832a64 64 0 0 0 64-64V149.333333a64 64 0 0 0-64-64H213.333333a64 64 0 0 0-64 64v640a64 64 0 0 0 64 64z" fill="#005BFF" p-id="42754"></path><path d="M298.666667 224a32 32 0 1 1-64 0 32 32 0 0 1 64 0z" fill="#06F3FF" p-id="42755"></path><path d="M405.333333 224a32 32 0 1 1-64 0 32 32 0 0 1 64 0zM512 224a32 32 0 1 1-64 0 32 32 0 0 1 64 0zM192 298.666667h661.333333v21.333333H192v-21.333333zM556.373333 708.053333l0.426667-0.426666 0.213333-0.213334 0.426667-0.426666 0.213333-0.213334 0.426667-0.426666 0.426667-0.213334 0.213333-0.426666 0.426667-0.213334 0.426666-0.213333 0.426667-0.213333 0.426667-0.213334 0.426666-0.213333 0.426667-0.213333h0.426667l0.64-0.213334h0.426666l0.426667-0.213333H565.546667l0.426666 0.213333h0.64l0.426667 0.213334h0.426667l0.426666 0.213333 0.426667 0.213333 0.426667 0.213334 0.426666 0.213333 0.426667 0.213333 0.426667 0.213334 152.533333 107.733333 0.426667 0.426667 0.64 0.64 0.64 0.426666 0.426666 0.64s0.426667 0.426667 0.426667 0.64c0 0.213333 0.426667 0.426667 0.426667 0.64 0 0.213333 0.213333 0.405333 0.213333 0.64s0.213333 0.618667 0.213333 0.853334 0.213333 0.384 0.213334 0.64 0.213333 0.597333 0.213333 0.853333 0.213333 0.384 0.213333 0.64v1.493333c0 0.256-0.213333 0.597333-0.213333 0.853334v0.853333c0 0.256-0.213333 0.405333-0.213333 0.64s-0.426667 0.405333-0.426667 0.64-0.213333 0.64-0.213333 0.853333c0 0.213333-0.426667 0.426667-0.426667 0.64 0 0.213333-0.426667 0.64-0.426667 0.64l-0.426666 0.64-0.426667 0.426667-0.64 0.64-0.64 0.426667s-0.426667 0.426667-0.64 0.426666c-0.213333 0-0.426667 0.426667-0.64 0.426667-0.213333 0-0.405333 0.213333-0.64 0.213333s-0.618667 0.213333-0.853333 0.213334-0.384 0.213333-0.64 0.213333-0.384 0.213333-0.64 0.213333-0.597333 0.213333-0.853334 0.213334h-64l39.68 70.613333c0 0.256 0.426667 0.576 0.426667 0.853333 0 0.277333 0.426667 0.576 0.426667 0.853334 0 0.277333 0.213333 0.576 0.213333 0.853333 0 0.277333 0.426667 0.554667 0.426667 0.853333 0 0.298667 0.213333 0.554667 0.213333 0.853334 0 0.298667 0.213333 0.554667 0.213333 0.853333 0 0.298667 0.213333 0.554667 0.213334 0.853333 0 0.298667 0.213333 0.554667 0.213333 0.853334v4.693333c0 0.298667-0.213333 0.554667-0.213333 0.853333v0.853334c0 0.298667-0.213333 0.768-0.213334 1.066666 0 0.298667-0.213333 0.554667-0.213333 0.853334 0 0.298667-0.426667 0.576-0.426667 0.853333 0 0.277333-0.213333 0.576-0.213333 0.853333 0 0.277333-0.426667 0.576-0.426667 0.853334 0 0.277333-0.426667 0.576-0.426666 0.853333 0 0.277333-0.426667 0.384-0.426667 0.64s-0.426667 0.597333-0.426667 0.853333-0.64 0.597333-0.64 0.853334-0.426667 0.405333-0.426666 0.64-0.64 0.426667-0.64 0.64c0 0.213333-0.64 0.64-0.64 0.853333 0 0.213333-0.426667 0.64-0.64 0.64-0.213333 0-0.426667 0.426667-0.64 0.426667-0.213333 0-0.405333 0.64-0.64 0.64s-0.597333 0.64-0.853334 0.64-0.384 0.426667-0.64 0.426666-0.597333 0.426667-0.853333 0.426667-0.576 0.426667-0.853333 0.426667c-0.277333 0-0.576 0.426667-0.853334 0.426666-0.277333 0-0.576 0.426667-0.853333 0.426667-0.277333 0-0.554667 0.426667-0.853333 0.426667-0.298667 0-0.554667 0.213333-0.853334 0.213333-0.298667 0-0.554667 0.213333-0.853333 0.213333-0.298667 0-0.554667 0.213333-0.853333 0.213334-0.298667 0-0.554667 0.213333-0.853334 0.213333h-5.546666c-0.298667 0-0.554667-0.213333-0.853334-0.213333-0.298667 0-0.768-0.213333-1.066666-0.213334-0.298667 0-0.554667-0.213333-0.853334-0.213333-0.298667 0-0.554667-0.213333-0.853333-0.213333-0.298667 0-0.576-0.426667-0.853333-0.426667-0.277333 0-0.576-0.426667-0.853334-0.426667-0.277333 0-0.576-0.213333-0.853333-0.213333-0.277333 0-0.597333-0.426667-0.853333-0.426667s-0.384-0.64-0.64-0.64-0.597333-0.426667-0.853334-0.426666-0.405333-0.64-0.64-0.64-0.64-0.426667-0.853333-0.426667c-0.213333 0-0.426667-0.64-0.64-0.64-0.213333 0-0.64-0.426667-0.64-0.64 0-0.213333-0.64-0.426667-0.64-0.64 0-0.213333-0.426667-0.618667-0.426667-0.853333s-0.64-0.384-0.64-0.64l-1.28-1.92-39.68-70.826667-29.866666 53.546667c0 0.277333-0.64 0.597333-0.64 0.853333s-0.426667 0.618667-0.426667 0.853333-0.426667 0.426667-0.64 0.64c-0.213333 0.213333-0.618667 0.64-0.853333 0.64-0.256 0-0.384 0.426667-0.64 0.426667s-0.576 0.64-0.853334 0.64c-0.277333 0-0.554667 0.213333-0.853333 0.213333-0.298667 0-0.554667 0.426667-0.853333 0.426667l-1.92 0.426667h-1.493334l-0.426666-0.213334h-0.853334l-0.64-0.213333h-0.426666l-0.426667-0.213333-0.426667-0.213334-0.426666-0.213333-0.426667-0.213333-0.426667-0.213334-0.426666-0.213333-0.426667-0.213333-0.213333-0.426667-0.426667-0.213333-0.426667-0.426667-0.213333-0.213333-0.426667-0.426667-0.213333-0.426667-0.213333-0.426666-0.213334-0.426667-0.213333-0.426667-0.213333-0.426666-0.213334-0.426667-0.213333-0.426667-0.213333-0.426666v-0.426667l-0.213334-0.426667v-1.066666L554.666667 714.666667v-0.853334-0.853333c0-0.277333 0.213333-0.576 0.213333-0.853333 0-0.277333 0.213333-0.576 0.213333-0.853334 0-0.277333 0.213333-0.576 0.213334-0.853333 0-0.277333 0.213333-0.597333 0.213333-0.853333s0.426667-0.384 0.426667-0.64 0.426667-0.64 0.426666-0.853334zM408.64 469.333333h22.464l-39.36 128h-19.306667c-17.194667-57.877333-26.197333-88.021333-26.794666-91.093333-1.237333-2.709333-1.770667-7.338667-1.770667-13.717333h-0.64c0 2.709333-0.512 7.338667-1.770667 13.717333-1.258667 2.730667-10.773333 33.152-28.586666 91.093333h-19.413334L256 469.333333h22.485333c14.08 53.909333 21.717333 83.477333 22.976 88.32 0 0.298667 0.341333 0.938667 0.64 1.877334 0.896 5.802667 1.28 10.005333 1.28 12.48h0.490667c0-4.544 1.002667-9.173333 2.56-14.357334 1.237333-3.370667 10.026667-32.853333 26.666667-88.32h21.184c15.36 55.744 23.637333 85.312 24.896 88.32 1.536 4.906667 2.410667 9.749333 2.410666 14.357334h0.64c0-2.410667 0.298667-6.677333 1.28-12.48A9.024 9.024 0 0 0 384 557.653333c1.6-4.842667 9.578667-34.346667 24.64-88.32z m179.050667 0H610.133333l-39.36 128h-19.306666c-17.194667-57.877333-26.197333-88.021333-26.794667-91.093333-1.237333-2.709333-1.770667-7.338667-1.770667-13.717333h-0.64c0 2.709333-0.533333 7.338667-1.770666 13.717333-1.258667 2.730667-10.773333 33.152-28.586667 91.093333h-19.413333l-37.461334-128h22.464c14.122667 53.909333 21.76 83.477333 22.997334 88.32 0 0.298667 0.341333 0.938667 0.64 1.877334 0.874667 5.802667 1.28 10.005333 1.28 12.48h0.234666c0-4.544 0.853333-9.173333 2.410667-14.357334 1.258667-3.370667 10.197333-32.853333 26.794667-88.32h21.205333c15.36 55.744 23.637333 85.312 24.896 88.32 1.536 4.906667 2.410667 9.749333 2.410667 14.357334h0.512c0-2.410667 0.298667-6.677333 1.28-12.48 0.277333-0.874667 0.618667-1.578667 0.618666-1.877334 1.92-4.842667 9.813333-34.346667 24.896-88.32z m179.157333 0H789.333333l-39.36 128h-19.434666c-17.194667-57.877333-26.069333-88.021333-26.666667-91.093333-1.258667-2.709333-1.92-7.338667-1.92-13.717333h-0.490667c0 2.709333-0.64 7.338667-1.92 13.717333-1.237333 2.730667-10.752 33.152-28.565333 91.093333h-19.285333l-37.589334-128h22.464l23.125334 88.32c0 0.298667 0.213333 0.938667 0.490666 1.877334 0.896 5.802667 1.28 10.005333 1.28 12.48h0.64c0-4.544 0.853333-9.173333 2.410667-14.357334 1.237333-3.370667 10.176-32.853333 26.794667-88.32h21.077333c15.36 55.808 23.68 85.376 24.874667 88.448 1.557333 4.906667 2.56 9.749333 2.56 14.357334h0.490666c0-2.432 0.32-6.826667 1.28-12.586667 0.298667-0.896 0.64-1.493333 0.64-1.770667 1.6-4.906667 9.557333-34.474667 24.618667-88.448z" fill="#005BFF" p-id="42756"></path></svg>