<svg width="21" height="21" viewBox="0 0 21 21" fill="none" xmlns="http://www.w3.org/2000/svg">
<g id="icon/line/linechart">
<g id="Union">
<path d="M3.45842 3.65535C3.45842 3.19512 3.08532 2.82202 2.62509 2.82202C2.16485 2.82202 1.79175 3.19512 1.79175 3.65535L1.79175 16.0896C1.79172 16.2992 1.79169 16.5056 1.80672 16.6808C1.82335 16.8746 1.86279 17.104 1.98567 17.3336C2.15505 17.6502 2.42113 17.9002 2.73903 18.0544C2.966 18.1646 3.19139 18.1999 3.38573 18.215C3.56446 18.2289 3.77647 18.2289 3.99885 18.2289L18.375 18.2289C18.8352 18.2289 19.2083 17.8558 19.2083 17.3955C19.2083 16.9353 18.8352 16.5622 18.375 16.5622H4.02508C3.76695 16.5622 3.6211 16.5616 3.51503 16.5534C3.49525 16.5518 3.47986 16.5502 3.46824 16.5487L3.46729 16.5383C3.45913 16.4432 3.45842 16.31 3.45842 16.0622V3.65535Z" fill="#0DE502"/>
<path d="M17.4187 6.03594C17.0893 5.72731 16.5721 5.74415 16.2634 6.07355L13.1451 9.40178L10.5927 8.07647L10.5622 8.06031C10.4529 8.00192 10.2259 7.88066 9.97288 7.85786C9.76055 7.83873 9.5469 7.8753 9.35302 7.96395C9.12201 8.06958 8.94824 8.25943 8.86456 8.35086L8.84116 8.37625L5.63815 11.7949C5.32952 12.1243 5.34636 12.6415 5.67577 12.9501C6.00517 13.2588 6.5224 13.2419 6.83104 12.9125L9.94936 9.5843L12.5018 10.9096L12.5323 10.9258C12.6416 10.9841 12.8686 11.1054 13.1216 11.1282C13.3339 11.1473 13.5476 11.1108 13.7415 11.0221C13.9725 10.9165 14.1463 10.7266 14.2299 10.6352L14.2533 10.6098L17.4563 7.19121C17.765 6.8618 17.7481 6.34457 17.4187 6.03594Z" fill="#0DE502"/>
</g>
</g>
</svg>
