<svg width="21" height="21" viewBox="0 0 21 21" fill="none" xmlns="http://www.w3.org/2000/svg">
<g id="icon/solid/toolkit">
<g id="Vector">
<path d="M9.46208 3.85856H11.7335C12.4698 3.85856 13.0668 4.45552 13.0668 5.19189V5.47396H14.6665C14.689 5.47396 14.7113 5.47396 14.7335 5.47396V5.19189C14.7335 3.53504 13.3903 2.19189 11.7335 2.19189H9.46208C7.80522 2.19189 6.46208 3.53504 6.46208 5.19189V5.47396H8.12874V5.19189C8.12874 4.45551 8.7257 3.85856 9.46208 3.85856Z" fill="#11B6FC"/>
<path d="M19.1966 9.07338H1.80328C1.81483 8.08228 1.86761 7.49447 2.10886 7.02099C2.3805 6.48786 2.81395 6.05441 3.34708 5.78277C3.95316 5.47396 4.74657 5.47396 6.33338 5.47396H14.6665C16.2534 5.47396 17.0468 5.47396 17.6529 5.78277C18.186 6.05441 18.6194 6.48786 18.8911 7.02099C19.1323 7.49447 19.1851 8.08228 19.1966 9.07338Z" fill="#11B6FC"/>
<path d="M12.6963 10.5567H19.1999V14.3253C19.1999 15.9121 19.1999 16.7055 18.8911 17.3116C18.6194 17.8447 18.186 18.2782 17.6529 18.5498C17.0468 18.8586 16.2534 18.8586 14.6665 18.8586H6.33338C4.74657 18.8586 3.95316 18.8586 3.34708 18.5498C2.81395 18.2782 2.3805 17.8447 2.10886 17.3116C1.80005 16.7055 1.80005 15.9121 1.80005 14.3253V10.5567H8.30364V13.2942C8.30364 13.5703 8.52749 13.7942 8.80364 13.7942H12.1963C12.4724 13.7942 12.6963 13.5703 12.6963 13.2942V10.5567Z" fill="#11B6FC"/>
<path d="M9.63697 10.5567H11.363V12.4609H9.63697V10.5567Z" fill="#11B6FC"/>
</g>
</g>
</svg>
