<svg width="64" height="63" viewBox="0 0 64 63" fill="none" xmlns="http://www.w3.org/2000/svg">
<g id="icon/logo/app_store" filter="url(#filter0_d_3274_1324)">
<path id="Subtract" fill-rule="evenodd" clip-rule="evenodd" d="M21.2646 13.9126C19.8753 13.9126 18.749 15.0468 18.749 16.4459V34.1793C18.749 36.9775 21.0016 39.2459 23.7802 39.2459H40.1315C42.9101 39.2459 45.1627 36.9775 45.1627 34.1793V16.4459C45.1627 15.0468 44.0364 13.9126 42.6471 13.9126H21.2646ZM26.1579 17.3912C26.1155 17.2882 26.0759 17.1842 26.0391 17.0793H27.2513C27.5078 17.6602 27.8684 18.189 28.3153 18.6391C28.7934 19.1206 29.361 19.5025 29.9857 19.7631C30.6104 20.0237 31.28 20.1578 31.9562 20.1578C32.6323 20.1578 33.3019 20.0237 33.9266 19.7631C34.5513 19.5025 35.1189 19.1206 35.597 18.6391C36.044 18.189 36.4045 17.6602 36.661 17.0793H37.8733C37.8365 17.1842 37.7968 17.2882 37.7545 17.3912C37.4391 18.158 36.9768 18.8547 36.394 19.4416C35.8112 20.0285 35.1193 20.4941 34.3579 20.8117C33.5965 21.1293 32.7803 21.2928 31.9562 21.2928C31.132 21.2928 30.3159 21.1293 29.5544 20.8117C28.793 20.4941 28.1011 20.0285 27.5183 19.4416C26.9356 18.8547 26.4733 18.158 26.1579 17.3912ZM27.5634 25.5094C27.5634 25.1596 27.845 24.876 28.1923 24.876H30.7612C31.1086 24.876 31.3901 25.1596 31.3901 25.5094V28.0623C31.3901 28.412 31.1086 28.6956 30.7612 28.6956H28.1923C27.845 28.6956 27.5634 28.412 27.5634 28.0623V25.5094ZM33.151 24.876C32.8037 24.876 32.5221 25.1596 32.5221 25.5094V28.0623C32.5221 28.412 32.8037 28.6956 33.151 28.6956H35.72C36.0673 28.6956 36.3489 28.412 36.3489 28.0623V25.5094C36.3489 25.1596 36.0673 24.876 35.72 24.876H33.151ZM27.5634 30.4689C27.5634 30.1191 27.845 29.8356 28.1923 29.8356H30.7612C31.1086 29.8356 31.3901 30.1191 31.3901 30.4689V33.0218C31.3901 33.3716 31.1086 33.6551 30.7612 33.6551H28.1923C27.845 33.6551 27.5634 33.3716 27.5634 33.0218V30.4689ZM33.151 29.8356C32.8037 29.8356 32.5221 30.1191 32.5221 30.4689V33.0218C32.5221 33.3716 32.8037 33.6551 33.151 33.6551H35.72C36.0673 33.6551 36.3489 33.3716 36.3489 33.0218V30.4689C36.3489 30.1191 36.0673 29.8356 35.72 29.8356H33.151Z" fill="#219BF4"/>
</g>
<defs>
<filter id="filter0_d_3274_1324" x="-2.54857" y="-3.29864" width="69.0073" height="69.0073" filterUnits="userSpaceOnUse" color-interpolation-filters="sRGB">
<feFlood flood-opacity="0" result="BackgroundImageFix"/>
<feColorMatrix in="SourceAlpha" type="matrix" values="0 0 0 0 0 0 0 0 0 0 0 0 0 0 0 0 0 0 127 0" result="hardAlpha"/>
<feOffset dy="4.62591"/>
<feGaussianBlur stdDeviation="9.25183"/>
<feColorMatrix type="matrix" values="0 0 0 0 0.227451 0 0 0 0 0.582824 0 0 0 0 1 0 0 0 0.28 0"/>
<feBlend mode="normal" in2="BackgroundImageFix" result="effect1_dropShadow_3274_1324"/>
<feBlend mode="normal" in="SourceGraphic" in2="effect1_dropShadow_3274_1324" result="shape"/>
</filter>
</defs>
</svg>
