<svg width="196" height="196" viewBox="0 0 196 196" fill="none" xmlns="http://www.w3.org/2000/svg">
<rect x="84.1252" y="67.5559" width="27.8098" height="31.3946" rx="12.7" stroke="url(#paint0_linear_3413_9025)" stroke-width="6.6"/>
<rect x="70.5791" y="84.3689" width="54.9033" height="46.6819" rx="8" fill="url(#paint1_linear_3413_9025)"/>
<mask id="path-3-inside-1_3413_9025" fill="white">
<path fill-rule="evenodd" clip-rule="evenodd" d="M100.825 108.735C102.761 107.725 104.084 105.699 104.084 103.363C104.084 100.02 101.373 97.3091 98.0293 97.3091C94.6856 97.3091 91.975 100.02 91.975 103.363C91.975 105.699 93.2981 107.727 95.2359 108.736L91.9956 116.654C91.5553 117.73 92.3465 118.908 93.509 118.908H102.552C103.715 118.908 104.506 117.73 104.066 116.654L100.825 108.735Z"/>
</mask>
<path fill-rule="evenodd" clip-rule="evenodd" d="M100.825 108.735C102.761 107.725 104.084 105.699 104.084 103.363C104.084 100.02 101.373 97.3091 98.0293 97.3091C94.6856 97.3091 91.975 100.02 91.975 103.363C91.975 105.699 93.2981 107.727 95.2359 108.736L91.9956 116.654C91.5553 117.73 92.3465 118.908 93.509 118.908H102.552C103.715 118.908 104.506 117.73 104.066 116.654L100.825 108.735Z" fill="url(#paint2_linear_3413_9025)"/>
<path d="M100.825 108.735L100.447 108.01L99.7859 108.355L100.068 109.045L100.825 108.735ZM95.2359 108.736L95.9926 109.046L96.2751 108.356L95.6137 108.011L95.2359 108.736ZM91.9956 116.654L92.7523 116.963H92.7523L91.9956 116.654ZM104.066 116.654L103.309 116.963V116.963L104.066 116.654ZM103.266 103.363C103.266 105.382 102.124 107.135 100.447 108.01L101.203 109.46C103.399 108.315 104.901 106.015 104.901 103.363H103.266ZM98.0293 98.1267C100.921 98.1267 103.266 100.471 103.266 103.363H104.901C104.901 99.5681 101.825 96.4915 98.0293 96.4915V98.1267ZM92.7926 103.363C92.7926 100.471 95.1372 98.1267 98.0293 98.1267V96.4915C94.2341 96.4915 91.1574 99.5681 91.1574 103.363H92.7926ZM95.6137 108.011C93.9356 107.137 92.7926 105.383 92.7926 103.363H91.1574C91.1574 106.016 92.6607 108.316 94.8581 109.461L95.6137 108.011ZM92.7523 116.963L95.9926 109.046L94.4792 108.426L91.2389 116.344L92.7523 116.963ZM93.509 118.091C92.9278 118.091 92.5321 117.501 92.7523 116.963L91.2389 116.344C90.5784 117.958 91.7653 119.726 93.509 119.726V118.091ZM102.552 118.091H93.509V119.726H102.552V118.091ZM103.309 116.963C103.529 117.501 103.133 118.091 102.552 118.091V119.726C104.296 119.726 105.483 117.958 104.822 116.344L103.309 116.963ZM100.068 109.045L103.309 116.963L104.822 116.344L101.582 108.425L100.068 109.045Z" fill="url(#paint3_linear_3413_9025)" mask="url(#path-3-inside-1_3413_9025)"/>
<circle cx="98.0308" cy="97.9999" r="62.2054" stroke="url(#paint4_linear_3413_9025)" stroke-opacity="0.6" stroke-width="0.873406"/>
<circle cx="98.0304" cy="97.9999" r="96.6572" stroke="url(#paint5_linear_3413_9025)" stroke-opacity="0.3" stroke-width="0.873406"/>
<defs>
<linearGradient id="paint0_linear_3413_9025" x1="98.0301" y1="64.2559" x2="98.0301" y2="102.25" gradientUnits="userSpaceOnUse">
<stop stop-color="#7AA7FF"/>
<stop offset="1" stop-color="#C6D8FF"/>
</linearGradient>
<linearGradient id="paint1_linear_3413_9025" x1="98.0308" y1="84.3689" x2="98.0308" y2="131.051" gradientUnits="userSpaceOnUse">
<stop stop-color="#94B7FF"/>
<stop offset="1" stop-color="#D6E1FF"/>
</linearGradient>
<linearGradient id="paint2_linear_3413_9025" x1="98.0306" y1="97.3091" x2="98.0306" y2="118.908" gradientUnits="userSpaceOnUse">
<stop stop-color="white"/>
<stop offset="1" stop-color="white" stop-opacity="0.6"/>
</linearGradient>
<linearGradient id="paint3_linear_3413_9025" x1="98.0306" y1="97.3091" x2="98.0306" y2="118.908" gradientUnits="userSpaceOnUse">
<stop stop-color="white"/>
<stop offset="1" stop-color="white" stop-opacity="0"/>
</linearGradient>
<linearGradient id="paint4_linear_3413_9025" x1="49.923" y1="140.169" x2="146.16" y2="59.8765" gradientUnits="userSpaceOnUse">
<stop stop-color="#BECDFF"/>
<stop offset="1" stop-color="#9DADFF" stop-opacity="0"/>
</linearGradient>
<linearGradient id="paint5_linear_3413_9025" x1="23.4643" y1="163.361" x2="172.629" y2="38.9094" gradientUnits="userSpaceOnUse">
<stop stop-color="#9DBEFF"/>
<stop offset="1" stop-color="#9DB3FF" stop-opacity="0"/>
</linearGradient>
</defs>
</svg>
