<svg width="34" height="34" viewBox="0 0 34 34" fill="none" xmlns="http://www.w3.org/2000/svg">
	<path d="M25.4265 6.42114C25.48 6.52666 25.5306 6.63218 25.5785 6.74191C25.857 7.37501 25.9907 8.09815 26.1834 9.14628L26.2327 9.40655C26.4381 10.5208 26.5703 11.2355 26.5703 11.9404C26.566 13.4525 26.1072 14.9284 25.2535 16.1765C24.8553 16.7575 24.3404 17.2724 23.5399 18.073L17.6788 23.934C16.974 24.6389 16.5252 25.0877 16.0778 25.4197C15.9212 25.5361 15.7602 25.6464 15.5952 25.7503C15.9797 26.8393 16.6538 27.8029 17.5449 28.5373C18.4361 29.2718 19.5106 29.7495 20.653 29.9189C21.1158 29.9879 21.6687 29.9879 22.7745 29.9879C23.8818 29.9879 24.4347 29.9879 24.8975 29.9175C26.2449 29.7178 27.4924 29.0902 28.4558 28.1273C29.4192 27.1644 30.0475 25.9172 30.2479 24.57C30.3169 24.1057 30.3169 23.5528 30.3169 22.447V14.3926C30.3169 13.1446 30.3169 12.5214 30.2071 11.9404C29.9721 10.6889 29.3662 9.53698 28.4682 8.63417C28.0518 8.21492 27.5369 7.86039 26.5084 7.15413C26.0638 6.84743 25.7178 6.60967 25.4251 6.42255L25.4265 6.42114Z" fill="#219BF4"/>
	<path d="M13.658 4.98178C13.1699 5.31521 12.7295 5.75557 11.846 6.63909L6.1509 12.3342C5.36868 13.1164 4.97756 13.5075 4.699 13.8846C3.88738 14.9789 3.44922 16.3052 3.44922 17.6677C3.44922 19.0301 3.88738 20.3565 4.699 21.4508C4.97756 21.8264 5.36868 22.2175 6.1509 22.9998C6.93313 23.782 7.32425 24.1731 7.69988 24.4517C8.79421 25.2633 10.1205 25.7014 11.483 25.7014C12.8454 25.7014 14.1718 25.2633 15.2661 24.4517C15.6432 24.1731 16.0343 23.782 16.8165 22.9998L22.5102 17.3047C23.3923 16.4226 23.8326 15.9822 24.1675 15.4926C24.8864 14.4417 25.2719 13.1994 25.2761 11.9262C25.2775 11.3353 25.1635 10.7205 24.937 9.49225C24.7176 8.30766 24.6078 7.71536 24.3855 7.20888C23.9056 6.11625 23.033 5.24362 21.9404 4.76371C21.4339 4.54143 20.843 4.43169 19.6556 4.21222C18.4288 3.98571 17.8154 3.87175 17.2245 3.87456C15.9511 3.87759 14.708 4.26335 13.6566 4.98178H13.658ZM18.841 11.8994C19.0535 11.9058 19.2651 11.8694 19.4632 11.7924C19.6614 11.7155 19.8421 11.5996 19.9946 11.4515C20.1471 11.3035 20.2684 11.1263 20.3512 10.9305C20.434 10.7347 20.4766 10.5243 20.4766 10.3118C20.4766 10.0992 20.434 9.88879 20.3512 9.69302C20.2684 9.49724 20.1471 9.32008 19.9946 9.17203C19.8421 9.02397 19.6614 8.90804 19.4632 8.8311C19.2651 8.75416 19.0535 8.71777 18.841 8.7241C18.4281 8.73639 18.0362 8.90905 17.7485 9.20545C17.4608 9.50186 17.2999 9.89869 17.2999 10.3118C17.2999 10.7248 17.4608 11.1217 17.7485 11.4181C18.0362 11.7145 18.4281 11.8871 18.841 11.8994Z" fill="#ADD4FF"/>
	<path d="M17.2524 10.3125C17.2524 10.5211 17.2935 10.7276 17.3734 10.9203C17.4532 11.113 17.5702 11.2881 17.7177 11.4356C17.8652 11.5831 18.0403 11.7001 18.233 11.78C18.4257 11.8598 18.6322 11.9009 18.8408 11.9009C19.0494 11.9009 19.2559 11.8598 19.4487 11.78C19.6414 11.7001 19.8165 11.5831 19.964 11.4356C20.1115 11.2881 20.2285 11.113 20.3083 10.9203C20.3881 10.7276 20.4292 10.5211 20.4292 10.3125C20.4292 10.1039 20.3881 9.89736 20.3083 9.70465C20.2285 9.51194 20.1115 9.33684 19.964 9.18934C19.8165 9.04185 19.6414 8.92485 19.4487 8.84503C19.2559 8.76521 19.0494 8.72412 18.8408 8.72412C18.6322 8.72412 18.4257 8.76521 18.233 8.84503C18.0403 8.92485 17.8652 9.04185 17.7177 9.18934C17.5702 9.33684 17.4532 9.51194 17.3734 9.70465C17.2935 9.89736 17.2524 10.1039 17.2524 10.3125Z" fill="#219BF4"/>
	</svg>
	