<svg width="16" height="16" viewBox="0 0 16 16" fill="none" xmlns="http://www.w3.org/2000/svg">
	<path d="M5.03101 2.27576C5.1709 1.71039 5.91357 1.69346 6.09612 2.21421L8.07044 10.7259L9.31115 6.33201C9.44764 5.84696 10.0572 5.76678 10.3124 6.17072L11.5861 8.77997H13.7437C14.0582 8.77997 14.3132 9.03535 14.3132 9.35032C14.3132 9.68313 14.0438 9.95296 13.7114 9.95296H11.2437C11.058 9.95309 10.8845 9.85663 10.7803 9.69547L9.98623 8.07444L8.55352 13.1499C8.39788 13.7005 7.67201 13.7046 7.49353 13.191L5.55372 4.83054L4.39189 9.51423C4.33362 9.74901 4.14345 9.92198 3.9134 9.94941L1.44432 9.95217C1.13381 9.95256 0.881836 9.70059 0.881836 9.38956V9.32814C0.881836 9.02538 1.12699 8.77983 1.42935 8.77983H3.41706L5.03101 2.27576Z" fill="#485264"/>
	</svg>
	