<svg width="16" height="16" viewBox="0 0 16 16" fill="none" xmlns="http://www.w3.org/2000/svg">
	<path fill-rule="evenodd" clip-rule="evenodd" d="M6.59231 5.51482C6.23042 5.51482 5.89601 5.70789 5.71507 6.0213L4.70999 7.76214C4.52904 8.07555 4.52904 8.46169 4.70999 8.7751L5.71507 10.5159C5.89601 10.8293 6.23042 11.0224 6.59231 11.0224H8.60246C8.96436 11.0224 9.29876 10.8293 9.47971 10.5159L10.4848 8.7751C10.6657 8.46169 10.6657 8.07555 10.4848 7.76214L9.47971 6.0213C9.29876 5.70789 8.96436 5.51482 8.60246 5.51482H6.59231ZM5.87965 8.26862L6.73852 6.78102H8.45626L9.31512 8.26862L8.45626 9.75622H6.73852L5.87965 8.26862Z" fill="#485264"/>
	<path fill-rule="evenodd" clip-rule="evenodd" d="M13.9401 7.19235C14.3246 7.85835 14.3246 8.67889 13.9401 9.34489L11.7008 13.2234C11.3163 13.8894 10.6057 14.2997 9.83667 14.2997H5.35812C4.58909 14.2997 3.87848 13.8894 3.49397 13.2234L1.25469 9.34489C0.87018 8.67889 0.87018 7.85835 1.25469 7.19235L3.49397 3.31382C3.87848 2.64782 4.58909 2.23755 5.35812 2.23755H9.83667C10.6057 2.23755 11.3163 2.64782 11.7008 3.31382L13.9401 7.19235ZM12.8435 8.71179L10.6043 12.5903C10.4459 12.8646 10.1533 13.0335 9.83667 13.0335H5.35812C5.04146 13.0335 4.74886 12.8646 4.59053 12.5903L2.35125 8.71179C2.19292 8.43756 2.19292 8.09969 2.35125 7.82545L4.59053 3.94691C4.74886 3.67268 5.04146 3.50375 5.35812 3.50375L9.83667 3.50375C10.1533 3.50375 10.4459 3.67268 10.6043 3.94691L12.8435 7.82545C13.0019 8.09969 13.0019 8.43756 12.8435 8.71179Z" fill="#485264"/>
	</svg>
	