<?xml version="1.0" standalone="no"?><!DOCTYPE svg PUBLIC "-//W3C//DTD SVG 1.1//EN" "http://www.w3.org/Graphics/SVG/1.1/DTD/svg11.dtd"><svg t="1736305192607" class="icon" viewBox="0 0 1024 1024" version="1.1" xmlns="http://www.w3.org/2000/svg" p-id="44048" xmlns:xlink="http://www.w3.org/1999/xlink" width="2000" height="2000"><path d="M833.536 118.04672h-43.4176v97.64864h-153.72288V118.04672H357.33504v97.64864H203.44832V118.04672H160.1536c-52.8384 0-96.13312 43.95008-96.13312 97.64864v683.25376c0 53.6576 43.29472 97.56672 96.13312 97.56672h673.3824c52.8384 0 96.0512-43.86816 96.0512-97.56672V215.69536c0-53.69856-43.25376-97.64864-96.09216-97.64864z m19.16928 790.65088H140.9024V348.28288h711.80288v560.41472zM314.08128 20.48H246.74304v165.96992h67.29728V20.48h0.04096z m432.82432 0v165.96992H679.5264V20.48h67.33824z" fill="#3b4bff" p-id="44049"></path><path d="M410.91072 474.7264h327.68v327.59808h-327.68v-327.68z" fill="#3b4bff" fill-opacity=".399" p-id="44050"></path></svg>