<?xml version="1.0" standalone="no"?><!DOCTYPE svg PUBLIC "-//W3C//DTD SVG 1.1//EN" "http://www.w3.org/Graphics/SVG/1.1/DTD/svg11.dtd"><svg t="1749614585043" class="icon" viewBox="0 0 1024 1024" version="1.1" xmlns="http://www.w3.org/2000/svg" p-id="4951" xmlns:xlink="http://www.w3.org/1999/xlink" width="2000" height="2000"><path d="M365.952 322.047m-93.895 0a93.895 93.895 0 1 0 187.79 0 93.895 93.895 0 1 0-187.79 0Z" fill="#3D75FF" p-id="4952"></path><path d="M369.403 309.11m-93.895 0a93.895 93.895 0 1 0 187.79 0 93.895 93.895 0 1 0-187.79 0Z" fill="#3C74FE" p-id="4953"></path><path d="M373.865 296.618m-93.895 0a93.895 93.895 0 1 0 187.79 0 93.895 93.895 0 1 0-187.79 0Z" fill="#3C73FC" p-id="4954"></path><path d="M379.289 284.619m-93.895 0a93.895 93.895 0 1 0 187.79 0 93.895 93.895 0 1 0-187.79 0Z" fill="#3B72FB" p-id="4955"></path><path d="M385.631 273.16m-93.895 0a93.895 93.895 0 1 0 187.79 0 93.895 93.895 0 1 0-187.79 0Z" fill="#3B71FA" p-id="4956"></path><path d="M392.841 262.287m-93.895 0a93.895 93.895 0 1 0 187.79 0 93.895 93.895 0 1 0-187.79 0Z" fill="#3A70F8" p-id="4957"></path><path d="M400.875 252.047m-93.895 0a93.895 93.895 0 1 0 187.79 0 93.895 93.895 0 1 0-187.79 0Z" fill="#3A6FF7" p-id="4958"></path><path d="M409.684 242.488m-93.895 0a93.895 93.895 0 1 0 187.79 0 93.895 93.895 0 1 0-187.79 0Z" fill="#396DF6" p-id="4959"></path><path d="M419.222 233.655m-93.895 0a93.895 93.895 0 1 0 187.79 0 93.895 93.895 0 1 0-187.79 0Z" fill="#396CF4" p-id="4960"></path><path d="M429.441 225.597m-93.895 0a93.895 93.895 0 1 0 187.79 0 93.895 93.895 0 1 0-187.79 0Z" fill="#386BF3" p-id="4961"></path><path d="M440.295 218.361m-93.895 0a93.895 93.895 0 1 0 187.79 0 93.895 93.895 0 1 0-187.79 0Z" fill="#386AF1" p-id="4962"></path><path d="M451.738 211.992m-93.895 0a93.895 93.895 0 1 0 187.79 0 93.895 93.895 0 1 0-187.79 0Z" fill="#3769F0" p-id="4963"></path><path d="M463.721 206.538m-93.895 0a93.895 93.895 0 1 0 187.79 0 93.895 93.895 0 1 0-187.79 0Z" fill="#3668EF" p-id="4964"></path><path d="M476.198 202.047m-93.895 0a93.895 93.895 0 1 0 187.79 0 93.895 93.895 0 1 0-187.79 0Z" fill="#3667ED" p-id="4965"></path><path d="M489.122 198.564m-93.895 0a93.895 93.895 0 1 0 187.79 0 93.895 93.895 0 1 0-187.79 0Z" fill="#3566EC" p-id="4966"></path><path d="M502.446 196.137m-93.895 0a93.895 93.895 0 1 0 187.79 0 93.895 93.895 0 1 0-187.79 0Z" fill="#3565EB" p-id="4967"></path><path d="M516.123 194.813m-93.895 0a93.895 93.895 0 1 0 187.79 0 93.895 93.895 0 1 0-187.79 0Z" fill="#3464E9" p-id="4968"></path><path d="M530.039 194.638m-93.895 0a93.895 93.895 0 1 0 187.79 0 93.895 93.895 0 1 0-187.79 0Z" fill="#3463E8" p-id="4969"></path><path d="M543.722 195.618m-93.895 0a93.895 93.895 0 1 0 187.79 0 93.895 93.895 0 1 0-187.79 0Z" fill="#3362E7" p-id="4970"></path><path d="M557.075 197.708m-93.895 0a93.895 93.895 0 1 0 187.79 0 93.895 93.895 0 1 0-187.79 0Z" fill="#3360E5" p-id="4971"></path><path d="M570.052 200.861m-93.895 0a93.895 93.895 0 1 0 187.79 0 93.895 93.895 0 1 0-187.79 0Z" fill="#325FE4" p-id="4972"></path><path d="M582.606 205.031m-93.895 0a93.895 93.895 0 1 0 187.79 0 93.895 93.895 0 1 0-187.79 0Z" fill="#325EE3" p-id="4973"></path><path d="M594.69 210.171m-93.895 0a93.895 93.895 0 1 0 187.79 0 93.895 93.895 0 1 0-187.79 0Z" fill="#315DE1" p-id="4974"></path><path d="M606.258 216.233m-93.895 0a93.895 93.895 0 1 0 187.79 0 93.895 93.895 0 1 0-187.79 0Z" fill="#305CE0" p-id="4975"></path><path d="M617.261 223.17m-93.895 0a93.895 93.895 0 1 0 187.79 0 93.895 93.895 0 1 0-187.79 0Z" fill="#305BDE" p-id="4976"></path><path d="M627.655 230.935m-93.895 0a93.895 93.895 0 1 0 187.79 0 93.895 93.895 0 1 0-187.79 0Z" fill="#2F5ADD" p-id="4977"></path><path d="M637.391 239.482m-93.895 0a93.895 93.895 0 1 0 187.79 0 93.895 93.895 0 1 0-187.79 0Z" fill="#2F59DC" p-id="4978"></path><path d="M646.423 248.764m-93.895 0a93.895 93.895 0 1 0 187.79 0 93.895 93.895 0 1 0-187.79 0Z" fill="#2E58DA" p-id="4979"></path><path d="M654.704 258.732m-93.895 0a93.895 93.895 0 1 0 187.79 0 93.895 93.895 0 1 0-187.79 0Z" fill="#2E57D9" p-id="4980"></path><path d="M662.188 269.341m-93.895 0a93.895 93.895 0 1 0 187.79 0 93.895 93.895 0 1 0-187.79 0Z" fill="#2D56D8" p-id="4981"></path><path d="M668.827 280.543m-93.895 0a93.895 93.895 0 1 0 187.79 0 93.895 93.895 0 1 0-187.79 0Z" fill="#2D55D6" p-id="4982"></path><path d="M674.574 292.29m-93.895 0a93.895 93.895 0 1 0 187.79 0 93.895 93.895 0 1 0-187.79 0Z" fill="#2C54D5" p-id="4983"></path><path d="M679.384 304.538m-93.895 0a93.895 93.895 0 1 0 187.79 0 93.895 93.895 0 1 0-187.79 0Z" fill="#2C52D4" p-id="4984"></path><path d="M683.209 317.237m-93.895 0a93.895 93.895 0 1 0 187.79 0 93.895 93.895 0 1 0-187.79 0Z" fill="#2B51D2" p-id="4985"></path><path d="M686.002 330.341m-93.895 0a93.895 93.895 0 1 0 187.79 0 93.895 93.895 0 1 0-187.79 0Z" fill="#2A50D1" p-id="4986"></path><path d="M687.716 343.803m-93.895 0a93.895 93.895 0 1 0 187.79 0 93.895 93.895 0 1 0-187.79 0Z" fill="#2A4FD0" p-id="4987"></path><path d="M688.305 357.577m-93.895 0a93.895 93.895 0 1 0 187.79 0 93.895 93.895 0 1 0-187.79 0Z" fill="#294ECE" p-id="4988"></path><path d="M687.732 371.464m-93.895 0a93.895 93.895 0 1 0 187.79 0 93.895 93.895 0 1 0-187.79 0Z" fill="#294DCD" p-id="4989"></path><path d="M686.024 385.035m-93.895 0a93.895 93.895 0 1 0 187.79 0 93.895 93.895 0 1 0-187.79 0Z" fill="#284CCB" p-id="4990"></path><path d="M683.228 398.236m-93.895 0a93.895 93.895 0 1 0 187.79 0 93.895 93.895 0 1 0-187.79 0Z" fill="#284BCA" p-id="4991"></path><path d="M679.39 411.02m-93.895 0a93.895 93.895 0 1 0 187.79 0 93.895 93.895 0 1 0-187.79 0Z" fill="#274AC9" p-id="4992"></path><path d="M674.558 423.341m-93.895 0a93.895 93.895 0 1 0 187.79 0 93.895 93.895 0 1 0-187.79 0Z" fill="#2749C7" p-id="4993"></path><path d="M668.779 435.15m-93.895 0a93.895 93.895 0 1 0 187.79 0 93.895 93.895 0 1 0-187.79 0Z" fill="#2648C6" p-id="4994"></path><path d="M662.1 446.402m-93.895 0a93.895 93.895 0 1 0 187.79 0 93.895 93.895 0 1 0-187.79 0Z" fill="#2647C5" p-id="4995"></path><path d="M654.568 457.048m-93.895 0a93.895 93.895 0 1 0 187.79 0 93.895 93.895 0 1 0-187.79 0Z" fill="#2546C3" p-id="4996"></path><path d="M646.23 467.043m-93.895 0a93.895 93.895 0 1 0 187.79 0 93.895 93.895 0 1 0-187.79 0Z" fill="#2444C2" p-id="4997"></path><path d="M637.133 476.339m-93.895 0a93.895 93.895 0 1 0 187.79 0 93.895 93.895 0 1 0-187.79 0Z" fill="#2443C1" p-id="4998"></path><path d="M627.324 484.888m-93.895 0a93.895 93.895 0 1 0 187.79 0 93.895 93.895 0 1 0-187.79 0Z" fill="#2342BF" p-id="4999"></path><path d="M616.85 492.645m-93.895 0a93.895 93.895 0 1 0 187.79 0 93.895 93.895 0 1 0-187.79 0Z" fill="#2341BE" p-id="5000"></path><path d="M605.759 499.561m-93.895 0a93.895 93.895 0 1 0 187.79 0 93.895 93.895 0 1 0-187.79 0Z" fill="#2240BD" p-id="5001"></path><path d="M599.204 509.646m-93.895 0a93.895 93.895 0 1 0 187.79 0 93.895 93.895 0 1 0-187.79 0Z" fill="#223FBB" p-id="5002"></path><path d="M608.741 518.05m-93.895 0a93.895 93.895 0 1 0 187.79 0 93.895 93.895 0 1 0-187.79 0Z" fill="#213EBA" p-id="5003"></path><path d="M619.813 524.995m-93.895 0a93.895 93.895 0 1 0 187.79 0 93.895 93.895 0 1 0-187.79 0Z" fill="#213DB8" p-id="5004"></path><path d="M630.285 532.755m-93.895 0a93.895 93.895 0 1 0 187.79 0 93.895 93.895 0 1 0-187.79 0Z" fill="#203CB7" p-id="5005"></path><path d="M640.111 541.285m-93.895 0a93.895 93.895 0 1 0 187.79 0 93.895 93.895 0 1 0-187.79 0Z" fill="#203BB6" p-id="5006"></path><path d="M649.248 550.542m-93.895 0a93.895 93.895 0 1 0 187.79 0 93.895 93.895 0 1 0-187.79 0Z" fill="#1F3AB4" p-id="5007"></path><path d="M657.652 560.479m-93.895 0a93.895 93.895 0 1 0 187.79 0 93.895 93.895 0 1 0-187.79 0Z" fill="#1F39B3" p-id="5008"></path><path d="M665.277 571.055m-93.895 0a93.895 93.895 0 1 0 187.79 0 93.895 93.895 0 1 0-187.79 0Z" fill="#1E37B2" p-id="5009"></path><path d="M672.08 582.223m-93.895 0a93.895 93.895 0 1 0 187.79 0 93.895 93.895 0 1 0-187.79 0Z" fill="#1D36B0" p-id="5010"></path><path d="M678.017 593.941m-93.895 0a93.895 93.895 0 1 0 187.79 0 93.895 93.895 0 1 0-187.79 0Z" fill="#1D35AF" p-id="5011"></path><path d="M683.042 606.163m-93.895 0a93.895 93.895 0 1 0 187.79 0 93.895 93.895 0 1 0-187.79 0Z" fill="#1C34AE" p-id="5012"></path><path d="M687.112 618.845m-93.895 0a93.895 93.895 0 1 0 187.79 0 93.895 93.895 0 1 0-187.79 0Z" fill="#1C33AC" p-id="5013"></path><path d="M690.181 631.943m-93.895 0a93.895 93.895 0 1 0 187.79 0 93.895 93.895 0 1 0-187.79 0Z" fill="#1B32AB" p-id="5014"></path><path d="M692.207 645.412m-93.895 0a93.895 93.895 0 1 0 187.79 0 93.895 93.895 0 1 0-187.79 0Z" fill="#1B31AA" p-id="5015"></path><path d="M693.144 659.209m-93.895 0a93.895 93.895 0 1 0 187.79 0 93.895 93.895 0 1 0-187.79 0Z" fill="#1A30A8" p-id="5016"></path><path d="M692.956 673.113m-93.895 0a93.895 93.895 0 1 0 187.79 0 93.895 93.895 0 1 0-187.79 0Z" fill="#1A2FA7" p-id="5017"></path><path d="M691.662 686.727m-93.895 0a93.895 93.895 0 1 0 187.79 0 93.895 93.895 0 1 0-187.79 0Z" fill="#192EA5" p-id="5018"></path><path d="M689.308 700.003m-93.895 0a93.895 93.895 0 1 0 187.79 0 93.895 93.895 0 1 0-187.79 0Z" fill="#192DA4" p-id="5019"></path><path d="M685.935 712.899m-93.895 0a93.895 93.895 0 1 0 187.79 0 93.895 93.895 0 1 0-187.79 0Z" fill="#182CA3" p-id="5020"></path><path d="M681.588 725.37m-93.895 0a93.895 93.895 0 1 0 187.79 0 93.895 93.895 0 1 0-187.79 0Z" fill="#172BA1" p-id="5021"></path><path d="M676.311 737.372m-93.895 0a93.895 93.895 0 1 0 187.79 0 93.895 93.895 0 1 0-187.79 0Z" fill="#1729A0" p-id="5022"></path><path d="M670.146 748.864m-93.895 0a93.895 93.895 0 1 0 187.79 0 93.895 93.895 0 1 0-187.79 0Z" fill="#16289F" p-id="5023"></path><path d="M663.137 759.799m-93.895 0a93.895 93.895 0 1 0 187.79 0 93.895 93.895 0 1 0-187.79 0Z" fill="#16279D" p-id="5024"></path><path d="M655.329 770.136m-93.895 0a93.895 93.895 0 1 0 187.79 0 93.895 93.895 0 1 0-187.79 0Z" fill="#15269C" p-id="5025"></path><path d="M646.763 779.83m-93.895 0a93.895 93.895 0 1 0 187.79 0 93.895 93.895 0 1 0-187.79 0Z" fill="#15259B" p-id="5026"></path><path d="M637.485 788.838m-93.895 0a93.895 93.895 0 1 0 187.79 0 93.895 93.895 0 1 0-187.79 0Z" fill="#142499" p-id="5027"></path><path d="M627.537 797.117m-93.895 0a93.895 93.895 0 1 0 187.79 0 93.895 93.895 0 1 0-187.79 0Z" fill="#142398" p-id="5028"></path><path d="M616.963 804.621m-93.895 0a93.895 93.895 0 1 0 187.79 0 93.895 93.895 0 1 0-187.79 0Z" fill="#132297" p-id="5029"></path><path d="M605.806 811.309m-93.895 0a93.895 93.895 0 1 0 187.79 0 93.895 93.895 0 1 0-187.79 0Z" fill="#132195" p-id="5030"></path><path d="M594.11 817.136m-93.895 0a93.895 93.895 0 1 0 187.79 0 93.895 93.895 0 1 0-187.79 0Z" fill="#122094" p-id="5031"></path><path d="M581.919 822.059m-93.895 0a93.895 93.895 0 1 0 187.79 0 93.895 93.895 0 1 0-187.79 0Z" fill="#111F92" p-id="5032"></path><path d="M569.276 826.034m-93.895 0a93.895 93.895 0 1 0 187.79 0 93.895 93.895 0 1 0-187.79 0Z" fill="#111E91" p-id="5033"></path><path d="M556.225 829.017m-93.895 0a93.895 93.895 0 1 0 187.79 0 93.895 93.895 0 1 0-187.79 0Z" fill="#101D90" p-id="5034"></path><path d="M542.808 830.966m-93.895 0a93.895 93.895 0 1 0 187.79 0 93.895 93.895 0 1 0-187.79 0Z" fill="#101B8E" p-id="5035"></path><path d="M529.071 831.835m-93.895 0a93.895 93.895 0 1 0 187.79 0 93.895 93.895 0 1 0-187.79 0Z" fill="#0F1A8D" p-id="5036"></path><path d="M515.141 831.585m-93.895 0a93.895 93.895 0 1 0 187.79 0 93.895 93.895 0 1 0-187.79 0Z" fill="#0F198C" p-id="5037"></path><path d="M501.47 830.221m-93.895 0a93.895 93.895 0 1 0 187.79 0 93.895 93.895 0 1 0-187.79 0Z" fill="#0E188A" p-id="5038"></path><path d="M488.143 827.786m-93.895 0a93.895 93.895 0 1 0 187.79 0 93.895 93.895 0 1 0-187.79 0Z" fill="#0E1789" p-id="5039"></path><path d="M475.205 824.324m-93.895 0a93.895 93.895 0 1 0 187.79 0 93.895 93.895 0 1 0-187.79 0Z" fill="#0D1688" p-id="5040"></path><path d="M462.699 819.881m-93.895 0a93.895 93.895 0 1 0 187.79 0 93.895 93.895 0 1 0-187.79 0Z" fill="#0D1586" p-id="5041"></path><path d="M450.67 814.5m-93.895 0a93.895 93.895 0 1 0 187.79 0 93.895 93.895 0 1 0-187.79 0Z" fill="#0C1485" p-id="5042"></path><path d="M439.162 808.226m-93.895 0a93.895 93.895 0 1 0 187.79 0 93.895 93.895 0 1 0-187.79 0Z" fill="#0B1384" p-id="5043"></path><path d="M428.22 801.103m-93.895 0a93.895 93.895 0 1 0 187.79 0 93.895 93.895 0 1 0-187.79 0Z" fill="#0B1282" p-id="5044"></path><path d="M417.888 793.175m-93.895 0a93.895 93.895 0 1 0 187.79 0 93.895 93.895 0 1 0-187.79 0Z" fill="#0A1181" p-id="5045"></path><path d="M408.21 784.487m-93.895 0a93.895 93.895 0 1 0 187.79 0 93.895 93.895 0 1 0-187.79 0Z" fill="#0A107F" p-id="5046"></path><path d="M399.23 775.083m-93.895 0a93.895 93.895 0 1 0 187.79 0 93.895 93.895 0 1 0-187.79 0Z" fill="#090E7E" p-id="5047"></path><path d="M390.993 765.006m-93.895 0a93.895 93.895 0 1 0 187.79 0 93.895 93.895 0 1 0-187.79 0Z" fill="#090D7D" p-id="5048"></path><path d="M383.543 754.302m-93.895 0a93.895 93.895 0 1 0 187.79 0 93.895 93.895 0 1 0-187.79 0Z" fill="#080C7B" p-id="5049"></path><path d="M376.924 743.015m-93.895 0a93.895 93.895 0 1 0 187.79 0 93.895 93.895 0 1 0-187.79 0Z" fill="#080B7A" p-id="5050"></path><path d="M371.181 731.189m-93.895 0a93.895 93.895 0 1 0 187.79 0 93.895 93.895 0 1 0-187.79 0Z" fill="#070A79" p-id="5051"></path><path d="M366.358 718.869m-93.895 0a93.895 93.895 0 1 0 187.79 0 93.895 93.895 0 1 0-187.79 0Z" fill="#070977" p-id="5052"></path><path d="M362.499 706.098m-93.895 0a93.895 93.895 0 1 0 187.79 0 93.895 93.895 0 1 0-187.79 0Z" fill="#060876" p-id="5053"></path></svg>