<svg width="16" height="16" viewBox="0 0 16 16" fill="none" xmlns="http://www.w3.org/2000/svg">
	<path fill-rule="evenodd" clip-rule="evenodd" d="M7.59718 2.66415C4.69638 2.66415 2.34481 5.01571 2.34481 7.91652C2.34481 10.8173 4.69638 13.1689 7.59718 13.1689C10.498 13.1689 12.8496 10.8173 12.8496 7.91652C12.8496 5.01571 10.498 2.66415 7.59718 2.66415ZM1.07861 7.91652C1.07861 4.31641 3.99708 1.39795 7.59718 1.39795C11.1973 1.39795 14.1157 4.31641 14.1157 7.91652C14.1157 11.5166 11.1973 14.4351 7.59718 14.4351C3.99708 14.4351 1.07861 11.5166 1.07861 7.91652ZM7.59718 3.75214C7.94683 3.75214 8.23028 4.03558 8.23028 4.38524V7.52524L10.2345 8.52735C10.5472 8.68372 10.674 9.064 10.5176 9.37674C10.3613 9.68948 9.98097 9.81624 9.66824 9.65987L7.31405 8.48278C7.09957 8.37554 6.96408 8.15632 6.96408 7.91652V4.38524C6.96408 4.03558 7.24753 3.75214 7.59718 3.75214Z" fill="#485264"/>
	</svg>
	