<svg width="16" height="16" viewBox="0 0 16 16" fill="none" xmlns="http://www.w3.org/2000/svg">
	<g clip-path="url(#clip0_474_449)">
	<path fill-rule="evenodd" clip-rule="evenodd" d="M5.50785 1.62577C5.50785 1.27612 5.7913 0.992676 6.14095 0.992676C6.4906 0.992676 6.77405 1.27612 6.77405 1.62577V2.6197H8.42011V1.62577C8.42011 1.27612 8.70356 0.992676 9.05321 0.992676C9.40286 0.992676 9.68631 1.27612 9.68631 1.62577V2.6197H10.2121C11.5408 2.6197 12.6179 3.69681 12.6179 5.02548V5.55131H13.6118C13.9615 5.55131 14.2449 5.83476 14.2449 6.18441C14.2449 6.53406 13.9615 6.81751 13.6118 6.81751H12.6179V8.46355H13.6118C13.9615 8.46355 14.2449 8.747 14.2449 9.09665C14.2449 9.4463 13.9615 9.72974 13.6118 9.72974H12.6179V10.2556C12.6179 11.5842 11.5408 12.6613 10.2121 12.6613H9.68631V13.6553C9.68631 14.0049 9.40286 14.2884 9.05321 14.2884C8.70356 14.2884 8.42011 14.0049 8.42011 13.6553V12.6613H6.77405V13.6553C6.77405 14.0049 6.4906 14.2884 6.14095 14.2884C5.7913 14.2884 5.50785 14.0049 5.50785 13.6553V12.6613H4.982C3.65333 12.6613 2.57623 11.5842 2.57623 10.2556V9.72974H1.58232C1.23267 9.72974 0.949219 9.4463 0.949219 9.09665C0.949219 8.747 1.23267 8.46355 1.58232 8.46355H2.57623V6.81751H1.58232C1.23267 6.81751 0.949219 6.53406 0.949219 6.18441C0.949219 5.83476 1.23267 5.55131 1.58232 5.55131H2.57623V5.02548C2.57623 3.69681 3.65333 2.6197 4.982 2.6197H5.50785V1.62577ZM4.982 3.8859C4.35263 3.8859 3.84242 4.39611 3.84242 5.02548V10.2556C3.84242 10.8849 4.35263 11.3951 4.982 11.3951H10.2121C10.8415 11.3951 11.3517 10.8849 11.3517 10.2556V5.02548C11.3517 4.39611 10.8415 3.8859 10.2121 3.8859H4.982Z" fill="#485264"/>
	</g>
	<defs>
	<clipPath id="clip0_474_449">
	<rect width="15.1944" height="15.1944" fill="white" transform="translate(0 0.0432129)"/>
	</clipPath>
	</defs>
	</svg>
	