<svg width="16" height="16" viewBox="0 0 16 16" fill="none" xmlns="http://www.w3.org/2000/svg">
	<path d="M4.88586 5.00361C4.88586 4.65396 5.1693 4.37051 5.51895 4.37051C5.86861 4.37051 6.15205 4.65396 6.15205 5.00361V6.26981C6.15205 6.61946 5.86861 6.9029 5.51895 6.9029C5.1693 6.9029 4.88586 6.61946 4.88586 6.26981V5.00361Z" fill="#485264"/>
	<path d="M8.20388 4.37051C7.85423 4.37051 7.57079 4.65396 7.57079 5.00361V6.26981C7.57079 6.61946 7.85423 6.9029 8.20388 6.9029C8.55353 6.9029 8.83698 6.61946 8.83698 6.26981V5.00361C8.83698 4.65396 8.55353 4.37051 8.20388 4.37051Z" fill="#485264"/>
	<path fill-rule="evenodd" clip-rule="evenodd" d="M2.18018 3.56052C2.18018 2.32936 3.17823 1.3313 4.4094 1.3313H8.25573C8.84696 1.3313 9.41397 1.56616 9.83203 1.98422L12.3613 4.51351C12.7794 4.93157 13.0142 5.49858 13.0142 6.08981V11.7692C13.0142 13.0003 12.0162 13.9984 10.785 13.9984H4.4094C3.17823 13.9984 2.18018 13.0003 2.18018 11.7692V3.56052ZM4.4094 2.5975C3.87753 2.5975 3.44637 3.02866 3.44637 3.56052V11.7692C3.44637 12.301 3.87753 12.7322 4.4094 12.7322H10.785C11.3169 12.7322 11.748 12.301 11.748 11.7692V6.08981C11.748 5.8344 11.6466 5.58945 11.466 5.40884L8.93669 2.87956C8.75609 2.69896 8.51114 2.5975 8.25573 2.5975H4.4094Z" fill="#485264"/>
	</svg>
	