<svg width="16" height="16" viewBox="0 0 16 16" fill="none" xmlns="http://www.w3.org/2000/svg">
	<path d="M3.73525 5.83587C3.73525 5.48622 4.0187 5.20277 4.36835 5.20277C4.718 5.20277 5.00145 5.48622 5.00145 5.83587V6.72221C5.00145 7.07186 4.718 7.3553 4.36835 7.3553C4.0187 7.3553 3.73525 7.07186 3.73525 6.72221V5.83587Z" fill="#485264"/>
	<path d="M5.88776 5.83587C5.88776 5.48622 6.17121 5.20277 6.52086 5.20277C6.87051 5.20277 7.15396 5.48622 7.15396 5.83587V6.72221C7.15396 7.07186 6.87051 7.3553 6.52086 7.3553C6.17121 7.3553 5.88776 7.07186 5.88776 6.72221V5.83587Z" fill="#485264"/>
	<path d="M8.04031 5.83587C8.04031 5.48622 8.32376 5.20277 8.67341 5.20277C9.02306 5.20277 9.30651 5.48622 9.30651 5.83587V6.72221C9.30651 7.07186 9.02306 7.3553 8.67341 7.3553C8.32376 7.3553 8.04031 7.07186 8.04031 6.72221V5.83587Z" fill="#485264"/>
	<path d="M10.1928 5.83587C10.1928 5.48622 10.4763 5.20277 10.8259 5.20277C11.1756 5.20277 11.459 5.48622 11.459 5.83587V6.72221C11.459 7.07186 11.1756 7.3553 10.8259 7.3553C10.4763 7.3553 10.1928 7.07186 10.1928 6.72221V5.83587Z" fill="#485264"/>
	<path fill-rule="evenodd" clip-rule="evenodd" d="M2.53231 2.92163C1.83301 2.92163 1.26611 3.48853 1.26611 4.18783V9.01313C1.26611 9.71243 1.83301 10.2793 2.53231 10.2793H3.16569C3.25831 10.2793 3.34355 10.3299 3.38794 10.4112L4.46807 12.3891C4.69004 12.7955 5.11622 13.0484 5.57935 13.0484H9.47313C9.93626 13.0484 10.3624 12.7955 10.5844 12.3891L11.6645 10.4112C11.7089 10.3299 11.7942 10.2793 11.8868 10.2793H12.6619C13.3612 10.2793 13.9281 9.71243 13.9281 9.01313V4.18783C13.9281 3.48853 13.3612 2.92163 12.6619 2.92163H2.53231ZM4.24719 9.34279C4.1362 9.13956 3.92311 9.01313 3.69155 9.01313H2.78555C2.64569 9.01313 2.53231 8.89975 2.53231 8.75989V4.44107C2.53231 4.30121 2.64569 4.18783 2.78555 4.18783L12.4086 4.18783C12.5485 4.18783 12.6619 4.30121 12.6619 4.44107V8.75989C12.6619 8.89975 12.5485 9.01313 12.4086 9.01313H11.3609C11.1294 9.01313 10.9163 9.13956 10.8053 9.34279L9.58115 11.5844C9.51456 11.7063 9.3867 11.7822 9.24776 11.7822H5.80472C5.66578 11.7822 5.53793 11.7063 5.47133 11.5844L4.24719 9.34279Z" fill="#485264"/>
	</svg>
	