<svg width="16" height="16" viewBox="0 0 16 16" fill="none" xmlns="http://www.w3.org/2000/svg">
	<path fill-rule="evenodd" clip-rule="evenodd" d="M5.5804 2.61503C5.61215 2.61505 5.64432 2.61507 5.67693 2.61507H9.51786C9.55047 2.61507 9.58264 2.61505 9.61439 2.61503C10.2017 2.61464 10.6445 2.61434 11.0479 2.75348C11.4027 2.87588 11.726 3.07563 11.9941 3.33828C12.299 3.63687 12.4967 4.03304 12.759 4.55852C12.7732 4.58693 12.7876 4.61572 12.8022 4.64489L14.1738 7.38819C14.1794 7.39926 14.1848 7.41018 14.1902 7.42097C14.2941 7.62867 14.3727 7.78575 14.4293 7.95378C14.4792 8.10227 14.5153 8.25507 14.537 8.41021C14.5616 8.58578 14.5615 8.76143 14.5615 8.99366C14.5615 9.00573 14.5615 9.01796 14.5615 9.03034V10.365C14.5615 10.8747 14.5615 11.2953 14.5335 11.6379C14.5044 11.9937 14.442 12.3209 14.2855 12.6281C14.0427 13.1046 13.6553 13.492 13.1788 13.7348C12.8715 13.8914 12.5444 13.9538 12.1885 13.9829C11.8459 14.0109 11.4253 14.0109 10.9157 14.0108H4.27912C3.7695 14.0109 3.3489 14.0109 3.00628 13.9829C2.65041 13.9538 2.32329 13.8914 2.01603 13.7348C1.53952 13.492 1.15212 13.1046 0.909328 12.6281C0.752769 12.3209 0.690368 11.9937 0.661293 11.6379C0.633299 11.2953 0.633306 10.8746 0.633314 10.365L0.633314 9.03034C0.633314 9.01795 0.633311 9.00573 0.633307 8.99366C0.633242 8.76143 0.633193 8.58578 0.657772 8.41022C0.679493 8.25507 0.715564 8.10226 0.765522 7.95378C0.822052 7.78576 0.900648 7.62868 1.00456 7.421C1.00996 7.4102 1.01543 7.39927 1.02097 7.38819L1.58723 7.67132L1.59094 7.67317M1.58723 7.67132L1.02097 7.38819L2.39262 4.64489C2.40721 4.61572 2.42157 4.58694 2.43575 4.55853C2.69806 4.03304 2.8958 3.63688 3.20067 3.33828C3.46884 3.07563 3.79204 2.87588 4.14689 2.75348C4.55031 2.61434 4.99308 2.61464 5.5804 2.61503M2.29079 7.67986L3.52514 5.21115C3.85056 4.56031 3.95313 4.37365 4.08665 4.24287C4.22074 4.11155 4.38234 4.01167 4.55976 3.95048C4.73645 3.88953 4.94927 3.88127 5.67693 3.88127H9.51786C10.2455 3.88127 10.4583 3.88953 10.635 3.95048C10.8125 4.01167 10.9741 4.11155 11.1081 4.24287C11.2417 4.37365 11.3442 4.56031 11.6696 5.21115L12.904 7.67986H2.29079ZM1.89957 8.94606C1.89953 8.97202 1.89951 9.00004 1.89951 9.03034V10.3389C1.89951 10.8812 1.9 11.2498 1.92328 11.5348C1.94596 11.8123 1.98707 11.9543 2.03752 12.0533C2.15891 12.2915 2.35262 12.4852 2.59087 12.6066C2.68988 12.6571 2.83183 12.6982 3.10939 12.7209C3.39434 12.7442 3.76299 12.7446 4.30528 12.7446H10.8895C11.4318 12.7446 11.8005 12.7442 12.0854 12.7209C12.363 12.6982 12.5049 12.6571 12.6039 12.6066C12.8422 12.4852 13.0359 12.2915 13.1573 12.0533C13.2077 11.9543 13.2488 11.8123 13.2715 11.5348C13.2948 11.2498 13.2953 10.8812 13.2953 10.3389V9.03034C13.2953 9.00004 13.2953 8.97202 13.2952 8.94606H1.89957ZM6.3312 11.4785H3.79881C3.44916 11.4785 3.16571 11.195 3.16571 10.8454C3.16571 10.4957 3.44916 10.2123 3.79881 10.2123H6.3312C6.68085 10.2123 6.9643 10.4957 6.9643 10.8454C6.9643 11.195 6.68085 11.4785 6.3312 11.4785Z" fill="#485264"/>
	</svg>
	