<?xml version="1.0" standalone="no"?><!DOCTYPE svg PUBLIC "-//W3C//DTD SVG 1.1//EN" "http://www.w3.org/Graphics/SVG/1.1/DTD/svg11.dtd"><svg t="1734594129201" class="icon" viewBox="0 0 1024 1024" version="1.1" xmlns="http://www.w3.org/2000/svg" p-id="3982" xmlns:xlink="http://www.w3.org/1999/xlink" width="2000" height="2000"><path d="M404.882 225.372m-93.895 0a93.895 93.895 0 1 0 187.79 0 93.895 93.895 0 1 0-187.79 0Z" fill="#ffffff" p-id="3983"></path><path d="M411.489 222.069m-93.895 0a93.895 93.895 0 1 0 187.79 0 93.895 93.895 0 1 0-187.79 0Z" fill="#ffffff" p-id="3984"></path><path d="M418.095 218.765m-93.895 0a93.895 93.895 0 1 0 187.79 0 93.895 93.895 0 1 0-187.79 0Z" fill="#ffffff" p-id="3985"></path><path d="M424.702 215.462m-93.895 0a93.895 93.895 0 1 0 187.79 0 93.895 93.895 0 1 0-187.79 0Z" fill="#ffffff" p-id="3986"></path><path d="M431.309 212.159m-93.895 0a93.895 93.895 0 1 0 187.79 0 93.895 93.895 0 1 0-187.79 0Z" fill="#ffffff" p-id="3987"></path><path d="M437.915 208.855m-93.895 0a93.895 93.895 0 1 0 187.79 0 93.895 93.895 0 1 0-187.79 0Z" fill="#ffffff" p-id="3988"></path><path d="M444.522 205.552m-93.895 0a93.895 93.895 0 1 0 187.79 0 93.895 93.895 0 1 0-187.79 0Z" fill="#ffffff" p-id="3989"></path><path d="M451.129 202.249m-93.895 0a93.895 93.895 0 1 0 187.79 0 93.895 93.895 0 1 0-187.79 0Z" fill="#ffffff" p-id="3990"></path><path d="M457.735 198.945m-93.895 0a93.895 93.895 0 1 0 187.79 0 93.895 93.895 0 1 0-187.79 0Z" fill="#ffffff" p-id="3991"></path><path d="M464.382 195.626m-93.895 0a93.895 93.895 0 1 0 187.79 0 93.895 93.895 0 1 0-187.79 0Z" fill="#ffffff" p-id="3992"></path><path d="M471.721 192.938m-93.895 0a93.895 93.895 0 1 0 187.79 0 93.895 93.895 0 1 0-187.79 0Z" fill="#ffffff" p-id="3993"></path><path d="M479.114 191.828m-93.895 0a93.895 93.895 0 1 0 187.79 0 93.895 93.895 0 1 0-187.79 0Z" fill="#ffffff" p-id="3994"></path><path d="M486.383 192.185m-93.895 0a93.895 93.895 0 1 0 187.79 0 93.895 93.895 0 1 0-187.79 0Z" fill="#ffffff" p-id="3995"></path><path d="M493.351 193.9m-93.895 0a93.895 93.895 0 1 0 187.79 0 93.895 93.895 0 1 0-187.79 0Z" fill="#ffffff" p-id="3996"></path><path d="M499.838 196.862m-93.895 0a93.895 93.895 0 1 0 187.79 0 93.895 93.895 0 1 0-187.79 0Z" fill="#ffffff" p-id="3997"></path><path d="M505.666 200.96m-93.895 0a93.895 93.895 0 1 0 187.79 0 93.895 93.895 0 1 0-187.79 0Z" fill="#ffffff" p-id="3998"></path><path d="M510.657 206.086m-93.895 0a93.895 93.895 0 1 0 187.79 0 93.895 93.895 0 1 0-187.79 0Z" fill="#ffffff" p-id="3999"></path><path d="M514.633 212.128m-93.895 0a93.895 93.895 0 1 0 187.79 0 93.895 93.895 0 1 0-187.79 0Z" fill="#ffffff" p-id="4000"></path><path d="M517.415 218.976m-93.895 0a93.895 93.895 0 1 0 187.79 0 93.895 93.895 0 1 0-187.79 0Z" fill="#ffffff" p-id="4001"></path><path d="M518.825 226.521m-93.895 0a93.895 93.895 0 1 0 187.79 0 93.895 93.895 0 1 0-187.79 0Z" fill="#ffffff" p-id="4002"></path><path d="M518.965 234.154m-93.895 0a93.895 93.895 0 1 0 187.79 0 93.895 93.895 0 1 0-187.79 0Z" fill="#ffffff" p-id="4003"></path><path d="M518.965 241.541m-93.895 0a93.895 93.895 0 1 0 187.79 0 93.895 93.895 0 1 0-187.79 0Z" fill="#ffffff" p-id="4004"></path><path d="M518.965 248.927m-93.895 0a93.895 93.895 0 1 0 187.79 0 93.895 93.895 0 1 0-187.79 0Z" fill="#ffffff" p-id="4005"></path><path d="M518.965 256.313m-93.895 0a93.895 93.895 0 1 0 187.79 0 93.895 93.895 0 1 0-187.79 0Z" fill="#ffffff" p-id="4006"></path><path d="M518.965 263.7m-93.895 0a93.895 93.895 0 1 0 187.79 0 93.895 93.895 0 1 0-187.79 0Z" fill="#ffffff" p-id="4007"></path><path d="M518.965 271.086m-93.895 0a93.895 93.895 0 1 0 187.79 0 93.895 93.895 0 1 0-187.79 0Z" fill="#ffffff" p-id="4008"></path><path d="M518.965 278.473m-93.895 0a93.895 93.895 0 1 0 187.79 0 93.895 93.895 0 1 0-187.79 0Z" fill="#ffffff" p-id="4009"></path><path d="M518.965 285.859m-93.895 0a93.895 93.895 0 1 0 187.79 0 93.895 93.895 0 1 0-187.79 0Z" fill="#ffffff" p-id="4010"></path><path d="M518.965 293.246m-93.895 0a93.895 93.895 0 1 0 187.79 0 93.895 93.895 0 1 0-187.79 0Z" fill="#ffffff" p-id="4011"></path><path d="M518.965 300.632m-93.895 0a93.895 93.895 0 1 0 187.79 0 93.895 93.895 0 1 0-187.79 0Z" fill="#ffffff" p-id="4012"></path><path d="M518.965 308.019m-93.895 0a93.895 93.895 0 1 0 187.79 0 93.895 93.895 0 1 0-187.79 0Z" fill="#ffffff" p-id="4013"></path><path d="M518.965 315.405m-93.895 0a93.895 93.895 0 1 0 187.79 0 93.895 93.895 0 1 0-187.79 0Z" fill="#ffffff" p-id="4014"></path><path d="M518.965 322.792m-93.895 0a93.895 93.895 0 1 0 187.79 0 93.895 93.895 0 1 0-187.79 0Z" fill="#ffffff" p-id="4015"></path><path d="M518.965 330.178m-93.895 0a93.895 93.895 0 1 0 187.79 0 93.895 93.895 0 1 0-187.79 0Z" fill="#ffffff" p-id="4016"></path><path d="M518.965 337.564m-93.895 0a93.895 93.895 0 1 0 187.79 0 93.895 93.895 0 1 0-187.79 0Z" fill="#ffffff" p-id="4017"></path><path d="M518.965 344.951m-93.895 0a93.895 93.895 0 1 0 187.79 0 93.895 93.895 0 1 0-187.79 0Z" fill="#ffffff" p-id="4018"></path><path d="M518.965 352.337m-93.895 0a93.895 93.895 0 1 0 187.79 0 93.895 93.895 0 1 0-187.79 0Z" fill="#ffffff" p-id="4019"></path><path d="M518.965 359.724m-93.895 0a93.895 93.895 0 1 0 187.79 0 93.895 93.895 0 1 0-187.79 0Z" fill="#ffffff" p-id="4020"></path><path d="M518.965 367.11m-93.895 0a93.895 93.895 0 1 0 187.79 0 93.895 93.895 0 1 0-187.79 0Z" fill="#ffffff" p-id="4021"></path><path d="M518.965 374.497m-93.895 0a93.895 93.895 0 1 0 187.79 0 93.895 93.895 0 1 0-187.79 0Z" fill="#ffffff" p-id="4022"></path><path d="M518.965 381.883m-93.895 0a93.895 93.895 0 1 0 187.79 0 93.895 93.895 0 1 0-187.79 0Z" fill="#ffffff" p-id="4023"></path><path d="M518.965 389.27m-93.895 0a93.895 93.895 0 1 0 187.79 0 93.895 93.895 0 1 0-187.79 0Z" fill="#ffffff" p-id="4024"></path><path d="M518.965 396.656m-93.895 0a93.895 93.895 0 1 0 187.79 0 93.895 93.895 0 1 0-187.79 0Z" fill="#ffffff" p-id="4025"></path><path d="M518.965 404.043m-93.895 0a93.895 93.895 0 1 0 187.79 0 93.895 93.895 0 1 0-187.79 0Z" fill="#ffffff" p-id="4026"></path><path d="M518.965 411.429m-93.895 0a93.895 93.895 0 1 0 187.79 0 93.895 93.895 0 1 0-187.79 0Z" fill="#ffffff" p-id="4027"></path><path d="M518.965 418.816m-93.895 0a93.895 93.895 0 1 0 187.79 0 93.895 93.895 0 1 0-187.79 0Z" fill="#ffffff" p-id="4028"></path><path d="M518.965 426.202m-93.895 0a93.895 93.895 0 1 0 187.79 0 93.895 93.895 0 1 0-187.79 0Z" fill="#ffffff" p-id="4029"></path><path d="M518.965 433.588m-93.895 0a93.895 93.895 0 1 0 187.79 0 93.895 93.895 0 1 0-187.79 0Z" fill="#ffffff" p-id="4030"></path><path d="M518.965 440.975m-93.895 0a93.895 93.895 0 1 0 187.79 0 93.895 93.895 0 1 0-187.79 0Z" fill="#ffffff" p-id="4031"></path><path d="M518.965 448.361m-93.895 0a93.895 93.895 0 1 0 187.79 0 93.895 93.895 0 1 0-187.79 0Z" fill="#ffffff" p-id="4032"></path><path d="M518.965 455.748m-93.895 0a93.895 93.895 0 1 0 187.79 0 93.895 93.895 0 1 0-187.79 0Z" fill="#ffffff" p-id="4033"></path><path d="M518.965 463.134m-93.895 0a93.895 93.895 0 1 0 187.79 0 93.895 93.895 0 1 0-187.79 0Z" fill="#ffffff" p-id="4034"></path><path d="M518.965 470.521m-93.895 0a93.895 93.895 0 1 0 187.79 0 93.895 93.895 0 1 0-187.79 0Z" fill="#ffffff" p-id="4035"></path><path d="M518.965 477.907m-93.895 0a93.895 93.895 0 1 0 187.79 0 93.895 93.895 0 1 0-187.79 0Z" fill="#ffffff" p-id="4036"></path><path d="M518.965 485.294m-93.895 0a93.895 93.895 0 1 0 187.79 0 93.895 93.895 0 1 0-187.79 0Z" fill="#ffffff" p-id="4037"></path><path d="M518.965 492.68m-93.895 0a93.895 93.895 0 1 0 187.79 0 93.895 93.895 0 1 0-187.79 0Z" fill="#ffffff" p-id="4038"></path><path d="M518.965 500.067m-93.895 0a93.895 93.895 0 1 0 187.79 0 93.895 93.895 0 1 0-187.79 0Z" fill="#ffffff" p-id="4039"></path><path d="M518.965 507.453m-93.895 0a93.895 93.895 0 1 0 187.79 0 93.895 93.895 0 1 0-187.79 0Z" fill="#ffffff" p-id="4040"></path><path d="M518.965 514.84m-93.895 0a93.895 93.895 0 1 0 187.79 0 93.895 93.895 0 1 0-187.79 0Z" fill="#ffffff" p-id="4041"></path><path d="M518.965 522.226m-93.895 0a93.895 93.895 0 1 0 187.79 0 93.895 93.895 0 1 0-187.79 0Z" fill="#ffffff" p-id="4042"></path><path d="M518.965 529.612m-93.895 0a93.895 93.895 0 1 0 187.79 0 93.895 93.895 0 1 0-187.79 0Z" fill="#ffffff" p-id="4043"></path><path d="M518.965 536.999m-93.895 0a93.895 93.895 0 1 0 187.79 0 93.895 93.895 0 1 0-187.79 0Z" fill="#ffffff" p-id="4044"></path><path d="M518.965 544.385m-93.895 0a93.895 93.895 0 1 0 187.79 0 93.895 93.895 0 1 0-187.79 0Z" fill="#ffffff" p-id="4045"></path><path d="M518.965 551.772m-93.895 0a93.895 93.895 0 1 0 187.79 0 93.895 93.895 0 1 0-187.79 0Z" fill="#ffffff" p-id="4046"></path><path d="M518.965 559.158m-93.895 0a93.895 93.895 0 1 0 187.79 0 93.895 93.895 0 1 0-187.79 0Z" fill="#ffffff" p-id="4047"></path><path d="M518.965 566.545m-93.895 0a93.895 93.895 0 1 0 187.79 0 93.895 93.895 0 1 0-187.79 0Z" fill="#ffffff" p-id="4048"></path><path d="M518.965 573.931m-93.895 0a93.895 93.895 0 1 0 187.79 0 93.895 93.895 0 1 0-187.79 0Z" fill="#ffffff" p-id="4049"></path><path d="M518.965 581.318m-93.895 0a93.895 93.895 0 1 0 187.79 0 93.895 93.895 0 1 0-187.79 0Z" fill="#ffffff" p-id="4050"></path><path d="M518.965 588.704m-93.895 0a93.895 93.895 0 1 0 187.79 0 93.895 93.895 0 1 0-187.79 0Z" fill="#ffffff" p-id="4051"></path><path d="M518.965 596.091m-93.895 0a93.895 93.895 0 1 0 187.79 0 93.895 93.895 0 1 0-187.79 0Z" fill="#ffffff" p-id="4052"></path><path d="M518.965 603.477m-93.895 0a93.895 93.895 0 1 0 187.79 0 93.895 93.895 0 1 0-187.79 0Z" fill="#ffffff" p-id="4053"></path><path d="M518.965 610.864m-93.895 0a93.895 93.895 0 1 0 187.79 0 93.895 93.895 0 1 0-187.79 0Z" fill="#ffffff" p-id="4054"></path><path d="M518.965 618.25m-93.895 0a93.895 93.895 0 1 0 187.79 0 93.895 93.895 0 1 0-187.79 0Z" fill="#ffffff" p-id="4055"></path><path d="M518.965 625.636m-93.895 0a93.895 93.895 0 1 0 187.79 0 93.895 93.895 0 1 0-187.79 0Z" fill="#ffffff" p-id="4056"></path><path d="M518.965 633.023m-93.895 0a93.895 93.895 0 1 0 187.79 0 93.895 93.895 0 1 0-187.79 0Z" fill="#ffffff" p-id="4057"></path><path d="M518.965 640.409m-93.895 0a93.895 93.895 0 1 0 187.79 0 93.895 93.895 0 1 0-187.79 0Z" fill="#ffffff" p-id="4058"></path><path d="M518.965 647.796m-93.895 0a93.895 93.895 0 1 0 187.79 0 93.895 93.895 0 1 0-187.79 0Z" fill="#ffffff" p-id="4059"></path><path d="M518.965 655.182m-93.895 0a93.895 93.895 0 1 0 187.79 0 93.895 93.895 0 1 0-187.79 0Z" fill="#ffffff" p-id="4060"></path><path d="M518.965 662.569m-93.895 0a93.895 93.895 0 1 0 187.79 0 93.895 93.895 0 1 0-187.79 0Z" fill="#ffffff" p-id="4061"></path><path d="M518.965 669.955m-93.895 0a93.895 93.895 0 1 0 187.79 0 93.895 93.895 0 1 0-187.79 0Z" fill="#ffffff" p-id="4062"></path><path d="M518.965 677.342m-93.895 0a93.895 93.895 0 1 0 187.79 0 93.895 93.895 0 1 0-187.79 0Z" fill="#ffffff" p-id="4063"></path><path d="M518.965 684.728m-93.895 0a93.895 93.895 0 1 0 187.79 0 93.895 93.895 0 1 0-187.79 0Z" fill="#ffffff" p-id="4064"></path><path d="M518.965 692.115m-93.895 0a93.895 93.895 0 1 0 187.79 0 93.895 93.895 0 1 0-187.79 0Z" fill="#ffffff" p-id="4065"></path><path d="M518.965 699.501m-93.895 0a93.895 93.895 0 1 0 187.79 0 93.895 93.895 0 1 0-187.79 0Z" fill="#ffffff" p-id="4066"></path><path d="M518.965 706.888m-93.895 0a93.895 93.895 0 1 0 187.79 0 93.895 93.895 0 1 0-187.79 0Z" fill="#ffffff" p-id="4067"></path><path d="M518.965 714.274m-93.895 0a93.895 93.895 0 1 0 187.79 0 93.895 93.895 0 1 0-187.79 0Z" fill="#ffffff" p-id="4068"></path><path d="M518.965 721.66m-93.895 0a93.895 93.895 0 1 0 187.79 0 93.895 93.895 0 1 0-187.79 0Z" fill="#ffffff" p-id="4069"></path><path d="M518.965 729.047m-93.895 0a93.895 93.895 0 1 0 187.79 0 93.895 93.895 0 1 0-187.79 0Z" fill="#ffffff" p-id="4070"></path><path d="M518.965 736.433m-93.895 0a93.895 93.895 0 1 0 187.79 0 93.895 93.895 0 1 0-187.79 0Z" fill="#ffffff" p-id="4071"></path><path d="M518.965 743.82m-93.895 0a93.895 93.895 0 1 0 187.79 0 93.895 93.895 0 1 0-187.79 0Z" fill="#ffffff" p-id="4072"></path><path d="M518.965 751.206m-93.895 0a93.895 93.895 0 1 0 187.79 0 93.895 93.895 0 1 0-187.79 0Z" fill="#ffffff" p-id="4073"></path><path d="M518.965 758.593m-93.895 0a93.895 93.895 0 1 0 187.79 0 93.895 93.895 0 1 0-187.79 0Z" fill="#ffffff" p-id="4074"></path><path d="M518.965 765.979m-93.895 0a93.895 93.895 0 1 0 187.79 0 93.895 93.895 0 1 0-187.79 0Z" fill="#ffffff" p-id="4075"></path><path d="M518.965 773.366m-93.895 0a93.895 93.895 0 1 0 187.79 0 93.895 93.895 0 1 0-187.79 0Z" fill="#ffffff" p-id="4076"></path><path d="M518.965 780.752m-93.895 0a93.895 93.895 0 1 0 187.79 0 93.895 93.895 0 1 0-187.79 0Z" fill="#ffffff" p-id="4077"></path><path d="M518.965 788.139m-93.895 0a93.895 93.895 0 1 0 187.79 0 93.895 93.895 0 1 0-187.79 0Z" fill="#ffffff" p-id="4078"></path><path d="M518.965 795.525m-93.895 0a93.895 93.895 0 1 0 187.79 0 93.895 93.895 0 1 0-187.79 0Z" fill="#ffffff" p-id="4079"></path><path d="M518.965 802.911m-93.895 0a93.895 93.895 0 1 0 187.79 0 93.895 93.895 0 1 0-187.79 0Z" fill="#ffffff" p-id="4080"></path><path d="M518.965 810.298m-93.895 0a93.895 93.895 0 1 0 187.79 0 93.895 93.895 0 1 0-187.79 0Z" fill="#ffffff" p-id="4081"></path><path d="M518.965 817.684m-93.895 0a93.895 93.895 0 1 0 187.79 0 93.895 93.895 0 1 0-187.79 0Z" fill="#ffffff" p-id="4082"></path><path d="M518.965 825.071m-93.895 0a93.895 93.895 0 1 0 187.79 0 93.895 93.895 0 1 0-187.79 0Z" fill="#ffffff" p-id="4083"></path><path d="M518.965 832.457m-93.895 0a93.895 93.895 0 1 0 187.79 0 93.895 93.895 0 1 0-187.79 0Z" fill="#ffffff" p-id="4084"></path></svg>