<?xml version="1.0" standalone="no"?><!DOCTYPE svg PUBLIC "-//W3C//DTD SVG 1.1//EN" "http://www.w3.org/Graphics/SVG/1.1/DTD/svg11.dtd"><svg t="1734594186517" class="icon" viewBox="0 0 1024 1024" version="1.1" xmlns="http://www.w3.org/2000/svg" p-id="4301" xmlns:xlink="http://www.w3.org/1999/xlink" width="2000" height="2000"><path d="M330.609 368.461m-93.895 0a93.895 93.895 0 1 0 187.79 0 93.895 93.895 0 1 0-187.79 0Z" fill="#ffffff" p-id="4302"></path><path d="M331.334 352.292m-93.895 0a93.895 93.895 0 1 0 187.79 0 93.895 93.895 0 1 0-187.79 0Z" fill="#ffffff" p-id="4303"></path><path d="M333.468 336.533m-93.895 0a93.895 93.895 0 1 0 187.79 0 93.895 93.895 0 1 0-187.79 0Z" fill="#ffffff" p-id="4304"></path><path d="M336.946 321.246m-93.895 0a93.895 93.895 0 1 0 187.79 0 93.895 93.895 0 1 0-187.79 0Z" fill="#ffffff" p-id="4305"></path><path d="M341.706 306.495m-93.895 0a93.895 93.895 0 1 0 187.79 0 93.895 93.895 0 1 0-187.79 0Z" fill="#ffffff" p-id="4306"></path><path d="M347.685 292.344m-93.895 0a93.895 93.895 0 1 0 187.79 0 93.895 93.895 0 1 0-187.79 0Z" fill="#ffffff" p-id="4307"></path><path d="M354.821 278.856m-93.895 0a93.895 93.895 0 1 0 187.79 0 93.895 93.895 0 1 0-187.79 0Z" fill="#ffffff" p-id="4308"></path><path d="M363.05 266.094m-93.895 0a93.895 93.895 0 1 0 187.79 0 93.895 93.895 0 1 0-187.79 0Z" fill="#ffffff" p-id="4309"></path><path d="M372.309 254.122m-93.895 0a93.895 93.895 0 1 0 187.79 0 93.895 93.895 0 1 0-187.79 0Z" fill="#ffffff" p-id="4310"></path><path d="M382.535 243.003m-93.895 0a93.895 93.895 0 1 0 187.79 0 93.895 93.895 0 1 0-187.79 0Z" fill="#ffffff" p-id="4311"></path><path d="M393.665 232.801m-93.895 0a93.895 93.895 0 1 0 187.79 0 93.895 93.895 0 1 0-187.79 0Z" fill="#ffffff" p-id="4312"></path><path d="M405.636 223.579m-93.895 0a93.895 93.895 0 1 0 187.79 0 93.895 93.895 0 1 0-187.79 0Z" fill="#ffffff" p-id="4313"></path><path d="M418.386 215.4m-93.895 0a93.895 93.895 0 1 0 187.79 0 93.895 93.895 0 1 0-187.79 0Z" fill="#ffffff" p-id="4314"></path><path d="M431.851 208.329m-93.895 0a93.895 93.895 0 1 0 187.79 0 93.895 93.895 0 1 0-187.79 0Z" fill="#ffffff" p-id="4315"></path><path d="M445.968 202.427m-93.895 0a93.895 93.895 0 1 0 187.79 0 93.895 93.895 0 1 0-187.79 0Z" fill="#ffffff" p-id="4316"></path><path d="M460.675 197.759m-93.895 0a93.895 93.895 0 1 0 187.79 0 93.895 93.895 0 1 0-187.79 0Z" fill="#ffffff" p-id="4317"></path><path d="M475.908 194.388m-93.895 0a93.895 93.895 0 1 0 187.79 0 93.895 93.895 0 1 0-187.79 0Z" fill="#ffffff" p-id="4318"></path><path d="M491.604 192.378m-93.895 0a93.895 93.895 0 1 0 187.79 0 93.895 93.895 0 1 0-187.79 0Z" fill="#ffffff" p-id="4319"></path><path d="M507.697 191.791m-93.895 0a93.895 93.895 0 1 0 187.79 0 93.895 93.895 0 1 0-187.79 0Z" fill="#ffffff" p-id="4320"></path><path d="M523.72 192.664m-93.895 0a93.895 93.895 0 1 0 187.79 0 93.895 93.895 0 1 0-187.79 0Z" fill="#ffffff" p-id="4321"></path><path d="M539.329 194.948m-93.895 0a93.895 93.895 0 1 0 187.79 0 93.895 93.895 0 1 0-187.79 0Z" fill="#ffffff" p-id="4322"></path><path d="M554.463 198.58m-93.895 0a93.895 93.895 0 1 0 187.79 0 93.895 93.895 0 1 0-187.79 0Z" fill="#ffffff" p-id="4323"></path><path d="M569.059 203.497m-93.895 0a93.895 93.895 0 1 0 187.79 0 93.895 93.895 0 1 0-187.79 0Z" fill="#ffffff" p-id="4324"></path><path d="M583.052 209.634m-93.895 0a93.895 93.895 0 1 0 187.79 0 93.895 93.895 0 1 0-187.79 0Z" fill="#ffffff" p-id="4325"></path><path d="M596.381 216.93m-93.895 0a93.895 93.895 0 1 0 187.79 0 93.895 93.895 0 1 0-187.79 0Z" fill="#ffffff" p-id="4326"></path><path d="M608.982 225.32m-93.895 0a93.895 93.895 0 1 0 187.79 0 93.895 93.895 0 1 0-187.79 0Z" fill="#ffffff" p-id="4327"></path><path d="M620.792 234.74m-93.895 0a93.895 93.895 0 1 0 187.79 0 93.895 93.895 0 1 0-187.79 0Z" fill="#ffffff" p-id="4328"></path><path d="M631.749 245.129m-93.895 0a93.895 93.895 0 1 0 187.79 0 93.895 93.895 0 1 0-187.79 0Z" fill="#ffffff" p-id="4329"></path><path d="M641.789 256.421m-93.895 0a93.895 93.895 0 1 0 187.79 0 93.895 93.895 0 1 0-187.79 0Z" fill="#ffffff" p-id="4330"></path><path d="M650.849 268.554m-93.895 0a93.895 93.895 0 1 0 187.79 0 93.895 93.895 0 1 0-187.79 0Z" fill="#ffffff" p-id="4331"></path><path d="M658.867 281.464m-93.895 0a93.895 93.895 0 1 0 187.79 0 93.895 93.895 0 1 0-187.79 0Z" fill="#ffffff" p-id="4332"></path><path d="M665.779 295.088m-93.895 0a93.895 93.895 0 1 0 187.79 0 93.895 93.895 0 1 0-187.79 0Z" fill="#ffffff" p-id="4333"></path><path d="M671.523 309.363m-93.895 0a93.895 93.895 0 1 0 187.79 0 93.895 93.895 0 1 0-187.79 0Z" fill="#ffffff" p-id="4334"></path><path d="M676.035 324.224m-93.895 0a93.895 93.895 0 1 0 187.79 0 93.895 93.895 0 1 0-187.79 0Z" fill="#ffffff" p-id="4335"></path><path d="M679.253 339.61m-93.895 0a93.895 93.895 0 1 0 187.79 0 93.895 93.895 0 1 0-187.79 0Z" fill="#ffffff" p-id="4336"></path><path d="M681.113 355.455m-93.895 0a93.895 93.895 0 1 0 187.79 0 93.895 93.895 0 1 0-187.79 0Z" fill="#ffffff" p-id="4337"></path><path d="M681.551 371.609m-93.895 0a93.895 93.895 0 1 0 187.79 0 93.895 93.895 0 1 0-187.79 0Z" fill="#ffffff" p-id="4338"></path><path d="M680.509 387.792m-93.895 0a93.895 93.895 0 1 0 187.79 0 93.895 93.895 0 1 0-187.79 0Z" fill="#ffffff" p-id="4339"></path><path d="M678.081 403.989m-93.895 0a93.895 93.895 0 1 0 187.79 0 93.895 93.895 0 1 0-187.79 0Z" fill="#ffffff" p-id="4340"></path><path d="M674.405 419.66m-93.895 0a93.895 93.895 0 1 0 187.79 0 93.895 93.895 0 1 0-187.79 0Z" fill="#ffffff" p-id="4341"></path><path d="M669.619 434.266m-93.895 0a93.895 93.895 0 1 0 187.79 0 93.895 93.895 0 1 0-187.79 0Z" fill="#ffffff" p-id="4342"></path><path d="M663.861 447.264m-93.895 0a93.895 93.895 0 1 0 187.79 0 93.895 93.895 0 1 0-187.79 0Z" fill="#ffffff" p-id="4343"></path><path d="M655.934 459.119m-93.895 0a93.895 93.895 0 1 0 187.79 0 93.895 93.895 0 1 0-187.79 0Z" fill="#ffffff" p-id="4344"></path><path d="M644.737 469.77m-93.895 0a93.895 93.895 0 1 0 187.79 0 93.895 93.895 0 1 0-187.79 0Z" fill="#ffffff" p-id="4345"></path><path d="M633.499 480.376m-93.895 0a93.895 93.895 0 1 0 187.79 0 93.895 93.895 0 1 0-187.79 0Z" fill="#ffffff" p-id="4346"></path><path d="M622.261 490.983m-93.895 0a93.895 93.895 0 1 0 187.79 0 93.895 93.895 0 1 0-187.79 0Z" fill="#ffffff" p-id="4347"></path><path d="M611.023 501.59m-93.895 0a93.895 93.895 0 1 0 187.79 0 93.895 93.895 0 1 0-187.79 0Z" fill="#ffffff" p-id="4348"></path><path d="M599.785 512.196m-93.895 0a93.895 93.895 0 1 0 187.79 0 93.895 93.895 0 1 0-187.79 0Z" fill="#ffffff" p-id="4349"></path><path d="M588.547 522.803m-93.895 0a93.895 93.895 0 1 0 187.79 0 93.895 93.895 0 1 0-187.79 0Z" fill="#ffffff" p-id="4350"></path><path d="M577.309 533.409m-93.895 0a93.895 93.895 0 1 0 187.79 0 93.895 93.895 0 1 0-187.79 0Z" fill="#ffffff" p-id="4351"></path><path d="M566.071 544.016m-93.895 0a93.895 93.895 0 1 0 187.79 0 93.895 93.895 0 1 0-187.79 0Z" fill="#ffffff" p-id="4352"></path><path d="M554.832 554.623m-93.895 0a93.895 93.895 0 1 0 187.79 0 93.895 93.895 0 1 0-187.79 0Z" fill="#ffffff" p-id="4353"></path><path d="M543.594 565.229m-93.895 0a93.895 93.895 0 1 0 187.79 0 93.895 93.895 0 1 0-187.79 0Z" fill="#ffffff" p-id="4354"></path><path d="M532.356 575.836m-93.895 0a93.895 93.895 0 1 0 187.79 0 93.895 93.895 0 1 0-187.79 0Z" fill="#ffffff" p-id="4355"></path><path d="M521.118 586.442m-93.895 0a93.895 93.895 0 1 0 187.79 0 93.895 93.895 0 1 0-187.79 0Z" fill="#ffffff" p-id="4356"></path><path d="M509.88 597.049m-93.895 0a93.895 93.895 0 1 0 187.79 0 93.895 93.895 0 1 0-187.79 0Z" fill="#ffffff" p-id="4357"></path><path d="M498.642 607.656m-93.895 0a93.895 93.895 0 1 0 187.79 0 93.895 93.895 0 1 0-187.79 0Z" fill="#ffffff" p-id="4358"></path><path d="M487.404 618.262m-93.895 0a93.895 93.895 0 1 0 187.79 0 93.895 93.895 0 1 0-187.79 0Z" fill="#ffffff" p-id="4359"></path><path d="M476.166 628.869m-93.895 0a93.895 93.895 0 1 0 187.79 0 93.895 93.895 0 1 0-187.79 0Z" fill="#ffffff" p-id="4360"></path><path d="M464.928 639.475m-93.895 0a93.895 93.895 0 1 0 187.79 0 93.895 93.895 0 1 0-187.79 0Z" fill="#ffffff" p-id="4361"></path><path d="M453.69 650.082m-93.895 0a93.895 93.895 0 1 0 187.79 0 93.895 93.895 0 1 0-187.79 0Z" fill="#ffffff" p-id="4362"></path><path d="M442.451 660.689m-93.895 0a93.895 93.895 0 1 0 187.79 0 93.895 93.895 0 1 0-187.79 0Z" fill="#ffffff" p-id="4363"></path><path d="M431.213 671.295m-93.895 0a93.895 93.895 0 1 0 187.79 0 93.895 93.895 0 1 0-187.79 0Z" fill="#ffffff" p-id="4364"></path><path d="M419.975 681.902m-93.895 0a93.895 93.895 0 1 0 187.79 0 93.895 93.895 0 1 0-187.79 0Z" fill="#ffffff" p-id="4365"></path><path d="M408.737 692.508m-93.895 0a93.895 93.895 0 1 0 187.79 0 93.895 93.895 0 1 0-187.79 0Z" fill="#ffffff" p-id="4366"></path><path d="M397.499 703.115m-93.895 0a93.895 93.895 0 1 0 187.79 0 93.895 93.895 0 1 0-187.79 0Z" fill="#ffffff" p-id="4367"></path><path d="M386.261 713.722m-93.895 0a93.895 93.895 0 1 0 187.79 0 93.895 93.895 0 1 0-187.79 0Z" fill="#ffffff" p-id="4368"></path><path d="M375.023 724.328m-93.895 0a93.895 93.895 0 1 0 187.79 0 93.895 93.895 0 1 0-187.79 0Z" fill="#ffffff" p-id="4369"></path><path d="M363.785 734.935m-93.895 0a93.895 93.895 0 1 0 187.79 0 93.895 93.895 0 1 0-187.79 0Z" fill="#ffffff" p-id="4370"></path><path d="M352.547 745.541m-93.895 0a93.895 93.895 0 1 0 187.79 0 93.895 93.895 0 1 0-187.79 0Z" fill="#ffffff" p-id="4371"></path><path d="M341.309 756.148m-93.895 0a93.895 93.895 0 1 0 187.79 0 93.895 93.895 0 1 0-187.79 0Z" fill="#ffffff" p-id="4372"></path><path d="M330.07 766.755m-93.895 0a93.895 93.895 0 1 0 187.79 0 93.895 93.895 0 1 0-187.79 0Z" fill="#ffffff" p-id="4373"></path><path d="M318.832 777.361m-93.895 0a93.895 93.895 0 1 0 187.79 0 93.895 93.895 0 1 0-187.79 0Z" fill="#ffffff" p-id="4374"></path><path d="M307.594 787.968m-93.895 0a93.895 93.895 0 1 0 187.79 0 93.895 93.895 0 1 0-187.79 0Z" fill="#ffffff" p-id="4375"></path><path d="M296.356 798.574m-93.895 0a93.895 93.895 0 1 0 187.79 0 93.895 93.895 0 1 0-187.79 0Z" fill="#ffffff" p-id="4376"></path><path d="M285.256 809.694m-93.895 0a93.895 93.895 0 1 0 187.79 0 93.895 93.895 0 1 0-187.79 0Z" fill="#ffffff" p-id="4377"></path><path d="M285.123 824.039m-93.895 0a93.895 93.895 0 1 0 187.79 0 93.895 93.895 0 1 0-187.79 0Z" fill="#ffffff" p-id="4378"></path><path d="M298.128 831m-93.895 0a93.895 93.895 0 1 0 187.79 0 93.895 93.895 0 1 0-187.79 0Z" fill="#ffffff" p-id="4379"></path><path d="M313.581 831m-93.895 0a93.895 93.895 0 1 0 187.79 0 93.895 93.895 0 1 0-187.79 0Z" fill="#ffffff" p-id="4380"></path><path d="M329.034 831m-93.895 0a93.895 93.895 0 1 0 187.79 0 93.895 93.895 0 1 0-187.79 0Z" fill="#ffffff" p-id="4381"></path><path d="M344.487 831m-93.895 0a93.895 93.895 0 1 0 187.79 0 93.895 93.895 0 1 0-187.79 0Z" fill="#ffffff" p-id="4382"></path><path d="M359.94 831m-93.895 0a93.895 93.895 0 1 0 187.79 0 93.895 93.895 0 1 0-187.79 0Z" fill="#ffffff" p-id="4383"></path><path d="M375.393 831m-93.895 0a93.895 93.895 0 1 0 187.79 0 93.895 93.895 0 1 0-187.79 0Z" fill="#ffffff" p-id="4384"></path><path d="M390.846 831m-93.895 0a93.895 93.895 0 1 0 187.79 0 93.895 93.895 0 1 0-187.79 0Z" fill="#ffffff" p-id="4385"></path><path d="M406.299 831m-93.895 0a93.895 93.895 0 1 0 187.79 0 93.895 93.895 0 1 0-187.79 0Z" fill="#ffffff" p-id="4386"></path><path d="M421.752 831m-93.895 0a93.895 93.895 0 1 0 187.79 0 93.895 93.895 0 1 0-187.79 0Z" fill="#ffffff" p-id="4387"></path><path d="M437.205 831m-93.895 0a93.895 93.895 0 1 0 187.79 0 93.895 93.895 0 1 0-187.79 0Z" fill="#ffffff" p-id="4388"></path><path d="M452.658 831m-93.895 0a93.895 93.895 0 1 0 187.79 0 93.895 93.895 0 1 0-187.79 0Z" fill="#ffffff" p-id="4389"></path><path d="M468.111 831m-93.895 0a93.895 93.895 0 1 0 187.79 0 93.895 93.895 0 1 0-187.79 0Z" fill="#ffffff" p-id="4390"></path><path d="M483.564 831m-93.895 0a93.895 93.895 0 1 0 187.79 0 93.895 93.895 0 1 0-187.79 0Z" fill="#ffffff" p-id="4391"></path><path d="M499.017 831m-93.895 0a93.895 93.895 0 1 0 187.79 0 93.895 93.895 0 1 0-187.79 0Z" fill="#ffffff" p-id="4392"></path><path d="M514.47 831m-93.895 0a93.895 93.895 0 1 0 187.79 0 93.895 93.895 0 1 0-187.79 0Z" fill="#ffffff" p-id="4393"></path><path d="M529.923 831m-93.895 0a93.895 93.895 0 1 0 187.79 0 93.895 93.895 0 1 0-187.79 0Z" fill="#ffffff" p-id="4394"></path><path d="M545.376 831m-93.895 0a93.895 93.895 0 1 0 187.79 0 93.895 93.895 0 1 0-187.79 0Z" fill="#ffffff" p-id="4395"></path><path d="M560.829 831m-93.895 0a93.895 93.895 0 1 0 187.79 0 93.895 93.895 0 1 0-187.79 0Z" fill="#ffffff" p-id="4396"></path><path d="M576.282 831m-93.895 0a93.895 93.895 0 1 0 187.79 0 93.895 93.895 0 1 0-187.79 0Z" fill="#ffffff" p-id="4397"></path><path d="M591.735 831m-93.895 0a93.895 93.895 0 1 0 187.79 0 93.895 93.895 0 1 0-187.79 0Z" fill="#ffffff" p-id="4398"></path><path d="M607.188 831m-93.895 0a93.895 93.895 0 1 0 187.79 0 93.895 93.895 0 1 0-187.79 0Z" fill="#ffffff" p-id="4399"></path><path d="M622.641 831m-93.895 0a93.895 93.895 0 1 0 187.79 0 93.895 93.895 0 1 0-187.79 0Z" fill="#ffffff" p-id="4400"></path><path d="M638.094 831m-93.895 0a93.895 93.895 0 1 0 187.79 0 93.895 93.895 0 1 0-187.79 0Z" fill="#ffffff" p-id="4401"></path><path d="M653.547 831m-93.895 0a93.895 93.895 0 1 0 187.79 0 93.895 93.895 0 1 0-187.79 0Z" fill="#ffffff" p-id="4402"></path><path d="M669 831m-93.895 0a93.895 93.895 0 1 0 187.79 0 93.895 93.895 0 1 0-187.79 0Z" fill="#ffffff" p-id="4403"></path></svg>