<?xml version="1.0" standalone="no"?><!DOCTYPE svg PUBLIC "-//W3C//DTD SVG 1.1//EN" "http://www.w3.org/Graphics/SVG/1.1/DTD/svg11.dtd"><svg t="1734594190774" class="icon" viewBox="0 0 1024 1024" version="1.1" xmlns="http://www.w3.org/2000/svg" p-id="4620" xmlns:xlink="http://www.w3.org/1999/xlink" width="2000" height="2000"><path d="M365.952 322.047m-93.895 0a93.895 93.895 0 1 0 187.79 0 93.895 93.895 0 1 0-187.79 0Z" fill="#ffffff" p-id="4621"></path><path d="M369.403 309.11m-93.895 0a93.895 93.895 0 1 0 187.79 0 93.895 93.895 0 1 0-187.79 0Z" fill="#ffffff" p-id="4622"></path><path d="M373.865 296.618m-93.895 0a93.895 93.895 0 1 0 187.79 0 93.895 93.895 0 1 0-187.79 0Z" fill="#ffffff" p-id="4623"></path><path d="M379.289 284.619m-93.895 0a93.895 93.895 0 1 0 187.79 0 93.895 93.895 0 1 0-187.79 0Z" fill="#ffffff" p-id="4624"></path><path d="M385.631 273.16m-93.895 0a93.895 93.895 0 1 0 187.79 0 93.895 93.895 0 1 0-187.79 0Z" fill="#ffffff" p-id="4625"></path><path d="M392.841 262.287m-93.895 0a93.895 93.895 0 1 0 187.79 0 93.895 93.895 0 1 0-187.79 0Z" fill="#ffffff" p-id="4626"></path><path d="M400.875 252.047m-93.895 0a93.895 93.895 0 1 0 187.79 0 93.895 93.895 0 1 0-187.79 0Z" fill="#ffffff" p-id="4627"></path><path d="M409.684 242.488m-93.895 0a93.895 93.895 0 1 0 187.79 0 93.895 93.895 0 1 0-187.79 0Z" fill="#ffffff" p-id="4628"></path><path d="M419.222 233.655m-93.895 0a93.895 93.895 0 1 0 187.79 0 93.895 93.895 0 1 0-187.79 0Z" fill="#ffffff" p-id="4629"></path><path d="M429.441 225.597m-93.895 0a93.895 93.895 0 1 0 187.79 0 93.895 93.895 0 1 0-187.79 0Z" fill="#ffffff" p-id="4630"></path><path d="M440.295 218.361m-93.895 0a93.895 93.895 0 1 0 187.79 0 93.895 93.895 0 1 0-187.79 0Z" fill="#ffffff" p-id="4631"></path><path d="M451.738 211.992m-93.895 0a93.895 93.895 0 1 0 187.79 0 93.895 93.895 0 1 0-187.79 0Z" fill="#ffffff" p-id="4632"></path><path d="M463.721 206.538m-93.895 0a93.895 93.895 0 1 0 187.79 0 93.895 93.895 0 1 0-187.79 0Z" fill="#ffffff" p-id="4633"></path><path d="M476.198 202.047m-93.895 0a93.895 93.895 0 1 0 187.79 0 93.895 93.895 0 1 0-187.79 0Z" fill="#ffffff" p-id="4634"></path><path d="M489.122 198.564m-93.895 0a93.895 93.895 0 1 0 187.79 0 93.895 93.895 0 1 0-187.79 0Z" fill="#ffffff" p-id="4635"></path><path d="M502.446 196.137m-93.895 0a93.895 93.895 0 1 0 187.79 0 93.895 93.895 0 1 0-187.79 0Z" fill="#ffffff" p-id="4636"></path><path d="M516.123 194.813m-93.895 0a93.895 93.895 0 1 0 187.79 0 93.895 93.895 0 1 0-187.79 0Z" fill="#ffffff" p-id="4637"></path><path d="M530.039 194.638m-93.895 0a93.895 93.895 0 1 0 187.79 0 93.895 93.895 0 1 0-187.79 0Z" fill="#ffffff" p-id="4638"></path><path d="M543.722 195.618m-93.895 0a93.895 93.895 0 1 0 187.79 0 93.895 93.895 0 1 0-187.79 0Z" fill="#ffffff" p-id="4639"></path><path d="M557.075 197.708m-93.895 0a93.895 93.895 0 1 0 187.79 0 93.895 93.895 0 1 0-187.79 0Z" fill="#ffffff" p-id="4640"></path><path d="M570.052 200.861m-93.895 0a93.895 93.895 0 1 0 187.79 0 93.895 93.895 0 1 0-187.79 0Z" fill="#ffffff" p-id="4641"></path><path d="M582.606 205.031m-93.895 0a93.895 93.895 0 1 0 187.79 0 93.895 93.895 0 1 0-187.79 0Z" fill="#ffffff" p-id="4642"></path><path d="M594.69 210.171m-93.895 0a93.895 93.895 0 1 0 187.79 0 93.895 93.895 0 1 0-187.79 0Z" fill="#ffffff" p-id="4643"></path><path d="M606.258 216.233m-93.895 0a93.895 93.895 0 1 0 187.79 0 93.895 93.895 0 1 0-187.79 0Z" fill="#ffffff" p-id="4644"></path><path d="M617.261 223.17m-93.895 0a93.895 93.895 0 1 0 187.79 0 93.895 93.895 0 1 0-187.79 0Z" fill="#ffffff" p-id="4645"></path><path d="M627.655 230.935m-93.895 0a93.895 93.895 0 1 0 187.79 0 93.895 93.895 0 1 0-187.79 0Z" fill="#ffffff" p-id="4646"></path><path d="M637.391 239.482m-93.895 0a93.895 93.895 0 1 0 187.79 0 93.895 93.895 0 1 0-187.79 0Z" fill="#ffffff" p-id="4647"></path><path d="M646.423 248.764m-93.895 0a93.895 93.895 0 1 0 187.79 0 93.895 93.895 0 1 0-187.79 0Z" fill="#ffffff" p-id="4648"></path><path d="M654.704 258.732m-93.895 0a93.895 93.895 0 1 0 187.79 0 93.895 93.895 0 1 0-187.79 0Z" fill="#ffffff" p-id="4649"></path><path d="M662.188 269.341m-93.895 0a93.895 93.895 0 1 0 187.79 0 93.895 93.895 0 1 0-187.79 0Z" fill="#ffffff" p-id="4650"></path><path d="M668.827 280.543m-93.895 0a93.895 93.895 0 1 0 187.79 0 93.895 93.895 0 1 0-187.79 0Z" fill="#ffffff" p-id="4651"></path><path d="M674.574 292.29m-93.895 0a93.895 93.895 0 1 0 187.79 0 93.895 93.895 0 1 0-187.79 0Z" fill="#ffffff" p-id="4652"></path><path d="M679.384 304.538m-93.895 0a93.895 93.895 0 1 0 187.79 0 93.895 93.895 0 1 0-187.79 0Z" fill="#ffffff" p-id="4653"></path><path d="M683.209 317.237m-93.895 0a93.895 93.895 0 1 0 187.79 0 93.895 93.895 0 1 0-187.79 0Z" fill="#ffffff" p-id="4654"></path><path d="M686.002 330.341m-93.895 0a93.895 93.895 0 1 0 187.79 0 93.895 93.895 0 1 0-187.79 0Z" fill="#ffffff" p-id="4655"></path><path d="M687.716 343.803m-93.895 0a93.895 93.895 0 1 0 187.79 0 93.895 93.895 0 1 0-187.79 0Z" fill="#ffffff" p-id="4656"></path><path d="M688.305 357.577m-93.895 0a93.895 93.895 0 1 0 187.79 0 93.895 93.895 0 1 0-187.79 0Z" fill="#ffffff" p-id="4657"></path><path d="M687.732 371.464m-93.895 0a93.895 93.895 0 1 0 187.79 0 93.895 93.895 0 1 0-187.79 0Z" fill="#ffffff" p-id="4658"></path><path d="M686.024 385.035m-93.895 0a93.895 93.895 0 1 0 187.79 0 93.895 93.895 0 1 0-187.79 0Z" fill="#ffffff" p-id="4659"></path><path d="M683.228 398.236m-93.895 0a93.895 93.895 0 1 0 187.79 0 93.895 93.895 0 1 0-187.79 0Z" fill="#ffffff" p-id="4660"></path><path d="M679.39 411.02m-93.895 0a93.895 93.895 0 1 0 187.79 0 93.895 93.895 0 1 0-187.79 0Z" fill="#ffffff" p-id="4661"></path><path d="M674.558 423.341m-93.895 0a93.895 93.895 0 1 0 187.79 0 93.895 93.895 0 1 0-187.79 0Z" fill="#ffffff" p-id="4662"></path><path d="M668.779 435.15m-93.895 0a93.895 93.895 0 1 0 187.79 0 93.895 93.895 0 1 0-187.79 0Z" fill="#ffffff" p-id="4663"></path><path d="M662.1 446.402m-93.895 0a93.895 93.895 0 1 0 187.79 0 93.895 93.895 0 1 0-187.79 0Z" fill="#ffffff" p-id="4664"></path><path d="M654.568 457.048m-93.895 0a93.895 93.895 0 1 0 187.79 0 93.895 93.895 0 1 0-187.79 0Z" fill="#ffffff" p-id="4665"></path><path d="M646.23 467.043m-93.895 0a93.895 93.895 0 1 0 187.79 0 93.895 93.895 0 1 0-187.79 0Z" fill="#ffffff" p-id="4666"></path><path d="M637.133 476.339m-93.895 0a93.895 93.895 0 1 0 187.79 0 93.895 93.895 0 1 0-187.79 0Z" fill="#ffffff" p-id="4667"></path><path d="M627.324 484.888m-93.895 0a93.895 93.895 0 1 0 187.79 0 93.895 93.895 0 1 0-187.79 0Z" fill="#ffffff" p-id="4668"></path><path d="M616.85 492.645m-93.895 0a93.895 93.895 0 1 0 187.79 0 93.895 93.895 0 1 0-187.79 0Z" fill="#ffffff" p-id="4669"></path><path d="M605.759 499.561m-93.895 0a93.895 93.895 0 1 0 187.79 0 93.895 93.895 0 1 0-187.79 0Z" fill="#ffffff" p-id="4670"></path><path d="M599.204 509.646m-93.895 0a93.895 93.895 0 1 0 187.79 0 93.895 93.895 0 1 0-187.79 0Z" fill="#ffffff" p-id="4671"></path><path d="M608.741 518.05m-93.895 0a93.895 93.895 0 1 0 187.79 0 93.895 93.895 0 1 0-187.79 0Z" fill="#ffffff" p-id="4672"></path><path d="M619.813 524.995m-93.895 0a93.895 93.895 0 1 0 187.79 0 93.895 93.895 0 1 0-187.79 0Z" fill="#ffffff" p-id="4673"></path><path d="M630.285 532.755m-93.895 0a93.895 93.895 0 1 0 187.79 0 93.895 93.895 0 1 0-187.79 0Z" fill="#ffffff" p-id="4674"></path><path d="M640.111 541.285m-93.895 0a93.895 93.895 0 1 0 187.79 0 93.895 93.895 0 1 0-187.79 0Z" fill="#ffffff" p-id="4675"></path><path d="M649.248 550.542m-93.895 0a93.895 93.895 0 1 0 187.79 0 93.895 93.895 0 1 0-187.79 0Z" fill="#ffffff" p-id="4676"></path><path d="M657.652 560.479m-93.895 0a93.895 93.895 0 1 0 187.79 0 93.895 93.895 0 1 0-187.79 0Z" fill="#ffffff" p-id="4677"></path><path d="M665.277 571.055m-93.895 0a93.895 93.895 0 1 0 187.79 0 93.895 93.895 0 1 0-187.79 0Z" fill="#ffffff" p-id="4678"></path><path d="M672.08 582.223m-93.895 0a93.895 93.895 0 1 0 187.79 0 93.895 93.895 0 1 0-187.79 0Z" fill="#ffffff" p-id="4679"></path><path d="M678.017 593.941m-93.895 0a93.895 93.895 0 1 0 187.79 0 93.895 93.895 0 1 0-187.79 0Z" fill="#ffffff" p-id="4680"></path><path d="M683.042 606.163m-93.895 0a93.895 93.895 0 1 0 187.79 0 93.895 93.895 0 1 0-187.79 0Z" fill="#ffffff" p-id="4681"></path><path d="M687.112 618.845m-93.895 0a93.895 93.895 0 1 0 187.79 0 93.895 93.895 0 1 0-187.79 0Z" fill="#ffffff" p-id="4682"></path><path d="M690.181 631.943m-93.895 0a93.895 93.895 0 1 0 187.79 0 93.895 93.895 0 1 0-187.79 0Z" fill="#ffffff" p-id="4683"></path><path d="M692.207 645.412m-93.895 0a93.895 93.895 0 1 0 187.79 0 93.895 93.895 0 1 0-187.79 0Z" fill="#ffffff" p-id="4684"></path><path d="M693.144 659.209m-93.895 0a93.895 93.895 0 1 0 187.79 0 93.895 93.895 0 1 0-187.79 0Z" fill="#ffffff" p-id="4685"></path><path d="M692.956 673.113m-93.895 0a93.895 93.895 0 1 0 187.79 0 93.895 93.895 0 1 0-187.79 0Z" fill="#ffffff" p-id="4686"></path><path d="M691.662 686.727m-93.895 0a93.895 93.895 0 1 0 187.79 0 93.895 93.895 0 1 0-187.79 0Z" fill="#ffffff" p-id="4687"></path><path d="M689.308 700.003m-93.895 0a93.895 93.895 0 1 0 187.79 0 93.895 93.895 0 1 0-187.79 0Z" fill="#ffffff" p-id="4688"></path><path d="M685.935 712.899m-93.895 0a93.895 93.895 0 1 0 187.79 0 93.895 93.895 0 1 0-187.79 0Z" fill="#ffffff" p-id="4689"></path><path d="M681.588 725.37m-93.895 0a93.895 93.895 0 1 0 187.79 0 93.895 93.895 0 1 0-187.79 0Z" fill="#ffffff" p-id="4690"></path><path d="M676.311 737.372m-93.895 0a93.895 93.895 0 1 0 187.79 0 93.895 93.895 0 1 0-187.79 0Z" fill="#ffffff" p-id="4691"></path><path d="M670.146 748.864m-93.895 0a93.895 93.895 0 1 0 187.79 0 93.895 93.895 0 1 0-187.79 0Z" fill="#ffffff" p-id="4692"></path><path d="M663.137 759.799m-93.895 0a93.895 93.895 0 1 0 187.79 0 93.895 93.895 0 1 0-187.79 0Z" fill="#ffffff" p-id="4693"></path><path d="M655.329 770.136m-93.895 0a93.895 93.895 0 1 0 187.79 0 93.895 93.895 0 1 0-187.79 0Z" fill="#ffffff" p-id="4694"></path><path d="M646.763 779.83m-93.895 0a93.895 93.895 0 1 0 187.79 0 93.895 93.895 0 1 0-187.79 0Z" fill="#ffffff" p-id="4695"></path><path d="M637.485 788.838m-93.895 0a93.895 93.895 0 1 0 187.79 0 93.895 93.895 0 1 0-187.79 0Z" fill="#ffffff" p-id="4696"></path><path d="M627.537 797.117m-93.895 0a93.895 93.895 0 1 0 187.79 0 93.895 93.895 0 1 0-187.79 0Z" fill="#ffffff" p-id="4697"></path><path d="M616.963 804.621m-93.895 0a93.895 93.895 0 1 0 187.79 0 93.895 93.895 0 1 0-187.79 0Z" fill="#ffffff" p-id="4698"></path><path d="M605.806 811.309m-93.895 0a93.895 93.895 0 1 0 187.79 0 93.895 93.895 0 1 0-187.79 0Z" fill="#ffffff" p-id="4699"></path><path d="M594.11 817.136m-93.895 0a93.895 93.895 0 1 0 187.79 0 93.895 93.895 0 1 0-187.79 0Z" fill="#ffffff" p-id="4700"></path><path d="M581.919 822.059m-93.895 0a93.895 93.895 0 1 0 187.79 0 93.895 93.895 0 1 0-187.79 0Z" fill="#ffffff" p-id="4701"></path><path d="M569.276 826.034m-93.895 0a93.895 93.895 0 1 0 187.79 0 93.895 93.895 0 1 0-187.79 0Z" fill="#ffffff" p-id="4702"></path><path d="M556.225 829.017m-93.895 0a93.895 93.895 0 1 0 187.79 0 93.895 93.895 0 1 0-187.79 0Z" fill="#ffffff" p-id="4703"></path><path d="M542.808 830.966m-93.895 0a93.895 93.895 0 1 0 187.79 0 93.895 93.895 0 1 0-187.79 0Z" fill="#ffffff" p-id="4704"></path><path d="M529.071 831.835m-93.895 0a93.895 93.895 0 1 0 187.79 0 93.895 93.895 0 1 0-187.79 0Z" fill="#ffffff" p-id="4705"></path><path d="M515.141 831.585m-93.895 0a93.895 93.895 0 1 0 187.79 0 93.895 93.895 0 1 0-187.79 0Z" fill="#ffffff" p-id="4706"></path><path d="M501.47 830.221m-93.895 0a93.895 93.895 0 1 0 187.79 0 93.895 93.895 0 1 0-187.79 0Z" fill="#ffffff" p-id="4707"></path><path d="M488.143 827.786m-93.895 0a93.895 93.895 0 1 0 187.79 0 93.895 93.895 0 1 0-187.79 0Z" fill="#ffffff" p-id="4708"></path><path d="M475.205 824.324m-93.895 0a93.895 93.895 0 1 0 187.79 0 93.895 93.895 0 1 0-187.79 0Z" fill="#ffffff" p-id="4709"></path><path d="M462.699 819.881m-93.895 0a93.895 93.895 0 1 0 187.79 0 93.895 93.895 0 1 0-187.79 0Z" fill="#ffffff" p-id="4710"></path><path d="M450.67 814.5m-93.895 0a93.895 93.895 0 1 0 187.79 0 93.895 93.895 0 1 0-187.79 0Z" fill="#ffffff" p-id="4711"></path><path d="M439.162 808.226m-93.895 0a93.895 93.895 0 1 0 187.79 0 93.895 93.895 0 1 0-187.79 0Z" fill="#ffffff" p-id="4712"></path><path d="M428.22 801.103m-93.895 0a93.895 93.895 0 1 0 187.79 0 93.895 93.895 0 1 0-187.79 0Z" fill="#ffffff" p-id="4713"></path><path d="M417.888 793.175m-93.895 0a93.895 93.895 0 1 0 187.79 0 93.895 93.895 0 1 0-187.79 0Z" fill="#ffffff" p-id="4714"></path><path d="M408.21 784.487m-93.895 0a93.895 93.895 0 1 0 187.79 0 93.895 93.895 0 1 0-187.79 0Z" fill="#ffffff" p-id="4715"></path><path d="M399.23 775.083m-93.895 0a93.895 93.895 0 1 0 187.79 0 93.895 93.895 0 1 0-187.79 0Z" fill="#ffffff" p-id="4716"></path><path d="M390.993 765.006m-93.895 0a93.895 93.895 0 1 0 187.79 0 93.895 93.895 0 1 0-187.79 0Z" fill="#ffffff" p-id="4717"></path><path d="M383.543 754.302m-93.895 0a93.895 93.895 0 1 0 187.79 0 93.895 93.895 0 1 0-187.79 0Z" fill="#ffffff" p-id="4718"></path><path d="M376.924 743.015m-93.895 0a93.895 93.895 0 1 0 187.79 0 93.895 93.895 0 1 0-187.79 0Z" fill="#ffffff" p-id="4719"></path><path d="M371.181 731.189m-93.895 0a93.895 93.895 0 1 0 187.79 0 93.895 93.895 0 1 0-187.79 0Z" fill="#ffffff" p-id="4720"></path><path d="M366.358 718.869m-93.895 0a93.895 93.895 0 1 0 187.79 0 93.895 93.895 0 1 0-187.79 0Z" fill="#ffffff" p-id="4721"></path><path d="M362.499 706.098m-93.895 0a93.895 93.895 0 1 0 187.79 0 93.895 93.895 0 1 0-187.79 0Z" fill="#ffffff" p-id="4722"></path></svg>