<?xml version="1.0" standalone="no"?><!DOCTYPE svg PUBLIC "-//W3C//DTD SVG 1.1//EN" "http://www.w3.org/Graphics/SVG/1.1/DTD/svg11.dtd"><svg t="1734594194011" class="icon" viewBox="0 0 1024 1024" version="1.1" xmlns="http://www.w3.org/2000/svg" p-id="4939" xmlns:xlink="http://www.w3.org/1999/xlink" width="2000" height="2000"><path d="M761.962 673.033m-93.895 0a93.895 93.895 0 1 0 187.79 0 93.895 93.895 0 1 0-187.79 0Z" fill="#ffffff" p-id="4940"></path><path d="M743.881 673.033m-93.895 0a93.895 93.895 0 1 0 187.79 0 93.895 93.895 0 1 0-187.79 0Z" fill="#ffffff" p-id="4941"></path><path d="M725.8 673.033m-93.895 0a93.895 93.895 0 1 0 187.79 0 93.895 93.895 0 1 0-187.79 0Z" fill="#ffffff" p-id="4942"></path><path d="M707.72 673.033m-93.895 0a93.895 93.895 0 1 0 187.79 0 93.895 93.895 0 1 0-187.79 0Z" fill="#ffffff" p-id="4943"></path><path d="M689.639 673.033m-93.895 0a93.895 93.895 0 1 0 187.79 0 93.895 93.895 0 1 0-187.79 0Z" fill="#ffffff" p-id="4944"></path><path d="M671.558 673.033m-93.895 0a93.895 93.895 0 1 0 187.79 0 93.895 93.895 0 1 0-187.79 0Z" fill="#ffffff" p-id="4945"></path><path d="M653.477 673.033m-93.895 0a93.895 93.895 0 1 0 187.79 0 93.895 93.895 0 1 0-187.79 0Z" fill="#ffffff" p-id="4946"></path><path d="M635.397 673.033m-93.895 0a93.895 93.895 0 1 0 187.79 0 93.895 93.895 0 1 0-187.79 0Z" fill="#ffffff" p-id="4947"></path><path d="M617.316 673.033m-93.895 0a93.895 93.895 0 1 0 187.79 0 93.895 93.895 0 1 0-187.79 0Z" fill="#ffffff" p-id="4948"></path><path d="M599.235 673.033m-93.895 0a93.895 93.895 0 1 0 187.79 0 93.895 93.895 0 1 0-187.79 0Z" fill="#ffffff" p-id="4949"></path><path d="M581.155 673.033m-93.895 0a93.895 93.895 0 1 0 187.79 0 93.895 93.895 0 1 0-187.79 0Z" fill="#ffffff" p-id="4950"></path><path d="M563.074 673.033m-93.895 0a93.895 93.895 0 1 0 187.79 0 93.895 93.895 0 1 0-187.79 0Z" fill="#ffffff" p-id="4951"></path><path d="M544.993 673.033m-93.895 0a93.895 93.895 0 1 0 187.79 0 93.895 93.895 0 1 0-187.79 0Z" fill="#ffffff" p-id="4952"></path><path d="M526.912 673.033m-93.895 0a93.895 93.895 0 1 0 187.79 0 93.895 93.895 0 1 0-187.79 0Z" fill="#ffffff" p-id="4953"></path><path d="M508.832 673.033m-93.895 0a93.895 93.895 0 1 0 187.79 0 93.895 93.895 0 1 0-187.79 0Z" fill="#ffffff" p-id="4954"></path><path d="M490.751 673.033m-93.895 0a93.895 93.895 0 1 0 187.79 0 93.895 93.895 0 1 0-187.79 0Z" fill="#ffffff" p-id="4955"></path><path d="M472.67 673.033m-93.895 0a93.895 93.895 0 1 0 187.79 0 93.895 93.895 0 1 0-187.79 0Z" fill="#ffffff" p-id="4956"></path><path d="M454.59 673.033m-93.895 0a93.895 93.895 0 1 0 187.79 0 93.895 93.895 0 1 0-187.79 0Z" fill="#ffffff" p-id="4957"></path><path d="M436.509 673.033m-93.895 0a93.895 93.895 0 1 0 187.79 0 93.895 93.895 0 1 0-187.79 0Z" fill="#ffffff" p-id="4958"></path><path d="M418.428 673.033m-93.895 0a93.895 93.895 0 1 0 187.79 0 93.895 93.895 0 1 0-187.79 0Z" fill="#ffffff" p-id="4959"></path><path d="M400.348 673.033m-93.895 0a93.895 93.895 0 1 0 187.79 0 93.895 93.895 0 1 0-187.79 0Z" fill="#ffffff" p-id="4960"></path><path d="M382.267 673.033m-93.895 0a93.895 93.895 0 1 0 187.79 0 93.895 93.895 0 1 0-187.79 0Z" fill="#ffffff" p-id="4961"></path><path d="M364.186 673.033m-93.895 0a93.895 93.895 0 1 0 187.79 0 93.895 93.895 0 1 0-187.79 0Z" fill="#ffffff" p-id="4962"></path><path d="M346.105 673.033m-93.895 0a93.895 93.895 0 1 0 187.79 0 93.895 93.895 0 1 0-187.79 0Z" fill="#ffffff" p-id="4963"></path><path d="M328.025 673.033m-93.895 0a93.895 93.895 0 1 0 187.79 0 93.895 93.895 0 1 0-187.79 0Z" fill="#ffffff" p-id="4964"></path><path d="M309.944 673.033m-93.895 0a93.895 93.895 0 1 0 187.79 0 93.895 93.895 0 1 0-187.79 0Z" fill="#ffffff" p-id="4965"></path><path d="M291.863 673.033m-93.895 0a93.895 93.895 0 1 0 187.79 0 93.895 93.895 0 1 0-187.79 0Z" fill="#ffffff" p-id="4966"></path><path d="M273.783 673.033m-93.895 0a93.895 93.895 0 1 0 187.79 0 93.895 93.895 0 1 0-187.79 0Z" fill="#ffffff" p-id="4967"></path><path d="M255.702 673.033m-93.895 0a93.895 93.895 0 1 0 187.79 0 93.895 93.895 0 1 0-187.79 0Z" fill="#ffffff" p-id="4968"></path><path d="M237.621 673.033m-93.895 0a93.895 93.895 0 1 0 187.79 0 93.895 93.895 0 1 0-187.79 0Z" fill="#ffffff" p-id="4969"></path><path d="M219.142 672.592m-93.895 0a93.895 93.895 0 1 0 187.79 0 93.895 93.895 0 1 0-187.79 0Z" fill="#ffffff" p-id="4970"></path><path d="M202.822 665.002m-93.895 0a93.895 93.895 0 1 0 187.79 0 93.895 93.895 0 1 0-187.79 0Z" fill="#ffffff" p-id="4971"></path><path d="M193.088 650.794m-93.895 0a93.895 93.895 0 1 0 187.79 0 93.895 93.895 0 1 0-187.79 0Z" fill="#ffffff" p-id="4972"></path><path d="M191.521 633.565m-93.895 0a93.895 93.895 0 1 0 187.79 0 93.895 93.895 0 1 0-187.79 0Z" fill="#ffffff" p-id="4973"></path><path d="M199.662 616.928m-93.895 0a93.895 93.895 0 1 0 187.79 0 93.895 93.895 0 1 0-187.79 0Z" fill="#ffffff" p-id="4974"></path><path d="M210.791 602.678m-93.895 0a93.895 93.895 0 1 0 187.79 0 93.895 93.895 0 1 0-187.79 0Z" fill="#ffffff" p-id="4975"></path><path d="M221.92 588.429m-93.895 0a93.895 93.895 0 1 0 187.79 0 93.895 93.895 0 1 0-187.79 0Z" fill="#ffffff" p-id="4976"></path><path d="M233.049 574.179m-93.895 0a93.895 93.895 0 1 0 187.79 0 93.895 93.895 0 1 0-187.79 0Z" fill="#ffffff" p-id="4977"></path><path d="M244.178 559.929m-93.895 0a93.895 93.895 0 1 0 187.79 0 93.895 93.895 0 1 0-187.79 0Z" fill="#ffffff" p-id="4978"></path><path d="M255.307 545.679m-93.895 0a93.895 93.895 0 1 0 187.79 0 93.895 93.895 0 1 0-187.79 0Z" fill="#ffffff" p-id="4979"></path><path d="M266.436 531.429m-93.895 0a93.895 93.895 0 1 0 187.79 0 93.895 93.895 0 1 0-187.79 0Z" fill="#ffffff" p-id="4980"></path><path d="M277.565 517.18m-93.895 0a93.895 93.895 0 1 0 187.79 0 93.895 93.895 0 1 0-187.79 0Z" fill="#ffffff" p-id="4981"></path><path d="M288.694 502.93m-93.895 0a93.895 93.895 0 1 0 187.79 0 93.895 93.895 0 1 0-187.79 0Z" fill="#ffffff" p-id="4982"></path><path d="M299.823 488.68m-93.895 0a93.895 93.895 0 1 0 187.79 0 93.895 93.895 0 1 0-187.79 0Z" fill="#ffffff" p-id="4983"></path><path d="M310.952 474.43m-93.895 0a93.895 93.895 0 1 0 187.79 0 93.895 93.895 0 1 0-187.79 0Z" fill="#ffffff" p-id="4984"></path><path d="M322.081 460.181m-93.895 0a93.895 93.895 0 1 0 187.79 0 93.895 93.895 0 1 0-187.79 0Z" fill="#ffffff" p-id="4985"></path><path d="M333.21 445.931m-93.895 0a93.895 93.895 0 1 0 187.79 0 93.895 93.895 0 1 0-187.79 0Z" fill="#ffffff" p-id="4986"></path><path d="M344.339 431.681m-93.895 0a93.895 93.895 0 1 0 187.79 0 93.895 93.895 0 1 0-187.79 0Z" fill="#ffffff" p-id="4987"></path><path d="M355.468 417.431m-93.895 0a93.895 93.895 0 1 0 187.79 0 93.895 93.895 0 1 0-187.79 0Z" fill="#ffffff" p-id="4988"></path><path d="M366.597 403.181m-93.895 0a93.895 93.895 0 1 0 187.79 0 93.895 93.895 0 1 0-187.79 0Z" fill="#ffffff" p-id="4989"></path><path d="M377.726 388.932m-93.895 0a93.895 93.895 0 1 0 187.79 0 93.895 93.895 0 1 0-187.79 0Z" fill="#ffffff" p-id="4990"></path><path d="M388.855 374.682m-93.895 0a93.895 93.895 0 1 0 187.79 0 93.895 93.895 0 1 0-187.79 0Z" fill="#ffffff" p-id="4991"></path><path d="M399.984 360.432m-93.895 0a93.895 93.895 0 1 0 187.79 0 93.895 93.895 0 1 0-187.79 0Z" fill="#ffffff" p-id="4992"></path><path d="M411.113 346.182m-93.895 0a93.895 93.895 0 1 0 187.79 0 93.895 93.895 0 1 0-187.79 0Z" fill="#ffffff" p-id="4993"></path><path d="M422.242 331.932m-93.895 0a93.895 93.895 0 1 0 187.79 0 93.895 93.895 0 1 0-187.79 0Z" fill="#ffffff" p-id="4994"></path><path d="M433.372 317.683m-93.895 0a93.895 93.895 0 1 0 187.79 0 93.895 93.895 0 1 0-187.79 0Z" fill="#ffffff" p-id="4995"></path><path d="M444.501 303.433m-93.895 0a93.895 93.895 0 1 0 187.79 0 93.895 93.895 0 1 0-187.79 0Z" fill="#ffffff" p-id="4996"></path><path d="M455.63 289.183m-93.895 0a93.895 93.895 0 1 0 187.79 0 93.895 93.895 0 1 0-187.79 0Z" fill="#ffffff" p-id="4997"></path><path d="M466.759 274.933m-93.895 0a93.895 93.895 0 1 0 187.79 0 93.895 93.895 0 1 0-187.79 0Z" fill="#ffffff" p-id="4998"></path><path d="M477.888 260.684m-93.895 0a93.895 93.895 0 1 0 187.79 0 93.895 93.895 0 1 0-187.79 0Z" fill="#ffffff" p-id="4999"></path><path d="M489.017 246.434m-93.895 0a93.895 93.895 0 1 0 187.79 0 93.895 93.895 0 1 0-187.79 0Z" fill="#ffffff" p-id="5000"></path><path d="M500.146 232.184m-93.895 0a93.895 93.895 0 1 0 187.79 0 93.895 93.895 0 1 0-187.79 0Z" fill="#ffffff" p-id="5001"></path><path d="M511.275 217.934m-93.895 0a93.895 93.895 0 1 0 187.79 0 93.895 93.895 0 1 0-187.79 0Z" fill="#ffffff" p-id="5002"></path><path d="M522.515 203.641m-93.895 0a93.895 93.895 0 1 0 187.79 0 93.895 93.895 0 1 0-187.79 0Z" fill="#ffffff" p-id="5003"></path><path d="M538.305 193.924m-93.895 0a93.895 93.895 0 1 0 187.79 0 93.895 93.895 0 1 0-187.79 0Z" fill="#ffffff" p-id="5004"></path><path d="M555.546 193.892m-93.895 0a93.895 93.895 0 1 0 187.79 0 93.895 93.895 0 1 0-187.79 0Z" fill="#ffffff" p-id="5005"></path><path d="M570.561 202.16m-93.895 0a93.895 93.895 0 1 0 187.79 0 93.895 93.895 0 1 0-187.79 0Z" fill="#ffffff" p-id="5006"></path><path d="M579.67 217.341m-93.895 0a93.895 93.895 0 1 0 187.79 0 93.895 93.895 0 1 0-187.79 0Z" fill="#ffffff" p-id="5007"></path><path d="M580.865 236.057m-93.895 0a93.895 93.895 0 1 0 187.79 0 93.895 93.895 0 1 0-187.79 0Z" fill="#ffffff" p-id="5008"></path><path d="M580.865 254.138m-93.895 0a93.895 93.895 0 1 0 187.79 0 93.895 93.895 0 1 0-187.79 0Z" fill="#ffffff" p-id="5009"></path><path d="M580.865 272.219m-93.895 0a93.895 93.895 0 1 0 187.79 0 93.895 93.895 0 1 0-187.79 0Z" fill="#ffffff" p-id="5010"></path><path d="M580.865 290.299m-93.895 0a93.895 93.895 0 1 0 187.79 0 93.895 93.895 0 1 0-187.79 0Z" fill="#ffffff" p-id="5011"></path><path d="M580.865 308.38m-93.895 0a93.895 93.895 0 1 0 187.79 0 93.895 93.895 0 1 0-187.79 0Z" fill="#ffffff" p-id="5012"></path><path d="M580.865 326.461m-93.895 0a93.895 93.895 0 1 0 187.79 0 93.895 93.895 0 1 0-187.79 0Z" fill="#ffffff" p-id="5013"></path><path d="M580.865 344.542m-93.895 0a93.895 93.895 0 1 0 187.79 0 93.895 93.895 0 1 0-187.79 0Z" fill="#ffffff" p-id="5014"></path><path d="M580.865 362.622m-93.895 0a93.895 93.895 0 1 0 187.79 0 93.895 93.895 0 1 0-187.79 0Z" fill="#ffffff" p-id="5015"></path><path d="M580.865 380.703m-93.895 0a93.895 93.895 0 1 0 187.79 0 93.895 93.895 0 1 0-187.79 0Z" fill="#ffffff" p-id="5016"></path><path d="M580.865 398.784m-93.895 0a93.895 93.895 0 1 0 187.79 0 93.895 93.895 0 1 0-187.79 0Z" fill="#ffffff" p-id="5017"></path><path d="M580.865 416.864m-93.895 0a93.895 93.895 0 1 0 187.79 0 93.895 93.895 0 1 0-187.79 0Z" fill="#ffffff" p-id="5018"></path><path d="M580.865 434.945m-93.895 0a93.895 93.895 0 1 0 187.79 0 93.895 93.895 0 1 0-187.79 0Z" fill="#ffffff" p-id="5019"></path><path d="M580.865 453.026m-93.895 0a93.895 93.895 0 1 0 187.79 0 93.895 93.895 0 1 0-187.79 0Z" fill="#ffffff" p-id="5020"></path><path d="M580.865 471.107m-93.895 0a93.895 93.895 0 1 0 187.79 0 93.895 93.895 0 1 0-187.79 0Z" fill="#ffffff" p-id="5021"></path><path d="M580.865 489.187m-93.895 0a93.895 93.895 0 1 0 187.79 0 93.895 93.895 0 1 0-187.79 0Z" fill="#ffffff" p-id="5022"></path><path d="M580.865 507.268m-93.895 0a93.895 93.895 0 1 0 187.79 0 93.895 93.895 0 1 0-187.79 0Z" fill="#ffffff" p-id="5023"></path><path d="M580.865 525.349m-93.895 0a93.895 93.895 0 1 0 187.79 0 93.895 93.895 0 1 0-187.79 0Z" fill="#ffffff" p-id="5024"></path><path d="M580.865 543.429m-93.895 0a93.895 93.895 0 1 0 187.79 0 93.895 93.895 0 1 0-187.79 0Z" fill="#ffffff" p-id="5025"></path><path d="M580.865 561.51m-93.895 0a93.895 93.895 0 1 0 187.79 0 93.895 93.895 0 1 0-187.79 0Z" fill="#ffffff" p-id="5026"></path><path d="M580.865 579.591m-93.895 0a93.895 93.895 0 1 0 187.79 0 93.895 93.895 0 1 0-187.79 0Z" fill="#ffffff" p-id="5027"></path><path d="M580.865 597.671m-93.895 0a93.895 93.895 0 1 0 187.79 0 93.895 93.895 0 1 0-187.79 0Z" fill="#ffffff" p-id="5028"></path><path d="M580.865 615.752m-93.895 0a93.895 93.895 0 1 0 187.79 0 93.895 93.895 0 1 0-187.79 0Z" fill="#ffffff" p-id="5029"></path><path d="M580.865 633.833m-93.895 0a93.895 93.895 0 1 0 187.79 0 93.895 93.895 0 1 0-187.79 0Z" fill="#ffffff" p-id="5030"></path><path d="M580.865 651.914m-93.895 0a93.895 93.895 0 1 0 187.79 0 93.895 93.895 0 1 0-187.79 0Z" fill="#ffffff" p-id="5031"></path><path d="M580.865 669.994m-93.895 0a93.895 93.895 0 1 0 187.79 0 93.895 93.895 0 1 0-187.79 0Z" fill="#ffffff" p-id="5032"></path><path d="M580.865 688.075m-93.895 0a93.895 93.895 0 1 0 187.79 0 93.895 93.895 0 1 0-187.79 0Z" fill="#ffffff" p-id="5033"></path><path d="M580.865 706.156m-93.895 0a93.895 93.895 0 1 0 187.79 0 93.895 93.895 0 1 0-187.79 0Z" fill="#ffffff" p-id="5034"></path><path d="M580.865 724.236m-93.895 0a93.895 93.895 0 1 0 187.79 0 93.895 93.895 0 1 0-187.79 0Z" fill="#ffffff" p-id="5035"></path><path d="M580.865 742.317m-93.895 0a93.895 93.895 0 1 0 187.79 0 93.895 93.895 0 1 0-187.79 0Z" fill="#ffffff" p-id="5036"></path><path d="M580.865 760.398m-93.895 0a93.895 93.895 0 1 0 187.79 0 93.895 93.895 0 1 0-187.79 0Z" fill="#ffffff" p-id="5037"></path><path d="M580.865 778.479m-93.895 0a93.895 93.895 0 1 0 187.79 0 93.895 93.895 0 1 0-187.79 0Z" fill="#ffffff" p-id="5038"></path><path d="M580.865 796.559m-93.895 0a93.895 93.895 0 1 0 187.79 0 93.895 93.895 0 1 0-187.79 0Z" fill="#ffffff" p-id="5039"></path><path d="M580.865 814.64m-93.895 0a93.895 93.895 0 1 0 187.79 0 93.895 93.895 0 1 0-187.79 0Z" fill="#ffffff" p-id="5040"></path><path d="M580.865 832.721m-93.895 0a93.895 93.895 0 1 0 187.79 0 93.895 93.895 0 1 0-187.79 0Z" fill="#ffffff" p-id="5041"></path></svg>