<?xml version="1.0" standalone="no"?><!DOCTYPE svg PUBLIC "-//W3C//DTD SVG 1.1//EN" "http://www.w3.org/Graphics/SVG/1.1/DTD/svg11.dtd"><svg t="1734673754405" class="icon" viewBox="0 0 1024 1024" version="1.1" xmlns="http://www.w3.org/2000/svg" p-id="26957" xmlns:xlink="http://www.w3.org/1999/xlink" width="2000" height="2000"><path d="M904.6016 269.5168l-8.704-8.704L787.7632 152.576l-101.0688-101.0688a0.9216 0.9216 0 0 0-0.7168-0.3072H139.6736c-11.264 0-20.5824 9.216-20.5824 20.5824v880.4352c0 11.264 9.216 20.5824 20.5824 20.5824h744.6528c11.264 0 20.5824-9.216 20.5824-20.5824V270.336c0-0.2048-0.1024-0.6144-0.3072-0.8192zM362.496 378.1632h47.5136c0.4096 0 0.8192 0.2048 0.9216 0.6144l93.184 223.0272c3.072 7.3728 5.4272 15.9744 6.9632 25.7024h1.1264c1.2288-8.4992 3.7888-17.2032 7.7824-26.0096l94.8224-222.72c0.2048-0.4096 0.512-0.6144 0.9216-0.6144h45.6704c0.7168 0 1.2288 0.7168 0.9216 1.4336L535.8592 663.6544c-0.2048 0.4096-0.512 0.6144-0.9216 0.6144h-48.3328c-0.4096 0-0.8192-0.2048-0.9216-0.6144L361.472 379.5968c-0.3072-0.6144 0.2048-1.4336 1.024-1.4336z m321.536 420.6592a1.024 1.024 0 0 1-1.024 1.024H340.992a1.024 1.024 0 0 1-1.024-1.024v-59.392c0-0.512 0.4096-1.024 1.024-1.024h342.016c0.512 0 1.024 0.4096 1.024 1.024v59.392zM826.2656 280.576h-149.504a1.024 1.024 0 0 1-1.024-1.024V129.8432c0-0.9216 1.1264-1.3312 1.7408-0.7168l68.3008 68.3008 81.3056 81.408c0.6144 0.6144 0.1024 1.7408-0.8192 1.7408z" fill="#409EFF" p-id="26958"></path></svg>