<?xml version="1.0" standalone="no"?><!DOCTYPE svg PUBLIC "-//W3C//DTD SVG 1.1//EN" "http://www.w3.org/Graphics/SVG/1.1/DTD/svg11.dtd"><svg t="1734519355514" class="icon" viewBox="0 0 1024 1024" version="1.1" xmlns="http://www.w3.org/2000/svg" p-id="1189" xmlns:xlink="http://www.w3.org/1999/xlink" width="2000" height="2000"><path d="M592.192 543.488s219.072 186.432 248.064 215.424a79.968 79.968 0 1 1-113.12 113.12c-27.424-27.424-214.912-248.576-214.912-248.576l79.968-79.968z" fill="#E66910" p-id="1190"></path><path d="M927.136 270.624l-94.56 94.592-112.064-30.016-30.016-112.032 94.56-94.592A160.032 160.032 0 0 0 608.32 287.68c0 30.368 8.864 58.4 23.52 82.528C518.944 467.232 206.08 736.48 183.616 758.944a80 80 0 1 0 113.152 113.12c23.712-23.68 291.968-335.552 388.768-448.192A158.368 158.368 0 0 0 768 447.36a160 160 0 0 0 159.136-176.736zM465.344 612.992L261.664 816.64a16 16 0 0 1-22.624-22.624l203.648-203.616a16 16 0 0 1 22.656 22.592z" fill="#34B5C7" p-id="1191"></path><path d="M768 479.328a192 192 0 0 0 187.616-232.832c-4.256-19.136-27.04-22.88-40.416-9.472l-92.192 92.192-76.128-20.416 0.064 0.256-0.32-0.32 0.256 0.064-20.384-76.096 92.192-92.192c13.376-13.376 9.632-36.224-9.504-40.448a192 192 0 0 0-232.864 187.584c0 28.544 6.368 55.488 17.504 79.808-30.176 25.6-65.472 55.488-102.688 87.104L304 267.424V206.176L171.936 118.112 86.816 203.2l88.032 132.096h61.248l181.568 181.568c-125.472 106.56-248.96 211.68-256.672 219.424a111.968 111.968 0 1 0 158.4 158.368c6.336-6.336 95.392-110.816 192.512-225.088 76.864 90.624 182.976 215.456 193.12 225.6a111.968 111.968 0 1 0 158.368-158.368c-9.44-9.44-145.12-124.96-236.544-202.624l61.376-72.352c24.32 11.136 51.232 17.504 79.776 17.504zM249.568 303.488H192.192l-64-96 48-48 96 64v57.376l194.432 194.432-24.48 20.768-192.576-192.576z m590.688 455.456a79.968 79.968 0 1 1-113.12 113.12c-22.016-22.016-146.976-168.64-195.488-225.696l27.68-32.64 203.36 203.36a16 16 0 0 0 22.624-22.624l-203.616-203.616c-0.576-0.576-1.28-0.768-1.888-1.248l27.904-32.864c50.048 42.656 208.16 177.824 232.544 202.208zM296.768 872.064a80 80 0 1 1-113.152-113.12c22.464-22.464 335.328-291.712 448.224-388.736a158.24 158.24 0 0 1-23.52-82.528 160.032 160.032 0 0 1 176.736-159.104l-94.56 94.592 30.016 112.032 112.064 30.016 94.56-94.592A160 160 0 0 1 768 447.328a158.368 158.368 0 0 1-82.464-23.488c-96.832 112.672-365.056 424.544-388.768 448.224z" fill="#413A4D" p-id="1192"></path></svg>