<svg width="600" height="344" viewBox="0 0 600 344" fill="none" xmlns="http://www.w3.org/2000/svg">
<g clip-path="url(#clip0_865_1482)">
<rect width="600" height="343.137" rx="7.84314" fill="white"/>
<g clip-path="url(#clip1_865_1482)">
<rect width="979.831" height="162.034" rx="15.2503" transform="matrix(0.996195 -0.0871557 0.34202 0.939693 -54.7555 95.3115)" fill="#F5F5F5"/>
<path fill-rule="evenodd" clip-rule="evenodd" d="M142.911 88.5619C132.423 89.4795 126.84 98.2434 130.441 108.137L138.17 129.373C142.491 141.244 135.791 151.761 123.206 152.862L-23.8043 165.724C-36.3899 166.825 -43.0898 177.342 -38.7688 189.213L-24.7902 227.619C-20.4692 239.491 -6.76358 248.223 5.82209 247.121L996.08 160.485C1008.67 159.384 1015.37 148.867 1011.04 136.996L997.065 98.5897C992.744 86.7179 979.039 77.9865 966.453 79.0876L548.283 115.673C535.697 116.774 521.992 108.042 517.671 96.1706L509.941 74.9346C506.34 65.0414 494.919 57.7652 484.431 58.6828L142.911 88.5619Z" fill="white" fill-opacity="0.6"/>
<g clip-path="url(#clip2_865_1482)">
<path fill-rule="evenodd" clip-rule="evenodd" d="M163.705 101.163C164.237 101.085 164.825 101.174 165.382 101.415L172.159 104.353C172.815 104.637 173.343 105.172 173.562 105.776L179.357 121.696C179.706 122.655 179.193 123.513 178.193 123.644L161.218 125.874C160.601 125.955 159.904 125.74 159.355 125.299L153.804 120.843C153.324 120.458 152.964 119.971 152.776 119.454L147.412 104.719C147.182 104.086 147.515 103.518 148.171 103.422L163.705 101.163ZM163.658 103.617C163.971 103.571 164.436 103.651 164.863 103.826L167.595 104.945C168.208 105.196 168.397 105.573 167.942 105.635L156.78 107.152C156.374 107.207 155.739 107.053 155.267 106.786L153.576 105.827C153.053 105.531 152.981 105.199 153.424 105.133L163.658 103.617ZM167.372 120.254C167.063 120.228 166.783 119.984 166.735 119.699L165.446 112.058C165.394 111.75 165.632 111.515 165.966 111.543L166.659 111.602C166.968 111.629 167.248 111.873 167.296 112.158L168.585 119.799C168.636 120.107 168.399 120.342 168.065 120.313L167.372 120.254ZM162.255 112.643C161.946 112.435 161.558 112.493 161.429 112.766L160.42 114.904L159.591 116.667C159.484 116.895 159.596 117.194 159.853 117.367L162 118.814L164.264 120.335C164.573 120.543 164.962 120.485 165.091 120.212L165.386 119.586C165.494 119.358 165.381 119.058 165.124 118.885L162.319 117C162.062 116.826 161.949 116.526 162.057 116.299L163.226 113.82C163.334 113.592 163.222 113.292 162.964 113.119L162.255 112.643ZM169.767 111.521L172.143 113.119L174.178 114.489C174.435 114.662 174.547 114.962 174.44 115.189L173.593 116.99L172.602 119.09C172.473 119.364 172.085 119.422 171.775 119.214L171.067 118.738C170.809 118.564 170.697 118.264 170.804 118.036L171.974 115.558C172.082 115.33 171.969 115.03 171.712 114.857L168.907 112.972C168.649 112.799 168.537 112.499 168.645 112.271L168.94 111.645C169.069 111.372 169.458 111.314 169.767 111.521Z" fill="url(#paint0_linear_865_1482)"/>
</g>
<path d="M192.424 102.331L198.349 101.812C200.969 101.583 203.202 102.097 205.078 103.375C206.824 104.553 208.143 106.367 209.027 108.797C209.903 111.204 209.923 113.132 209.109 114.578C208.242 116.074 206.51 116.935 203.889 117.164L198.01 117.679L192.424 102.331ZM195.635 104.113L199.766 115.462L202.706 115.205C204.757 115.026 206.112 114.419 206.732 113.411C207.33 112.405 207.292 110.944 206.588 109.01C205.868 107.032 204.874 105.655 203.633 104.832C202.34 103.992 200.672 103.672 198.621 103.851L195.635 104.113ZM215.902 104.336C217.817 104.168 219.517 104.64 220.973 105.799C222.292 106.837 223.334 108.343 224.076 110.319L215.143 111.1C215.626 112.167 216.227 112.98 216.985 113.512C217.735 114.023 218.597 114.258 219.554 114.175C220.397 114.101 221.011 113.848 221.402 113.436C221.702 113.1 221.864 112.575 221.949 111.902L224.364 111.691C224.466 112.747 224.263 113.674 223.693 114.434C222.972 115.362 221.83 115.905 220.258 116.043C218.526 116.194 216.948 115.8 215.577 114.878C214.092 113.898 213.021 112.506 212.356 110.679C211.754 109.024 211.754 107.604 212.396 106.395C212.984 105.168 214.171 104.487 215.902 104.336ZM216.651 106.2C215.74 106.279 215.12 106.578 214.76 107.142C214.439 107.68 214.355 108.419 214.563 109.377L220.921 108.821C219.989 106.906 218.566 106.032 216.651 106.2ZM223.58 103.974L226.201 103.745L232.176 111.762L232.126 103.227L234.747 102.997L234.416 114.494L232.001 114.705L223.58 103.974ZM235.864 98.5302L243.293 97.8802C244.888 97.7406 246.244 97.9769 247.422 98.628C248.538 99.2401 249.307 100.127 249.738 101.309C250.051 102.169 250.089 102.919 249.852 103.561C249.6 104.16 249.141 104.644 248.422 104.995C249.564 105.095 250.533 105.431 251.307 106.007C252.08 106.582 252.659 107.397 253.034 108.429C253.598 109.976 253.435 111.144 252.584 111.973C251.846 112.658 250.611 113.077 248.879 113.228L241.45 113.878L235.864 98.5302ZM239.052 100.247L240.719 104.826L245.003 104.451C246.142 104.352 246.892 104.086 247.261 103.677C247.621 103.246 247.653 102.622 247.355 101.806C247.074 101.032 246.62 100.495 245.993 100.195C245.359 99.8732 244.476 99.773 243.382 99.8687L239.052 100.247ZM241.415 106.739L243.23 111.726L247.833 111.324C248.882 111.232 249.639 110.988 250.122 110.635C250.703 110.163 250.856 109.484 250.535 108.603C250.206 107.7 249.667 107.06 248.949 106.701C248.231 106.343 247.272 106.227 246.087 106.331L241.415 106.739ZM259.086 100.558C260.863 100.402 262.502 100.835 263.98 101.859C265.428 102.864 266.483 104.213 267.101 105.912C267.711 107.588 267.696 109.031 267.039 110.198C266.352 111.411 265.127 112.117 263.35 112.273C261.572 112.428 259.925 111.974 258.425 110.951C256.985 109.968 255.953 108.617 255.342 106.94C254.724 105.242 254.74 103.799 255.412 102.609C256.076 101.398 257.308 100.713 259.086 100.558ZM259.767 102.428C258.65 102.525 257.933 103.01 257.622 103.902C257.334 104.659 257.419 105.605 257.826 106.723C258.233 107.841 258.812 108.722 259.618 109.383C260.53 110.146 261.553 110.5 262.669 110.403C263.786 110.305 264.495 109.799 264.836 108.927C265.117 108.148 265.062 107.221 264.663 106.125C264.256 105.007 263.646 104.107 262.841 103.445C261.898 102.663 260.883 102.33 259.767 102.428ZM267.589 100.124L270.415 99.8769L274.296 103.175L275.588 99.4243L278.414 99.1771L276.228 104.736L282.96 110.247L280.134 110.494L275.517 106.528L273.959 111.034L271.11 111.283L273.562 104.969L267.589 100.124Z" fill="#111824"/>
<path fill-rule="evenodd" clip-rule="evenodd" d="M484.361 85.3541L488.129 79.4402L485.504 77.768L481.736 83.6819L474.03 78.7724L472.747 80.7865L480.453 85.696L476.686 91.6094L479.311 93.2816L483.078 87.3682L490.785 92.2782L492.068 90.2641L484.361 85.3541Z" fill="black"/>
<rect x="1.87787" y="1.19633" width="772.736" height="62.36" rx="31.18" transform="matrix(0.996195 -0.0871557 0.34202 0.939693 269.995 150.927)" fill="#F6F6F6" stroke="#6AB8F0" stroke-width="2.80653"/>
<path d="M350.443 171.329L353.269 171.082L357.15 174.38L358.442 170.629L361.267 170.382L359.082 175.941L365.814 181.452L362.988 181.699L358.37 177.733L356.812 182.239L353.964 182.488L356.415 176.174L350.443 171.329ZM363.477 170.189L366.302 169.942L370.183 173.24L371.475 169.489L374.301 169.242L372.115 174.801L378.847 180.311L376.022 180.558L371.404 176.593L369.846 181.099L366.997 181.348L369.449 175.034L363.477 170.189ZM376.51 169.048L379.336 168.801L383.217 172.099L384.509 168.349L387.335 168.101L385.149 173.66L391.881 179.171L389.055 179.418L384.437 175.453L382.88 179.958L380.031 180.208L382.483 173.894L376.51 169.048ZM394.931 175.732C395.387 175.692 395.852 175.807 396.303 176.078C396.732 176.351 397.055 176.722 397.227 177.195C397.383 177.625 397.342 178.028 397.14 178.378C396.9 178.687 396.545 178.874 396.089 178.914C395.588 178.958 395.145 178.841 394.747 178.587C394.288 178.295 393.988 177.922 393.831 177.492C393.659 177.019 393.678 176.618 393.91 176.287C394.097 175.961 394.43 175.776 394.931 175.732ZM401.72 166.532C404.774 166.265 406.883 167.278 408.009 169.598L405.662 169.803C405.26 169.217 404.838 168.832 404.365 168.63C403.861 168.408 403.176 168.335 402.355 168.406C401.626 168.47 401.11 168.604 400.824 168.851C400.469 169.104 400.389 169.466 400.546 169.896C400.687 170.283 401.123 170.577 401.863 170.801C402.336 170.937 403.189 171.084 404.475 171.26C405.929 171.443 407.065 171.721 407.844 172.052C408.982 172.529 409.742 173.261 410.102 174.25C410.955 176.593 409.63 177.929 406.144 178.234C402.908 178.517 400.698 177.357 399.486 174.801L401.856 174.594C402.267 175.335 402.759 175.846 403.278 176.111C403.79 176.355 404.483 176.449 405.395 176.37C407.263 176.206 408.033 175.606 407.673 174.618C407.477 174.08 406.956 173.682 406.163 173.441C405.736 173.301 404.86 173.156 403.558 173.003C402.058 172.824 400.961 172.587 400.289 172.291C399.182 171.834 398.452 171.121 398.108 170.175C397.74 169.165 397.884 168.332 398.569 167.695C399.247 167.037 400.307 166.656 401.72 166.532ZM415.42 165.334C417.152 165.182 418.577 165.479 419.695 166.224C420.659 166.872 421.4 167.872 421.892 169.226L424.474 176.319L422.241 176.515L421.67 174.946C421.418 175.544 421.012 176.046 420.446 176.428C419.796 176.84 418.955 177.113 417.907 177.205C416.676 177.312 415.61 177.095 414.715 176.574C413.752 176.06 413.113 175.339 412.777 174.415C412.323 173.168 412.495 172.155 413.301 171.397C414.023 170.668 415.273 170.226 416.989 170.032L419.609 169.736L419.445 169.285C418.882 167.737 417.711 167.041 415.934 167.196C415.182 167.262 414.613 167.445 414.251 167.743C413.814 168.092 413.637 168.573 413.727 169.208L411.264 169.224C411.076 167.998 411.386 167.04 412.185 166.393C412.863 165.801 413.962 165.461 415.42 165.334ZM420.212 171.391L417.751 171.673C415.556 171.909 414.729 172.736 415.229 174.112C415.386 174.542 415.693 174.87 416.182 175.115C416.649 175.363 417.205 175.469 417.82 175.415C418.846 175.326 419.602 174.949 420.12 174.305C420.638 173.661 420.759 172.896 420.446 172.036L420.212 171.391ZM424.234 160.282C424.712 160.24 425.169 160.333 425.598 160.606C426.019 160.858 426.311 161.209 426.475 161.661C426.64 162.112 426.59 162.493 426.381 162.822C426.164 163.13 425.808 163.316 425.352 163.356C424.874 163.398 424.432 163.281 424.011 163.03C423.582 162.757 423.282 162.384 423.126 161.954C422.961 161.502 422.988 161.123 423.205 160.815C423.415 160.487 423.755 160.324 424.234 160.282ZM424.645 164.837L427.061 164.626L431.106 175.739L428.69 175.951L424.645 164.837ZM429.903 159.697L432.318 159.486L438.014 175.135L435.599 175.346L429.903 159.697ZM443.241 162.9C445.018 162.744 446.657 163.178 448.135 164.202C449.583 165.206 450.638 166.556 451.256 168.254C451.866 169.93 451.851 171.374 451.194 172.54C450.507 173.754 449.282 174.46 447.505 174.615C445.727 174.771 444.081 174.316 442.58 173.294C441.14 172.311 440.108 170.959 439.497 169.283C438.879 167.584 438.895 166.141 439.567 164.951C440.231 163.74 441.463 163.055 443.241 162.9ZM443.922 164.77C442.805 164.868 442.088 165.352 441.777 166.244C441.489 167.001 441.575 167.947 441.981 169.065C442.388 170.183 442.967 171.064 443.773 171.725C444.685 172.488 445.708 172.843 446.824 172.745C447.941 172.647 448.65 172.142 448.991 171.269C449.272 170.49 449.217 169.563 448.818 168.467C448.411 167.349 447.801 166.449 446.996 165.787C446.053 165.005 445.038 164.672 443.922 164.77ZM456.762 161.717C459.816 161.45 461.925 162.463 463.051 164.782L460.704 164.987C460.302 164.401 459.88 164.017 459.407 163.814C458.903 163.592 458.218 163.519 457.397 163.591C456.668 163.655 456.153 163.789 455.866 164.035C455.511 164.288 455.432 164.65 455.588 165.08C455.729 165.467 456.165 165.762 456.905 165.985C457.378 166.121 458.231 166.268 459.518 166.444C460.972 166.627 462.107 166.905 462.886 167.236C464.024 167.713 464.784 168.445 465.144 169.434C465.997 171.777 464.672 173.113 461.186 173.418C457.95 173.701 455.741 172.541 454.528 169.986L456.898 169.779C457.309 170.519 457.801 171.03 458.321 171.295C458.832 171.539 459.525 171.634 460.437 171.554C462.305 171.39 463.075 170.791 462.715 169.802C462.519 169.265 461.998 168.867 461.205 168.625C460.778 168.485 459.902 168.34 458.6 168.188C457.101 168.009 456.003 167.772 455.331 167.476C454.224 167.018 453.495 166.306 453.15 165.36C452.783 164.35 452.926 163.516 453.611 162.88C454.289 162.222 455.349 161.84 456.762 161.717ZM469.921 169.172C470.376 169.132 470.841 169.246 471.293 169.517C471.721 169.79 472.044 170.161 472.216 170.634C472.373 171.064 472.331 171.467 472.13 171.817C471.89 172.127 471.534 172.313 471.078 172.353C470.577 172.397 470.135 172.28 469.737 172.027C469.278 171.734 468.977 171.361 468.821 170.931C468.649 170.458 468.668 170.058 468.9 169.727C469.087 169.4 469.419 169.215 469.921 169.172ZM472.511 156.058C472.989 156.016 473.446 156.109 473.875 156.382C474.296 156.634 474.588 156.985 474.752 157.437C474.917 157.888 474.867 158.27 474.658 158.599C474.441 158.906 474.085 159.092 473.629 159.132C473.151 159.174 472.709 159.057 472.288 158.806C471.859 158.533 471.559 158.16 471.402 157.73C471.238 157.279 471.265 156.899 471.482 156.592C471.692 156.263 472.032 156.1 472.511 156.058ZM472.922 160.614L475.338 160.402L479.383 171.516L476.967 171.727L472.922 160.614ZM484.871 159.258C486.649 159.102 488.288 159.535 489.766 160.559C491.213 161.564 492.268 162.913 492.887 164.612C493.497 166.288 493.481 167.731 492.824 168.898C492.137 170.111 490.913 170.817 489.135 170.973C487.358 171.128 485.711 170.674 484.21 169.651C482.771 168.668 481.738 167.317 481.128 165.64C480.51 163.942 480.525 162.499 481.197 161.309C481.862 160.098 483.094 159.413 484.871 159.258ZM485.552 161.128C484.435 161.225 483.718 161.71 483.408 162.602C483.119 163.359 483.205 164.305 483.612 165.423C484.019 166.541 484.598 167.422 485.403 168.083C486.316 168.846 487.338 169.2 488.455 169.103C489.571 169.005 490.281 168.499 490.621 167.627C490.902 166.848 490.847 165.921 490.448 164.825C490.041 163.707 489.431 162.807 488.626 162.145C487.683 161.363 486.669 161.03 485.552 161.128Z" fill="#111824"/>
<path d="M39.573 200.821L21.6147 202.393L27.0314 193.89L24.2217 192.111L16.4697 204.279L32.3276 214.382L33.6939 212.237L22.628 205.176L40.5863 203.605L39.573 200.821Z" fill="#ABABAB"/>
<path d="M82.2169 197.09L100.175 195.519L89.0945 188.459L90.4756 186.313L106.333 196.416L98.5815 208.584L95.7865 206.804L101.188 198.302L83.2302 199.874L82.2169 197.09Z" fill="#ABABAB"/>
<circle cx="22.6418" cy="22.6418" r="22.6418" transform="matrix(0.996195 -0.0871557 0.34202 0.939693 283.958 159.146)" fill="#F9FBFF"/>
<g clip-path="url(#clip3_865_1482)">
<path fill-rule="evenodd" clip-rule="evenodd" d="M305.861 175.386C307.234 175.266 307.964 174.119 307.493 172.824C307.022 171.529 305.527 170.577 304.155 170.697C302.782 170.817 302.052 171.964 302.523 173.259C302.994 174.554 304.489 175.506 305.861 175.386ZM306.699 177.687C309.419 177.449 310.867 175.176 309.933 172.611C308.999 170.045 306.037 168.158 303.317 168.396C300.597 168.634 299.149 170.907 300.083 173.472C301.017 176.038 303.979 177.925 306.699 177.687Z" fill="#1D1D1E"/>
<path d="M311.703 171.885L322.01 170.983L322.847 173.284L312.541 174.186L311.703 171.885Z" fill="#1D1D1E"/>
<path fill-rule="evenodd" clip-rule="evenodd" d="M322.913 181.856C321.541 181.976 320.81 183.123 321.281 184.418C321.752 185.712 323.247 186.664 324.62 186.544C325.992 186.424 326.723 185.277 326.251 183.983C325.78 182.688 324.286 181.736 322.913 181.856ZM322.075 179.554C319.355 179.792 317.907 182.065 318.841 184.631C319.775 187.197 322.737 189.084 325.457 188.846C328.177 188.608 329.625 186.335 328.691 183.769C327.758 181.204 324.795 179.316 322.075 179.554Z" fill="#1D1D1E"/>
<path d="M317.071 185.357L306.765 186.259L305.927 183.957L316.234 183.056L317.071 185.357Z" fill="#1D1D1E"/>
</g>
<g clip-path="url(#clip4_865_1482)">
<path d="M226.503 199.575L220.433 182.897L229.184 173.528L244.006 180.835L250.076 197.512L241.236 198.286L237.695 188.557L231.802 189.073L235.343 198.801L226.503 199.575ZM228.438 196.537L231.384 196.279L227.843 186.551L239.63 185.52L243.171 195.248L246.118 194.99L241.565 182.483L230.449 177.002L223.885 184.029L228.438 196.537Z" fill="#474747"/>
</g>
<path d="M168.139 202.481C164.849 202.769 161.67 201.936 158.603 199.981C155.535 198.027 153.437 195.498 152.307 192.395C151.178 189.291 151.363 186.562 152.862 184.209C154.362 181.855 156.756 180.534 160.047 180.246C161.741 180.098 163.482 180.286 165.269 180.812C167.056 181.336 168.725 182.164 170.277 183.294L169.392 180.862C169.249 180.469 169.27 180.126 169.455 179.835C169.641 179.544 169.942 179.38 170.359 179.344C170.777 179.307 171.175 179.41 171.553 179.651C171.933 179.893 172.195 180.211 172.338 180.605L174.867 187.553C175.011 187.947 174.989 188.289 174.803 188.58C174.618 188.871 174.317 189.035 173.9 189.072L166.534 189.716C166.116 189.753 165.718 189.65 165.339 189.408C164.959 189.166 164.698 188.849 164.555 188.455C164.411 188.062 164.433 187.719 164.618 187.427C164.803 187.137 165.105 186.973 165.522 186.937L170.236 186.524C168.979 185.296 167.534 184.371 165.902 183.749C164.269 183.127 162.654 182.886 161.058 183.025C158.603 183.24 156.811 184.234 155.682 186.005C154.554 187.777 154.411 189.821 155.254 192.137C156.097 194.453 157.673 196.346 159.981 197.817C162.29 199.288 164.672 199.916 167.128 199.701C168.822 199.553 170.234 198.993 171.363 198.022C172.491 197.051 173.154 195.828 173.352 194.353C173.382 194.088 173.507 193.856 173.727 193.658C173.945 193.459 174.202 193.347 174.496 193.321C175.061 193.272 175.552 193.42 175.97 193.766C176.387 194.112 176.569 194.526 176.517 195.008C176.3 197.059 175.439 198.765 173.933 200.127C172.428 201.49 170.497 202.275 168.139 202.481Z" fill="#474747"/>
<path d="M556.592 79.9003L548.766 80.585L551.453 87.967L548.844 88.1952L546.157 80.8132L538.331 81.4979L537.436 79.0372L545.262 78.3525L542.575 70.9705L545.183 70.7423L547.87 78.1243L555.696 77.4396L556.592 79.9003Z" fill="#474747"/>
</g>
<g filter="url(#filter0_dd_865_1482)">
<path d="M318.662 237.836C316.932 233.084 319.614 228.875 324.651 228.434L486.421 214.281C491.459 213.84 496.945 217.335 498.674 222.087L513.706 263.387C515.436 268.139 512.754 272.348 507.716 272.789L345.947 286.942C340.909 287.383 335.423 283.888 333.694 279.136L318.662 237.836Z" stroke="white" stroke-opacity="0.7" stroke-width="1.22084" shape-rendering="crispEdges"/>
<path fill-rule="evenodd" clip-rule="evenodd" d="M461.882 215.81L435.832 195.827L425.487 218.994L321.864 228.06C317.834 228.413 315.688 231.78 317.072 235.582L333.832 281.631C335.216 285.432 339.605 288.228 343.635 287.875L510.502 273.276C514.532 272.924 516.677 269.556 515.294 265.755L498.533 219.706C497.15 215.904 492.761 213.109 488.731 213.461L461.882 215.81Z" fill="white" fill-opacity="0.6"/>
<path d="M352.972 245.792L354.886 245.625L355.711 247.891L363.193 247.236L363.81 248.931L356.328 249.586L357.207 252L362.403 251.545L362.966 253.093C362.655 255.173 361.768 257 360.331 258.59C361.371 258.955 362.482 259.295 363.652 259.573C365.232 259.929 366.852 260.225 368.535 260.42L368.024 262.061C366.17 261.786 364.381 261.41 362.636 260.936C361.401 260.587 360.23 260.196 359.124 259.76C357.419 261.221 355.17 262.463 352.405 263.504L350.76 262.032C353.391 261.174 355.524 260.113 357.147 258.868C355.909 258.235 354.754 257.5 353.71 256.678C352.731 255.928 351.927 255.104 351.299 254.209L349.932 254.328L349.335 252.688L355.293 252.167L354.414 249.753L346.972 250.405L346.355 248.709L353.797 248.058L352.972 245.792ZM358.374 257.81C359.671 256.499 360.522 255.018 360.89 253.37L353.135 254.048C353.802 254.883 354.585 255.594 355.49 256.199C356.396 256.805 357.36 257.348 358.374 257.81ZM376.777 243.823L378.593 243.665L379.217 245.378L383.065 245.041L383.649 246.644L379.801 246.981L380.438 248.731L385.028 248.33L385.631 249.988L374.849 250.932L374.246 249.273L378.621 248.89L377.984 247.14L374.312 247.461L373.728 245.858L377.4 245.537L376.777 243.823ZM375.247 252.912L382.201 252.304L381.739 251.032L383.594 250.87L384.057 252.141L386.362 251.94L386.959 253.579L384.654 253.781L386.33 258.387C386.773 259.603 386.356 260.286 385.067 260.399L382.489 260.625L381.462 258.965C382.302 258.949 383.077 258.919 383.82 258.854C384.308 258.811 384.475 258.55 384.314 258.108L382.798 253.943L375.844 254.552L375.247 252.912ZM374.018 261.328L372.299 261.478L371.298 259.836C371.832 259.865 372.334 259.859 372.803 259.818C373.272 259.777 373.438 259.515 373.264 259.036L371.862 255.185C371.259 255.466 370.656 255.747 370.027 256.011L368.914 254.284C369.706 254.024 370.466 253.73 371.212 253.398L369.81 249.547L367.584 249.742L366.973 248.065L369.2 247.87L368.053 244.72L369.87 244.561L371.017 247.712L372.892 247.547L373.502 249.224L371.627 249.388L372.794 252.594C373.338 252.261 373.856 251.912 374.373 251.563L375.024 253.35C374.506 253.699 373.962 254.032 373.431 254.345L375.242 259.32C375.684 260.536 375.268 261.218 374.018 261.328ZM378.442 254.933C379.756 255.94 380.808 256.836 381.598 257.623L380.481 258.709C379.632 257.871 378.547 256.939 377.253 255.93L378.442 254.933ZM402.385 243.598L407.817 258.523L405.942 258.687L405.566 257.655L395.878 258.503L396.253 259.535L394.378 259.699L388.946 244.774L393.165 244.405C393.308 243.689 393.365 242.962 393.293 242.207L395.281 242.3C395.327 242.98 395.256 243.614 395.119 244.234L402.385 243.598ZM395.274 256.844L404.963 255.997L404.024 253.417L394.335 254.265L395.274 256.844ZM393.745 252.643L403.434 251.796L402.555 249.382L392.867 250.23L393.745 252.643ZM392.277 248.608L401.965 247.761L401.12 245.439L391.432 246.287L392.277 248.608ZM411.553 246.161L423.156 245.146L423.76 246.804L418.955 247.225L419.96 249.989L425.586 249.497L426.19 251.155L420.564 251.647L421.798 255.037C423.193 255.105 424.848 255.056 426.808 254.903C427.785 254.818 428.78 254.674 429.769 254.511L430.048 256.274L428.212 256.434C424.11 256.793 421.033 256.701 419.02 256.155C417.569 255.711 416.258 254.99 415.088 253.989C414.882 255.528 414.42 256.861 413.702 257.989L411.981 256.695C413.16 254.728 413.525 252.187 413.05 249.11L414.954 249.248C415.109 250.337 415.185 251.376 415.188 252.326C416.629 253.683 418.124 254.522 419.639 254.808L419.828 254.829L417.118 247.386L412.157 247.82L411.553 246.161ZM424.212 241.346L425.734 245.529L423.918 245.688L422.986 243.127L410.25 244.241L411.216 246.894L409.399 247.053L407.843 242.779L415.188 242.136C414.7 241.57 414.193 241.063 413.706 240.612L415.591 240.142C416.072 240.69 416.574 241.292 417.082 241.97L424.212 241.346ZM434.643 238.628C436.291 239.833 437.849 241.18 439.318 242.668L437.913 243.627C436.379 242.069 434.794 240.706 433.172 239.517L434.643 238.628ZM441.222 238.984L443.199 239.21C443.882 243.523 443.378 247.122 441.713 250.025C444.367 251.39 447.258 252.411 450.36 253.071L449.798 254.793C446.564 254.049 443.555 252.925 440.77 251.419C439.226 253.379 437.092 254.992 434.335 256.222L432.696 254.711C435.324 253.569 437.362 252.079 438.803 250.279C435.543 248.245 432.597 245.689 429.971 242.573L431.335 241.503C433.791 244.539 436.586 247.013 439.74 248.924C441.342 246.236 441.829 242.923 441.222 238.984ZM453.646 239.418L460.405 238.826C460.11 238.073 459.829 237.299 459.54 236.507L461.337 236.349C461.633 237.16 461.914 237.934 462.202 238.669L463.765 238.532C463.322 237.925 462.879 237.374 462.438 236.88L464.004 236.477C464.407 237.031 464.844 237.678 465.308 238.397L466.167 238.322L466.771 239.981L462.825 240.326C463.716 242.662 464.557 244.642 465.304 246.25C465.426 244.813 465.344 243.204 465.065 241.442L466.902 241.946C467.256 244.748 467.209 247.11 466.74 249.033C467.582 250.461 468.196 251.206 468.62 251.264C468.919 251.2 468.949 250.285 468.677 248.54L470.453 249.488C470.581 251.777 470.189 252.971 469.271 253.051C468.607 253.109 467.82 252.665 466.944 251.753C466.674 251.453 466.397 251.135 466.145 250.777C465.636 251.924 464.929 252.861 464.05 253.603L462.407 252.302C463.539 251.423 464.341 250.251 464.822 248.802C464.543 248.313 464.277 247.804 464.011 247.294C463.1 245.511 462.112 243.24 461.048 240.481L454.25 241.076L453.646 239.418ZM455.549 242.54L460.706 242.089L462.664 247.469L457.507 247.921L455.549 242.54ZM460.546 246.191L459.627 243.667L457.654 243.839L458.573 246.363L460.546 246.191ZM463.038 248.33L463.614 249.915C461.948 250.764 460.105 251.515 458.092 252.185L457.032 250.548C459.177 250.018 461.164 249.274 463.038 248.33ZM449.342 242.266L451.1 242.112L449.397 237.432L451.213 237.273L452.917 241.953L454.616 241.804L455.233 243.5L453.534 243.648L455.358 248.66C455.837 248.371 456.29 248.065 456.743 247.759L457.38 249.51C456.099 250.42 454.673 251.21 453.103 251.88L452.01 250.151C452.621 249.945 453.205 249.723 453.782 249.482L451.717 243.807L449.959 243.961L449.342 242.266ZM480.062 251.157L480.417 252.133L478.562 252.295L476.261 245.976C475.281 246.385 474.217 246.782 473.087 247.166L471.493 245.556C474.541 244.681 476.981 243.688 478.82 242.539C477.771 241.984 476.429 241.398 474.84 240.796L476.099 239.716C477.755 240.388 479.091 241.013 480.126 241.588C481.535 240.419 482.415 239.125 482.791 237.723L476.033 238.315C475.12 239.573 473.835 240.75 472.139 241.849L470.339 240.448C473.158 238.832 474.801 237.035 475.282 235.034L477.394 235.078C477.295 235.581 477.17 236.067 476.998 236.538L484.323 235.897L484.887 237.445C484.469 239.896 482.894 242.049 480.157 243.886L487.638 243.231L490.555 251.246L488.68 251.41L488.324 250.434L480.062 251.157ZM487.707 248.739L486.353 245.017L478.09 245.74L479.445 249.461L487.707 248.739Z" fill="#111824"/>
</g>
<g filter="url(#filter1_f_865_1482)">
<rect y="365.686" width="365.686" height="110.514" transform="rotate(-90 0 365.686)" fill="url(#paint1_linear_865_1482)"/>
</g>
<g filter="url(#filter2_f_865_1482)">
<rect width="343.137" height="83.2336" transform="matrix(-1.19249e-08 -1 -1 1.19249e-08 600 343.137)" fill="url(#paint2_linear_865_1482)"/>
</g>
</g>
<defs>
<filter id="filter0_dd_865_1482" x="309.83" y="190.943" width="213.242" height="102.307" filterUnits="userSpaceOnUse" color-interpolation-filters="sRGB">
<feFlood flood-opacity="0" result="BackgroundImageFix"/>
<feColorMatrix in="SourceAlpha" type="matrix" values="0 0 0 0 0 0 0 0 0 0 0 0 0 0 0 0 0 0 127 0" result="hardAlpha"/>
<feOffset/>
<feGaussianBlur stdDeviation="0.61042"/>
<feComposite in2="hardAlpha" operator="out"/>
<feColorMatrix type="matrix" values="0 0 0 0 0.473958 0 0 0 0 0.552499 0 0 0 0 0.625 0 0 0 0.25 0"/>
<feBlend mode="normal" in2="BackgroundImageFix" result="effect1_dropShadow_865_1482"/>
<feColorMatrix in="SourceAlpha" type="matrix" values="0 0 0 0 0 0 0 0 0 0 0 0 0 0 0 0 0 0 127 0" result="hardAlpha"/>
<feOffset/>
<feGaussianBlur stdDeviation="2.44168"/>
<feComposite in2="hardAlpha" operator="out"/>
<feColorMatrix type="matrix" values="0 0 0 0 0.632917 0 0 0 0 0.655278 0 0 0 0 0.7 0 0 0 0.25 0"/>
<feBlend mode="normal" in2="effect1_dropShadow_865_1482" result="effect2_dropShadow_865_1482"/>
<feBlend mode="normal" in="SourceGraphic" in2="effect2_dropShadow_865_1482" result="shape"/>
</filter>
<filter id="filter1_f_865_1482" x="-3.92157" y="-3.92157" width="118.357" height="373.529" filterUnits="userSpaceOnUse" color-interpolation-filters="sRGB">
<feFlood flood-opacity="0" result="BackgroundImageFix"/>
<feBlend mode="normal" in="SourceGraphic" in2="BackgroundImageFix" result="shape"/>
<feGaussianBlur stdDeviation="1.96078" result="effect1_foregroundBlur_865_1482"/>
</filter>
<filter id="filter2_f_865_1482" x="512.845" y="-3.92163" width="91.0768" height="350.98" filterUnits="userSpaceOnUse" color-interpolation-filters="sRGB">
<feFlood flood-opacity="0" result="BackgroundImageFix"/>
<feBlend mode="normal" in="SourceGraphic" in2="BackgroundImageFix" result="shape"/>
<feGaussianBlur stdDeviation="1.96078" result="effect1_foregroundBlur_865_1482"/>
</filter>
<linearGradient id="paint0_linear_865_1482" x1="158.517" y1="100.422" x2="152.325" y2="125.024" gradientUnits="userSpaceOnUse">
<stop stop-color="#213654"/>
<stop offset="1" stop-color="#0F1D32"/>
</linearGradient>
<linearGradient id="paint1_linear_865_1482" x1="205.702" y1="365.686" x2="206.648" y2="469.806" gradientUnits="userSpaceOnUse">
<stop stop-color="white"/>
<stop offset="1" stop-color="white" stop-opacity="0"/>
</linearGradient>
<linearGradient id="paint2_linear_865_1482" x1="193.018" y1="2.24623e-06" x2="193.59" y2="78.4196" gradientUnits="userSpaceOnUse">
<stop stop-color="white"/>
<stop offset="1" stop-color="white" stop-opacity="0"/>
</linearGradient>
<clipPath id="clip0_865_1482">
<rect width="600" height="343.137" rx="7.84314" fill="white"/>
</clipPath>
<clipPath id="clip1_865_1482">
<rect width="979.831" height="162.034" rx="15.2503" transform="matrix(0.996195 -0.0871557 0.34202 0.939693 -54.7555 95.3115)" fill="white"/>
</clipPath>
<clipPath id="clip2_865_1482">
<rect width="30.5006" height="30.5006" fill="white" transform="matrix(0.996195 -0.0871557 0.34202 0.939693 143.057 100.427)"/>
</clipPath>
<clipPath id="clip3_865_1482">
<rect width="29.3918" height="29.3918" fill="white" transform="matrix(0.996195 -0.0871557 0.34202 0.939693 294.721 166.094)"/>
</clipPath>
<clipPath id="clip4_865_1482">
<rect width="35.495" height="35.495" fill="white" transform="matrix(0.996195 -0.0871557 0.34202 0.939693 209.987 170.905)"/>
</clipPath>
</defs>
</svg>
