<?xml version="1.0" standalone="no"?><!DOCTYPE svg PUBLIC "-//W3C//DTD SVG 1.1//EN" "http://www.w3.org/Graphics/SVG/1.1/DTD/svg11.dtd"><svg t="1734674065312" class="icon" viewBox="0 0 1024 1024" version="1.1" xmlns="http://www.w3.org/2000/svg" p-id="39213" xmlns:xlink="http://www.w3.org/1999/xlink" width="2000" height="2000"><path d="M740.2 136.7l-1 502.5c0 5.4-4 10-9.3 10.7l-641.4 90c-6.5 0.9-12.4-4.2-12.3-10.8l0.8-502.5c0-5.4 4-10 9.3-10.7l641.5-90c6.6-0.9 12.4 4.2 12.4 10.8z" fill="#D9E8FF" p-id="39214"></path><path d="M780.7 168.7l-1 502.5c0 5.4-4 10-9.3 10.7l-641.4 90c-6.5 0.9-12.4-4.2-12.3-10.8l0.9-502.5c0-5.4 4-10 9.3-10.7l641.5-90c6.5-0.9 12.3 4.2 12.3 10.8z" fill="#CCE0FF" p-id="39215"></path><path d="M829.3 182.1c3.9-0.5 7 2.4 7 6.6l-1 536.8c0 4.2-3.2 8-7.1 8.6l-660.7 90.6c-3.9 0.5-7-2.4-7-6.6l1-536.8c0-4.2 3.2-8 7.1-8.6l660.7-90.6zM824 722.6l1-527.6-652.1 89.4-1 527.6L824 722.6" fill="#D5E1FF" p-id="39216"></path><path d="M824.9 195l-0.9 527.6L171.9 812l1-527.6z" fill="#BBD2FF" p-id="39217"></path><path d="M871.9 248l-635.3 89.2c-5.9 0.8-10.8 6.8-10.8 13.2l-0.9 502.7c0 6.5 4.8 11 10.8 10.2L870.9 774c6-0.8 10.9-6.8 10.9-13.2l0.9-502.7c0.1-6.4-4.8-10.9-10.8-10.1zM244 841.6l0.6-335.1h-0.1l618.9-87-0.6 335.1-618.8 87z m619.4-434.4l-618.8 87v-0.1l0.3-137.5 618.8-87-0.3 137.5v0.1z" fill="#2E465C" p-id="39218"></path><path d="M666.2 366c0.1-0.6 0.3-1.1 0.5-1.7 0-0.1 0.1-0.2 0.1-0.3 0.3-0.7 0.6-1.3 0.9-2 0.1-0.2 0.2-0.3 0.3-0.5 0.3-0.5 0.7-1 1-1.5 0.1-0.1 0.2-0.3 0.3-0.4 0.5-0.6 1-1.1 1.6-1.6l0.3-0.3c0.5-0.4 0.9-0.7 1.4-1 0.3-0.2 0.6-0.3 0.9-0.5 0.3-0.2 0.7-0.3 1-0.5 1-0.4 2-0.8 3.1-0.9s2.1-0.1 3 0c0.2 0 0.4 0.1 0.6 0.1 1 0.2 1.9 0.5 2.8 1l-11.1-6.1c-0.1-0.1-0.2-0.1-0.4-0.2-0.6-0.3-1.2-0.5-1.9-0.7-0.2 0-0.3 0-0.5-0.1-0.2 0-0.4-0.1-0.6-0.1-1-0.1-2-0.2-3 0-1.1 0.2-2.1 0.5-3.1 0.9-0.1 0.1-0.3 0.1-0.4 0.1-0.2 0.1-0.4 0.3-0.7 0.4-0.3 0.2-0.6 0.3-0.9 0.5-0.1 0.1-0.3 0.2-0.4 0.2-0.3 0.2-0.7 0.5-1 0.8l-0.3 0.3-0.1 0.1-1.2 1.2c-0.1 0.1-0.1 0.2-0.2 0.3-0.1 0.1-0.2 0.3-0.3 0.4-0.2 0.2-0.4 0.4-0.5 0.7-0.2 0.3-0.4 0.6-0.5 0.9-0.1 0.2-0.2 0.3-0.3 0.5 0 0.1-0.1 0.2-0.1 0.2-0.3 0.6-0.5 1.1-0.8 1.7 0 0.1-0.1 0.2-0.1 0.3-0.2 0.5-0.3 1.1-0.4 1.6-0.1 0.3-0.2 0.6-0.2 0.9-0.2 0.9-0.2 1.7-0.2 2.6 0 2.3 0.5 4.4 1.5 6.2 1 1.7 2.4 3.1 4 4.1l11.1 6.1c-3.4-1.8-5.6-5.6-5.6-10.2 0-0.9 0.1-1.8 0.2-2.6 0-0.3 0.1-0.6 0.2-0.9z" fill="#FF7777" p-id="39219"></path><path d="M677.7 354.8c6.6-0.9 12 4.1 12 11.3 0 7.2-5.4 13.7-12 14.7-6.7 0.9-12-4.1-12-11.3 0.1-7.2 5.4-13.7 12-14.7z" fill="#FFDCDC" p-id="39220"></path><path d="M731.1 357.6c0.1-0.6 0.3-1.2 0.5-1.7 0-0.1 0.1-0.2 0.1-0.3 0.3-0.7 0.6-1.3 0.9-2 0.1-0.2 0.2-0.3 0.3-0.5 0.3-0.5 0.7-1 1-1.5 0.1-0.1 0.2-0.3 0.3-0.4 0.5-0.6 1-1.1 1.6-1.6l0.3-0.3c0.5-0.4 0.9-0.7 1.4-1 0.3-0.2 0.6-0.3 0.9-0.5 0.3-0.2 0.7-0.3 1-0.5 1-0.4 2-0.8 3.1-0.9s2.1-0.1 3.1 0c0.2 0 0.4 0.1 0.6 0.1 1 0.2 1.9 0.5 2.8 1l-11.1-6.1c-0.1-0.1-0.2-0.1-0.4-0.2-0.6-0.3-1.2-0.5-1.9-0.7-0.2 0-0.3 0-0.5-0.1-0.2 0-0.4-0.1-0.6-0.1-1-0.1-2-0.2-3.1 0s-2.1 0.5-3.1 0.9c-0.1 0.1-0.3 0.1-0.4 0.1-0.2 0.1-0.4 0.3-0.7 0.4-0.3 0.2-0.6 0.3-0.9 0.5-0.1 0.1-0.3 0.2-0.4 0.2-0.3 0.2-0.7 0.5-1 0.8l-0.3 0.3-0.1 0.1-1.2 1.2c-0.1 0.1-0.1 0.2-0.2 0.3-0.1 0.1-0.2 0.3-0.3 0.4-0.2 0.2-0.4 0.4-0.5 0.7-0.2 0.3-0.4 0.6-0.5 0.9-0.1 0.2-0.2 0.3-0.3 0.5 0 0.1-0.1 0.2-0.1 0.2-0.3 0.5-0.5 1.1-0.8 1.7 0 0.1-0.1 0.2-0.1 0.3-0.2 0.5-0.3 1-0.4 1.6l-0.3 0.9c-0.2 0.9-0.2 1.7-0.2 2.6 0 4.6 2.2 8.3 5.6 10.2l11.1 6.1c-3.4-1.8-5.6-5.6-5.6-10.2 0-0.9 0.1-1.8 0.2-2.6 0-0.2 0.1-0.5 0.2-0.8z" fill="#FF7777" p-id="39221"></path><path d="M742.6 346.4c6.7-0.9 12 4.1 12 11.3 0 7.1-5.4 13.7-12.1 14.6-6.6 0.9-12-4.1-12-11.3 0.1-7.1 5.5-13.7 12.1-14.6z" fill="#FFDCDC" p-id="39222"></path><path d="M808.2 339.9c0-0.1 0-0.1 0 0l-11.1-6.1c-0.1-0.1-0.2-0.1-0.4-0.2-0.6-0.3-1.2-0.5-1.9-0.7-0.2 0-0.3 0-0.5-0.1-0.2 0-0.4-0.1-0.6-0.1-1-0.1-2-0.2-3 0-1.1 0.2-2.1 0.5-3.1 0.9-0.1 0.1-0.3 0.1-0.4 0.1-0.2 0.1-0.4 0.3-0.7 0.4-0.3 0.2-0.6 0.3-0.9 0.5-0.1 0.1-0.3 0.2-0.4 0.2-0.3 0.2-0.7 0.5-1 0.8l-0.3 0.3-0.1 0.1-1.2 1.2c-0.1 0.1-0.1 0.2-0.2 0.3-0.1 0.1-0.2 0.3-0.3 0.4-0.2 0.2-0.4 0.4-0.5 0.7-0.2 0.3-0.4 0.6-0.5 0.9-0.1 0.2-0.2 0.3-0.3 0.5 0 0.1-0.1 0.2-0.1 0.2-0.3 0.6-0.5 1.1-0.8 1.7 0 0.1-0.1 0.2-0.1 0.3-0.2 0.5-0.3 1.1-0.5 1.6-0.1 0.3-0.2 0.6-0.2 0.8-0.2 0.9-0.2 1.7-0.2 2.6 0 4.6 2.2 8.4 5.6 10.2l11.1 6.1c-3.4-1.8-5.6-5.6-5.6-10.2 0-0.9 0.1-1.8 0.2-2.6 0.1-0.3 0.2-0.5 0.2-0.8 0.1-0.6 0.3-1.1 0.5-1.7 0-0.1 0.1-0.2 0.1-0.2 0.3-0.7 0.6-1.3 0.9-2 0.1-0.2 0.2-0.3 0.3-0.5 0.3-0.5 0.7-1 1-1.5 0.1-0.1 0.2-0.3 0.3-0.4 0.5-0.6 1-1.1 1.6-1.6l0.3-0.3c0.5-0.4 0.9-0.7 1.4-1 0.3-0.2 0.6-0.3 0.9-0.5 0.3-0.2 0.7-0.3 1-0.5 1-0.4 2-0.8 3.1-0.9s2.1-0.1 3 0c0.2 0 0.4 0.1 0.6 0.1 1 0.2 1.9 0.5 2.8 1z" fill="#33D333" p-id="39223"></path><path d="M801.8 338.7c6.6-0.9 12 4.1 12 11.3 0 7.2-5.4 13.7-12 14.7-6.7 0.9-12-4.1-12-11.3 0-7.2 5.4-13.7 12-14.7z" fill="#88FF8B" p-id="39224"></path><path d="M436.6 653l-15.2-8.3 59.8 23.9 15.1 8.2z" fill="#FFAFAF" p-id="39225"></path><path d="M402.9 674.4l-15.1-8.2v-33.5L403 641z" fill="#FF7777" p-id="39226"></path><path d="M403 641l-15.2-8.3 93.6-65.4 15.1 8.3z" fill="#FFAFAF" p-id="39227"></path><path d="M496.5 575.6v36.7L436.6 653l59.7 23.8v36.7l-93.4-39.1 0.1-33.4z" fill="#FFDCDC" p-id="39228"></path><path d="M536.1 723.9l-15.1-6.6 47.1-184 15.2 6.6z" fill="#FF7777" p-id="39229"></path><path d="M583.3 539.9l-15.2-6.6 27.9-3.1 15.2 6.6z" fill="#FFAFAF" p-id="39230"></path><path d="M611.2 536.8l-47.2 184-27.9 3.1 47.2-184z" fill="#FFDCDC" p-id="39231"></path><path d="M645.7 691.1l-15.1-8.3 0.1-36.7 15.1 8.2z" fill="#FF7777" p-id="39232"></path><path d="M645.8 654.3l-15.1-8.2 60.5-40.8 15.2 8.3zM646 553.1l-15.2-8.2 93.4 39.1 15.1 8.3z" fill="#FFAFAF" p-id="39233"></path><path d="M645.9 589.8l-15.1-8.2v-36.7l15.2 8.2z" fill="#FF7777" p-id="39234"></path><path d="M646 553.1l93.3 39.2v33.4l-93.6 65.4 0.1-36.8 60.6-40.7-60.5-23.8z" fill="#FFDCDC" p-id="39235"></path></svg>