<?xml version="1.0" standalone="no"?><!DOCTYPE svg PUBLIC "-//W3C//DTD SVG 1.1//EN" "http://www.w3.org/Graphics/SVG/1.1/DTD/svg11.dtd"><svg t="1734673479592" class="icon" viewBox="0 0 1024 1024" version="1.1" xmlns="http://www.w3.org/2000/svg" p-id="2750" xmlns:xlink="http://www.w3.org/1999/xlink" width="2000" height="2000"><path d="M230.4 691.2c-17.066667 0-34.133333 0-42.666667-8.533333L42.666667 537.6c-17.066667-17.066667-17.066667-51.2 0-76.8l145.066666-145.066667c17.066667-17.066667 51.2-17.066667 76.8 0s17.066667 51.2 0 76.8L162.133333 503.466667l102.4 102.4c17.066667 17.066667 17.066667 51.2 0 76.8-8.533333 8.533333-25.6 8.533333-34.133333 8.533333zM793.6 691.2c-8.533333 0-25.6 0-34.133333-8.533333-17.066667-17.066667-17.066667-51.2 0-76.8l102.4-102.4-102.4-110.933334c-25.6-17.066667-25.6-51.2 0-76.8s51.2-17.066667 76.8 0l145.066666 145.066667c8.533333 8.533333 17.066667 25.6 17.066667 34.133333s-8.533333 25.6-17.066667 34.133334L836.266667 682.666667c-8.533333 8.533333-25.6 8.533333-42.666667 8.533333zM384 768c-8.533333 0-8.533333 0-17.066667-8.533333-25.6-8.533333-42.666667-42.666667-25.6-68.266667l213.333334-426.666667c8.533333-25.6 42.666667-42.666667 68.266666-25.6 25.6 17.066667 42.666667 42.666667 25.6 68.266667l-213.333333 426.666667c-8.533333 25.6-25.6 34.133333-51.2 34.133333z" fill="#128BF8" p-id="2751"></path></svg>