<?xml version="1.0" standalone="no"?><!DOCTYPE svg PUBLIC "-//W3C//DTD SVG 1.1//EN" "http://www.w3.org/Graphics/SVG/1.1/DTD/svg11.dtd"><svg t="1733477895873" class="icon" viewBox="0 0 1024 1024" version="1.1" xmlns="http://www.w3.org/2000/svg" p-id="35162" xmlns:xlink="http://www.w3.org/1999/xlink" width="2000" height="2000"><path d="M856.045714 898.322286a106.861714 106.861714 0 0 1-106.825143 106.825143h-479.817142a106.843429 106.843429 0 0 1-106.825143-106.825143V125.677714a106.825143 106.825143 0 0 1 106.806857-106.806857h479.817143a106.825143 106.825143 0 0 1 106.843428 106.806857v772.644572zM794.404571 125.677714a45.165714 45.165714 0 0 0-45.184-45.165714h-479.817142a45.165714 45.165714 0 0 0-45.202286 45.165714v772.644572a45.165714 45.165714 0 0 0 45.184 45.165714h479.817143a45.165714 45.165714 0 0 0 45.202285-45.165714V125.677714z" fill="#00A971" p-id="35163"></path><path d="M824.502857 804.790857H192.713143a15.414857 15.414857 0 1 1 0-30.811428h631.826286a15.414857 15.414857 0 0 1 0 30.811428z m0-616.411428H192.713143a15.414857 15.414857 0 1 1 0-30.829715h631.826286a15.414857 15.414857 0 0 1 0 30.829715zM547.84 870.290286a26.971429 26.971429 0 0 1-26.971429 26.971428h-7.698285a26.989714 26.989714 0 0 1-26.989715-26.971428v-7.698286a26.971429 26.971429 0 0 1 26.989715-26.971429h7.68a26.971429 26.971429 0 0 1 26.989714 26.971429v7.698286zM366.573714 587.300571v-169.142857h45.805715v66.944l42.020571 0.274286v-67.492571h46.08v0.274285h0.256l-0.256 0.804572v93.513143h-0.274286v37.961142h0.548572l-0.548572 1.627429v35.236571H454.4V520.594286h-42.020571v66.688h-45.805715zM509.750857 551.241143l86.454857-0.274286 0.274286-30.902857h-62.610286c-13.366857 0-21.412571-5.668571-24.137143-17.060571v-9.234286c0.182857-3.236571 0.274286-6.308571 0.274286-9.197714h-0.256v-46.902858c1.444571-7.04 4.150857-12.105143 8.118857-15.177142 3.986286-3.072 9.325714-4.608 16-4.608h110.592v18.432c0 0.731429 0.091429 1.170286 0.274286 1.353142 0 2.706286-0.091429 5.522286-0.274286 8.411429v8.118857l-86.198857 0.274286V484.571429l62.354286-0.274286c6.674286 0 12.013714 1.536 15.981714 4.608 3.986286 3.072 6.692571 8.118857 8.137143 15.177143 0 0.365714-0.091429 0.804571-0.274286 1.353143v1.097142h0.548572v63.140572c-2.724571 11.392-10.752 17.078857-24.137143 17.078857l-34.962286 0.548571v0.256l-76.16 1.097143v-37.412571z" fill="#00A971" p-id="35164"></path></svg>