<svg width="600" height="387" viewBox="0 0 600 387" fill="none" xmlns="http://www.w3.org/2000/svg">
<g filter="url(#filter0_f_865_1168)">
<rect x="66.7651" y="93.3043" width="440.992" height="198.884" fill="#CDCDCD"/>
</g>
<g filter="url(#filter1_b_865_1168)">
<rect width="602.188" height="578.541" rx="15.6715" transform="matrix(0.996195 -0.0871557 0.34202 0.939693 -197.77 -59.9163)" fill="white" fill-opacity="0.6"/>
<rect x="0.873828" y="0.55669" width="600.882" height="577.235" rx="15.0185" transform="matrix(0.996195 -0.0871557 0.34202 0.939693 -197.957 -59.8065)" stroke="url(#paint0_linear_865_1168)" stroke-width="1.30596"/>
</g>
<g clip-path="url(#clip0_865_1168)">
<g filter="url(#filter2_bdd_865_1168)">
<g clip-path="url(#clip1_865_1168)">
<path d="M31.1177 44.2856C29.8802 40.8857 31.799 37.8739 35.4034 37.5585L403.051 5.39354C406.655 5.0782 410.58 7.57876 411.818 10.9787L419.287 31.4991C420.524 34.8991 418.605 37.9109 415.001 38.2262L47.3535 70.3912C43.7491 70.7066 39.824 68.206 38.5866 64.8061L31.1177 44.2856Z" fill="white"/>
<path d="M46.8194 48.1283L47.8636 48.0369L49.1901 51.6814C49.2772 51.2545 49.4784 50.9193 49.7938 50.6757C50.0876 50.4468 50.4563 50.3129 50.9132 50.2729C51.6963 50.2044 52.386 50.36 52.965 50.7667C53.5395 51.1611 53.9769 51.7707 54.2727 52.5834L55.7336 56.5971L54.6894 56.6885L53.2822 52.8225C53.0671 52.2315 52.7447 51.7896 52.341 51.4946C51.9113 51.2019 51.4223 51.0795 50.861 51.1286C50.3389 51.1743 49.9799 51.409 49.7839 51.8327C49.5749 52.2575 49.5889 52.7772 49.804 53.3681L51.126 57.0003L50.0818 57.0916L46.8194 48.1283ZM55.07 50.0871L56.1142 49.9957L57.5303 53.8864C57.7499 54.4897 58.0463 54.9338 58.4279 55.2053C58.8096 55.4768 59.3116 55.5981 59.9251 55.5444C60.3689 55.5056 60.7108 55.2978 60.9467 54.9469C61.1867 54.5701 61.2472 54.1075 61.1284 53.5589L59.7168 49.6805L60.761 49.5892L63.0778 55.9546L62.0336 56.046L61.6751 55.061C61.4047 55.8723 60.8172 56.3303 59.9035 56.4102C58.2589 56.5541 57.1314 55.7507 56.5041 54.027L55.07 50.0871ZM61.4805 46.8456L62.5247 46.7543L63.896 50.5218C64.091 49.5773 64.6737 49.069 65.6395 48.9845C66.5924 48.9011 67.4704 49.1673 68.2696 49.8089C68.9897 50.3811 69.5285 51.1216 69.8691 52.0573C70.2187 53.0177 70.2444 53.8285 69.9725 54.4875C69.6532 55.2015 69.0086 55.6136 68.0296 55.6992C66.9854 55.7906 66.0936 55.4494 65.3409 54.6767L65.7219 55.7233L64.7429 55.8089L61.4805 46.8456ZM65.7134 49.8165C65.0999 49.8702 64.6846 50.1352 64.4894 50.635C64.2637 51.1249 64.3005 51.7441 64.5694 52.4829L64.6142 52.606C64.8741 53.3201 65.2544 53.8839 65.7551 54.2975C66.2998 54.758 66.9246 54.9574 67.6033 54.8981C68.3343 54.8341 68.7884 54.5276 68.9746 54.0031C69.1266 53.5325 69.0767 52.9143 68.7988 52.151C68.521 51.3876 68.1362 50.8115 67.64 50.4102C67.0822 49.9508 66.4444 49.7526 65.7134 49.8165ZM72.8235 53.5902C73.0324 53.5719 73.255 53.6286 73.4654 53.7627C73.6759 53.8967 73.8169 54.0622 73.8976 54.2839C73.9738 54.4932 73.9582 54.6724 73.8553 54.8338C73.7525 54.9953 73.5836 55.0863 73.3747 55.1046C73.1398 55.1251 72.9302 55.0672 72.7328 54.932C72.5224 54.798 72.3813 54.6325 72.3052 54.4232C72.2245 54.2016 72.2401 54.0223 72.3429 53.8609C72.4327 53.7006 72.5886 53.6107 72.8235 53.5902ZM77.6606 45.43L78.7048 45.3387L81.9672 54.302L80.9883 54.3876L80.6074 53.3411C80.4332 54.1948 79.8241 54.6674 78.806 54.7564C77.814 54.8432 76.9184 54.5659 76.1282 53.949C75.3951 53.3779 74.8603 52.6116 74.5107 51.6512C74.1702 50.7155 74.1403 49.9304 74.4253 49.2703C74.7226 48.5328 75.3456 48.1353 76.3115 48.0508C77.2773 47.9663 78.1827 48.3445 79.0319 49.1976L77.6606 45.43ZM76.8291 48.844C76.0851 48.9091 75.6135 49.2045 75.4273 49.7289C75.2447 50.1895 75.3032 50.7942 75.581 51.5576C75.8589 52.321 76.2351 52.9106 76.7227 53.3252C77.2675 53.7858 77.9098 53.9964 78.6407 53.9324C79.3195 53.873 79.7519 53.5811 79.9512 53.0555C80.1162 52.5837 80.0753 51.9902 79.8153 51.2761L79.7705 51.153C79.5017 50.4142 79.0863 49.828 78.555 49.4045C78.0062 48.9697 77.4295 48.7915 76.8291 48.844ZM84.2727 47.3543C85.2778 47.2664 86.2035 47.5157 87.0459 48.128C87.8488 48.7057 88.4228 49.4686 88.7723 50.4289C89.1174 51.377 89.117 52.1901 88.7798 52.8548C88.4083 53.5733 87.7201 53.9766 86.715 54.0645C85.6969 54.1536 84.7797 53.8908 83.9373 53.2785C83.1389 52.7131 82.565 51.9502 82.2199 51.0022C81.8704 50.0418 81.8707 49.2287 82.2165 48.5505C82.5749 47.8332 83.2546 47.4434 84.2727 47.3543ZM84.573 48.1792C83.8551 48.242 83.3879 48.5497 83.1845 49.1011C82.9894 49.6009 83.0303 50.1944 83.2902 50.9085C83.5457 51.6103 83.926 52.1742 84.4617 52.6101C85.0415 53.0929 85.6969 53.3024 86.4148 53.2396C87.1196 53.1779 87.5868 52.8702 87.8162 52.3166C87.9984 51.8179 87.966 51.2109 87.715 50.5214C87.4551 49.8073 87.0618 49.2446 86.5391 48.8076C85.9332 48.327 85.2778 48.1176 84.573 48.1792ZM91.8685 46.6898C92.7039 46.6167 93.4368 46.7431 94.0802 47.0679C94.7413 47.404 95.2651 47.9552 95.6649 48.7206L94.6338 48.8108C94.3632 48.3263 94.0199 47.9752 93.604 47.7575C93.175 47.541 92.7039 47.4679 92.1687 47.5147C91.5161 47.5718 91.0791 47.8514 90.8709 48.3524C90.6712 48.8399 90.7126 49.4715 90.9949 50.2472C91.2772 51.0228 91.671 51.6236 92.1978 52.0349C92.7115 52.4473 93.3188 52.6355 93.9975 52.5762C95.1461 52.4757 95.6101 51.8634 95.3679 50.7539L96.4121 50.6625C96.5513 51.4888 96.4535 52.1453 96.0838 52.6096C95.7226 53.0604 95.1331 53.328 94.2977 53.4011C93.2796 53.4902 92.38 53.2386 91.5857 52.6474C90.8309 52.0909 90.2831 51.3258 89.9291 50.3531C89.575 49.3805 89.5493 48.5696 89.8604 47.9072C90.1882 47.1798 90.8634 46.7777 91.8685 46.6898ZM95.2653 43.8898L96.3095 43.7985L98.3306 49.3513L100.636 46.1006L102.019 45.9795L99.9754 48.8009L104.623 52.3199L103.279 52.4375L99.4905 49.5039L98.7518 50.5087L99.5719 52.7618L98.5277 52.8532L95.2653 43.8898ZM105.889 45.4631C106.973 45.3683 107.92 45.6411 108.72 46.2826C109.44 46.8549 110.019 47.7062 110.448 48.812L105.123 49.2779C105.435 49.9875 105.832 50.5244 106.341 50.8864C106.85 51.2484 107.431 51.4009 108.07 51.3449C108.619 51.297 109.026 51.1216 109.271 50.8333C109.478 50.5866 109.579 50.2347 109.587 49.7767L110.631 49.6853C110.699 50.3146 110.578 50.8334 110.264 51.2673C109.873 51.7843 109.245 52.0934 108.371 52.1699C107.405 52.2544 106.51 52.0151 105.72 51.4743C104.896 50.9113 104.313 50.1238 103.936 49.0895C103.596 48.1538 103.583 47.3418 103.929 46.6637C104.261 45.9486 104.91 45.5488 105.889 45.4631ZM106.216 46.2857C105.615 46.3383 105.199 46.5652 104.968 46.9666C104.737 47.3679 104.708 47.8787 104.871 48.5123L109.087 48.1434C108.459 46.7882 107.495 46.1738 106.216 46.2857ZM113.364 44.8091C113.73 44.7771 114.061 44.799 114.345 44.8758L114.703 45.8608C114.328 45.792 113.975 45.7847 113.649 45.8133C113.127 45.8589 112.759 46.1071 112.568 46.5812C112.355 47.0317 112.369 47.5514 112.584 48.1424L113.812 51.5159L112.781 51.6062L110.464 45.2407L111.495 45.1505L111.899 46.2586C111.947 45.8733 112.074 45.5572 112.285 45.3228C112.539 45.0211 112.894 44.8502 113.364 44.8091ZM117.981 49.6394C118.19 49.6211 118.412 49.6779 118.623 49.8119C118.833 49.946 118.974 50.1115 119.055 50.3331C119.131 50.5424 119.115 50.7216 119.013 50.8831C118.91 51.0445 118.741 51.1356 118.532 51.1538C118.297 51.1744 118.087 51.1165 117.89 50.9813C117.68 50.8473 117.539 50.6817 117.462 50.4724C117.382 50.2508 117.397 50.0716 117.5 49.9101C117.59 49.7498 117.746 49.66 117.981 49.6394ZM118.765 42.0371C118.987 42.0177 119.192 42.0633 119.402 42.1973C119.604 42.3068 119.745 42.4723 119.826 42.6939C119.902 42.9032 119.886 43.0824 119.783 43.2439C119.676 43.393 119.52 43.4829 119.298 43.5023C119.076 43.5217 118.867 43.4638 118.661 43.3421C118.45 43.2081 118.322 43.0414 118.246 42.8321C118.166 42.6105 118.168 42.4324 118.28 42.2956C118.383 42.1341 118.543 42.0566 118.765 42.0371ZM119.117 44.4837L120.161 44.3924L122.478 50.7578L121.434 50.8491L119.117 44.4837ZM125.122 43.7805C126.127 43.6926 127.052 43.9419 127.895 44.5542C128.698 45.1319 129.272 45.8948 129.621 46.8551C129.966 47.8032 129.966 48.6163 129.629 49.281C129.257 49.9995 128.569 50.4027 127.564 50.4907C126.546 50.5797 125.629 50.317 124.786 49.7046C123.988 49.1393 123.414 48.3764 123.069 47.4284C122.719 46.468 122.72 45.6549 123.065 44.9767C123.424 44.2593 124.103 43.8696 125.122 43.7805ZM125.422 44.6054C124.704 44.6682 124.237 44.9759 124.033 45.5273C123.838 46.0271 123.879 46.6206 124.139 47.3347C124.395 48.0365 124.775 48.6004 125.311 49.0362C125.89 49.5191 126.546 49.7286 127.264 49.6658C127.968 49.6041 128.436 49.2964 128.665 48.7428C128.847 48.2441 128.815 47.6371 128.564 46.9476C128.304 46.2335 127.911 45.6708 127.388 45.2338C126.782 44.7532 126.127 44.5437 125.422 44.6054ZM132.819 39.4355L133.746 39.3544L133.248 51.086L132.308 51.1682L132.819 39.4355ZM139.544 42.5187C141.215 42.3725 142.381 43.1725 143.017 44.9208L144.443 48.8361L143.398 48.9275L142 45.0861C141.548 43.8425 140.723 43.2794 139.548 43.3822C139.078 43.4233 138.732 43.6188 138.509 43.9686C138.269 44.3453 138.239 44.818 138.411 45.4001L139.809 49.2415L138.765 49.3329L136.448 42.9674L137.492 42.8761L137.833 43.8118C137.938 43.4342 138.139 43.1371 138.437 42.9204C138.731 42.6914 139.1 42.5575 139.544 42.5187ZM146.509 41.9094C147.527 41.8203 148.436 42.1727 149.241 42.9788L148.842 41.883L149.887 41.7917L152.042 47.7139C152.782 49.7454 152.122 50.8575 150.073 51.0368C149.159 51.1168 148.392 51.0061 147.797 50.7024C147.188 50.3999 146.7 49.9091 146.331 49.2299L147.375 49.1385C147.611 49.5626 147.923 49.8656 148.295 50.0363C148.671 50.2194 149.168 50.2902 149.782 50.2365C151.139 50.1178 151.558 49.3443 151.047 47.9407L150.639 46.8203C150.453 47.7132 149.853 48.2104 148.834 48.2994C147.895 48.3817 147.039 48.1389 146.271 47.5836C145.507 47.0406 144.973 46.3124 144.637 45.3889C144.296 44.4532 144.284 43.6793 144.617 43.0404C144.937 42.3645 145.569 41.9916 146.509 41.9094ZM146.961 42.7083C146.282 42.7677 145.841 43.035 145.633 43.5359C145.419 43.9865 145.447 44.5812 145.707 45.2953C145.949 45.9602 146.308 46.5005 146.786 46.8906C147.322 47.3265 147.947 47.5259 148.678 47.4619C149.356 47.4026 149.798 47.1353 150.028 46.6578C150.237 46.1949 150.213 45.6125 149.962 44.923C149.703 44.2089 149.309 43.6462 148.791 43.2596C148.229 42.826 147.627 42.65 146.961 42.7083ZM151.543 39.1695C151.765 39.15 151.97 39.1956 152.18 39.3297C152.382 39.4391 152.523 39.6046 152.603 39.8262C152.679 40.0355 152.664 40.2148 152.561 40.3762C152.454 40.5253 152.298 40.6152 152.076 40.6346C151.854 40.654 151.644 40.5961 151.439 40.4744C151.228 40.3404 151.1 40.1737 151.024 39.9644C150.943 39.7428 150.946 39.5647 151.058 39.4279C151.16 39.2664 151.321 39.1889 151.543 39.1695ZM151.894 41.616L152.939 41.5247L155.255 47.8901L154.211 47.9815L151.894 41.616ZM158.043 40.9002C159.714 40.7541 160.88 41.554 161.517 43.3024L162.942 47.2177L161.897 47.309L160.499 43.4676C160.047 42.2241 159.222 41.661 158.047 41.7637C157.578 41.8049 157.231 42.0003 157.008 42.3501C156.768 42.7268 156.738 43.1995 156.91 43.7816L158.308 47.6231L157.264 47.7144L154.947 41.349L155.991 41.2576L156.332 42.1933C156.437 41.8157 156.638 41.5186 156.937 41.3019C157.23 41.073 157.599 40.9391 158.043 40.9002ZM161.833 40.7465L163.06 40.6391L165.634 42.7516L166.545 40.3342L167.772 40.2269L166.473 43.4278L170.376 46.5672L169.136 46.6757L166.163 44.2044L165.103 47.0286L163.863 47.137L165.311 43.5294L161.833 40.7465Z" fill="#8A95A7"/>
</g>
<path d="M31.2066 44.2779C29.986 40.9242 31.8786 37.9534 35.4339 37.6424L403.081 5.47736C406.637 5.16631 410.508 7.63282 411.729 10.9865L419.198 31.5069C420.418 34.8606 418.526 37.8314 414.971 38.1424L47.323 70.3074C43.7677 70.6185 39.896 68.152 38.6754 64.7983L31.2066 44.2779Z" stroke="url(#paint1_linear_865_1168)" stroke-width="0.17839"/>
</g>
<path d="M53.7905 98.7709L54.9913 98.6658L55.6723 100.944L57.5604 99.9148L58.3243 100.941L56.2291 101.734L58.4224 103.282L57.7467 104.053L55.6905 102.289L54.9926 104.294L53.8149 103.685L54.7803 101.86L52.2679 101.47L52.2611 100.378L54.7586 101.024L53.7905 98.7709Z" fill="#D92D20"/>
<path d="M61.4879 96.8905L62.7018 96.7843L63.8535 99.9486L64.48 99.8938L64.8968 101.039L61.9599 101.296L62.1302 101.764C62.2557 102.108 62.3636 102.442 62.4671 102.763L64.9732 102.544L66.9405 107.949L65.7266 108.055L64.1671 103.771L62.8096 103.889C63.3073 105.701 63.4568 107.11 63.2842 108.116L62.0666 107.435C62.1935 106.23 61.8175 104.383 60.9163 101.87L59.2672 97.3389L60.4811 97.2327L61.5432 100.151L62.6396 100.055L61.4879 96.8905ZM66.7432 101.042L67.1197 102.077C67.9279 104.445 68.1742 106.38 67.8497 107.857L66.6921 107.081C66.9235 105.867 66.6758 104.224 65.9841 102.176L64.2453 97.3989C66.3073 97.1803 68.0666 96.7596 69.532 96.1233L70.5133 97.1173C69.1516 97.6684 67.5705 98.0608 65.7439 98.2968L66.3399 99.9343L71.1041 99.5175L71.4671 100.515C71.7715 102.165 71.7557 103.602 71.3849 104.803C72.2542 105.49 73.1827 106.005 74.179 106.338L73.9375 107.413C72.8494 107.051 71.8597 106.515 70.9643 105.831C70.5455 106.605 69.9558 107.279 69.1908 107.841L68.227 106.858C68.9659 106.298 69.5079 105.641 69.8834 104.897C68.8189 103.859 67.8781 102.569 67.0434 101.016L66.7432 101.042ZM68.1529 100.919C68.8001 102.031 69.5025 102.999 70.2771 103.795C70.4941 102.874 70.5141 101.856 70.3196 100.73L68.1529 100.919ZM73.0958 97.9712L78.0949 97.5338L77.3196 95.4038L78.5727 95.2942L79.3479 97.4242L84.334 96.988L84.7418 98.1084L80.7347 98.459C82.2683 100.23 84.3613 101.762 87.0046 103.03L86.5237 104.114C83.6986 102.532 81.4455 100.671 79.7688 98.5435L79.7557 98.5446L81.4049 103.076L84.0937 102.84L84.5015 103.961L81.8127 104.196L82.6955 106.621L81.4424 106.731L80.5596 104.306L77.9752 104.532L77.5674 103.411L80.1518 103.185L78.5027 98.6542L78.4896 98.6554C78.4551 101.225 77.6066 103.408 75.9702 105.203L74.8535 104.17C76.4408 102.684 77.3279 100.866 77.5238 98.7399L73.5036 99.0916L73.0958 97.9712ZM87.6956 94.8391L95.6316 94.1447L96.9222 97.6907L88.9862 98.385L87.6956 94.8391ZM95.2882 96.7538L94.7594 95.3009L89.3296 95.776L89.8583 97.2288L95.2882 96.7538ZM90.6035 100.238L87.7188 100.49L87.311 99.37L99.1758 98.332L99.5836 99.4524L91.8435 100.13L91.8951 101.345L98.2387 100.79C98.8916 102.88 99.1309 104.129 98.9435 104.539C98.7561 104.95 98.1882 105.203 97.2484 105.285C96.6089 105.341 96.0211 105.354 95.4896 105.337L94.6866 104.315C95.4138 104.315 96.0407 104.298 96.5889 104.25C97.2416 104.193 97.6144 104.033 97.6814 103.773C97.7354 103.514 97.6202 102.902 97.358 101.959L90.8056 102.533L90.6035 100.238Z" fill="#111824"/>
<g filter="url(#filter3_bdd_865_1168)">
<path d="M59.6903 122.788C58.4475 119.373 60.3745 116.349 63.9945 116.032L431.585 83.8719C435.205 83.5551 439.148 86.0666 440.39 89.4812L447.84 109.948C449.083 113.363 447.156 116.388 443.536 116.705L75.9447 148.865C72.3247 149.181 68.3825 146.67 67.1397 143.255L59.6903 122.788Z" fill="white"/>
<path d="M59.7792 122.78C58.5532 119.412 60.4541 116.428 64.0251 116.116L431.616 83.9557C435.187 83.6433 439.076 86.1206 440.302 89.489L447.751 109.956C448.977 113.324 447.076 116.308 443.505 116.621L75.9142 148.781C72.3432 149.093 68.4545 146.616 67.2286 143.247L59.7792 122.78Z" stroke="url(#paint2_linear_865_1168)" stroke-width="0.17839"/>
<path d="M75.6112 129.342L76.7598 129.241L80.5603 134.206L80.6234 128.903L81.772 128.803L81.5305 135.392L80.4733 135.484L75.6112 129.342ZM84.0143 126.104L84.8496 126.031L88.0493 134.822L86.979 134.915L84.2275 127.356C83.8462 127.973 83.2587 128.431 82.4738 128.754L82.1063 127.744C82.4837 127.597 82.8647 127.386 83.2189 127.101C83.5641 126.791 83.822 126.464 84.0143 126.104ZM90.6926 133.079C90.9014 133.06 91.1241 133.117 91.3345 133.251C91.5449 133.385 91.686 133.551 91.7666 133.772C91.8428 133.982 91.8272 134.161 91.7244 134.322C91.6215 134.484 91.4526 134.575 91.2438 134.593C91.0088 134.614 90.7992 134.556 90.6019 134.42C90.3914 134.286 90.2504 134.121 90.1742 133.912C90.0935 133.69 90.1091 133.511 90.212 133.349C90.3018 133.189 90.4576 133.099 90.6926 133.079ZM93.6501 125.083C94.7596 124.986 95.7607 125.368 96.6756 126.254C97.4584 126.998 98.0918 128.036 98.5758 129.365C99.0598 130.695 99.1972 131.776 98.988 132.607C98.7498 133.581 98.0847 134.122 96.9752 134.219C95.8527 134.317 94.8471 133.922 93.9497 133.048C93.1669 132.303 92.5335 131.266 92.0495 129.936C91.5655 128.606 91.4282 127.526 91.6373 126.695C91.858 125.71 92.5276 125.181 93.6501 125.083ZM93.9638 125.945C93.1284 126.018 92.6804 126.489 92.6241 127.37C92.5782 127.984 92.7434 128.808 93.1198 129.843C93.4918 130.864 93.9181 131.666 94.3987 132.246C95.0689 133.051 95.8262 133.43 96.6615 133.357C97.4969 133.284 97.9405 132.8 98.0012 131.931C98.0427 131.305 97.8905 130.48 97.5186 129.458C97.1421 128.423 96.7028 127.623 96.2266 127.055C95.5519 126.238 94.7992 125.872 93.9638 125.945ZM102.065 132.084C102.274 132.065 102.497 132.122 102.707 132.256C102.917 132.39 103.058 132.556 103.139 132.777C103.215 132.987 103.2 133.166 103.097 133.327C102.994 133.489 102.825 133.58 102.616 133.598C102.381 133.619 102.172 133.561 101.974 133.425C101.764 133.291 101.623 133.126 101.547 132.917C101.466 132.695 101.482 132.516 101.584 132.354C101.674 132.194 101.83 132.104 102.065 132.084ZM104.172 124.34L105.007 124.267L108.207 133.058L107.136 133.152L104.385 125.592C104.004 126.21 103.416 126.668 102.631 126.99L102.264 125.981C102.641 125.833 103.022 125.622 103.376 125.337C103.721 125.028 103.979 124.7 104.172 124.34Z" fill="#111824"/>
</g>
<path d="M79.8146 167.792L81.0285 167.686L82.1802 170.85L82.8067 170.796L83.2235 171.941L80.2867 172.198L80.4569 172.665C80.5824 173.01 80.6904 173.344 80.7938 173.665L83.2999 173.446L85.2672 178.851L84.0533 178.957L82.4938 174.672L81.1364 174.791C81.634 176.602 81.7835 178.012 81.6109 179.018L80.3933 178.337C80.5203 177.132 80.1442 175.284 79.2431 172.772L77.5939 168.241L78.8078 168.134L79.8699 171.052L80.9663 170.957L79.8146 167.792ZM85.0699 171.944L85.4464 172.978C86.2546 175.347 86.5009 177.282 86.1764 178.759L85.0188 177.983C85.2502 176.769 85.0025 175.126 84.3108 173.078L82.5721 168.301C84.634 168.082 86.3933 167.661 87.8587 167.025L88.84 168.019C87.4783 168.57 85.8972 168.963 84.0706 169.199L84.6666 170.836L89.4308 170.419L89.7938 171.417C90.0982 173.067 90.0825 174.504 89.7116 175.705C90.5809 176.391 91.5094 176.907 92.5057 177.239L92.2642 178.315C91.1761 177.953 90.1864 177.417 89.291 176.733C88.8722 177.506 88.2825 178.18 87.5175 178.743L86.5537 177.76C87.2926 177.2 87.8346 176.543 88.2102 175.798C87.1456 174.761 86.2048 173.471 85.3702 171.918L85.0699 171.944ZM86.4796 171.821C87.1269 172.933 87.8292 173.901 88.6038 174.697C88.8208 173.776 88.8408 172.758 88.6464 171.631L86.4796 171.821ZM91.4225 168.873L96.4216 168.436L95.6464 166.306L96.8994 166.196L97.6747 168.326L102.661 167.89L103.069 169.01L99.0614 169.361C100.595 171.132 102.688 172.664 105.331 173.932L104.85 175.016C102.025 173.434 99.7722 171.573 98.0955 169.445L98.0825 169.446L99.7316 173.977L102.42 173.742L102.828 174.862L100.139 175.098L101.022 177.523L99.7691 177.633L98.8863 175.207L96.3019 175.433L95.8941 174.313L98.4785 174.087L96.8294 169.556L96.8164 169.557C96.7818 172.126 95.9333 174.31 94.2969 176.104L93.1802 175.071C94.7675 173.586 95.6546 171.768 95.8505 169.642L91.8303 169.993L91.4225 168.873ZM116.9 168.651L119.53 175.879L118.343 175.982L118.172 175.515L113.8 175.897L113.97 176.365L112.782 176.469L110.152 169.242L116.9 168.651ZM113.405 174.814L115.024 174.672L114.388 172.924L112.769 173.065L113.405 174.814ZM116.173 174.572L117.778 174.431L117.142 172.683L115.536 172.823L116.173 174.572ZM112.388 172.019L114.007 171.877L113.348 170.067L111.729 170.209L112.388 172.019ZM114.497 169.967L115.155 171.777L116.761 171.636L116.102 169.826L114.497 169.967ZM109.566 176.623L108.391 176.726L107.714 175.642C108.079 175.648 108.428 175.643 108.754 175.614C109.067 175.587 109.166 175.413 109.058 175.118L108.095 172.471C107.661 172.686 107.228 172.902 106.79 173.106L106.047 171.951C106.607 171.75 107.144 171.525 107.66 171.276L106.719 168.691L105.179 168.826L104.766 167.693L106.307 167.558L105.527 165.416L106.754 165.308L107.534 167.451L108.695 167.349L109.108 168.482L107.946 168.583L108.717 170.701C109.089 170.465 109.443 170.218 109.793 169.959L110.224 171.141C109.873 171.4 109.514 171.635 109.142 171.871L110.393 175.306C110.684 176.106 110.401 176.55 109.566 176.623ZM109.852 165.05L111.027 164.947L111.502 166.252L113.486 166.079L113.01 164.774L114.185 164.671L114.66 165.976L116.279 165.834L116.678 166.93L115.059 167.072L115.512 168.315L114.337 168.418L113.884 167.175L111.9 167.348L112.348 168.579L111.174 168.682L110.726 167.451L109.107 167.593L108.708 166.497L110.327 166.355L109.852 165.05ZM128.08 167.521C129.771 168.872 131.124 170.075 132.15 171.116L131.365 171.883C130.313 170.768 129.02 169.547 127.473 168.222L129.311 173.27L128.11 173.375L126.196 168.117C126.023 169.86 125.598 171.32 124.944 172.521L123.79 171.682C124.527 170.525 124.982 168.999 125.137 167.13L122.396 167.37L121.997 166.274L125.417 165.975L124.628 163.808L125.829 163.703L126.617 165.87L130.024 165.572L130.423 166.668L127.016 166.966L127.428 168.099L128.08 167.521ZM118.681 164.379C119.788 164.943 120.765 165.518 121.599 166.106L121.016 167.021C120.27 166.451 119.301 165.862 118.102 165.23L118.681 164.379ZM130.253 174.75C129.549 174.812 128.774 174.867 127.947 174.926C127.107 174.987 126.389 174.974 125.809 174.897C125.233 174.795 124.681 174.539 124.151 174.153C123.892 173.96 123.699 173.875 123.543 173.889C123.281 173.912 123.013 174.507 122.751 175.673L121.546 174.953C121.836 173.898 122.194 173.219 122.627 172.927L121.359 169.443L119.597 169.597L119.202 168.513L122.126 168.258L123.824 172.924C123.895 172.969 123.978 173.012 124.07 173.08C124.478 173.388 124.881 173.606 125.265 173.738C125.707 173.877 126.308 173.939 127.074 173.897C127.81 173.846 128.689 173.781 129.681 173.695C130.32 173.639 130.969 173.569 131.617 173.5C132.265 173.43 132.765 173.361 133.108 173.306L133.229 174.489L130.253 174.75ZM127.647 163.48C128.226 163.963 128.776 164.474 129.278 165.04L128.465 165.543C127.896 164.907 127.329 164.347 126.754 163.876L127.647 163.48Z" fill="#111824"/>
<g filter="url(#filter4_bdd_865_1168)">
<g clip-path="url(#clip2_865_1168)">
<rect width="382.154" height="115.738" rx="6.55122" transform="matrix(0.996195 -0.0871557 0.34202 0.939693 83.0153 186.873)" fill="white"/>
<path d="M103.675 195.9L104.589 195.82L105.777 199.083L106.547 199.016L106.865 199.89L103.785 200.159L104.013 200.787C104.152 201.169 104.273 201.539 104.39 201.898L106.896 201.678L108.801 206.911L107.874 206.992L106.279 202.609L104.647 202.752C105.163 204.612 105.321 206.047 105.119 207.081L104.199 206.552C104.373 205.329 104.005 203.43 103.086 200.868L101.442 196.35L102.368 196.269L103.466 199.285L104.863 199.163L103.675 195.9ZM108.52 199.885L109.013 201.239C109.794 203.534 110.027 205.394 109.736 206.817L108.846 206.221C109.078 205.007 108.843 203.363 108.151 201.315L106.372 196.427C108.412 196.223 110.172 195.802 111.637 195.166L112.398 195.925C111.011 196.478 109.377 196.875 107.511 197.115L108.215 199.048L113.044 198.625L113.318 199.376C113.641 201.114 113.591 202.605 113.181 203.847C114.116 204.604 115.123 205.151 116.212 205.513L116.024 206.33C114.87 205.935 113.815 205.367 112.866 204.612C112.435 205.462 111.811 206.19 111.003 206.782L110.26 206.034C111.055 205.444 111.644 204.731 112.045 203.909C110.884 202.829 109.851 201.471 108.95 199.847L108.52 199.885ZM109.799 199.773C110.575 201.09 111.422 202.197 112.346 203.107C112.64 202.065 112.676 200.868 112.436 199.542L109.799 199.773ZM114.71 197.133L119.814 196.686L119.003 194.458L119.968 194.373L120.78 196.602L125.87 196.156L126.179 197.006L121.924 197.378C123.511 199.259 125.714 200.871 128.519 202.213L128.157 203.033C125.215 201.461 122.892 199.593 121.193 197.442L121.089 197.451L122.836 202.253L125.63 202.009L125.939 202.858L123.146 203.103L124.064 205.627L123.098 205.711L122.18 203.187L119.491 203.422L119.182 202.573L121.871 202.338L120.123 197.536L120.031 197.544C119.975 200.128 119.079 202.328 117.343 204.144L116.507 203.366C118.198 201.795 119.115 199.873 119.287 197.609L115.019 197.982L114.71 197.133ZM139.53 196.943L142.107 204.023L141.193 204.103L141.005 203.585L136.319 203.995L136.508 204.513L135.594 204.592L133.017 197.513L139.53 196.943ZM136.019 203.17L137.938 203.003L137.198 200.971L135.28 201.139L136.019 203.17ZM138.799 202.927L140.705 202.761L139.966 200.729L138.06 200.896L138.799 202.927ZM134.988 200.339L136.907 200.171L136.15 198.09L134.231 198.258L134.988 200.339ZM137.011 198.015L137.769 200.095L139.674 199.929L138.917 197.848L137.011 198.015ZM132.268 204.744L131.068 204.849L130.563 204.016C130.941 204.021 131.316 204.014 131.655 203.984C131.982 203.956 132.088 203.768 131.972 203.448L130.87 200.42C130.393 200.664 129.899 200.898 129.414 201.119L128.856 200.253C129.437 200.037 129.997 199.797 130.542 199.521L129.516 196.701L127.872 196.845L127.558 195.983L129.203 195.839L128.382 193.586L129.322 193.504L130.142 195.757L131.408 195.646L131.722 196.508L130.456 196.619L131.352 199.081C131.772 198.829 132.17 198.553 132.55 198.265L132.873 199.152C132.479 199.44 132.077 199.704 131.67 199.956L132.992 203.588C133.248 204.29 132.999 204.68 132.268 204.744ZM132.716 193.245L133.604 193.168L134.115 194.571L136.386 194.372L135.875 192.969L136.763 192.891L137.273 194.295L138.996 194.144L139.297 194.969L137.574 195.12L138.076 196.499L137.188 196.576L136.686 195.197L134.415 195.396L134.912 196.763L134.025 196.84L133.527 195.474L131.804 195.624L131.504 194.799L133.227 194.649L132.716 193.245ZM150.122 195.737C151.891 197.157 153.298 198.394 154.349 199.471L153.768 200.055C152.654 198.882 151.26 197.607 149.582 196.216L150.122 195.737ZM140.819 192.714C141.94 193.277 142.926 193.838 143.772 194.425L143.335 195.111C142.567 194.556 141.586 193.968 140.377 193.35L140.819 192.714ZM152.464 202.913C151.76 202.975 150.985 203.03 150.158 203.09C149.318 203.15 148.613 203.136 148.041 203.046C147.465 202.944 146.897 202.676 146.344 202.267C146.085 202.074 145.879 201.99 145.723 202.004C145.409 202.031 145.106 202.642 144.801 203.838L143.876 203.296C144.192 202.201 144.577 201.52 145.031 201.251L143.669 197.508L141.802 197.672L141.507 196.859L144.248 196.619L145.924 201.224C146.055 201.289 146.195 201.378 146.34 201.48C146.783 201.81 147.204 202.04 147.627 202.168C148.095 202.305 148.718 202.352 149.484 202.31C150.167 202.263 151.02 202.201 152.038 202.112C152.638 202.059 153.261 201.992 153.896 201.924C154.518 201.857 154.996 201.802 155.327 201.748L155.427 202.654L152.464 202.913ZM147.551 195.187L144.601 195.445L144.301 194.62L147.825 194.312L147.001 192.046L147.914 191.966L148.739 194.232L152.25 193.925L152.55 194.75L149.039 195.057L151.396 201.533L150.483 201.613L148.376 195.826C148.209 197.734 147.751 199.362 146.981 200.725L146.104 200.09C146.93 198.773 147.415 197.143 147.551 195.187ZM149.732 191.744C150.343 192.237 150.914 192.771 151.447 193.347L150.82 193.732C150.234 193.085 149.64 192.527 149.047 192.045L149.732 191.744Z" fill="#667085"/>
<path d="M490.684 260.189L495.95 251.923" stroke="#C4CBD7" stroke-width="1.09187" stroke-linecap="round"/>
<path d="M494.377 259.879L497.221 255.415" stroke="#C4CBD7" stroke-width="1.09187" stroke-linecap="round"/>
</g>
<rect x="0.119362" y="0.0760422" width="381.976" height="115.56" rx="6.46202" transform="matrix(0.996195 -0.0871557 0.34202 0.939693 82.9897 186.888)" stroke="url(#paint3_linear_865_1168)" stroke-width="0.17839"/>
</g>
<g filter="url(#filter5_bd_865_1168)">
<path d="M418.785 301.48C417.547 298.08 419.466 295.068 423.07 294.753L505.737 287.52C509.341 287.205 513.266 289.705 514.504 293.105L523.522 317.883C524.759 321.283 522.841 324.294 519.236 324.61L436.57 331.842C432.966 332.157 429.041 329.657 427.803 326.257L418.785 301.48Z" fill="#111824"/>
<path d="M456.382 308.426L456.059 304.126L457.589 304.229L457.764 306.956L460.018 306.759C459.92 305.67 459.741 304.53 459.495 303.336L461.035 303.379C461.265 304.53 461.424 305.613 461.526 306.627L468.5 306.017L468.976 307.324L461.636 307.966C461.656 308.453 461.651 308.913 461.655 309.357L467.746 308.825L468.165 309.974C468.197 311.186 467.838 312.314 467.056 313.361C468.433 313.863 470.038 314.301 471.856 314.675L471.58 316.033C469.507 315.563 467.698 314.995 466.177 314.357C465.262 315.252 464.046 316.1 462.53 316.899L461.298 315.673C462.633 315.023 463.733 314.334 464.59 313.621C463.328 312.961 462.289 312.222 461.493 311.417C461.171 313.639 460.402 315.455 459.202 316.864L457.996 315.666C459.46 313.729 460.16 311.208 460.098 308.1L456.382 308.426ZM462.272 310.578C463.083 311.382 464.163 312.102 465.505 312.726C466.198 311.909 466.611 311.058 466.734 310.188L462.272 310.578ZM463.536 302.997C464.858 303.652 466.019 304.336 467.011 305.035L466.331 306.103C465.45 305.409 464.315 304.708 462.89 303.988L463.536 302.997ZM477.766 305.739L479.167 305.617L479.768 307.269L483.971 306.901L485.749 311.785C486.11 312.776 485.76 313.325 484.694 313.419L483.308 313.54L482.498 312.307L483.792 312.238C484.234 312.199 484.389 311.978 484.253 311.605L483.046 308.286L480.229 308.533L482.602 315.054L481.201 315.177L478.828 308.655L475.98 308.905L477.883 314.133L476.497 314.254L474.552 308.911C474.108 309.632 473.586 310.315 472.988 310.96L471.641 309.892C472.983 308.485 473.912 306.936 474.403 305.263L470.611 305.595L470.125 304.259L474.709 303.858C474.794 303.228 474.833 302.602 474.827 301.98L476.351 302.024C476.362 302.616 476.348 303.181 476.292 303.719L483.465 303.092L483.951 304.428L476.093 305.115C475.884 306.008 475.598 306.863 475.23 307.666L478.367 307.391L477.766 305.739Z" fill="white"/>
</g>
<path fill-rule="evenodd" clip-rule="evenodd" d="M513.449 305.9C514.162 305.837 514.938 306.332 515.183 307.005L515.981 309.197C516.226 309.869 515.846 310.465 515.133 310.527C514.42 310.59 513.644 310.095 513.399 309.422L512.601 307.23C512.356 306.558 512.736 305.962 513.449 305.9ZM505.983 309.937C506.315 309.417 507.132 309.345 507.809 309.777L510.017 311.183C510.694 311.615 510.974 312.386 510.643 312.905C510.312 313.425 509.495 313.496 508.818 313.065L506.61 311.659C505.933 311.227 505.652 310.456 505.983 309.937ZM523.395 308.413C524.072 308.845 524.353 309.616 524.022 310.135L522.943 311.829C522.612 312.349 521.794 312.42 521.117 311.989C520.44 311.557 520.159 310.786 520.49 310.267L521.569 308.573C521.9 308.053 522.718 307.982 523.395 308.413ZM517.916 315.269C517.933 315.272 517.95 315.276 517.966 315.279L537.254 318.821C537.699 318.903 538.12 318.98 538.456 319.068C538.763 319.148 539.328 319.311 539.804 319.742C540.349 320.236 540.654 320.882 540.625 321.482C540.6 322.006 540.268 322.337 540.081 322.509C539.875 322.698 539.589 322.907 539.287 323.127L533.418 327.414L532.013 334.545C531.94 334.912 531.872 335.259 531.788 335.526C531.711 335.769 531.552 336.209 531.087 336.454C530.556 336.733 529.841 336.73 529.164 336.445C528.572 336.195 528.185 335.752 527.983 335.508C527.761 335.24 527.513 334.891 527.251 334.523L515.889 318.539C515.879 318.525 515.869 318.511 515.86 318.497C515.649 318.201 515.439 317.906 515.289 317.656C515.139 317.406 514.913 316.986 514.924 316.522C514.938 315.966 515.232 315.504 515.73 315.257C516.146 315.05 516.622 315.078 516.912 315.108C517.203 315.138 517.558 315.204 517.916 315.269ZM518.156 317.692L529.349 333.437L530.727 326.445C530.728 326.437 530.73 326.429 530.732 326.42C530.749 326.33 530.779 326.171 530.845 326.022C530.902 325.894 530.976 325.776 531.068 325.671C531.176 325.548 531.307 325.453 531.381 325.4C531.389 325.394 531.396 325.389 531.402 325.385L537.157 321.181L518.156 317.692ZM505.48 318.408C505.235 317.736 505.615 317.14 506.328 317.078L508.651 316.874C509.364 316.812 510.141 317.307 510.386 317.979C510.63 318.652 510.251 319.248 509.538 319.31L507.214 319.513C506.501 319.576 505.725 319.081 505.48 318.408ZM514.239 322.785C514.917 323.217 515.197 323.988 514.866 324.507L513.787 326.201C513.456 326.721 512.639 326.792 511.961 326.361C511.284 325.929 511.003 325.158 511.335 324.639L512.414 322.945C512.745 322.425 513.562 322.354 514.239 322.785Z" fill="url(#paint4_linear_865_1168)"/>
<path d="M529.349 333.437L518.156 317.692L537.157 321.181L531.402 325.385L531.381 325.4C531.307 325.453 531.176 325.548 531.068 325.671C530.976 325.776 530.902 325.894 530.845 326.022C530.779 326.171 530.749 326.33 530.732 326.42L530.727 326.445L529.349 333.437Z" fill="url(#paint5_linear_865_1168)"/>
</g>
<rect y="0.711548" width="600" height="63.1756" fill="url(#paint6_linear_865_1168)"/>
<rect x="600" y="386.815" width="600" height="56.6266" transform="rotate(-180 600 386.815)" fill="url(#paint7_linear_865_1168)"/>
<defs>
<filter id="filter0_f_865_1168" x="-296.871" y="-270.332" width="1168.26" height="926.156" filterUnits="userSpaceOnUse" color-interpolation-filters="sRGB">
<feFlood flood-opacity="0" result="BackgroundImageFix"/>
<feBlend mode="normal" in="SourceGraphic" in2="BackgroundImageFix" result="shape"/>
<feGaussianBlur stdDeviation="181.818" result="effect1_foregroundBlur_865_1168"/>
</filter>
<filter id="filter1_b_865_1168" x="-328.366" y="-242.996" width="1058.96" height="857.327" filterUnits="userSpaceOnUse" color-interpolation-filters="sRGB">
<feFlood flood-opacity="0" result="BackgroundImageFix"/>
<feGaussianBlur in="BackgroundImageFix" stdDeviation="65.298"/>
<feComposite in2="SourceAlpha" operator="in" result="effect1_backgroundBlur_865_1168"/>
<feBlend mode="normal" in="SourceGraphic" in2="effect1_backgroundBlur_865_1168" result="shape"/>
</filter>
<filter id="filter2_bdd_865_1168" x="-105.608" y="-129.662" width="661.62" height="335.109" filterUnits="userSpaceOnUse" color-interpolation-filters="sRGB">
<feFlood flood-opacity="0" result="BackgroundImageFix"/>
<feGaussianBlur in="BackgroundImageFix" stdDeviation="67.2424"/>
<feComposite in2="SourceAlpha" operator="in" result="effect1_backgroundBlur_865_1168"/>
<feColorMatrix in="SourceAlpha" type="matrix" values="0 0 0 0 0 0 0 0 0 0 0 0 0 0 0 0 0 0 127 0" result="hardAlpha"/>
<feMorphology radius="7.13561" operator="erode" in="SourceAlpha" result="effect2_dropShadow_865_1168"/>
<feOffset dx="-12.4615" dy="18.8071"/>
<feGaussianBlur stdDeviation="12.3956"/>
<feComposite in2="hardAlpha" operator="out"/>
<feColorMatrix type="matrix" values="0 0 0 0 0.681201 0 0 0 0 0.681201 0 0 0 0 0.681201 0 0 0 0.2 0"/>
<feBlend mode="normal" in2="effect1_backgroundBlur_865_1168" result="effect2_dropShadow_865_1168"/>
<feColorMatrix in="SourceAlpha" type="matrix" values="0 0 0 0 0 0 0 0 0 0 0 0 0 0 0 0 0 0 127 0" result="hardAlpha"/>
<feOffset/>
<feGaussianBlur stdDeviation="0.46372"/>
<feComposite in2="hardAlpha" operator="out"/>
<feColorMatrix type="matrix" values="0 0 0 0 0.136426 0 0 0 0 0.136426 0 0 0 0 0.136426 0 0 0 0.08 0"/>
<feBlend mode="normal" in2="effect2_dropShadow_865_1168" result="effect3_dropShadow_865_1168"/>
<feBlend mode="normal" in="SourceGraphic" in2="effect3_dropShadow_865_1168" result="shape"/>
</filter>
<filter id="filter3_bdd_865_1168" x="-77.0449" y="-51.1863" width="661.62" height="335.109" filterUnits="userSpaceOnUse" color-interpolation-filters="sRGB">
<feFlood flood-opacity="0" result="BackgroundImageFix"/>
<feGaussianBlur in="BackgroundImageFix" stdDeviation="67.2424"/>
<feComposite in2="SourceAlpha" operator="in" result="effect1_backgroundBlur_865_1168"/>
<feColorMatrix in="SourceAlpha" type="matrix" values="0 0 0 0 0 0 0 0 0 0 0 0 0 0 0 0 0 0 127 0" result="hardAlpha"/>
<feMorphology radius="7.13561" operator="erode" in="SourceAlpha" result="effect2_dropShadow_865_1168"/>
<feOffset dx="-12.4615" dy="18.8071"/>
<feGaussianBlur stdDeviation="12.3956"/>
<feComposite in2="hardAlpha" operator="out"/>
<feColorMatrix type="matrix" values="0 0 0 0 0.681201 0 0 0 0 0.681201 0 0 0 0 0.681201 0 0 0 0.2 0"/>
<feBlend mode="normal" in2="effect1_backgroundBlur_865_1168" result="effect2_dropShadow_865_1168"/>
<feColorMatrix in="SourceAlpha" type="matrix" values="0 0 0 0 0 0 0 0 0 0 0 0 0 0 0 0 0 0 127 0" result="hardAlpha"/>
<feOffset/>
<feGaussianBlur stdDeviation="0.46372"/>
<feComposite in2="hardAlpha" operator="out"/>
<feColorMatrix type="matrix" values="0 0 0 0 0.136426 0 0 0 0 0.136426 0 0 0 0 0.136426 0 0 0 0.08 0"/>
<feBlend mode="normal" in2="effect2_dropShadow_865_1168" result="effect3_dropShadow_865_1168"/>
<feBlend mode="normal" in="SourceGraphic" in2="effect3_dropShadow_865_1168" result="shape"/>
</filter>
<filter id="filter4_bdd_865_1168" x="-51.4695" y="19.0811" width="689.255" height="411.035" filterUnits="userSpaceOnUse" color-interpolation-filters="sRGB">
<feFlood flood-opacity="0" result="BackgroundImageFix"/>
<feGaussianBlur in="BackgroundImageFix" stdDeviation="67.2424"/>
<feComposite in2="SourceAlpha" operator="in" result="effect1_backgroundBlur_865_1168"/>
<feColorMatrix in="SourceAlpha" type="matrix" values="0 0 0 0 0 0 0 0 0 0 0 0 0 0 0 0 0 0 127 0" result="hardAlpha"/>
<feMorphology radius="7.13561" operator="erode" in="SourceAlpha" result="effect2_dropShadow_865_1168"/>
<feOffset dx="-12.4615" dy="18.8071"/>
<feGaussianBlur stdDeviation="12.3956"/>
<feComposite in2="hardAlpha" operator="out"/>
<feColorMatrix type="matrix" values="0 0 0 0 0.681201 0 0 0 0 0.681201 0 0 0 0 0.681201 0 0 0 0.2 0"/>
<feBlend mode="normal" in2="effect1_backgroundBlur_865_1168" result="effect2_dropShadow_865_1168"/>
<feColorMatrix in="SourceAlpha" type="matrix" values="0 0 0 0 0 0 0 0 0 0 0 0 0 0 0 0 0 0 127 0" result="hardAlpha"/>
<feOffset/>
<feGaussianBlur stdDeviation="0.46372"/>
<feComposite in2="hardAlpha" operator="out"/>
<feColorMatrix type="matrix" values="0 0 0 0 0.136426 0 0 0 0 0.136426 0 0 0 0 0.136426 0 0 0 0.08 0"/>
<feBlend mode="normal" in2="effect2_dropShadow_865_1168" result="effect3_dropShadow_865_1168"/>
<feBlend mode="normal" in="SourceGraphic" in2="effect3_dropShadow_865_1168" result="shape"/>
</filter>
<filter id="filter5_bd_865_1168" x="282.059" y="152.464" width="378.188" height="314.433" filterUnits="userSpaceOnUse" color-interpolation-filters="sRGB">
<feFlood flood-opacity="0" result="BackgroundImageFix"/>
<feGaussianBlur in="BackgroundImageFix" stdDeviation="67.2424"/>
<feComposite in2="SourceAlpha" operator="in" result="effect1_backgroundBlur_865_1168"/>
<feColorMatrix in="SourceAlpha" type="matrix" values="0 0 0 0 0 0 0 0 0 0 0 0 0 0 0 0 0 0 127 0" result="hardAlpha"/>
<feOffset dx="-12.4615" dy="18.8071"/>
<feGaussianBlur stdDeviation="12.3956"/>
<feComposite in2="hardAlpha" operator="out"/>
<feColorMatrix type="matrix" values="0 0 0 0 0.520719 0 0 0 0 0.520719 0 0 0 0 0.520719 0 0 0 0.2 0"/>
<feBlend mode="normal" in2="effect1_backgroundBlur_865_1168" result="effect2_dropShadow_865_1168"/>
<feBlend mode="normal" in="SourceGraphic" in2="effect2_dropShadow_865_1168" result="shape"/>
</filter>
<linearGradient id="paint0_linear_865_1168" x1="21.0491" y1="380.846" x2="282.777" y2="716.331" gradientUnits="userSpaceOnUse">
<stop stop-color="white"/>
<stop offset="1" stop-color="white" stop-opacity="0"/>
</linearGradient>
<linearGradient id="paint1_linear_865_1168" x1="51.0536" y1="56.653" x2="55.9294" y2="88.0063" gradientUnits="userSpaceOnUse">
<stop stop-color="white"/>
<stop offset="1" stop-color="white" stop-opacity="0"/>
</linearGradient>
<linearGradient id="paint2_linear_865_1168" x1="79.6165" y1="135.129" x2="84.4922" y2="166.482" gradientUnits="userSpaceOnUse">
<stop stop-color="white"/>
<stop offset="1" stop-color="white" stop-opacity="0"/>
</linearGradient>
<linearGradient id="paint3_linear_865_1168" x1="15.0154" y1="69.9103" x2="38.0575" y2="171.833" gradientUnits="userSpaceOnUse">
<stop stop-color="white"/>
<stop offset="1" stop-color="white" stop-opacity="0"/>
</linearGradient>
<linearGradient id="paint4_linear_865_1168" x1="507.023" y1="308.976" x2="518.869" y2="325.529" gradientUnits="userSpaceOnUse">
<stop stop-color="#F3F3F3"/>
<stop offset="1" stop-color="#C4C4C4"/>
</linearGradient>
<linearGradient id="paint5_linear_865_1168" x1="507.023" y1="308.976" x2="518.869" y2="325.529" gradientUnits="userSpaceOnUse">
<stop stop-color="#F3F3F3"/>
<stop offset="1" stop-color="#C4C4C4"/>
</linearGradient>
<linearGradient id="paint6_linear_865_1168" x1="91.3866" y1="26.2716" x2="95.9512" y2="65.2319" gradientUnits="userSpaceOnUse">
<stop stop-color="#F7F7F7"/>
<stop offset="1" stop-color="#F7F7F7" stop-opacity="0"/>
</linearGradient>
<linearGradient id="paint7_linear_865_1168" x1="649.286" y1="360.205" x2="681.145" y2="452.514" gradientUnits="userSpaceOnUse">
<stop stop-color="#F2F2F2"/>
<stop offset="1" stop-color="#EEEEEE" stop-opacity="0"/>
</linearGradient>
<clipPath id="clip0_865_1168">
<rect width="654.953" height="491.797" rx="11.654" transform="matrix(0.996195 -0.0871557 0.34202 0.939693 -226.799 -54.1119)" fill="white"/>
</clipPath>
<clipPath id="clip1_865_1168">
<path d="M31.1177 44.2856C29.8802 40.8857 31.799 37.8739 35.4034 37.5585L403.051 5.39354C406.655 5.0782 410.58 7.57876 411.818 10.9787L419.287 31.4991C420.524 34.8991 418.605 37.9109 415.001 38.2262L47.3535 70.3912C43.7491 70.7066 39.824 68.206 38.5866 64.8061L31.1177 44.2856Z" fill="white"/>
</clipPath>
<clipPath id="clip2_865_1168">
<rect width="382.154" height="115.738" rx="6.55122" transform="matrix(0.996195 -0.0871557 0.34202 0.939693 83.0153 186.873)" fill="white"/>
</clipPath>
</defs>
</svg>
