<?xml version="1.0" standalone="no"?><!DOCTYPE svg PUBLIC "-//W3C//DTD SVG 1.1//EN" "http://www.w3.org/Graphics/SVG/1.1/DTD/svg11.dtd"><svg t="1734674189397" class="icon" viewBox="0 0 1024 1024" version="1.1" xmlns="http://www.w3.org/2000/svg" p-id="48120" xmlns:xlink="http://www.w3.org/1999/xlink" width="2000" height="2000"><path d="M192 344.533333v334.933334a21.333333 21.333333 0 0 0 10.88 18.56l298.666667 168.106666a21.333333 21.333333 0 0 0 21.333333 0l298.666667-167.893333a21.333333 21.333333 0 0 0 10.88-18.56V344.533333a21.333333 21.333333 0 0 0-10.88-18.56l-298.666667-168.106666a21.333333 21.333333 0 0 0-21.333333 0l-298.666667 168.106666a21.333333 21.333333 0 0 0-10.88 18.56z" fill="#D9ECFF" p-id="48121"></path><path d="M512 890.24a42.666667 42.666667 0 0 1-21.333333-5.333333L192 716.8a42.666667 42.666667 0 0 1-21.333333-37.12V344.533333a42.666667 42.666667 0 0 1 21.333333-37.12l298.666667-168.106666a42.666667 42.666667 0 0 1 42.666666 0l298.666667 167.893333a42.666667 42.666667 0 0 1 21.333333 37.12v335.146667a42.666667 42.666667 0 0 1-21.333333 37.12l-298.666667 168.106666a42.666667 42.666667 0 0 1-21.333333 5.546667z m0-713.813333l-298.666667 168.106666v334.933334l298.666667 168.106666 298.666667-167.893333V344.533333z" fill="#409EFF" p-id="48122"></path><path d="M522.24 506.24l279.893333-157.44a20.053333 20.053333 0 0 1 29.866667 17.493333v314.026667a20.053333 20.053333 0 0 1-10.24 17.493333L541.866667 855.253333a20.053333 20.053333 0 0 1-29.866667-17.493333V523.733333a20.053333 20.053333 0 0 1 10.24-17.493333z" fill="#FFFFFF" p-id="48123"></path><path d="M532.053333 879.146667A41.386667 41.386667 0 0 1 490.666667 837.76V523.733333a41.386667 41.386667 0 0 1 21.333333-36.053333l280.106667-157.44A41.386667 41.386667 0 0 1 853.333333 366.293333v314.026667a41.386667 41.386667 0 0 1-21.333333 36.053333L552.32 874.666667a41.386667 41.386667 0 0 1-20.266667 4.48zM533.333333 524.373333v311.253334l277.333334-156.373334V368.64z m0 0z" fill="#409EFF" p-id="48124"></path><path d="M600.106667 561.28l144-80.213333v161.706666l-144 80.213334v-161.706667z" fill="#E6A23C" p-id="48125"></path><path d="M722.773333 517.546667v112l-101.333333 56.96v-112l101.333333-56.96m22.613334-58.88a19.84 19.84 0 0 0-9.813334 2.56l-146.773333 82.56a20.053333 20.053333 0 0 0-10.24 17.493333V725.333333a20.053333 20.053333 0 0 0 29.866667 17.493334l146.773333-82.56a20.053333 20.053333 0 0 0 10.24-17.493334v-164.053333a20.053333 20.053333 0 0 0-20.053333-20.053333z" fill="#E6A23C" p-id="48126"></path><path d="M221.866667 348.8l280.106666 157.44a20.053333 20.053333 0 0 1 10.24 17.493333v314.026667a20.053333 20.053333 0 0 1-29.866666 17.493333L202.24 697.813333a20.053333 20.053333 0 0 1-10.24-17.493333V366.293333a20.053333 20.053333 0 0 1 29.866667-17.493333z" fill="#D9ECFF" p-id="48127"></path><path d="M491.946667 879.146667a41.386667 41.386667 0 0 1-21.333334-5.333334L192 716.373333a41.386667 41.386667 0 0 1-21.333333-36.053333V366.293333a41.386667 41.386667 0 0 1 61.653333-36.053333L512 487.68a41.386667 41.386667 0 0 1 21.333333 36.053333v314.026667a41.386667 41.386667 0 0 1-41.386666 41.386667zM213.333333 368v312.106667l277.333334 155.306666V523.733333z" fill="#409EFF" p-id="48128"></path></svg>