<svg width="1921" height="454" viewBox="0 0 1921 454" fill="none" xmlns="http://www.w3.org/2000/svg">
<path d="M1458.75 67.6127C1458.75 31.3671 1488.14 1.98428 1524.38 1.98429L1920.03 1.98432V0.109221L1524.38 0.109192C1488.36 0.109192 1458.93 28.3257 1456.98 63.8625H1456.88V189.494C1456.88 209.17 1440.93 225.121 1421.25 225.121H552.873L419.487 44.279C405.878 25.829 384.315 14.9395 361.389 14.9395H0.0269775V16.8146H361.389C383.72 16.8146 404.723 27.4212 417.978 45.392L550.543 225.121H0.0269775V226.996H551.449L417.978 407.953C404.723 425.924 383.72 436.531 361.389 436.531H0.0269775V438.406H361.389C384.315 438.406 405.878 427.517 419.487 409.066L553.369 227.553L552.614 226.996H1421.25C1440.93 226.996 1456.88 242.947 1456.88 262.623V388.255H1456.9C1457.89 424.677 1487.72 453.9 1524.38 453.9L1920.03 453.9V452.024L1524.38 452.024C1488.14 452.024 1458.75 422.642 1458.75 386.396V276.632C1463.89 292.772 1479 304.464 1496.84 304.464L1920.03 304.464V302.589L1496.84 302.589C1475.81 302.589 1458.75 285.535 1458.75 264.498V262.623C1458.75 244.788 1446.3 229.862 1429.62 226.059C1446.3 222.257 1458.74 207.338 1458.75 189.511C1458.75 168.473 1475.81 151.419 1496.84 151.419L1920.03 151.419V149.544L1496.84 149.544C1479 149.544 1463.89 161.237 1458.75 177.377V67.6127Z" fill="url(#paint0_linear_628_688)"/>
<defs>
<linearGradient id="paint0_linear_628_688" x1="1920.03" y1="226.996" x2="45.858" y2="520.398" gradientUnits="userSpaceOnUse">
<stop stop-color="#E4E4E4"/>
<stop offset="0.512545" stop-color="#75747C"/>
<stop offset="0.985" stop-color="#E4E4E4"/>
</linearGradient>
</defs>
</svg>
