<svg width="24" height="24" fill="none" xmlns="http://www.w3.org/2000/svg" focusable="false" class="chakra-icon chakra-menu__icon css-5ajj01" aria-hidden="true"><mask id="vscodeInsiders_svg__a" maskUnits="userSpaceOnUse" x="0" y="0" width="24" height="24" style="mask-type: alpha;"><path d="M9.41 13.07a.788.788 0 0 0 .9.152l2.608-1.254a.791.791 0 0 0 .449-.713V2.752a.791.791 0 0 0-.449-.713L10.311.784a.789.789 0 0 0-.9.154.463.463 0 0 1 .79.327v11.476c0 .413-.498.62-.79.328Z" fill="#fff"></path><path d="M9.675 9.605 6.357 7.03l3.318-2.628V1.547a.396.396 0 0 0-.663-.293L4.394 5.508 2.244 3.84a.527.527 0 0 0-.674.03l-.697.634c-.23.21-.23.57 0 .78l8.139 7.464a.396.396 0 0 0 .663-.291V9.605Zm-7.16-2.299L.873 8.723a.528.528 0 0 0 0 .78l.698.634a.528.528 0 0 0 .674.03l1.892-1.383-1.62-1.478Z" fill="#fff"></path></mask><g mask="url(#vscodeInsiders_svg__a)"><path d="M9.012 1.254a.396.396 0 0 1 .663.292v2.856L5.892 7.399 3.945 5.92l5.067-4.667ZM2.516 7.306.872 8.722a.528.528 0 0 0 0 .78l.698.635a.527.527 0 0 0 .674.03l1.892-1.384-1.62-1.477Z" fill="#009A7C"></path><g filter="url(#vscodeInsiders_svg__b)"><path d="M9.675 9.605 2.244 3.84a.527.527 0 0 0-.674.03l-.697.634c-.23.21-.23.57 0 .78l8.138 7.464a.396.396 0 0 0 .664-.292V9.605Z" fill="#00B294"></path></g><g filter="url(#vscodeInsiders_svg__c)"><path d="M10.31 13.222a.79.79 0 0 1-.9-.153.464.464 0 0 0 .792-.328V1.265c0-.413-.5-.62-.791-.327a.789.789 0 0 1 .9-.154l2.607 1.255a.79.79 0 0 1 .449.713v8.503a.792.792 0 0 1-.449.713l-2.607 1.254Z" fill="#24BFA5"></path></g></g><defs><filter id="vscodeInsiders_svg__b" x="-23.301" y="-20.268" width="56.976" height="57.122" filterUnits="userSpaceOnUse" color-interpolation-filters="sRGB"><feFlood flood-opacity="0" result="BackgroundImageFix"></feFlood><feColorMatrix in="SourceAlpha" values="0 0 0 0 0 0 0 0 0 0 0 0 0 0 0 0 0 0 127 0" result="hardAlpha"></feColorMatrix><feOffset></feOffset><feGaussianBlur stdDeviation="12"></feGaussianBlur><feColorMatrix values="0 0 0 0 0 0 0 0 0 0 0 0 0 0 0 0 0 0 0.15 0"></feColorMatrix><feBlend in2="BackgroundImageFix" result="effect1_dropShadow_2992_1341"></feBlend><feBlend in="SourceGraphic" in2="effect1_dropShadow_2992_1341" result="shape"></feBlend></filter><filter id="vscodeInsiders_svg__c" x="-14.59" y="-23.294" width="51.957" height="60.595" filterUnits="userSpaceOnUse" color-interpolation-filters="sRGB"><feFlood flood-opacity="0" result="BackgroundImageFix"></feFlood><feColorMatrix in="SourceAlpha" values="0 0 0 0 0 0 0 0 0 0 0 0 0 0 0 0 0 0 127 0" result="hardAlpha"></feColorMatrix><feOffset></feOffset><feGaussianBlur stdDeviation="12"></feGaussianBlur><feColorMatrix values="0 0 0 0 0 0 0 0 0 0 0 0 0 0 0 0 0 0 0.25 0"></feColorMatrix><feBlend mode="overlay" in2="BackgroundImageFix" result="effect1_dropShadow_2992_1341"></feBlend><feBlend in="SourceGraphic" in2="effect1_dropShadow_2992_1341" result="shape"></feBlend></filter></defs></svg>