<svg viewBox="0 0 450 450" fill="none" xmlns="http://www.w3.org/2000/svg" class="h-7">
  <path fill-rule="evenodd" clip-rule="evenodd" d="M392.971 32.0294L200 225L392.971 417.971C397.314 413.627 400 407.627 400 401V49C400 42.3726 397.314 36.3726 392.971 32.0294Z" fill="#60D5C4"/>
  <path fill-rule="evenodd" clip-rule="evenodd" d="M392.971 32.0294L200 225L7.02942 32.0294C11.3726 27.6863 17.3726 25 24 25H376C382.627 25 388.627 27.6863 392.971 32.0294Z" fill="#71E9D8"/>
  <path fill-rule="evenodd" clip-rule="evenodd" d="M7.02944 32.0294L200 225L7.02944 417.971C2.68629 413.627 0 407.627 0 401V49C0 42.3726 2.68629 36.3726 7.02944 32.0294Z" fill="#60D5C4"/>
  <path fill-rule="evenodd" clip-rule="evenodd" d="M392.971 417.971L200 225L7.02942 417.971C11.3726 422.314 17.3726 425 24 425H376C382.627 425 388.627 422.314 392.971 417.971Z" fill="#71E9D8"/>
  <rect x="50" y="75" width="300" height="300" rx="2" fill="#09B6A2"/>
  <path d="M120.8 315.12C101.24 315.12 91.46 305.34 91.46 285.78V243.84C91.46 236.52 87.86 232.86 80.66 232.86C78.02 232.86 75.8 232.02 74 230.34C72.32 228.66 71.48 226.5 71.48 223.86C71.48 221.1 72.32 218.88 74 217.2C75.8 215.52 78.02 214.68 80.66 214.68C87.86 214.68 91.46 211.02 91.46 203.7V161.76C91.46 142.2 101.24 132.42 120.8 132.42C123.44 132.42 125.6 133.32 127.28 135.12C128.96 136.92 129.8 139.14 129.8 141.78C129.8 144.42 128.96 146.58 127.28 148.26C125.6 149.94 123.44 150.78 120.8 150.78C113.48 150.78 109.82 154.44 109.82 161.76V203.7C109.82 207.9 109.34 211.68 108.38 215.04C107.42 218.4 105.98 221.34 104.06 223.86C107.9 228.78 109.82 235.44 109.82 243.84V285.78C109.82 293.1 113.48 296.76 120.8 296.76C123.44 296.76 125.6 297.6 127.28 299.28C128.96 300.96 129.8 303.18 129.8 305.94C129.8 308.58 128.96 310.74 127.28 312.42C125.6 314.22 123.44 315.12 120.8 315.12Z" fill="white"/>
  <path d="M156.733 275.88C153.373 275.88 150.433 274.68 147.913 272.28C145.513 269.76 144.313 266.82 144.313 263.46C144.313 259.98 145.513 257.04 147.913 254.64C150.433 252.12 153.373 250.86 156.733 250.86C160.213 250.86 163.153 252.12 165.553 254.64C167.953 257.04 169.153 259.98 169.153 263.46C169.153 266.82 167.953 269.76 165.553 272.28C163.153 274.68 160.213 275.88 156.733 275.88Z" fill="white"/>
  <path d="M199.623 275.88C196.263 275.88 193.323 274.68 190.803 272.28C188.403 269.76 187.203 266.82 187.203 263.46C187.203 259.98 188.403 257.04 190.803 254.64C193.323 252.12 196.263 250.86 199.623 250.86C203.103 250.86 206.043 252.12 208.443 254.64C210.843 257.04 212.043 259.98 212.043 263.46C212.043 266.82 210.843 269.76 208.443 272.28C206.043 274.68 203.103 275.88 199.623 275.88Z" fill="white"/>
  <path d="M242.514 275.88C239.154 275.88 236.214 274.68 233.694 272.28C231.294 269.76 230.094 266.82 230.094 263.46C230.094 259.98 231.294 257.04 233.694 254.64C236.214 252.12 239.154 250.86 242.514 250.86C245.994 250.86 248.934 252.12 251.334 254.64C253.734 257.04 254.934 259.98 254.934 263.46C254.934 266.82 253.734 269.76 251.334 272.28C248.934 274.68 245.994 275.88 242.514 275.88Z" fill="white"/>
  <path d="M278.564 315.12C275.924 315.12 273.764 314.22 272.084 312.42C270.404 310.74 269.564 308.58 269.564 305.94C269.564 303.18 270.404 300.96 272.084 299.28C273.764 297.6 275.924 296.76 278.564 296.76C285.884 296.76 289.544 293.1 289.544 285.78V243.84C289.544 235.44 291.464 228.78 295.304 223.86C293.384 221.34 291.944 218.4 290.984 215.04C290.024 211.68 289.544 207.9 289.544 203.7V161.76C289.544 154.44 285.884 150.78 278.564 150.78C275.924 150.78 273.764 149.94 272.084 148.26C270.404 146.58 269.564 144.42 269.564 141.78C269.564 139.14 270.404 136.92 272.084 135.12C273.764 133.32 275.924 132.42 278.564 132.42C298.124 132.42 307.904 142.2 307.904 161.76V203.7C307.904 211.02 311.504 214.68 318.704 214.68C321.344 214.68 323.504 215.52 325.184 217.2C326.984 218.88 327.884 221.1 327.884 223.86C327.884 226.5 326.984 228.66 325.184 230.34C323.504 232.02 321.344 232.86 318.704 232.86C311.504 232.86 307.904 236.52 307.904 243.84V285.78C307.904 305.34 298.124 315.12 278.564 315.12Z" fill="white"/>
  
</svg>