<?xml version="1.0" standalone="no"?><!DOCTYPE svg PUBLIC "-//W3C//DTD SVG 1.1//EN" "http://www.w3.org/Graphics/SVG/1.1/DTD/svg11.dtd"><svg t="1733478347356" class="icon" viewBox="0 0 1366 1024" version="1.1" xmlns="http://www.w3.org/2000/svg" p-id="64009" xmlns:xlink="http://www.w3.org/1999/xlink" width="2667.96875" height="2000"><path d="M836.707737 756.129777l173.689628-62.881308a5.928428 5.928428 0 0 0 3.597024-3.597024l62.881308-173.589711a5.99504 5.99504 0 0 1 11.257352 0l62.914614 173.589711a5.328924 5.328924 0 0 0 1.298925 2.064958 5.395536 5.395536 0 0 0 2.298099 1.532066l173.689628 62.881308a5.99504 5.99504 0 0 1 0 11.257352l-173.689628 62.881308c-0.666116 0.199835-1.165702 0.63281-1.698595 1.065785a5.661982 5.661982 0 0 0-1.898429 2.497933l-62.914614 173.656323a5.99504 5.99504 0 0 1-11.257352 0l-62.881308-173.656323a5.528759 5.528759 0 0 0-1.398842-2.164875 5.295619 5.295619 0 0 0-2.198182-1.398843l-173.689628-62.881308a5.99504 5.99504 0 0 1 0-11.257352zM38.501479 386.635484l266.3463-96.420226a9.2257 9.2257 0 0 0 5.495454-5.495453L406.763458 18.506727a9.159089 9.159089 0 0 1 17.252393 0l96.453531 266.213078a8.293139 8.293139 0 0 0 1.998346 3.130743 8.393056 8.393056 0 0 0 3.497107 2.36471l266.346301 96.420226a9.192395 9.192395 0 0 1 0 17.252392l-266.346301 96.420225a8.393056 8.393056 0 0 0-2.564545 1.631984 8.792725 8.792725 0 0 0-2.930908 3.830164L424.015851 772.016633a9.192395 9.192395 0 0 1-17.252393 0l-96.420225-266.246384a8.859337 8.859337 0 0 0-2.164876-3.330578 8.426362 8.426362 0 0 0-3.330578-2.13157l-266.3463-96.420225a9.159089 9.159089 0 0 1 0-17.252392z" fill="#554bf8" p-id="64010"></path></svg>