<svg width="24" height="24" viewBox="0 0 24 24" fill="none" xmlns="http://www.w3.org/2000/svg">
<g id="Frame">
<path id="Vector" d="M11 5.5C8.2475 5.5 6.015 7.724 6 10.473L5.997 11.089L5.445 11.3635C4.73727 11.714 4.16886 12.2935 3.83218 13.0079C3.49549 13.7223 3.4103 14.5295 3.59047 15.2985C3.77064 16.0674 4.20557 16.7528 4.82457 17.2432C5.44356 17.7337 6.21025 18.0004 7 18H16.5C17.5402 18.0018 18.5403 17.5982 19.2879 16.8749C20.0356 16.1516 20.4721 15.1655 20.5048 14.1258C20.5375 13.0861 20.1639 12.0745 19.4632 11.3056C18.7625 10.5368 17.7898 10.0711 16.7515 10.0075L16.025 9.9625L15.845 9.2575C15.292 7.0965 13.331 5.5 11 5.5ZM4.028 9.8715C4.345 6.3 7.346 3.5 11 3.5C14.0225 3.5 16.5955 5.415 17.576 8.0965C20.3765 8.6035 22.5 11.0535 22.5 14C22.5 17.3135 19.8135 20 16.5 20H7C3.9625 20 1.5 17.5375 1.5 14.5C1.5 12.556 2.5085 10.849 4.028 9.8715Z" fill="#219BF4"/>
</g>
</svg>
