<?xml version="1.0" standalone="no"?><!DOCTYPE svg PUBLIC "-//W3C//DTD SVG 1.1//EN" "http://www.w3.org/Graphics/SVG/1.1/DTD/svg11.dtd"><svg t="1734674162238" class="icon" viewBox="0 0 1024 1024" version="1.1" xmlns="http://www.w3.org/2000/svg" p-id="45292" xmlns:xlink="http://www.w3.org/1999/xlink" width="2000" height="2000"><path d="M737.925908 757.129846h28.356923c1.8432 0.283569 3.765169 0.425354 5.671384 0.362339 60.683815-0.078769 109.268677-48.7424 109.268677-108.559754 19.881354-43.811446-1.087015-118.012062-22.417723-132.7104-33.035815-27.616492-64.338708-37.368123-93.688123-27.474708 0 0-46.867692-67.930585-76.705477-97.6896a156.861046 156.861046 0 0 0-111.537231-46.190277h-0.063015c-74.9568 0-140.035938 53.421292-154.734277 126.881477l-4.332308 21.598523-21.960861-2.205538c-72.325908-7.388554-136.963938 45.402585-144.289477 117.649723a128.945231 128.945231 0 0 0-0.630154 14.777107 134.600862 134.600862 0 0 0 125.022523 133.277539l7.104985 0.567138 354.934154-0.283569z" fill="#FFCB01" p-id="45293"></path><path d="M291.194092 383.621908C173.733415 384.882215 78.769231 480.634092 78.769231 598.409846 78.769231 716.957538 175.025231 813.213538 293.572923 813.213538H753.191385c102.683569 0 186.052923-83.369354 186.052923-186.052923 0-100.052677-79.147323-181.767877-178.207508-185.87963C759.855262 310.571323 653.343508 204.8 522.318769 204.8c-111.064615 0-204.500677 76.012308-231.124677 178.821908z m21.661539 64.196923l31.145354 3.954215 4.064492-31.1296C359.297969 334.4384 433.088985 267.815385 522.318769 267.815385c96.996431 0 175.734154 78.737723 175.734154 175.734153 0 9.0112-0.677415 17.864862-1.984985 26.529477l-6.522092 43.071016 42.944985-7.294031a123.100554 123.100554 0 0 1 143.738092 121.304615 123.0848 123.0848 0 0 1-123.037538 123.037539H293.572923C209.809723 750.198154 141.784615 682.1888 141.784615 598.409846s68.025108-151.804062 151.788308-151.804061c6.537846 0 12.965415 0.4096 19.282708 1.213046z" p-id="45294"></path></svg>